<svg xmlns="http://www.w3.org/2000/svg" width="24" height="24" viewBox="0 0 24 24"><path d="M23.478 1.096c-.044-.67-.464-.995-.512-1.03-.086-.062-.19-.096-.295-.096H1.18C.932-.03.722.15.684.392.67.482-.61 9.418 10.023 13.342c1.76.648 2.007 1.1 2.032 1.266.06.396-.816 1.07-1.59 1.663-1.48 1.138-3.322 2.553-2.83 4.647.45 1.904.965 2.76 1.667 2.76h.048c.523-.03.823-.54.887-1.083.106-1.462 1.668-2.557 4.4-3.08 3.46-.67 5.684-1.915 6.606-3.7.702-1.356.638-2.974-.192-4.806-1.7-3.76-1.104-5.24.878-7.133 1.082-1.032 1.603-1.967 1.55-2.78zM20.143 11.42c.696 1.54.77 2.864.215 3.936-.776 1.5-2.764 2.568-5.908 3.177-4.29.823-5.108 2.812-5.208 3.98-.143-.23-.375-.735-.63-1.823-.346-1.466 1.147-2.613 2.464-3.625 1.136-.872 2.118-1.626 1.97-2.606-.12-.783-.945-1.417-2.676-2.056C1.703 9.204 1.517 2.706 1.63.97h20.804c.023.053.045.126.047.224.007.282-.147.912-1.242 1.957-2.557 2.445-2.824 4.454-1.095 8.27z"/></svg>