<svg xmlns="http://www.w3.org/2000/svg" width="24" height="24" viewBox="0 0 24 24"><path d="M22.674 11.295l-.758-.356c.127-.694.632-2.473.762-2.89.006-.014.01-.028.014-.042.078-.282.006-.578-.194-.79-.2-.215-.496-.303-.774-.247l-.122.027c-1.393.306-2.077.434-2.412.487l-.27-.94c-.083-.29-.317-.515-.612-.583-.295-.07-.604.03-.805.253l-1.386 1.533c.232-1.42.635-3.487.734-3.957.004-.01.006-.02.008-.03v-.003c.06-.313-.062-.626-.318-.818-.26-.194-.597-.222-.883-.074l-1.255.655c-.44-.814-1.675-3.126-1.677-3.13-.146-.27-.427-.436-.732-.436h-.002c-.305 0-.585.17-.73.44l-1.674 3.12c-.606-.306-1.165-.61-1.232-.646-.285-.154-.626-.13-.887.06-.262.19-.387.507-.327.822l.055.286c.348 1.797.56 2.968.688 3.73L6.485 6.218c-.203-.224-.512-.32-.803-.253-.293.067-.528.288-.612.576l-.28.952-2.52-.544c-.286-.056-.576.035-.775.246s-.272.505-.196.788l.807 2.938c-.275.136-.623.305-.79.384-.257.124-.432.368-.466.652-.033.284.08.562.3.743l4.856 3.97c-.002.022-.008.052-.02.092l-.35 1.2c-.076.266-.017.55.16.763.177.213.45.325.737.295l3.87-.464c-.12 1.107-.4 3.3-.562 4.557-.01.23.07.45.23.616.156.163.375.257.602.257h2.642c.228 0 .448-.095.605-.26.154-.166.236-.39.222-.647l-.523-4.53c.94.115 2.736.344 3.486.44l.348.043c.255.032.487-.04.663-.196.175-.155.275-.385.275-.63 0-.118-.025-.236-.075-.345l-.336-1.17c0-.004-.004-.012-.008-.02L18 16.65c.462-.36 3.156-2.57 4.72-3.855l.126-.103c.222-.182.333-.46.297-.745-.035-.286-.21-.53-.47-.652zm-5.287 4.562c-.494.385-.498.863-.36 1.13l.307 1.022-.1-.014c-.98-.125-3.722-.473-4.156-.513-.15-.013-.29.05-.39.156s-.15.253-.133.4l.572 4.944h-2.262c.118-.907.56-4.343.595-4.974.008-.147-.05-.29-.157-.393-.107-.1-.25-.15-.4-.13l-4.23.506.276-.954c.196-.675-.134-1-.21-1.066L1.99 12.09c.31-.152.75-.366.917-.456.148-.08.247-.228.262-.395.007-.094-.002-.21-.028-.305l-.806-2.95c.636.138 2.2.474 2.546.55.405.093.655-.138.762-.408l.3-1.015C6.866 8.135 8.1 9.5 8.185 9.587c.155.156.41.2.606.097.42-.222.466-.247-.602-5.77.254.137.634.336 1.024.533.214.108.534.235.83.095.1-.048.2-.15.262-.26l.003.002 1.683-3.143c.397.744 1.468 2.748 1.66 3.094.244.438.687.358.865.326.05-.01.1-.025.146-.05l1.17-.61c-.327 1.425-1.116 5.17-.745 5.605.15.177.425.23.63.122.054-.027.1-.064.14-.107l2.18-2.41.297 1.036c.152.52.316.522 3.29-.13-.318.913-1.097 3.363-.43 3.69l.81.38c-2.65 2.176-4.288 3.514-4.62 3.77z"/></svg>