<svg xmlns="http://www.w3.org/2000/svg" width="24" height="24" viewBox="0 0 24 24"><path d="M23.356 21.992h-5.37v-3h4.894c.194 0 .372-.113.454-.29.08-.177.054-.385-.072-.533l-2.74-3.23h1.74c.194 0 .37-.11.453-.287.083-.175.057-.382-.066-.53l-3.41-4.137h1.78c.19 0 .363-.107.448-.277.085-.17.066-.373-.048-.524l-5.285-7.03c-.094-.127-.242-.2-.4-.2s-.305.073-.398.2l-5.286 7.03c-.113.15-.132.354-.047.523.084.17.258.276.447.276h1.78L8.823 14.12c-.123.15-.15.357-.066.532.083.176.26.287.452.287h1.74l-2.74 3.228c-.125.148-.153.356-.07.533.08.178.258.29.453.29h5.396v3h-10V19h1.702c.276 0 .5-.223.5-.5s-.224-.5-.5-.5H1.225c-.276 0-.5.225-.5.5s.224.5.5.5h1.76v2.99H.484c-.276 0-.5.225-.5.5s.224.5.5.5H23.355c.277 0 .5-.223.5-.5s-.222-.498-.5-.498zm-8.37 0v-3.5c0-.276-.225-.5-.5-.5H9.67l2.74-3.23c.125-.147.153-.355.07-.532-.08-.177-.258-.29-.453-.29h-1.76l3.41-4.135c.123-.15.15-.356.066-.53-.082-.176-.26-.288-.452-.288h-1.838l4.285-5.7 4.284 5.7h-1.84c-.192 0-.37.112-.45.287-.084.175-.058.382.065.53l3.408 4.136h-1.76c-.194 0-.372.113-.454.29-.082.177-.055.385.07.533l2.74 3.23h-4.315c-.276 0-.5.223-.5.5v3.5h-2z"/></svg>