<svg xmlns="http://www.w3.org/2000/svg" width="24" height="24" viewBox="0 0 24 24"><path d="M11.99.227c-.575 0-3.045 4.504-4.08 6.44-2.398 4.483-3.614 7.644-3.614 9.395 0 4.247 3.452 7.702 7.695 7.702 4.245 0 7.697-3.455 7.697-7.702 0-3.265-6.57-15.835-7.696-15.835zm0 22.537c-3.69 0-6.694-3.007-6.694-6.702 0-3.208 5.192-12.105 6.695-14.456 1.504 2.35 6.697 11.246 6.697 14.456 0 3.696-3.003 6.702-6.696 6.702z"/><path d="M10.694 19.905c-1.748-.438-2.968-2.006-2.968-3.812 0-.446.188-1.383 1.08-3.31.116-.25.007-.55-.244-.665-.25-.116-.548-.007-.664.244-.79 1.705-1.173 2.924-1.173 3.73 0 2.267 1.532 4.233 3.725 4.784.04.01.082.015.122.015.224 0 .428-.15.484-.377.07-.27-.094-.54-.362-.608z"/></svg>