<svg xmlns="http://www.w3.org/2000/svg" width="24" height="24" viewBox="0 0 24 24"><path d="M23.006 13.844c.533-.444.804-1.068.804-1.853 0-.78-.27-1.403-.805-1.85-1.077-.897-3.027-.89-5.07-.624 1.638-1.253 3.024-2.618 3.15-3.995.063-.69-.186-1.324-.74-1.88-.555-.552-1.2-.803-1.878-.737-1.354.123-2.716 1.456-4.028 3.152.272-2.05.29-4-.597-5.062C13.4.46 12.775.19 11.99.19c-.784 0-1.408.27-1.854.8-.887 1.06-.88 2.992-.624 5.02C7.876 3.917 6.67 2.988 5.53 2.887c-.676-.057-1.316.194-1.877.755-.554.554-.802 1.186-.74 1.88.128 1.39 1.476 2.724 3.145 3.995-2.043-.264-3.99-.27-5.066.627-.534.445-.805 1.067-.805 1.848 0 .783.27 1.405.806 1.85 1.07.895 2.974.882 5.057.6-1.693 1.31-3.023 2.673-3.146 4.03-.063.692.185 1.323.736 1.875.554.553 1.18.797 1.88.74 1.388-.128 2.725-1.48 4-3.154-.272 2.126-.25 4.03.62 5.075.446.534 1.068.805 1.85.805.783 0 1.407-.272 1.853-.81.896-1.082.873-3.052.59-5.125 1.268 1.67 2.647 3.08 4.04 3.21.69.058 1.325-.185 1.882-.74.553-.554.802-1.186.74-1.88-.12-1.314-1.304-2.602-3.153-4.028 2.053.273 4.002.288 5.064-.596zm-7.347.174c1.394.966 4.298 2.975 4.438 4.54.035.39-.112.743-.45 1.08-.34.34-.69.493-1.083.453-1.56-.145-3.593-3.118-4.57-4.548-.134-.195-.385-.27-.604-.18-.218.09-.343.322-.3.555.346 1.83.988 5.233-.017 6.445-.25.303-.605.45-1.083.45-.477 0-.83-.147-1.08-.446-1.01-1.21-.377-4.683-.073-6.35.042-.233-.083-.463-.3-.553-.063-.025-.128-.038-.192-.038-.16 0-.316.077-.412.216-1.04 1.507-2.97 4.31-4.504 4.448-.387.032-.744-.11-1.082-.45-.337-.336-.483-.688-.448-1.078.143-1.574 3.152-3.653 4.438-4.542.194-.134.268-.385.178-.603-.09-.218-.32-.347-.552-.3-1.8.33-5.148.943-6.33-.04-.3-.25-.446-.605-.446-1.084 0-.476.146-.83.445-1.08 1.207-1.008 4.68-.375 6.35-.073.236.044.462-.083.553-.3.09-.22.015-.47-.18-.604C6.852 8.9 4.052 6.97 3.91 5.43c-.036-.39.11-.743.45-1.08.35-.353.698-.5 1.083-.466 1.343.118 3.094 2.39 4.47 4.36.134.19.386.264.6.174.218-.09.343-.318.302-.55-.312-1.77-.895-5.062.087-6.234.25-.3.606-.445 1.087-.445.48 0 .835.145 1.084.443.986 1.184.346 4.66.038 6.332-.042.23.083.462.3.552.215.09.47.017.604-.177.965-1.396 2.974-4.298 4.54-4.44.384-.033.744.112 1.08.45.34.34.49.693.453 1.08-.14 1.538-3.05 3.542-4.45 4.505-.193.133-.268.385-.178.603.09.217.314.347.552.3 1.67-.302 5.146-.934 6.35.072.3.25.446.604.446 1.082 0 .48-.146.835-.444 1.084-1.18.984-4.532.37-6.332.04-.238-.046-.463.083-.552.3-.09.218-.017.47.177.602z"/><path d="M11.93 9.135c-1.57 0-2.85 1.277-2.85 2.848s1.278 2.848 2.85 2.848 2.847-1.276 2.847-2.847S13.5 9.135 11.93 9.135zm0 4.695c-1.02 0-1.85-.83-1.85-1.848s.83-1.848 1.85-1.848 1.847.83 1.847 1.848-.83 1.848-1.848 1.848z"/></svg>