<svg xmlns="http://www.w3.org/2000/svg" width="24" height="24" viewBox="0 0 24 24"><path d="M17.085 2.484c-.193-.09-.422-.052-.57.1s-.19.38-.095.572c1.86 3.784 1.23 8.24-1.597 11.352-2.842 3.124-7.163 4.1-11.282 2.543-.196-.07-.42-.016-.557.145-.137.16-.158.39-.052.574 2.225 3.853 5.008 5.77 8.76 6.025.27.02.536.027.804.027 2.865 0 5.67-1.046 7.798-2.93 2.18-1.932 3.463-4.58 3.614-7.458.247-4.696-2.302-8.79-6.82-10.95zm2.544 17.658c-2.128 1.885-5 2.85-7.87 2.654-3.005-.205-5.334-1.608-7.247-4.39 4.095 1.053 8.23-.126 11.05-3.228 2.778-3.056 3.623-7.294 2.31-11.128 3.375 2.088 5.236 5.49 5.035 9.33-.137 2.61-1.302 5.01-3.28 6.762z"/><path d="M3.278 8.577c-.094.312.02.635.288.824l2.074 1.455-.748 2.288c-.1.3 0 .62.254.817.26.2.624.217.9.04l2.183-1.405 2.177 1.4c.13.086.277.128.426.128.168 0 .335-.054.475-.16.255-.194.356-.516.258-.82l-.75-2.288L12.893 9.4c.27-.19.382-.512.287-.823-.096-.314-.385-.53-.72-.54h-.003L9.81 7.99l-.86-2.287c-.11-.3-.393-.495-.72-.495-.362-.005-.61.193-.723.492l-.86 2.29-2.65.048c-.335.008-.624.225-.72.54zm3.726.405c.205-.004.387-.132.458-.324l.766-2.037.766 2.038c.072.192.253.32.458.324l2.233.042-1.748 1.225c-.18.125-.256.355-.188.564l.65 1.99-1.9-1.225c-.165-.107-.376-.107-.54 0l-1.905 1.224.65-1.99c.07-.21-.007-.44-.187-.565L4.77 9.023l2.234-.042zM3.66 4.427l.22.153c.704.497 1.026.725 1.395.455.37-.27.255-.64-.025-1.533l-.056-.18.135-.1c.79-.587 1.087-.806.944-1.245-.14-.435-.533-.44-1.393-.446l-.276-.002-.066-.195c-.3-.875-.425-1.238-.88-1.238h-.003c-.456 0-.58.37-.855 1.18l-.088.254h-.18c-.984.014-1.352.02-1.492.46-.14.434.177.666.87 1.175l.215.158-.052.165c-.283.903-.4 1.277-.03 1.548.108.078.212.115.322.115.266 0 .57-.214 1.065-.563l.23-.16zm-.577-.817l.103-.33c.062-.203-.01-.42-.178-.547l-.276-.204.35-.006c.208-.005.392-.138.46-.335l.117-.337.116.337c.07.197.253.33.462.334l.35.004-.277.204c-.167.127-.238.345-.177.546l.103.332-.293-.205c-.086-.06-.185-.088-.284-.088s-.2.03-.285.088l-.292.205z"/></svg>