<svg xmlns="http://www.w3.org/2000/svg" width="24" height="24" viewBox="0 0 24 24"><path d="M20.36 15.654c-1.875 0-3.4 1.524-3.4 3.398s1.525 3.398 3.4 3.398 3.397-1.524 3.397-3.398-1.524-3.398-3.398-3.398zm0 5.797c-1.323 0-2.4-1.075-2.4-2.397s1.077-2.398 2.4-2.398 2.397 1.076 2.397 2.398-1.075 2.398-2.398 2.398zM4.982 13.01c-2.603 0-4.72 2.117-4.72 4.72 0 2.604 2.117 4.722 4.72 4.722s4.72-2.118 4.72-4.722c.002-2.603-2.117-4.72-4.72-4.72zm0 8.44c-2.052 0-3.72-1.67-3.72-3.72s1.668-3.722 3.72-3.722 3.72 1.67 3.72 3.72-1.668 3.723-3.72 3.723zM14.444 20.028h-2.888c-.276 0-.5.224-.5.5s.224.5.5.5h2.888c.276 0 .5-.224.5-.5s-.223-.5-.5-.5z"/><path d="M4.63 17.37c-.09.09-.15.22-.15.36 0 .13.06.26.15.35.09.1.22.15.35.15.13 0 .26-.05.36-.15.09-.1.14-.22.14-.35 0-.14-.05-.26-.14-.36-.19-.18-.54-.17-.71 0zM20 18.7c-.09.09-.14.22-.14.35s.05.26.15.36c.09.09.22.14.35.14.13 0 .25-.05.36-.15.09-.09.14-.22.14-.35 0-.12-.05-.25-.15-.36-.19-.18-.51-.18-.71.01zM20.36 14.854c.762 0 1.508.206 2.157.597.154.095.348.096.504.008.158-.09.255-.255.255-.436v-.75c0-2.648-4.644-3.203-5.225-3.26h-.09V7.99c0-.277-.224-.5-.5-.5s-.5.223-.5.5v3.023h-2.114L13.53 4.986h.058c.276 0 .5-.224.5-.5s-.224-.5-.5-.5h-9.07c-.277 0-.5.224-.5.5s.223.5.5.5H5v6H2.51c-.275 0-.5.224-.5.5s.225.5.5.5H8.3l2.54 3.43c.12.15.187.342.187.535v2.578c0 .276.224.5.5.5h4.177c.25 0 .462-.185.496-.432.288-2.098 2.115-3.742 4.16-3.742zM6 4.984h2.05v6H6v-6zm5.636 9.823L9.05 11.32V4.985h3.458l1.436 6.58v6.463h-1.917V15.95c0-.417-.142-.827-.39-1.143zm3.65 3.22h-.342v-6.015L18 12.01c1.096.112 4.198.76 4.274 2.208-.606-.24-1.256-.364-1.915-.364-2.432 0-4.543 1.766-5.073 4.174z"/></svg>