<svg xmlns="http://www.w3.org/2000/svg" width="24" height="24" viewBox="0 0 24 24"><path d="M6.633 8.98c.027.003.054.005.08.005.24 0 .453-.175.492-.42.187-1.17.71-2.493 1.132-2.51.35-.01.85.233 1.284.452.67.337 1.68.847 2.2-.063.39-.684 1.135-1.002 2.85-1.217 1.23-.154 1.58-.863 1.77-1.244.018-.037.04-.082.06-.118.026.01.062.02.107.042.94.413 3.004 3.935 3.082 4.634.03.275.28.468.552.442.274-.03.472-.28.44-.553-.102-.906-2.28-4.827-3.673-5.44-.98-.43-1.31.23-1.468.55-.16.325-.302.607-.996.694-1.74.218-2.95.58-3.59 1.725-.135.03-.604-.205-.883-.347-.542-.272-1.157-.583-1.775-.558-1.48.06-1.992 2.802-2.08 3.35-.043.274.142.53.415.574zM20.43 17.045c-1.362 0-2.47 1.108-2.47 2.47s1.107 2.47 2.47 2.47c1.36 0 2.47-1.107 2.47-2.47 0-1.362-1.11-2.47-2.47-2.47zm0 3.94c-.81 0-1.47-.66-1.47-1.47s.66-1.47 1.47-1.47 1.47.66 1.47 1.47-.66 1.47-1.47 1.47z"/><path d="M22.56 10.66c.058-.154.036-.326-.057-.46-.094-.134-.247-.215-.41-.215H4.242l-.514-1.65c-.067-.208-.26-.35-.48-.35H1.006c-.276 0-.5.224-.5.5s.224.5.5.5h1.878l3.948 12.65c.066.207.26.35.478.35h1.37c.197 0 .375-.114.456-.292l1.786-3.915c.822.186 1.685.305 2.566.305.848 0 1.712-.107 2.566-.362 2.887-.86 5.077-3.235 6.51-7.06zM8.358 20.985h-.68l-1.618-5.182c.91.534 2.28 1.23 3.88 1.714l-1.583 3.468zm7.414-4.224c-4.43 1.323-9.373-1.887-10.172-2.435l-1.042-3.34h16.8c-1.308 3.117-3.185 5.06-5.585 5.776z"/></svg>