<svg xmlns="http://www.w3.org/2000/svg" width="24" height="24" viewBox="0 0 24 24"><path d="M6.67 11.843c.406.067 2.044.12 4.004.12 2.993 0 6.737-.122 7.992-.5 1.36-.407 3.224-.966 3.7-2.547.383-1.265-.24-2.852-1.9-4.853C16.195-1.073 10.585.47 8.68.993c-1.67.46-7.016 4.29-6.853 7.428.09 1.755 1.72 2.906 4.844 3.423zM9.008 1.94c1.87-.513 6.833-1.876 10.688 2.762 1.41 1.7 1.988 3.02 1.715 3.925-.322 1.066-1.888 1.536-3.073 1.89-1.863.56-10.665.477-11.503.34-1.785-.297-3.93-.968-4.01-2.488C2.7 5.91 7.48 2.36 9.008 1.94z"/><path d="M5.25 8.36c.07.033 1.664.79 5.623.79.252 0 .515-.004.788-.01.277-.007.495-.236.49-.512-.008-.276-.228-.515-.513-.488-4.245.1-5.933-.672-5.95-.68-.25-.12-.546-.017-.666.23-.12.248-.018.548.23.67zM23.253 22.985h-1.586c-.227-.43-.462-1-.438-1.296.022-.276-.182-.52-.457-.54-.268-.012-.518.18-.54.455-.036.43.136.953.322 1.38H19.39c.457-.633.858-1.576.553-2.777-.066-.268-.34-.434-.607-.36-.268.066-.43.34-.36.606.34 1.35-.61 2.26-.942 2.53h-.1c-.168-.384-.203-1.736-.07-3.066.077-.49.1-1.005.037-1.542-.032-.274-.285-.468-.554-.44-.274.033-.47.28-.44.556.087.735-.032 1.43-.23 2.056-1.157-1.813-1.902-5.843-2.11-7.432-.036-.275-.308-.47-.56-.43-.275.035-.468.286-.433.56.088.67.878 6.328 2.667 8.376-.335.653-.694 1.134-.883 1.363H9.033c.99-2.902 1.698-9.407 1.73-9.708.03-.274-.17-.52-.444-.55-.278-.035-.522.17-.55.444-.01.077-.796 7.32-1.802 9.815h-.666l-.428-3.46c-.03-.255-.23-.415-.508-.438-.257.007-.468.207-.486.463-.12 1.636-.56 3.266-.916 3.436H3.802c.283-.457.51-1.05.375-1.676-.058-.27-.33-.44-.594-.383-.27.058-.44.324-.383.594.114.525-.357 1.15-.658 1.466H.656c-.276 0-.5.224-.5.5s.224.5.5.5h22.597c.276 0 .5-.224.5-.5s-.224-.5-.5-.5zm-6.414-.366c.018.133.044.25.07.366h-.306c.077-.114.155-.235.235-.367zm-10.575.12l.03.245H6.15c.04-.08.08-.157.115-.244z"/></svg>