<svg xmlns="http://www.w3.org/2000/svg" width="24" height="24" viewBox="0 0 24 24"><path d="M16.482 20.595c-.276 0-.5.224-.5.5 0 .977-.794 1.77-1.77 1.77s-1.772-.793-1.772-1.77V14.74c0-.277-.224-.5-.5-.5s-.5.223-.5.5v6.355c0 1.527 1.243 2.77 2.77 2.77 1.528 0 2.772-1.242 2.772-2.77 0-.276-.223-.5-.5-.5zM12.44 1.92V.556c0-.276-.223-.5-.5-.5s-.5.224-.5.5v1.367C5.108 2.173.037 6.828.037 12.53c0 .277.224.5.5.5h.16c.212 0 .402-.134.472-.336.33-.952 1.226-1.592 2.232-1.592 1.006 0 1.903.64 2.232 1.592.07.202.26.337.473.337h.32c.212 0 .402-.134.472-.336.33-.952 1.226-1.592 2.232-1.592 1.005 0 1.902.64 2.23 1.593.07.2.26.336.474.336h.208c.213 0 .403-.134.473-.336.33-.952 1.227-1.592 2.232-1.592s1.902.64 2.232 1.593c.07.2.26.336.472.336h.318c.213 0 .403-.134.473-.336.33-.952 1.227-1.592 2.232-1.592s1.903.64 2.232 1.592c.07.202.26.337.473.337h.224c.276 0 .5-.223.5-.5 0-5.72-5.1-10.387-11.463-10.61zm8.036 8.182c-1.184 0-2.262.622-2.864 1.604-.604-.98-1.68-1.604-2.864-1.604-1.148 0-2.198.585-2.81 1.517-.612-.932-1.66-1.518-2.81-1.518-1.183 0-2.26.622-2.863 1.604-.603-.98-1.68-1.604-2.864-1.604-.832 0-1.614.31-2.213.833C2.05 6.38 6.557 2.9 11.97 2.9c5.44 0 9.965 3.517 10.798 8.105-.61-.567-1.422-.903-2.292-.903z"/></svg>