<svg xmlns="http://www.w3.org/2000/svg" width="24" height="24" viewBox="0 0 24 24"><path d="M11.824 9.616c1.192.518 2.276.79 3.233.79.913 0 1.717-.235 2.405-.708C20.646 7.51 20.018 1.08 19.99.808c-.015-.14-.087-.266-.198-.35-.11-.083-.255-.114-.39-.09-5.94 1.09-7.926 3.655-8.533 5.668-2.064-2.04-6.914-1.208-7.153-1.167-.136.024-.257.104-.332.22-.075.118-.098.26-.064.396.046.178 1.15 4.37 3.867 5.19.307.092.62.138.94.138.864 0 1.77-.354 2.708-1.033.08.68.234 1.636.55 2.645.168.54.21 1.277.122 2.19-.026.274.175.52.45.545l.048.002c.255 0 .473-.193.497-.452.1-1.046.045-1.916-.164-2.583-.297-.954-.442-1.877-.514-2.51zm7.208-8.157c.076 1.54.08 5.89-2.137 7.415-1.164.797-2.834.69-4.963-.3.334-.61 1.054-1.702 2.12-2.096 1.775-.657 3.36-1.975 3.43-2.03.21-.178.238-.493.06-.705-.18-.213-.494-.24-.703-.063-.017.013-1.525 1.264-3.136 1.86-.89.328-1.568 1-2.05 1.635.19-1.714 1.458-4.485 7.378-5.718zM7.478 9.72c-1.68-.507-2.66-2.876-3.023-3.95 1.874-.233 5.43-.254 6.175 1.674v.042c-.002.09-.004.18-.003.264-1.312-.637-3.104-.77-3.36-.785-.283-.013-.512.193-.53.468-.016.276.194.513.47.53.626.038 2.35.273 3.267.844-1.1.867-2.107 1.18-2.996.912zM8.38 15.877c-.56-.413-.6-.46-.8-.696-.236-.275-.675-.79-2.162-2.212-.588-.564-1.417-.428-1.85.022-.43.45-.403 1.102.026 1.508l1.05 1.243c.09.16.173.35.228.506-.16-.068-.386-.196-.68-.424-.147-.133-.264-.238-1.514-2.06-.135-.195-.206-.423-.206-.656v-1.773c0-.68-.53-1.194-1.232-1.194S.01 10.65.01 11.332l-.006.723c-.015 1.352-.022 2.097.627 3.042.478.695.79 1.196 1.03 1.585.873 1.407.98 1.5 3.777 3.278.908.578.902 1.14.89 2.368l-.004.445c0 .66.552 1.2 1.23 1.2H9.7c.68 0 1.23-.54 1.23-1.2V20.48c0-1.68-.197-3.42-2.55-4.603zm1.55 6.896c0 .11-.103.2-.23.2H7.555c-.127 0-.23-.09-.23-.2l.002-.435c.014-1.26.026-2.346-1.353-3.222-2.687-1.708-2.7-1.73-3.464-2.962-.247-.397-.565-.91-1.055-1.624-.47-.685-.465-1.206-.45-2.465l.004-.733c0-.16.125-.194.23-.194.106 0 .232.034.232.194v1.773c0 .437.132.86.382 1.224 1.317 1.917 1.44 2.03 1.668 2.233l.086.076c.946.722 1.724.878 2.132.425.406-.45.102-1.236-.278-1.892l-1.14-1.358c-.083-.08-.068-.097-.03-.135.052-.056.245-.172.434.01 1.45 1.386 1.867 1.875 2.09 2.138.26.303.344.393 1.004.878.023.018.048.033.075.046 1.885.934 2.035 2.187 2.035 3.727v2.293zM23.874 12.055l-.005-.723c0-.68-.53-1.194-1.232-1.194s-1.23.513-1.23 1.194v1.773c0 .233-.072.46-.207.657-1.248 1.82-1.365 1.925-1.535 2.082-.282.215-.505.337-.66.403.048-.147.12-.316.18-.434l1.062-1.276c.468-.447.494-1.1.062-1.55-.43-.45-1.262-.584-1.85-.02-1.486 1.42-1.925 1.936-2.16 2.212-.202.236-.242.282-.8.695-2.355 1.184-2.553 2.923-2.553 4.603v2.294c0 .66.553 1.2 1.23 1.2h2.146c.68 0 1.23-.54 1.23-1.2l-.002-.444c-.013-1.23-.02-1.79.89-2.368 2.8-1.78 2.904-1.87 3.776-3.277.24-.39.553-.89 1.03-1.586.65-.945.643-1.69.628-3.042zm-1.45 2.476c-.49.714-.81 1.23-1.057 1.626-.763 1.23-.777 1.253-3.463 2.96-1.378.877-1.366 1.965-1.353 3.224l.004.434c0 .11-.104.2-.23.2h-2.146c-.125 0-.23-.092-.23-.2V20.48c0-1.54.148-2.793 2.034-3.727.026-.013.052-.028.075-.046.66-.485.745-.575 1.003-.878.224-.264.64-.753 2.09-2.14.077-.072.153-.098.22-.098.103 0 .185.056.217.09.036.037.052.054-.07.175l-1.153 1.393c-.327.58-.632 1.366-.226 1.816.41.45 1.185.297 2.132-.426.012-.008.077-.067.088-.076.227-.205.352-.318 1.667-2.234.25-.364.382-.787.382-1.224v-1.773c0-.32.463-.32.463 0l.005.733c.013 1.26.02 1.78-.452 2.465z"/></svg>