<svg xmlns="http://www.w3.org/2000/svg" width="24" height="24" viewBox="0 0 24 24"><path d="M12.5 3.024V.67c0-.276-.225-.5-.5-.5s-.5.224-.5.5v2.354c-3.937.292-7.062 3.98-7.062 8.486 0 .276.224.5.5.5H6.04v5.34c0 3.01 2.407 5.48 5.46 5.728v.225c0 .276.223.5.5.5s.5-.224.5-.5v-.225c3.05-.246 5.457-2.72 5.457-5.727v-5.34h1.104c.277 0 .5-.224.5-.5 0-4.505-3.124-8.194-7.06-8.486zm4.457 14.326c0 2.62-2.225 4.75-4.958 4.75-2.735 0-4.96-2.13-4.96-4.75v-5.34h9.917v5.34zm.5-6.34H5.453C5.678 7.1 8.528 3.996 12 3.996c3.47 0 6.32 3.103 6.546 7.014h-1.09z"/><path d="M8.5 16.892c.275 0 .5-.224.5-.5v-2.77c0-.275-.225-.5-.5-.5s-.5.225-.5.5v2.77c0 .277.223.5.5.5zM7.14 9.15c-.09.09-.14.22-.14.35s.05.26.14.35c.1.1.23.15.36.15.13 0 .26-.05.36-.15.09-.09.14-.22.14-.35s-.05-.26-.15-.35c-.19-.19-.52-.19-.71 0zM10.15 9.15c-.1.09-.15.22-.15.35s.05.26.15.35c.09.1.22.15.35.15.13 0 .26-.05.35-.15.1-.09.15-.22.15-.35s-.05-.26-.15-.35c-.19-.19-.51-.19-.7 0zM13.15 9.15c-.1.09-.15.22-.15.35s.05.26.14.35c.1.1.23.15.36.15s.26-.05.36-.15c.09-.1.14-.22.14-.35s-.05-.25-.15-.35c-.18-.19-.52-.19-.7 0zM10.15 5.15c-.1.09-.15.22-.15.35 0 .14.05.27.15.36.09.09.22.15.35.15.13 0 .26-.06.35-.15.1-.09.15-.22.15-.36 0-.13-.05-.26-.15-.35-.19-.19-.51-.19-.7 0zM13.15 5.15c-.1.09-.15.22-.15.36 0 .13.05.25.15.35.09.09.22.14.35.14s.26-.05.36-.15c.09-.09.14-.22.14-.34 0-.14-.05-.26-.15-.36-.18-.19-.52-.18-.7 0zM16 9.5c0 .14.06.27.14.35.1.1.23.15.36.15s.26-.05.35-.14c.1-.1.15-.23.15-.36s-.05-.26-.15-.36c-.19-.18-.51-.18-.7.01-.1.09-.15.22-.15.35zM15.12 7.15c-.09.1-.14.22-.14.35s.05.26.14.36c.1.09.23.14.36.14s.26-.05.36-.15c.09-.09.14-.22.14-.35s-.05-.25-.15-.35c-.19-.19-.52-.19-.71 0zM11.65 7.15c-.1.09-.15.22-.15.35s.05.26.15.36c.09.09.22.14.35.14.13 0 .25-.05.35-.14.1-.1.15-.23.15-.36s-.05-.26-.15-.36c-.19-.18-.51-.18-.7.01zM9.13 7.15c-.1.09-.15.22-.15.35s.05.26.14.35c.1.1.23.15.36.15.13 0 .26-.05.35-.15.1-.09.15-.22.15-.35s-.05-.26-.15-.35c-.19-.19-.52-.19-.7 0z"/></svg>