<svg xmlns="http://www.w3.org/2000/svg" width="24" height="24" viewBox="0 0 24 24"><path d="M2.14 10.13c-.09.1-.14.23-.14.36 0 .12.05.25.15.35.1.09.22.14.35.14.13 0 .26-.05.36-.14.09-.1.14-.23.14-.35 0-.13-.05-.26-.15-.36-.19-.18-.5-.19-.71 0zM2.15 16.13c-.09.09-.15.22-.15.36 0 .13.05.26.15.35s.22.15.35.15c.13 0 .25-.05.36-.15.09-.1.14-.22.14-.35 0-.14-.05-.27-.15-.36-.18-.19-.52-.18-.7 0zM11.15 10.13c-.09.09-.15.22-.15.36 0 .13.06.26.15.35.09.09.22.15.35.15.13 0 .26-.06.36-.16.09-.09.14-.22.14-.34 0-.13-.05-.26-.15-.36-.19-.19-.52-.18-.7 0zM11.15 16.13c-.09.09-.15.22-.15.36 0 .13.05.26.15.35.1.1.22.15.35.15.13 0 .25-.05.36-.15.09-.1.14-.22.14-.35 0-.14-.05-.27-.15-.36-.18-.19-.51-.18-.7 0z"/><path d="M22.855 5.355l-2-1.983c-.195-.193-.51-.193-.705 0l-2 1.983c-.094.094-.147.222-.147.355v4.275h-4V5.71c0-.133-.054-.26-.147-.355l-2-1.983c-.195-.193-.51-.193-.704 0l-2 1.983c-.096.094-.15.222-.15.355v4.275h-4V5.71c0-.133-.052-.26-.147-.355l-2-1.983c-.195-.193-.51-.193-.704 0l-2 1.983c-.094.094-.148.222-.148.355v15.775c0 .276.224.5.5.5h4c.276 0 .5-.224.5-.5v-4.5h4v4.5c0 .276.224.5.5.5h4c.276 0 .5-.224.5-.5v-4.5h4v4.5c0 .276.224.5.5.5h4c.276 0 .5-.224.5-.5V5.71c0-.133-.053-.26-.147-.355zM4.002 20.985h-3V5.92l1.5-1.49 1.5 1.49v15.065zm1-5v-5h4v5h-4zm8 5h-3V5.92l1.5-1.49 1.5 1.49v15.065zm1-5v-5h4v5h-4zm8 5h-3V5.92l1.5-1.49 1.5 1.49v15.065z"/><path d="M20.15 10.13c-.1.1-.15.22-.15.36 0 .12.06.25.15.35.09.09.22.15.35.15s.26-.06.36-.15c.09-.1.14-.23.14-.35 0-.13-.05-.26-.14-.36-.19-.18-.53-.19-.71 0zM20.15 16.13c-.09.1-.15.23-.15.36s.05.25.15.35c.1.09.22.15.35.15s.26-.06.36-.15c.09-.1.14-.23.14-.35 0-.13-.05-.26-.15-.36-.18-.18-.51-.19-.7 0z"/></svg>