<svg xmlns="http://www.w3.org/2000/svg" width="24" height="24" viewBox="0 0 24 24"><path d="M18.556 14.067c1.205-.37 2.208-.838 2.9-1.398.214-.175.247-.49.073-.704-.175-.215-.49-.248-.704-.074C19.29 13.136 15.824 13.94 12 13.94c-3.827 0-7.29-.804-8.828-2.048-.214-.173-.53-.14-.703.074s-.142.53.073.703c.69.56 1.694 1.028 2.9 1.397.008.008.012.018.02.025l5.722 4.46-5.72 4.458c-.22.17-.257.484-.088.702.1.126.246.192.395.192.107 0 .216-.034.307-.105L12 19.184l5.92 4.614c.09.07.2.104.307.104.148 0 .296-.066.395-.192.17-.218.13-.532-.087-.702l-5.72-4.46 5.72-4.458c.008-.007.012-.017.02-.025zm-10.81.536c1.308.218 2.747.337 4.253.337 1.505 0 2.945-.12 4.252-.337L12 17.918l-4.253-3.315z"/><path d="M6.6 12.34c.276-.01.49-.243.48-.52l-.315-8.59c-.02-.572.186-1.114.584-1.526.396-.413.93-.64 1.504-.64h6.282c.572 0 1.106.227 1.504.64.397.412.605.955.584 1.527l-.316 8.59c-.01.277.206.51.48.52h.02c.268 0 .49-.213.5-.482l.316-8.59c.03-.846-.276-1.648-.864-2.258-.587-.61-1.377-.945-2.224-.945H8.854c-.847 0-1.637.336-2.225.946-.59.61-.895 1.412-.864 2.258l.316 8.59c.01.276.242.498.518.48z"/></svg>