<svg xmlns="http://www.w3.org/2000/svg" width="24" height="24" viewBox="0 0 24 24"><path d="M18.573 11.656c-.325-.335-1.863-2.096-.17-3.895 1.032-1.096.7-1.928.508-2.234-.51-.82-1.88-1.135-3.19-.73-.197.063-.353.046-.516-.05-.447-.265-.873-1.167-1.11-2.353C13.89 1.378 13.034.27 12.016.338c-1.056-.066-1.908 1.04-2.11 2.055-.24 1.185-.664 2.087-1.113 2.353-.16.096-.32.11-.516.05-1.307-.404-2.68-.09-3.19.73-.19.306-.525 1.138.508 2.235 1.693 1.8.156 3.56-.17 3.895-.653.672-.684 1.316-.595 1.738.155.737.744 1.216 1.2 1.4.097.04.206.077.32.117.292.103.736.257.805.45.044.12-.027.348-.194.624-.438.725-.348 1.258-.195 1.576.352.732 1.304 1 2.042 1.1.468.06 1.78.83 2.692 1.433v3.168c0 .277.223.5.5.5s.5-.223.5-.5v-3.166c1.046-.69 2.302-1.4 2.672-1.433.372-.033 1.618-.212 2.05-1.066.163-.325.265-.868-.185-1.61-.167-.275-.238-.503-.194-.624.07-.192.513-.347.807-.45.113-.04.222-.077.317-.116.458-.185 1.047-.663 1.2-1.4.09-.423.06-1.067-.594-1.738zm-.384 1.532c-.066.314-.352.58-.6.68-.08.033-.174.064-.27.1-.502.174-1.188.413-1.42 1.054-.153.43-.06.915.28 1.48.118.194.238.462.147.644-.14.28-.733.473-1.247.52-.59.055-1.77.734-2.58 1.242v-1.705l2.073-1.845c.207-.184.225-.5.042-.706-.186-.208-.5-.225-.706-.042l-1.41 1.254v-2.207l2.28-2.03c.207-.184.226-.5.042-.706-.186-.206-.5-.225-.706-.04L12.5 12.316V10.11l2.456-2.185c.207-.184.226-.5.042-.706-.186-.21-.502-.227-.706-.043L12.5 8.772v-.696c0-.276-.225-.5-.5-.5s-.5.224-.5.5v.696L9.707 7.178c-.207-.184-.524-.165-.707.04-.182.208-.164.524.042.708L11.5 10.11v2.207L9.88 10.88c-.208-.184-.523-.166-.706.042-.184.206-.165.522.04.706l2.283 2.03v2.206l-1.41-1.254c-.208-.183-.523-.166-.706.042-.184.206-.165.522.04.706l2.075 1.845v1.7c-.79-.495-1.93-1.152-2.563-1.235-.656-.086-1.154-.298-1.27-.54-.084-.174.035-.436.15-.625.343-.566.435-1.05.28-1.48-.23-.642-.917-.88-1.418-1.056-.098-.034-.19-.065-.272-.1-.248-.1-.533-.365-.6-.68-.056-.268.057-.55.334-.834 1.302-1.34 1.863-3.49.18-5.277-.23-.245-.586-.702-.387-1.02.158-.254.624-.434 1.195-.434.268 0 .56.04.853.13.465.144.92.094 1.323-.146.964-.574 1.404-2.137 1.58-3.017.115-.574.62-1.253 1.114-1.253h.017c.45-.04.98.672 1.098 1.252.177.88.616 2.443 1.58 3.016.4.24.86.29 1.322.146.916-.283 1.815-.068 2.047.303.2.32-.157.776-.388 1.02-1.682 1.788-1.12 3.94.182 5.278.276.285.388.566.33.835z"/></svg>