<svg xmlns="http://www.w3.org/2000/svg" width="24" height="24" viewBox="0 0 24 24"><path d="M18.282 9.444c-1.766-5.66-4.434-8.076-5.5-8.852-.468-.342-1.1-.342-1.57 0-1.064.776-3.73 3.19-5.497 8.852-1.758 5.642.87 7.674 2.998 8.712.888.433 1.833.67 2.785.735v4.426c0 .276.224.5.5.5s.5-.224.5-.5V18.89c.952-.064 1.897-.3 2.784-.734 2.13-1.038 4.758-3.07 3-8.712zm-3.436 7.814c-.75.365-1.544.57-2.347.632v-3.262l2.564-2.282c.207-.184.226-.5.042-.706-.186-.208-.5-.226-.706-.042l-1.9 1.69v-2.215l1.683-1.498c.207-.184.225-.5.042-.706-.186-.207-.502-.227-.706-.042l-1.02.907V6.277c0-.276-.225-.5-.5-.5s-.5.224-.5.5v1.577l-.828-.735c-.207-.186-.523-.167-.706.04-.184.207-.165.522.04.706L11.5 9.193v2.215L9.875 9.964c-.208-.184-.523-.165-.706.04-.184.208-.165.523.04.707l2.29 2.036v2.215L9.403 13.1c-.208-.184-.523-.166-.706.04-.184.208-.165.524.04.708L11.5 16.3v1.59c-.8-.063-1.596-.267-2.345-.632-2.07-1.01-3.985-2.692-2.48-7.516 1.675-5.376 4.146-7.624 5.13-8.34.06-.043.128-.065.197-.065s.138.02.196.064c.984.718 3.455 2.966 5.132 8.342 1.503 4.823-.412 6.506-2.482 7.516z"/></svg>