<svg xmlns="http://www.w3.org/2000/svg" width="24" height="24" viewBox="0 0 24 24"><path d="M23.492 1.954c-.093-.26-.382-.393-.64-.3C11.486 5.74 1.022 7.04.917 7.05c-.273.034-.47.283-.436.557.032.253.248.44.497.44.02 0 .04-.002.06-.004.106-.013 10.676-1.323 22.153-5.452.26-.093.395-.38.302-.64zM10.167 4.236c.863 0 1.564-.702 1.564-1.564 0-.863-.7-1.564-1.563-1.564-.862 0-1.564.702-1.564 1.564 0 .862.7 1.564 1.564 1.564zm0-2.128c.31 0 .564.253.564.564s-.252.564-.563.564-.564-.253-.564-.564.252-.564.564-.564zM13.832 3.308c.862 0 1.563-.702 1.563-1.564 0-.862-.7-1.564-1.563-1.564s-1.564.702-1.564 1.564c0 .863.7 1.564 1.564 1.564zm0-2.128c.31 0 .563.253.563.564s-.253.564-.563.564c-.312 0-.564-.253-.564-.564s.253-.564.564-.564zM15.56 10.985H13V7.46c0-.276-.225-.5-.5-.5s-.5.224-.5.5v3.525H9.32c-2.208 0-4.005 1.797-4.005 4.007v4.987c0 2.208 1.797 4.005 4.006 4.005h6.24c2.208 0 4.005-1.797 4.005-4.006V14.99c0-2.21-1.797-4.007-4.006-4.007zm-5.59 6v-5H15v5H9.97zm-1-4.965v4.965H6.315v-1.993c0-1.54 1.166-2.796 2.657-2.972zm6.59 10.965H9.32c-1.657 0-3.005-1.35-3.005-3.006v-1.995h12.25v1.994c0 1.656-1.35 3.005-3.006 3.005zm3.004-6H16V12.03c1.447.215 2.564 1.455 2.564 2.962v1.993z"/></svg>