<svg xmlns="http://www.w3.org/2000/svg" width="24" height="24" viewBox="0 0 24 24"><path d="M23.515 19.926h-2.808l-1-1H22c.276 0 .5-.225.5-.5s-.224-.5-.5-.5h-3.292l-1-1h2.293c.277 0 .5-.225.5-.5s-.223-.5-.5-.5h-3.29L12.7 11.91l9.525-9.517-.702 2.905c-.064.268.1.538.37.603.04.01.078.014.116.014.226 0 .43-.154.485-.383L23.608.906c.003-.014-.003-.028 0-.042.008-.056.006-.11-.004-.167-.004-.02-.005-.042-.012-.062-.024-.072-.06-.14-.116-.2-.057-.056-.126-.09-.198-.115-.022-.007-.043-.008-.065-.013-.055-.01-.11-.012-.165-.003-.014.002-.028-.004-.043 0l-4.63 1.112c-.268.065-.433.334-.368.603.065.267.325.434.604.37l2.903-.7-9.522 9.516L2.483 1.69l2.905.697c.265.06.538-.1.603-.37.065-.267-.1-.537-.37-.602L.993.302C.978.3.964.305.95.302.894.295.84.297.785.307.763.31.742.31.72.32.648.34.58.377.522.434.465.492.43.56.406.633.4.653.398.675.393.696.383.752.38.806.39.863.392.877.386.89.39.905L1.5 5.533c.055.23.26.383.486.383.04 0 .078-.004.117-.014.27-.064.434-.334.37-.602l-.698-2.902 9.507 9.514-4.017 4.013H3.97c-.276 0-.5.224-.5.5s.224.5.5.5h2.297l-1 1H1.97c-.276 0-.5.224-.5.5s.224.5.5.5h2.295l-1.002 1H.453c-.275 0-.5.225-.5.5s.225.5.5.5H2.97v2.517c0 .276.224.5.5.5s.5-.224.5-.5v-2.808l1-1v2.292c0 .276.224.5.5.5s.5-.224.5-.5v-3.29l1-1v2.29c0 .276.224.5.5.5s.5-.224.5-.5v-3.29l4.02-4.017L16 16.63v3.295c0 .276.223.5.5.5s.5-.224.5-.5V17.63l1 1v3.295c0 .276.223.5.5.5s.5-.224.5-.5v-2.293l1 1v2.81c0 .276.223.5.5.5s.5-.224.5-.5v-2.516h2.515c.276 0 .5-.224.5-.5s-.224-.5-.5-.5z"/></svg>