<svg xmlns="http://www.w3.org/2000/svg" width="24" height="24" viewBox="0 0 24 24"><path d="M23.464 21.992H12.052v-6.685c.048-.3.544-3.19 2.173-4.187.636-.39 1.358-.434 2.213-.142.262.09.545-.05.635-.31.09-.26-.05-.545-.31-.635-1.14-.392-2.17-.313-3.063.235-.724.444-1.256 1.146-1.65 1.883V5.71c0-.277-.223-.5-.5-.5s-.5.223-.5.5v6.085c-.492-.638-1.145-1.256-1.907-1.39-.433-.075-1.09-.025-1.755.654-.193.196-.19.513.008.706s.514.19.707-.008c.39-.397.683-.398.87-.368.875.153 1.774 1.667 2.08 2.3v8.303H.593c-.277 0-.5.224-.5.5s.223.5.5.5h22.87c.277 0 .5-.224.5-.5s-.223-.5-.5-.5z"/><path d="M5.885 17.054c1.47.72 3.124.546 4.427-.467.218-.17.258-.483.088-.7-.17-.218-.482-.26-.702-.09-.994.772-2.254.907-3.374.36-1.264-.62-2.05-1.945-2.05-3.46 0-1.365.677-2.63 1.765-3.303.188-.117.277-.344.218-.558-.537-1.95-.146-4.05 1.047-5.616C8.355 1.84 9.9 1.05 11.54 1.05c2.714 0 5 2.128 5.438 5.06.028.196.17.356.36.41 2.195.607 3.728 2.762 3.728 5.24 0 2.982-2.216 5.41-4.938 5.41-1.004 0-1.97-.33-2.793-.95-.22-.164-.533-.124-.7.097-.168.22-.124.534.097.7 1 .755 2.172 1.153 3.396 1.153 3.274 0 5.938-2.876 5.938-6.41 0-2.81-1.692-5.275-4.152-6.11-.625-3.264-3.26-5.6-6.374-5.6-1.955 0-3.79.934-5.03 2.564-1.31 1.72-1.785 3.99-1.302 6.138-1.2.89-1.932 2.368-1.932 3.947 0 1.897 1 3.566 2.61 4.354z"/></svg>