<svg xmlns="http://www.w3.org/2000/svg" width="24" height="24" viewBox="0 0 24 24"><path d="M17.606 14.92c-.173-.423-.415-.83-.718-1.204.154-.407.253-.83.253-1.27 0-2.002-1.627-3.63-3.628-3.63-1.408 0-2.658.803-3.26 2.04-1.265-.366-2.626-.324-3.916.156-2.097.782-3.594 2.558-4.042 4.78C.537 16.945-.23 18.783.286 20.636c.56 2.003 2.382 3.35 4.536 3.35h12.944c2.66 0 4.906-2.077 4.906-4.535 0-1.185-.543-2.358-1.49-3.22-.96-.875-2.24-1.348-3.576-1.312zm-4.094-5.105c1.45 0 2.63 1.18 2.63 2.63 0 .172-.025.34-.057.506-.922-.71-2.162-1.146-3.703-1.008-.376-.29-.78-.526-1.195-.723.447-.855 1.333-1.405 2.325-1.405zm4.255 13.17H4.822c-1.964 0-3.21-1.315-3.573-2.618-.417-1.49.24-2.927 1.754-3.844.125-.075.21-.2.234-.345.33-1.968 1.62-3.55 3.446-4.23.604-.225 1.228-.336 1.846-.336 1.208 0 2.396.422 3.38 1.235.105.087.242.13.378.11 2.606-.318 4.054 1.22 4.496 2.633.07.225.28.363.525.35 1.183-.12 2.352.262 3.196 1.03.74.673 1.164 1.577 1.164 2.48.003 1.916-1.786 3.534-3.903 3.534zM23.34 11.963h-3.86c-.277 0-.5.224-.5.5s.223.5.5.5h3.86c.277 0 .5-.224.5-.5s-.223-.5-.5-.5zM13.518 7.003c.276 0 .5-.224.5-.5V2.64c0-.275-.224-.5-.5-.5s-.5.225-.5.5v3.863c0 .277.223.5.5.5zM17.858 8.623c.128 0 .256-.05.354-.146l2.73-2.73c.195-.195.195-.512 0-.707s-.512-.195-.707 0l-2.73 2.73c-.195.195-.195.512 0 .707.098.097.225.146.353.146zM8.825 8.476c.098.098.226.146.354.146s.255-.05.353-.146c.195-.195.195-.512 0-.707l-2.73-2.73c-.196-.196-.513-.196-.708 0s-.195.51 0 .706l2.73 2.73z"/></svg>