<svg xmlns="http://www.w3.org/2000/svg" width="24" height="24" viewBox="0 0 24 24"><path d="M19.528 16.972l-.573-1.252-.85-1.86c-.117-.25-.415-.36-.664-.246L12 16.106l-5.442-2.49c-.253-.115-.548-.005-.663.246l-1.425 3.11c-.055.12-.06.26-.014.383.046.125.14.226.26.28l1.98.907-1.978.898c-.12.055-.215.155-.262.28-.046.124-.042.262.014.383l.574 1.254.85 1.858c.085.184.266.292.456.292.07 0 .14-.015.208-.045l5.44-2.49 5.44 2.49c.066.03.138.045.21.045.058 0 .117-.01.173-.03.126-.047.227-.14.282-.262l.85-1.854s.002 0 .003-.003c0-.003 0-.005.002-.008l.57-1.247c.114-.25.004-.548-.247-.663l-1.97-.902 1.97-.904c.252-.114.363-.41.248-.662zm-12.93 5.372l-.436-.95 1.1-.504c.252-.114.362-.41.247-.662-.116-.25-.41-.36-.664-.246l-1.1.504-.158-.343 2.31-1.05 2.898 1.328-4.2 1.924zm11.654-1.86l-1.1-.503c-.25-.11-.547-.003-.664.248-.114.25-.004.548.247.663l1.1.505-.434.95-11.813-5.41.16-.346 2.222 1.01c.066.03.137.045.206.045.19 0 .372-.108.456-.293.114-.25.003-.548-.248-.662l-2.22-1.01.433-.947L18.41 20.14l-.158.345zm-2.144-2.496L13.2 16.656l4.202-1.924.434.948-2.22 1.01c-.252.114-.363.41-.25.662.085.185.267.293.456.293.07 0 .14-.015.207-.045l2.222-1.01.158.344-2.302 1.054zM16.467 6.573c-.13-.225-.394-.344-.632-.298-1.077.18-1.786 1.1-2.213 1.917-.298-1.42-.298-3.232-.298-3.946 0-.324-.226-.582-.536-.612-.77-.083-2.067 1.56-2.51 3.808-.052.307-.09.69-.133 1.1-.043.43-.096.942-.172 1.393C9.395 8.908 8.53 7.55 8.048 7.383c-.156-.054-.396-.024-.527.073-.217.16-.305.45-.212.703.275.756.18 1.67.08 2.64-.07.675-.142 1.372-.087 2.045.023.26.24.46.5.46l.04-.003c.276-.022.48-.264.46-.54-.05-.58.015-1.202.083-1.86.05-.496.104-1 .106-1.5.493.768 1.02 1.686 1.106 1.936.038.136.14.245.267.31.126.062.28.065.413.015.097-.038.18-.104.238-.19.402-.61.517-1.74.628-2.834.04-.386.076-.748.12-1.022.24-1.204.704-2.043 1.072-2.524.05 2.306.31 3.837.806 4.784.096.183.294.285.498.265.204-.023.374-.17.428-.368.127-.478.424-1.23.87-1.79-.205.93.097 1.824.374 2.645.24.712.468 1.384.38 2.044-.036.274.157.525.43.56.268.033.526-.155.563-.43.117-.89-.158-1.705-.425-2.494-.388-1.148-.693-2.054.145-3.032.166-.197.194-.48.064-.705z"/><path d="M23.5-.015H.5c-.277 0-.5.224-.5.5V23.43c0 .277.223.5.5.5s.5-.223.5-.5V.986h22V23.43c0 .277.223.5.5.5s.5-.223.5-.5V.486c0-.276-.225-.5-.5-.5z"/></svg>