<svg xmlns="http://www.w3.org/2000/svg" width="24" height="24" viewBox="0 0 24 24"><path d="M23.62 9.834L12.294.312c-.187-.156-.458-.156-.644 0L.325 9.834c-.21.178-.24.493-.06.705.098.117.24.177.382.177.113 0 .228-.04.32-.117l2.47-2.076 1.426 15.01c.024.258.24.454.498.454h13.224c.258 0 .474-.196.498-.453l1.426-15.01 2.47 2.075c.21.176.526.15.704-.06s.15-.528-.062-.706zm-5.49 13.154H5.814L4.367 7.742l7.605-6.394 7.604 6.393L18.13 22.99z"/><path d="M7.676 11.157c0 2.37 1.927 4.297 4.296 4.297s4.296-1.928 4.296-4.297c0-2.37-1.927-4.296-4.296-4.296S7.676 8.79 7.676 11.158zm7.593 0c0 1.818-1.48 3.297-3.297 3.297-1.818 0-3.296-1.48-3.296-3.297 0-1.817 1.48-3.296 3.296-3.296 1.817 0 3.296 1.48 3.296 3.297zM11.973 16.932c-1.025 0-1.86.834-1.86 1.86s.835 1.858 1.86 1.858 1.86-.834 1.86-1.86-.835-1.858-1.86-1.858zm0 2.72c-.474 0-.86-.387-.86-.86s.387-.86.86-.86.86.387.86.86-.387.86-.86.86z"/></svg>