<svg xmlns="http://www.w3.org/2000/svg" width="24" height="24" viewBox="0 0 24 24"><path d="M22.16 10.98c-.996-.905-2.314-1.383-3.73-1.352-.73-1.79-2.627-3.34-5.418-3.09-1.816-1.407-4.15-1.775-6.29-.977-2.158.806-3.7 2.637-4.158 4.925C.746 11.677-.052 13.57.48 15.473c.565 2.03 2.495 3.447 4.69 3.447h13.437c2.75 0 5.074-2.128 5.074-4.647.002-1.213-.553-2.412-1.52-3.292zm-3.553 6.94H5.17c-2.052 0-3.35-1.363-3.728-2.715-.43-1.542.255-3.032 1.833-3.986.125-.076.21-.202.234-.346.34-2.036 1.673-3.67 3.562-4.376.63-.235 1.28-.35 1.926-.35 1.265 0 2.51.442 3.543 1.295.106.087.246.13.38.11 2.717-.334 4.226 1.273 4.688 2.746.07.224.278.38.524.347 1.247-.115 2.472.272 3.354 1.074.76.69 1.194 1.62 1.194 2.553.002 1.978-1.865 3.648-4.073 3.648z"/></svg>