<svg xmlns="http://www.w3.org/2000/svg" width="24" height="24" viewBox="0 0 24 24"><path d="M20.427 17.045c-1.362 0-2.47 1.108-2.47 2.47s1.107 2.47 2.47 2.47c1.36 0 2.47-1.107 2.47-2.47 0-1.362-1.11-2.47-2.47-2.47zm0 3.94c-.81 0-1.47-.66-1.47-1.47s.66-1.47 1.47-1.47 1.47.66 1.47 1.47-.66 1.47-1.47 1.47zM22.558 10.66c.057-.154.035-.326-.058-.46-.094-.134-.247-.215-.41-.215H4.24l-.515-1.65c-.065-.208-.26-.35-.477-.35H1.002c-.276 0-.5.224-.5.5s.224.5.5.5H2.88l3.948 12.65c.065.207.258.35.477.35h1.37c.197 0 .375-.114.456-.292l1.787-3.915c.822.186 1.685.305 2.566.305.848 0 1.712-.107 2.566-.362 2.887-.86 5.076-3.235 6.508-7.06zM8.354 20.985h-.68l-1.62-5.182c.91.534 2.283 1.23 3.882 1.715l-1.582 3.467zm7.414-4.224c-4.43 1.323-9.376-1.888-10.174-2.435l-1.043-3.34h16.802c-1.307 3.117-3.184 5.06-5.584 5.776z"/></svg>