<svg xmlns="http://www.w3.org/2000/svg" width="24" height="24" viewBox="0 0 24 24"><path d="M22.104 5.39C20.25 2.252 16.38.302 12 .302c-4.38 0-8.253 1.95-10.106 5.086C-.534 9.5.447 14.896 1.746 18.784c-.525.832-.524 1.898.024 2.734l.148.228c.493.77 1.252 1.957 2.553 1.957.328 0 .69-.075 1.087-.25l.224-.097c.763-.326 1.483-.634 1.862-1.665.236-.644.2-1.366-.102-1.982-1.215-2.488-3.128-8.636-1.29-11.75.93-1.577 3.13-2.558 5.743-2.56H12c2.61 0 4.81.98 5.743 2.556 1.98 3.346-.324 9.77-1.287 11.756-.3.616-.337 1.338-.1 1.98.236.646.73 1.172 1.36 1.446l.256.115c.47.213.913.414 1.48.414 1.41 0 1.995-.922 2.56-1.813l.214-.335c.55-.838.55-1.904.025-2.735 1.302-3.886 2.283-9.28-.146-13.396zm-.88 13.316c-.055.162-.023.34.083.475.414.52.448 1.24.085 1.794l-.224.348c-.576.91-.89 1.35-1.715 1.35-.35 0-.667-.145-1.066-.326l-.27-.12c-.38-.166-.68-.485-.822-.875-.144-.388-.12-.824.062-1.198 1.1-2.264 3.464-8.96 1.25-12.703C17.492 5.57 14.962 4.402 12 4.402h-.007c-2.965 0-5.495 1.17-6.605 3.05-2.21 3.743.225 10.594 1.253 12.7.182.37.204.81.062 1.197-.23.626-.616.79-1.316 1.09l-.23.1c-1.127.497-1.658-.173-2.397-1.33l-.154-.237c-.364-.554-.33-1.274.084-1.793.107-.134.138-.312.083-.475C1.504 15 .47 9.77 2.757 5.898 4.428 3.064 7.97 1.303 12 1.303c4.028 0 7.57 1.76 9.242 4.595C23.53 9.77 22.495 15 21.225 18.706z"/><path d="M3.9 17.46c-.09.09-.15.22-.15.36 0 .13.06.26.16.36.09.09.22.14.34.14.13 0 .26-.05.36-.15.09-.1.14-.22.14-.35s-.05-.26-.14-.36c-.19-.19-.52-.18-.71 0zM2.66 11.53c-.1.09-.15.22-.15.36 0 .13.05.26.14.35.1.09.23.15.35.15.13 0 .26-.06.36-.15.09-.09.15-.22.15-.35 0-.14-.06-.27-.15-.36-.19-.18-.53-.18-.7 0zM4.22 5.6c-.1.09-.15.22-.15.36 0 .13.05.26.14.35.1.09.22.15.36.15.13 0 .26-.06.35-.15.09-.09.15-.22.15-.35 0-.14-.06-.27-.15-.35-.18-.2-.52-.2-.7-.01zM11.65 2.39c-.1.1-.15.22-.15.36 0 .13.05.26.15.35.09.1.22.15.35.15.13 0 .26-.05.35-.15.1-.09.15-.22.15-.35 0-.14-.05-.26-.15-.36-.18-.18-.52-.18-.7 0zM19.91 6.27c.09-.1.14-.23.14-.35 0-.13-.05-.26-.15-.36-.19-.19-.53-.18-.71 0-.09.1-.14.23-.14.36 0 .13.05.26.14.35.1.09.23.15.36.15s.25-.05.36-.15zM21.39 11.53c-.19-.18-.51-.19-.71 0-.09.1-.14.23-.14.36s.05.26.15.35c.09.09.22.15.35.15s.26-.06.35-.15c.1-.09.15-.22.15-.35s-.05-.26-.15-.36zM19.44 17.47c-.09.09-.15.22-.15.35s.05.26.15.35c.09.1.22.15.35.15s.26-.05.36-.15c.09-.1.14-.22.14-.35s-.05-.26-.15-.36c-.19-.18-.52-.18-.7.01z"/></svg>