<svg xmlns="http://www.w3.org/2000/svg" width="24" height="24" viewBox="0 0 24 24"><path d="M23.087 12.205c.05-.122.05-.26 0-.382-.025-.062-.062-.117-.11-.163l-1.91-1.91c-.194-.195-.51-.195-.706 0s-.194.512 0 .707l1.058 1.057h-2.45c-.14-4.06-1.894-7.847-4.887-10.586-.017-.026-.028-.055-.05-.08-.036-.034-.078-.055-.12-.077-.137-.12-.26-.253-.402-.37-.212-.175-.528-.146-.704.067-.176.213-.146.528.067.704.025.02.044.043.068.063L2.864 11.307 1.598 10.04c-.195-.194-.512-.194-.707 0s-.194.513 0 .708l1.267 1.266L.892 13.28c-.195.195-.195.512 0 .707.098.098.226.146.354.146s.256-.05.354-.146l1.266-1.266L12.97 22.827l-.01.01c-.21.177-.24.492-.062.704.1.118.24.18.383.18.114 0 .23-.04.322-.118.14-.118.264-.252.4-.374.015-.012.033-.017.047-.03.01-.01.012-.024.02-.035 3.013-2.75 4.775-6.57 4.903-10.65h2.447l-1.057 1.058c-.195.196-.195.513 0 .708.098.098.226.146.354.146s.256-.05.354-.146l1.91-1.91c.044-.046.08-.1.107-.163zm-5.12-.69H4.072l9.603-9.604c2.626 2.53 4.16 5.95 4.295 9.604zM13.7 22.14l-9.63-9.628h13.9c-.122 3.658-1.65 7.09-4.27 9.628z"/></svg>