<svg xmlns="http://www.w3.org/2000/svg" width="24" height="24" viewBox="0 0 24 24"><path d="M23.626 16.125l-9-13.363c-.1-.146-.26-.228-.443-.22-.176.01-.334.113-.415.27l-4.826 9.35L6.147 8.87c-.102-.12-.268-.188-.413-.175-.158.01-.302.094-.388.227L.414 16.52c-.15.23-.084.54.147.69.085.056.18.082.273.082.164 0 .324-.08.42-.228L5.82 10.03l2.84 3.346 1.412 1.665c.178.213.494.238.705.06.21-.18.236-.495.058-.705L9.642 12.99l2.473-4.793.72.916c.096.122.237.202.398.19.155 0 .3-.074.394-.198l.773-1.023 1.154 1.395c.09.11.225.176.368.18h.017c.136 0 .268-.055.362-.155l.968-1.023 5.526 8.205c.097.144.255.22.415.22.098 0 .194-.026.28-.084.23-.155.29-.466.136-.695zm-7.662-7.722l-1.197-1.446c-.098-.118-.282-.19-.396-.18-.152.002-.295.076-.387.198l-.763 1.01-.6-.766 1.65-3.198 2.428 3.606-.734.775z"/></svg>