<svg xmlns="http://www.w3.org/2000/svg" width="24" height="24" viewBox="0 0 24 24"><path d="M11.99 7.904c-2.225 0-4.035 1.81-4.035 4.035 0 2.224 1.81 4.033 4.035 4.033s4.035-1.81 4.035-4.034c0-2.226-1.81-4.036-4.035-4.036zm0 7.07c-1.673 0-3.035-1.362-3.035-3.035 0-1.675 1.36-3.036 3.035-3.036 1.674 0 3.035 1.36 3.035 3.035 0 1.672-1.36 3.033-3.035 3.033zM23.095 11.46H18.73c-.276 0-.5.224-.5.5s.224.5.5.5h4.364c.276 0 .5-.224.5-.5s-.223-.5-.5-.5zM5.765 11.96c0-.276-.224-.5-.5-.5H.902c-.276 0-.5.224-.5.5s.224.5.5.5h4.363c.276 0 .5-.224.5-.5zM11.998 5.727c.276 0 .5-.224.5-.5V.864c0-.276-.224-.5-.5-.5s-.5.224-.5.5v4.364c0 .276.223.5.5.5zM11.998 18.192c-.276 0-.5.224-.5.5v4.364c0 .276.224.5.5.5s.5-.224.5-.5v-4.364c0-.276-.224-.5-.5-.5zM16.9 7.557c.13 0 .257-.05.355-.146l3.085-3.084c.195-.195.195-.512 0-.707s-.512-.196-.707 0l-3.085 3.084c-.195.195-.195.512 0 .707.098.098.225.147.353.147zM6.742 16.51l-3.085 3.085c-.195.195-.195.512 0 .707.098.098.226.146.354.146s.257-.05.355-.146l3.085-3.085c.195-.195.195-.512 0-.707s-.513-.196-.708 0zM17.255 16.51c-.195-.195-.512-.195-.707 0s-.195.512 0 .707l3.085 3.085c.098.098.226.146.354.146s.256-.05.354-.146c.196-.195.196-.512 0-.707l-3.085-3.085zM4.363 3.618c-.195-.195-.512-.195-.707 0s-.195.512 0 .707L6.742 7.41c.098.098.226.146.354.146s.255-.048.353-.146c.194-.195.194-.512 0-.707L4.362 3.618z"/></svg>