<svg xmlns="http://www.w3.org/2000/svg" width="24" height="24" viewBox="0 0 24 24"><path d="M23.517 21.992H13.99v-3h4.894c.194 0 .372-.113.454-.29.08-.177.054-.385-.072-.533l-2.738-3.23h1.74c.193 0 .37-.11.452-.287.083-.175.057-.382-.066-.53l-3.408-4.136h1.78c.19 0 .363-.107.448-.277.085-.17.066-.372-.048-.523l-5.285-7.03c-.094-.127-.242-.2-.4-.2s-.304.073-.398.2l-5.287 7.03c-.114.15-.133.353-.048.522.084.17.258.276.447.276h1.78L4.827 14.12c-.123.15-.15.357-.066.532.083.176.26.287.452.287h1.74l-2.74 3.228c-.125.148-.153.356-.07.533.08.178.258.29.453.29H9.99v3H.696c-.276 0-.5.225-.5.5s.224.5.5.5h22.82c.276 0 .5-.223.5-.5s-.223-.498-.5-.498zm-12.527 0v-3.5c0-.276-.224-.5-.5-.5H5.674l2.74-3.23c.125-.147.153-.355.07-.532-.08-.177-.258-.29-.453-.29H6.273l3.41-4.135c.122-.15.148-.356.065-.53-.08-.177-.258-.29-.45-.29h-1.84l4.284-5.698 4.285 5.7h-1.84c-.193 0-.37.11-.452.286-.083.175-.056.382.067.53l3.408 4.136h-1.76c-.194 0-.372.112-.454.29-.08.176-.054.384.072.532l2.738 3.23H13.49c-.276 0-.5.223-.5.5v3.5h-2z"/></svg>