<svg xmlns="http://www.w3.org/2000/svg" width="24" height="24" viewBox="0 0 24 24"><path d="M22.91.848c-.015-.14-.087-.265-.198-.35-.11-.082-.255-.114-.39-.09-8.41 1.543-10.974 5.238-11.673 7.997C8.045 5.347 1.084 6.54.755 6.598.62 6.623.5 6.703.424 6.82c-.075.117-.1.26-.064.395.062.24 1.552 5.905 5.188 7.002.404.122.816.183 1.236.183 1.23 0 2.53-.53 3.877-1.568.094.923.305 2.38.785 3.916.715 2.287-.402 6.23-.414 6.268-.075.266.078.543.343.62.046.013.093.02.14.02.216 0 .416-.144.48-.362.05-.173 1.21-4.27.406-6.844-.47-1.5-.668-2.947-.752-3.814 1.732.788 3.297 1.207 4.664 1.207 1.22 0 2.29-.313 3.203-.94C23.802 9.952 22.948 1.218 22.91.847zM5.837 13.26c-2.508-.755-3.902-4.378-4.35-5.758 1.855-.24 7.765-.74 8.927 2.422-.002.045 0 .084-.002.128-.004.117-.006.23-.004.338 0 .06 0 .114.003.17 0 .04 0 .086.003.126C8.58 9.68 5.74 9.49 5.593 9.482c-.283-.013-.513.193-.53.468-.017.276.193.513.468.53.993.06 3.563.42 4.796 1.336-1.643 1.354-3.15 1.847-4.488 1.444zm13.11-1.185c-1.687 1.16-4.108.99-7.19-.482.42-.808 1.483-2.543 3.105-3.143 2.413-.892 4.57-2.683 4.66-2.76.213-.176.24-.49.064-.703-.178-.212-.495-.24-.704-.063-.02.018-2.12 1.758-4.367 2.588-1.426.527-2.462 1.726-3.105 2.697.002-.108 0-.212.008-.328.147-2.39 1.726-6.613 10.536-8.385.112 1.92.227 8.358-3.007 10.578z"/></svg>