<svg xmlns="http://www.w3.org/2000/svg" width="24" height="24" viewBox="0 0 24 24"><path d="M21.932 10.852c-.714-.714-2.675-1.615-4.66-2.405v-.34c0-2.21-1.373-4.1-3.306-4.88-.048-.448-.045-1.483.904-2.033.24-.14.32-.445.182-.684-.14-.24-.447-.32-.684-.182-1.11.644-1.414 1.758-1.42 2.606-.307-.056-.62-.096-.944-.096-.367 0-.725.04-1.07.11-.017-.84-.328-1.924-1.418-2.556-.24-.14-.545-.057-.684.182-.14.24-.06.545.18.684.94.544.954 1.554.907 2.015-1.872.81-3.186 2.67-3.186 4.835v.34c-1.986.79-3.947 1.69-4.66 2.404-.824.823-1.277 1.917-1.277 3.08 0 1.164.453 2.258 1.276 3.08.823.823 1.917 1.275 3.08 1.275.81 0 1.582-.232 2.257-.644.834 2.05 2.544 4.117 4.092 4.505v1.155c0 .276.224.5.5.5s.5-.224.5-.5v-1.155c1.55-.388 3.26-2.454 4.093-4.505.675.412 1.446.644 2.257.644 1.163 0 2.258-.452 3.08-1.275.823-.822 1.275-1.916 1.275-3.08 0-1.164-.452-2.257-1.275-3.08zm-9.93-7.013c2.335 0 4.234 1.886 4.263 4.215-1.95-.74-3.723-1.323-4.108-1.448-.006-.002-.013 0-.02 0-.043-.014-.088-.006-.134-.006s-.09-.006-.135.006c-.006.002-.013 0-.02 0-.385.126-2.158.71-4.11 1.45.03-2.33 1.93-4.217 4.264-4.217zm2.73 15.145h-5.46c-.41-.598-.77-1.274-1.03-1.985l.013-.014h7.494l.01.015c-.256.71-.615 1.387-1.028 1.985zm-5.77-3c.322-.556.66-1.245.993-2h4.096c.335.755.672 1.444.995 2H8.96zm1.42-3c.274-.666.54-1.346.784-2h1.672c.245.654.51 1.334.785 2H10.38zm1.15-3c.177-.488.335-.937.47-1.33.136.393.293.842.47 1.33h-.94zm-8.752 6.32c-1.308-1.31-1.308-3.438 0-4.747 1.025-1.025 5.795-2.79 8.432-3.686-.897 2.637-2.66 7.406-3.686 8.432-1.308 1.31-3.437 1.31-4.746 0zm9.222 4.914c-.508 0-1.23-.485-1.93-1.235h3.863c-.7.75-1.424 1.234-1.933 1.234zm9.223-4.916c-1.31 1.31-3.438 1.31-4.746 0-1.026-1.025-2.79-5.794-3.687-8.432 2.637.897 7.406 2.66 8.432 3.686 1.308 1.31 1.308 3.438 0 4.746z"/></svg>