<svg xmlns="http://www.w3.org/2000/svg" width="24" height="24" viewBox="0 0 24 24"><path d="M22.715 17.484c-.043-.168-.17-.3-.335-.354-.13-.04-.267-.027-.383.035v-1.59c0-1.346-3.832-1.45-5.007-1.45s-5.007.104-5.007 1.45v6.812c0 1.347 3.832 1.45 5.007 1.45s5.007-.103 5.007-1.45v-1.83l.963-1.44c.08-.118.104-.265.07-.402l-.315-1.23zm-5.725-2.358c1.894 0 3.185.245 3.752.45-.567.206-1.857.45-3.752.45-1.922 0-3.196-.24-3.756-.448.566-.206 1.858-.452 3.756-.452zm4.092 5c-.056.082-.085.18-.085.278v1.866c-.325.214-1.73.568-4.007.568-2.308 0-3.682-.35-4.007-.567v-5.736c.464.17 1.04.28 1.62.354v2.15c0 .276.224.5.5.5s.5-.224.5-.5V16.98c.57.037 1.073.046 1.387.046.412 0 1.15-.014 1.936-.09v.846c0 .276.224.5.5.5s.5-.224.5-.5v-.975c.388-.068.754-.158 1.07-.273v1.707c0 .196.115.374.293.456s.386.05.534-.077l.122-.106.06.23-.924 1.382z"/><path d="M23.418 6.765c-1.972-.945-3.568-2.203-4.114-2.655l.492-.51c.284-.297.28-.762-.008-1.058L17.848.56c-.145-.148-.338-.23-.544-.23-.207 0-.4.08-.54.225l-.514.513-.418-.42c-.095-.096-.222-.15-.355-.15-.133 0-.26.054-.354.148l-1.83 1.84c-.187.19-.193.494-.013.69l.534.58c-2.988 3.78-9.94 10.378-12.608 12.91l-.556.527c-.763.726-.125 1.51.096 1.782.127.145 1.186 1.318 2.297 1.318.1 0 .2-.01.3-.03.62-.127 1.072-.62 1.345-1.463.644-1.99 3.04-4.043 6.07-6.64 1.74-1.49 3.696-3.177 5.732-5.175.403 1.207.852 3.486 1.016 4.418.025.143.11.268.236.342.078.047.167.07.256.07.053 0 .106-.007.157-.024 4.17-1.385 5.453-4.254 5.506-4.375.108-.247 0-.534-.242-.65zM17.3 1.43l1.612 1.647-.33.342-1.628-1.642.347-.347zM10.11 11.4c-3.275 2.807-5.64 4.833-6.372 7.092-.106.327-.295.73-.594.792-.51.114-1.327-.606-1.632-.953-.2-.244-.224-.33-.172-.412l.555-.527c2.653-2.515 9.515-9.03 12.603-12.885l1.467 1.598c-2.075 2.05-4.078 3.777-5.855 5.298zm8.276-.754c-.23-1.212-.765-3.843-1.252-4.73-.02-.034-.043-.067-.07-.096L14.34 2.853l1.137-1.145.417.42v.002h.003l2.342 2.362.16.16c.074.068 1.777 1.573 4.11 2.778-.465.73-1.677 2.255-4.126 3.216z"/></svg>