<svg xmlns="http://www.w3.org/2000/svg" width="24" height="24" viewBox="0 0 24 24"><path d="M9.197 10.46c1.158 0 2.1-.94 2.1-2.1 0-1.16-.94-2.1-2.1-2.1-1.16 0-2.1.94-2.1 2.1 0 1.158.94 2.1 2.1 2.1zm0-3.2c.607 0 1.1.493 1.1 1.1s-.493 1.1-1.1 1.1-1.1-.493-1.1-1.1.493-1.1 1.1-1.1zM11.75 8.37c0 .275.224.5.5.5h.977c.276 0 .5-.225.5-.5s-.224-.5-.5-.5h-.977c-.277 0-.5.223-.5.5zM6.15 8.87c.276 0 .5-.225.5-.5s-.224-.5-.5-.5h-.976c-.276 0-.5.223-.5.5s.224.5.5.5h.976zM9.2 5.82c.276 0 .5-.224.5-.5v-.977c0-.276-.224-.5-.5-.5s-.5.224-.5.5v.977c0 .276.223.5.5.5zM11.42 6.65c.128 0 .256-.05.354-.147l.41-.41c.194-.194.194-.51 0-.706s-.513-.195-.708 0l-.41.41c-.194.194-.194.51 0 .706.1.097.226.146.354.146zM6.626 10.236l-.41.41c-.194.194-.194.51 0 .707.1.098.227.146.355.146s.257-.05.355-.147l.41-.41c.194-.194.194-.51 0-.707-.197-.195-.514-.194-.71 0zM11.774 10.236c-.195-.194-.512-.195-.708 0-.195.195-.195.512 0 .708l.41.41c.097.096.225.145.353.145s.255-.05.353-.147c.195-.195.195-.512 0-.708l-.41-.41zM6.626 6.502c.098.098.226.147.353.147s.255-.05.353-.148c.195-.195.195-.512 0-.707l-.41-.41c-.194-.194-.51-.194-.706 0s-.195.513 0 .708l.41.41z"/><path d="M22.873 16.468c1.75-4.26.9-9.347-2.556-12.8-2.22-2.22-5.173-3.44-8.318-3.44s-6.1 1.22-8.32 3.44S.24 8.84.24 11.984s1.222 6.1 3.44 8.318c.66.66 1.387 1.215 2.15 1.686.01.007.015.02.026.027.015.01.033.007.05.016 1.866 1.132 3.977 1.71 6.094 1.71 3.012 0 6.025-1.145 8.318-3.438 1.128-1.128 1.975-2.43 2.548-3.822.003-.005.006-.01.007-.015zM1.24 11.985c0-2.878 1.118-5.582 3.147-7.61s4.733-3.148 7.61-3.148c2.88 0 5.583 1.118 7.612 3.147 2.98 2.98 3.832 7.286 2.58 11.036l-3.097-2.925c-.188-.18-.486-.183-.678-.007l-2.666 2.407-2.386-2.955c-.098-.12-.256-.19-.4-.186-.157.004-.3.08-.393.206l-6.547 8.987c-.578-.386-1.127-.83-1.637-1.34-2.028-2.03-3.146-4.733-3.146-7.612zm5.646 9.467l6.11-8.387 5.84 7.234c-3.416 2.81-8.168 3.193-11.95 1.152zm12.725-1.855l-.033.03-3.2-3.963 2.365-2.134 3.055 2.883c-.518 1.154-1.24 2.238-2.186 3.184z"/><path d="M9.2 10.92c-.276 0-.5.223-.5.5v.976c0 .276.224.5.5.5s.5-.224.5-.5v-.977c0-.278-.224-.5-.5-.5z"/></svg>