<svg xmlns="http://www.w3.org/2000/svg" width="24" height="24" viewBox="0 0 24 24"><path d="M23.702 9.458L17.332.516c-.083-.12-.215-.194-.36-.208-.14-.015-.288.037-.393.138l-4.444 4.28-3.595-2.82c-.18-.143-.436-.144-.617 0L3.388 5.472c-.218.17-.255.485-.084.702.1.125.245.19.394.19.108 0 .217-.034.31-.106l4.227-3.326 3.175 2.492-1.273 1.226c-.2.192-.206.508-.015.707.192.2.51.204.707.013l3.05-2.94 1.353.922c.173.12.403.115.573-.007l.932-.67.886.81c.095.087.216.13.338.13.088 0 .175-.022.254-.068l1.037-.612 3.635 5.103c.098.138.25.21.407.21.1 0 .202-.03.29-.092.225-.163.277-.475.117-.7zm-5.676-4.96l-.912-.834c-.177-.16-.44-.174-.63-.037l-.978.705-.89-.607 2.238-2.156 1.816 2.55-.644.38zM13 13.393v-2.408c0-.276-.225-.5-.5-.5s-.5.224-.5.5v1.186L8.905 8.393c-.19-.23-.584-.23-.773 0L.898 17.23c-.175.214-.144.528.07.703.215.176.53.144.704-.07l.327-.4v6.022c0 .276.223.5.5.5h12c.275 0 .5-.224.5-.5v-6.07l.366.448c.1.12.242.184.387.184.11 0 .224-.037.316-.113.213-.175.244-.49.07-.703L13 13.394zm-5 9.592v-3h1v3H8zm6 0h-4v-3.5c0-.276-.225-.5-.5-.5h-2c-.277 0-.5.224-.5.5v3.5H3v-6.743L8.52 9.5 14 16.192v6.792z"/><path d="M7 14.485v2c0 .276.223.5.5.5h2c.275 0 .5-.224.5-.5v-2c0-.276-.225-.5-.5-.5h-2c-.277 0-.5.224-.5.5zm1 .5h1v1H8v-1z"/></svg>