<svg xmlns="http://www.w3.org/2000/svg" width="24" height="24" viewBox="0 0 24 24"><path d="M22.15 9.983H15V7.985c0-.276-.225-.5-.5-.5s-.5.224-.5.5v1H.673c-.276 0-.5.224-.5.5v.646c0 2.677 2.177 4.855 4.854 4.855H14v1c0 .276.224.5.5.5s.5-.224.5-.5v-2.027h7.152c.96 0 1.74-.782 1.74-1.742v-.492c0-.96-.78-1.74-1.74-1.74zm-3.14 1h1v1.975h-1v-1.975zm-1 1.975h-1v-1.975h1v1.975zM5.027 13.985c-2.125 0-3.854-1.73-3.854-3.854v-.145h12.825v2h-6c-.276 0-.5.224-.5.5s.224.5.5.5h6v1h-8.97zM15 10.983h1.01v1.975H15v-1.975zm7.893 1.233c0 .41-.332.742-.74.742H21.01v-1.975h1.142c.41 0 .74.333.74.74v.493z"/></svg>