<svg xmlns="http://www.w3.org/2000/svg" width="24" height="24" viewBox="0 0 24 24"><path d="M20.47 17.97c-.937-.032-1.902.443-2.758.868-1.217.603-1.682.758-1.88.417-.022-.038-.05-.068-.073-.104.714-.612 1.364-1.517 1.85-2.636l.016-.044.938-2.163c.11-.254-.007-.548-.26-.658l-2.196-.954 4.69-10.808.62.27c.065.027.133.04.2.04.192 0 .376-.11.458-.3.11-.253-.007-.548-.26-.658l-2.16-.938c-.258-.11-.548.006-.658.26-.11.252.007.547.26.657l.62.27-4.69 10.808-2.198-.954c-.122-.053-.26-.056-.383-.006-.124.048-.222.144-.275.266l-.96 2.21c-.408.944-.608 1.97-.596 2.913-.205-.03-.407-.06-.622-.087-1.317-.162-1.61-.74-1.892-1.298-.264-.52-.66-1.312-1.99-.738C4.193 15.5.584 21.636.41 23.152c-.033.273.164.52.438.554l.058.003c.25 0 .467-.19.496-.443.138-1.197 3.6-7.026 5.264-7.744.46-.2.463-.2.702.27.304.604.814 1.613 2.662 1.84 2.944.362 4.235.918 4.935 2.125.703 1.21 2.082.526 3.19-.023.747-.37 1.59-.79 2.274-.765 1.117.044 1.945 2.93 2.172 4.32.044.27.308.46.573.412.272-.044.458-.3.413-.573-.083-.52-.885-5.073-3.117-5.16zm-8.685-1.072c-.043-.844.13-1.818.506-2.686l.76-1.75 1.74.754-.962 2.22c-.11.253.007.547.26.657.065.028.133.04.2.04.192 0 .376-.11.458-.3l.963-2.22 1.737.755-.758 1.747c-.007.015-.013.028-.017.043-.414.94-.965 1.716-1.546 2.222-.802-.768-1.92-1.202-3.342-1.482z"/></svg>