<svg xmlns="http://www.w3.org/2000/svg" width="24" height="24" viewBox="0 0 24 24"><path d="M20.643 19.074l-2.54-1.163 2.54-1.164c.252-.114.362-.41.248-.662l-1.698-3.71c-.056-.122-.156-.215-.28-.262-.124-.046-.263-.04-.383.014L12 15.116l-6.53-2.99c-.25-.113-.548-.002-.663.248l-1.7 3.71c-.054.12-.06.26-.013.383.046.125.14.226.26.28l2.553 1.17-2.55 1.157c-.12.055-.215.155-.262.28-.046.124-.042.262.014.383l.684 1.495 1.015 2.216c.054.12.155.215.28.26.055.022.114.032.173.032.07 0 .142-.016.208-.045l6.53-2.99 6.528 2.99c.067.03.138.045.208.045.19 0 .37-.108.455-.292l1.016-2.216.685-1.495c.056-.12.06-.258.015-.382-.048-.125-.14-.225-.262-.28zm-2.153-5.83l.598 1.305-2.737 1.244c-.25.114-.36.41-.247.662.084.185.266.293.455.293.07 0 .14-.016.207-.046l2.74-1.246.267.587-2.87 1.316-3.702-1.694 5.29-2.423zM5.51 22.576l-.6-1.307 1.4-.642c.252-.114.362-.41.247-.662-.114-.25-.41-.362-.663-.246l-1.4.642-.268-.584 2.884-1.31 3.686 1.688-5.287 2.42zm12.98 0l-14.265-6.53.27-.588 2.738 1.245c.067.03.138.045.207.045.19 0 .372-.108.456-.293.114-.25.003-.548-.248-.662L4.91 14.55l.598-1.305 14.263 6.53-.267.587-1.4-.642c-.25-.115-.547-.006-.662.246-.114.25-.004.548.247.662l1.4.642-.598 1.307zM6.596 8.695c-.083.8-.168 1.625-.104 2.42.02.26.24.458.498.458h.042c.275-.024.48-.265.458-.54-.058-.702.02-1.447.1-2.235.073-.694.147-1.402.122-2.093.62.888 1.36 2.045 1.515 2.596.037.137.143.246.27.31.127.062.287.064.417.01.095-.038.176-.104.232-.19.417-.63.54-1.667.682-2.867.203-1.715.45-3.8 1.66-4.965.043 2.89.35 4.788.956 5.94.096.183.294.283.498.265.204-.023.374-.17.428-.368.193-.725.65-1.828 1.35-2.502-.45 1.24-.044 2.453.323 3.553.286.854.556 1.662.452 2.443-.036.273.157.524.43.56.27.036.526-.156.563-.43.133-1.01-.187-1.967-.495-2.89-.457-1.366-.85-2.544.18-3.748.178-.203.207-.496.073-.73s-.4-.36-.655-.312c-1.35.226-2.206 1.466-2.687 2.475-.418-1.74-.418-4.09-.418-4.99 0-.227-.123-.438-.32-.55-.2-.114-.444-.11-.64.005-2.112 1.268-2.43 3.96-2.687 6.125-.063.505-.12.995-.198 1.415-.73-1.28-1.91-2.89-2.174-3.088-.23-.167-.534-.163-.76.007-.223.17-.31.46-.21.72.335.925.22 2.028.1 3.195z"/></svg>