<svg xmlns="http://www.w3.org/2000/svg" width="24" height="24" viewBox="0 0 24 24"><path d="M23.717 10.89c0-5.172-2.877-5.87-5.69-5.87h-2.072c-.158 0-.308.075-.4.203-.74.997-2.302.995-3.04 0-.093-.127-.243-.203-.4-.203h-1.258c-.775 0-1.435.595-1.535 1.385l-.5 3.943-.71 5.578c-.365 2.888-.365 2.89-.365 2.934 0 1.617 3.935 2.05 6.26 2.05 2.323 0 6.258-.433 6.258-2.05 0-.026 0-.046-.32-2.51 2.235-.798 3.772-2.973 3.772-5.46zm-9.71 9.02c-3.196 0-5.125-.695-5.263-.998l.36-2.86.71-5.577.5-3.943c.037-.29.27-.51.542-.51h1.02c.553.63 1.327.986 2.158.986.83 0 1.604-.357 2.158-.987h1.394c.603 4.615 1.66 12.695 1.68 12.822-.137.373-2.066 1.067-5.26 1.067zm5.805-4.572l-1.215-9.306c2.62.108 4.12 1.054 4.12 4.858 0 1.987-1.174 3.734-2.905 4.448zM7.708 13.71l-3.55-4.684c.098-.08.198-.153.287-.245.094-.097.17-.207.248-.315l2.797 2.17c.09.07.2.105.306.105.15 0 .297-.066.396-.193.17-.218.13-.532-.088-.702L5.142 7.55c.29-.988.08-2.094-.637-2.893 0-.003-.003-.005-.005-.007-.02-.022-.034-.048-.055-.07-.01-.012-.026-.016-.038-.027-.026-.023-.054-.042-.085-.06-.027-.014-.054-.027-.083-.036-.03-.01-.06-.016-.093-.02-.035-.004-.068-.005-.103-.002-.016 0-.03-.004-.047 0C.88 4.987.247 8.204.223 8.342c-.003.014.002.027 0 .04-.003.035 0 .067.002.1.003.033.007.064.016.094.01.03.023.055.037.083.016.032.034.06.056.088.008.01.01.023.02.032.546.568 1.272.88 2.046.88.3 0 .59-.06.87-.152l3.64 4.803c.1.13.25.2.4.2.105 0 .21-.034.302-.103.22-.165.263-.48.096-.698zM1.275 8.255c.194-.654.855-2.305 2.617-2.77.565.78.514 1.892-.168 2.602-.648.674-1.725.725-2.45.168z"/><path d="M14.006 10.224c-.667 0-1.99 3.194-1.99 3.67 0 1.097.893 1.99 1.99 1.99s1.99-.894 1.99-1.99c0-.476-1.323-3.67-1.99-3.67zm0 4.66c-.546 0-.99-.443-.99-.99 0-.39.572-1.492.99-2.22.42.727.99 1.824.99 2.22 0 .546-.444.99-.99.99z"/></svg>