<svg xmlns="http://www.w3.org/2000/svg" width="24" height="24" viewBox="0 0 24 24"><path d="M22.293 13.36l-4.712 1.264-4.603-2.658 4.605-2.66 4.71 1.263c.045.01.088.016.13.016.222 0 .424-.147.484-.37.07-.268-.087-.542-.354-.613L18.807 8.6l3.216-1.857c.24-.138.32-.444.183-.683-.138-.24-.445-.322-.683-.183l-3.216 1.857 1.004-3.746c.072-.267-.086-.54-.353-.612-.262-.072-.54.087-.612.354l-1.262 4.712-4.606 2.658V5.83l3.45-3.45c.194-.194.194-.51 0-.706s-.513-.195-.708 0l-2.743 2.742V.654c0-.276-.224-.5-.5-.5s-.5.224-.5.5v3.762l-2.74-2.74c-.195-.196-.512-.196-.707 0s-.195.51 0 .706l3.447 3.45V11.1L6.914 8.465l-1.262-4.71c-.07-.267-.346-.425-.612-.355-.267.07-.425.346-.354.612L5.69 7.758l-3.26-1.88c-.238-.14-.544-.058-.682.182-.14.24-.057.545.183.683l3.26 1.88-3.745 1.004c-.267.07-.425.345-.354.612.06.222.263.37.483.37.043 0 .086-.005.13-.017l4.71-1.26 4.563 2.633-4.56 2.634-4.713-1.263c-.264-.064-.54.088-.612.354-.07.27.088.542.355.614l3.745 1.004-3.258 1.88c-.24.14-.32.444-.183.684.092.16.26.25.433.25.085 0 .17-.02.25-.067l3.258-1.88-1.003 3.743c-.072.268.087.54.354.613.044.012.088.018.13.018.222 0 .423-.147.483-.37l1.263-4.71 4.562-2.635v5.317L8.03 21.6c-.195.194-.195.51 0 .706.098.098.226.146.354.146s.256-.05.354-.146l2.74-2.742v3.714c0 .276.225.5.5.5s.5-.224.5-.5v-3.714l2.743 2.742c.196.195.513.195.708 0s.195-.512 0-.707l-3.45-3.45v-5.317l4.605 2.658 1.263 4.714c.06.223.263.37.483.37.042 0 .085-.006.13-.017.266-.072.424-.346.353-.613l-1.005-3.746 3.216 1.857c.08.046.165.067.25.067.172 0 .34-.09.433-.25.14-.24.057-.545-.183-.683l-3.216-1.858 3.746-1.003c.267-.073.425-.347.354-.614-.074-.267-.344-.42-.615-.355z"/></svg>