<svg xmlns="http://www.w3.org/2000/svg" width="24" height="24" viewBox="0 0 24 24"><path d="M22.44.106C21.874.068 8.552-.75 3.895 5.36c-1.787 2.345-2.048 5.382-.778 9.028.09.262.375.402.637.308.26-.09.398-.375.308-.636-1.154-3.31-.943-6.032.627-8.092C8.554.894 19.495.998 21.902 1.083c-.09 5.898-1.87 10.55-5.034 13.13-2.602 2.12-6.018 2.81-10.142 2.094 1.016-2.096 3.03-4.633 7.184-7.597l.044-.03c.225-.16.277-.473.117-.698-.16-.225-.473-.276-.697-.117l-.163.117c-.006.002-.004.002-.005.004-7.4 5.317-12.862 12.63-12.16 14.942.16.526.6.84 1.208.857.102.003.2.004.296.004 2.68 0 2.917-1.17 3.07-3.046.076-.93.174-2.097.695-3.494 1.154.213 2.273.336 3.338.336 3.064 0 5.733-.876 7.845-2.6 3.486-2.842 5.406-7.95 5.406-14.38 0-.264-.203-.482-.466-.5zM4.626 20.662c-.14 1.723-.172 2.188-2.34 2.122-.24-.007-.263-.085-.282-.148-.257-.848 1.07-3.35 3.61-6.343-.776 1.77-.896 3.235-.988 4.37z"/></svg>