<svg xmlns="http://www.w3.org/2000/svg" width="24" height="24" viewBox="0 0 24 24"><path d="M12.2 2.667c0-1.624-.882-2.363-1.702-2.363s-1.7.74-1.7 2.363c0 .957.37 2.675 1.2 3.19v12.256c-.83.516-1.2 2.234-1.2 3.19 0 1.624.88 2.363 1.7 2.363s1.7-.74 1.7-2.362c0-.957-.37-2.675-1.2-3.19V5.857c.83-.516 1.2-2.234 1.2-3.19zm-2.403 0c0-.79.295-1.363.7-1.363s.702.573.702 1.363c0 .472-.088.942-.202 1.34v-.844c0-.276-.224-.5-.5-.5s-.5.224-.5.5v.83c-.115-.396-.2-.86-.2-1.326zM11.2 21.303c0 .79-.296 1.362-.702 1.362s-.7-.573-.7-1.362c0-.472.086-.942.2-1.34v.845c0 .276.224.5.5.5s.5-.224.5-.5v-.83c.115.396.2.86.2 1.325zM5.998 18.113V5.857c.828-.516 1.2-2.234 1.2-3.19 0-1.624-.88-2.363-1.7-2.363s-1.7.74-1.7 2.363c0 .957.37 2.676 1.2 3.19v12.256c-.83.516-1.2 2.234-1.2 3.19 0 1.624.88 2.363 1.7 2.363s1.7-.74 1.7-2.362c0-.957-.37-2.675-1.2-3.19zm-1.2-15.446c0-.79.294-1.363.7-1.363s.7.573.7 1.363c0 .472-.087.94-.2 1.34v-.844c0-.276-.224-.5-.5-.5s-.5.224-.5.5v.83c-.115-.396-.2-.86-.2-1.326zm.7 20c-.406 0-.7-.574-.7-1.363 0-.472.086-.942.2-1.34v.845c0 .275.224.5.5.5s.5-.225.5-.5v-.83c.115.394.2.858.2 1.324 0 .79-.294 1.362-.7 1.362zM17.4 1.98c-.013-.015-.03-.023-.044-.036-.014-.014-.022-.033-.038-.045-.012-.01-.026-.012-.038-.02-.03-.02-.06-.034-.093-.047-.027-.01-.054-.02-.082-.026-.034-.007-.067-.008-.102-.008-.03 0-.058 0-.088.006-.032.006-.062.017-.092.03-.03.01-.06.024-.086.043-.013.007-.027.01-.04.02-.016.012-.024.03-.04.045-.012.013-.03.02-.04.036-.074.093-7.26 9.383-.022 19.985.007.01.02.014.027.024.03.038.06.076.104.106.008.005.018.003.026.008.08.048.165.08.256.08s.177-.032.256-.08c.008-.005.018-.003.026-.008.043-.03.073-.068.104-.107.008-.01.02-.014.027-.025 7.237-10.603.053-19.892-.02-19.985zm-.393 1.17c1.34 2.013 5.293 9.214 0 17.61-5.292-8.396-1.34-15.597 0-17.61z"/><path d="M17.008 14.546c1.093 0 1.982-.89 1.982-1.983V12c0-1.092-.89-1.982-1.982-1.982-1.094 0-1.983.89-1.983 1.983v.563c0 1.093.89 1.983 1.983 1.983zM16.024 12c0-.54.44-.982.983-.982s.982.44.982.983v.563c0 .542-.44.983-.983.983s-.983-.44-.983-.983V12zM15.788 9.626c.574-.788 1.867-.788 2.438 0 .1.135.25.207.405.207.104 0 .206-.03.295-.095.223-.162.272-.475.11-.698-.47-.65-1.228-1.038-2.027-1.038-.798 0-1.557.388-2.028 1.037-.162.222-.113.535.11.697.222.16.535.113.698-.11z"/></svg>