<svg xmlns="http://www.w3.org/2000/svg" width="24" height="24" viewBox="0 0 24 24"><path d="M20.652 6.26c-2.41-2.873-5.882-4.455-9.773-4.455C4.96 1.805.142 6.62.142 12.54c0 4.793 3.898 8.69 8.69 8.69 3.887 0 7.05-3.163 7.05-7.05 0-3.167-2.575-5.742-5.74-5.742-2.588 0-4.693 2.105-4.693 4.693 0 2.126 1.73 3.855 3.854 3.855 1.536 0 2.852-1.094 3.13-2.602.217-1.175-.333-2.316-1.4-2.907-.767-.425-1.612-.43-2.318-.015-.674.398-1.093 1.13-1.093 1.913 0 .276.224.5.5.5s.5-.224.5-.5c0-.43.23-.832.6-1.05.395-.23.877-.22 1.327.03.685.378 1.04 1.104.9 1.85-.19 1.033-1.093 1.783-2.146 1.783-1.574 0-2.854-1.28-2.854-2.854 0-2.036 1.656-3.693 3.692-3.693 2.614 0 4.74 2.126 4.74 4.74 0 3.336-2.713 6.05-6.05 6.05-4.24 0-7.69-3.448-7.69-7.688 0-5.368 4.37-9.736 9.737-9.736 3.59 0 6.79 1.455 9.007 4.097 2.486 2.964 3.494 7.042 2.764 11.192-.113.657-.625 1.178-1.273 1.295-1.366.248-3.628.462-6.637.078-.27-.04-.524.158-.56.433s.16.525.433.56c3.137.398 5.506.174 6.94-.085 1.062-.192 1.897-1.04 2.082-2.107.782-4.44-.305-8.818-2.983-12.008z"/></svg>