<svg xmlns="http://www.w3.org/2000/svg" width="24" height="24" viewBox="0 0 24 24"><path d="M23.69 5.576c0-.66-.293-1.28-.804-1.698-.265-.217-.57-.366-.896-.44.155-.5.126-1.043-.1-1.544-.36-.796-1.127-1.29-2-1.29-.618 0-1.19.26-1.594.69-.524-.58-1.292-.76-1.963-.656-1.087.175-1.847 1.063-1.847 2.16 0 .218.033.433.098.64-.325.074-.633.223-.897.44-.51.42-.804 1.038-.804 1.698 0 .66.293 1.28.804 1.7.266.216.572.365.897.44-.064.206-.098.42-.098.638 0 .518.174.986.466 1.357-.79 1.407-1.418 2.77-1.916 4.057l-.01.018v.008c-.758 1.967-1.223 3.76-1.496 5.244-.39-1.76-1.05-3.763-2.078-5.46.31-.08.605-.22.86-.43.51-.418.803-1.037.803-1.697 0-.66-.293-1.28-.806-1.7-.266-.217-.572-.366-.896-.44.064-.206.097-.42.097-.638 0-1.098-.758-1.986-1.846-2.16-.67-.108-1.436.075-1.96.657-.406-.433-.976-.693-1.595-.693-.874 0-1.64.495-2 1.292-.227.5-.256 1.043-.102 1.54-.322.075-.628.224-.893.44-.512.42-.806 1.04-.806 1.7 0 .66.292 1.28.803 1.7.265.217.572.365.897.44-.064.206-.097.42-.097.64 0 1.097.76 1.984 1.845 2.16.667.107 1.43-.074 1.955-.647.43.47 1.02.676 1.586.676.124 0 .247-.01.367-.03.707-.114 1.27-.533 1.582-1.113 1.642 3.556 1.883 7.98 1.887 8.062.013.268.234.477.5.477h.023c.276-.014.49-.248.476-.523v-.002c-.004-.09-.13-3.665 1.58-8.466.788.63 1.588.963 2.39.963.144 0 .286-.012.43-.032 1.903-.27 3.02-2.255 3.065-2.34.068-.12.082-.267.038-.4-.045-.132-.143-.24-.27-.297-.112-.05-2.633-1.164-4.54-.585.278-.59.586-1.192.924-1.8.18.082.372.15.58.182.67.107 1.44-.076 1.964-.657.404.433.976.692 1.594.692.873 0 1.64-.495 2-1.292.226-.5.255-1.044.1-1.542.325-.075.632-.224.896-.44.51-.422.804-1.04.804-1.702zM8.513 14.228c0 .746-.54 1.1-1.005 1.173-.46.077-1.085-.09-1.32-.8-.067-.205-.26-.344-.475-.344s-.407.14-.475.344c-.234.71-.858.876-1.32.8-.464-.073-1.005-.426-1.005-1.172 0-.364.165-.628.303-.785.142-.16.165-.395.058-.58-.107-.186-.32-.284-.53-.24-.355.07-.718-.02-.997-.25-.278-.226-.437-.563-.437-.923 0-.36.16-.697.44-.926.277-.228.64-.317.993-.247.208.042.424-.054.532-.24.107-.186.084-.42-.058-.58-.32-.364-.393-.84-.195-1.278.153-.34.52-.705 1.088-.705.513 0 .966.33 1.13.824.134.41.813.41.948 0 .235-.712.86-.877 1.32-.803.464.075 1.005.427 1.005 1.174 0 .365-.165.63-.303.786-.142.16-.166.395-.058.58s.322.283.532.24c.356-.07.715.02.994.248.28.228.44.566.44.926 0 .36-.16.696-.438.924-.278.228-.643.318-.997.248h-.007c-.088-.015-.177 0-.264.03-.02.01-.04.017-.06.028-.02.01-.04.014-.06.028-.058.042-.103.094-.137.152l-.003.003c-.003.005 0 .01-.003.015-.043.078-.058.164-.055.25 0 .02 0 .036.002.055.01.078.034.154.084.223.084.114.157.237.236.356.056.13.097.286.097.466zm9.883-.813c-.387.5-1.094 1.225-2.005 1.352-.733.102-1.5-.204-2.288-.91.193-.325.466-.557.826-.704 1.086-.443 2.643-.024 3.468.262zM22.252 6.5c-.276.228-.638.317-.995.248-.207-.044-.424.055-.53.24-.107.186-.084.42.058.58.32.363.392.84.194 1.278-.155.34-.522.704-1.09.704-.512 0-.965-.33-1.128-.824-.067-.205-.26-.344-.475-.344s-.407.138-.475.343c-.234.71-.854.876-1.32.8-.464-.073-1.005-.425-1.005-1.172 0-.364.165-.628.304-.785.142-.16.165-.394.058-.58-.106-.185-.32-.284-.53-.24-.36.07-.72-.02-.995-.247-.278-.227-.438-.564-.438-.924 0-.36.16-.697.438-.925.28-.227.643-.313.996-.246.205.044.423-.055.53-.24.106-.186.083-.42-.058-.58-.14-.157-.304-.42-.304-.785 0-.748.542-1.1 1.005-1.175.466-.072 1.086.09 1.32.802.135.41.814.41.95 0 .162-.493.615-.824 1.128-.824.568 0 .936.363 1.09.703.196.437.124.915-.195 1.278-.142.16-.165.394-.06.58.108.186.325.286.532.24.357-.07.72.02.995.247.28.23.438.566.438.926 0 .36-.16.697-.438.925z"/><path d="M18.287 3.676c-1.048 0-1.9.853-1.9 1.9s.853 1.9 1.9 1.9 1.9-.853 1.9-1.9-.852-1.9-1.9-1.9zm0 2.8c-.496 0-.9-.404-.9-.9s.404-.9.9-.9.9.404.9.9-.404.9-.9.9zM5.713 9.55c-1.048 0-1.9.853-1.9 1.9 0 1.05.853 1.902 1.9 1.902s1.9-.853 1.9-1.9c0-1.05-.852-1.902-1.9-1.902zm0 2.8c-.497 0-.9-.403-.9-.9s.404-.9.9-.9.9.404.9.9-.404.9-.9.9z"/></svg>