<svg xmlns="http://www.w3.org/2000/svg" width="24" height="24" viewBox="0 0 24 24"><path d="M14.792 6.403c-.2-.186-.52-.173-.706.03-.187.204-.174.52.03.707l2.124 1.95c.096.088.217.132.338.132.135 0 .27-.054.368-.162.187-.204.174-.52-.03-.707l-2.124-1.95z"/><path d="M22.484 12.757c-.413-.718-5.217-8.786-13.42-11.053-.135-.038-.28-.016-.4.06s-.2.195-.224.333c-.037.205-.762 4.828 6.018 9.888H3.67c-1.916 0-3.476 1.57-3.476 3.5s1.56 3.5 3.477 3.5h16.663c1.918 0 3.478-1.57 3.478-3.5 0-1.108-.524-2.087-1.326-2.728zM9.41 2.85c5.767 1.853 9.777 6.828 11.414 9.185-.162-.023-.322-.05-.49-.05H16.19c-5.92-3.957-6.71-7.73-6.78-9.135zm10.923 15.135H3.67c-1.365 0-2.476-1.12-2.476-2.5s1.11-2.5 2.477-2.5h16.663c1.366 0 2.478 1.12 2.478 2.5s-1.11 2.5-2.477 2.5z"/><path d="M20 14.985h-1v-1c0-.276-.225-.5-.5-.5s-.5.224-.5.5v1h-1c-.277 0-.5.224-.5.5s.223.5.5.5h1v1c0 .276.223.5.5.5s.5-.224.5-.5v-1h1c.275 0 .5-.224.5-.5s-.225-.5-.5-.5z"/></svg>