<svg xmlns="http://www.w3.org/2000/svg" width="24" height="24" viewBox="0 0 24 24"><path d="M19.5 10.895c-.277 0-.5.224-.5.5s.223.5.5.5c1.048 0 1.9-.853 1.9-1.9s-.853-1.902-1.9-1.902c-.277 0-.5.224-.5.5s.223.5.5.5c.496 0 .9.404.9.9s-.404.902-.9.902z"/><path d="M20.5 12.985H18v-4.5c0-.276-.225-.5-.5-.5h-6c-.277 0-.5.224-.5.5v4.5h-1v-10.5c0-.276-.225-.5-.5-.5h-6c-.665 0-.898.826-1.06 2.16-.123 1.015-.19 2.38-.19 3.84 0 6 .843 6 1.25 6H9v7.17c0 1.587 1.204 2.83 2.742 2.83h6.438c1.58 0 2.82-1.243 2.82-2.83v-7.67c0-.276-.225-.5-.5-.5zm-8.5-4h5v4h-5v-4zm-8.317-6H9v10H3.682c-.563-1.222-.563-8.778 0-10zM20 21.155c0 1.025-.8 1.83-1.82 1.83h-6.438c-.994 0-1.743-.787-1.743-1.83v-7.17h10v7.17z"/><path d="M13.08 11.68c-.09.09-.14.22-.14.35 0 .13.05.26.14.35.09.09.22.15.36.15.13 0 .25-.05.36-.15.09-.1.14-.22.14-.35 0-.13-.05-.25-.15-.36-.19-.18-.53-.18-.71.01zM15.21 11.68c-.1.09-.15.22-.15.35 0 .13.05.26.14.35.1.09.23.15.36.15s.26-.05.36-.15c.09-.1.14-.23.14-.35 0-.13-.05-.26-.15-.36-.19-.19-.52-.18-.7.01zM13.08 9.59c-.09.09-.14.22-.14.35 0 .13.05.26.14.35.09.1.22.15.36.15.13 0 .25-.05.36-.15.09-.09.14-.22.14-.35 0-.13-.05-.25-.15-.36-.19-.18-.52-.17-.71.01zM15.21 9.59c-.1.09-.15.22-.15.35 0 .14.05.27.14.35.1.1.23.15.36.15s.26-.05.36-.14c.09-.1.14-.23.14-.36 0-.12-.05-.25-.15-.36-.19-.18-.51-.18-.7.01zM14.14 10.63c-.09.1-.14.22-.14.36 0 .13.05.25.14.35.09.09.22.15.36.15.13 0 .26-.06.36-.16.09-.09.14-.22.14-.34 0-.13-.05-.26-.15-.36-.19-.19-.52-.18-.71 0zM14.5 6.83c.993 0 1.803-.81 1.803-1.804 0-.048-.362-4.84-1.804-4.84s-1.805 4.792-1.805 4.84c0 .995.81 1.804 1.804 1.804zm0-5.488c.373.723.803 2.968.803 3.684 0 .443-.36.804-.804.804s-.805-.36-.805-.804c0-.716.43-2.96.804-3.684z"/></svg>