<svg xmlns="http://www.w3.org/2000/svg" width="24" height="24" viewBox="0 0 24 24"><path d="M10.504 4.67c1.19 0 2.16-.97 2.16-2.162s-.97-2.16-2.16-2.16-2.16.97-2.16 2.16.968 2.16 2.16 2.16zm0-3.323c.64 0 1.16.52 1.16 1.16s-.52 1.162-1.16 1.162-1.16-.522-1.16-1.162.52-1.16 1.16-1.16zM9.21 15.052c-.262-.08-.544.062-.628.324l-2.437 7.596c-.084.263.06.544.323.63.05.015.103.022.153.022.212 0 .41-.135.477-.348l2.437-7.596c.085-.262-.06-.544-.323-.628zM6.475 13.292c.266 0 .487-.21.5-.478l.29-6.458c.01-.276-.225-.51-.5-.523-1.006-.04-1.958.302-2.697.977-.738.675-1.17 1.597-1.214 2.597l-.11 2.453c-.03.696.51 1.288 1.207 1.32l2.503.11c.006.002.014.002.022.002zm-.478-1.022l-2.002-.09c-.146-.006-.26-.13-.252-.276l.11-2.452c.033-.733.35-1.41.89-1.904.42-.383.935-.622 1.497-.695l-.243 5.417z"/><path d="M15.808 11.1l.248-.06c.27-.065.434-.335.37-.604-.066-.268-.326-.434-.605-.37l-.18.043-.107-.643c-.046-.273-.31-.45-.576-.41-.272.046-.456.304-.41.576l.12.71-1.857.447-.383-2.718c.025-.59-.195-1.17-.605-1.595-.416-.43-.964-.647-1.576-.66-1.15.012-2.09.962-2.142 2.163l-.153 3.557c-.023.56.187 1.115.58 1.522l3.59 3.67c.054.056.083.13.08.21l-.173 4.728c-.01.276.206.508.48.52h.02c.268 0 .49-.213.5-.482l.17-4.725c.017-.35-.114-.692-.36-.945l-3.59-3.67c-.2-.21-.31-.494-.296-.783l.154-3.557c.03-.66.545-1.2 1.15-1.205.36.018.626.124.85.354.223.23.338.536.33.948l.464 3.354c.02.14.097.265.213.344.117.08.262.105.4.073l2.324-.56 1.512 9c.04.244.253.417.492.417.028 0 .056-.002.084-.007.272-.046.456-.304.41-.576L15.808 11.1z"/></svg>