<svg xmlns="http://www.w3.org/2000/svg" width="24" height="24" viewBox="0 0 24 24"><path d="M23.456 21.716c-.23-.144-.54-.078-.69.155l-.372.59-9.76-17.195.658-1.04c.147-.233.078-.542-.155-.69-.233-.147-.543-.078-.69.156l-.396.626-.395-.626c-.148-.233-.455-.302-.69-.155-.233.147-.303.457-.155.69l.658 1.04-9.76 17.193-.372-.59c-.147-.23-.456-.3-.69-.154-.233.148-.303.457-.155.69l.82 1.293c.024.04.063.06.097.09.028.026.05.06.082.078.07.04.15.06.233.063l.008.002h20.64c.084 0 .167-.023.242-.065.03-.016.047-.046.072-.067.038-.032.08-.057.108-.1l.818-1.293c.15-.232.08-.54-.154-.69zM11.55 7.146V22.93H2.59l8.96-15.785zm1 15.785v-6.084l2.532 6.085h-2.53zm.815-6.733l4.39 3.954-1.79 2.297-2.6-6.25zm3.49 6.734l1.974-2.53c.16-.208.134-.505-.06-.68l-6.22-5.6V7.144l8.96 15.786h-4.655z"/></svg>