<svg xmlns="http://www.w3.org/2000/svg" width="24" height="24" viewBox="0 0 24 24"><path d="M11.666 19.853c.176-.14.26-.444.173-.65-.102-.245-.375-.39-.64-.358-1.015.116-1.693.735-2.104 1.286-.17-.587-.255-1.396-.255-2.42 0-.165-.112-.37-.25-.465-.174-.117-.402-.14-.6-.06-1.375.566-1.903 1.94-2.072 2.526-.05.206-.088.462-.128.734-.034.232-.077.52-.136.782-.644-.757-1.636-1.696-2.033-1.736-.186-.02-.39.075-.493.23-.123.184-.12.4.012.645.22.418.142.936.05 1.534-.07.454-.143.923-.085 1.403.03.254.247.44.496.44.02 0 .04 0 .06-.004.275-.033.47-.282.438-.557-.042-.344.018-.728.08-1.133.042-.27.085-.554.1-.843.452.447.918.967 1.01 1.19.1.243.388.364.638.28.077-.025.146-.07.202-.128.426-.444.545-1.25.65-1.96.037-.24.07-.466.107-.625.098-.34.37-1.07.97-1.552.06 1.467.32 2.46.804 3.09.11.144.286.215.466.19.18-.024.33-.144.396-.312.014-.035.24-.6.726-1.04-.07.595.21 1.147.426 1.573.215.423.418.823.347 1.19-.052.272.126.534.397.587.277.05.534-.125.585-.396.136-.704-.168-1.305-.437-1.834-.41-.805-.522-1.11.1-1.607zM7.89 7.355l.042.002c.253 0 .466-.192.493-.45.028-.27-.172-.516-.443-.548-.003 0-.277-.036-.364-.23-.055-.123-.165-.62.723-1.89.93-1.328 1.25-2.344.975-3.106-.226-.63-.768-.798-.83-.815-.255-.07-.514.077-.597.33-.082.256.063.535.314.628.02.007.13.054.178.212.062.197.102.805-.858 2.177-.87 1.245-1.135 2.19-.808 2.89.267.573.864.77 1.175.798zM10.542 6.825l.043.002c.256 0 .463-.198.485-.458.024-.276-.193-.52-.468-.543 0-.002-.057-.225.392-.867.572-.817.762-1.46.58-1.966-.125-.35-.41-.542-.617-.6-.266-.074-.57.07-.644.334-.074.266.053.527.32.602 0 .002.09.27-.46 1.057-.542.777-.698 1.386-.477 1.86.18.39.57.555.846.578zM4.766 6.825l.043.002c.255 0 .462-.198.484-.458.024-.276-.192-.52-.467-.544 0-.002-.057-.225.392-.866.57-.818.76-1.46.58-1.966-.126-.35-.412-.542-.618-.6-.265-.074-.57.07-.644.334-.074.266.053.528.32.602 0 .002.092.27-.46 1.056-.543.778-.7 1.387-.478 1.862.18.388.57.554.846.577z"/><path d="M23.77 4.544c-.11-.094-.254-.137-.403-.113l-8.45 1.364c-.222-.467-.77-.99-2.007-1.43-.26-.093-.546.043-.64.304-.09.26.044.546.305.64 1.023.363 1.48.79 1.48 1.052 0 .15-.125.32-.352.49l-.012.01c-.824.61-3.01 1.247-5.98 1.247-2.887 0-5.036-.6-5.913-1.195-.034-.033-.07-.06-.112-.083-.21-.165-.325-.325-.325-.47 0-.27.482-.71 1.56-1.08.262-.09.4-.374.312-.635-.09-.26-.375-.4-.635-.31C.747 4.966.36 5.784.36 6.36c0 .45.23.847.634 1.19l1.02 5.908c0 1.515 2.952 2.205 5.694 2.205s5.693-.69 5.686-2.12l.792-4.538L23.58 6.39c.217-.06.366-.257.366-.482v-.983c0-.146-.064-.286-.175-.38zM12.4 13.458c0 .35-1.644 1.205-4.692 1.205s-4.693-.855-4.7-1.29l-.888-5.17c1.418.597 3.51.904 5.588.904 2.088 0 4.188-.31 5.605-.912l-.058.335c0 .007-.003.014-.004.02l-.85 4.908zm1.976-5.546l.067-.384c.253-.22.43-.464.525-.73l7.978-1.287-8.57 2.402z"/></svg>