<svg xmlns="http://www.w3.org/2000/svg" width="24" height="24" viewBox="0 0 24 24"><path d="M1.485 4.99c-.276 0-.5.224-.5.5v17.89c0 .275.224.5.5.5s.5-.225.5-.5V5.49c0-.277-.224-.5-.5-.5zM23.12 3.203c-.077-.144-.22-.24-.38-.26L7.344 1.025c-.018-.003-.035.003-.053.002-.027 0-.052 0-.078.004-.04.006-.077.017-.114.03-.02.008-.037.015-.055.025-.042.023-.078.052-.112.086-.008.008-.02.012-.028.02L2.622 6.14c-.16.183-.163.455-.01.644l4.285 5.22c.02.024.047.035.07.054.02.017.037.032.06.046.08.048.164.08.254.082h.005c.03 0 .057 0 .086-.007l15.396-2.75c.163-.03.302-.14.37-.29 1.41-3.186.042-5.826-.017-5.937zM7.64 11.115c-.315-1.21-1.082-4.912.01-9.044l4.334.54v7.73l-4.344.775zm5.345-8.38l4 .498v6.213l-4 .714V2.735zm-6.64.633c-.44 2.556-.268 4.82-.017 6.367l-2.675-3.26 2.692-3.107zm15.977 5.125l-4.337.775v-5.91l4.353.542c.254.622.835 2.45-.016 4.593z"/></svg>