<svg xmlns="http://www.w3.org/2000/svg" width="24" height="24" viewBox="0 0 24 24"><path d="M22.165 6.03c-.996-.904-2.32-1.378-3.73-1.352-.73-1.79-2.62-3.344-5.418-3.09C11.2.18 8.864-.187 6.727.61c-2.158.806-3.7 2.637-4.158 4.925C.75 6.727-.048 8.62.483 10.525c.566 2.028 2.496 3.446 4.692 3.446h1.73l-.098.186c-.13.244-.04.547.205.677.075.04.156.06.235.06.18 0 .35-.096.44-.264l.353-.658h3.322l-.102.188c-.132.243-.042.547.2.68.077.04.16.06.24.06.176 0 .348-.095.44-.26l.36-.667h3.284l-.102.188c-.132.244-.042.547.2.68.076.04.158.06.24.06.176 0 .348-.094.438-.26l.363-.666h1.688c2.752 0 5.075-2.128 5.075-4.647.002-1.217-.553-2.417-1.52-3.296zm-3.553 6.94H5.176c-2.052 0-3.352-1.364-3.73-2.715-.43-1.54.256-3.032 1.834-3.986.125-.076.21-.202.234-.346.342-2.036 1.674-3.672 3.563-4.376.63-.235 1.28-.35 1.926-.35 1.265 0 2.51.442 3.542 1.295.105.087.243.127.378.11 2.72-.332 4.227 1.274 4.69 2.747.07.225.272.376.523.348 1.247-.12 2.472.272 3.354 1.073.76.69 1.194 1.622 1.194 2.553.003 1.977-1.864 3.647-4.072 3.647zM6.284 16.192c-.244-.133-.547-.04-.677.204l-.8 1.494c-.13.243-.04.547.204.677.076.04.157.06.237.06.178 0 .35-.096.44-.264l.802-1.494c.13-.244.037-.548-.206-.678zM4.282 19.927c-.244-.133-.546-.038-.677.204l-.472.883c-.13.244-.04.547.205.677.075.04.156.06.235.06.18 0 .35-.096.44-.264l.473-.882c.132-.244.04-.547-.204-.677zM10.266 17.03c-.244-.13-.547-.04-.678.2l-1.115 2.05c-.132.242-.042.546.2.678.076.04.158.06.24.06.176 0 .348-.094.438-.26l1.116-2.05c.132-.242.042-.546-.2-.678zM7.477 22.15c-.243-.13-.546-.04-.678.2l-.48.88c-.13.243-.04.547.202.68.076.04.158.06.238.06.177 0 .35-.095.44-.26l.478-.88c.132-.243.042-.547-.2-.68zM15.14 16.198c-.242-.13-.545-.04-.678.2l-.813 1.493c-.133.243-.043.547.2.68.075.04.157.06.238.06.177 0 .35-.094.44-.26l.812-1.493c.133-.242.043-.546-.2-.68zM13.105 19.93c-.243-.13-.546-.04-.678.2l-.478.88c-.133.243-.043.547.2.68.076.04.158.06.238.06.177 0 .35-.095.44-.26l.478-.88c.132-.243.043-.547-.2-.68z"/></svg>