<?xml version="1.0" encoding="utf-8"?>
<!-- Generator: Adobe Illustrator 19.2.0, SVG Export Plug-In . SVG Version: 6.00 Build 0)  -->
<svg version="1.1" id="Layer_1" xmlns="http://www.w3.org/2000/svg" xmlns:xlink="http://www.w3.org/1999/xlink" x="0px" y="0px"
	 width="24px" height="24px" viewBox="0 0 24 24" style="enable-background:new 0 0 24 24;" xml:space="preserve">
<path d="M23.55,7.07c0-0.516-0.231-1.021-0.634-1.387c-0.345-0.313-0.789-0.5-1.259-0.536c-0.365-0.701-1.082-1.102-1.949-1.077
	c-0.566-0.403-1.248-0.539-1.915-0.413c-1.589-1.093-3.441-1.675-5.375-1.675c-4.691,0-8.686,3.455-9.385,8.066
	c-0.72,0.604-1.231,1.439-1.44,2.412c-1.144,0.795-1.634,2.034-1.281,3.281C0.695,17.093,1.92,18,3.362,18h2.158
	c1.79,1.893,4.286,2.981,6.897,2.981c5.239,0,9.5-4.262,9.5-9.5c0-0.838-0.112-1.7-0.314-2.492C22.669,8.936,23.55,8.083,23.55,7.07
	z M1.274,15.469c-0.249-0.879,0.138-1.731,1.033-2.282c0.123-0.076,0.208-0.202,0.231-0.344c0.2-1.21,0.979-2.177,2.084-2.585
	c0.353-0.131,0.716-0.194,1.078-0.194c0.729,0,1.447,0.26,2.041,0.759c0.106,0.089,0.246,0.128,0.383,0.113
	c1.539-0.189,2.394,0.728,2.655,1.574c0.07,0.227,0.293,0.376,0.526,0.35c0.703-0.066,1.388,0.153,1.886,0.604
	c0.433,0.393,0.681,0.925,0.681,1.459c0,1.125-1.052,2.076-2.296,2.076H5.753c-0.001,0-0.002,0-0.003,0H3.362
	C2.219,17,1.49,16.231,1.274,15.469z M12.417,19.981c-1.998,0-3.919-0.717-5.438-1.981h4.596c1.787,0,3.296-1.409,3.296-3.076
	c0-0.815-0.367-1.617-1.009-2.199c-0.613-0.557-1.422-0.866-2.267-0.876c-0.498-1.113-1.669-2.056-3.38-1.926
	C7.071,9.052,5.614,8.825,4.275,9.32c-0.028,0.01-0.054,0.025-0.082,0.036c0.953-3.697,4.318-6.375,8.224-6.375
	c1.519,0,2.973,0.42,4.27,1.179c-0.443,0.351-0.77,0.834-0.912,1.41c-0.664,0.498-0.941,1.251-0.726,2.014
	C15.289,8.431,16.055,9,16.953,9h3.614c0.223,0.774,0.351,1.638,0.351,2.482C20.918,16.169,17.104,19.981,12.417,19.981z M21.502,8
	h-4.549c-0.516,0-0.844-0.346-0.941-0.688c-0.11-0.393,0.062-0.763,0.474-1.017c0.124-0.076,0.208-0.202,0.231-0.344
	c0.098-0.59,0.476-1.061,1.011-1.259c0.174-0.064,0.352-0.096,0.526-0.096c0.349,0,0.689,0.126,0.98,0.37
	c0.105,0.09,0.243,0.129,0.383,0.113c0.711-0.086,1.105,0.312,1.23,0.716c0.07,0.227,0.293,0.374,0.525,0.35
	c0.322-0.031,0.642,0.069,0.871,0.277C22.438,6.6,22.55,6.836,22.55,7.07C22.55,7.565,22.061,8,21.502,8z"/>
</svg>
