<?xml version="1.0" encoding="utf-8"?>
<!-- Generator: Adobe Illustrator 19.2.0, SVG Export Plug-In . SVG Version: 6.00 Build 0)  -->
<svg version="1.1" id="Layer_1" xmlns="http://www.w3.org/2000/svg" xmlns:xlink="http://www.w3.org/1999/xlink" x="0px" y="0px"
	 width="24px" height="24px" viewBox="0 0 24 24" style="enable-background:new 0 0 24 24;" xml:space="preserve">
<g>
	<path d="M19.96,3.371c-0.05-0.229-0.252-0.393-0.486-0.394c-0.001,0-0.001,0-0.002,0c-0.233,0-0.436,0.162-0.487,0.39l-2.143,9.46
		c-0.476-0.621-1.097-1.112-1.829-1.384c-0.464-2.247-2.278-3.847-4.417-3.847c-1.348,0-2.616,0.647-3.479,1.775
		c-0.904,1.182-1.248,2.74-0.948,4.229c-1.539,1.188-1.561,3.211-0.753,4.602c0.741,1.276,2.268,2.146,4.01,1.209
		c0.243-0.131,0.334-0.434,0.204-0.677s-0.432-0.334-0.677-0.204c-1.23,0.66-2.188,0.004-2.672-0.83
		C5.66,16.631,5.701,15.054,7,14.241c0.187-0.117,0.275-0.342,0.217-0.555c-0.351-1.293-0.091-2.679,0.695-3.707
		c0.672-0.879,1.65-1.383,2.684-1.383c1.735,0,3.2,1.389,3.481,3.301c0.029,0.195,0.17,0.355,0.359,0.409
		c1.4,0.394,2.378,1.794,2.378,3.405c0,1.387-0.703,2.61-1.836,3.192c-0.987,0.508-2.08,0.429-2.993-0.226
		c-0.224-0.159-0.537-0.108-0.697,0.116s-0.108,0.537,0.116,0.698c0.686,0.49,1.468,0.738,2.256,0.738
		c0.589,0,1.18-0.143,1.739-0.423l-0.205,0.945c-0.032,0.147,0.004,0.302,0.099,0.419c0.096,0.118,0.238,0.187,0.39,0.187h3.289
		v2.091c0,0.276,0.224,0.5,0.5,0.5s0.5-0.224,0.5-0.5v-2.091h3.29c0.151,0,0.295-0.068,0.39-0.187s0.131-0.272,0.099-0.42
		L19.96,3.371z M19.972,20.358v-2.152c0-0.276-0.224-0.5-0.5-0.5s-0.5,0.224-0.5,0.5v2.152h-2.669l0.323-1.493
		c0.749-0.826,1.189-1.939,1.189-3.153c0-0.536-0.094-1.051-0.255-1.533l1.902-8.397l3.179,14.576H19.972z"/>
	<path d="M12.367,15.479c0.381-0.231,0.818-0.259,1.343-0.079c0.261,0.09,0.545-0.049,0.635-0.311
		c0.09-0.261-0.049-0.545-0.311-0.635c-0.811-0.281-1.549-0.221-2.192,0.173c-0.36,0.221-0.651,0.532-0.889,0.876v-3.083
		c0-0.276-0.224-0.5-0.5-0.5s-0.5,0.224-0.5,0.5v2.896c-0.299-0.3-0.65-0.55-1.048-0.62c-0.332-0.061-0.829-0.021-1.324,0.485
		c-0.193,0.197-0.189,0.514,0.008,0.707c0.198,0.192,0.514,0.19,0.707-0.008c0.23-0.234,0.38-0.208,0.436-0.2
		c0.417,0.073,0.932,0.781,1.222,1.344v6.423c0,0.276,0.224,0.5,0.5,0.5s0.5-0.224,0.5-0.5v-5.167
		c0.011-0.031,0.026-0.059,0.031-0.093C11.065,17.621,11.472,16.027,12.367,15.479z"/>
	<path d="M10.779,4.615c0-0.65-0.289-1.284-0.792-1.74C9.552,2.482,9.011,2.26,8.434,2.232C8.002,1.307,7.083,0.765,6.008,0.824
		C5.185,0.199,4.146,0.032,3.187,0.381C2.159,0.754,1.419,1.626,1.173,2.738C0.338,3.364-0.004,4.322,0.277,5.286
		C0.577,6.311,1.49,7,2.551,7h5.765C9.651,7,10.779,5.907,10.779,4.615z M1.237,5.006C1.063,4.408,1.309,3.828,1.895,3.454
		C2.016,3.377,2.097,3.252,2.12,3.111c0.136-0.85,0.662-1.52,1.409-1.791C3.75,1.24,3.976,1.2,4.2,1.2
		c0.471,0,0.931,0.176,1.322,0.517c0.108,0.093,0.252,0.136,0.392,0.119c0.816-0.103,1.479,0.306,1.7,1.046
		c0.068,0.23,0.291,0.374,0.529,0.355c0.438-0.044,0.854,0.09,1.173,0.379c0.294,0.267,0.463,0.63,0.463,0.998
		C9.779,5.365,9.109,6,8.316,6H2.551C1.844,6,1.382,5.5,1.237,5.006z"/>
</g>
</svg>
