<?xml version="1.0" encoding="utf-8"?>
<!-- Generator: Adobe Illustrator 19.2.0, SVG Export Plug-In . SVG Version: 6.00 Build 0)  -->
<svg version="1.1" id="Layer_1" xmlns="http://www.w3.org/2000/svg" xmlns:xlink="http://www.w3.org/1999/xlink" x="0px" y="0px"
	 width="24px" height="24px" viewBox="0 0 24 24" style="enable-background:new 0 0 24 24;" xml:space="preserve">
<g>
	<path d="M14.468,21H9.516c-0.276,0-0.5,0.224-0.5,0.5s0.224,0.5,0.5,0.5h4.952c0.276,0,0.5-0.224,0.5-0.5S14.744,21,14.468,21z"/>
	<path d="M5.474,19.052c-1.35,0-2.448,1.098-2.448,2.447s1.098,2.448,2.448,2.448c1.35,0,2.448-1.099,2.448-2.448
		S6.824,19.052,5.474,19.052z M5.474,22.948c-0.798,0-1.448-0.649-1.448-1.448c0-0.798,0.65-1.447,1.448-1.447
		s1.448,0.649,1.448,1.447C6.922,22.299,6.272,22.948,5.474,22.948z"/>
	<path d="M18.462,19.052c-1.35,0-2.448,1.098-2.448,2.447s1.099,2.448,2.448,2.448s2.448-1.099,2.448-2.448
		S19.812,19.052,18.462,19.052z M18.462,22.948c-0.799,0-1.448-0.649-1.448-1.448c0-0.798,0.649-1.447,1.448-1.447
		s1.448,0.649,1.448,1.447C19.91,22.299,19.261,22.948,18.462,22.948z"/>
	<path d="M22.171,17.247c-1.409-1.298-3.305-1.382-4.308-1.315c-0.298-1.151-1.658-4.896-6.703-4.896c-0.017,0-0.035,0-0.052,0
		l-0.25,0c-0.363,0-0.979,0-1.066,0.003c-4.855,0.143-6.301,2.587-6.749,4.121c-0.464-0.573-1.016-1.498-1.016-2.704
		c0-1.374,1.122-2.492,2.501-2.492h1.299c1.74,0,3.156-1.412,3.156-3.148S7.567,3.668,5.827,3.668H5.149
		C5.059,3.294,4.876,2.948,4.6,2.669c-0.397-0.402-0.927-0.624-1.49-0.624H2.445c-0.276,0-0.5,0.224-0.5,0.5l0,0.231H1.079
		c-0.276,0-0.5,0.224-0.5,0.5s0.224,0.5,0.5,0.5h0.866l0,0.796H1.079c-0.276,0-0.5,0.224-0.5,0.5s0.224,0.5,0.5,0.5h0.866l0,0.219
		c0,0.132,0.053,0.26,0.146,0.354s0.221,0.146,0.354,0.146h0.665c0.563,0,1.093-0.222,1.49-0.624
		c0.276-0.279,0.46-0.625,0.549-0.999h0.678c1.188,0,2.156,0.963,2.156,2.148S7.015,8.964,5.827,8.964H4.527
		c-1.931,0-3.501,1.566-3.501,3.492c0,1.816,0.964,3.088,1.566,3.711c-2.526,0.991-2.466,5.161-2.462,5.344
		C0.137,21.783,0.359,22,0.63,22h0.7c0.276,0,0.5-0.224,0.5-0.5S1.606,21,1.33,21H1.146c0.065-1.062,0.389-3.523,1.98-3.971
		c0.356-0.1,0.613-0.358,0.713-0.677c0.004-0.014,0.008-0.028,0.011-0.043c0.014-0.052,0.034-0.101,0.039-0.156
		c0.101-1.188,0.88-3.965,5.931-4.114c0.084-0.003,0.684-0.003,1.038-0.003l0.254,0c0.016,0,0.031,0,0.047,0
		c4.208,0,5.413,2.896,5.735,4.146c0.12,0.463,0.559,0.769,1.029,0.745c0.685-0.044,2.393-0.029,3.57,1.056
		c0.742,0.685,1.171,1.698,1.275,3.018h-0.343c-0.276,0-0.5,0.224-0.5,0.5s0.224,0.5,0.5,0.5h0.867c0.134,0,0.263-0.054,0.356-0.149
		s0.146-0.225,0.144-0.359C23.762,19.637,23.216,18.209,22.171,17.247z M3.889,4.965C3.68,5.175,3.403,5.291,3.109,5.291H2.945
		l0-2.246h0.164c0.294,0,0.571,0.116,0.779,0.327c0.21,0.212,0.325,0.495,0.325,0.797C4.214,4.469,4.099,4.752,3.889,4.965z"/>
</g>
</svg>
