<?xml version="1.0" encoding="utf-8"?>
<!-- Generator: Adobe Illustrator 19.2.0, SVG Export Plug-In . SVG Version: 6.00 Build 0)  -->
<svg version="1.1" id="Layer_1" xmlns="http://www.w3.org/2000/svg" xmlns:xlink="http://www.w3.org/1999/xlink" x="0px" y="0px"
	 width="24px" height="24px" viewBox="0 0 24 24" style="enable-background:new 0 0 24 24;" xml:space="preserve">
<g>
	<path d="M22.899,20.313l-3.862-6.677C18.806,13.238,18.326,13,17.756,13H6.295c-0.56,0-1.051,0.247-1.281,0.645l-3.863,6.657
		c-0.189,0.326-0.189,0.702,0,1.03C1.39,21.744,1.88,22,2.432,22h19.187c0.555,0,1.046-0.255,1.282-0.665
		C23.089,21.01,23.088,20.637,22.899,20.313z M4.803,16h2.523l-0.467,2H3.643L4.803,16z M8.353,16H11.5v2H7.885L8.353,16z M11.5,14
		v1H8.586l0.234-1H11.5z M15.231,14l0.233,1H12.5v-1H15.231z M11.5,19v2H7.185l0.467-2H11.5z M12.5,19h3.898l0.467,2H12.5V19z
		 M12.5,18v-2h3.198l0.467,2H12.5z M16.726,16h2.524l1.157,2h-3.214L16.726,16z M18.172,14.137L18.671,15h-2.178l-0.233-1h1.497
		C17.987,14,18.139,14.081,18.172,14.137z M6.295,14h1.498L7.56,15H5.384l0.496-0.854C5.915,14.085,6.066,14,6.295,14z
		 M2.017,20.802L3.063,19h3.563l-0.467,2H2.432C2.157,21,2.016,20.857,2.017,20.802z M21.619,21h-3.726l-0.467-2h3.559l1.055,1.823
		C22.033,20.859,21.904,21,21.619,21z"/>
	<path d="M16.001,23H8c-0.276,0-0.5,0.224-0.5,0.5S7.724,24,8,24h8c0.276,0,0.5-0.224,0.5-0.5S16.277,23,16.001,23z"/>
	<path d="M12.017,7.534c1.127,0,2.043-0.917,2.043-2.043c0-1.127-0.916-2.043-2.043-2.043c-1.126,0-2.043,0.917-2.043,2.043
		C9.974,6.618,10.89,7.534,12.017,7.534z M12.017,4.448c0.575,0,1.043,0.468,1.043,1.043s-0.468,1.043-1.043,1.043
		s-1.043-0.468-1.043-1.043S11.441,4.448,12.017,4.448z"/>
	<path d="M14.459,5.5c0,0.276,0.224,0.5,0.5,0.5h1.905c0.276,0,0.5-0.224,0.5-0.5S17.141,5,16.864,5h-1.905
		C14.683,5,14.459,5.224,14.459,5.5z"/>
	<path d="M7.176,6h1.905c0.276,0,0.5-0.224,0.5-0.5S9.357,5,9.081,5H7.176c-0.276,0-0.5,0.224-0.5,0.5S6.899,6,7.176,6z"/>
	<path d="M12.02,3.061c0.276,0,0.5-0.224,0.5-0.5V0.656c0-0.276-0.224-0.5-0.5-0.5s-0.5,0.224-0.5,0.5v1.905
		C11.52,2.838,11.743,3.061,12.02,3.061z"/>
	<path d="M11.52,8.44v1.905c0,0.276,0.224,0.5,0.5,0.5s0.5-0.224,0.5-0.5V8.44c0-0.276-0.224-0.5-0.5-0.5S11.52,8.163,11.52,8.44z"
		/>
	<path d="M14.16,3.86c0.128,0,0.256-0.049,0.354-0.146l1.348-1.347c0.195-0.195,0.195-0.512,0-0.707s-0.512-0.195-0.707,0
		l-1.348,1.347c-0.195,0.195-0.195,0.512,0,0.707C13.904,3.811,14.032,3.86,14.16,3.86z"/>
	<path d="M9.526,7.287L8.179,8.634c-0.195,0.195-0.195,0.512,0,0.707c0.098,0.098,0.226,0.146,0.354,0.146s0.256-0.049,0.354-0.146
		l1.347-1.347c0.195-0.195,0.195-0.512,0-0.707S9.721,7.092,9.526,7.287z"/>
	<path d="M13.807,7.287c-0.195,0.195-0.195,0.512,0,0.707l1.348,1.347c0.098,0.098,0.226,0.146,0.354,0.146s0.256-0.049,0.354-0.146
		c0.195-0.195,0.195-0.512,0-0.707l-1.348-1.347C14.318,7.092,14.002,7.092,13.807,7.287z"/>
	<path d="M9.526,3.714C9.624,3.811,9.751,3.86,9.879,3.86s0.256-0.049,0.354-0.146c0.195-0.195,0.195-0.512,0-0.707L8.886,1.659
		c-0.195-0.195-0.512-0.195-0.707,0s-0.195,0.512,0,0.707L9.526,3.714z"/>
</g>
</svg>
