<?xml version="1.0" encoding="utf-8"?>
<!-- Generator: Adobe Illustrator 19.2.0, SVG Export Plug-In . SVG Version: 6.00 Build 0)  -->
<svg version="1.1" id="Layer_1" xmlns="http://www.w3.org/2000/svg" xmlns:xlink="http://www.w3.org/1999/xlink" x="0px" y="0px"
	 width="24px" height="24px" viewBox="0 0 24 24" style="enable-background:new 0 0 24 24;" xml:space="preserve">
<path d="M21.3,13.524c-1.271-0.664-3.016-1.344-4.911-1.915c-1.183-0.356-2.084-0.561-2.77-0.64
	c-0.087-0.134-0.19-0.256-0.305-0.365c-0.023-0.698-0.174-1.651-0.476-2.933c-0.299-1.268-1.878-7.566-3.631-7.157
	C7.451,0.927,8.851,7.272,9.149,8.539c0.347,1.471,0.616,2.373,0.88,2.949c-0.034,0.116-0.057,0.236-0.07,0.359
	c-0.573,0.381-1.269,0.954-2.134,1.768c-0.948,0.893-5.617,5.409-4.382,6.724c0.159,0.169,0.376,0.243,0.637,0.243
	c1.737,0,5.382-3.309,6.291-4.16l-0.398,6.621c-0.198,0.067-0.343,0.248-0.343,0.468c0,0.276,0.224,0.5,0.5,0.5h0.315h3.035h0.316
	c0.276,0,0.5-0.224,0.5-0.5c0-0.221-0.145-0.402-0.343-0.468l-0.495-8.407c0.484,0.178,1.08,0.373,1.837,0.6
	c1.897,0.571,3.727,0.968,5.152,1.115c0.412,0.043,0.775,0.065,1.093,0.065c1.061,0,1.617-0.241,1.769-0.746
	C23.508,15.015,22.888,14.352,21.3,13.524z M11.94,11.052c0.552,0,1.002,0.449,1.002,1.001s-0.45,1.001-1.002,1.001
	s-1.002-0.449-1.002-1.001S11.388,11.052,11.94,11.052z M9.458,1.581C9.931,2.058,10.98,4.147,11.864,7.9
	c0.212,0.901,0.343,1.614,0.409,2.185c-0.109-0.018-0.218-0.034-0.332-0.034c-0.466,0-0.889,0.166-1.23,0.434
	c-0.172-0.513-0.363-1.22-0.588-2.176C9.239,4.557,9.247,2.219,9.458,1.581z M4.241,19.588c0.177-0.648,1.461-2.602,4.27-5.243
	c0.637-0.599,1.183-1.065,1.642-1.41c0.243,0.491,0.679,0.863,1.211,1.025c-0.371,0.451-0.897,1.001-1.627,1.688
	C6.928,18.289,4.9,19.451,4.241,19.588z M10.976,23.012l0.459-7.638c0.427-0.443,0.76-0.826,0.997-1.155l0.518,8.793H10.976z
	 M15.584,14.28c-1.028-0.31-1.761-0.559-2.274-0.775c0.387-0.365,0.633-0.879,0.633-1.452c0-0.01-0.003-0.018-0.003-0.028
	c0.572,0.102,1.289,0.28,2.16,0.542c3.693,1.111,5.714,2.287,6.161,2.788C21.613,15.528,19.278,15.392,15.584,14.28z"/>
</svg>
