<?xml version="1.0" encoding="utf-8"?>
<!-- Generator: Adobe Illustrator 19.2.0, SVG Export Plug-In . SVG Version: 6.00 Build 0)  -->
<svg version="1.1" id="Layer_1" xmlns="http://www.w3.org/2000/svg" xmlns:xlink="http://www.w3.org/1999/xlink" x="0px" y="0px"
	 width="24px" height="24px" viewBox="0 0 24 24" style="enable-background:new 0 0 24 24;" xml:space="preserve">
<path d="M22.007,15.416v-0.621c0-2.185-1.712-3.962-3.816-3.962s-3.816,1.777-3.816,3.962v2.734c0,1.834-1.419,3.325-3.164,3.325
	c-1.745,0-3.165-1.491-3.165-3.325V9.274c1.139,0.683,2.19,1.043,3.135,1.043c0.554,0,1.074-0.118,1.556-0.354
	c3.016-1.477,3.29-7.059,3.301-7.296c0.006-0.139-0.047-0.274-0.145-0.374c-0.1-0.099-0.24-0.159-0.373-0.147
	C10.4,2.325,8.358,4.207,7.549,5.839C5.974,3.905,1.841,4,1.633,4.005C1.495,4.01,1.364,4.072,1.272,4.177
	C1.181,4.281,1.137,4.419,1.152,4.557c0.017,0.158,0.433,3.895,2.674,4.948C4.214,9.688,4.628,9.78,5.065,9.78
	c0.614,0,1.276-0.184,1.98-0.543v8.292c0,2.385,1.868,4.325,4.165,4.325c2.296,0,4.164-1.94,4.164-4.325v-2.734
	c0-1.633,1.264-2.962,2.816-2.962s2.816,1.329,2.816,2.962v0.618c-1.128,0.245-2.006,1.308-2.006,2.537v0.855
	c0,0.276,0.224,0.5,0.5,0.5h0.5v0.998c0,0.276,0.224,0.5,0.5,0.5s0.5-0.224,0.5-0.5v-0.998h1v0.998c0,0.276,0.224,0.5,0.5,0.5
	s0.5-0.224,0.5-0.5v-0.998h0.5c0.276,0,0.5-0.224,0.5-0.5v-0.854C24.001,16.725,23.129,15.666,22.007,15.416z M14.992,3.173
	c-0.142,1.373-0.698,4.915-2.697,5.893C11.244,9.579,9.884,9.291,8.25,8.232c0.409-0.521,1.136-1.249,1.975-1.426
	c1.603-0.338,3.125-1.265,3.19-1.304c0.235-0.145,0.309-0.452,0.164-0.688c-0.143-0.234-0.449-0.309-0.687-0.165
	c-0.014,0.009-1.443,0.876-2.873,1.178c-0.712,0.15-1.314,0.55-1.788,0.973C8.697,5.405,10.21,3.476,14.992,3.173z M4.252,8.601
	C2.956,7.993,2.422,5.99,2.234,5.007c1.62,0.05,4.492,0.48,4.877,2.123c-0.01,0.052-0.011,0.092-0.019,0.142
	c-1.043-0.674-2.479-0.996-2.69-1.04C4.136,6.173,3.869,6.347,3.811,6.617C3.754,6.887,3.927,7.153,4.197,7.21
	C4.929,7.365,6.096,7.756,6.744,8.25C5.768,8.785,4.927,8.918,4.252,8.601z M23.001,18.305h-3V17.95c0-0.848,0.701-1.591,1.5-1.591
	s1.5,0.744,1.5,1.592V18.305z"/>
</svg>
