<?xml version="1.0" encoding="utf-8"?>
<!-- Generator: Adobe Illustrator 19.2.0, SVG Export Plug-In . SVG Version: 6.00 Build 0)  -->
<svg version="1.1" id="Layer_1" xmlns="http://www.w3.org/2000/svg" xmlns:xlink="http://www.w3.org/1999/xlink" x="0px" y="0px"
	 width="24px" height="24px" viewBox="0 0 24 24" style="enable-background:new 0 0 24 24;" xml:space="preserve">
<g>
	<path d="M23.779,10.986l-2.775-2.384V2.5c0-0.276-0.224-0.5-0.5-0.5h-5c-0.276,0-0.5,0.224-0.5,0.5v0.95l-2.675-2.297
		c-0.188-0.161-0.464-0.161-0.651,0l-11.45,9.833c-0.209,0.18-0.233,0.496-0.054,0.705c0.181,0.21,0.497,0.234,0.705,0.054
		l1.124-0.965V23.5c0,0.276,0.224,0.5,0.5,0.5h19c0.276,0,0.5-0.224,0.5-0.5V10.78l1.123,0.965c0.095,0.081,0.211,0.121,0.326,0.121
		c0.141,0,0.28-0.059,0.379-0.174C24.013,11.482,23.988,11.166,23.779,10.986z M16.004,3h4v4.744l-4-3.435V3z M21.004,23h-18V9.921
		l9-7.73l9,7.73V23z"/>
	<path d="M9.22,16.521c0,1.373,1.131,2.489,2.521,2.489c0.679,0,1.315-0.263,1.793-0.738c0.195-0.195,0.195-0.512,0.001-0.708
		c-0.197-0.195-0.512-0.194-0.708-0.001c-0.289,0.289-0.675,0.447-1.087,0.447c-0.838,0-1.521-0.668-1.521-1.489
		c0-0.82,0.682-1.488,1.521-1.488c0.395,0,0.77,0.147,1.054,0.416c0.201,0.188,0.518,0.18,0.707-0.021s0.18-0.518-0.021-0.707
		c-0.471-0.443-1.088-0.688-1.74-0.688C10.351,14.033,9.22,15.149,9.22,16.521z"/>
	<path d="M16.618,19.017c1.346,0,2.44-1.118,2.44-2.492s-1.095-2.492-2.44-2.492s-2.44,1.118-2.44,2.492
		S15.272,19.017,16.618,19.017z M16.618,15.033c0.794,0,1.44,0.669,1.44,1.492s-0.646,1.492-1.44,1.492s-1.44-0.669-1.44-1.492
		S15.824,15.033,16.618,15.033z"/>
	<path d="M8.104,15.033c0.276,0,0.5-0.224,0.5-0.5s-0.224-0.5-0.5-0.5H5.418c-0.276,0-0.5,0.224-0.5,0.5v3.984
		c0,0.276,0.224,0.5,0.5,0.5h2.686c0.276,0,0.5-0.224,0.5-0.5s-0.224-0.5-0.5-0.5H5.918v-0.992h1.807c0.276,0,0.5-0.224,0.5-0.5
		s-0.224-0.5-0.5-0.5H5.918v-0.992H8.104z"/>
</g>
</svg>
