<?xml version="1.0" encoding="utf-8"?>
<!-- Generator: Adobe Illustrator 19.2.0, SVG Export Plug-In . SVG Version: 6.00 Build 0)  -->
<svg version="1.1" id="Layer_1" xmlns="http://www.w3.org/2000/svg" xmlns:xlink="http://www.w3.org/1999/xlink" x="0px" y="0px"
	 width="24px" height="24px" viewBox="0 0 24 24" style="enable-background:new 0 0 24 24;" xml:space="preserve">
<g>
	<path d="M16.957,9.29L5.882,12.345c-0.246,0.068-0.4,0.31-0.36,0.561c0.041,0.252,0.281,0.423,0.519,0.42
		c0.015,0.001,1.499-0.061,2.579,0.947c0.67,0.627,1.042,1.557,1.142,2.74H8.763c-0.239,0-0.445,0.169-0.491,0.404
		c-0.677,3.466,0.892,4.506,1.681,4.806l0.246,1.378c0.042,0.238,0.25,0.412,0.492,0.412h1.723c0.242,0,0.45-0.174,0.492-0.412
		l0.246-1.378c0.788-0.3,2.357-1.34,1.681-4.806c-0.046-0.235-0.252-0.404-0.491-0.404h-0.987c0.094-0.985,0.409-1.759,0.969-2.279
		c0.917-0.852,2.189-0.794,2.203-0.795c0.271,0.02,0.511-0.193,0.528-0.468c0.018-0.275-0.192-0.513-0.468-0.53
		c-0.066-0.006-1.692-0.093-2.934,1.051c-0.771,0.71-1.194,1.735-1.299,3.021h-1.594c-0.109-1.483-0.589-2.663-1.47-3.48
		c-0.372-0.346-0.775-0.593-1.168-0.77l9.099-2.511c0.267-0.073,0.423-0.349,0.35-0.615C17.498,9.373,17.223,9.218,16.957,9.29z
		 M12.611,21.345c-0.2,0.042-0.354,0.201-0.39,0.401l-0.226,1.268h-0.886l-0.226-1.268c-0.036-0.201-0.19-0.359-0.39-0.401
		c-0.863-0.181-1.629-1.154-1.31-3.331h4.737C14.24,20.191,13.474,21.164,12.611,21.345z"/>
	<path d="M6.015,9.474c0.044,0,0.089-0.006,0.133-0.018L17.223,6.4c0.267-0.073,0.423-0.349,0.35-0.615
		c-0.074-0.266-0.35-0.423-0.615-0.349L5.882,8.492C5.616,8.565,5.459,8.841,5.533,9.107C5.594,9.328,5.795,9.474,6.015,9.474z"/>
	<path d="M6.015,5.62c0.047,0,0.095-0.006,0.142-0.021l7.202-2.132c0.786-0.271,1.771-1.218,1.26-2.714
		c-0.09-0.261-0.378-0.403-0.635-0.312c-0.262,0.089-0.401,0.374-0.312,0.635c0.342,1.001-0.405,1.36-0.617,1.438L5.873,4.64
		C5.608,4.719,5.458,4.997,5.536,5.262C5.6,5.479,5.799,5.62,6.015,5.62z"/>
</g>
</svg>
