<?xml version="1.0" encoding="utf-8"?>
<!-- Generator: Adobe Illustrator 19.2.0, SVG Export Plug-In . SVG Version: 6.00 Build 0)  -->
<svg version="1.1" id="Layer_1" xmlns="http://www.w3.org/2000/svg" xmlns:xlink="http://www.w3.org/1999/xlink" x="0px" y="0px"
	 width="24px" height="24px" viewBox="0 0 24 24" style="enable-background:new 0 0 24 24;" xml:space="preserve">
<g>
	<path d="M23.047,16.882c-0.5-0.359-1.136-0.406-1.745-0.132l-3.871,1.744c-0.2-0.231-0.481-0.418-0.851-0.525l-5.495-1.593
		c-2.47-0.715-6.764,0.004-8.827,0.351l-0.608,0.101c-0.725,0.115-1.287,0.655-1.432,1.375c-0.081,0.401,0.106,1.155,0.479,2.406
		l0.09,0.307c0.25,0.897,1.192,1.441,2.099,1.209c0.433-0.109,0.851-0.224,1.248-0.332c1.313-0.359,2.555-0.699,3.095-0.46
		c2.335,1.032,4.547,1.533,6.762,1.533c2.253,0,2.39-0.062,5.877-1.667c0.776-0.357,1.724-0.793,2.903-1.324
		c0.582-0.263,0.951-0.756,1.012-1.355C23.846,17.891,23.557,17.249,23.047,16.882z M22.361,18.962
		c-1.183,0.533-2.133,0.97-2.91,1.328c-3.426,1.575-3.426,1.575-5.46,1.575c-2.072,0-4.152-0.474-6.357-1.447
		c-0.261-0.115-0.559-0.164-0.892-0.164c-0.775,0-1.74,0.264-2.871,0.573c-0.392,0.107-0.803,0.22-1.23,0.328
		c-0.383,0.093-0.785-0.131-0.891-0.51l-0.095-0.323c-0.121-0.406-0.49-1.644-0.458-1.923c0.062-0.306,0.3-0.535,0.608-0.584
		l0.618-0.103c1.99-0.334,6.129-1.029,8.383-0.376l5.494,1.593c0.219,0.063,0.357,0.178,0.437,0.313
		c0.008,0.033,0.019,0.065,0.032,0.097c0.01,0.021,0.021,0.042,0.032,0.061c0.037,0.141,0.026,0.289-0.012,0.42
		c-0.093,0.325-0.39,0.654-0.903,0.5l-5.773-1.675c-0.266-0.078-0.543,0.075-0.619,0.341c-0.077,0.266,0.076,0.543,0.341,0.62
		l5.772,1.675c1.087,0.315,1.903-0.354,2.144-1.182c0.063-0.221,0.087-0.454,0.066-0.683l3.895-1.755
		c0.286-0.13,0.545-0.117,0.75,0.031c0.223,0.16,0.354,0.451,0.326,0.726C22.764,18.663,22.62,18.845,22.361,18.962z"/>
	<path d="M11.003,11.068c0.294,0.089,0.594,0.133,0.899,0.133c0.816,0,1.67-0.327,2.551-0.958c0.077,0.642,0.225,1.532,0.517,2.469
		c0.194,0.622,0.209,1.548,0.041,2.678c-0.041,0.272,0.147,0.527,0.421,0.567c0.024,0.004,0.05,0.006,0.074,0.006
		c0.243,0,0.457-0.179,0.493-0.427c0.193-1.296,0.168-2.347-0.074-3.123c-0.275-0.88-0.414-1.734-0.484-2.333
		c1.119,0.481,2.137,0.735,3.038,0.735c0.872,0,1.64-0.226,2.298-0.678c3.034-2.085,2.438-8.203,2.41-8.463
		c-0.014-0.139-0.086-0.265-0.197-0.349c-0.111-0.083-0.256-0.115-0.39-0.091c-5.617,1.03-7.516,3.451-8.107,5.363
		c-1.984-1.913-6.556-1.129-6.781-1.089C7.576,5.532,7.456,5.613,7.38,5.729c-0.075,0.117-0.099,0.26-0.064,0.395
		C7.36,6.294,8.411,10.286,11.003,11.068z M22.229,2.326c0.069,1.484,0.059,5.561-2.02,6.987c-1.089,0.748-2.657,0.649-4.661-0.276
		c0.321-0.579,0.996-1.588,1.984-1.953c1.69-0.625,3.199-1.878,3.263-1.931c0.212-0.177,0.24-0.493,0.063-0.705
		c-0.178-0.212-0.495-0.241-0.704-0.063c-0.015,0.012-1.439,1.195-2.97,1.761c-0.817,0.302-1.444,0.909-1.901,1.493
		C15.496,6.018,16.751,3.476,22.229,2.326z M14.252,7.98c-0.004,0.089,0.004,0.158,0.004,0.24c0,0.003,0,0.006,0,0.009
		c-1.247-0.594-2.927-0.718-3.167-0.732c-0.277-0.012-0.512,0.193-0.53,0.468c-0.017,0.275,0.193,0.513,0.468,0.53
		c0.858,0.053,2.27,0.31,3.057,0.781c-1.028,0.799-1.964,1.084-2.79,0.836C9.725,9.639,8.803,7.438,8.451,6.408
		C10.229,6.19,13.552,6.18,14.252,7.98z"/>
</g>
</svg>
