<?xml version="1.0" encoding="utf-8"?>
<!-- Generator: Adobe Illustrator 19.2.0, SVG Export Plug-In . SVG Version: 6.00 Build 0)  -->
<svg version="1.1" id="Layer_1" xmlns="http://www.w3.org/2000/svg" xmlns:xlink="http://www.w3.org/1999/xlink" x="0px" y="0px"
	 width="24px" height="24px" viewBox="0 0 24 24" style="enable-background:new 0 0 24 24;" xml:space="preserve">
<g>
	<path d="M17.292,1H11.41c-0.389,0-1.099,0-2.175,1H7.2l-0.614-0.9l0.088-0.06c0.229-0.156,0.288-0.466,0.132-0.695
		C6.651,0.117,6.34,0.057,6.112,0.213L2.715,2.524C2.487,2.679,2.428,2.99,2.583,3.219C2.68,3.361,2.837,3.437,2.997,3.437
		c0.097,0,0.195-0.028,0.281-0.086l0.126-0.086l1.063,1.796C3.119,6.641,3,7.08,3,7.365v14.46C3,22.984,4.113,24,5.38,24h13.412
		C20.01,24,21,23.024,21,21.826V5.132C21,3.965,18.528,1,17.292,1z M20,21.826C20,22.484,19.47,23,18.792,23H5.38
		C4.729,23,4,22.498,4,21.826L3.998,7.4c0.014-0.063,0.151-0.453,1.459-1.956C5.599,5.281,5.62,5.046,5.51,4.861L4.232,2.702
		l1.528-1.04l0.763,1.12C6.616,2.918,6.771,3,6.936,3h2.5c0.131,0,0.257-0.052,0.351-0.144C10.656,2,11.11,2,11.41,2h5.882
		C17.925,2.006,20,4.406,20,5.132V21.826z"/>
	<path d="M16.001,14.685v-1.37c0-0.725-0.59-1.315-1.315-1.315h-5.37C8.59,12,8,12.59,8,13.315v1.37C8,15.41,8.59,16,9.315,16h5.37
		C15.411,16,16.001,15.41,16.001,14.685z M15.001,14.685c0,0.174-0.142,0.314-0.315,0.314h-5.37C9.142,15,9,14.859,9,14.685v-1.37
		C9,13.141,9.142,13,9.315,13h5.37c0.174,0,0.315,0.142,0.315,0.315V14.685z"/>
	<path d="M18.169,7.108c-0.241-0.135-0.546-0.049-0.681,0.192l-1.918,3.432c-0.135,0.241-0.049,0.546,0.192,0.681
		c0.077,0.043,0.161,0.063,0.244,0.063c0.175,0,0.345-0.092,0.437-0.256l1.918-3.432C18.496,7.548,18.41,7.243,18.169,7.108z"/>
	<path d="M16.443,16.699c-0.136-0.242-0.44-0.325-0.681-0.192c-0.241,0.135-0.327,0.439-0.192,0.681l1.918,3.433
		c0.092,0.164,0.262,0.256,0.437,0.256c0.083,0,0.167-0.021,0.244-0.063c0.241-0.135,0.327-0.439,0.192-0.681L16.443,16.699z"/>
	<path d="M7.561,11.221c0.092,0.164,0.262,0.256,0.437,0.256c0.083,0,0.166-0.021,0.244-0.063c0.241-0.135,0.327-0.439,0.192-0.681
		L6.516,7.301C6.38,7.059,6.077,6.973,5.835,7.108C5.594,7.243,5.508,7.548,5.643,7.789L7.561,11.221z"/>
	<path d="M8.241,16.507c-0.242-0.135-0.545-0.05-0.68,0.192l-1.918,3.433c-0.135,0.241-0.048,0.546,0.193,0.681
		c0.077,0.043,0.161,0.063,0.243,0.063c0.175,0,0.345-0.092,0.437-0.256l1.918-3.433C8.568,16.946,8.482,16.641,8.241,16.507z"/>
	<path d="M12,5h5c0.276,0,0.5-0.224,0.5-0.5S17.277,4,17.001,4h-5c-0.276,0-0.5,0.224-0.5,0.5S11.724,5,12,5z"/>
</g>
</svg>
