<?xml version="1.0" encoding="utf-8"?>
<!-- Generator: Adobe Illustrator 19.2.0, SVG Export Plug-In . SVG Version: 6.00 Build 0)  -->
<svg version="1.1" id="Layer_1" xmlns="http://www.w3.org/2000/svg" xmlns:xlink="http://www.w3.org/1999/xlink" x="0px" y="0px"
	 width="24px" height="24px" viewBox="0 0 24 24" style="enable-background:new 0 0 24 24;" xml:space="preserve">
<g>
	<path d="M21.501,14h-0.5v-0.801C21.001,9.028,17.87,6,13.558,6H11V5.5C11,5.224,10.777,5,10.5,5h-3C7.224,5,7,5.224,7,5.5V6H0.5
		C0.224,6,0,6.224,0,6.5v5C0,11.776,0.224,12,0.5,12h13.057c0.682,0,1.443,0.513,1.443,1.199V14h-0.5c-0.276,0-0.5,0.224-0.5,0.5v2
		c0,0.276,0.224,0.5,0.5,0.5h7c0.276,0,0.5-0.224,0.5-0.5v-2C22.001,14.223,21.777,14,21.501,14z M13.558,11H1V7h6.5
		C7.777,7,8,6.777,8,6.5V6h2v0.5C10,6.777,10.224,7,10.5,7h3.057c3.733,0,6.443,2.607,6.443,6.198V14h-4v-0.801
		C16.001,11.883,14.737,11,13.558,11z M21.001,16h-6v-1h6V16z"/>
	<path d="M6.267,3h2.168v1c0,0.276,0.224,0.5,0.5,0.5s0.5-0.224,0.5-0.5V3h2.142c0.768,0,1.347-0.645,1.347-1.5S12.345,0,11.577,0
		H6.267C5.499,0,4.92,0.645,4.92,1.5S5.499,3,6.267,3z M6.267,1h5.311c0.201,0,0.347,0.21,0.347,0.5S11.778,2,11.577,2H6.267
		C6.066,2,5.92,1.789,5.92,1.5S6.066,1,6.267,1z"/>
	<path d="M18.001,18.027c-0.677,0-2.017,3.244-2.017,3.729c0,1.112,0.904,2.017,2.017,2.017c1.111,0,2.016-0.904,2.016-2.017
		C20.017,21.271,18.677,18.027,18.001,18.027z M18.001,22.772c-0.561,0-1.017-0.456-1.017-1.017c0-0.401,0.59-1.536,1.017-2.279
		c0.427,0.743,1.016,1.878,1.016,2.279C19.017,22.316,18.561,22.772,18.001,22.772z"/>
</g>
</svg>
