<?xml version="1.0" encoding="utf-8"?>
<!-- Generator: Adobe Illustrator 19.2.0, SVG Export Plug-In . SVG Version: 6.00 Build 0)  -->
<svg version="1.1" id="Layer_1" xmlns="http://www.w3.org/2000/svg" xmlns:xlink="http://www.w3.org/1999/xlink" x="0px" y="0px"
	 width="24px" height="24px" viewBox="0 0 24 24" style="enable-background:new 0 0 24 24;" xml:space="preserve">
<g>
	<path d="M23.776,10.986l-2.775-2.384V2.5c0-0.276-0.224-0.5-0.5-0.5h-5c-0.276,0-0.5,0.224-0.5,0.5v0.95l-2.675-2.297
		c-0.188-0.161-0.464-0.161-0.651,0l-11.45,9.833c-0.209,0.18-0.233,0.496-0.054,0.705c0.181,0.21,0.497,0.234,0.705,0.054L2,10.78
		V23.5C2,23.776,2.224,24,2.5,24h19c0.276,0,0.5-0.224,0.5-0.5V10.78l1.123,0.965c0.095,0.081,0.211,0.121,0.326,0.121
		c0.141,0,0.28-0.059,0.379-0.174C24.01,11.482,23.985,11.166,23.776,10.986z M16.001,3h4v4.744l-4-3.435V3z M21.001,23H3V9.921
		l9-7.73l9,7.73V23z"/>
	<path d="M11.084,14.388c-1.499-1.676-5.16-1.531-5.345-1.52C5.6,12.875,5.47,12.939,5.381,13.046s-0.131,0.245-0.114,0.383
		c0.018,0.144,0.454,3.528,2.514,4.453c0.345,0.154,0.709,0.232,1.092,0.232c0.539,0,1.117-0.164,1.726-0.47
		c0.001,0.517,0.035,1.195,0.161,1.913c0.101,0.574,0.134,0.847,0.145,0.97c-0.042,0.13-0.032,0.276,0.041,0.404
		c0.093,0.162,0.274,0.262,0.457,0.262c0.055,0,0.11-0.009,0.163-0.028c0.462-0.167,0.391-0.573,0.18-1.78
		c-0.116-0.658-0.145-1.286-0.146-1.761c1.009,0.577,1.939,0.88,2.775,0.88c0.529,0,1.023-0.117,1.479-0.35
		c2.717-1.391,2.878-6.448,2.884-6.663c0.004-0.139-0.052-0.274-0.151-0.371c-0.1-0.097-0.236-0.147-0.375-0.141
		C13.649,11.217,11.815,12.909,11.084,14.388z M8.191,16.969c-1.056-0.473-1.613-2.092-1.834-3.108
		c1.452,0.027,3.945,0.371,4.314,1.786c-0.003,0.017-0.003,0.03-0.005,0.047c-0.952-0.568-2.199-0.828-2.386-0.864
		c-0.272-0.047-0.533,0.125-0.586,0.396c-0.052,0.271,0.125,0.533,0.396,0.586c0.634,0.122,1.636,0.433,2.229,0.841
		C9.491,17.11,8.773,17.232,8.191,16.969z M17.7,12.015c-0.114,1.27-0.568,4.362-2.304,5.249c-0.909,0.463-2.107,0.238-3.556-0.655
		c0.333-0.431,0.943-1.084,1.691-1.255c1.445-0.331,2.81-1.193,2.867-1.229c0.233-0.148,0.302-0.458,0.153-0.69
		c-0.149-0.233-0.459-0.299-0.69-0.153c-0.013,0.008-1.274,0.806-2.553,1.099c-0.575,0.131-1.071,0.442-1.474,0.785
		C12.297,13.94,13.678,12.354,17.7,12.015z"/>
</g>
</svg>
