<?xml version="1.0" encoding="utf-8"?>
<!-- Generator: Adobe Illustrator 19.2.0, SVG Export Plug-In . SVG Version: 6.00 Build 0)  -->
<svg version="1.1" id="Layer_1" xmlns="http://www.w3.org/2000/svg" xmlns:xlink="http://www.w3.org/1999/xlink" x="0px" y="0px"
	 width="24px" height="24px" viewBox="0 0 24 24" style="enable-background:new 0 0 24 24;" xml:space="preserve">
<g>
	<path d="M22.528,8.29c0-1.35-3.132-8.011-4.027-8.011c-0.383,0-1.175,1.221-1.956,2.721H5.5H5C4.724,3,4.5,3.223,4.5,3.5
		S4.724,4,5,4v5C4.724,9,4.5,9.223,4.5,9.5S4.724,10,5,10v7c-0.276,0-0.5,0.224-0.5,0.5S4.724,18,5,18v5c-0.276,0-0.5,0.224-0.5,0.5
		S4.724,24,5,24h0.5h13h0.5c0.276,0,0.5-0.224,0.5-0.5s-0.224-0.5-0.5-0.5v-5c0.276,0,0.5-0.224,0.5-0.5s-0.224-0.5-0.5-0.5v-4.732
		C20.984,12.018,22.528,10.34,22.528,8.29z M18.501,1.692c0.906,1.479,3.027,5.214,3.027,6.598c0,1.669-1.358,3.028-3.027,3.028
		c-1.67,0-3.028-1.358-3.028-3.028C15.473,6.902,17.595,3.169,18.501,1.692z M6,4h10.045c-0.85,1.772-1.573,3.643-1.573,4.291
		c0,0.243,0.03,0.478,0.072,0.709H6V4z M18.001,23H6v-5h12V23z M6,17v-7h8.867c0.577,1.22,1.743,2.093,3.134,2.268V17H6z"/>
	<path d="M12.443,11.287c-0.276,0-0.5,0.224-0.5,0.5v3.425c0,0.276,0.224,0.5,0.5,0.5s0.5-0.224,0.5-0.5v-3.425
		C12.943,11.511,12.719,11.287,12.443,11.287z"/>
	<path d="M16.551,14.713h-1.55v-2.925c0-0.276-0.224-0.5-0.5-0.5s-0.5,0.224-0.5,0.5v3.425c0,0.276,0.224,0.5,0.5,0.5h2.05
		c0.276,0,0.5-0.224,0.5-0.5S16.827,14.713,16.551,14.713z"/>
	<path d="M9.128,11.287c-1.129,0-2.048,0.993-2.048,2.212s0.918,2.213,2.048,2.213c1.129,0,2.047-0.993,2.047-2.213
		S10.257,11.287,9.128,11.287z M9.128,14.713c-0.578,0-1.048-0.544-1.048-1.213c0-0.668,0.47-1.212,1.048-1.212
		s1.047,0.544,1.047,1.212C10.175,14.169,9.706,14.713,9.128,14.713z"/>
</g>
</svg>
