<?xml version="1.0" encoding="utf-8"?>
<!-- Generator: Adobe Illustrator 19.2.0, SVG Export Plug-In . SVG Version: 6.00 Build 0)  -->
<svg version="1.1" id="Layer_1" xmlns="http://www.w3.org/2000/svg" xmlns:xlink="http://www.w3.org/1999/xlink" x="0px" y="0px"
	 width="24px" height="24px" viewBox="0 0 24 24" style="enable-background:new 0 0 24 24;" xml:space="preserve">
<g>
	<path d="M21.001,23H16.38l-1.633-12h0.255c0.276,0,0.5-0.224,0.5-0.5s-0.224-0.5-0.5-0.5h-0.827h-3.396H10
		c-0.276,0-0.5,0.224-0.5,0.5S9.724,11,10,11h0.205L8.572,23H4c-0.276,0-0.5,0.224-0.5,0.5S3.724,24,4,24h5.008h6.935h5.058
		c0.276,0,0.5-0.224,0.5-0.5S21.277,23,21.001,23z M10.183,18.584l1.576,1.53l-2.056,1.995L10.183,18.584z M10.701,14.777
		l0.952,0.728l-1.173,0.897L10.701,14.777z M14.473,16.401L13.3,15.505l0.952-0.728L14.473,16.401z M15.25,22.109l-2.056-1.995
		l1.576-1.529L15.25,22.109z M12,18.956l-1.417-1.375L12,16.498V18.956z M13,16.535l1.368,1.046L13,18.909V16.535z M12,21.272V23
		h-1.78L12,21.272z M13,21.319L14.732,23H13V21.319z M14.096,13.636L13,14.474V11h0.737L14.096,13.636z M12,11v3.511l-1.144-0.875
		L11.215,11H12z"/>
	<path d="M8.165,7.963c0.276,0,0.5-0.224,0.5-0.5c0-0.345,0.294-0.626,0.655-0.626c0.362,0,0.656,0.281,0.656,0.626v1.006
		c0,0.276,0.224,0.5,0.5,0.5s0.5-0.224,0.5-0.5V7.463c0-0.896-0.743-1.626-1.656-1.626c-0.913,0-1.655,0.729-1.655,1.626
		C7.665,7.74,7.889,7.963,8.165,7.963z"/>
	<path d="M14.477,8.969c0.276,0,0.5-0.224,0.5-0.5V5.343c0-0.176,0.152-0.318,0.339-0.318c0.188,0,0.34,0.143,0.34,0.318
		c0,0.276,0.224,0.5,0.5,0.5s0.5-0.224,0.5-0.5c0-0.727-0.601-1.318-1.34-1.318c-0.738,0-1.339,0.591-1.339,1.318v3.127
		C13.977,8.746,14.2,8.969,14.477,8.969z"/>
	<path d="M10.519,4.882c0.276,0,0.5-0.224,0.5-0.5s-0.224-0.5-0.5-0.5c-0.817,0-1.481-0.628-1.481-1.401
		c0-0.772,0.665-1.401,1.481-1.401S12,1.708,12,2.48v5.99c0,0.276,0.224,0.5,0.5,0.5s0.5-0.224,0.5-0.5V2.48
		c0-1.324-1.114-2.401-2.482-2.401S8.038,1.156,8.038,2.48C8.038,3.804,9.151,4.882,10.519,4.882z"/>
</g>
</svg>
