<?xml version="1.0" encoding="utf-8"?>
<!-- Generator: Adobe Illustrator 19.2.0, SVG Export Plug-In . SVG Version: 6.00 Build 0)  -->
<svg version="1.1" id="Layer_1" xmlns="http://www.w3.org/2000/svg" xmlns:xlink="http://www.w3.org/1999/xlink" x="0px" y="0px"
	 width="24px" height="24px" viewBox="0 0 24 24" style="enable-background:new 0 0 24 24;" xml:space="preserve">
<g>
	<path d="M13.997,13h4.256c0.037,0.606,0.136,1.29,0.27,2h-3.41c-0.276,0-0.5,0.224-0.5,0.5s0.224,0.5,0.5,0.5h3.62
		c0.609,2.695,1.567,5.433,1.626,5.6c0.072,0.206,0.266,0.334,0.472,0.334c0.056,0,0.111-0.009,0.166-0.028
		c0.261-0.092,0.397-0.378,0.306-0.638c-0.021-0.059-2.066-5.887-2.066-8.768c0-0.276-0.224-0.5-0.5-0.5h-4.739
		c-0.276,0-0.5,0.224-0.5,0.5S13.721,13,13.997,13z"/>
	<path d="M22.997,23h-22c-0.276,0-0.5,0.224-0.5,0.5s0.224,0.5,0.5,0.5h22c0.276,0,0.5-0.224,0.5-0.5S23.273,23,22.997,23z"/>
	<path d="M2.288,8.683c-0.204,0.593-0.179,1.249,0.093,1.851c0.416,0.919,1.3,1.491,2.307,1.491c0.173,0,0.342-0.022,0.507-0.056
		c-0.524,3.604-2.53,9.302-2.552,9.364c-0.092,0.261,0.044,0.546,0.304,0.639C3.002,21.991,3.059,22,3.114,22
		c0.206,0,0.399-0.128,0.471-0.333c0.096-0.272,2.309-6.558,2.678-10.205c0.121-0.097,0.237-0.201,0.338-0.319
		c0.605,0.737,1.537,0.97,2.337,0.841c0.619-0.1,1.236-0.433,1.647-0.984h0.982c0.043,0.575,0.155,1.262,0.307,2H7.537
		c-0.276,0-0.5,0.224-0.5,0.5s0.224,0.5,0.5,0.5h4.558c0.798,3.354,2.195,7.298,2.277,7.529c0.072,0.204,0.265,0.332,0.471,0.332
		c0.056,0,0.112-0.009,0.168-0.029c0.26-0.092,0.396-0.378,0.303-0.639c-0.027-0.077-2.767-7.813-2.767-10.693
		c0-0.276-0.224-0.5-0.5-0.5h-1.024c0.029-0.161,0.046-0.33,0.046-0.509c0-0.276-0.047-0.55-0.136-0.81
		c0.653-0.09,1.204-0.428,1.576-0.985c0.599-0.897,0.6-2.195,0.002-3.087c-0.371-0.553-0.921-0.887-1.575-0.975
		c0.204-0.593,0.179-1.249-0.093-1.85c-0.416-0.919-1.3-1.491-2.307-1.491c-0.757,0-1.454,0.338-1.923,0.894
		c-0.47-0.556-1.166-0.894-1.923-0.894c-1.007,0-1.891,0.571-2.307,1.491C2.109,2.386,2.083,3.043,2.289,3.637
		c-0.651,0.09-1.2,0.426-1.571,0.98C0.117,5.514,0.113,6.812,0.709,7.704C1.079,8.26,1.631,8.595,2.288,8.683z M1.548,5.175
		c0.318-0.475,0.842-0.656,1.52-0.519c0.21,0.041,0.424-0.054,0.532-0.24c0.107-0.186,0.084-0.419-0.058-0.58
		c-0.41-0.466-0.503-1.079-0.25-1.64C3.489,1.76,3.959,1.294,4.688,1.294c0.658,0,1.24,0.425,1.449,1.057
		c0.135,0.409,0.814,0.409,0.949,0c0.209-0.632,0.791-1.057,1.449-1.057c0.729,0,1.199,0.466,1.396,0.902
		c0.253,0.561,0.16,1.174-0.25,1.639C9.539,3.996,9.516,4.23,9.623,4.416c0.108,0.186,0.323,0.28,0.532,0.24
		c0.68-0.138,1.209,0.039,1.525,0.51c0.376,0.561,0.375,1.41-0.003,1.975c-0.318,0.477-0.843,0.656-1.523,0.522
		C9.943,7.62,9.73,7.718,9.623,7.904c-0.107,0.186-0.084,0.419,0.058,0.58c0.177,0.201,0.388,0.539,0.388,1.007
		c0,0.294-0.07,0.535-0.178,0.738c-0.023,0.034-0.044,0.068-0.058,0.107c-0.254,0.392-0.673,0.6-1.053,0.662
		c-0.592,0.098-1.392-0.117-1.694-1.029c-0.135-0.41-0.814-0.409-0.949,0c-0.208,0.632-0.791,1.057-1.449,1.057
		c-0.729,0-1.199-0.466-1.396-0.902c-0.253-0.561-0.16-1.173,0.25-1.639C3.684,8.323,3.707,8.089,3.6,7.904
		c-0.09-0.157-0.257-0.25-0.433-0.25c-0.032,0-0.065,0.003-0.098,0.01C2.382,7.798,1.856,7.622,1.541,7.149
		C1.166,6.588,1.169,5.74,1.548,5.175z"/>
	<path d="M6.611,8.339c1.202,0,2.18-0.978,2.18-2.18s-0.978-2.18-2.18-2.18s-2.18,0.978-2.18,2.18S5.41,8.339,6.611,8.339z
		 M6.611,4.98c0.65,0,1.18,0.529,1.18,1.18s-0.529,1.18-1.18,1.18s-1.18-0.529-1.18-1.18S5.961,4.98,6.611,4.98z"/>
</g>
</svg>
