<?xml version="1.0" encoding="utf-8"?>
<!-- Generator: Adobe Illustrator 19.2.0, SVG Export Plug-In . SVG Version: 6.00 Build 0)  -->
<svg version="1.1" id="Layer_1" xmlns="http://www.w3.org/2000/svg" xmlns:xlink="http://www.w3.org/1999/xlink" x="0px" y="0px"
	 width="24px" height="24px" viewBox="0 0 24 24" style="enable-background:new 0 0 24 24;" xml:space="preserve">
<g>
	<path d="M2.95,21.971C3.005,21.991,3.062,22,3.117,22c0.206,0,0.399-0.128,0.472-0.334C3.695,21.364,6.083,14.558,6.307,11h5.264
		c0.043,0.575,0.155,1.262,0.307,2H7.54c-0.276,0-0.5,0.224-0.5,0.5S7.264,14,7.54,14h4.558c0.798,3.354,2.194,7.298,2.277,7.529
		c0.091,0.259,0.376,0.398,0.639,0.303c0.26-0.092,0.396-0.378,0.303-0.639C15.289,21.116,12.55,13.38,12.55,10.5
		c0-0.276-0.224-0.5-0.5-0.5H5.823c-0.276,0-0.5,0.224-0.5,0.5c0,3.203-2.651,10.758-2.678,10.834
		C2.553,21.594,2.69,21.88,2.95,21.971z"/>
	<path d="M18.74,12h-4.739c-0.276,0-0.5,0.224-0.5,0.5s0.224,0.5,0.5,0.5h4.256c0.037,0.606,0.136,1.29,0.27,2h-3.411
		c-0.276,0-0.5,0.224-0.5,0.5s0.224,0.5,0.5,0.5h3.621c0.608,2.695,1.567,5.433,1.625,5.6c0.072,0.206,0.266,0.334,0.472,0.334
		c0.056,0,0.111-0.009,0.166-0.028c0.261-0.092,0.397-0.378,0.306-0.638c-0.021-0.059-2.065-5.887-2.065-8.768
		C19.24,12.223,19.017,12,18.74,12z"/>
	<path d="M23.001,23H1c-0.276,0-0.5,0.224-0.5,0.5S0.724,24,1,24h22c0.276,0,0.5-0.224,0.5-0.5S23.277,23,23.001,23z"/>
	<path d="M8.804,8.797c0.096,0,0.193-0.027,0.278-0.085c0.229-0.154,0.29-0.465,0.136-0.694C9.216,8.015,9.043,7.737,9.17,7.464
		c0.1-0.213,0.539-0.731,2.465-0.936C13.542,6.324,14.752,5.81,15.232,5c0.373-0.631,0.16-1.187,0.135-1.248
		c-0.103-0.247-0.378-0.36-0.633-0.266c-0.252,0.094-0.381,0.38-0.297,0.635c0.006,0.018,0.055,0.183-0.08,0.393
		c-0.186,0.288-0.8,0.803-2.828,1.02C9.715,5.727,8.647,6.22,8.264,7.041C7.971,7.67,8.204,8.302,8.388,8.576
		C8.485,8.719,8.643,8.797,8.804,8.797z"/>
	<path d="M16.093,10.907c0.086,0,0.172-0.023,0.248-0.075c0.229-0.154,0.29-0.431,0.137-0.66c0.001-0.001,0.134-0.157,0.785-0.226
		c0.896-0.095,1.454-0.348,1.705-0.772c0.172-0.291,0.151-0.592,0.074-0.777c-0.106-0.255-0.401-0.374-0.654-0.269
		c-0.223,0.093-0.343,0.328-0.299,0.556c-0.058,0.052-0.271,0.198-0.932,0.268c-0.859,0.091-1.377,0.35-1.582,0.79
		c-0.165,0.354-0.063,0.717,0.073,0.921C15.751,10.814,15.922,10.907,16.093,10.907z"/>
</g>
</svg>
