<?xml version="1.0" encoding="utf-8"?>
<!-- Generator: Adobe Illustrator 19.2.0, SVG Export Plug-In . SVG Version: 6.00 Build 0)  -->
<svg version="1.1" id="Layer_1" xmlns="http://www.w3.org/2000/svg" xmlns:xlink="http://www.w3.org/1999/xlink" x="0px" y="0px"
	 width="24px" height="24px" viewBox="0 0 24 24" style="enable-background:new 0 0 24 24;" xml:space="preserve">
<g>
	<path d="M23.785,10.986L21.01,8.602V2.5c0-0.276-0.224-0.5-0.5-0.5h-5c-0.276,0-0.5,0.224-0.5,0.5v0.95l-2.674-2.297
		c-0.188-0.161-0.464-0.161-0.651,0l-11.45,9.833C0.024,11.166,0,11.482,0.18,11.691c0.181,0.21,0.497,0.234,0.705,0.054
		l1.125-0.966V23.5c0,0.276,0.224,0.5,0.5,0.5h19c0.276,0,0.5-0.224,0.5-0.5V10.78l1.123,0.965c0.095,0.081,0.211,0.121,0.326,0.121
		c0.141,0,0.28-0.059,0.379-0.174C24.019,11.482,23.994,11.166,23.785,10.986z M16.01,3h4v4.744l-4-3.435V3z M21.01,23h-18V9.92
		l9-7.729l9,7.73V23z"/>
	<path d="M10.114,13.004c-0.033,0.28-0.065,0.553-0.103,0.804c-0.535-0.933-1.296-2.096-1.733-2.246
		c-0.156-0.054-0.393-0.023-0.525,0.076c-0.211,0.158-0.296,0.442-0.206,0.69c0.235,0.646,0.156,1.499,0.073,2.4
		c-0.156,1.676-0.349,3.763,1.828,4.731c0.711,0.397,1.583,0.594,2.459,0.594c1.002,0,2.012-0.257,2.799-0.762
		c1.111-0.714,1.669-1.834,1.572-3.156c0.016-0.547-0.178-1.102-0.384-1.688c-0.361-1.033-0.703-2.009,0.075-2.917
		c0.167-0.194,0.193-0.473,0.064-0.695c-0.128-0.222-0.382-0.34-0.621-0.293c-0.961,0.16-1.607,0.95-2.01,1.684
		c-0.251-1.283-0.251-2.872-0.251-3.508c0-0.217-0.116-0.418-0.305-0.525c-0.188-0.107-0.421-0.105-0.609,0.007
		C10.564,9.205,10.314,11.312,10.114,13.004z M12.906,13.912c0.096,0.183,0.296,0.287,0.499,0.265
		c0.204-0.023,0.374-0.169,0.428-0.368c0.107-0.401,0.345-1.015,0.699-1.506c-0.14,0.879,0.161,1.737,0.42,2.477
		c0.177,0.504,0.343,0.979,0.327,1.344c-0.001,0.021-0.001,0.042,0.001,0.062c0.099,1.218-0.552,1.904-1.114,2.266
		c-1.167,0.749-3.025,0.81-4.27,0.115c-1.458-0.65-1.456-1.849-1.28-3.745c0.038-0.413,0.077-0.832,0.085-1.242
		c0.435,0.686,0.878,1.467,0.948,1.668c0.037,0.132,0.135,0.239,0.256,0.304c0.12,0.062,0.27,0.071,0.401,0.029
		c0.106-0.036,0.197-0.105,0.259-0.199c0.336-0.51,0.432-1.32,0.543-2.259c0.15-1.268,0.316-2.674,1.055-3.557
		C12.211,11.653,12.451,13.046,12.906,13.912z"/>
</g>
</svg>
