<?xml version="1.0" encoding="utf-8"?>
<!-- Generator: Adobe Illustrator 19.2.0, SVG Export Plug-In . SVG Version: 6.00 Build 0)  -->
<svg version="1.1" id="Layer_1" xmlns="http://www.w3.org/2000/svg" xmlns:xlink="http://www.w3.org/1999/xlink" x="0px" y="0px"
	 width="24px" height="24px" viewBox="0 0 24 24" style="enable-background:new 0 0 24 24;" xml:space="preserve">
<g>
	<path d="M12.883,11.021c-0.138-0.017-0.279,0.024-0.385,0.115c-1.74,1.479-2.64,2.964-2.675,4.413
		c-0.029,1.169,0.522,1.95,0.781,2.252c0.1,0.713,0.171,2.402-0.57,2.925c-0.226,0.159-0.28,0.471-0.121,0.696
		c0.098,0.139,0.252,0.212,0.409,0.212c0.1,0,0.2-0.029,0.288-0.092c1.119-0.789,1.112-2.592,1.028-3.511
		c1.45-0.172,2.409-0.718,2.848-1.631c0.954-1.982-1.027-4.852-1.256-5.172C13.147,11.113,13.021,11.038,12.883,11.021z
		 M13.585,15.966c-0.252,0.523-0.849,0.855-1.742,1.014c0.466-1.186,1.006-2.448,1.013-2.464c0.109-0.254-0.008-0.548-0.262-0.656
		c-0.254-0.112-0.547,0.008-0.657,0.262c-0.006,0.015-0.509,1.188-0.967,2.346c-0.092-0.25-0.159-0.555-0.148-0.916
		c0.034-1.018,0.688-2.144,1.899-3.277C13.352,13.303,14.074,14.947,13.585,15.966z"/>
	<path d="M5.468,15.052c-1.35,0-2.448,1.099-2.448,2.448s1.098,2.448,2.448,2.448c1.35,0,2.448-1.099,2.448-2.448
		S6.818,15.052,5.468,15.052z M5.468,18.948c-0.798,0-1.448-0.649-1.448-1.448s0.649-1.448,1.448-1.448s1.448,0.649,1.448,1.448
		S6.266,18.948,5.468,18.948z"/>
	<path d="M18.456,15.052c-1.35,0-2.448,1.099-2.448,2.448s1.099,2.448,2.448,2.448s2.447-1.099,2.447-2.448
		S19.806,15.052,18.456,15.052z M18.456,18.948c-0.799,0-1.448-0.649-1.448-1.448s0.649-1.448,1.448-1.448
		c0.798,0,1.447,0.649,1.447,1.448S19.254,18.948,18.456,18.948z"/>
	<path d="M22.165,13.247c-1.409-1.298-3.307-1.385-4.308-1.316c-0.298-1.151-1.659-4.895-6.703-4.895c-0.017,0-0.035,0-0.052,0
		l-0.25,0c-0.363,0-0.979,0-1.066,0.003c-6.02,0.177-6.801,3.894-6.935,5.027c-2.803,0.788-2.73,5.256-2.726,5.445
		C0.131,17.783,0.353,18,0.625,18h0.699c0.276,0,0.5-0.224,0.5-0.5S1.6,17,1.324,17H1.141c0.065-1.062,0.389-3.523,1.98-3.971
		c0.428-0.121,0.728-0.464,0.763-0.876c0.101-1.187,0.88-3.965,5.93-4.113c0.085-0.003,0.685-0.003,1.038-0.003l0.254,0
		c0.016,0,0.031,0,0.047,0c4.208,0,5.413,2.896,5.735,4.145c0.12,0.463,0.562,0.78,1.029,0.746c0.684-0.045,2.393-0.029,3.569,1.056
		c0.743,0.685,1.171,1.698,1.275,3.018h-0.342c-0.276,0-0.5,0.224-0.5,0.5s0.224,0.5,0.5,0.5h0.866c0.134,0,0.263-0.054,0.356-0.149
		s0.146-0.225,0.144-0.359C23.756,15.637,23.21,14.21,22.165,13.247z"/>
</g>
</svg>
