<?xml version="1.0" encoding="utf-8"?>
<!-- Generator: Adobe Illustrator 19.2.0, SVG Export Plug-In . SVG Version: 6.00 Build 0)  -->
<svg version="1.1" id="Layer_1" xmlns="http://www.w3.org/2000/svg" xmlns:xlink="http://www.w3.org/1999/xlink" x="0px" y="0px"
	 width="24px" height="24px" viewBox="0 0 24 24" style="enable-background:new 0 0 24 24;" xml:space="preserve">
<g>
	<path d="M23.782,10.986l-2.775-2.384V2.5c0-0.276-0.224-0.5-0.5-0.5h-5c-0.276,0-0.5,0.224-0.5,0.5v0.95l-2.674-2.297
		c-0.188-0.161-0.464-0.161-0.651,0l-11.45,9.833c-0.209,0.18-0.233,0.496-0.054,0.705c0.181,0.21,0.497,0.234,0.705,0.054
		l1.125-0.966V23.5c0,0.276,0.224,0.5,0.5,0.5h19c0.276,0,0.5-0.224,0.5-0.5V10.78l1.123,0.965c0.095,0.081,0.211,0.121,0.326,0.121
		c0.141,0,0.28-0.059,0.379-0.174C24.016,11.482,23.991,11.166,23.782,10.986z M16.007,3h4v4.744l-4-3.435V3z M21.007,23h-18V9.92
		l9-7.729l9,7.73V23z"/>
	<path d="M11.499,9.457v1.004l-0.745-0.746c-0.195-0.195-0.512-0.195-0.707,0c-0.195,0.195-0.195,0.512,0,0.707l1.452,1.453v1.749
		l-1.514-0.874l-0.531-1.985c-0.071-0.267-0.345-0.425-0.612-0.354c-0.267,0.071-0.425,0.346-0.354,0.612l0.273,1.019L7.891,11.54
		c-0.239-0.138-0.545-0.057-0.683,0.183c-0.138,0.239-0.056,0.545,0.183,0.683l0.869,0.502l-1.018,0.273
		c-0.267,0.071-0.425,0.345-0.354,0.613c0.06,0.223,0.262,0.37,0.482,0.37c0.043,0,0.086-0.006,0.13-0.017l1.984-0.532l1.515,0.875
		l-1.513,0.874L7.5,14.831c-0.266-0.063-0.541,0.088-0.612,0.354c-0.072,0.268,0.087,0.541,0.354,0.613l1.02,0.273l-0.87,0.502
		c-0.239,0.138-0.321,0.443-0.183,0.683c0.093,0.16,0.261,0.25,0.434,0.25c0.085,0,0.171-0.021,0.25-0.067l0.869-0.502l-0.273,1.018
		c-0.072,0.267,0.086,0.541,0.354,0.613c0.043,0.011,0.087,0.017,0.13,0.017c0.221,0,0.422-0.147,0.482-0.37l0.532-1.985
		l1.513-0.874v1.769l-1.453,1.453c-0.195,0.195-0.195,0.512,0,0.707s0.512,0.195,0.707,0l0.746-0.746v0.982
		c0,0.276,0.224,0.5,0.5,0.5s0.5-0.224,0.5-0.5v-0.983l0.747,0.746c0.098,0.098,0.226,0.146,0.354,0.146s0.256-0.049,0.354-0.146
		c0.195-0.195,0.195-0.512,0-0.707l-1.454-1.453v-1.77l1.533,0.885l0.531,1.984c0.061,0.224,0.263,0.371,0.483,0.371
		c0.043,0,0.086-0.006,0.129-0.017c0.268-0.072,0.426-0.346,0.354-0.612l-0.273-1.019l0.85,0.491
		c0.079,0.046,0.165,0.067,0.25,0.067c0.172,0,0.341-0.09,0.433-0.25c0.139-0.239,0.057-0.545-0.183-0.683l-0.851-0.491l1.02-0.273
		c0.267-0.072,0.425-0.347,0.354-0.613c-0.072-0.266-0.344-0.419-0.613-0.354l-1.985,0.533l-1.532-0.885l1.533-0.885l1.984,0.532
		c0.044,0.011,0.087,0.017,0.13,0.017c0.221,0,0.423-0.147,0.483-0.37c0.071-0.268-0.087-0.542-0.354-0.613l-1.019-0.273
		l0.851-0.491c0.239-0.138,0.321-0.444,0.183-0.683c-0.138-0.24-0.444-0.321-0.683-0.183l-0.851,0.492l0.273-1.019
		c0.071-0.267-0.087-0.541-0.354-0.612c-0.262-0.069-0.54,0.087-0.612,0.354l-0.532,1.986l-1.532,0.885v-1.749l1.454-1.453
		c0.195-0.195,0.195-0.512,0-0.707s-0.512-0.195-0.707,0l-0.747,0.746V9.457c0-0.276-0.224-0.5-0.5-0.5S11.499,9.18,11.499,9.457z"
		/>
</g>
</svg>
