<?xml version="1.0" encoding="utf-8"?>
<!-- Generator: Adobe Illustrator 19.2.0, SVG Export Plug-In . SVG Version: 6.00 Build 0)  -->
<svg version="1.1" id="Layer_1" xmlns="http://www.w3.org/2000/svg" xmlns:xlink="http://www.w3.org/1999/xlink" x="0px" y="0px"
	 width="24px" height="24px" viewBox="0 0 24 24" style="enable-background:new 0 0 24 24;" xml:space="preserve">
<g>
	<path d="M5,11v-1c0.276,0,0.5-0.224,0.5-0.5S5.277,9,5,9H4.5C4.224,9,4,9.223,4,9.5v1H3.5C3.224,10.5,3,10.723,3,11v1
		c0,0.276,0.224,0.5,0.5,0.5H4v1C4,13.776,4.224,14,4.5,14H5c0.276,0,0.5-0.224,0.5-0.5S5.277,13,5,13v-1c0-0.276-0.224-0.5-0.5-0.5
		C4.777,11.5,5,11.276,5,11z"/>
	<path d="M19.501,10.5h-0.5v-1c0-0.276-0.224-0.5-0.5-0.5h-0.5c-0.276,0-0.5,0.224-0.5,0.5s0.224,0.5,0.5,0.5v1
		c0,0.276,0.224,0.5,0.5,0.5c-0.276,0-0.5,0.224-0.5,0.5v1c-0.276,0-0.5,0.224-0.5,0.5s0.224,0.5,0.5,0.5h0.5
		c0.276,0,0.5-0.224,0.5-0.5v-1h0.5c0.276,0,0.5-0.224,0.5-0.5v-1C20.001,10.723,19.777,10.5,19.501,10.5z"/>
	<path d="M15.024,21l-0.023-7h1.5c0.276,0,0.5-0.224,0.5-0.5v-4c0-0.276-0.224-0.5-0.5-0.5h-1.5V8h0.5c0.276,0,0.5-0.224,0.5-0.5v-2
		c0-0.276-0.224-0.5-0.5-0.5h-0.5V4.68c0-1.693-0.853-3.271-2-3.808V0.5c0-0.276-0.224-0.5-0.5-0.5h-2C10.224,0,10,0.223,10,0.5
		v0.373C8.853,1.409,8,2.987,8,4.68V5H7.5C7.224,5,7,5.223,7,5.5v2C7,7.776,7.224,8,7.5,8H8v1H6.5C6.224,9,6,9.223,6,9.5v4
		C6,13.776,6.224,14,6.5,14H8v7H7.997c-1.283,0-2.408,1.168-2.408,2.5c0,0.276,0.224,0.5,0.5,0.5h10.843c0.276,0,0.5-0.224,0.5-0.5
		C17.433,22.168,16.308,21,15.024,21z M10.623,1.707C10.845,1.651,11,1.451,11,1.222V1h1v0.222c0,0.229,0.156,0.429,0.377,0.485
		c0.768,0.194,1.623,1.462,1.623,2.973V5H9V4.68C9,3.169,9.855,1.901,10.623,1.707z M8,6h0.5h6h0.5v1h-0.5h-6H8V6z M6.687,23
		c0.204-0.53,0.705-1,1.31-1H8.5C8.777,22,9,21.776,9,21.5v-8C9,13.223,8.777,13,8.5,13H7v-3h1.5C8.777,10,9,9.776,9,9.5V8h5v1.5
		c0,0.276,0.224,0.5,0.5,0.5h1.5v3h-1.5c-0.276,0-0.5,0.224-0.5,0.5v8c0,0.276,0.224,0.5,0.5,0.5h0.523c0.605,0,1.106,0.47,1.311,1
		H6.687z"/>
</g>
</svg>
