<?xml version="1.0" encoding="utf-8"?>
<!-- Generator: Adobe Illustrator 19.2.0, SVG Export Plug-In . SVG Version: 6.00 Build 0)  -->
<svg version="1.1" id="Layer_1" xmlns="http://www.w3.org/2000/svg" xmlns:xlink="http://www.w3.org/1999/xlink" x="0px" y="0px"
	 width="24px" height="24px" viewBox="0 0 24 24" style="enable-background:new 0 0 24 24;" xml:space="preserve">
<g>
	<path d="M12.506,10V9.153c0-0.276-0.224-0.5-0.5-0.5s-0.5,0.224-0.5,0.5V10h-0.88c-0.276,0-0.5,0.224-0.5,0.5s0.224,0.5,0.5,0.5
		h0.88v0.847c0,0.276,0.224,0.5,0.5,0.5s0.5-0.224,0.5-0.5V11h0.88c0.276,0,0.5-0.224,0.5-0.5s-0.224-0.5-0.5-0.5H12.506z"/>
	<path d="M13.386,14.988h-2.76c-0.276,0-0.5,0.224-0.5,0.5s0.224,0.5,0.5,0.5h2.76c0.276,0,0.5-0.224,0.5-0.5
		S13.662,14.988,13.386,14.988z"/>
	<path d="M23.322,5.136c-0.257-0.099-0.548,0.027-0.646,0.285l-0.891,2.295c-1.689-3.87-5.564-6.478-9.858-6.478
		c-4.75,0-8.997,3.186-10.328,7.748c-0.077,0.265,0.075,0.543,0.34,0.62c0.047,0.014,0.094,0.02,0.14,0.02
		c0.217,0,0.417-0.142,0.48-0.36c1.207-4.138,5.059-7.028,9.368-7.028c3.95,0,7.51,2.432,9.005,6.024l-2.501-0.971
		c-0.256-0.099-0.547,0.027-0.646,0.285c-0.101,0.258,0.027,0.547,0.285,0.647l3.523,1.368c0.021,0.008,0.042,0.007,0.063,0.012
		c0.029,0.007,0.056,0.014,0.086,0.016c0.01,0.001,0.021,0.006,0.031,0.006c0.014,0,0.024-0.01,0.038-0.012
		c0.034-0.003,0.067,0.001,0.102-0.008c0.039-0.011,0.07-0.035,0.104-0.054c0.016-0.009,0.032-0.014,0.047-0.025
		c0.073-0.053,0.126-0.122,0.162-0.203c0.003-0.007,0.011-0.01,0.014-0.017l1.368-3.523C23.708,5.526,23.58,5.236,23.322,5.136z"/>
	<path d="M21.993,14.397c-0.264-0.072-0.542,0.075-0.62,0.341c-1.207,4.138-5.059,7.027-9.367,7.027c-3.95,0-7.51-2.432-9.006-6.024
		L5.5,16.712c0.255,0.101,0.546-0.027,0.647-0.285c0.1-0.257-0.028-0.547-0.285-0.646l-3.523-1.368
		c-0.023-0.009-0.046-0.007-0.07-0.012c-0.028-0.007-0.054-0.013-0.083-0.015c-0.039-0.002-0.075,0.002-0.112,0.008
		c-0.019,0.003-0.037-0.001-0.056,0.004C2.007,14.4,2,14.408,1.99,14.412c-0.033,0.012-0.061,0.029-0.091,0.048
		c-0.027,0.017-0.053,0.032-0.076,0.053c-0.022,0.021-0.039,0.045-0.058,0.07c-0.021,0.028-0.041,0.055-0.056,0.087
		c-0.005,0.01-0.013,0.017-0.018,0.027L0.324,18.22c-0.1,0.257,0.028,0.547,0.285,0.646c0.06,0.023,0.121,0.034,0.181,0.034
		c0.2,0,0.389-0.121,0.466-0.319l0.891-2.295c1.689,3.871,5.564,6.479,9.858,6.479c4.75,0,8.997-3.186,10.328-7.748
		C22.411,14.753,22.259,14.475,21.993,14.397z"/>
	<path d="M13.501,5h-3C10.224,5,10,5.223,10,5.5V6H8.5C8.224,6,8,6.223,8,6.5v12C8,18.776,8.224,19,8.5,19h7
		c0.276,0,0.5-0.224,0.5-0.5v-12c0-0.276-0.224-0.5-0.5-0.5h-1.5V5.5C14.001,5.223,13.777,5,13.501,5z M15.001,7v11H9V7h1.5
		C10.777,7,11,6.776,11,6.5V6h2v0.5c0,0.276,0.224,0.5,0.5,0.5H15.001z"/>
</g>
</svg>
