<?xml version="1.0" encoding="utf-8"?>
<!-- Generator: Adobe Illustrator 19.2.0, SVG Export Plug-In . SVG Version: 6.00 Build 0)  -->
<svg version="1.1" id="Layer_1" xmlns="http://www.w3.org/2000/svg" xmlns:xlink="http://www.w3.org/1999/xlink" x="0px" y="0px"
	 width="24px" height="24px" viewBox="0 0 24 24" style="enable-background:new 0 0 24 24;" xml:space="preserve">
<path d="M22.001,8h-7.354l-0.13-4h6.483v0.5c0,0.276,0.224,0.5,0.5,0.5s0.5-0.224,0.5-0.5V4c0.276,0,0.5-0.224,0.5-0.5
	S22.277,3,22.001,3h-7.74l-1.902-2.699c-0.095-0.135-0.267-0.229-0.415-0.212c-0.165,0.002-0.318,0.085-0.41,0.222L9.733,3H2
	C1.724,3,1.5,3.223,1.5,3.5S1.724,4,2,4v0.5C2,4.776,2.224,5,2.5,5S3,4.776,3,4.5V4h6.478l-0.17,4H2C1.724,8,1.5,8.223,1.5,8.5
	S1.724,9,2,9v0.5C2,9.776,2.224,10,2.5,10S3,9.776,3,9.5V9h6.266L9.075,13.51L4.897,23H2.5C2.224,23,2,23.223,2,23.5
	S2.224,24,2.5,24h2.758c0.199,0,0.368-0.119,0.449-0.287c1.142-0.861,2.374-1.566,3.669-2.089c1.663-0.672,3.497-0.67,5.162,0
	c1.297,0.523,2.529,1.229,3.669,2.089C18.288,23.881,18.457,24,18.656,24h2.758c0.276,0,0.5-0.224,0.5-0.5s-0.224-0.5-0.5-0.5
	h-2.412l-4.176-9.487L14.68,9h6.321v0.5c0,0.276,0.224,0.5,0.5,0.5s0.5-0.224,0.5-0.5V9c0.276,0,0.5-0.224,0.5-0.5
	S22.277,8,22.001,8z M11.336,5.885l-0.986,1.17l0.095-2.24L11.336,5.885z M13.543,4.818l0.073,2.243L12.64,5.889L13.543,4.818z
	 M13.669,8.687l0.005,0.161l-1.702,1.688l-1.697-1.711l0.006-0.135l1.705-2.023L13.669,8.687z M10.217,10.186l1.045,1.053
	l-1.138,1.128L10.217,10.186z M9.721,14.524l1.547,1.671l-4.351,4.698L9.721,14.524z M10.263,13.638l1.703-1.689l1.672,1.686
	l-1.689,1.824L10.263,13.638z M14.178,14.525l2.803,6.367l-4.35-4.697L14.178,14.525z M12.676,11.245l1.042-1.033l0.07,2.153
	L12.676,11.245z M11.96,1.471l1.41,2.001l-1.379,1.636l-1.367-1.642L11.96,1.471z M9.002,20.696
	c-0.31,0.125-0.615,0.264-0.918,0.408l3.866-4.174l3.854,4.161c-0.294-0.139-0.59-0.275-0.891-0.396
	C13.008,19.928,10.907,19.928,9.002,20.696z"/>
</svg>
