<?xml version="1.0" encoding="utf-8"?>
<!-- Generator: Adobe Illustrator 19.2.0, SVG Export Plug-In . SVG Version: 6.00 Build 0)  -->
<svg version="1.1" id="Layer_1" xmlns="http://www.w3.org/2000/svg" xmlns:xlink="http://www.w3.org/1999/xlink" x="0px" y="0px"
	 width="24px" height="24px" viewBox="0 0 24 24" style="enable-background:new 0 0 24 24;" xml:space="preserve">
<g>
	<path d="M13.944,16.103l-2.237,0.781l2.194-4.458c0.122-0.248,0.021-0.547-0.228-0.669c-0.247-0.121-0.547-0.019-0.669,0.228
		l-2.734,5.553c-0.089,0.182-0.06,0.4,0.074,0.552c0.134,0.152,0.347,0.21,0.54,0.141l2.196-0.767l-1.727,3.3l-0.231-0.825
		c-0.074-0.266-0.352-0.419-0.616-0.347c-0.266,0.074-0.421,0.351-0.347,0.616l0.571,2.038c0.001,0.002,0.003,0.004,0.003,0.006
		c0.019,0.066,0.051,0.127,0.096,0.18c0.007,0.008,0.017,0.012,0.024,0.02c0.037,0.039,0.076,0.076,0.126,0.102
		c0.004,0.002,0.008,0.001,0.012,0.003c0.003,0.002,0.005,0.005,0.009,0.007c0.065,0.03,0.135,0.045,0.206,0.046
		c0.002,0,0.003,0.001,0.005,0.001c0,0,0,0,0,0c0,0,0,0,0,0c0.07,0,0.141-0.015,0.207-0.045l2.231-1.012
		c0.252-0.113,0.363-0.41,0.249-0.661c-0.112-0.252-0.413-0.361-0.661-0.249l-0.909,0.412l2.225-4.251
		c0.095-0.182,0.069-0.403-0.064-0.559C14.353,16.094,14.136,16.035,13.944,16.103z"/>
	<path d="M5.471,15.052c-1.35,0-2.448,1.099-2.448,2.448s1.098,2.448,2.448,2.448c1.35,0,2.448-1.099,2.448-2.448
		S6.821,15.052,5.471,15.052z M5.471,18.948c-0.798,0-1.448-0.649-1.448-1.448s0.649-1.448,1.448-1.448s1.448,0.649,1.448,1.448
		S6.269,18.948,5.471,18.948z"/>
	<path d="M18.459,15.052c-1.35,0-2.448,1.099-2.448,2.448s1.099,2.448,2.448,2.448s2.448-1.099,2.448-2.448
		S19.809,15.052,18.459,15.052z M18.459,18.948c-0.799,0-1.448-0.649-1.448-1.448s0.649-1.448,1.448-1.448s1.448,0.649,1.448,1.448
		S19.258,18.948,18.459,18.948z"/>
	<path d="M22.168,13.247c-1.409-1.298-3.307-1.385-4.308-1.316c-0.298-1.151-1.659-4.895-6.703-4.895c-0.017,0-0.035,0-0.052,0
		l-0.25,0c-0.363,0-0.979,0-1.066,0.003c-6.02,0.177-6.802,3.894-6.935,5.027c-2.803,0.788-2.73,5.256-2.726,5.445
		C0.134,17.783,0.356,18,0.627,18h0.699c0.276,0,0.5-0.224,0.5-0.5S1.603,17,1.327,17H1.144c0.065-1.062,0.389-3.523,1.98-3.971
		c0.429-0.121,0.729-0.465,0.763-0.876c0.101-1.187,0.88-3.965,5.931-4.113c0.084-0.003,0.684-0.003,1.038-0.003l0.254,0
		c0.016,0,0.031,0,0.047,0c4.208,0,5.413,2.896,5.735,4.145c0.12,0.463,0.559,0.78,1.029,0.746c0.685-0.045,2.393-0.029,3.569,1.056
		c0.743,0.685,1.171,1.698,1.275,3.018h-0.342c-0.276,0-0.5,0.224-0.5,0.5s0.224,0.5,0.5,0.5h0.866c0.134,0,0.263-0.054,0.356-0.149
		s0.146-0.225,0.144-0.359C23.759,15.637,23.213,14.21,22.168,13.247z"/>
</g>
</svg>
