<?xml version="1.0" encoding="utf-8"?>
<!-- Generator: Adobe Illustrator 19.2.0, SVG Export Plug-In . SVG Version: 6.00 Build 0)  -->
<svg version="1.1" id="Layer_1" xmlns="http://www.w3.org/2000/svg" xmlns:xlink="http://www.w3.org/1999/xlink" x="0px" y="0px"
	 width="24px" height="24px" viewBox="0 0 24 24" style="enable-background:new 0 0 24 24;" xml:space="preserve">
<g>
	<path d="M23.786,11.276c-0.225-1.31-1.204-2.635-2.908-2.854c-0.169-1.932-1.435-3.507-3.327-4.083
		c-1.838-0.561-3.712-0.031-4.936,1.354c-1.058-1.226-2.605-1.871-4.259-1.736C6.558,4.097,5.025,5.123,4.21,6.718
		C2.907,7.043,1.79,7.832,1.044,8.96c-0.79,1.194-1.067,2.624-0.78,4.026c0.538,2.639,2.89,4.426,5.554,4.278
		c1.48,1.734,3.902,2.208,5.912,1.186c1.134,1.793,2.881,2.521,4.56,2.521c0.637,0,1.264-0.104,1.844-0.296
		c2.126-0.699,4.069-2.722,3.793-5.709C23.514,14.203,24.014,12.602,23.786,11.276z M21.215,14.18
		c-0.225,0.081-0.36,0.311-0.324,0.547c0.401,2.622-1.252,4.399-3.069,4.998c-1.831,0.6-4.231,0.159-5.465-2.189
		c-0.065-0.124-0.18-0.216-0.316-0.251c-0.042-0.011-0.084-0.017-0.126-0.017c-0.096,0-0.19,0.027-0.272,0.08
		c-1.719,1.116-3.957,0.724-5.204-0.908c-0.106-0.139-0.272-0.212-0.452-0.193c-2.253,0.256-4.29-1.241-4.742-3.461
		c-0.232-1.141-0.007-2.304,0.635-3.275s1.624-1.634,2.798-1.874c0.148-0.037,0.271-0.139,0.334-0.278
		C5.64,5.971,6.92,5.072,8.435,4.952c1.517-0.125,2.922,0.568,3.76,1.838c0.093,0.14,0.249,0.225,0.417,0.225h0
		c0.167,0,0.324-0.084,0.417-0.224c1.135-1.708,2.984-1.876,4.23-1.497c1.281,0.39,2.648,1.539,2.638,3.592
		c-0.001,0.276,0.221,0.5,0.497,0.502c1.518,0.01,2.244,1.113,2.405,2.055C22.962,12.385,22.644,13.666,21.215,14.18z"/>
	<path d="M8.926,13.072c-0.342,0.356-0.798,0.552-1.283,0.552c-0.997,0-1.808-0.837-1.808-1.866c0-1.028,0.811-1.865,1.808-1.865
		c0.465,0,0.907,0.183,1.245,0.514c0.196,0.192,0.512,0.19,0.707-0.007c0.193-0.197,0.19-0.514-0.007-0.707
		c-0.526-0.516-1.217-0.8-1.945-0.8c-1.548,0-2.808,1.285-2.808,2.865c0,1.581,1.259,2.866,2.808,2.866
		c0.76,0,1.472-0.306,2.004-0.859c0.191-0.199,0.185-0.516-0.014-0.707C9.434,12.865,9.117,12.872,8.926,13.072z"/>
	<path d="M12.892,8.893c-1.498,0-2.716,1.287-2.716,2.869c0,1.583,1.218,2.87,2.716,2.87s2.715-1.287,2.715-2.87
		C15.607,10.18,14.39,8.893,12.892,8.893z M12.892,13.632c-0.946,0-1.716-0.839-1.716-1.87s0.77-1.869,1.716-1.869
		c0.946,0,1.715,0.838,1.715,1.869S13.838,13.632,12.892,13.632z"/>
	<path d="M18.308,15.132h-0.66l0.479-0.454c0.527-0.491,0.729-1.083,0.555-1.625c-0.153-0.472-0.582-0.818-1.093-0.882
		c-0.592-0.074-1.163,0.231-1.53,0.815c-0.146,0.234-0.076,0.542,0.158,0.69c0.231,0.146,0.541,0.078,0.689-0.158
		c0.155-0.249,0.349-0.38,0.559-0.354c0.127,0.016,0.231,0.094,0.265,0.197c0.05,0.154-0.056,0.373-0.287,0.588l-1.394,1.32
		c-0.148,0.141-0.196,0.358-0.121,0.549c0.076,0.189,0.26,0.314,0.465,0.314h1.915c0.276,0,0.5-0.224,0.5-0.5
		S18.584,15.132,18.308,15.132z"/>
</g>
</svg>
