<?xml version="1.0" encoding="utf-8"?>
<!-- Generator: Adobe Illustrator 19.2.0, SVG Export Plug-In . SVG Version: 6.00 Build 0)  -->
<svg version="1.1" id="Layer_1" xmlns="http://www.w3.org/2000/svg" xmlns:xlink="http://www.w3.org/1999/xlink" x="0px" y="0px"
	 width="24px" height="24px" viewBox="0 0 24 24" style="enable-background:new 0 0 24 24;" xml:space="preserve">
<g>
	<path d="M17.978,0.614c-0.05-0.229-0.252-0.393-0.486-0.394c-0.001,0-0.001,0-0.002,0c-0.233,0-0.437,0.162-0.487,0.39
		l-2.293,10.177c-0.53-0.605-1.191-1.079-1.95-1.352c-0.52-2.619-2.621-4.488-5.102-4.488c-1.554,0-3.016,0.747-4.011,2.048
		c-1.055,1.38-1.45,3.204-1.084,4.942c-1.802,1.355-1.833,3.698-0.9,5.306c0.85,1.464,2.594,2.464,4.583,1.396
		c0.243-0.131,0.334-0.434,0.204-0.677c-0.13-0.242-0.431-0.333-0.677-0.204c-1.491,0.803-2.681-0.047-3.244-1.018
		c-0.748-1.287-0.698-3.184,0.867-4.163c0.187-0.117,0.275-0.342,0.217-0.555c-0.418-1.542-0.108-3.194,0.83-4.421
		c0.804-1.052,1.977-1.655,3.216-1.655c2.078,0,3.83,1.659,4.167,3.944c0.029,0.195,0.169,0.355,0.359,0.409
		c1.679,0.472,2.852,2.148,2.852,4.077c0,1.658-0.843,3.121-2.199,3.819c-1.19,0.612-2.502,0.516-3.6-0.271
		c-0.225-0.159-0.537-0.106-0.697,0.116c-0.161,0.225-0.108,0.537,0.116,0.698c0.789,0.563,1.688,0.85,2.595,0.85
		c0.569,0,1.139-0.119,1.688-0.346l-0.25,1.15c-0.032,0.148,0.004,0.303,0.1,0.42C12.881,20.931,13.024,21,13.176,21h3.813v2.449
		c0,0.276,0.224,0.5,0.5,0.5s0.5-0.224,0.5-0.5V21h3.812c0.151,0,0.295-0.068,0.39-0.187c0.095-0.117,0.131-0.272,0.099-0.42
		L17.978,0.614z M17.989,20v-2.518c0-0.276-0.224-0.5-0.5-0.5s-0.5,0.224-0.5,0.5V20h-3.193l0.319-1.465
		c1.198-0.97,1.92-2.482,1.92-4.158c0-0.873-0.203-1.703-0.56-2.436l2.008-8.909L21.181,20H17.989z"/>
	<path d="M9.686,14.032c0.47-0.289,1.009-0.322,1.649-0.103c0.261,0.089,0.545-0.049,0.635-0.311c0.09-0.261-0.049-0.545-0.31-0.635
		c-0.927-0.318-1.767-0.252-2.497,0.195c-0.494,0.303-0.876,0.754-1.174,1.243v-3.904c0-0.276-0.224-0.5-0.5-0.5s-0.5,0.224-0.5,0.5
		v3.605c-0.367-0.408-0.817-0.762-1.331-0.852c-0.368-0.065-0.92-0.023-1.475,0.544C3.99,14.013,3.993,14.33,4.19,14.523
		c0.198,0.193,0.514,0.191,0.707-0.008c0.27-0.276,0.464-0.282,0.587-0.259c0.564,0.098,1.202,1.055,1.504,1.641v7.551
		c0,0.276,0.224,0.5,0.5,0.5s0.5-0.224,0.5-0.5V17.38c0.014-0.036,0.031-0.071,0.037-0.111C8.121,16.594,8.603,14.695,9.686,14.032z
		"/>
</g>
</svg>
