<?xml version="1.0" encoding="utf-8"?>
<!-- Generator: Adobe Illustrator 19.2.0, SVG Export Plug-In . SVG Version: 6.00 Build 0)  -->
<svg version="1.1" id="Layer_1" xmlns="http://www.w3.org/2000/svg" xmlns:xlink="http://www.w3.org/1999/xlink" x="0px" y="0px"
	 width="24px" height="24px" viewBox="0 0 24 24" style="enable-background:new 0 0 24 24;" xml:space="preserve">
<g>
	<path d="M23.798,7.406c-0.007-0.139-0.07-0.27-0.177-0.36s-0.242-0.13-0.384-0.115c-1.076,0.132-2.765,2.71-3.586,4.069h-0.651
		V9.483c0-0.276-0.224-0.5-0.5-0.5s-0.5,0.224-0.5,0.5V11h-2V7.946c0-0.276-0.224-0.5-0.5-0.5s-0.5,0.224-0.5,0.5V11h-2V6.839
		c0-0.276-0.224-0.5-0.5-0.5s-0.5,0.224-0.5,0.5V11h-2V6.344c0-0.276-0.224-0.5-0.5-0.5S9,6.068,9,6.344V11H7V6.702
		c0-0.329-0.373-0.577-0.685-0.476C3.449,7.152,1.461,9.302,0.531,10.5c-0.457,0.589-0.457,1.443,0,2.032
		c0.93,1.198,2.917,3.348,5.784,4.274c0.05,0.017,0.133,0.024,0.185,0.024c0.276,0,0.5-0.224,0.5-0.5V12h2v4.688
		c0,0.276,0.224,0.5,0.5,0.5s0.5-0.224,0.5-0.5V12h2v4.193c0,0.276,0.224,0.5,0.5,0.5s0.5-0.224,0.5-0.5V12h2v3.087
		c0,0.276,0.224,0.5,0.5,0.5s0.5-0.224,0.5-0.5V12h2v1.55c0,0.276,0.224,0.5,0.5,0.5s0.5-0.224,0.5-0.5V12h0.631
		c0.813,1.35,2.521,3.969,3.605,4.102c0.021,0.003,0.04,0.004,0.061,0.004c0.118,0,0.232-0.042,0.323-0.118
		c0.106-0.091,0.17-0.222,0.177-0.36c0.004-0.11,0.096-2.558-0.852-4.111C23.894,9.964,23.802,7.516,23.798,7.406z M6,15.627
		c-2.281-0.934-3.89-2.69-4.679-3.708c-0.178-0.229-0.178-0.576,0-0.805C2.11,10.096,3.72,8.339,6,7.406V15.627z M21.945,11.822
		c0.579,0.748,0.77,1.98,0.829,2.83c-0.598-0.63-1.475-1.83-2.266-3.136c0.792-1.308,1.67-2.509,2.268-3.138
		c-0.067,0.905-0.279,2.12-0.831,2.832C21.806,11.39,21.806,11.642,21.945,11.822z"/>
	<path d="M5.167,9.924c-0.195-0.195-0.512-0.195-0.707,0l-0.227,0.227L4.006,9.924c-0.195-0.195-0.512-0.195-0.707,0
		s-0.195,0.512,0,0.707l0.227,0.227l-0.227,0.227c-0.195,0.195-0.195,0.512,0,0.707c0.098,0.098,0.226,0.146,0.354,0.146
		s0.256-0.049,0.354-0.146l0.227-0.227l0.227,0.227c0.098,0.098,0.226,0.146,0.354,0.146s0.256-0.049,0.354-0.146
		c0.195-0.195,0.195-0.512,0-0.707L4.94,10.858l0.227-0.227C5.363,10.436,5.363,10.119,5.167,9.924z"/>
</g>
</svg>
