<svg xmlns="http://www.w3.org/2000/svg" width="24" height="24" viewBox="0 0 24 24"><path d="M9.714 5.035c.093.16.26.25.434.25.085 0 .17-.02.25-.067l.666-.385v.77c0 .275.224.5.5.5s.5-.225.5-.5v-.77l.666.385c.08.045.165.067.25.067.173 0 .34-.09.434-.25.138-.24.056-.545-.183-.683l-.665-.385.666-.385c.24-.138.32-.444.184-.683-.14-.24-.445-.322-.683-.184l-.665.385v-.768c0-.276-.224-.5-.5-.5s-.5.224-.5.5v.77l-.666-.386c-.243-.138-.548-.055-.686.184-.138.24-.056.545.183.683l.666.385-.666.384c-.24.138-.32.444-.183.683zM18.412 2.9c-.138-.24-.444-.32-.683-.183l-.667.385v-.77c0-.276-.224-.5-.5-.5s-.5.224-.5.5v.77l-.666-.386c-.238-.136-.546-.056-.683.183-.14.238-.057.544.183.682l.666.385-.666.385c-.24.138-.32.444-.183.683.092.16.26.25.433.25.085 0 .17-.02.25-.067l.666-.385v.77c0 .275.224.5.5.5s.5-.225.5-.5v-.77l.666.385c.078.045.164.067.25.067.17 0 .34-.09.432-.25.14-.24.057-.545-.183-.683l-.667-.385.666-.385c.24-.137.32-.443.182-.682zM23.23 4.352l-.667-.385.666-.385c.238-.138.32-.444.182-.683-.138-.24-.445-.32-.683-.184l-.667.385v-.768c0-.276-.224-.5-.5-.5s-.5.224-.5.5v.77l-.666-.386c-.237-.135-.544-.055-.682.184-.14.24-.057.545.183.683l.666.385-.666.385c-.24.138-.32.444-.183.683.092.16.26.25.433.25.085 0 .17-.02.25-.067l.666-.386v.77c0 .275.224.5.5.5s.5-.225.5-.5v-.77l.666.384c.08.045.165.067.25.067.172 0 .34-.09.433-.25.138-.24.056-.545-.184-.683zM13.964 11.148v-.235c0-.546-.233-1.026-.656-1.35-.628-.483-1.664-.565-2.414-.147-.11-.276-.29-.516-.537-.705-.596-.456-1.555-.557-2.294-.206v-3.63c0-.545-.233-1.025-.656-1.35-1.055-.81-3.295-.4-3.294 1.35v8.56c-.057-.04-.116-.074-.18-.103-.497-.222-1.046-.07-1.636.455-.762.678-1.045 1.753-.818 3.107.376 2.25 2.134 4.89 3.688 5.538.062.026.128.04.192.04.195 0 .38-.116.46-.31.107-.254-.013-.547-.268-.652-1.113-.466-2.74-2.7-3.087-4.78-.116-.697-.125-1.644.497-2.196.28-.25.48-.323.56-.29.337.152.586 1.426.59 2.49v.065c0 .275.224.5.5.5s.5-.222.5-.497V4.875c0-.61.615-.772.978-.772.273 0 .532.078.71.214.177.137.264.32.264.558v8.297c0 .275.224.5.5.5s.5-.226.5-.5v-3.11c0-.61.614-.772.977-.772.274 0 .532.078.71.215s.265.32.265.557V13.584c0 .276.224.5.5.5s.5-.224.5-.5v-2.67c0-.61.614-.773.977-.773.272 0 .53.08.71.216.177.136.264.32.264.557v3.135c0 .276.224.5.5.5s.5-.224.5-.5v-1.374c0-.605.62-.767.99-.767.097 0 .96.02.96.79.003.048.2 4.72-1.53 9.09-.102.255.024.546.28.647.06.024.123.035.185.035.2 0 .388-.12.466-.317 1.81-4.567 1.61-9.303 1.6-9.48-.002-1.568-1.782-2.064-2.952-1.525z"/></svg>