<svg xmlns="http://www.w3.org/2000/svg" width="24" height="24" viewBox="0 0 24 24"><path d="M6.34 7.97c-.138-.24-.444-.32-.682-.183l-.6.347V7.44c0-.276-.225-.5-.5-.5s-.5.224-.5.5v.694l-.602-.347c-.24-.138-.545-.057-.683.183s-.056.545.183.683l.6.347-.6.347c-.24.138-.32.444-.183.683.093.16.26.25.434.25.085 0 .17-.02.25-.067l.6-.347v.694c0 .276.225.5.5.5s.5-.224.5-.5v-.694l.602.347c.078.045.164.067.25.067.172 0 .34-.09.433-.25.138-.24.056-.545-.183-.683L5.557 9l.6-.347c.24-.138.322-.444.184-.683zM11.34 7.97c-.138-.24-.444-.32-.682-.183l-.6.347V7.44c0-.276-.225-.5-.5-.5s-.5.224-.5.5v.694l-.6-.347c-.24-.138-.546-.057-.685.183-.138.24-.056.545.184.683l.6.347-.6.347c-.24.138-.322.444-.184.683.093.16.26.25.434.25.085 0 .17-.02.25-.067l.6-.347v.694c0 .276.225.5.5.5s.5-.224.5-.5v-.694l.602.347c.078.045.164.067.25.067.172 0 .34-.09.433-.25.138-.24.056-.545-.183-.683L10.557 9l.6-.347c.24-.138.322-.444.184-.683zM12.774 10.03c.093.16.26.25.433.25.085 0 .17-.02.25-.067l.6-.347v.694c0 .276.225.5.5.5s.5-.224.5-.5v-.694l.602.347c.078.045.164.067.25.067.17 0 .34-.09.432-.25.14-.24.057-.545-.183-.683L15.556 9l.6-.347c.24-.138.322-.444.184-.683-.137-.24-.443-.32-.682-.183l-.6.347V7.44c0-.276-.225-.5-.5-.5s-.5.224-.5.5v.694l-.602-.347c-.238-.136-.544-.057-.683.183-.138.24-.056.545.183.683l.602.347-.6.347c-.24.138-.322.444-.184.683zM17.774 10.03c.092.16.26.25.433.25.085 0 .17-.02.25-.067l.6-.347v.694c0 .276.225.5.5.5s.5-.224.5-.5v-.694l.602.347c.078.045.164.067.25.067.17 0 .34-.09.432-.25.14-.24.057-.545-.183-.683L20.556 9l.6-.347c.24-.138.322-.444.184-.683-.137-.24-.443-.32-.682-.183l-.6.347V7.44c0-.276-.225-.5-.5-.5s-.5.224-.5.5v.694l-.602-.347c-.238-.136-.545-.057-.683.183-.14.24-.057.545.183.683l.602.347-.6.347c-.24.138-.322.444-.184.683z"/><path d="M23.532 4h-23c-.276 0-.5.224-.5.5v9c0 .276.224.5.5.5H12.49c.276 0 .5-.224.5-.5s-.224-.5-.5-.5H1.032V5h22v8h-.483c-.277 0-.5.224-.5.5s.223.5.5.5h.982c.276 0 .5-.224.5-.5v-9c0-.277-.223-.5-.5-.5z"/><path d="M17.56 12.107c-2.425 0-4.397 1.973-4.397 4.398s1.973 4.397 4.398 4.397 4.4-1.973 4.4-4.397c0-2.425-1.974-4.398-4.4-4.398zm0 7.796c-1.873 0-3.397-1.524-3.397-3.397 0-1.874 1.524-3.398 3.398-3.398s3.4 1.524 3.4 3.398c0 1.873-1.525 3.397-3.4 3.397z"/><path d="M19.38 14.686c-.195-.195-.512-.195-.707 0l-1.112 1.112-1.11-1.112c-.196-.195-.513-.195-.708 0s-.195.512 0 .707l1.112 1.112-1.112 1.112c-.195.195-.195.512 0 .707.098.098.226.146.354.146s.256-.05.354-.146l1.112-1.112 1.112 1.112c.098.098.226.146.354.146s.256-.05.354-.146c.195-.195.195-.512 0-.707l-1.112-1.112 1.112-1.112c.193-.195.193-.51-.002-.707z"/></svg>