<svg xmlns="http://www.w3.org/2000/svg" width="24" height="24" viewBox="0 0 24 24"><path d="M23.486 0h-23c-.276 0-.5.224-.5.5v20c0 .276.224.5.5.5h2.5v2.5c0 .276.223.5.5.5h4c.275 0 .5-.224.5-.5V21h8v2.5c0 .276.224.5.5.5h4c.276 0 .5-.224.5-.5V21h2.5c.276 0 .5-.224.5-.5V.5c0-.277-.223-.5-.5-.5zm-16.5 23h-3v-2h3v2zm13 0h-3v-2h3v2zm3-3h-22V1h22v19z"/><path d="M2.486 16h1.5v1.5c0 .276.224.5.5.5h16c.276 0 .5-.224.5-.5v-14c0-.276-.224-.5-.5-.5h-16c-.276 0-.5.224-.5.5V6h-1.5c-.276 0-.5.224-.5.5v2c0 .276.224.5.5.5h1.5v4h-1.5c-.276 0-.5.224-.5.5v2c0 .276.224.5.5.5zm2.5-12h15v13h-15V4zm-2 4V7h1v1h-1zm0 6h1v1h-1v-1z"/><path d="M12.477 15.016c2.485 0 4.506-2.02 4.506-4.506s-2.02-4.506-4.506-4.506c-2.484 0-4.506 2.02-4.506 4.506s2.023 4.506 4.507 4.506zm0-8.012c1.933 0 3.506 1.573 3.506 3.506s-1.573 3.506-3.506 3.506S8.97 12.443 8.97 10.51s1.574-3.506 3.507-3.506z"/><path d="M12.477 12.253c.96 0 1.743-.782 1.743-1.743 0-.298-.082-.575-.215-.82l.674-.675c.194-.195.194-.512 0-.707s-.513-.195-.708 0l-.674.674c-.246-.133-.523-.215-.82-.215-.962 0-1.744.782-1.744 1.743s.782 1.743 1.743 1.743zm0-2.486c.205 0 .39.083.524.218.135.136.218.32.218.526 0 .41-.333.744-.743.744s-.743-.333-.743-.743.335-.743.745-.743z"/></svg>