<svg xmlns="http://www.w3.org/2000/svg" width="24" height="24" viewBox="0 0 24 24"><path d="M16.47 11.33h-.006c-1.292.003-2.488.706-3.133 1.814l-8.663.016c-.203 0-.386.124-.462.312l-.445 1.095c-.078.193-.03.413.123.555L5.2 16.346c.163.15.402.175.592.066l1.108-.644 1.226.824c.177.118.41.11.58-.016l1.458-1.1.888.932c.094.1.248.11.363.155l1.797-.004c.602 1.218 1.86 2.014 3.234 2.014h.008c1.995-.003 3.622-1.63 3.627-3.627.003-.968-.373-1.877-1.056-2.56-.68-.68-1.587-1.056-2.553-1.056zm-.018 6.245h-.006c-1.08 0-2.06-.68-2.44-1.69-.072-.196-.26-.325-.467-.325h-.002l-1.91.004-1.048-1.1c-.176-.185-.46-.207-.663-.054l-1.53 1.153-1.19-.8c-.158-.106-.363-.113-.53-.018l-1.057.616-.793-.736.188-.464 8.63-.016c.194 0 .37-.113.452-.29.432-.922 1.365-1.52 2.38-1.523h.004c.7 0 1.355.272 1.848.765.493.494.765 1.15.764 1.85-.004 1.448-1.184 2.627-2.63 2.63z"/><path d="M17.052 13.717c-.682 0-1.235.554-1.235 1.235s.554 1.235 1.235 1.235 1.235-.554 1.235-1.235-.554-1.235-1.235-1.235zm-.236 1.235c0-.13.105-.235.235-.235s.236.105.236.235c0 .26-.47.26-.47 0z"/><path d="M21.434 6.008H2.608c-1.45 0-2.627 1.18-2.627 2.627v12.748c0 1.448 1.18 2.627 2.628 2.627h18.825c1.448 0 2.627-1.18 2.627-2.627V8.635c0-1.45-1.178-2.627-2.626-2.627zm1.627 15.375c0 .897-.728 1.627-1.626 1.627H2.608c-.897 0-1.627-.73-1.627-1.627V8.635c0-.897.73-1.627 1.628-1.627h18.825c.897 0 1.627.73 1.627 1.627v12.748zM8.494 5.007c.276 0 .5-.224.5-.5v-.372c0-.654.576-1.187 1.285-1.187h3.484c.708 0 1.284.533 1.284 1.187v.372c0 .276.224.5.5.5s.5-.224.5-.5v-.372c0-1.206-1.024-2.187-2.284-2.187H10.28c-1.26 0-2.286.98-2.286 2.187v.372c0 .276.224.5.5.5z"/></svg>