<svg xmlns="http://www.w3.org/2000/svg" width="24" height="24" viewBox="0 0 24 24"><path d="M21.46 4.314c-.3-.227-.68-.295-1.04-.194l.138.48-.138-.48c-.005 0-.507.14-1.273.14-1.68 0-4.118-.627-6.19-3.61-.213-.307-.577-.49-.97-.49h-.002c-.395 0-.757.184-.97.49C8.465 4.32 4.9 4.576 3.558 4.122c-.36-.106-.742-.038-1.044.187-.302.224-.475.57-.475.946v6.426c0 9.324 9.537 12.057 9.637 12.084.103.027.207.04.31.04.1 0 .204-.013.31-.04.096-.027 9.636-2.732 9.636-12.084V5.256c0-.373-.173-.716-.472-.942zm-.528 7.368c0 8.545-8.81 11.094-8.993 11.12-.09-.026-8.9-2.584-8.9-11.12V5.256c0-.08.045-.125.072-.146.022-.017.063-.04.11-.04.01 0 .022 0 .033.005 1.845.625 5.81.133 8.58-3.854.05-.072.25-.07.3 0 2.32 3.338 5.092 4.04 7.01 4.04.858 0 1.434-.147 1.55-.18.075-.02.13.006.162.03.022.018.074.065.074.146v6.426z"/></svg>