<svg xmlns="http://www.w3.org/2000/svg" width="24" height="24" viewBox="0 0 24 24"><path d="M18.396 9h-1.41V5.036c0-2.55-2.29-4.702-5-4.702s-5 2.153-5 4.702V9H5.574c-1.452 0-2.632 1.164-2.63 2.643l.94 9.76c0 1.432 1.18 2.597 2.633 2.597h10.937c1.452 0 2.633-1.174 2.63-2.57l.946-9.843c0-1.45-1.157-2.587-2.634-2.587zM7.986 5.036c0-2.007 1.832-3.702 4-3.702 2.167 0 4 1.695 4 3.702V9h-8V5.036zm11.1 16.347c0 .892-.732 1.617-1.633 1.617H6.517c-.915 0-1.632-.702-1.634-1.646l-.94-9.76C3.94 10.7 4.657 10 5.572 10h12.824c.916 0 1.633.697 1.635 1.54l-.946 9.843z"/><path d="M11.984 14.05c-1.122 0-2.034.895-2.03 2.054l.42 3.457c.03.25.243.44.496.44h2.232c.253 0 .466-.188.496-.44l.423-3.525c0-1.095-.914-1.984-2.036-1.984zm.674 4.95h-1.346l-.362-2.957c0-.557.454-.992 1.034-.992.58 0 1.037.433 1.04.925L12.66 19z"/></svg>