<svg xmlns="http://www.w3.org/2000/svg" width="24" height="24" viewBox="0 0 24 24"><path d="M18.4 9h-1.414V5.036c0-2.55-2.29-4.702-5-4.702s-5 2.153-5 4.702c0 .276.224.5.5.5s.5-.224.5-.5c0-2.007 1.832-3.702 4-3.702 2.167 0 4 1.695 4 3.702V9H5.578c-1.45 0-2.632 1.164-2.63 2.643l.942 9.76C3.89 22.835 5.07 24 6.52 24H17.46c1.452 0 2.633-1.174 2.63-2.57l.946-9.843C21.034 10.137 19.878 9 18.4 9zm.69 12.383c0 .892-.73 1.617-1.632 1.617H6.52c-.914 0-1.63-.702-1.633-1.646l-.94-9.76c0-.894.716-1.594 1.63-1.594h12.824c.917 0 1.634.697 1.636 1.54l-.945 9.843z"/><path d="M11.99 14.05c-1.123 0-2.035.895-2.032 2.054l.42 3.457c.03.25.244.44.497.44h2.232c.253 0 .466-.19.496-.44l.422-3.525c0-1.095-.914-1.984-2.036-1.984zm.673 4.95h-1.346l-.362-2.957c0-.557.454-.992 1.034-.992.58 0 1.035.433 1.04.925L12.662 19z"/></svg>