<svg xmlns="http://www.w3.org/2000/svg" width="24" height="24" viewBox="0 0 24 24"><path d="M11.67 21.61c-.09.1-.15.23-.15.36s.05.26.15.35c.09.1.22.15.35.15.13 0 .26-.05.36-.15.09-.1.14-.22.14-.35s-.05-.26-.14-.36c-.19-.18-.54-.17-.71 0zM7.86 10.243c.048.014.096.02.143.02.216 0 .415-.14.48-.357.395-1.336 1.48-2.336 2.83-2.608.343-.07.704-.09 1.073-.052.273.02.52-.176.544-.452.025-.275-.177-.52-.452-.544-.466-.042-.924-.02-1.363.068-1.714.345-3.09 1.61-3.592 3.304-.078.265.073.543.338.62zM12.543 10.86c-.055-.27-.318-.448-.59-.392-.27.055-.445.318-.39.59.34 1.688-.086 3.438-1.17 4.798-.17.216-.135.53.08.703.093.072.203.107.312.107.147 0 .293-.064.392-.188 1.267-1.593 1.765-3.64 1.366-5.62z"/><path d="M13.928 10.58c-.208-1.035-1.217-1.704-2.255-1.5-.925.188-1.58 1.042-1.526 1.987.016.276.252.483.528.47.276-.016.486-.252.47-.528-.026-.453.286-.86.726-.95.24-.047.485 0 .688.136.203.135.34.34.39.58.364 1.814.023 3.685-.962 5.27-.146.234-.074.542.16.688.084.05.174.075.265.075.168 0 .332-.085.426-.237 1.12-1.8 1.507-3.928 1.092-5.993z"/><path d="M10.778 11.935c-.253-.02-.51.2-.52.478-.048 1.063-.478 2.076-1.212 2.853-.19.2-.18.518.02.707.096.092.22.137.343.137.132 0 .264-.053.362-.156.9-.95 1.426-2.192 1.483-3.496.013-.277-.2-.51-.477-.523zM14.965 13.127c-.267-.04-.527.143-.57.417-.114.724-.32 1.43-.61 2.103-.108.253.008.548.262.657.064.028.132.04.198.04.193 0 .377-.112.46-.3.322-.75.55-1.538.678-2.346.042-.272-.145-.528-.418-.57z"/><path d="M11.395 7.7c-.87.175-1.62.68-2.112 1.42-.49.74-.666 1.625-.49 2.496.004.018.008.035.014.052.18.988-.14 1.998-.868 2.71-.2.192-.202.51-.01.706.1.1.23.15.358.15.126 0 .252-.048.35-.143.983-.962 1.41-2.336 1.14-3.674l-.015-.05c-.105-.593.02-1.192.353-1.694.344-.517.868-.87 1.477-.992.606-.125 1.227-.002 1.745.342.517.343.87.868.99 1.477.112.548.17 1.128.17 1.722 0 .276.223.5.5.5s.5-.224.5-.5c0-.66-.063-1.305-.188-1.922-.363-1.795-2.118-2.96-3.915-2.6z"/><path d="M16.692 10.022c-.3-1.48-1.31-2.74-2.7-3.37-.25-.113-.547 0-.66.25-.114.252-.002.548.25.662 1.114.503 1.892 1.472 2.13 2.657.267 1.316.27 2.65.006 3.964-.054.27.12.534.393.588.034.007.066.01.1.01.233 0 .44-.164.49-.402.287-1.446.285-2.91-.008-4.358zM8.393 11.696l-.01-.04c-.033-.176-.048-.352-.056-.526-.012-.275-.226-.49-.52-.478-.277.012-.49.246-.48.52.01.24.034.48.083.72.002.014.006.027.01.04.083.474-.05.957-.365 1.33-.18.21-.153.526.058.705.094.08.208.118.323.118.142 0 .283-.06.382-.177.525-.616.734-1.423.575-2.212z"/><path d="M19.02 20.452V3.548c.003-.017.01-.03.01-.048s-.007-.032-.01-.048v-.947c0-1.396-1.135-2.53-2.53-2.53H7.554c-1.396 0-2.532 1.135-2.532 2.53v18.973c0 1.396 1.136 2.53 2.532 2.53h8.936c1.396 0 2.53-1.135 2.53-2.53v-.928c.003-.017.01-.03.01-.048s-.007-.033-.01-.05zM6.023 4h12v16h-12V4zM7.554.973h8.936c.845 0 1.53.687 1.53 1.53V3H6.023v-.495c0-.845.687-1.532 1.532-1.532zM16.49 23.01H7.554c-.845 0-1.532-.688-1.532-1.532V21h12v.478c0 .844-.687 1.53-1.532 1.53z"/></svg>