<svg xmlns="http://www.w3.org/2000/svg" width="24" height="24" viewBox="0 0 24 24"><path d="M16.676 8.453V5.06c0-2.587-2.104-4.69-4.69-4.69s-4.69 2.103-4.69 4.69v3.393c-2.225 1.508-3.69 4.056-3.69 6.94 0 4.62 3.76 8.38 8.38 8.38 4.62 0 8.38-3.76 8.38-8.38-.002-2.884-1.466-5.432-3.69-6.94zM8.296 5.06c0-2.036 1.654-3.69 3.69-3.69 2.034 0 3.69 1.654 3.69 3.69V7.88c-1.116-.55-2.366-.868-3.69-.868-1.326 0-2.576.318-3.69.868V5.06zm3.69 17.712c-4.07 0-7.38-3.31-7.38-7.38s3.31-7.38 7.38-7.38c4.067 0 7.378 3.31 7.378 7.38s-3.31 7.38-7.38 7.38z"/><path d="M13.825 12.904l-.807.796c-.306-.183-.66-.295-1.042-.295-1.125 0-2.04.915-2.04 2.04s.915 2.04 2.04 2.04 2.04-.915 2.04-2.04c0-.38-.11-.73-.29-1.036l.803-.794c.195-.194.197-.51.004-.707-.196-.198-.512-.2-.71-.006zm-1.85 3.582c-.572 0-1.04-.467-1.04-1.04 0-.574.468-1.04 1.04-1.04.286 0 .544.115.733.3v.002c.002 0 .004 0 .005.003.188.19.304.45.304.735 0 .574-.467 1.04-1.04 1.04zM17.718 14.945h-.916c-.276 0-.5.224-.5.5s.224.5.5.5h.916c.276 0 .5-.224.5-.5s-.224-.5-.5-.5zM7.66 15.445c0-.276-.223-.5-.5-.5h-.915c-.276 0-.5.224-.5.5s.224.5.5.5h.916c.277 0 .5-.224.5-.5zM11.98 19.766c-.275 0-.5.224-.5.5v.916c0 .276.225.5.5.5s.5-.224.5-.5v-.916c0-.276-.223-.5-.5-.5zM11.98 11.125c.277 0 .5-.224.5-.5V9.71c0-.277-.223-.5-.5-.5s-.5.223-.5.5v.915c0 .276.225.5.5.5zM15.486 12.44c.128 0 .256-.05.354-.146l.648-.647c.195-.195.195-.512 0-.708-.195-.196-.512-.196-.707 0l-.647.646c-.195.195-.195.512 0 .708.097.097.225.146.353.146zM8.122 18.597l-.647.647c-.195.195-.195.512 0 .707.098.1.226.147.354.147s.255-.05.353-.146l.647-.646c.195-.195.195-.512 0-.707s-.513-.195-.708 0zM15.84 18.597c-.194-.195-.51-.195-.706 0s-.195.512 0 .707l.647.647c.1.1.227.147.355.147s.256-.05.354-.146c.194-.194.194-.51 0-.706l-.65-.647zM8.18 10.94c-.194-.196-.51-.196-.706 0s-.195.51 0 .706l.648.647c.098.098.226.146.354.146s.256-.05.354-.147c.195-.195.195-.512 0-.707l-.65-.647z"/></svg>