<svg xmlns="http://www.w3.org/2000/svg" width="24" height="24" viewBox="0 0 24 24"><path d="M19.014 16.378c0-1.183-1.155-1.61-2.015-1.348-.01-.426-.18-.803-.49-1.063-.435-.365-1.12-.46-1.677-.218-.08-.16-.193-.302-.334-.42-.396-.33-.992-.444-1.52-.276v-2.5c0-.44-.175-.83-.492-1.097-.807-.678-2.52-.34-2.52 1.096v6.478c-.367-.62-.828-1.177-1.366-1.39-.396-.154-.802-.122-1.177.095-.275.16-.458.418-.53.748-.29 1.355 1.436 4.007 3.345 6.67l.327.46c.097.14.252.213.41.213.1 0 .2-.03.286-.09.227-.157.282-.47.125-.696l-.334-.47c-2.268-3.163-3.338-5.14-3.18-5.877.016-.07.038-.084.054-.093.11-.062.2-.072.31-.028.65.257 1.418 1.928 1.754 3.032.072.236.31.39.552.35.245-.037.426-.247.426-.495v-8.906c0-.428.422-.45.507-.45.144 0 .278.044.37.12.09.077.135.185.135.33v6.196c0 .276.224.5.5.5s.5-.224.5-.5v-2.323c0-.43.422-.45.506-.45.144 0 .278.044.37.12.09.077.135.185.135.33v2.632c0 .275.224.5.5.5s.5-.225.5-.5v-1.996c0-.43.422-.45.506-.45.143 0 .277.044.368.12.092.076.136.185.136.33v2.339c0 .277.225.5.5.5s.5-.223.5-.5V16.38c0-.43.422-.45.506-.45s.506.02.506.472c.002.035.136 3.51-1.038 6.756-.094.26.04.546.3.64.057.02.114.03.17.03.206 0 .397-.127.472-.33 1.236-3.434 1.1-6.992 1.094-7.12zM6.61 3.298c.872 0 1.58-.708 1.58-1.578C8.19.85 7.482.14 6.61.14c-.87 0-1.577.71-1.577 1.58 0 .87.708 1.578 1.578 1.578zm0-2.157c.32 0 .58.26.58.58s-.26.578-.58.578-.577-.26-.577-.578.26-.58.578-.58zM11.406 3.298c.87 0 1.58-.708 1.58-1.578 0-.87-.71-1.58-1.58-1.58-.87 0-1.578.71-1.578 1.58 0 .87.708 1.578 1.578 1.578zm0-2.157c.32 0 .58.26.58.58s-.26.578-.58.578-.578-.26-.578-.578.26-.58.578-.58zM16.2 3.298c.87 0 1.58-.708 1.58-1.578 0-.87-.71-1.58-1.58-1.58-.87 0-1.578.71-1.578 1.58 0 .87.708 1.578 1.578 1.578zm0-2.157c.32 0 .58.26.58.58s-.26.578-.58.578c-.318 0-.578-.26-.578-.578s.26-.58.578-.58zM6.61 7.622c.872 0 1.58-.708 1.58-1.58 0-.87-.708-1.577-1.58-1.577-.87 0-1.577.708-1.577 1.578 0 .87.708 1.58 1.578 1.58zm0-2.156c.32 0 .58.26.58.578s-.26.578-.58.578-.577-.26-.577-.58.26-.576.578-.576zM11.406 7.622c.87 0 1.58-.708 1.58-1.58 0-.87-.71-1.577-1.58-1.577-.87 0-1.578.708-1.578 1.578 0 .87.708 1.58 1.578 1.58zm0-2.156c.32 0 .58.26.58.578s-.26.58-.58.58-.578-.26-.578-.58.26-.578.578-.578zM16.2 7.622c.87 0 1.58-.708 1.58-1.58 0-.87-.71-1.577-1.58-1.577-.87 0-1.578.708-1.578 1.578 0 .87.708 1.58 1.578 1.58zm0-2.156c.32 0 .58.26.58.578s-.26.578-.58.578c-.318 0-.578-.26-.578-.58s.26-.576.578-.576zM8.19 10.368c0-.87-.71-1.58-1.58-1.58-.87 0-1.578.71-1.578 1.58s.708 1.58 1.578 1.58c.87 0 1.58-.71 1.58-1.58zm-1.58.58c-.318 0-.577-.26-.577-.58s.26-.58.578-.58.58.26.58.58-.26.58-.58.58zM16.2 11.947c.87 0 1.58-.708 1.58-1.58S17.07 8.79 16.2 8.79c-.87 0-1.578.707-1.578 1.578s.708 1.58 1.578 1.58zm0-2.158c.32 0 .58.26.58.578s-.26.58-.58.58c-.318 0-.578-.26-.578-.58s.26-.58.578-.58z"/></svg>