<svg xmlns="http://www.w3.org/2000/svg" width="24" height="24" viewBox="0 0 24 24"><path d="M17.932 3.495c-.718.718-.718 1.886 0 2.604.36.357.83.537 1.303.537s.943-.18 1.302-.538c.718-.72.718-1.887 0-2.605-.696-.695-1.908-.696-2.605 0zm1.897 1.897c-.33.33-.864.327-1.19 0-.33-.328-.33-.862 0-1.19.158-.16.37-.247.595-.247s.436.087.595.247c.327.328.327.862 0 1.19z"/><path d="M21.99 2.042C20.82.872 19.262.227 17.607.227c-1.654 0-3.21.645-4.38 1.814-1.618 1.62-2.204 4.02-1.536 6.2L.346 19.587c-.144.144-.187.36-.107.55l.838 1.98c.08.186.26.305.46.305h.018l3.285-.12c.22-.01.41-.16.466-.37l.666-2.506 2.903-.566c.21-.04.37-.21.4-.422l.512-3.654 2.722.065c.147-.003.268-.05.365-.147l2.505-2.505c2.262.873 4.88.332 6.607-1.395 2.417-2.416 2.417-6.346.002-8.76zm-.708 8.053c-1.517 1.517-3.853 1.94-5.812 1.056-.19-.085-.413-.044-.56.103l-2.59 2.59-2.953-.07c-.267.026-.472.18-.507.43l-.525 3.743-2.86.56c-.188.036-.338.177-.388.36l-.65 2.45-2.572.094-.574-1.354L12.62 8.728c.138-.138.183-.342.116-.525-.69-1.894-.22-4.035 1.2-5.455 2.026-2.025 5.322-2.025 7.348 0s2.026 5.322 0 7.347z"/></svg>