<svg xmlns="http://www.w3.org/2000/svg" width="24" height="24" viewBox="0 0 24 24"><path d="M19.767 17.944c-.088-.26-.37-.4-.634-.313-.262.09-.402.373-.313.635l1.338 3.958c.02.045.03.09-.024.17-.197.293-.932.607-1.713.607H5.55c-.788 0-1.472-.294-1.678-.577-.07-.097-.07-.165-.047-.23l1.327-3.944c.088-.263-.053-.546-.314-.634-.264-.086-.545.053-.634.314l-1.328 3.95c-.126.39-.06.79.188 1.13.496.684 1.606.99 2.486.99h12.87c.887 0 2.06-.328 2.544-1.05.23-.343.27-.736.13-1.078l-1.327-3.928z"/><path d="M11.985 18.995c5.138 0 9.317-4.18 9.317-9.317S17.122.36 11.985.36 2.668 4.54 2.668 9.678s4.18 9.318 9.317 9.318zm0-17.635c4.586 0 8.317 3.73 8.317 8.317 0 4.586-3.73 8.317-8.317 8.317-4.586 0-8.317-3.73-8.317-8.317 0-4.586 3.73-8.317 8.317-8.317z"/><path d="M11.985 15.43c1.98 0 3.592-1.61 3.592-3.592s-1.61-3.592-3.592-3.592-3.592 1.61-3.592 3.592 1.61 3.592 3.592 3.592zm0-6.184c1.43 0 2.592 1.163 2.592 2.592s-1.163 2.592-2.592 2.592-2.592-1.163-2.592-2.592 1.163-2.592 2.592-2.592z"/><path d="M11.985 13.565c.952 0 1.727-.774 1.727-1.727 0-.952-.775-1.727-1.727-1.727-.953 0-1.728.776-1.728 1.728 0 .953.775 1.727 1.728 1.727zm0-2.454c.4 0 .727.327.727.728 0 .4-.326.728-.727.728-.4 0-.728-.326-.728-.728 0-.4.326-.727.728-.727z"/></svg>