<svg xmlns="http://www.w3.org/2000/svg" width="24" height="24" viewBox="0 0 24 24"><path d="M9.444 15.578c-.276 0-.5.224-.5.5v1.45c0 .794-.647 1.44-1.443 1.44H1.62c-.276 0-.5.225-.5.5s.224.5.5.5H7.5c1.347 0 2.443-1.095 2.443-2.44v-1.45c0-.276-.223-.5-.5-.5zM23.4 11.005l-.716-.186.255-.31c.316-.382.414-.895.26-1.37s-.534-.83-1.017-.954L3.593 3.433c-.373-.096-.762-.04-1.096.157-.333.197-.57.512-.665.887l-1.59 6.22c-.096.374-.04.763.157 1.096s.51.568.885.664l15.653 4.002c.118.03.238.044.357.044.425 0 .84-.188 1.116-.524l.433-.522 3.183.827c.042.01.084.016.126.016.088 0 .176-.022.253-.068.114-.066.197-.177.23-.305l1.12-4.312c.072-.268-.09-.54-.356-.61zm-6.212 4.485L1.533 11.488c-.115-.03-.212-.103-.273-.205s-.078-.223-.048-.34l1.59-6.218c.03-.116.103-.213.205-.274.07-.04.148-.062.228-.062.037 0 .074.005.11.014l18.592 4.753c.214.055.29.225.313.295.023.07.062.253-.08.423l-3.79 4.58-.1.12h-.002l-.635.768c-.11.135-.29.194-.455.15zm4.607-.3l-2.244-.583 2.442-2.935.672.174-.87 3.345z"/><path d="M17.83 10.1c-.2-.19-.53-.18-.71 0-.1.1-.15.22-.15.35 0 .14.05.26.15.36.09.09.22.14.35.14s.26-.05.36-.15c.09-.09.14-.22.14-.35 0-.12-.05-.25-.14-.35z"/></svg>