<svg xmlns="http://www.w3.org/2000/svg" width="24" height="24" viewBox="0 0 24 24"><path d="M6.338 7.97c-.14-.24-.445-.32-.683-.183l-.6.347V7.44c0-.276-.225-.5-.5-.5s-.5.224-.5.5v.693l-.602-.346c-.24-.138-.545-.057-.683.183s-.056.545.183.683l.6.347-.6.347c-.24.138-.32.444-.183.683.093.16.26.25.434.25.085 0 .17-.02.25-.067l.6-.347v.693c0 .275.225.5.5.5s.5-.225.5-.5v-.694l.602.347c.08.045.165.067.25.067.173 0 .34-.09.434-.25.138-.24.056-.545-.183-.683L5.554 9l.6-.347c.24-.138.322-.444.184-.683zM11.338 7.97c-.14-.24-.446-.32-.683-.183l-.6.347V7.44c0-.276-.225-.5-.5-.5s-.5.224-.5.5v.694l-.6-.347c-.24-.138-.546-.057-.684.183s-.056.545.184.683l.6.347-.6.347c-.24.138-.322.444-.183.683.094.16.262.25.435.25.085 0 .17-.02.25-.067l.6-.347v.694c0 .276.225.5.5.5s.5-.224.5-.5v-.694l.602.347c.08.045.165.067.25.067.173 0 .34-.09.434-.25.14-.24.057-.545-.182-.683L10.554 9l.6-.347c.24-.138.322-.444.184-.683zM12.77 10.03c.094.16.262.25.434.25.085 0 .17-.02.25-.067l.6-.347v.694c0 .276.225.5.5.5s.5-.224.5-.5v-.694l.602.347c.08.045.165.067.25.067.172 0 .34-.09.433-.25.138-.24.056-.545-.184-.683l-.6-.347.6-.347c.24-.138.32-.444.183-.683-.14-.24-.445-.32-.684-.183l-.6.347V7.44c0-.276-.225-.5-.5-.5s-.5.224-.5.5v.694l-.602-.347c-.238-.136-.544-.057-.683.183-.137.24-.055.545.184.683l.6.347-.6.347c-.24.138-.32.444-.183.683zM17.77 10.03c.093.16.262.25.434.25.085 0 .17-.02.25-.067l.6-.347v.694c0 .276.225.5.5.5s.5-.224.5-.5v-.694l.602.347c.08.045.165.067.25.067.172 0 .34-.09.433-.25.138-.24.056-.545-.184-.683l-.6-.347.6-.347c.24-.138.32-.444.183-.683-.14-.24-.445-.32-.684-.183l-.6.347V7.44c0-.276-.225-.5-.5-.5s-.5.224-.5.5v.694l-.602-.347c-.238-.136-.545-.057-.683.183s-.056.545.184.683l.6.347-.6.347c-.24.138-.32.444-.183.683z"/><path d="M23.53 4h-23c-.277 0-.5.224-.5.5v9c0 .276.223.5.5.5h11.957c.276 0 .5-.224.5-.5s-.224-.5-.5-.5H1.03V5h22v8h-.485c-.276 0-.5.224-.5.5s.224.5.5.5h.984c.275 0 .5-.224.5-.5v-9c0-.277-.224-.5-.5-.5z"/><path d="M17.558 12.107c-2.426 0-4.398 1.973-4.398 4.398s1.973 4.397 4.398 4.397 4.398-1.973 4.398-4.397c0-2.425-1.973-4.398-4.398-4.398zm0 7.796c-1.874 0-3.398-1.524-3.398-3.397 0-1.874 1.524-3.398 3.398-3.398s3.398 1.524 3.398 3.398c0 1.873-1.524 3.397-3.398 3.397z"/><path d="M18.933 15.133l-2.01 2.15-.74-.79c-.187-.2-.503-.21-.706-.022-.2.19-.212.506-.023.708l1.104 1.18c.004.004.01.005.013.01.005.003.007.01.01.013.03.027.064.042.096.06.02.013.038.03.06.038.06.024.123.038.187.038s.127-.013.187-.038c.022-.01.04-.026.06-.037.032-.018.067-.032.095-.06.004-.003.006-.01.01-.013.004-.004.01-.005.013-.01l2.376-2.54c.188-.2.178-.518-.023-.706-.202-.19-.52-.178-.707.023z"/></svg>