<svg xmlns="http://www.w3.org/2000/svg" width="24" height="24" viewBox="0 0 24 24"><path d="M4.84 14.334c.122.062.28.066.41.022.105-.036.194-.105.254-.197.595-.902.776-2.432.986-4.203.332-2.804.74-6.254 2.99-7.975.032 4.606.484 7.586 1.412 9.353.096.182.288.284.498.265.205-.023.375-.17.428-.368.376-1.405 1.394-3.724 3.014-4.538-.942 1.84-.45 4.343-.03 5.782.078.264.353.417.62.34.266-.08.418-.356.34-.622-.342-1.168-.995-4.053.325-5.593.197-.227.228-.544.077-.807-.147-.26-.44-.396-.725-.344-2.223.37-3.52 2.694-4.142 4.22-.55-1.793-.82-4.514-.82-8.25 0-.252-.137-.486-.357-.61-.22-.123-.49-.12-.706.01-3.067 1.84-3.54 5.82-3.917 9.02-.123 1.04-.242 2.04-.44 2.803C4.034 10.68 1.886 7.76 1.54 7.498c-.252-.184-.59-.182-.84.006-.25.187-.344.51-.237.8.524 1.44.35 3.125.166 4.91-.31 2.984-.66 6.37 2.866 8.534l.113.058c1.13.57 2.503 1.265 4.954 1.265.313 0 .644-.01.994-.034.275-.02.483-.26.464-.534s-.266-.485-.534-.464c-2.816.203-4.204-.505-5.43-1.124l-.076-.037c-2.952-1.815-2.664-4.606-2.36-7.56.14-1.343.28-2.72.104-4.014.997 1.36 2.555 3.69 2.847 4.73.037.132.144.237.266.3z"/><path d="M23.38 18c.276 0 .5-.224.5-.5s-.224-.5-.5-.5h-5.394v-2h5.394c.276 0 .5-.224.5-.5s-.224-.5-.5-.5H11.486c-.276 0-.5.224-.5.5v9c0 .276.224.5.5.5H23.38c.276 0 .5-.224.5-.5s-.224-.5-.5-.5h-5.394v-2h5.394c.276 0 .5-.224.5-.5s-.224-.5-.5-.5h-2.394v-2h2.394zm-11.394-3h5v2h-5v-2zm2 5h-2v-2h2v2zm3 3h-5v-2h5v2zm3-3h-5v-2h5v2z"/></svg>