<svg xmlns="http://www.w3.org/2000/svg" width="24" height="24" viewBox="0 0 24 24"><path d="M23.03 3.092v-.56c0-.276-.225-.5-.5-.5s-.5.224-.5.5V3h-17v-.47c0-.275-.225-.5-.5-.5s-.5.225-.5.5v.52c-1.14.232-2 1.242-2 2.45v2c0 .275.223.5.5.5h21c.275 0 .5-.225.5-.5v-3c0-.65-.42-1.2-1-1.408zm0 3.908h-20V5.5c0-.827.67-1.5 1.497-1.5h18.001c.275 0 .5.224.5.5V7zM7.43 10.016c.277 0 .5-.224.5-.5s-.223-.5-.5-.5h-.943c-.276 0-.5.224-.5.5s.224.5.5.5h.944zM5.727 20.65c-.073.09-.194.197-.19.21h-3.85c-.033-.15-.132-.282-.282-.35-.25-.116-.548-.006-.663.245-.114.248-.098.526.043.746.146.23.403.36.704.36h4.045c.47 0 .863-.448.972-.586.17-.215.136-.528-.08-.7-.214-.172-.528-.138-.7.076z"/><path d="M21.562 8.547c-.276 0-.5.224-.5.5v.263l-11.186.378c-.204.007-.383.137-.453.33l-1.075 2.957c-.36.148-.67.572-.85 1.2-.117.41-.14.774-.078 1.066-.207.217-.38.54-.497.95-.117.41-.14.776-.078 1.068-.207.216-.38.54-.497.948-.082.286-.118.55-.11.783-1.927.018-4.296.04-4.407.04-.013-.002-.328-.062-.325-.56.004-.985 1.435-4.378 2.396-6.418.548-1.16.015-2.955-.047-3.156-.082-.263-.36-.41-.626-.33-.264.086-.41.366-.33.63.13.413.424 1.745.1 2.432-.254.54-2.484 5.318-2.49 6.84-.006 1.065.752 1.48 1.184 1.554.014 0 .033.004.262.004.438 0 1.644-.008 5.042-.043.25-.003.458-.187.49-.433.028-.204-.072-.4-.243-.5-.05-.253.134-.897.31-1.086.212-.013.432-.14.496-.363.013-.045.02-.09.02-.136 0-.177-.096-.343-.25-.432-.05-.254.133-.897.31-1.086.215 0 .43-.14.495-.363.014-.046.02-.092.02-.137 0-.177-.095-.343-.248-.432-.05-.254.133-.897.31-1.086h.01l4.668.032c.033.002.066.003.1.003.508 0 .987-.19 1.358-.545.395-.376.612-.884.612-1.43V10.5l6.13-.207c.27-.01.482-.23.482-.5v-.746c0-.277-.223-.5-.5-.5zM14.45 11.99c0 .27-.107.52-.303.705-.194.185-.45.285-.74.267l-3.98-.028.82-2.257.836-.028c-.042.56-.027 1.266.252 1.64.1.134.25.204.405.204.104 0 .208-.032.296-.098.222-.165.27-.476.104-.697-.075-.127-.09-.592-.05-1.084l2.36-.08v1.454z"/></svg>