<?xml version="1.0" encoding="utf-8"?>
<!-- Generator: Adobe Illustrator 19.2.0, SVG Export Plug-In . SVG Version: 6.00 Build 0)  -->
<svg version="1.1" id="Layer_1" xmlns="http://www.w3.org/2000/svg" xmlns:xlink="http://www.w3.org/1999/xlink" x="0px" y="0px"
	 width="24px" height="24px" viewBox="0 0 24 24" style="enable-background:new 0 0 24 24;" xml:space="preserve">
<g>
	<path d="M7.669,19.979c-0.268-0.07-0.539,0.102-0.602,0.371l-0.703,2.964c-0.064,0.269,0.102,0.538,0.371,0.602
		c0.039,0.01,0.078,0.014,0.116,0.014c0.227,0,0.432-0.154,0.486-0.385l0.703-2.964C8.104,20.312,7.938,20.043,7.669,19.979z"/>
	<path d="M16.938,20.35c-0.064-0.27-0.332-0.441-0.602-0.371c-0.269,0.063-0.435,0.333-0.371,0.602l0.702,2.964
		c0.055,0.23,0.26,0.385,0.486,0.385c0.038,0,0.076-0.004,0.115-0.014c0.269-0.063,0.435-0.333,0.371-0.602L16.938,20.35z"/>
	<path d="M23.504,1.997h-7.5v-1c0-0.276-0.224-0.5-0.5-0.5s-0.5,0.224-0.5,0.5v1H9.003v-1c0-0.276-0.224-0.5-0.5-0.5
		s-0.5,0.224-0.5,0.5v1h-7.5c-0.276,0-0.5,0.224-0.5,0.5v16c0,0.276,0.224,0.5,0.5,0.5h23c0.276,0,0.5-0.224,0.5-0.5v-16
		C24.004,2.22,23.78,1.997,23.504,1.997z M23.004,17.997h-22v-15h22V17.997z"/>
	<path d="M11.916,9.235c-0.139,0-0.19,0-2.819,1.334l0.626-2.732c0.034-0.273-0.079-0.53-0.309-0.704
		C8.908,6.751,7.813,6.8,6.752,7.252c-1.561,0.663-2.57,1.984-2.769,3.624C3.827,12.158,4.23,13.45,5.089,14.42
		c0.858,0.969,2.092,1.524,3.387,1.524c1.498,0,2.895-0.743,3.737-1.987c0.843-1.246,1.013-2.821,0.454-4.219
		C12.541,9.432,12.247,9.235,11.916,9.235z M11.384,13.396c-0.666,0.983-1.726,1.548-2.909,1.548c-1.008,0-1.97-0.433-2.638-1.188
		c-0.669-0.755-0.983-1.762-0.862-2.76C5.177,9.346,6.312,8.568,6.97,8.25c0.596-0.287,1.137-0.372,1.481-0.372
		c0.094,0,0.173,0.006,0.235,0.017l-0.803,3.492c-0.043,0.189,0.026,0.386,0.18,0.506c0.153,0.12,0.361,0.139,0.535,0.052
		c1.02-0.52,2.589-1.312,3.219-1.617C12.162,11.368,12.008,12.475,11.384,13.396z"/>
	<path d="M13.609,7.456c-0.574-1.352-2.068-2.095-2.792-1.99c-0.324,0.045-0.556,0.264-0.592,0.556L10.21,6.136
		C9.813,9.015,9.884,9.07,10.154,9.279c0.106,0.08,0.217,0.104,0.317,0.104c0.102,0,0.193-0.025,0.256-0.042
		c0.026-0.007,2.689-0.899,2.887-1.38c0.064-0.16,0.063-0.336-0.002-0.498C13.611,7.46,13.61,7.458,13.609,7.456z M10.963,8.2
		c0.032-0.336,0.093-0.868,0.207-1.708c0.348,0.104,0.974,0.43,1.361,1.051C12.13,7.73,11.45,8.014,10.963,8.2z"/>
	<path d="M19.474,12.997h-3.97c-0.276,0-0.5,0.224-0.5,0.5s0.224,0.5,0.5,0.5h3.97c0.276,0,0.5-0.224,0.5-0.5
		S19.75,12.997,19.474,12.997z"/>
	<path d="M19.474,9.997h-3.97c-0.276,0-0.5,0.224-0.5,0.5s0.224,0.5,0.5,0.5h3.97c0.276,0,0.5-0.224,0.5-0.5
		S19.75,9.997,19.474,9.997z"/>
	<path d="M15.004,7.496c0,0.276,0.224,0.5,0.5,0.5h3.97c0.276,0,0.5-0.224,0.5-0.5s-0.224-0.5-0.5-0.5h-3.97
		C15.228,6.996,15.004,7.22,15.004,7.496z"/>
</g>
</svg>
