<?xml version="1.0" encoding="utf-8"?>
<!-- Generator: Adobe Illustrator 19.2.0, SVG Export Plug-In . SVG Version: 6.00 Build 0)  -->
<svg version="1.1" id="Layer_1" xmlns="http://www.w3.org/2000/svg" xmlns:xlink="http://www.w3.org/1999/xlink" x="0px" y="0px"
	 width="24px" height="24px" viewBox="0 0 24 24" style="enable-background:new 0 0 24 24;" xml:space="preserve">
<g>
	<path d="M20.83,10.084c-0.247-0.132-0.28-0.146-9.415,2.631l2.296-9.309c0.032-0.128,0.011-0.265-0.058-0.378
		c-0.068-0.113-0.18-0.195-0.308-0.227C7.652,1.398,1.88,4.886,0.475,10.578C-0.93,16.271,2.559,22.046,8.251,23.45
		c0.851,0.21,1.711,0.313,2.566,0.313c1.914,0,3.798-0.521,5.479-1.536c2.432-1.469,4.145-3.797,4.825-6.554
		c0.428-1.734,0.411-3.559-0.047-5.279C21.04,10.262,20.95,10.149,20.83,10.084z M20.151,15.433
		c-0.616,2.499-2.169,4.607-4.371,5.938c-2.202,1.33-4.791,1.724-7.29,1.107c-5.157-1.272-8.318-6.504-7.045-11.662
		C2.528,6.432,6.473,3.49,10.8,3.49c0.601,0,1.209,0.057,1.818,0.174l-2.384,9.665c-0.043,0.175,0.011,0.359,0.142,0.483
		c0.13,0.123,0.317,0.167,0.489,0.115c3.212-0.977,7.895-2.388,9.358-2.797C20.522,12.545,20.499,14.022,20.151,15.433z"/>
	<path d="M23.669,6.505c-0.911-3.137-3.44-5.574-6.604-6.362c-0.273-0.066-0.54,0.096-0.606,0.365l-2.1,8.431
		c-0.043,0.173,0.01,0.356,0.138,0.48c0.095,0.091,0.22,0.14,0.348,0.14c0.046,0,0.093-0.006,0.138-0.02l8.351-2.396
		c0.144-0.041,0.261-0.143,0.32-0.279C23.702,6.75,23.708,6.621,23.669,6.505z M15.538,8.34l1.766-7.091
		c2.44,0.771,4.396,2.659,5.257,5.076L15.538,8.34z"/>
</g>
</svg>
