<?xml version="1.0" encoding="utf-8"?>
<!-- Generator: Adobe Illustrator 19.2.0, SVG Export Plug-In . SVG Version: 6.00 Build 0)  -->
<svg version="1.1" id="Layer_1" xmlns="http://www.w3.org/2000/svg" xmlns:xlink="http://www.w3.org/1999/xlink" x="0px" y="0px"
	 width="24px" height="24px" viewBox="0 0 24 24" style="enable-background:new 0 0 24 24;" xml:space="preserve">
<g>
	<path d="M5.78,7H1.192C0.539,7-0.014,7.558-0.014,8.22v14.605c0,0.659,0.53,1.175,1.206,1.175H5.78
		c0.666,0,1.207-0.527,1.207-1.175V8.22C6.986,7.558,6.434,7,5.78,7z M5.986,22.825C5.986,22.934,5.881,23,5.78,23H1.192
		c-0.1,0-0.206-0.062-0.206-0.175V8.22c0-0.113,0.1-0.22,0.206-0.22H5.78c0.104,0,0.207,0.109,0.207,0.22V22.825z"/>
	<path d="M13.78,12.001H9.193c-0.653,0-1.206,0.559-1.206,1.22v9.604c0,0.659,0.53,1.175,1.206,1.175h4.587
		c0.666,0,1.207-0.527,1.207-1.175V13.22C14.987,12.559,14.435,12.001,13.78,12.001z M13.987,22.825
		c0,0.109-0.105,0.175-0.207,0.175H9.193c-0.1,0-0.206-0.062-0.206-0.175V13.22c0-0.113,0.1-0.22,0.206-0.22h4.587
		c0.104,0,0.207,0.109,0.207,0.22V22.825z"/>
	<path d="M21.781,1.999h-4.588c-0.653,0-1.205,0.559-1.205,1.22v19.605c0,0.659,0.529,1.175,1.205,1.175h4.588
		c0.666,0,1.207-0.527,1.207-1.175V3.219C22.988,2.558,22.436,1.999,21.781,1.999z M21.988,22.825c0,0.109-0.105,0.175-0.207,0.175
		h-4.588c-0.1,0-0.205-0.062-0.205-0.175V3.219c0-0.113,0.1-0.22,0.205-0.22h4.588c0.104,0,0.207,0.109,0.207,0.22V22.825z"/>
</g>
</svg>
