<?xml version="1.0" encoding="utf-8"?>
<!-- Generator: Adobe Illustrator 19.2.0, SVG Export Plug-In . SVG Version: 6.00 Build 0)  -->
<svg version="1.1" id="Layer_1" xmlns="http://www.w3.org/2000/svg" xmlns:xlink="http://www.w3.org/1999/xlink" x="0px" y="0px"
	 width="24px" height="24px" viewBox="0 0 24 24" style="enable-background:new 0 0 24 24;" xml:space="preserve">
<g>
	<path d="M4.798,5.947H23.27c0.203,0,0.386-0.123,0.463-0.31c0.076-0.188,0.033-0.403-0.111-0.545L20.629,2.13
		c-0.094-0.092-0.22-0.145-0.352-0.145L7.821,1.982c-0.131,0-0.257,0.051-0.35,0.143L4.448,5.09
		C4.303,5.232,4.259,5.448,4.335,5.636S4.595,5.947,4.798,5.947z M8.025,2.982l12.046,0.003l1.982,1.961H6.022L8.025,2.982z"/>
	<path d="M23.136,17.672c-0.5-0.357-1.135-0.401-1.743-0.124l-3.901,1.779c-0.202-0.235-0.478-0.428-0.85-0.537l-5.53-1.622
		c-0.92-0.27-3.464-0.421-6.063-0.074V16.5c0-0.276-0.224-0.5-0.5-0.5h-4c-0.276,0-0.5,0.224-0.5,0.5v7c0,0.276,0.224,0.5,0.5,0.5h4
		c0.276,0,0.5-0.224,0.5-0.5v-1.06l0.02-0.005c0.667-0.183,1.672-0.455,2.161-0.239c2.658,1.189,5.214,1.579,7.099,1.579
		c1.249,0,2.203-0.171,2.694-0.396l5.852-2.668c0.586-0.267,0.955-0.769,1.014-1.377C23.95,18.694,23.654,18.042,23.136,17.672z
		 M4.048,23h-3v-6h3V23z M22.46,19.801l-5.852,2.668c-0.921,0.421-4.809,0.676-8.971-1.186C6.894,20.95,5.9,21.175,5.048,21.404
		v-3.302c2.558-0.358,5.052-0.19,5.781,0.025l5.531,1.622c0.249,0.073,0.39,0.215,0.464,0.376c0.005,0.016,0.004,0.033,0.011,0.049
		c0.003,0.006,0.009,0.01,0.012,0.016c0.053,0.159,0.051,0.333,0.007,0.485c-0.057,0.193-0.175,0.358-0.324,0.453
		c-0.165,0.104-0.362,0.12-0.587,0.056l-5.81-1.705c-0.266-0.076-0.543,0.074-0.621,0.339s0.074,0.543,0.339,0.62l5.81,1.705
		c0.179,0.053,0.356,0.079,0.531,0.079c0.312,0,0.611-0.084,0.872-0.249c0.356-0.226,0.622-0.587,0.748-1.017
		c0.067-0.229,0.087-0.47,0.065-0.707l3.929-1.792c0.286-0.132,0.539-0.123,0.748,0.028c0.227,0.161,0.365,0.471,0.338,0.752
		C22.868,19.492,22.723,19.68,22.46,19.801z"/>
	<path d="M4.798,9.948H23.27c0.203,0,0.386-0.123,0.463-0.31c0.076-0.187,0.033-0.403-0.111-0.545l-2-1.98
		c-0.196-0.194-0.513-0.193-0.707,0.004c-0.194,0.196-0.192,0.513,0.004,0.707l1.136,1.125H6.022l1.145-1.123
		c0.197-0.193,0.2-0.51,0.007-0.707C6.979,6.92,6.663,6.917,6.467,7.111l-2.019,1.98C4.303,9.233,4.259,9.448,4.335,9.636
		S4.595,9.948,4.798,9.948z"/>
	<path d="M4.798,13.948H23.27c0.203,0,0.386-0.122,0.463-0.31c0.076-0.188,0.033-0.403-0.111-0.546l-2-1.98
		c-0.196-0.194-0.513-0.192-0.707,0.004c-0.194,0.196-0.192,0.513,0.004,0.707l1.136,1.125H6.022l1.145-1.123
		c0.197-0.193,0.2-0.51,0.007-0.707c-0.195-0.198-0.511-0.201-0.707-0.007l-2.019,1.98c-0.145,0.142-0.189,0.358-0.113,0.546
		C4.412,13.825,4.595,13.948,4.798,13.948z"/>
</g>
</svg>
