<?xml version="1.0" encoding="utf-8"?>
<!-- Generator: Adobe Illustrator 19.2.0, SVG Export Plug-In . SVG Version: 6.00 Build 0)  -->
<svg version="1.1" id="Layer_1" xmlns="http://www.w3.org/2000/svg" xmlns:xlink="http://www.w3.org/1999/xlink" x="0px" y="0px"
	 width="24px" height="24px" viewBox="0 0 24 24" style="enable-background:new 0 0 24 24;" xml:space="preserve">
<g>
	<path d="M22.925,12.117L19.979,4.38C19.88,4.145,19.652,4,19.384,4H7.007V3.642c0-0.251,0.098-0.488,0.275-0.666L8.82,1.438
		c0.215-0.215,0.522-0.315,0.822-0.263l1.567,0.263c0.272,0.046,0.53-0.138,0.576-0.411c0.045-0.272-0.138-0.53-0.411-0.576
		L9.808,0.189C9.189,0.084,8.556,0.288,8.113,0.731L6.575,2.27C6.208,2.636,6.007,3.124,6.007,3.642V4h-1.42
		C4.322,4,4.088,4.155,3.985,4.406L1.05,12.102c-0.081,0.201-0.055,0.43,0.068,0.613C1.239,12.893,1.437,13,1.648,13h9.837v6.945
		c-2.02,0.091-3.899,0.731-3.899,1.933c0,1.301,2.213,1.981,4.399,1.981c2.187,0,4.399-0.681,4.399-1.981
		c0-1.202-1.879-1.841-3.899-1.933V13h9.837c0.213,0,0.411-0.106,0.532-0.285C22.976,12.534,23.001,12.308,22.925,12.117z
		 M15.385,21.878c0,0.285-1.191,0.981-3.399,0.981s-3.399-0.696-3.399-0.981c0-0.262,1.019-0.866,2.899-0.962v0.902
		c0,0.276,0.224,0.5,0.5,0.5s0.5-0.224,0.5-0.5v-0.902C14.366,21.012,15.385,21.615,15.385,21.878z M2.159,12l2.67-7h1.178v1.555
		c0,0.276,0.224,0.5,0.5,0.5s0.5-0.224,0.5-0.5V5h12.139l2.664,7H2.159z"/>
	<path d="M14.795,7H9.17C8.926,7,8.718,7.176,8.677,7.416l-0.509,3c-0.024,0.145,0.016,0.293,0.111,0.406
		C8.374,10.935,8.513,11,8.661,11h6.644c0.147,0,0.287-0.065,0.382-0.177c0.095-0.113,0.136-0.261,0.111-0.407l-0.51-3
		C15.247,7.176,15.039,7,14.795,7z M9.592,8h1.89v2h-2.23L9.592,8z M12.482,10V8h1.891l0.34,2H12.482z"/>
</g>
</svg>
