<?xml version="1.0" encoding="utf-8"?>
<!-- Generator: Adobe Illustrator 19.2.0, SVG Export Plug-In . SVG Version: 6.00 Build 0)  -->
<svg version="1.1" id="Layer_1" xmlns="http://www.w3.org/2000/svg" xmlns:xlink="http://www.w3.org/1999/xlink" x="0px" y="0px"
	 width="24px" height="24px" viewBox="0 0 24 24" style="enable-background:new 0 0 24 24;" xml:space="preserve">
<path d="M21.87,8.622c-0.896,0-1.625,0.729-1.625,1.625c0,0.291,0.083,0.56,0.217,0.797l-4.537,4.95
	c-0.206-0.095-0.433-0.151-0.674-0.151c-0.145,0-0.283,0.025-0.416,0.061L9.887,8.258c0.228-0.28,0.37-0.631,0.37-1.019
	c0-0.896-0.729-1.625-1.625-1.625c-0.896,0-1.625,0.729-1.625,1.625c0,0.147,0.026,0.287,0.063,0.422l-4.026,2.543
	c-0.281-0.233-0.637-0.379-1.03-0.379c-0.896,0-1.625,0.729-1.625,1.625c0,0.896,0.729,1.625,1.625,1.625
	c0.896,0,1.625-0.729,1.625-1.625c0-0.14-0.023-0.273-0.057-0.403l4.036-2.549c0.279,0.225,0.629,0.366,1.015,0.366
	c0.145,0,0.283-0.025,0.416-0.061l4.947,7.646c-0.228,0.28-0.37,0.631-0.37,1.02c0,0.896,0.729,1.625,1.625,1.625
	s1.626-0.729,1.626-1.625c0-0.291-0.083-0.56-0.217-0.797l4.537-4.95c0.206,0.094,0.433,0.15,0.674,0.15
	c0.896,0,1.626-0.729,1.626-1.625C23.496,9.351,22.767,8.622,21.87,8.622z M2.013,12.076c-0.345,0-0.625-0.281-0.625-0.625
	s0.281-0.625,0.625-0.625s0.625,0.28,0.625,0.625S2.358,12.076,2.013,12.076z M8.007,7.239c0-0.345,0.281-0.625,0.625-0.625
	s0.625,0.281,0.625,0.625s-0.28,0.625-0.625,0.625S8.007,7.584,8.007,7.239z M15.251,18.094c-0.345,0-0.625-0.28-0.625-0.625
	s0.28-0.625,0.625-0.625s0.626,0.28,0.626,0.625S15.596,18.094,15.251,18.094z M21.87,10.873c-0.345,0-0.625-0.28-0.625-0.625
	s0.28-0.625,0.625-0.625s0.626,0.281,0.626,0.625S22.215,10.873,21.87,10.873z"/>
</svg>
