<?xml version="1.0" encoding="utf-8"?>
<!-- Generator: Adobe Illustrator 19.2.0, SVG Export Plug-In . SVG Version: 6.00 Build 0)  -->
<svg version="1.1" id="Layer_1" xmlns="http://www.w3.org/2000/svg" xmlns:xlink="http://www.w3.org/1999/xlink" x="0px" y="0px"
	 width="24px" height="24px" viewBox="0 0 24 24" style="enable-background:new 0 0 24 24;" xml:space="preserve">
<path d="M20.2,18.1c-0.505,0-0.974,0.141-1.388,0.369L12,10.712V5.949c1.361-0.238,2.4-1.421,2.4-2.849c0-1.599-1.301-2.9-2.9-2.9
	c-1.599,0-2.9,1.301-2.9,2.9c0,1.428,1.039,2.611,2.4,2.849v4.77l-6.495,7.814C4.065,18.264,3.553,18.1,3,18.1
	c-1.599,0-2.9,1.301-2.9,2.899c0,1.6,1.301,2.9,2.9,2.9s2.9-1.301,2.9-2.9c0-0.685-0.249-1.307-0.647-1.803L11,12.283v5.867
	C9.639,18.389,8.6,19.572,8.6,21c0,1.6,1.301,2.9,2.9,2.9c1.6,0,2.9-1.301,2.9-2.9c0-1.427-1.039-2.61-2.4-2.849v-5.923l6.03,6.868
	C17.581,19.606,17.3,20.268,17.3,21c0,1.6,1.301,2.9,2.9,2.9c1.599,0,2.899-1.301,2.899-2.9C23.1,19.401,21.799,18.1,20.2,18.1z
	 M3,22.9c-1.048,0-1.9-0.853-1.9-1.9C1.1,19.953,1.952,19.1,3,19.1S4.9,19.953,4.9,21C4.9,22.048,4.048,22.9,3,22.9z M9.6,3.1
	c0-1.048,0.852-1.9,1.9-1.9s1.9,0.852,1.9,1.9S12.548,5,11.5,5S9.6,4.148,9.6,3.1z M13.4,21c0,1.048-0.853,1.9-1.9,1.9
	S9.6,22.048,9.6,21c0-1.047,0.852-1.899,1.9-1.899S13.4,19.953,13.4,21z M20.2,22.9c-1.048,0-1.9-0.853-1.9-1.9
	c0-1.047,0.853-1.899,1.9-1.899c1.047,0,1.899,0.853,1.899,1.899C22.1,22.048,21.247,22.9,20.2,22.9z"/>
</svg>
