<?xml version="1.0" encoding="utf-8"?>
<!-- Generator: Adobe Illustrator 19.2.0, SVG Export Plug-In . SVG Version: 6.00 Build 0)  -->
<svg version="1.1" id="Layer_1" xmlns="http://www.w3.org/2000/svg" xmlns:xlink="http://www.w3.org/1999/xlink" x="0px" y="0px"
	 width="24px" height="24px" viewBox="0 0 24 24" style="enable-background:new 0 0 24 24;" xml:space="preserve">
<g>
	<path d="M21.486,12c-0.276,0-0.5,0.224-0.5,0.5v5.854c0,0.923-0.771,1.646-1.755,1.646H2.703c-0.963,0-1.717-0.723-1.717-1.646
		V6.74C0.986,5.781,1.756,5,2.703,5h11.752c0.276,0,0.5-0.224,0.5-0.5S14.731,4,14.455,4H2.703C1.205,4-0.014,5.229-0.014,6.74
		v11.614C-0.014,19.838,1.18,21,2.703,21h16.528c1.519,0,2.755-1.187,2.755-2.646V12.5C21.986,12.223,21.763,12,21.486,12z"/>
	<path d="M2.986,14.5v3c0,0.276,0.224,0.5,0.5,0.5s0.5-0.224,0.5-0.5v-3c0-0.276-0.224-0.5-0.5-0.5S2.986,14.223,2.986,14.5z"/>
	<path d="M17.986,17.5v-3c0-0.276-0.224-0.5-0.5-0.5s-0.5,0.224-0.5,0.5v3c0,0.276,0.224,0.5,0.5,0.5S17.986,17.776,17.986,17.5z"/>
	<path d="M10.986,8.5v9c0,0.276,0.224,0.5,0.5,0.5s0.5-0.224,0.5-0.5v-9c0-0.276-0.224-0.5-0.5-0.5S10.986,8.223,10.986,8.5z"/>
	<path d="M4.986,12.5v5c0,0.276,0.224,0.5,0.5,0.5s0.5-0.224,0.5-0.5v-5c0-0.276-0.224-0.5-0.5-0.5S4.986,12.223,4.986,12.5z"/>
	<path d="M8.986,12.5v5c0,0.276,0.224,0.5,0.5,0.5s0.5-0.224,0.5-0.5v-5c0-0.276-0.224-0.5-0.5-0.5S8.986,12.223,8.986,12.5z"/>
	<path d="M15.486,18c0.276,0,0.5-0.224,0.5-0.5v-5c0-0.276-0.224-0.5-0.5-0.5s-0.5,0.224-0.5,0.5v5
		C14.986,17.776,15.21,18,15.486,18z"/>
	<path d="M12.986,13.5v4c0,0.276,0.224,0.5,0.5,0.5s0.5-0.224,0.5-0.5v-4c0-0.276-0.224-0.5-0.5-0.5S12.986,13.223,12.986,13.5z"/>
	<path d="M6.986,10.5v7c0,0.276,0.224,0.5,0.5,0.5s0.5-0.224,0.5-0.5v-7c0-0.276-0.224-0.5-0.5-0.5S6.986,10.223,6.986,10.5z"/>
	<path d="M19.55,2.248c-2.35,0-4.262,1.912-4.262,4.262s1.912,4.262,4.262,4.262s4.262-1.912,4.262-4.262S21.899,2.248,19.55,2.248z
		 M19.55,9.772c-1.799,0-3.262-1.463-3.262-3.262s1.463-3.262,3.262-3.262s3.262,1.463,3.262,3.262S21.349,9.772,19.55,9.772z"/>
	<path d="M19.84,4.647C19.75,4.556,19.625,4.5,19.486,4.5s-0.264,0.056-0.354,0.147l-1.578,1.578c-0.195,0.195-0.195,0.512,0,0.707
		s0.512,0.195,0.707,0l0.725-0.725V8c0,0.276,0.224,0.5,0.5,0.5s0.5-0.224,0.5-0.5V6.207l0.725,0.725
		c0.098,0.098,0.226,0.146,0.354,0.146s0.256-0.049,0.354-0.146c0.195-0.195,0.195-0.512,0-0.707L19.84,4.647z"/>
</g>
</svg>
