<?xml version="1.0" encoding="utf-8"?>
<!-- Generator: Adobe Illustrator 19.2.0, SVG Export Plug-In . SVG Version: 6.00 Build 0)  -->
<svg version="1.1" id="Layer_1" xmlns="http://www.w3.org/2000/svg" xmlns:xlink="http://www.w3.org/1999/xlink" x="0px" y="0px"
	 width="24px" height="24px" viewBox="0 0 24 24" style="enable-background:new 0 0 24 24;" xml:space="preserve">
<g>
	<path d="M20.49,14.631c-0.276,0-0.5,0.224-0.5,0.5l-0.001,8.295c0,0.276,0.224,0.5,0.5,0.5s0.5-0.224,0.5-0.5l0.001-8.295
		C20.99,14.854,20.767,14.631,20.49,14.631z"/>
	<path d="M20.49,5.295c1.113,0,1.853-1.399,1.853-2.325c0-1.036-0.831-1.879-1.853-1.879c-1.022,0-1.854,0.843-1.854,1.879
		C18.637,3.895,19.376,5.295,20.49,5.295z M20.49,2.091c0.47,0,0.853,0.394,0.853,0.879c0,0.582-0.479,1.325-0.853,1.325
		c-0.375,0-0.854-0.743-0.854-1.325C19.637,2.485,20.02,2.091,20.49,2.091z"/>
	<path d="M23.364,5.677c-0.055-0.046-0.119-0.081-0.188-0.101c-0.093-0.026-0.199-0.035-0.717-0.056l-0.267-0.012
		c-0.456-0.032-0.845,0.217-1.059,0.64c-0.244,0.486-1.046,0.483-1.29,0.001c-0.212-0.423-0.622-0.667-1.058-0.641
		c-0.215,0.014-5.108,0.825-5.846,0.949c-0.5,0.085-0.836,0.502-0.817,1.014c0.019,0.505,0.394,0.905,0.89,0.952l4.69,0.438
		l0.001,4.786l0.535,9.808c0.015,0.267,0.235,0.473,0.499,0.473c0.009,0,0.018,0,0.027-0.001c0.275-0.015,0.487-0.251,0.472-0.526
		l-0.534-9.78V8.404c0-0.258-0.196-0.474-0.453-0.498l-5.144-0.463c1.472-0.248,5.507-0.911,5.743-0.937
		c0.038,0.015,0.073,0.037,0.102,0.093c0.273,0.541,0.862,0.877,1.538,0.877c0.675,0,1.264-0.336,1.537-0.877
		c0.028-0.056,0.066-0.1,0.103-0.093l0.288,0.013c0.102,0.004,0.214,0.009,0.306,0.012c0.118,0.409,0.36,1.837,0.206,6.508
		c-0.153,0-0.318,0.03-0.459,0.152c-0.103,0.089-0.188,0.265-0.194,0.399l-0.535,9.809c-0.016,0.275,0.196,0.512,0.472,0.526
		c0.314,0.033,0.512-0.196,0.526-0.472l0.513-9.391c0.154-0.001,0.325-0.025,0.47-0.15c0.104-0.091,0.187-0.267,0.192-0.404
		C24.176,6.367,23.586,5.865,23.364,5.677z"/>
	<path d="M15.989,18h-15V2h16c0.276,0,0.5-0.224,0.5-0.5S17.266,1,16.989,1h-1V0.519c0-0.276-0.224-0.5-0.5-0.5s-0.5,0.224-0.5,0.5
		V1h-5V0.519c0-0.276-0.224-0.5-0.5-0.5s-0.5,0.224-0.5,0.5V1h-8.5c-0.276,0-0.5,0.224-0.5,0.5v17c0,0.276,0.224,0.5,0.5,0.5h15.5
		c0.276,0,0.5-0.224,0.5-0.5S16.266,18,15.989,18z"/>
	<path d="M14.989,23h-2v-2.374c0-0.276-0.224-0.5-0.5-0.5s-0.5,0.224-0.5,0.5V23h-3c-0.276,0-0.5,0.224-0.5,0.5s0.224,0.5,0.5,0.5h6
		c0.276,0,0.5-0.224,0.5-0.5S15.266,23,14.989,23z"/>
	<path d="M7.502,11h-4c-0.276,0-0.5,0.224-0.5,0.5v4c0,0.276,0.224,0.5,0.5,0.5h4c0.276,0,0.5-0.224,0.5-0.5v-4
		C8.002,11.223,7.779,11,7.502,11z M7.002,15h-3v-3h3V15z"/>
	<path d="M8.002,4.499c0-0.276-0.224-0.5-0.5-0.5h-4c-0.276,0-0.5,0.224-0.5,0.5v4c0,0.276,0.224,0.5,0.5,0.5h4
		c0.276,0,0.5-0.224,0.5-0.5V4.499z M7.002,7.999h-3v-3h3V7.999z"/>
	<path d="M14.856,5.5c0-0.276-0.224-0.5-0.5-0.5H9.578c-0.276,0-0.5,0.224-0.5,0.5S9.302,6,9.578,6h4.778
		C14.633,6,14.856,5.776,14.856,5.5z"/>
	<path d="M14.856,12.5c0-0.276-0.224-0.5-0.5-0.5H9.578c-0.276,0-0.5,0.224-0.5,0.5s0.224,0.5,0.5,0.5h4.778
		C14.633,13,14.856,12.776,14.856,12.5z"/>
	<path d="M10.504,7H9.578c-0.276,0-0.5,0.224-0.5,0.5S9.302,8,9.578,8h0.926c0.276,0,0.5-0.224,0.5-0.5S10.781,7,10.504,7z"/>
	<path d="M9.578,14c-0.276,0-0.5,0.224-0.5,0.5s0.224,0.5,0.5,0.5h0.926c0.276,0,0.5-0.224,0.5-0.5s-0.224-0.5-0.5-0.5H9.578z"/>
</g>
</svg>
