<?xml version="1.0" encoding="utf-8"?>
<!-- Generator: Adobe Illustrator 19.2.0, SVG Export Plug-In . SVG Version: 6.00 Build 0)  -->
<svg version="1.1" id="Layer_1" xmlns="http://www.w3.org/2000/svg" xmlns:xlink="http://www.w3.org/1999/xlink" x="0px" y="0px"
	 width="24px" height="24px" viewBox="0 0 24 24" style="enable-background:new 0 0 24 24;" xml:space="preserve">
<g>
	<path d="M17.562,3.606c0.276,0,0.5-0.224,0.5-0.5v-1.5c0-0.276-0.224-0.5-0.5-0.5s-0.5,0.224-0.5,0.5v1.5
		C17.062,3.382,17.286,3.606,17.562,3.606z"/>
	<path d="M17.563,15.188c-0.276,0-0.5,0.224-0.5,0.5v1.952c0,0.276,0.224,0.5,0.5,0.5s0.5-0.224,0.5-0.5v-1.952
		C18.063,15.412,17.84,15.188,17.563,15.188z"/>
	<path d="M17.563,20.394c-0.276,0-0.5,0.224-0.5,0.5v1.5c0,0.276,0.224,0.5,0.5,0.5s0.5-0.224,0.5-0.5v-1.5
		C18.063,20.618,17.84,20.394,17.563,20.394z"/>
	<path d="M23.888,10.88L20.87,6.369c-0.092-0.137-0.246-0.22-0.411-0.222c-0.001,0-0.003,0-0.005,0c-0.163,0-0.316,0.08-0.41,0.213
		l-1.266,1.809c-0.205-0.178-0.447-0.31-0.716-0.385V6.708c0-0.276-0.224-0.5-0.5-0.5s-0.5,0.224-0.5,0.5v1.077
		c-0.569,0.16-1.028,0.579-1.236,1.127l-1.141-0.674c-0.132-0.078-0.292-0.091-0.434-0.036c-0.143,0.055-0.253,0.172-0.298,0.318
		l-1.483,4.783l-2.525-1.178c-0.238-0.109-0.521-0.019-0.649,0.211l-2.906,5.242l-2.49-2.355c-0.106-0.101-0.252-0.152-0.396-0.134
		c-0.145,0.016-0.276,0.094-0.359,0.214l-2.958,4.303c-0.156,0.228-0.099,0.539,0.129,0.695c0.086,0.06,0.185,0.088,0.283,0.088
		c0.159,0,0.315-0.076,0.413-0.217l2.626-3.821l2.533,2.397c0.113,0.106,0.267,0.155,0.42,0.131
		c0.153-0.023,0.286-0.116,0.361-0.252l2.993-5.398l2.622,1.223c0.131,0.061,0.28,0.062,0.414,0.004
		c0.132-0.059,0.232-0.171,0.275-0.309l1.465-4.727l1.045,0.617c0.167,0.639,0.662,1.141,1.297,1.319v1.077
		c0,0.276,0.224,0.5,0.5,0.5s0.5-0.224,0.5-0.5v-1.077c0.784-0.22,1.363-0.933,1.363-1.786c0-0.167-0.029-0.327-0.071-0.481
		l1.09-1.557l2.61,3.904c0.097,0.145,0.255,0.222,0.416,0.222c0.096,0,0.192-0.027,0.278-0.084
		C23.979,11.42,24.041,11.11,23.888,10.88z M17.563,10.434c-0.476,0-0.863-0.387-0.863-0.863c0-0.476,0.388-0.863,0.863-0.863
		s0.863,0.387,0.863,0.863C18.427,10.047,18.039,10.434,17.563,10.434z"/>
</g>
</svg>
