<?xml version="1.0" encoding="utf-8"?>
<!-- Generator: Adobe Illustrator 19.2.0, SVG Export Plug-In . SVG Version: 6.00 Build 0)  -->
<svg version="1.1" id="Layer_1" xmlns="http://www.w3.org/2000/svg" xmlns:xlink="http://www.w3.org/1999/xlink" x="0px" y="0px"
	 width="24px" height="24px" viewBox="0 0 24 24" style="enable-background:new 0 0 24 24;" xml:space="preserve">
<path d="M23.905,13.419l-2.129-7.517c-0.075-0.265-0.352-0.422-0.617-0.345l-3.63,1.028c-0.128,0.036-0.236,0.121-0.301,0.237
	c-0.034,0.061-0.053,0.127-0.059,0.195l-0.68,0.206C13.2,5.568,11.757,5.9,11.658,5.934c-0.582,0.092-1.096,0.285-1.552,0.538
	c-1.672,0.039-2.682,0.12-3.3,0.219C6.752,6.548,6.641,6.429,6.483,6.385l-3.63-1.028C2.727,5.321,2.59,5.336,2.473,5.401
	c-0.116,0.064-0.201,0.173-0.237,0.3l-2.129,7.517c-0.075,0.266,0.079,0.542,0.345,0.618l3.63,1.028
	c0.045,0.013,0.09,0.019,0.136,0.019c0.084,0,0.168-0.021,0.244-0.063c0.116-0.064,0.201-0.173,0.237-0.3l0.266-0.938
	c1.464,1.925,4.713,4.465,5.134,4.79c0.383,0.324,0.769,0.456,1.118,0.456c0.431,0,0.807-0.202,1.053-0.492
	c0.11-0.13,0.194-0.283,0.253-0.447l0.19,0.165c0.338,0.286,0.719,0.435,1.093,0.435c0.159,0,0.316-0.026,0.47-0.081
	c0.457-0.165,0.819-0.571,0.947-1.054c0.275,0.068,0.565,0.06,0.846-0.042c0.549-0.197,0.971-0.695,1.075-1.271
	c0.012-0.066,0.02-0.133,0.022-0.199c0.412-0.042,0.792-0.263,1.059-0.577c0.173-0.205,0.295-0.451,0.355-0.712
	c0.201-0.002,0.43-0.027,0.657-0.103l0.077,0.271c0.036,0.127,0.122,0.235,0.237,0.3c0.075,0.042,0.159,0.063,0.244,0.063
	c0.046,0,0.092-0.006,0.137-0.019l3.63-1.028C23.826,13.962,23.98,13.685,23.905,13.419z M3.874,13.765L1.205,13.01l1.856-6.555
	L5.73,7.21L3.874,13.765z M17.461,14.619c-0.061,0.071-0.379,0.411-0.759,0.093l-0.07-0.061c-0.004-0.003-0.007-0.007-0.011-0.01
	c-0.001-0.001-0.002-0.001-0.002-0.001l-2.141-1.799c-0.211-0.177-0.526-0.149-0.704,0.061c-0.178,0.211-0.15,0.527,0.062,0.705
	l2.139,1.797l0.001,0.001l0.005,0.004c0.152,0.131,0.211,0.279,0.18,0.454c-0.04,0.219-0.22,0.432-0.429,0.507
	c-0.169,0.062-0.326,0.024-0.482-0.107l-0.522-0.441c-0.001-0.001-0.002-0.001-0.003-0.001c-0.024-0.032-0.044-0.067-0.076-0.093
	L12.9,14.298c-0.214-0.176-0.528-0.144-0.704,0.07c-0.175,0.214-0.143,0.528,0.071,0.703l1.744,1.427
	c0.022,0.029,0.039,0.062,0.068,0.087c0,0,0,0,0.001,0v0.001c0.192,0.163,0.206,0.347,0.184,0.472
	c-0.034,0.186-0.165,0.35-0.327,0.408c-0.213,0.075-0.434-0.053-0.573-0.172l-2.07-1.797c-0.024-0.021-0.053-0.03-0.08-0.045
	c-0.027-0.016-0.052-0.035-0.081-0.046c-0.03-0.011-0.061-0.012-0.091-0.016c-0.033-0.005-0.065-0.013-0.098-0.012
	c-0.029,0.001-0.056,0.011-0.084,0.018c-0.034,0.008-0.068,0.012-0.101,0.027c-0.028,0.013-0.05,0.034-0.076,0.052
	c-0.025,0.018-0.054,0.029-0.076,0.052c-0.004,0.004-0.005,0.009-0.008,0.012c-0.003,0.003-0.008,0.005-0.011,0.008
	c-0.018,0.021-0.026,0.047-0.04,0.071c-0.018,0.03-0.04,0.058-0.052,0.091c-0.01,0.029-0.011,0.059-0.016,0.09
	c-0.005,0.033-0.014,0.065-0.012,0.098c0.001,0.032,0.012,0.061,0.019,0.092c0.007,0.031,0.011,0.063,0.025,0.093
	c0.014,0.032,0.038,0.058,0.059,0.086c0.016,0.022,0.025,0.047,0.045,0.066l0.786,0.762c0.276,0.233,0.247,0.523,0.103,0.694
	c-0.176,0.207-0.46,0.176-0.779-0.095c-1.319-1.02-4.77-3.892-5.4-5.293l1.291-4.558c0.231-0.058,0.828-0.157,2.214-0.224
	C8.359,8.074,8.035,8.701,7.89,9.305c-0.226,0.936-0.031,1.735,0.521,2.137c0.309,0.226,0.673,0.307,1.058,0.238
	c0.885-0.163,1.692-1.129,2.039-1.601c0.341-0.016,0.733-0.124,1.024-0.22l4.896,3.992c0.083,0.07,0.13,0.143,0.159,0.215
	c0.003,0.026,0.015,0.049,0.022,0.075C17.653,14.367,17.504,14.568,17.461,14.619z M18.447,13.551
	c-0.089-0.165-0.21-0.325-0.38-0.469l-5.123-4.176c-0.14-0.113-0.33-0.145-0.495-0.079c-0.414,0.159-0.916,0.284-1.053,0.256
	C11.185,9.021,10.96,9.107,10.84,9.29c-0.323,0.493-1.031,1.312-1.553,1.407C9.173,10.716,9.088,10.699,9,10.635
	c-0.205-0.149-0.26-0.589-0.138-1.095c0.269-1.114,1.286-2.355,3-2.628c0.011-0.002,1.301-0.278,4.35,1.293
	c0.117,0.061,0.252,0.072,0.374,0.034l0.821-0.249l1.555,5.491C18.796,13.552,18.6,13.561,18.447,13.551z M20.139,13.967
	l-1.856-6.556l2.668-0.755l1.856,6.555L20.139,13.967z"/>
</svg>
