<?xml version="1.0" encoding="utf-8"?>
<!-- Generator: Adobe Illustrator 19.2.0, SVG Export Plug-In . SVG Version: 6.00 Build 0)  -->
<svg version="1.1" id="Layer_1" xmlns="http://www.w3.org/2000/svg" xmlns:xlink="http://www.w3.org/1999/xlink" x="0px" y="0px"
	 width="24px" height="24px" viewBox="0 0 24 24" style="enable-background:new 0 0 24 24;" xml:space="preserve">
<g>
	<path d="M21.744,18.006h-4.588c-0.654,0-1.207,0.559-1.207,1.221v3.604c0,0.647,0.541,1.175,1.207,1.175h4.588
		c0.676,0,1.205-0.516,1.205-1.175v-3.604C22.949,18.564,22.397,18.006,21.744,18.006z M21.949,22.83
		c0,0.113-0.105,0.175-0.205,0.175h-4.588c-0.102,0-0.207-0.065-0.207-0.175v-3.604c0-0.111,0.103-0.221,0.207-0.221h4.588
		c0.105,0,0.205,0.107,0.205,0.221V22.83z"/>
	<path d="M13.743,12.005H9.155c-0.654,0-1.207,0.559-1.207,1.22v9.604c0,0.647,0.541,1.175,1.207,1.175h4.588
		c0.676,0,1.205-0.516,1.205-1.175v-9.604C14.948,12.564,14.396,12.005,13.743,12.005z M13.948,22.83
		c0,0.113-0.105,0.175-0.205,0.175H9.155c-0.102,0-0.207-0.065-0.207-0.175v-9.604c0-0.111,0.103-0.22,0.207-0.22h4.588
		c0.105,0,0.205,0.107,0.205,0.22V22.83z"/>
	<path d="M5.742,2.004H1.155c-0.654,0-1.207,0.559-1.207,1.22V22.83c0,0.647,0.542,1.175,1.207,1.175h4.587
		c0.676,0,1.206-0.516,1.206-1.175V3.224C6.948,2.563,6.396,2.004,5.742,2.004z M5.948,22.83c0,0.113-0.106,0.175-0.206,0.175H1.155
		c-0.102,0-0.207-0.065-0.207-0.175V3.224c0-0.111,0.103-0.22,0.207-0.22h4.587c0.105,0,0.206,0.107,0.206,0.22V22.83z"/>
	<path d="M20.173,11.974h-3.224c-0.276,0-0.5,0.224-0.5,0.5s0.224,0.5,0.5,0.5h4.5c0.276,0,0.5-0.224,0.5-0.5v-4.5
		c0-0.276-0.224-0.5-0.5-0.5s-0.5,0.224-0.5,0.5v3.362l-8.189-8.19c-0.195-0.195-0.512-0.195-0.707,0s-0.195,0.512,0,0.707
		L20.173,11.974z"/>
</g>
</svg>
