<?xml version="1.0" encoding="utf-8"?>
<!-- Generator: Adobe Illustrator 19.2.0, SVG Export Plug-In . SVG Version: 6.00 Build 0)  -->
<svg version="1.1" id="Layer_1" xmlns="http://www.w3.org/2000/svg" xmlns:xlink="http://www.w3.org/1999/xlink" x="0px" y="0px"
	 width="24px" height="24px" viewBox="0 0 24 24" style="enable-background:new 0 0 24 24;" xml:space="preserve">
<path d="M23.494,16.494c-0.001-0.031-0.012-0.06-0.018-0.091c-0.008-0.035-0.013-0.071-0.028-0.103
	c-0.002-0.004-0.001-0.009-0.004-0.013l-4.491-9.012c-0.004-0.009-0.014-0.012-0.019-0.021c-0.034-0.061-0.082-0.111-0.14-0.154
	c-0.019-0.014-0.037-0.026-0.058-0.037c-0.018-0.01-0.031-0.025-0.051-0.032l-6.184-2.378V2.745c0-0.276-0.224-0.5-0.5-0.5
	s-0.5,0.224-0.5,0.5v1.524L5.684,2.031c-0.05-0.019-0.102-0.023-0.153-0.026C5.521,2.005,5.514,1.998,5.504,1.998h0
	C5.502,1.998,5.5,2,5.497,2C5.414,2.001,5.337,2.027,5.265,2.066C5.247,2.076,5.233,2.088,5.216,2.1
	C5.163,2.139,5.12,2.186,5.084,2.245c-0.007,0.012-0.021,0.017-0.027,0.03l-4.52,9.011c-0.002,0.004-0.002,0.009-0.004,0.014
	c-0.015,0.031-0.019,0.066-0.027,0.1c-0.007,0.032-0.018,0.062-0.019,0.094c0,0.005-0.003,0.01-0.003,0.016
	c0,2.468,2.246,4.476,5.006,4.476s5.006-2.008,5.006-4.476c0-0.005-0.003-0.01-0.003-0.015c-0.001-0.032-0.012-0.062-0.019-0.094
	c-0.008-0.035-0.013-0.069-0.027-0.101c-0.002-0.004-0.001-0.009-0.004-0.013L6.525,3.427l4.977,1.914V23H7.455
	c-0.276,0-0.5,0.224-0.5,0.5s0.224,0.5,0.5,0.5h9c0.276,0,0.5-0.224,0.5-0.5s-0.224-0.5-0.5-0.5h-3.953V5.725l5.309,2.042
	l-4.273,8.518c-0.003,0.005-0.002,0.011-0.004,0.016c-0.013,0.029-0.017,0.061-0.025,0.093c-0.008,0.033-0.019,0.065-0.02,0.099
	c0,0.006-0.003,0.01-0.003,0.016c0,2.468,2.246,4.476,5.006,4.476s5.006-2.008,5.006-4.476
	C23.497,16.504,23.494,16.499,23.494,16.494z M5.502,3.616l3.686,7.393H1.795L5.502,3.616z M5.49,14.985
	c-2.013,0-3.685-1.295-3.964-2.976h7.929C9.175,13.69,7.503,14.985,5.49,14.985z M22.19,16.01h-7.393l3.709-7.393L22.19,16.01z
	 M18.491,19.985c-2.014,0-3.685-1.295-3.965-2.976h7.93C22.176,18.69,20.505,19.985,18.491,19.985z"/>
</svg>
