<?xml version="1.0" encoding="utf-8"?>
<!-- Generator: Adobe Illustrator 19.2.0, SVG Export Plug-In . SVG Version: 6.00 Build 0)  -->
<svg version="1.1" id="Layer_1" xmlns="http://www.w3.org/2000/svg" xmlns:xlink="http://www.w3.org/1999/xlink" x="0px" y="0px"
	 width="24px" height="24px" viewBox="0 0 24 24" style="enable-background:new 0 0 24 24;" xml:space="preserve">
<g>
	<path d="M18.485,17.455l-3.114-9.036c-0.09-0.261-0.375-0.399-0.636-0.31c-0.261,0.09-0.399,0.375-0.31,0.636l3.041,8.822
		l-0.41,0.723l-1.038-0.443c-0.256-0.107-0.548,0.01-0.656,0.264s0.01,0.548,0.264,0.656l1.449,0.618
		c0.063,0.027,0.131,0.04,0.196,0.04c0.175,0,0.344-0.093,0.435-0.253l0.741-1.307C18.519,17.74,18.532,17.591,18.485,17.455z"/>
	<path d="M10.295,5.077c0.027,0,0.055-0.002,0.082-0.007c1.04-0.173,2.139-0.184,3.175-0.031c0.202,0.028,0.41-0.07,0.511-0.252
		C15.218,2.7,15.41,1.402,14.64,0.808c-0.094-0.067-2.313-1.626-5.318-0.037C9.297,0.785,9.273,0.801,9.25,0.818
		C8.49,1.406,8.688,2.715,9.858,4.82C9.948,4.98,10.116,5.077,10.295,5.077z M9.844,1.627c2.407-1.246,4.138-0.059,4.197-0.018
		c0.138,0.106,0.131,0.827-0.691,2.395c-0.924-0.106-1.856-0.098-2.782,0.026C9.77,2.515,9.726,1.782,9.844,1.627z"/>
	<path d="M13.198,5.398c-0.275,0.026-0.477,0.27-0.451,0.545l1.378,14.506l-2.1,2.239l-2.248-2.249l1.375-14.468
		c0.026-0.275-0.175-0.519-0.45-0.545c-0.28-0.032-0.519,0.176-0.545,0.45L8.761,20.58c-0.014,0.148,0.039,0.295,0.144,0.4
		l2.779,2.78c0.094,0.094,0.221,0.146,0.354,0.146c0.002,0,0.005,0,0.008,0c0.136-0.002,0.264-0.06,0.357-0.158l2.607-2.78
		c0.099-0.104,0.147-0.246,0.134-0.389l-1.4-14.731C13.717,5.573,13.456,5.368,13.198,5.398z"/>
</g>
</svg>
