<?xml version="1.0" encoding="utf-8"?>
<!-- Generator: Adobe Illustrator 19.2.0, SVG Export Plug-In . SVG Version: 6.00 Build 0)  -->
<svg version="1.1" id="Layer_1" xmlns="http://www.w3.org/2000/svg" xmlns:xlink="http://www.w3.org/1999/xlink" x="0px" y="0px"
	 width="24px" height="24px" viewBox="0 0 24 24" style="enable-background:new 0 0 24 24;" xml:space="preserve">
<g>
	<path d="M4.525,14.89c-0.276,0-0.5,0.224-0.5,0.5l0,8.007c0,0.276,0.224,0.5,0.5,0.5c0.276,0,0.5-0.224,0.5-0.5l0-8.007
		C5.025,15.114,4.802,14.89,4.525,14.89z"/>
	<path d="M4.525,5.913c1.101,0,1.831-1.361,1.831-2.262c0-1.01-0.821-1.831-1.831-1.831S2.694,2.642,2.694,3.652
		C2.694,4.552,3.425,5.913,4.525,5.913z M4.525,2.821c0.458,0,0.831,0.373,0.831,0.831c0,0.554-0.466,1.262-0.831,1.262
		S3.694,4.206,3.694,3.652C3.694,3.194,4.067,2.821,4.525,2.821z"/>
	<path d="M7.353,6.246C7.299,6.202,7.237,6.169,7.17,6.15C7.079,6.124,6.972,6.116,6.459,6.095L6.201,6.083
		C5.76,6.05,5.367,6.296,5.155,6.707c-0.119,0.229-0.414,0.312-0.63,0.312s-0.511-0.082-0.63-0.312
		C3.684,6.295,3.273,6.051,2.849,6.083L2.578,6.095C2.076,6.116,1.971,6.124,1.881,6.15C1.813,6.169,1.75,6.203,1.696,6.248
		c-0.22,0.184-0.806,0.672-0.548,7.577c0.005,0.139,0.087,0.311,0.191,0.401c0.142,0.123,0.321,0.159,0.461,0.149l0.503,9.049
		c0.015,0.275,0.24,0.493,0.527,0.472c0.275-0.015,0.487-0.251,0.471-0.526l-0.525-9.461c-0.005-0.138-0.089-0.314-0.194-0.404
		c-0.138-0.12-0.3-0.15-0.45-0.151C1.979,8.762,2.229,7.432,2.311,7.108c0.095-0.004,0.207-0.009,0.308-0.013l0.292-0.014
		C2.951,7.08,2.985,7.123,3.007,7.165C3.278,7.691,3.86,8.018,4.525,8.018s1.247-0.327,1.519-0.854
		c0.022-0.042,0.069-0.086,0.095-0.083l0.279,0.013c0.1,0.004,0.21,0.008,0.301,0.012c0.116,0.4,0.35,1.782,0.2,6.248
		c-0.15,0.001-0.312,0.031-0.451,0.151c-0.102,0.089-0.186,0.262-0.193,0.397L5.749,23.37c-0.016,0.275,0.195,0.512,0.471,0.526
		c0.01,0.001,0.019,0.001,0.028,0.001c0.263,0,0.484-0.206,0.499-0.473l0.503-9.049c0.139,0.008,0.32-0.027,0.461-0.15
		c0.104-0.091,0.186-0.264,0.191-0.401C8.161,6.915,7.574,6.429,7.353,6.246z"/>
	<path d="M16.022,0.652c-2.126,0-3.855,1.705-3.855,3.801c0,1.069,0.447,2.232,1.198,3.123c0.005,0.008,0.011,0.016,0.017,0.023
		c0.273,0.354,0.662,0.998,0.806,1.517c-0.089,0.09-0.144,0.214-0.144,0.351v2.462c0,0.276,0.224,0.5,0.5,0.5h0.403l0.345,0.343
		c0.093,0.094,0.22,0.146,0.353,0.146H16.4c0.133,0,0.26-0.052,0.353-0.146l0.345-0.343h0.403c0.276,0,0.5-0.224,0.5-0.5V9.467
		c0-0.131-0.053-0.248-0.135-0.337c0.139-0.524,0.525-1.176,0.783-1.517c0.77-0.896,1.229-2.077,1.229-3.16
		C19.878,2.357,18.148,0.652,16.022,0.652z M17.001,11.429h-0.11c-0.133,0-0.26,0.052-0.353,0.146l-0.345,0.343h-0.342l-0.345-0.343
		c-0.093-0.094-0.22-0.146-0.353-0.146h-0.11V9.967h1.957V11.429z M17.872,6.983c-0.093,0.122-0.794,1.062-1.009,1.983h-0.341V6.282
		c0-0.276-0.224-0.5-0.5-0.5s-0.5,0.224-0.5,0.5v2.685h-0.329c-0.2-0.847-0.815-1.708-0.986-1.935
		c-0.015-0.023-0.03-0.046-0.049-0.067c-0.611-0.709-0.99-1.672-0.99-2.512c0-1.544,1.28-2.801,2.854-2.801s2.855,1.256,2.855,2.801
		C18.878,5.291,18.5,6.252,17.872,6.983z"/>
	<path d="M11.2,4.482c0-0.276-0.224-0.5-0.5-0.5H9.311c-0.276,0-0.5,0.224-0.5,0.5s0.224,0.5,0.5,0.5H10.7
		C10.976,4.982,11.2,4.759,11.2,4.482z"/>
	<path d="M10.484,0.968c-0.199-0.191-0.516-0.185-0.707,0.015C9.586,1.182,9.593,1.498,9.792,1.69l1.123,1.078
		c0.097,0.093,0.222,0.139,0.346,0.139c0.131,0,0.263-0.051,0.361-0.154c0.191-0.199,0.185-0.516-0.015-0.707L10.484,0.968z"/>
	<path d="M10.915,6.197L9.792,7.275C9.593,7.466,9.586,7.782,9.777,7.982c0.099,0.103,0.229,0.154,0.361,0.154
		c0.125,0,0.25-0.046,0.346-0.139l1.123-1.078c0.199-0.191,0.206-0.508,0.015-0.707C11.43,6.011,11.114,6.006,10.915,6.197z"/>
	<path d="M22.767,3.982h-1.389c-0.276,0-0.5,0.224-0.5,0.5s0.224,0.5,0.5,0.5h1.389c0.276,0,0.5-0.224,0.5-0.5
		S23.043,3.982,22.767,3.982z"/>
	<path d="M20.816,2.906c0.125,0,0.249-0.046,0.347-0.139l1.122-1.078c0.199-0.191,0.205-0.508,0.014-0.707
		c-0.19-0.201-0.506-0.204-0.707-0.015L20.47,2.046c-0.199,0.191-0.205,0.508-0.014,0.707C20.554,2.855,20.686,2.906,20.816,2.906z"
		/>
	<path d="M21.163,6.197c-0.199-0.19-0.515-0.186-0.707,0.014c-0.191,0.199-0.186,0.516,0.014,0.707l1.122,1.078
		c0.098,0.093,0.222,0.14,0.347,0.14c0.131,0,0.263-0.051,0.36-0.154c0.191-0.199,0.186-0.516-0.014-0.707L21.163,6.197z"/>
	<path d="M17.115,3.918l-0.534,0.183l-0.234-0.14c-0.157-0.093-0.353-0.094-0.512,0l-0.25,0.148l-0.509-0.188
		c-0.255-0.095-0.546,0.037-0.642,0.296c-0.096,0.259,0.036,0.547,0.296,0.643l0.732,0.271c0.056,0.021,0.114,0.031,0.173,0.031
		c0.089,0,0.178-0.024,0.256-0.07l0.199-0.118l0.178,0.106c0.126,0.075,0.278,0.09,0.418,0.043l0.753-0.258
		c0.262-0.09,0.4-0.374,0.311-0.635S17.377,3.829,17.115,3.918z"/>
</g>
</svg>
