<?xml version="1.0" encoding="utf-8"?>
<!-- Generator: Adobe Illustrator 19.2.0, SVG Export Plug-In . SVG Version: 6.00 Build 0)  -->
<svg version="1.1" id="Layer_1" xmlns="http://www.w3.org/2000/svg" xmlns:xlink="http://www.w3.org/1999/xlink" x="0px" y="0px"
	 width="24px" height="24px" viewBox="0 0 24 24" style="enable-background:new 0 0 24 24;" xml:space="preserve">
<g>
	<path d="M23.23,10.441l-0.157-0.158c-0.394-0.392-0.95-0.527-1.463-0.376l-7.556-7.556c0.15-0.509,0.017-1.069-0.377-1.463
		l-0.157-0.156c-0.578-0.58-1.521-0.58-2.1,0l-5.44,5.44c-0.579,0.579-0.579,1.521,0,2.101L6.138,8.43
		c0.39,0.391,0.947,0.524,1.456,0.377l7.562,7.562c-0.146,0.508-0.013,1.065,0.377,1.456l0.157,0.157
		c0.29,0.29,0.67,0.435,1.051,0.435s0.761-0.145,1.051-0.435l5.439-5.439C23.81,11.963,23.81,11.02,23.23,10.441z M6.845,7.722
		L6.688,7.566c-0.189-0.189-0.189-0.498,0-0.687l5.44-5.44c0.183-0.184,0.501-0.186,0.687,0.001l0.157,0.156
		c0.153,0.152,0.177,0.391,0.072,0.577L7.419,7.795C7.23,7.9,6.998,7.876,6.845,7.722z M8.415,8.214l5.045-5.044l7.331,7.331
		l-5.043,5.046L8.415,8.214z M22.523,11.836l-5.439,5.439c-0.189,0.189-0.498,0.189-0.688,0l-0.156-0.157
		c-0.154-0.153-0.178-0.386-0.073-0.576l5.621-5.623c0.191-0.106,0.423-0.082,0.578,0.072l0.157,0.157
		C22.713,11.338,22.713,11.646,22.523,11.836z"/>
	<path d="M10.036,13.219L0.26,22.996c-0.195,0.195-0.195,0.512,0,0.707c0.098,0.098,0.226,0.146,0.354,0.146
		s0.256-0.049,0.354-0.146l9.775-9.776c0.195-0.195,0.195-0.512,0-0.707S10.231,13.024,10.036,13.219z"/>
</g>
</svg>
