<?xml version="1.0" encoding="utf-8"?>
<!-- Generator: Adobe Illustrator 19.2.0, SVG Export Plug-In . SVG Version: 6.00 Build 0)  -->
<svg version="1.1" id="Layer_1" xmlns="http://www.w3.org/2000/svg" xmlns:xlink="http://www.w3.org/1999/xlink" x="0px" y="0px"
	 width="24px" height="24px" viewBox="0 0 24 24" style="enable-background:new 0 0 24 24;" xml:space="preserve">
<g>
	<path d="M5.736,18.006H1.148c-0.653,0-1.206,0.559-1.206,1.221v3.604c0,0.659,0.53,1.175,1.206,1.175h4.588
		c0.666,0,1.207-0.527,1.207-1.175v-3.604C6.943,18.564,6.39,18.006,5.736,18.006z M5.943,22.83c0,0.113-0.106,0.175-0.207,0.175
		H1.148c-0.1,0-0.206-0.062-0.206-0.175v-3.604c0-0.113,0.1-0.221,0.206-0.221h4.588c0.104,0,0.207,0.109,0.207,0.221V22.83z"/>
	<path d="M13.737,12.005H9.149c-0.653,0-1.206,0.559-1.206,1.22v9.604c0,0.659,0.53,1.175,1.206,1.175h4.588
		c0.666,0,1.207-0.527,1.207-1.175v-9.604C14.944,12.564,14.392,12.005,13.737,12.005z M13.944,22.83
		c0,0.109-0.105,0.175-0.207,0.175H9.149c-0.1,0-0.206-0.062-0.206-0.175v-9.604c0-0.113,0.1-0.22,0.206-0.22h4.588
		c0.104,0,0.207,0.109,0.207,0.22V22.83z"/>
	<path d="M21.738,2.004H17.15c-0.653,0-1.206,0.559-1.206,1.22V22.83c0,0.659,0.529,1.175,1.206,1.175h4.588
		c0.665,0,1.206-0.527,1.206-1.175V3.224C22.944,2.563,22.392,2.004,21.738,2.004z M21.944,22.83c0,0.109-0.104,0.175-0.206,0.175
		H17.15c-0.1,0-0.206-0.062-0.206-0.175V3.224c0-0.113,0.101-0.22,0.206-0.22h4.588c0.104,0,0.206,0.109,0.206,0.22V22.83z"/>
	<path d="M1.443,12.974c0.128,0,0.256-0.049,0.354-0.146l8.189-8.189V8c0,0.276,0.224,0.5,0.5,0.5s0.5-0.224,0.5-0.5V3.5
		c0-0.276-0.224-0.5-0.5-0.5h-4.5c-0.276,0-0.5,0.224-0.5,0.5S5.71,4,5.986,4h3.225L1.09,12.12c-0.195,0.195-0.195,0.512,0,0.707
		C1.188,12.925,1.315,12.974,1.443,12.974z"/>
</g>
</svg>
