<?xml version="1.0" encoding="utf-8"?>
<!-- Generator: Adobe Illustrator 19.2.0, SVG Export Plug-In . SVG Version: 6.00 Build 0)  -->
<svg version="1.1" id="Layer_1" xmlns="http://www.w3.org/2000/svg" xmlns:xlink="http://www.w3.org/1999/xlink" x="0px" y="0px"
	 width="24px" height="24px" viewBox="0 0 24 24" style="enable-background:new 0 0 24 24;" xml:space="preserve">
<g>
	<path d="M7.664,19.979c-0.27-0.07-0.538,0.103-0.602,0.371L6.36,23.314c-0.064,0.269,0.103,0.538,0.371,0.602
		c0.039,0.01,0.078,0.014,0.116,0.014c0.227,0,0.432-0.155,0.486-0.385l0.702-2.964C8.099,20.312,7.933,20.043,7.664,19.979z"/>
	<path d="M16.933,20.35c-0.063-0.27-0.33-0.441-0.602-0.371c-0.269,0.063-0.435,0.333-0.371,0.602l0.702,2.964
		c0.055,0.23,0.26,0.385,0.486,0.385c0.038,0,0.076-0.004,0.115-0.014c0.269-0.063,0.435-0.333,0.371-0.602L16.933,20.35z"/>
	<path d="M23.499,1.997h-7.5v-1c0-0.276-0.224-0.5-0.5-0.5s-0.5,0.224-0.5,0.5v1H8.998v-1c0-0.276-0.224-0.5-0.5-0.5
		s-0.5,0.224-0.5,0.5v1H0.499c-0.276,0-0.5,0.224-0.5,0.5v16c0,0.276,0.224,0.5,0.5,0.5h23c0.276,0,0.5-0.224,0.5-0.5v-16
		C23.999,2.22,23.775,1.997,23.499,1.997z M22.999,17.997h-22v-15h22V17.997z"/>
	<path d="M7.744,13.003H6.156c-0.653,0-1.206,0.559-1.206,1.22v0.604c0,0.659,0.53,1.175,1.206,1.175h1.587
		c0.666,0,1.207-0.527,1.207-1.175v-0.604C8.95,13.561,8.397,13.003,7.744,13.003z M7.95,14.826c0,0.113-0.106,0.175-0.207,0.175
		H6.156c-0.1,0-0.206-0.062-0.206-0.175v-0.604c0-0.113,0.1-0.22,0.206-0.22h1.587c0.104,0,0.207,0.108,0.207,0.22V14.826z"/>
	<path d="M12.744,10.002h-1.587c-0.653,0-1.206,0.559-1.206,1.22v3.604c0,0.659,0.53,1.175,1.206,1.175h1.587
		c0.666,0,1.207-0.527,1.207-1.175v-3.604C13.951,10.561,13.398,10.002,12.744,10.002z M12.951,14.826
		c0,0.109-0.105,0.175-0.207,0.175h-1.587c-0.1,0-0.206-0.062-0.206-0.175v-3.604c0-0.113,0.1-0.22,0.206-0.22h1.587
		c0.104,0,0.207,0.109,0.207,0.22V14.826z"/>
	<path d="M14.952,8.222v6.604c0,0.659,0.529,1.175,1.205,1.175h1.587c0.666,0,1.207-0.527,1.207-1.175V8.222
		c0-0.662-0.553-1.22-1.207-1.22h-1.587C15.504,7.002,14.952,7.56,14.952,8.222z M15.952,8.222c0-0.113,0.1-0.22,0.205-0.22h1.587
		c0.104,0,0.207,0.109,0.207,0.22v6.604c0,0.109-0.105,0.175-0.207,0.175h-1.587c-0.1,0-0.205-0.062-0.205-0.175V8.222z"/>
	<path d="M7.451,10.971c0.128,0,0.256-0.049,0.354-0.146l4.189-4.189v1.361c0,0.276,0.224,0.5,0.5,0.5s0.5-0.224,0.5-0.5v-2.5
		c0-0.276-0.224-0.5-0.5-0.5h-2.5c-0.276,0-0.5,0.224-0.5,0.5s0.224,0.5,0.5,0.5h1.224l-4.121,4.12
		c-0.195,0.195-0.195,0.512,0,0.707C7.195,10.922,7.323,10.971,7.451,10.971z"/>
</g>
</svg>
