<?xml version="1.0" encoding="utf-8"?>
<!-- Generator: Adobe Illustrator 19.2.0, SVG Export Plug-In . SVG Version: 6.00 Build 0)  -->
<svg version="1.1" id="Layer_1" xmlns="http://www.w3.org/2000/svg" xmlns:xlink="http://www.w3.org/1999/xlink" x="0px" y="0px"
	 width="24px" height="24px" viewBox="0 0 24 24" style="enable-background:new 0 0 24 24;" xml:space="preserve">
<g>
	<path d="M21.396,5.993H2.572c-1.449,0-2.627,1.178-2.627,2.627v12.748c0,1.448,1.179,2.627,2.627,2.627h18.825
		c1.449,0,2.628-1.179,2.628-2.627V8.62C24.024,7.171,22.846,5.993,21.396,5.993z M2.572,6.993h18.825
		c0.897,0,1.628,0.73,1.628,1.627v3.402h-9.057v-0.07c0-0.541-0.44-0.981-0.981-0.981h-2.053c-0.541,0-0.981,0.44-0.981,0.981v0.07
		H0.944V8.62C0.944,7.723,1.674,6.993,2.572,6.993z M10.938,12.452l-0.005-0.482l2.035-0.019v2.034l-2.016,0.019l-0.013-1.419
		c0.003-0.022,0.013-0.041,0.013-0.063C10.952,12.497,10.941,12.476,10.938,12.452z M21.396,22.995H2.572
		c-0.897,0-1.627-0.729-1.627-1.627v-8.346h9.008v0.983c0,0.541,0.44,0.981,0.981,0.981h2.053c0.541,0,0.981-0.44,0.981-0.981
		v-0.983h9.057v8.346C23.024,22.265,22.294,22.995,21.396,22.995z"/>
	<path d="M7.492,4.992c0.276,0,0.5-0.224,0.5-0.5v-0.54c0-1.075,0.939-1.95,2.093-1.95h3.788c1.154,0,2.093,0.875,2.093,1.95v0.54
		c0,0.276,0.224,0.5,0.5,0.5s0.5-0.224,0.5-0.5v-0.54c0-1.627-1.388-2.95-3.093-2.95h-3.788c-1.706,0-3.093,1.323-3.093,2.95v0.54
		C6.992,4.769,7.215,4.992,7.492,4.992z"/>
</g>
</svg>
