<?xml version="1.0" encoding="utf-8"?>
<!-- Generator: Adobe Illustrator 19.2.0, SVG Export Plug-In . SVG Version: 6.00 Build 0)  -->
<svg version="1.1" id="Layer_1" xmlns="http://www.w3.org/2000/svg" xmlns:xlink="http://www.w3.org/1999/xlink" x="0px" y="0px"
	 width="24px" height="24px" viewBox="0 0 24 24" style="enable-background:new 0 0 24 24;" xml:space="preserve">
<g>
	<path d="M9.973,13.522v7.95c0,0.276,0.224,0.5,0.5,0.5s0.5-0.224,0.5-0.5v-7.95c0-0.276-0.224-0.5-0.5-0.5
		S9.973,13.246,9.973,13.522z"/>
	<path d="M7.973,13.522v7.95c0,0.276,0.224,0.5,0.5,0.5s0.5-0.224,0.5-0.5v-7.95c0-0.276-0.224-0.5-0.5-0.5
		S7.973,13.246,7.973,13.522z"/>
	<path d="M4.973,13.522v7.95c0,0.276,0.224,0.5,0.5,0.5s0.5-0.224,0.5-0.5v-7.95c0-0.276-0.224-0.5-0.5-0.5
		S4.973,13.246,4.973,13.522z"/>
	<path d="M2.973,13.522v7.95c0,0.276,0.224,0.5,0.5,0.5s0.5-0.224,0.5-0.5v-7.95c0-0.276-0.224-0.5-0.5-0.5
		S2.973,13.246,2.973,13.522z"/>
	<path d="M14.974,13.522v7.95c0,0.276,0.224,0.5,0.5,0.5s0.5-0.224,0.5-0.5v-7.95c0-0.276-0.224-0.5-0.5-0.5
		S14.974,13.246,14.974,13.522z"/>
	<path d="M12.974,13.522v7.95c0,0.276,0.224,0.5,0.5,0.5s0.5-0.224,0.5-0.5v-7.95c0-0.276-0.224-0.5-0.5-0.5
		S12.974,13.246,12.974,13.522z"/>
	<path d="M19.975,13.522v7.95c0,0.276,0.224,0.5,0.5,0.5s0.5-0.224,0.5-0.5v-7.95c0-0.276-0.224-0.5-0.5-0.5
		S19.975,13.246,19.975,13.522z"/>
	<path d="M17.974,13.522v7.95c0,0.276,0.224,0.5,0.5,0.5s0.5-0.224,0.5-0.5v-7.95c0-0.276-0.224-0.5-0.5-0.5
		S17.974,13.246,17.974,13.522z"/>
	<path d="M23.358,23.002H0.613c-0.276,0-0.5,0.224-0.5,0.5s0.224,0.5,0.5,0.5h22.746c0.276,0,0.5-0.224,0.5-0.5
		S23.635,23.002,23.358,23.002z"/>
	<path d="M0.613,12h22.746c0.276,0,0.5-0.224,0.5-0.5s-0.224-0.5-0.5-0.5H0.613c-0.276,0-0.5,0.224-0.5,0.5S0.336,12,0.613,12z"/>
	<path d="M7.611,9.932c0.276,0,0.5-0.224,0.5-0.5c0-1.949,1.738-3.535,3.875-3.535s3.875,1.586,3.875,3.535
		c0,0.276,0.224,0.5,0.5,0.5s0.5-0.224,0.5-0.5c0-2.341-1.924-4.251-4.375-4.488V1.006h2.304c0.276,0,0.5-0.224,0.5-0.5
		s-0.224-0.5-0.5-0.5h-2.804c-0.276,0-0.5,0.224-0.5,0.5v4.438C9.035,5.181,7.111,7.091,7.111,9.432
		C7.111,9.709,7.335,9.932,7.611,9.932z"/>
</g>
</svg>
