<?xml version="1.0" encoding="utf-8"?>
<!-- Generator: Adobe Illustrator 19.2.0, SVG Export Plug-In . SVG Version: 6.00 Build 0)  -->
<svg version="1.1" id="Layer_1" xmlns="http://www.w3.org/2000/svg" xmlns:xlink="http://www.w3.org/1999/xlink" x="0px" y="0px"
	 width="24px" height="24px" viewBox="0 0 24 24" style="enable-background:new 0 0 24 24;" xml:space="preserve">
<path d="M23.484,14.492c-0.001-0.029-0.011-0.058-0.018-0.087c-0.008-0.037-0.013-0.074-0.029-0.107
	c-0.002-0.004-0.001-0.008-0.003-0.012l-4.492-9.012c-0.005-0.01-0.016-0.014-0.022-0.024c-0.035-0.06-0.081-0.109-0.136-0.15
	c-0.018-0.013-0.034-0.025-0.053-0.036c-0.07-0.038-0.147-0.066-0.232-0.066c-0.001,0-0.002-0.001-0.002-0.001
	c-0.001,0-0.001,0-0.001,0h-6.003V3.744c0-0.276-0.224-0.5-0.5-0.5s-0.5,0.224-0.5,0.5v1.253H5.495h0
	c-0.087,0-0.165,0.028-0.236,0.067c-0.019,0.01-0.034,0.022-0.052,0.035C5.151,5.14,5.105,5.189,5.07,5.249
	c-0.006,0.01-0.017,0.014-0.022,0.024l-4.52,9.011c-0.002,0.004-0.002,0.009-0.004,0.014c-0.015,0.031-0.02,0.067-0.028,0.101
	c-0.007,0.031-0.018,0.062-0.019,0.093c0,0.005-0.003,0.01-0.003,0.015c0,2.469,2.246,4.477,5.005,4.477
	c2.76,0,5.006-2.008,5.006-4.477c0-0.005-0.003-0.009-0.003-0.015c-0.001-0.031-0.011-0.06-0.018-0.09
	c-0.008-0.036-0.013-0.072-0.028-0.105c-0.002-0.004-0.001-0.008-0.003-0.012L6.302,5.997h5.19v2.35c0,0.276,0.224,0.5,0.5,0.5
	s0.5-0.224,0.5-0.5v-2.35h5.193l-4.156,8.287c-0.002,0.005-0.002,0.01-0.004,0.015c-0.014,0.03-0.018,0.064-0.026,0.098
	c-0.007,0.032-0.018,0.063-0.019,0.095c0,0.005-0.003,0.01-0.003,0.016c0,2.469,2.246,4.477,5.006,4.477s5.006-2.008,5.006-4.477
	C23.487,14.502,23.484,14.498,23.484,14.492z M5.493,6.615l3.685,7.392H1.785L5.493,6.615z M5.48,17.984
	c-2.013,0-3.684-1.296-3.964-2.977h7.928C9.165,16.688,7.493,17.984,5.48,17.984z M22.179,14.008h-7.393l3.707-7.392L22.179,14.008z
	 M18.481,17.984c-2.014,0-3.685-1.296-3.965-2.977h7.93C22.166,16.688,20.495,17.984,18.481,17.984z"/>
</svg>
