<?xml version="1.0" encoding="utf-8"?>
<!-- Generator: Adobe Illustrator 19.2.0, SVG Export Plug-In . SVG Version: 6.00 Build 0)  -->
<svg version="1.1" id="Layer_1" xmlns="http://www.w3.org/2000/svg" xmlns:xlink="http://www.w3.org/1999/xlink" x="0px" y="0px"
	 width="24px" height="24px" viewBox="0 0 24 24" style="enable-background:new 0 0 24 24;" xml:space="preserve">
<g>
	<path d="M7.66,19.979c-0.269-0.07-0.539,0.102-0.602,0.371l-0.703,2.964c-0.064,0.269,0.103,0.538,0.371,0.602
		c0.039,0.01,0.078,0.014,0.116,0.014c0.227,0,0.432-0.154,0.486-0.385l0.703-2.964C8.095,20.312,7.929,20.043,7.66,19.979z"/>
	<path d="M16.928,20.35c-0.064-0.27-0.332-0.441-0.602-0.371c-0.269,0.063-0.435,0.333-0.371,0.602l0.702,2.964
		c0.055,0.23,0.26,0.385,0.486,0.385c0.038,0,0.076-0.004,0.115-0.014c0.269-0.063,0.435-0.333,0.371-0.602L16.928,20.35z"/>
	<path d="M23.494,1.997h-7.5v-1c0-0.276-0.224-0.5-0.5-0.5s-0.5,0.224-0.5,0.5v1H8.993v-1c0-0.276-0.224-0.5-0.5-0.5
		s-0.5,0.224-0.5,0.5v1H0.494c-0.276,0-0.5,0.224-0.5,0.5v16c0,0.276,0.224,0.5,0.5,0.5h23c0.276,0,0.5-0.224,0.5-0.5v-16
		C23.994,2.22,23.771,1.997,23.494,1.997z M22.994,17.997h-22v-15h22V17.997z"/>
	<path d="M15.03,13.103c-0.154-0.06-0.319-0.096-0.494-0.096c-0.094,0-0.186,0.01-0.275,0.028l-3.748-5.793
		c0.163-0.226,0.261-0.5,0.261-0.799c0-0.757-0.616-1.374-1.374-1.374S8.027,5.686,8.027,6.444c0,0.097,0.011,0.191,0.03,0.282
		L5.072,8.607C4.844,8.44,4.567,8.339,4.264,8.339c-0.757,0-1.373,0.616-1.373,1.373s0.616,1.374,1.373,1.374
		s1.374-0.616,1.374-1.374c0-0.09-0.01-0.177-0.027-0.262l2.996-1.889C8.831,7.72,9.104,7.817,9.4,7.817
		c0.094,0,0.186-0.01,0.275-0.028l3.749,5.794c-0.162,0.226-0.261,0.5-0.261,0.799c0,0.757,0.616,1.373,1.373,1.373
		s1.373-0.616,1.373-1.373c0-0.217-0.055-0.419-0.144-0.601l3.414-3.725c0.154,0.06,0.319,0.096,0.494,0.096
		c0.757,0,1.373-0.616,1.373-1.373s-0.616-1.373-1.373-1.373S18.3,8.021,18.3,8.778c0,0.216,0.055,0.418,0.144,0.6L15.03,13.103z
		 M9.4,6.07c0.206,0,0.374,0.167,0.374,0.374c0,0.206-0.167,0.373-0.374,0.373c-0.206,0-0.373-0.167-0.373-0.373
		C9.027,6.238,9.194,6.07,9.4,6.07z M4.264,10.085c-0.206,0-0.373-0.167-0.373-0.374c0-0.206,0.167-0.373,0.373-0.373
		c0.206,0,0.374,0.167,0.374,0.373C4.637,9.918,4.47,10.085,4.264,10.085z M14.536,14.755c-0.206,0-0.373-0.167-0.373-0.373
		s0.167-0.374,0.373-0.374c0.097,0,0.183,0.039,0.25,0.1c0,0,0,0,0,0c0.001,0.001,0.002,0.001,0.003,0.002
		c0.073,0.068,0.12,0.164,0.12,0.271C14.909,14.588,14.742,14.755,14.536,14.755z M19.673,8.405c0.206,0,0.373,0.167,0.373,0.373
		s-0.167,0.373-0.373,0.373S19.3,8.984,19.3,8.778S19.467,8.405,19.673,8.405z"/>
</g>
</svg>
