<svg xmlns="http://www.w3.org/2000/svg" width="24" height="24" viewBox="0 0 24 24"><path d="M19.866 2.367h-3.514C15.36 1.05 13.787.19 12.014.19s-3.345.86-4.337 2.177H4.163c-1.63 0-2.956 1.326-2.955 2.983l.865 15.676c0 1.63 1.326 2.955 2.956 2.955H19c1.63 0 2.955-1.324 2.954-2.927l.867-15.73c0-1.63-1.324-2.956-2.954-2.956zm-7.852-1.175c2.445 0 4.433 1.99 4.433 4.433s-1.988 4.433-4.433 4.433c-2.444 0-4.433-1.988-4.433-4.433s1.99-4.433 4.434-4.433zm8.94 19.834c0 1.078-.876 1.955-1.954 1.955H5.03c-1.08 0-1.957-.876-1.958-1.98L2.207 5.322c0-1.078.877-1.956 1.956-1.956H7.08c-.317.69-.498 1.452-.498 2.258 0 2.996 2.437 5.433 5.433 5.433s5.433-2.437 5.433-5.433c0-.806-.18-1.57-.497-2.257h2.917c1.078 0 1.955.877 1.956 1.928l-.868 15.73z"/><path d="M12.014 7.812c.735 0 1.333-.598 1.333-1.333 0-.56-.346-1.034-.833-1.233V2.344c0-.276-.224-.5-.5-.5s-.5.224-.5.5v2.903c-.487.2-.833.674-.833 1.232.002.734.6 1.332 1.334 1.332zm0-1c-.184 0-.333-.15-.333-.333 0-.184.15-.333.333-.334s0 0 .002 0c.183 0 .332.15.332.333 0 .183-.15.332-.333.332z"/></svg>