<svg xmlns="http://www.w3.org/2000/svg" width="24" height="24" viewBox="0 0 24 24"><path d="M14.23 15.376c-.196-.195-.513-.195-.708 0l-1.507 1.507-1.507-1.507c-.195-.195-.512-.195-.707 0s-.194.512 0 .707l1.508 1.507L9.8 19.097c-.195.195-.195.512 0 .707.098.098.226.146.354.146s.256-.05.354-.146l1.507-1.507 1.507 1.507c.098.098.226.146.354.146s.256-.05.354-.146c.195-.195.195-.512 0-.707l-1.507-1.507 1.507-1.507c.194-.196.194-.512 0-.707z"/><path d="M19.777 19.384l-4.763-7.554V3.22l1.148-1.363c.126-.148.153-.356.07-.533-.08-.176-.258-.29-.452-.29H8.247c-.194 0-.372.114-.454.29-.082.176-.054.384.072.533l1.15 1.362v8.61L4.22 19.464c-.4 1-.28 2.135.33 3.034.605.897 1.61 1.434 2.688 1.434h9.552c1.08 0 2.09-.538 2.7-1.44.606-.9.73-2.03.287-3.108zM18.66 21.93c-.43.637-1.11 1-1.87 1H7.238c-.756 0-1.434-.36-1.86-.993-.428-.633-.51-1.398-.27-2.02l4.83-7.678c.05-.08.076-.173.076-.267v-.94h1c.276 0 .5-.223.5-.5s-.224-.5-.5-.5h-1v-2h1c.276 0 .5-.223.5-.5s-.224-.5-.5-.5h-1v-2h1c.276 0 .5-.223.5-.5s-.224-.5-.5-.5h-1v-.997c0-.118-.042-.232-.118-.322l-.573-.68h5.382l-.572.68c-.076.09-.118.203-.118.32v8.94c0 .093.026.186.077.266l4.8 7.596c.28.7.196 1.463-.232 2.095z"/></svg>