<svg xmlns="http://www.w3.org/2000/svg" width="24" height="24" viewBox="0 0 24 24"><path d="M23.7 6.565c0-1.757-1.43-3.186-3.186-3.186s-3.187 1.428-3.187 3.185c0 1.586 1.168 2.893 2.687 3.135v7.613c0 2.985-2.553 5.508-5.574 5.508h-.63c-3.088 0-5.796-2.573-5.796-5.507V15.45c3.754-.37 6.886-5.214 6.886-9.22 0-2.534-1.338-4.244-3.852-4.98-.16-.505-.617-.88-1.175-.88-.69 0-1.25.562-1.25 1.25s.56 1.25 1.25 1.25c.452 0 .83-.253 1.05-.614 1.993.63 2.977 1.93 2.977 3.974 0 3.476-2.724 7.833-5.89 8.22-.013-.266-.228-.48-.496-.48-.266 0-.478.21-.494.47-3.128-.456-5.8-4.767-5.8-8.21 0-2.046.984-3.344 2.976-3.975.22.36.6.615 1.05.615.69 0 1.25-.56 1.25-1.25S5.937.37 5.247.37c-.557 0-1.013.374-1.173.88C1.56 1.985.22 3.694.22 6.23c0 3.973 3.08 8.775 6.794 9.214v1.87c0 3.466 3.176 6.507 6.796 6.507h.63c3.563 0 6.574-2.98 6.574-6.507V9.7c1.52-.242 2.686-1.55 2.686-3.135zM9.624 1.62c0-.138.112-.25.25-.25s.25.112.25.25c0 .276-.5.276-.5 0zm-4.377-.25c.138 0 .25.113.25.25 0 .276-.5.276-.5 0 0-.137.112-.25.25-.25zm15.268 5.754c-.31 0-.56-.25-.56-.56s.25-.558.56-.558c.308 0 .56.25.56.56s-.253.558-.56.558zm.5 1.564v-.654c.613-.21 1.06-.786 1.06-1.47 0-.86-.7-1.558-1.56-1.558-.86 0-1.56.7-1.56 1.56 0 .683.445 1.26 1.06 1.47v.652c-.965-.227-1.687-1.09-1.687-2.123 0-1.206.98-2.186 2.187-2.186 1.205 0 2.186.98 2.186 2.185 0 1.032-.72 1.895-1.685 2.123z"/></svg>