<svg xmlns="http://www.w3.org/2000/svg" width="24" height="24" viewBox="0 0 24 24"><path d="M23.336 6.688C22.933 3.013 19.8.334 17.218.334h-.103c-1.6.046-3.24.418-4.335.723-.52.145-1.065.145-1.584 0C10.1.753 8.46.38 6.862.337 4.286.29 1.05 2.963.64 6.686.263 10.13.203 18.66 7.768 23.518c.463.296 1.05.32 1.53.058.485-.26.776-.745.782-1.295.04-4.594.805-7.678 1.902-7.678h.012c1.096 0 1.86 3.084 1.903 7.677.005.55.296 1.033.78 1.295.223.12.47.18.715.18.284 0 .568-.08.817-.238 7.564-4.86 7.503-13.387 7.126-16.83zM15.67 22.675c-.16.103-.355.11-.52.02-.074-.04-.252-.163-.254-.424-.036-3.955-.57-8.667-2.902-8.667h-.013c-2.333 0-2.866 4.713-2.9 8.668-.003.262-.18.385-.257.427-.164.09-.357.08-.516-.02-7.094-4.557-7.03-12.622-6.673-15.878.345-3.15 3.07-5.523 5.2-5.464 1.575.044 3.24.448 4.094.686.693.192 1.426.192 2.12 0 .853-.237 2.52-.642 4.095-.686 2.144-.082 4.854 2.313 5.2 5.462.356 3.255.42 11.32-6.674 15.877z"/><path d="M16.434 3.613c-.41.29-1.266.896-3.214 1.143-4.324.55-6.256-1.224-6.297-1.262-.196-.192-.512-.19-.705.007-.194.197-.192.514.005.708.078.077 1.726 1.656 5.364 1.656.542 0 1.128-.035 1.76-.115 2.195-.28 3.188-.982 3.717-1.357l-.287-.41-.343-.37z"/></svg>