<svg xmlns="http://www.w3.org/2000/svg" width="24" height="24" viewBox="0 0 24 24"><path d="M23.396 13.036H18.21l-2.132-4.893c-.088-.202-.298-.327-.517-.297-.218.026-.395.192-.433.41L13.07 19.817 9.362 1.114c-.046-.232-.248-.4-.484-.403h-.006c-.234 0-.437.163-.488.392l-2.9 12.95H.63c-.277 0-.5.224-.5.5s.223.5.5.5h5.255c.234 0 .437-.162.488-.39l2.47-11.03 3.763 18.99c.046.232.252.4.49.4h.005c.24 0 .446-.175.488-.41l2.233-12.553 1.604 3.676c.08.182.26.3.458.3h5.514c.276 0 .5-.224.5-.5s-.223-.5-.5-.5z"/></svg>