<svg xmlns="http://www.w3.org/2000/svg" width="24" height="24" viewBox="0 0 24 24"><path d="M18.018 4.227l-.27-.265c-.777-.76-1.524-1.05-2.22-.865-1.11.298-1.53 1.688-1.574 1.845-.398 1.417-.663 2.923-.834 4.382l-.5-.285c-.042-.062-.09-.283-.104-.46V.79c0-.276-.224-.5-.5-.5s-.5.224-.5.5V8.61c.003.14-.026.368.004.373l-.534.304c-.172-1.447-.436-2.94-.83-4.344-.046-.162-.465-1.55-1.576-1.846-.694-.186-1.44.105-2.217.865l-.27.264C3.662 6.588.912 9.264 1.53 18.336c.256 3.748.57 5 1.347 5.353.14.063.28.093.423.093.538 0 1.1-.424 1.818-.967.646-.488 1.45-1.095 2.448-1.56 3.122-1.452 3.51-3.865 3.64-6.212.068-1.232.053-2.886-.105-4.674.478-.272.827-.47.912-.52.007-.003.01-.01.017-.015 0 0 0 .002.002.003.09.057.46.272.972.564-.155 1.777-.17 3.417-.1 4.642.13 2.347.517 4.76 3.64 6.212.998.465 1.8 1.07 2.446 1.56.72.543 1.28.967 1.82.967.14 0 .28-.03.422-.094.776-.355 1.09-1.606 1.347-5.355.617-9.07-2.135-11.747-4.562-14.108zm-7.81 10.763c-.12 2.128-.442 4.14-3.064 5.36-1.095.51-1.945 1.15-2.628 1.668-.443.334-1.036.822-1.224.76-.216-.106-.523-.977-.764-4.512-.587-8.608 1.99-11.113 4.26-13.323l.274-.266c.307-.3.732-.633 1.11-.633.05 0 .1.006.147.02.48.126.8.89.873 1.15.425 1.51.684 3.112.842 4.614-.26.148-.538.306-.823.47L6.636 8.533c-.23-.156-.54-.097-.695.13-.155.23-.097.54.13.696l2.175 1.487-2.14 1.22.495.868 1.9-1.083-.366 1.95c-.05.27.127.532.398.583.03.006.062.01.093.01.236 0 .446-.168.49-.408l.526-2.784.495-.282c.126 1.678.124 3.145.073 4.07zm11.373 3.276c-.24 3.535-.547 4.405-.76 4.512-.17.058-.784-.425-1.227-.76-.684-.517-1.534-1.16-2.63-1.668-2.622-1.22-2.944-3.232-3.062-5.36-.05-.92-.052-2.373.07-4.036l.457.26.523 2.773c.045.24.255.407.49.407.03 0 .062-.003.094-.01.27-.05.45-.31.398-.583l-.366-1.94 1.9 1.076c.08.043.163.064.247.064.174 0 .344-.09.436-.254.135-.24.05-.545-.19-.682l-2.145-1.214 2.182-1.492c.228-.156.286-.467.13-.695-.156-.23-.468-.285-.694-.13L14.847 10.3l-.775-.438c.157-1.51.417-3.126.845-4.652.06-.21.378-1.017.87-1.148.05-.013.1-.02.15-.02.378 0 .804.334 1.11.634l.273.267c2.273 2.21 4.848 4.715 4.26 13.323z"/></svg>