<svg xmlns="http://www.w3.org/2000/svg" width="24" height="24" viewBox="0 0 24 24"><path d="M23.657 5.897c0-1.47-.573-2.854-1.613-3.894S19.62.39 18.15.39s-2.854.573-3.895 1.613L1.96 14.3C.92 15.34.347 16.72.347 18.193c0 1.47.573 2.854 1.613 3.894 1.074 1.073 2.484 1.61 3.894 1.61 1.41 0 2.82-.537 3.894-1.61l2.607-2.607 7.08-7.078.002-.002.002-.003 2.604-2.605c1.04-1.04 1.613-2.425 1.613-3.895zM12.002 18.42l-6.374-6.375 6.374-6.374 6.374 6.375-6.374 6.374zm-2.96 2.96c-1.756 1.758-4.616 1.76-6.374 0-.852-.852-1.32-1.983-1.32-3.187 0-1.204.47-2.336 1.32-3.188l2.254-2.254 6.374 6.375-2.254 2.255zm10.042-10.043L12.71 4.963l2.254-2.254c.852-.852 1.983-1.32 3.188-1.32s2.335.468 3.187 1.32c.85.85 1.32 1.982 1.32 3.186s-.47 2.335-1.32 3.187l-2.256 2.254z"/><path d="M8.62 10.68c-.09.09-.15.22-.15.36 0 .13.06.26.15.34.09.1.22.16.35.16.14 0 .26-.06.36-.16.09-.09.14-.22.14-.34 0-.13-.05-.26-.14-.36-.2-.19-.54-.18-.71 0zM10.64 10.68c-.1.1-.15.23-.15.36 0 .12.05.25.15.35.09.09.22.15.35.15.14 0 .26-.06.36-.16.09-.09.14-.22.14-.34 0-.13-.05-.26-.14-.36-.19-.19-.53-.19-.71 0zM10.63 8.66c-.09.1-.14.23-.14.35 0 .14.06.27.15.36.09.09.22.15.35.15.14 0 .26-.06.36-.15.09-.09.14-.22.14-.36 0-.12-.05-.25-.15-.35-.19-.19-.5-.19-.71 0zM12.67 10.68c-.09.09-.15.22-.15.35 0 .14.06.26.15.36.09.09.22.15.35.15s.26-.06.36-.15c.09-.1.14-.23.14-.36 0-.12-.05-.25-.14-.35-.19-.19-.53-.19-.71 0zM12.67 8.66c-.09.1-.15.22-.15.36 0 .13.06.26.15.35.09.09.22.15.35.15s.26-.06.36-.15c.09-.1.14-.23.14-.35 0-.13-.05-.26-.14-.36-.19-.19-.52-.19-.71 0zM15.05 11.53c.13 0 .26-.05.36-.14.09-.1.14-.23.14-.35 0-.14-.05-.27-.14-.36-.19-.19-.53-.18-.71 0-.09.09-.15.22-.15.36 0 .13.05.25.15.35.1.09.22.14.35.14zM14.69 12.72c-.09.09-.14.22-.14.34 0 .14.05.26.15.36.09.09.22.14.35.14s.26-.05.36-.14c.09-.1.14-.22.14-.36 0-.13-.05-.25-.14-.35-.19-.19-.51-.2-.72.01zM12.66 12.72c-.09.09-.14.22-.14.34 0 .14.06.27.15.36.1.09.22.14.35.14s.26-.05.35-.14c.1-.09.15-.22.15-.36 0-.12-.05-.25-.14-.35-.19-.19-.53-.19-.72.01zM12.67 14.74c-.1.1-.15.22-.15.35s.05.26.15.36c.1.09.22.14.35.14s.26-.05.36-.14c.09-.1.14-.22.14-.36 0-.13-.05-.26-.14-.35-.19-.18-.52-.18-.71 0zM10.63 12.71c-.09.1-.14.23-.14.35 0 .14.06.26.15.36.09.09.22.14.35.14.14 0 .26-.05.35-.14.1-.1.15-.22.15-.36 0-.12-.05-.25-.14-.35-.19-.18-.52-.19-.72 0zM10.64 14.74c-.09.09-.15.22-.15.35s.05.26.15.36c.1.09.22.14.35.14s.26-.05.36-.15c.09-.09.14-.22.14-.35s-.05-.26-.14-.35c-.19-.18-.52-.18-.71 0zM8.61 12.71c-.09.09-.15.22-.15.35 0 .14.06.27.15.36s.22.14.35.14c.14 0 .26-.05.35-.14.1-.09.15-.22.15-.36 0-.13-.05-.26-.14-.35-.19-.19-.52-.19-.71 0z"/></svg>