<svg xmlns="http://www.w3.org/2000/svg" width="24" height="24" viewBox="0 0 24 24"><path d="M23.5 11H12V3.5C12 1.57 10.43 0 8.5 0h-5C1.538 0 0 1.537 0 3.5v20c0 .276.224.5.5.5h23c.276 0 .5-.224.5-.5v-12c0-.277-.224-.5-.5-.5zM1 3.5C1 2.074 2.075 1 3.5 1h5C9.878 1 11 2.12 11 3.5V23H1V3.5zM16 23v-3h3v3h-3zm7 0h-3v-3.5c0-.276-.224-.5-.5-.5h-4c-.276 0-.5.224-.5.5V23h-3V12h11v11z"/><path d="M8.5 14h-1c-.276 0-.5.223-.5.5s.224.5.5.5h1c.276 0 .5-.224.5-.5s-.224-.5-.5-.5zM8.5 17h-1c-.276 0-.5.223-.5.5s.224.5.5.5h1c.276 0 .5-.224.5-.5s-.224-.5-.5-.5zM8.5 11h-1c-.276 0-.5.223-.5.5s.224.5.5.5h1c.276 0 .5-.224.5-.5s-.224-.5-.5-.5zM8.5 20h-1c-.276 0-.5.223-.5.5s.224.5.5.5h1c.276 0 .5-.224.5-.5s-.224-.5-.5-.5zM4.5 14h-1c-.276 0-.5.223-.5.5s.224.5.5.5h1c.276 0 .5-.224.5-.5s-.224-.5-.5-.5zM4.5 17h-1c-.276 0-.5.223-.5.5s.224.5.5.5h1c.276 0 .5-.224.5-.5s-.224-.5-.5-.5zM4.5 11h-1c-.276 0-.5.223-.5.5s.224.5.5.5h1c.276 0 .5-.224.5-.5s-.224-.5-.5-.5zM4.5 20h-1c-.276 0-.5.223-.5.5s.224.5.5.5h1c.276 0 .5-.224.5-.5s-.224-.5-.5-.5zM13.5 21h.2c.276 0 .5-.224.5-.5s-.223-.5-.5-.5h-.2c-.276 0-.5.224-.5.5s.224.5.5.5zM13.5 18h.2c.276 0 .5-.224.5-.5s-.223-.5-.5-.5h-.2c-.276 0-.5.224-.5.5s.224.5.5.5zM13.5 15h.3c.276 0 .5-.224.5-.5s-.224-.5-.5-.5h-.3c-.276 0-.5.224-.5.5s.224.5.5.5zM21.5 21c.276 0 .5-.224.5-.5s-.224-.5-.5-.5h-.1c-.276 0-.45.224-.45.5s.274.5.55.5zM21.5 18c.276 0 .5-.224.5-.5s-.224-.5-.5-.5h-.1c-.276 0-.45.224-.45.5s.274.5.55.5zM21.5 15c.276 0 .5-.224.5-.5s-.224-.5-.5-.5h-.1c-.276 0-.45.224-.45.5s.274.5.55.5zM15.5 18h.2c.276 0 .5-.224.5-.5s-.223-.5-.5-.5h-.2c-.276 0-.5.224-.5.5s.224.5.5.5zM15.5 15h.2c.276 0 .5-.224.5-.5s-.223-.5-.5-.5h-.2c-.276 0-.5.224-.5.5s.224.5.5.5zM17.5 18h.2c.276 0 .5-.224.5-.5s-.223-.5-.5-.5h-.2c-.276 0-.5.224-.5.5s.224.5.5.5zM17.5 15h.2c.276 0 .5-.224.5-.5s-.223-.5-.5-.5h-.2c-.276 0-.5.224-.5.5s.224.5.5.5zM19.5 18c.276 0 .5-.224.5-.5s-.224-.5-.5-.5h-.1c-.276 0-.45.224-.45.5s.274.5.55.5zM19.5 15c.276 0 .5-.224.5-.5s-.224-.5-.5-.5h-.1c-.276 0-.45.224-.45.5s.274.5.55.5zM7 7v1.5c0 .276.224.5.5.5s.5-.224.5-.5V4.6c0-.276-.224-.5-.5-.5s-.5.223-.5.5V6H5V4.6c0-.276-.224-.5-.5-.5s-.5.223-.5.5v3.9c0 .276.224.5.5.5s.5-.224.5-.5V7h2z"/></svg>