<svg xmlns="http://www.w3.org/2000/svg" width="24" height="24" viewBox="0 0 24 24"><path d="M10.028 5.034H7.014V4.49c0-.082.054-.155.135-.182.964-.318 1.536-1.28 1.36-2.288C8.365 1.203 7.694.532 6.876.388 6.277.282 5.67.444 5.21.83c-.46.387-.723.953-.723 1.553 0 .276.224.5.5.5s.5-.224.5-.5c0-.304.134-.59.367-.787.236-.2.538-.28.85-.223.404.07.75.416.82.82.102.583-.27 1.027-.688 1.166-.49.16-.822.615-.822 1.13v.544H2.66c-1.36 0-1.646.736-1.646 1.354v6.042c0 2.752 2.148 5.923 5 6.26v4.716c0 .276.224.5.5.5s.5-.224.5-.5V18.69c2.852-.338 5-3.508 5-6.26V6.387c0-.848-.743-1.354-1.986-1.354zm-7.367 1h7.368c.366 0 .986.074.986.354v2.55c-1.27.47-3.152.45-4.29-.08-1.286-.6-3.216-.673-4.71-.232V6.388c0-.205 0-.354.647-.354zm3.854 11.69c-2.493 0-4.5-2.896-4.5-5.295V9.683c1.27-.47 3.15-.45 4.29.08.74.346 1.693.518 2.654.518.71 0 1.42-.098 2.057-.285v2.433c0 2.398-2.008 5.294-4.5 5.294zM18.55 8.25c-.955 0-5.107 8.38-5.107 10.306 0 2.815 2.29 5.106 5.106 5.106s5.105-2.29 5.105-5.106c0-1.926-4.152-10.307-5.106-10.307zm0 14.413c-2.266 0-4.107-1.842-4.107-4.106 0-1.917 3-7.132 4.106-8.907 1.104 1.774 4.105 6.99 4.105 8.907 0 2.264-1.842 4.106-4.106 4.106z"/><path d="M17.697 20.58c-.862-.217-1.464-.99-1.464-1.88 0-.182.074-.65.573-1.727.116-.25.008-.548-.243-.663-.248-.12-.548-.008-.663.243-.45.967-.667 1.67-.667 2.147 0 1.35.913 2.52 2.22 2.85.04.01.082.014.122.014.225 0 .428-.15.485-.378.067-.268-.095-.54-.363-.607z"/></svg>