<svg xmlns="http://www.w3.org/2000/svg" width="24" height="24" viewBox="0 0 24 24"><path d="M15.018 6.112V4.034h.5c.276 0 .5-.224.5-.5v-3c0-.276-.224-.5-.5-.5h-7c-.276 0-.5.224-.5.5v3c0 .276.224.5.5.5h.5v2.07c-1.042.454-4 1.923-4 3.97v11.257c0 1.466 1.284 2.704 2.803 2.704h8.395c1.52 0 2.804-1.238 2.804-2.703V10.076c-.002-1.96-2.97-3.49-4.002-3.963zm-6-5.078h6v2h-6v-2zm9 20.298c0 .907-.843 1.703-1.804 1.703H7.82c-.96 0-1.803-.796-1.803-1.703V10.075c0-1.408 2.727-2.796 3.683-3.172.19-.075.317-.26.317-.465V4.034h4v2.404c0 .202.12.383.308.46.958.402 3.692 1.845 3.692 3.176v11.258z"/><path d="M12.838 13.235c.276 0 .5-.23.5-.507s-.224-.5-.5-.5-.5.224-.5.5v.014c0 .276.224.493.5.493zM11.252 13.242c.276 0 .5-.23.5-.507s-.224-.5-.5-.5-.5.224-.5.5v.014c0 .275.224.492.5.492z"/><path d="M12.017 16c.97 0 1.765-.61 2.018-1.528.653-.826 1.04-1.756 1.04-2.506 0-1.623-1.286-2.8-3.058-2.8-1.77 0-3.058 1.177-3.058 2.8 0 .75.386 1.68 1.04 2.506.252.917 1.048 1.527 2.017 1.527zm0-5.836c.992 0 2.058.563 2.058 1.8 0 .546-.34 1.297-.886 1.962-.05.062-.086.134-.103.212-.138.635-.663.86-1.07.86s-.934-.226-1.07-.86c-.018-.078-.053-.15-.104-.212-.546-.665-.885-1.417-.885-1.96 0-1.238 1.068-1.802 2.06-1.802zM14.28 17.625c.092.156.25.252.423.252.075 0 .15-.017.222-.052.248-.123.35-.423.227-.67l-.42-.846c-.123-.25-.424-.35-.67-.228-.24.12-.337.405-.23.648l-1.814.91-1.813-.91c.107-.243.008-.53-.232-.648-.25-.123-.548-.02-.67.227l-.42.845c-.122.247-.02.547.227.67.072.035.147.052.222.052.172 0 .332-.096.424-.252l1.146.575-1.14.573c-.133-.228-.414-.32-.652-.202-.248.124-.35.424-.227.67l.21.427v.002l.21.418c.086.177.264.278.448.278.075 0 .15-.017.222-.052.24-.12.338-.403.233-.645l1.812-.91 1.812.91c-.105.242-.007.525.232.644.07.035.146.052.222.052.184 0 .36-.102.448-.278l.208-.42.21-.427c.123-.246.022-.546-.226-.67-.237-.114-.52-.025-.65.203l-1.14-.573 1.145-.575z"/></svg>