<svg xmlns="http://www.w3.org/2000/svg" width="24" height="24" viewBox="0 0 24 24"><path d="M15.015 6.112V4.034h.5c.276 0 .5-.224.5-.5v-3c0-.276-.224-.5-.5-.5h-7c-.276 0-.5.224-.5.5v3c0 .276.224.5.5.5h.5v2.07c-1.042.454-4 1.923-4 3.97V21.332c0 1.466 1.284 2.704 2.803 2.704h8.394c1.52 0 2.804-1.238 2.804-2.703V10.075c0-1.958-2.97-3.49-4-3.962zm-6-5.078h6v2h-6v-2zm.682 5.87c.19-.075.317-.26.317-.465V4.033h4v2.404c0 .202.12.383.308.46.958.402 3.692 1.845 3.692 3.176v.96h-12v-.96c0-1.407 2.727-2.795 3.683-3.17zm8.318 12.13h-12v-7h12v7zm-1.804 4H7.818c-.96 0-1.803-.795-1.803-1.702v-1.297h12v1.297c0 .907-.842 1.703-1.803 1.703z"/><path d="M9.822 17.76c.098.098.226.146.354.146s.256-.05.354-.146l1.485-1.485L13.5 17.76c.098.098.226.146.354.146s.256-.05.354-.146c.195-.195.195-.512 0-.707l-1.485-1.485 1.485-1.485c.195-.195.195-.512 0-.707s-.512-.195-.707 0l-1.484 1.485-1.485-1.484c-.194-.195-.51-.195-.706 0s-.195.512 0 .707l1.485 1.485-1.486 1.485c-.198.196-.198.512-.002.707z"/></svg>