<svg xmlns="http://www.w3.org/2000/svg" width="24" height="24" viewBox="0 0 24 24"><path d="M19.426 21.035h-6.244c-1.166-.326-2.226-1.05-3.074-1.98h7.375c.276 0 .5-.223.5-.5s-.224-.5-.5-.5H9.338c-.696-1.077-1.13-2.31-1.13-3.54 0-1.676.688-3.295 1.883-4.484.04.003.078.013.118.013.057 0 .11-.012.165-.017l.29 1.008v.002s.002 0 .002.002c.178.615.577 1.078 1.112 1.34l-.51 2.09c-.064.268.1.538.37.603.04.01.08.016.118.016.225 0 .43-.153.485-.382l.51-2.095c.013 0 .025.004.037.003.08 0 .16-.017.24-.024l.627 2.136c.063.218.263.36.48.36.046 0 .093-.008.14-.022.265-.077.417-.355.34-.62l-.626-2.13c.084-.04.17-.08.25-.13l1.574 1.484c.097.09.22.136.343.136.133 0 .266-.053.364-.157.188-.2.18-.517-.022-.707l-1.558-1.47c.318-.507.41-1.116.232-1.736l-1.485-5.148c-.22-.76-.77-1.303-1.51-1.497l-.596-2.07c-.076-.265-.35-.417-.618-.342l-1.557.45c-.128.036-.235.122-.3.238-.063.116-.08.253-.042.38l.597 2.068c-.523.558-.7 1.31-.48 2.072l.165.577c-.543.28-.93.81-1.01 1.438-1.965 1.79-3.008 4.07-3.008 6.613 0 2.223 1.04 4.707 2.66 6.52H5.598c-.8 0-1.474.688-1.474 1.5 0 .828.66 1.5 1.473 1.5h13.826c.812 0 1.473-.672 1.473-1.5s-.662-1.498-1.474-1.498zm-5.18-10.513c-.036.27-.16.478-.29.614-.37.385-.995.562-1.512.436-.184-.045-.4-.156-.574-.364l2.377-.686zm-1.518-5.66l1.347 4.67-2.587.746-.173-.598c.477-.345.79-.903.79-1.535 0-1.006-.787-1.823-1.777-1.885l-.188-.65c-.158-.545.053-.913.257-1.125.37-.385.99-.564 1.513-.436.286.07.66.27.818.813zm-1.97-3.084l.37 1.287c-.205.034-.402.09-.595.172l-.37-1.287.595-.172zm-.55 5.47c.495 0 .897.402.897.896 0 .495-.403.898-.897.898-.495 0-.898-.403-.898-.898 0-.494.403-.897.898-.897zm-3.88 7.265c0-2.055.772-3.92 2.234-5.442.128.228.3.425.505.58-1.188 1.34-1.86 3.074-1.86 4.863 0 2.558 1.488 5.086 3.635 6.52h-1.45c-1.836-1.648-3.065-4.242-3.065-6.52zm13.098 8.522H5.6c-.253 0-.474-.233-.474-.5s.22-.5.473-.5h13.826c.252 0 .473.233.473.5s-.222.5-.474.5z"/></svg>