<svg xmlns="http://www.w3.org/2000/svg" width="24" height="24" viewBox="0 0 24 24"><path d="M22.545 1.482c-1.62-1.62-4.256-1.62-5.875 0l-10.5 10.5c-.422.422-.752.942-.953 1.503L4.113 16.55c-.217.604-.573 1.165-1.028 1.62l-.62.62L.88 20.377c-.37.37-.574.86-.574 1.385s.204 1.017.574 1.387c.382.382.883.572 1.385.572.5 0 1.003-.19 1.386-.573l2.207-2.206c.454-.453 1.015-.81 1.62-1.027l3.066-1.103c.562-.203 1.082-.533 1.503-.954l10.5-10.5c1.618-1.618 1.618-4.254 0-5.874zM2.943 22.442c-.375.372-.983.372-1.357 0-.18-.183-.28-.423-.28-.68 0-.256.1-.497.28-.678l1.23-1.23 1.358 1.356-1.23 1.23zM21.838 6.65l-10.5 10.5c-.323.322-.705.564-1.135.72l-3.065 1.103c-.744.27-1.432.706-1.99 1.263l-.267.268-1.356-1.357.268-.268c.56-.56.996-1.247 1.262-1.99l1.104-3.065c.152-.424.4-.816.72-1.134l.693-.693.803.802c.098.097.226.145.354.145s.256-.05.354-.146c.196-.196.196-.513 0-.708l-.8-.802L9.565 10l.802.802c.098.098.226.146.354.146s.256-.05.354-.146c.195-.195.195-.512 0-.707l-.802-.802 1.288-1.288.802.802c.098.098.226.146.354.146s.256-.05.354-.146c.195-.195.195-.512 0-.707l-.802-.802 1.288-1.288.802.802c.098.098.226.146.354.146s.256-.05.354-.146c.195-.195.195-.512 0-.707l-.802-.802 1.288-1.288.802.802c.098.098.226.146.354.146s.256-.05.354-.146c.195-.195.195-.512 0-.707l-.802-.802L17.38 2.19c.615-.615 1.423-.922 2.23-.922s1.615.308 2.23.922c1.227 1.23 1.227 3.23-.002 4.46z"/><path d="M19.164 4.156L8.402 14.92c-.195.194-.195.51 0 .706.098.098.226.146.354.146s.256-.05.354-.146L19.87 4.863c.196-.195.196-.512 0-.707s-.51-.195-.706 0zM2.014 6.034h3v3c0 .276.224.5.5.5s.5-.224.5-.5v-3h3c.276 0 .5-.224.5-.5s-.224-.5-.5-.5h-3v-3c0-.276-.224-.5-.5-.5s-.5.224-.5.5v3h-3c-.276 0-.5.224-.5.5s.224.5.5.5z"/></svg>