<svg xmlns="http://www.w3.org/2000/svg" width="24" height="24" viewBox="0 0 24 24"><path d="M17.123 7.653l5.108-5.108c.196-.195.196-.512 0-.707s-.51-.195-.706 0l-5.108 5.108-1.68-1.68c-.196-.196-.513-.196-.708 0L3.242 16.05c-.195.195-.195.512 0 .707l.695.695-2.282 2.282-.695-.695c-.195-.196-.512-.196-.707 0s-.195.51 0 .706l4.07 4.07c.097.097.225.145.353.145s.256-.048.354-.145c.195-.195.195-.512 0-.707l-.695-.695 2.282-2.282.694.695c.1.098.227.146.355.146s.256-.048.354-.145L18.803 10.04c.195-.195.195-.512 0-.707l-1.68-1.68zM3.628 21.706L2.362 20.44l2.28-2.282 1.267 1.266-2.282 2.282zm4.037-1.94l-.694-.695L5 17.098l-.694-.694.813-.813 1.68 1.68c.1.1.227.147.355.147s.256-.05.354-.146c.195-.194.195-.51 0-.706l-1.68-1.68.685-.687.665.664c.098.1.226.147.354.147s.255-.05.353-.146c.195-.194.195-.51 0-.706l-.664-.664.685-.686 1.68 1.68c.1.1.227.147.355.147s.256-.048.354-.145c.195-.195.195-.512 0-.707l-1.68-1.68.685-.687.663.665c.098.098.226.146.354.146s.256-.048.354-.145c.196-.195.196-.512 0-.707l-.663-.664.686-.686 1.68 1.68c.1.1.227.147.355.147s.256-.05.354-.146c.195-.196.195-.513 0-.708l-1.68-1.68.685-.687.664.664c.1.097.227.145.355.145s.256-.05.354-.146c.194-.196.194-.513 0-.708l-.665-.664 1.594-1.594 3.36 3.362-10.085 10.08zM21.877 6.55c-.67 0-1.996 3.206-1.996 3.684 0 1.1.897 1.996 1.997 1.996s1.995-.895 1.995-1.996c0-.478-1.326-3.685-1.995-3.685zm0 4.68c-.55 0-.996-.448-.996-.997 0-.394.577-1.504.997-2.236.422.73.995 1.836.995 2.236 0 .55-.446.996-.995.996z"/></svg>