<svg xmlns="http://www.w3.org/2000/svg" width="24" height="24" viewBox="0 0 24 24"><path d="M10.014 6.112V4.034h.5c.276 0 .5-.224.5-.5v-3c0-.276-.224-.5-.5-.5h-7c-.276 0-.5.224-.5.5v3c0 .276.224.5.5.5h.5v2.07c-1.042.454-4 1.923-4 3.97V21.332c0 1.466 1.284 2.704 2.803 2.704h8.394c1.52 0 2.805-1.238 2.805-2.703V10.075c0-1.958-2.97-3.49-4-3.962zm-6-5.078h6v2h-6v-2zm.683 5.87c.19-.075.317-.26.317-.465V4.033h4v2.404c0 .202.12.384.308.46.958.4 3.693 1.842 3.693 3.176v.96h-12v-.96c0-1.407 2.726-2.795 3.682-3.17zm8.318 12.13h-12v-7h12v7zm-1.804 4H2.818c-.96 0-1.803-.795-1.803-1.702v-1.297h12v1.297c0 .907-.842 1.703-1.803 1.703z"/><path d="M4.934 16.068h1.58v1.58c0 .277.224.5.5.5s.5-.223.5-.5v-1.58h1.58c.277 0 .5-.224.5-.5s-.223-.5-.5-.5h-1.58v-1.58c0-.276-.224-.5-.5-.5s-.5.224-.5.5v1.58h-1.58c-.276 0-.5.224-.5.5s.224.5.5.5zM20.485 10.034c-1.914 0-3.47 1.558-3.47 3.472v5.057c0 1.914 1.556 3.472 3.527 3.472 1.914 0 3.472-1.558 3.472-3.472v-5.057c0-1.914-1.557-3.472-3.53-3.472zm.058 1c1.363 0 2.472 1.11 2.472 2.472v2.028h-5v-2.028c0-1.363 1.108-2.472 2.528-2.472zm-.058 10c-1.362 0-2.47-1.107-2.47-2.47v-2.03h5v2.03c0 1.363-1.11 2.47-2.53 2.47z"/></svg>