<svg xmlns="http://www.w3.org/2000/svg" width="24" height="24" viewBox="0 0 24 24"><path d="M23.015 13.035h-7.577l-1.196-2.692c-.088-.198-.298-.32-.51-.294-.218.022-.394.183-.438.396l-1.023 5.01-1.96-8.433c-.053-.223-.25-.383-.48-.387-.238-.017-.432.15-.49.373l-1.59 6.025H1.013c-.276 0-.5.224-.5.5s.224.5.5.5h7.12c.227 0 .425-.153.483-.372l1.174-4.45 2.025 8.7c.053.226.254.386.487.386h.007c.234-.004.435-.17.482-.4l1.17-5.723.693 1.562c.08.18.26.296.457.296h7.902c.276 0 .5-.224.5-.5s-.223-.5-.5-.5z"/><path d="M2.58 11.973c.213-.177.24-.493.063-.704-.84-1.004-1.303-2.278-1.303-3.586 0-3.08 2.508-5.588 5.59-5.588 1.83 0 3.58.867 4.683 2.318.094.125.242.198.397.198.156 0 .303-.073.398-.197 1.105-1.452 2.856-2.318 4.686-2.318 3.082 0 5.59 2.507 5.59 5.588 0 1.31-.463 2.583-1.303 3.585-.176.21-.148.527.063.704.094.08.208.117.32.117.144 0 .285-.06.385-.178.99-1.183 1.535-2.684 1.535-4.227 0-3.633-2.956-6.588-6.59-6.588-1.932 0-3.79.826-5.082 2.237-1.293-1.41-3.15-2.237-5.082-2.237-3.634 0-6.59 2.955-6.59 6.588 0 1.543.545 3.044 1.536 4.227.18.21.496.24.707.06zM17.917 15.262l-5.63 6.487c-.097.11-.233.174-.383.174H11.9c-.15 0-.287-.065-.383-.18l-5.48-6.478c-.177-.21-.492-.237-.704-.06-.21.18-.237.495-.06.706l5.48 6.478c.285.336.7.53 1.14.533h.01c.438 0 .853-.188 1.14-.52l5.63-6.486c.18-.21.158-.524-.05-.706-.208-.178-.523-.155-.706.052z"/></svg>