<svg xmlns="http://www.w3.org/2000/svg" width="24" height="24" viewBox="0 0 24 24"><path d="M16.732 14.132c-.245.128-.34.43-.212.675 1 1.916.3 3.546-.466 4.575-1.765 2.375-5.5 3.788-8.5 3.215-1.735-.33-3.998-1.443-4.917-4.868C1.52 13.573 2.382 9.506 5.06 6.275c2.707-3.265 6.983-5.268 10.657-4.99 1.396.106 2.28.55 2.63 1.322.846 1.857-1.313 5.406-2.217 6.617-.165.222-.12.535.102.7.22.167.535.12.7-.1.146-.198 3.588-4.855 2.327-7.63-.514-1.128-1.68-1.77-3.467-1.905-3.98-.3-8.598 1.845-11.502 5.348C1.4 9.126.47 13.512 1.67 17.988c.824 3.062 2.847 5.048 5.698 5.59.52.1 1.058.148 1.6.148 3.003 0 6.19-1.46 7.89-3.748 1.32-1.78 1.517-3.78.55-5.635-.13-.245-.43-.338-.676-.21z"/><path d="M6.193 13.31c-.217.17-.255.485-.085.702.1.126.246.19.394.19.108 0 .217-.034.308-.105 1.012-.794 4.147-1.358 5.27-1.508.273-.038.466-.29.43-.563-.038-.273-.294-.463-.563-.43-.44.06-4.345.608-5.754 1.713zM14.694 11.715c-.698-.09-1.374.222-1.77.8-.697 1.025-2.057 3.12-3.325 5.647-.125.247-.025.548.222.672.246.124.546.024.67-.223 1.244-2.475 2.576-4.528 3.26-5.532.184-.27.494-.41.82-.372 6.723.825 7.655 5.946 7.69 6.164.042.244.254.418.494.418.026 0 .054-.002.08-.006.272-.045.457-.3.413-.573-.01-.06-1.067-6.076-8.556-6.995z"/><path d="M23.775 15.486c-1.118-3.036-4.05-4.764-8.796-5.14-.084-.028-.324-.295-.496-.913-.27-.963-.235-2.29.442-3.082.18-.21.155-.524-.055-.704-.21-.18-.524-.154-.704.055-1.02 1.195-1.01 3.2-.482 4.48.293.71.72 1.12 1.294 1.167 1.582.126 6.395.51 7.86 4.484.073.203.265.328.468.328.058 0 .116-.01.173-.03.258-.095.39-.383.295-.642zM12.79 11.343c.203 0 .395-.126.47-.33.093-.26-.04-.545-.3-.64-2.822-1.025-3.614-2.09-3.913-2.49-.105-.142-.188-.253-.34-.32-.253-.11-.548.002-.66.254-.093.212-.028.454.144.592l.054.068c.347.467 1.27 1.706 4.373 2.833.057.023.115.033.172.033z"/></svg>