<svg xmlns="http://www.w3.org/2000/svg" width="24" height="24" viewBox="0 0 24 24"><path d="M12.25 5.034H4.885c-.996 0-1.87.81-1.87 1.735v5.66c0 2.768 2.175 5.958 5.053 6.264v4.712c0 .276.224.5.5.5s.5-.224.5-.5v-4.72c2.826-.37 4.947-3.52 4.947-6.257V6.77c0-.94-.807-1.736-1.763-1.736zm-7.366 1h7.367c.408 0 .765.344.765.735v2.156c-1.244.482-3.11.467-4.233-.066-1.304-.62-3.28-.682-4.768-.196V6.77c0-.37.43-.736.87-.736zm3.63 11.69c-2.493 0-4.5-2.896-4.5-5.295V9.736c1.243-.523 3.185-.522 4.34.026.728.346 1.667.52 2.613.52.707 0 1.417-.1 2.047-.293v2.44c0 2.398-2.007 5.294-4.5 5.294z"/><path d="M16.995.034H9.86c-.95 0-1.846.952-1.846 1.958v.104c-.82.256-1.422 1.013-1.422 1.916 0 .276.224.5.5.5s.5-.224.5-.5c0-.56.455-1.014 1.014-1.014.56 0 1.015.455 1.015 1.014 0 .276.225.5.5.5s.5-.224.5-.5c0-.97-.69-1.784-1.606-1.973v-.047c0-.44.458-.958.845-.958h7.135c1.057 0 2.02 1.054 2.02 2.21v20.16c0 .277.224.5.5.5s.5-.223.5-.5V3.246c0-1.71-1.41-3.21-3.02-3.21zM6.64 10.05H5.31c-.276 0-.5.224-.5.5s.224.5.5.5H6.64c.275 0 .5-.224.5-.5s-.225-.5-.5-.5zM6.64 11.66H5.31c-.276 0-.5.225-.5.5s.224.5.5.5H6.64c.275 0 .5-.223.5-.5s-.225-.5-.5-.5zM6.64 13.272H5.31c-.276 0-.5.224-.5.5s.224.5.5.5H6.64c.275 0 .5-.224.5-.5s-.225-.5-.5-.5z"/></svg>