<?xml version="1.0" encoding="utf-8"?>
<!-- Generator: Adobe Illustrator 19.2.0, SVG Export Plug-In . SVG Version: 6.00 Build 0)  -->
<svg version="1.1" id="Layer_1" xmlns="http://www.w3.org/2000/svg" xmlns:xlink="http://www.w3.org/1999/xlink" x="0px" y="0px"
	 width="24px" height="24px" viewBox="0 0 24 24" style="enable-background:new 0 0 24 24;" xml:space="preserve">
<g>
	<path d="M21.041,3v2c0,0.276,0.224,0.5,0.5,0.5s0.5-0.224,0.5-0.5V2.5c0-0.276-0.224-0.5-0.5-0.5h-19c-0.276,0-0.5,0.224-0.5,0.5V5
		c0,0.276,0.224,0.5,0.5,0.5s0.5-0.224,0.5-0.5V3h1.706l-0.69,15.53c-0.061,0.899,0.247,1.759,0.866,2.421
		c0.623,0.666,1.507,1.048,2.426,1.048c0.001,0,0.003,0,0.004,0l8.903-0.011c0.003,0,0.005,0.001,0.007,0.001
		c0.004,0,0.009,0,0.013,0c0.002,0,0.004-0.001,0.007-0.002l0.359,0c0.921-0.001,1.806-0.386,2.428-1.055
		c0.618-0.664,0.923-1.525,0.859-2.413L19.182,3H21.041z M15.282,3l0.468,17.988l-2.323,0.003V3H15.282z M7.352,20.999
		c-0.001,0-0.002,0-0.003,0c-0.653,0-1.255-0.26-1.696-0.73c-0.428-0.458-0.64-1.051-0.598-1.682L5.748,3h6.68v17.993L7.352,20.999z
		 M18.931,18.579c0.044,0.62-0.166,1.214-0.594,1.673c-0.415,0.446-0.976,0.695-1.586,0.724L16.283,3h1.899L18.931,18.579z"/>
	<path d="M20.935,0H3.138C1.372,0,0.041,1.34,0.041,3.117v1.792c0,1.642,1.201,3.016,2.792,3.196
		C3.11,8.128,3.355,7.938,3.387,7.664C3.417,7.389,3.22,7.142,2.946,7.111C1.842,6.987,1.041,6.06,1.041,4.909V3.117
		C1.041,1.89,1.923,1,3.138,1h17.797c1.221,0,2.106,0.891,2.106,2.117v1.792c0,1.175-0.809,2.103-1.923,2.206
		c-0.275,0.026-0.478,0.27-0.452,0.544c0.024,0.259,0.242,0.454,0.497,0.454c0.016,0,0.031,0,0.047-0.002
		c1.614-0.15,2.831-1.527,2.831-3.202V3.117C24.041,1.34,22.705,0,20.935,0z"/>
</g>
</svg>
