<?xml version="1.0" encoding="utf-8"?>
<!-- Generator: Adobe Illustrator 19.2.0, SVG Export Plug-In . SVG Version: 6.00 Build 0)  -->
<svg version="1.1" id="Layer_1" xmlns="http://www.w3.org/2000/svg" xmlns:xlink="http://www.w3.org/1999/xlink" x="0px" y="0px"
	 width="24px" height="24px" viewBox="0 0 24 24" style="enable-background:new 0 0 24 24;" xml:space="preserve">
<g>
	<path d="M18.735,2.03l-2.101-1.9c-0.187-0.171-0.47-0.173-0.662-0.008l-1.865,1.611l-1.772-1.604
		c-0.188-0.171-0.472-0.173-0.662-0.008L9.808,1.733L8.036,0.129c-0.19-0.173-0.48-0.173-0.671,0L5.396,1.911
		C5.169,1.959,5,2.16,5,2.4v21.1C5,23.776,5.224,24,5.5,24h12.9c0.276,0,0.5-0.224,0.5-0.5V2.4C18.9,2.259,18.841,2.124,18.735,2.03
		z M17.9,23H6V2.713l1.7-1.539l1.764,1.597c0.187,0.169,0.471,0.172,0.662,0.008l1.866-1.611l1.771,1.604
		c0.188,0.169,0.47,0.172,0.663,0.008l1.865-1.611L17.9,2.622V23z"/>
	<path d="M14.5,19h-5C9.224,19,9,19.223,9,19.5S9.224,20,9.5,20h5c0.276,0,0.5-0.224,0.5-0.5S14.776,19,14.5,19z"/>
	<path d="M14.5,16h-5C9.224,16,9,16.223,9,16.5S9.224,17,9.5,17h5c0.276,0,0.5-0.224,0.5-0.5S14.776,16,14.5,16z"/>
	<path d="M11,13.044V13.5c0,0.276,0.224,0.5,0.5,0.5s0.5-0.224,0.5-0.5v-0.45c1.041-0.204,1.8-1.03,1.8-2.05
		c0-1.432-1.511-1.885-2.156-2.079C10.446,8.561,10.2,8.213,10.2,7.8c0-0.512,0.402-0.914,0.952-1.042
		C11.242,6.845,11.365,6.9,11.5,6.9c0.144,0,0.271-0.062,0.363-0.16c0.309,0.072,0.544,0.241,0.709,0.517
		c0.143,0.237,0.451,0.312,0.686,0.171c0.237-0.142,0.314-0.449,0.172-0.686C13.109,6.21,12.61,5.877,12,5.757V5.6
		c0-0.276-0.224-0.5-0.5-0.5S11,5.323,11,5.6V5.75C9.959,5.954,9.2,6.78,9.2,7.8c0,1.432,1.511,1.885,2.156,2.079
		C12.554,10.238,12.8,10.587,12.8,11c0,0.617-0.571,1.1-1.3,1.1c-0.506,0-1.197-0.281-1.68-0.684
		c-0.212-0.177-0.527-0.148-0.704,0.064c-0.177,0.212-0.148,0.527,0.064,0.704C9.704,12.621,10.376,12.929,11,13.044z"/>
</g>
</svg>
