<?xml version="1.0" encoding="utf-8"?>
<!-- Generator: Adobe Illustrator 19.2.0, SVG Export Plug-In . SVG Version: 6.00 Build 0)  -->
<svg version="1.1" id="Layer_1" xmlns="http://www.w3.org/2000/svg" xmlns:xlink="http://www.w3.org/1999/xlink" x="0px" y="0px"
	 width="24px" height="24px" viewBox="0 0 24 24" style="enable-background:new 0 0 24 24;" xml:space="preserve">
<g>
	<path d="M23.84,11.607c0-2.561-2.083-4.644-4.644-4.644c-0.111,0-0.214,0.025-0.323,0.033c0.033-0.237,0.053-0.48,0.053-0.715
		c0-2.561-2.083-4.644-4.644-4.644S9.638,3.721,9.638,6.281c0,0.791,0.217,1.525,0.567,2.177L5.507,7.674
		c-0.001,0-0.001,0-0.001-0.001c-0.001,0-0.001,0-0.002,0L2.608,7.189c-0.13-0.021-0.265,0.01-0.373,0.086
		C2.127,7.352,2.055,7.469,2.033,7.6l-0.484,2.896c0,0.001,0,0.001-0.001,0.001c0,0,0,0.001,0,0.002l-0.83,4.967
		c0,0,0,0.001,0,0.001s0,0.001,0,0.001l-0.484,2.897c-0.045,0.272,0.138,0.529,0.411,0.575l17.851,2.982
		c0.027,0.005,0.056,0.007,0.083,0.007c0.239,0,0.45-0.172,0.492-0.416l0.909-5.341C22.167,15.796,23.84,13.899,23.84,11.607z
		 M14.282,2.638c2.009,0,3.644,1.634,3.644,3.644c0,0.306-0.047,0.627-0.114,0.917c-1.325,0.418-2.399,1.397-2.916,2.675
		c-0.2,0.031-0.409,0.052-0.614,0.052c-2.009,0-3.644-1.635-3.644-3.644S12.273,2.638,14.282,2.638z M18.671,17.903
		c-1.607-0.059-3.025,0.926-3.504,2.448L4.152,18.511c0.015-0.735-0.192-1.453-0.627-2.062c-0.435-0.61-1.046-1.039-1.746-1.263
		l0.68-4.071c0.022,0,0.045,0.006,0.068,0.006c1.483,0,2.806-0.97,3.262-2.386l5.274,0.881c0.836,0.807,1.968,1.31,3.219,1.31
		c0.113,0,0.227-0.011,0.341-0.019c-0.035,0.23-0.071,0.461-0.071,0.7c0,2.478,1.956,4.491,4.403,4.619L18.671,17.903z M4.795,8.569
		c-0.351,0.896-1.21,1.507-2.169,1.548l0.31-1.858L4.795,8.569z M1.614,16.177c0.438,0.17,0.818,0.462,1.098,0.853
		c0.28,0.391,0.432,0.846,0.451,1.315l-1.859-0.311L1.614,16.177z M18.169,20.853l-2.015-0.337c0.367-0.99,1.282-1.622,2.35-1.63
		L18.169,20.853z M19.196,15.251c-2.009,0-3.644-1.635-3.644-3.644c0-2.009,1.635-3.644,3.644-3.644s3.644,1.634,3.644,3.644
		C22.84,13.616,21.205,15.251,19.196,15.251z"/>
	<path d="M11.514,11.549l0.107-0.566c0.051-0.271-0.127-0.533-0.398-0.584c-0.269-0.05-0.533,0.127-0.584,0.398l-0.107,0.567
		c-0.917,0.033-1.709,0.627-1.87,1.484c-0.191,1.013,0.624,1.636,1.216,1.985l-0.329,1.742c-0.306-0.168-0.621-0.414-0.831-0.681
		c-0.171-0.216-0.484-0.253-0.702-0.083c-0.217,0.171-0.254,0.485-0.083,0.702c0.363,0.461,0.903,0.863,1.424,1.084l-0.107,0.567
		c-0.051,0.271,0.127,0.533,0.398,0.584c0.031,0.006,0.062,0.009,0.093,0.009c0.236,0,0.446-0.167,0.491-0.407l0.107-0.57
		c0.356-0.013,0.702-0.102,1.003-0.279c0.464-0.273,0.772-0.7,0.866-1.203c0.194-1.027-0.657-1.667-1.215-1.989l0.326-1.731
		c0.164,0.113,0.295,0.259,0.366,0.431c0.106,0.255,0.398,0.378,0.654,0.27c0.255-0.106,0.376-0.398,0.27-0.654
		C12.412,12.149,12.011,11.765,11.514,11.549z M9.644,13.034c0.061-0.322,0.34-0.55,0.692-0.633l-0.258,1.368
		C9.65,13.451,9.608,13.228,9.644,13.034z M11.226,16.113c-0.041,0.216-0.18,0.402-0.391,0.527
		c-0.091,0.054-0.196,0.081-0.301,0.106l0.259-1.375C11.232,15.699,11.258,15.944,11.226,16.113z"/>
	<path d="M19.497,11.137c-0.721-0.226-0.817-0.402-0.817-0.544c0-0.282,0.306-0.521,0.668-0.521c0.251,0,0.479,0.11,0.596,0.288
		c0.151,0.232,0.463,0.295,0.691,0.145c0.231-0.151,0.296-0.461,0.146-0.692c-0.211-0.322-0.549-0.552-0.933-0.663V9.014
		c0-0.276-0.224-0.5-0.5-0.5s-0.5,0.224-0.5,0.5V9.15c-0.675,0.195-1.168,0.765-1.168,1.443c0,1.021,1.063,1.355,1.527,1.501
		c0.809,0.236,0.809,0.466,0.809,0.541c0,0.282-0.306,0.521-0.668,0.521c-0.277,0-0.725-0.192-0.996-0.429
		c-0.209-0.182-0.524-0.159-0.705,0.049c-0.182,0.208-0.159,0.523,0.049,0.705c0.319,0.278,0.747,0.491,1.152,0.597v0.136
		c0,0.276,0.224,0.5,0.5,0.5s0.5-0.224,0.5-0.5v-0.136c0.675-0.195,1.168-0.765,1.168-1.443
		C21.016,11.581,19.866,11.244,19.497,11.137z"/>
	<path d="M13.859,8.711v0.047c0,0.276,0.224,0.5,0.5,0.5s0.5-0.224,0.5-0.5V8.711c0.675-0.195,1.168-0.765,1.168-1.444
		c0-1.055-1.15-1.391-1.519-1.498c-0.72-0.225-0.816-0.401-0.816-0.544c0-0.282,0.306-0.521,0.667-0.521
		c0.251,0,0.479,0.11,0.596,0.288c0.153,0.232,0.464,0.294,0.692,0.145c0.231-0.151,0.296-0.461,0.145-0.692
		c-0.211-0.322-0.548-0.552-0.933-0.663V3.646c0-0.276-0.224-0.5-0.5-0.5s-0.5,0.224-0.5,0.5v0.136
		c-0.674,0.195-1.167,0.765-1.167,1.443c0,1.023,1.063,1.356,1.526,1.501c0.809,0.236,0.809,0.465,0.809,0.541
		c0,0.283-0.306,0.521-0.668,0.521c-0.276,0-0.723-0.192-0.995-0.429c-0.209-0.181-0.524-0.16-0.705,0.049
		c-0.182,0.208-0.16,0.524,0.049,0.705C13.027,8.391,13.454,8.604,13.859,8.711z"/>
</g>
</svg>
