<?xml version="1.0" encoding="utf-8"?>
<!-- Generator: Adobe Illustrator 19.2.0, SVG Export Plug-In . SVG Version: 6.00 Build 0)  -->
<svg version="1.1" id="Layer_1" xmlns="http://www.w3.org/2000/svg" xmlns:xlink="http://www.w3.org/1999/xlink" x="0px" y="0px"
	 width="24px" height="24px" viewBox="0 0 24 24" style="enable-background:new 0 0 24 24;" xml:space="preserve">
<g>
	<path d="M11.978,18.916c2.707,0,4.909-2.202,4.909-4.909s-2.202-4.909-4.909-4.909S7.068,11.3,7.068,14.007
		S9.271,18.916,11.978,18.916z M11.978,10.097c2.155,0,3.909,1.753,3.909,3.909c0,2.155-1.754,3.909-3.909,3.909
		c-2.156,0-3.909-1.754-3.909-3.909C8.068,11.851,9.822,10.097,11.978,10.097z"/>
	<path d="M10.032,16.155c0,0.276,0.224,0.5,0.5,0.5h0.47v0.246c0,0.276,0.224,0.5,0.5,0.5s0.5-0.224,0.5-0.5v-0.246h0.683
		c1.089-0.013,1.658-0.838,1.657-1.647c0-0.432-0.175-0.875-0.501-1.194c0.032-0.038,0.07-0.069,0.098-0.111
		c0.292-0.435,0.325-0.99,0.086-1.45c-0.284-0.547-0.895-0.871-1.686-0.887h-0.338v-0.253c0-0.276-0.224-0.5-0.5-0.5
		s-0.5,0.224-0.5,0.5v0.253h-0.47c-0.276,0-0.5,0.224-0.5,0.5c0,0.264,0.206,0.475,0.466,0.493v3.303
		C10.239,15.68,10.032,15.891,10.032,16.155z M12.679,15.655h-1.18v-1.284h0.936c0.049,0.004,0.098,0.007,0.146,0.007
		c0.022,0,0.041-0.006,0.063-0.007h0.091c0.591,0.006,0.607,0.573,0.607,0.638C13.342,15.115,13.311,15.647,12.679,15.655z
		 M13.138,12.714c0.07,0.135,0.06,0.3-0.028,0.431c-0.114,0.169-0.329,0.245-0.606,0.226h-1.005v-1.005h0.831
		C12.733,12.374,13.027,12.501,13.138,12.714z"/>
	<path d="M23.443,6.958H1.991c-0.583,0-1.075-0.671-1.075-1.465s0.492-1.465,1.075-1.465h21.453c0.276,0,0.5-0.224,0.5-0.5
		s-0.224-0.5-0.5-0.5H1.991c-1.144,0-2.075,1.106-2.075,2.465v13.452c0,1.145,0.931,2.075,2.075,2.075h21.453
		c0.276,0,0.5-0.224,0.5-0.5V7.458C23.943,7.181,23.72,6.958,23.443,6.958z M22.943,20.02H1.991c-0.593,0-1.075-0.482-1.075-1.075
		V7.601c0.313,0.227,0.682,0.357,1.075,0.357h20.953V20.02z"/>
	<path d="M23.443,4.993H2.31c-0.276,0-0.5,0.224-0.5,0.5s0.224,0.5,0.5,0.5h21.134c0.276,0,0.5-0.224,0.5-0.5
		S23.72,4.993,23.443,4.993z"/>
</g>
</svg>
