<?xml version="1.0" encoding="utf-8"?>
<!-- Generator: Adobe Illustrator 19.2.0, SVG Export Plug-In . SVG Version: 6.00 Build 0)  -->
<svg version="1.1" id="Layer_1" xmlns="http://www.w3.org/2000/svg" xmlns:xlink="http://www.w3.org/1999/xlink" x="0px" y="0px"
	 width="24px" height="24px" viewBox="0 0 24 24" style="enable-background:new 0 0 24 24;" xml:space="preserve">
<g>
	<path d="M15.938,4.948c0.554,0.011,1.238,0.136,1.543,0.664c0.261,0.453,0.382,0.864,0.499,1.261
		c0.191,0.652,0.39,1.327,1.202,1.772c0.076,0.042,0.158,0.062,0.24,0.062c0.177,0,0.348-0.094,0.438-0.26
		c0.133-0.242,0.044-0.546-0.198-0.679c-0.432-0.236-0.534-0.532-0.724-1.177c-0.121-0.411-0.271-0.922-0.593-1.479
		c-0.604-1.049-1.86-1.19-2.672-1.163c0.336-0.748,1.203-2.06,2.046-3.143c0.117-0.15,0.139-0.355,0.055-0.526
		C17.69,0.109,17.517,0,17.325,0H6.757C6.566,0,6.392,0.109,6.308,0.281C6.224,0.452,6.245,0.656,6.362,0.807
		C7.232,1.922,8.13,3.286,8.441,4.02C7.409,4.059,7.097,4.294,6.443,5.046C6.277,5.237,6.075,5.47,5.803,5.751
		C4.885,6.703,4.269,6.237,4.151,6.131C3.952,5.943,3.64,5.949,3.448,6.146C3.256,6.344,3.261,6.66,3.459,6.853
		c0.053,0.051,0.542,0.513,1.295,0.483c0.613-0.01,1.208-0.31,1.769-0.891c0.286-0.297,0.5-0.542,0.675-0.744
		c0.37-0.425,0.52-0.594,0.881-0.657C6.474,7.482,2.049,14.59,2.175,18.74c0.048,1.558,0.976,3.616,5.126,4.573
		c2.285,0.527,4.514,0.482,4.739,0.478c0.048,0.002,0.166,0.004,0.342,0.004c1.337,0,5.996-0.158,8.259-2.282
		c0.806-0.758,1.231-1.686,1.265-2.758C22.035,14.543,17.48,7.281,15.938,4.948z M16.324,1c-0.64,0.884-1.473,2.147-1.72,3.015
		H9.478C9.23,3.147,8.398,1.884,7.758,1H16.324z M16.572,22.343c-1.777,0.409-3.571,0.451-4.241,0.451
		c-0.38,0-0.28-0.003-0.29-0.003c-0.005,0-0.01,0-0.015,0c-0.021,0-2.265,0.062-4.5-0.452c-2.833-0.653-4.297-1.874-4.351-3.63
		C3.046,14.483,8.334,6.45,9.303,5.015h5.475c0.97,1.437,6.257,9.48,6.128,13.708C20.853,20.475,19.395,21.692,16.572,22.343z"/>
	<path d="M10.287,3.593h3.379c0.276,0,0.5-0.224,0.5-0.5s-0.224-0.5-0.5-0.5h-3.379c-0.276,0-0.5,0.224-0.5,0.5
		S10.011,3.593,10.287,3.593z"/>
	<path d="M10.287,6.495h3.379c0.276,0,0.5-0.224,0.5-0.5s-0.224-0.5-0.5-0.5h-3.379c-0.276,0-0.5,0.224-0.5,0.5
		S10.011,6.495,10.287,6.495z"/>
	<path d="M14.951,16.845c-0.24-0.132-0.546-0.045-0.679,0.198c-0.456,0.833-1.174,1.331-1.919,1.331
		c-0.961,0-1.787-0.788-2.17-1.916h2.565c0.276,0,0.5-0.224,0.5-0.5s-0.224-0.5-0.5-0.5H9.982C9.97,15.328,9.953,15.2,9.953,15.065
		c0-0.178,0.018-0.349,0.038-0.52h2.758c0.276,0,0.5-0.224,0.5-0.5s-0.224-0.5-0.5-0.5h-2.516c0.401-1.059,1.196-1.791,2.12-1.791
		c0.718,0,1.394,0.445,1.855,1.221c0.142,0.238,0.449,0.316,0.686,0.174c0.237-0.141,0.315-0.448,0.174-0.685
		c-0.646-1.087-1.636-1.71-2.715-1.71c-1.452,0-2.685,1.165-3.172,2.791H8.485c-0.276,0-0.5,0.224-0.5,0.5s0.224,0.5,0.5,0.5h0.509
		c-0.017,0.172-0.041,0.342-0.041,0.52c0,0.135,0.022,0.262,0.031,0.394H8.485c-0.276,0-0.5,0.224-0.5,0.5s0.224,0.5,0.5,0.5h0.666
		c0.46,1.69,1.714,2.916,3.203,2.916c1.116,0,2.161-0.691,2.796-1.851C15.282,17.282,15.193,16.978,14.951,16.845z"/>
</g>
</svg>
