<?xml version="1.0" encoding="utf-8"?>
<!-- Generator: Adobe Illustrator 19.2.0, SVG Export Plug-In . SVG Version: 6.00 Build 0)  -->
<svg version="1.1" id="Layer_1" xmlns="http://www.w3.org/2000/svg" xmlns:xlink="http://www.w3.org/1999/xlink" x="0px" y="0px"
	 width="24px" height="24px" viewBox="0 0 24 24" style="enable-background:new 0 0 24 24;" xml:space="preserve">
<g>
	<path d="M18.1,0H5C3.917,0,3.1,0.817,3.1,1.9v20.2C3.1,23.183,3.917,24,5,24h13.1c0.914,0,1.9-0.765,1.9-2V1.9
		C20,0.817,19.183,0,18.1,0z M19,22c0,0.617-0.468,1-0.9,1H5c-0.521,0-0.9-0.378-0.9-0.899V1.9C4.1,1.379,4.479,1,5,1h13.1
		C18.621,1,19,1.379,19,1.9V22z"/>
	<path d="M10.4,12H9v-1.4c0-0.276-0.224-0.5-0.5-0.5S8,10.323,8,10.6V12H6.5C6.224,12,6,12.223,6,12.5S6.224,13,6.5,13H8v1.4
		c0,0.276,0.224,0.5,0.5,0.5S9,14.677,9,14.4V13h1.4c0.276,0,0.5-0.224,0.5-0.5S10.676,12,10.4,12z"/>
	<path d="M16.4,12h-3.9c-0.276,0-0.5,0.224-0.5,0.5s0.224,0.5,0.5,0.5h3.9c0.276,0,0.5-0.224,0.5-0.5S16.677,12,16.4,12z"/>
	<path d="M16.4,18h-3.9c-0.276,0-0.5,0.224-0.5,0.5s0.224,0.5,0.5,0.5h3.9c0.276,0,0.5-0.224,0.5-0.5S16.677,18,16.4,18z"/>
	<path d="M10.559,16.451c-0.192-0.197-0.508-0.203-0.707-0.01L8.45,17.803l-1.401-1.362c-0.198-0.193-0.515-0.188-0.707,0.01
		c-0.193,0.198-0.188,0.515,0.01,0.707L7.733,18.5l-1.381,1.342c-0.198,0.192-0.203,0.509-0.01,0.707
		C6.439,20.649,6.57,20.7,6.7,20.7c0.125,0,0.251-0.047,0.349-0.142l1.401-1.362l1.401,1.362C9.949,20.653,10.075,20.7,10.2,20.7
		c0.13,0,0.261-0.051,0.358-0.151c0.193-0.198,0.188-0.515-0.01-0.707L9.168,18.5l1.381-1.342
		C10.747,16.966,10.751,16.649,10.559,16.451z"/>
	<path d="M14.859,16.849C14.95,16.75,15,16.63,15,16.5s-0.05-0.26-0.15-0.36c-0.189-0.18-0.53-0.18-0.7,0.011
		C14.05,16.24,14,16.37,14,16.5s0.05,0.26,0.149,0.35C14.24,16.95,14.37,17,14.5,17S14.75,16.95,14.859,16.849z"/>
	<path d="M14.14,20.15C14.05,20.24,14,20.37,14,20.5s0.05,0.25,0.149,0.36C14.25,20.95,14.37,21,14.5,21s0.26-0.05,0.35-0.15
		C14.95,20.76,15,20.63,15,20.5s-0.05-0.26-0.15-0.35C14.67,19.96,14.34,19.95,14.14,20.15z"/>
	<path d="M16.5,3h-10C6.224,3,6,3.223,6,3.5v4C6,7.776,6.224,8,6.5,8h10C16.776,8,17,7.776,17,7.5v-4C17,3.223,16.776,3,16.5,3z
		 M16,7H7V4h9V7z"/>
</g>
</svg>
