<?xml version="1.0" encoding="utf-8"?>
<!-- Generator: Adobe Illustrator 19.2.0, SVG Export Plug-In . SVG Version: 6.00 Build 0)  -->
<svg version="1.1" id="Layer_1" xmlns="http://www.w3.org/2000/svg" xmlns:xlink="http://www.w3.org/1999/xlink" x="0px" y="0px"
	 width="24px" height="24px" viewBox="0 0 24 24" style="enable-background:new 0 0 24 24;" xml:space="preserve">
<g>
	<path d="M8.5,9C8.224,9,8,9.223,8,9.5v12C8,21.776,8.224,22,8.5,22h2c0.276,0,0.5-0.224,0.5-0.5v-12C11,9.223,10.776,9,10.5,9H8.5z
		 M10,21H9V10h1V21z"/>
	<path d="M3.5,9C3.224,9,3,9.223,3,9.5v12C3,21.776,3.224,22,3.5,22h2C5.776,22,6,21.776,6,21.5v-12C6,9.223,5.776,9,5.5,9H3.5z
		 M5,21H4V10h1V21z"/>
	<path d="M13.5,9C13.224,9,13,9.223,13,9.5v12c0,0.276,0.224,0.5,0.5,0.5h2c0.276,0,0.5-0.224,0.5-0.5v-12C16,9.223,15.776,9,15.5,9
		H13.5z M15,21h-1V10h1V21z"/>
	<path d="M18.5,9C18.224,9,18,9.223,18,9.5v12c0,0.276,0.224,0.5,0.5,0.5h2c0.276,0,0.5-0.224,0.5-0.5v-12C21,9.223,20.776,9,20.5,9
		H18.5z M20,21h-1V10h1V21z"/>
	<path d="M0.6,8h22.8c0.224,0,0.42-0.149,0.481-0.364c0.061-0.215-0.029-0.445-0.22-0.562l-11.4-7c-0.161-0.099-0.362-0.099-0.523,0
		l-11.4,7c-0.19,0.117-0.28,0.347-0.219,0.562C0.18,7.851,0.376,8,0.6,8z M12,1.087L21.631,7H2.37L12,1.087z"/>
	<path d="M23.4,23H0.6c-0.276,0-0.5,0.224-0.5,0.5S0.324,24,0.6,24h22.8c0.276,0,0.5-0.224,0.5-0.5S23.677,23,23.4,23z"/>
	<path d="M12,3c-0.827,0-1.5,0.673-1.5,1.5S11.173,6,12,6s1.5-0.673,1.5-1.5S12.827,3,12,3z M12,5c-0.276,0-0.5-0.224-0.5-0.5
		S11.724,4,12,4s0.5,0.224,0.5,0.5S12.276,5,12,5z"/>
</g>
</svg>
