<?xml version="1.0" encoding="utf-8"?>
<!-- Generator: Adobe Illustrator 19.2.0, SVG Export Plug-In . SVG Version: 6.00 Build 0)  -->
<svg version="1.1" id="Layer_1" xmlns="http://www.w3.org/2000/svg" xmlns:xlink="http://www.w3.org/1999/xlink" x="0px" y="0px"
	 width="24px" height="24px" viewBox="0 0 24 24" style="enable-background:new 0 0 24 24;" xml:space="preserve">
<g>
	<path d="M23.5,13h-1.6V9.4c0-0.276-0.224-0.5-0.5-0.5H2c-0.606,0-1.1-0.673-1.1-1.5S1.394,5.9,2,5.9h19.5
		c0.276,0,0.5-0.224,0.5-0.5s-0.224-0.5-0.5-0.5H2c-1.178,0-2.1,1.098-2.1,2.5c0,0.024,0.005,0.047,0.006,0.071
		C-0.095,7.481-0.1,7.49-0.1,7.5V21c0,1.178,0.922,2.101,2.1,2.101h19.5c0.276,0,0.5-0.224,0.5-0.5V19h1.5
		c0.276,0,0.5-0.224,0.5-0.5v-5C24,13.223,23.776,13,23.5,13z M21,22.1H2c-0.627,0-1.1-0.474-1.1-1.101V9.531
		C1.219,9.761,1.592,9.9,2,9.9h18.9V13H19c-1.683,0-3,1.317-3,3s1.317,3,3,3h2V22.1z M23,18h-4c-1.121,0-2-0.879-2-2s0.879-2,2-2
		h2.115c0.082,0.059,0.177,0.101,0.286,0.101s0.204-0.042,0.286-0.101H23V18z"/>
	<path d="M21.4,7H2.3C2.023,7,1.8,7.223,1.8,7.5S2.023,8,2.3,8H21.4c0.276,0,0.5-0.224,0.5-0.5S21.677,7,21.4,7z"/>
	<path d="M19.05,15.65c-0.1,0.09-0.15,0.22-0.15,0.35s0.051,0.26,0.141,0.35c0.1,0.101,0.229,0.15,0.359,0.15
		c0.131,0,0.261-0.05,0.36-0.15c0.09-0.09,0.14-0.22,0.14-0.35s-0.05-0.26-0.149-0.36C19.56,15.46,19.24,15.46,19.05,15.65z"/>
</g>
</svg>
