<?xml version="1.0" encoding="utf-8"?>
<!-- Generator: Adobe Illustrator 19.2.0, SVG Export Plug-In . SVG Version: 6.00 Build 0)  -->
<svg version="1.1" id="Layer_1" xmlns="http://www.w3.org/2000/svg" xmlns:xlink="http://www.w3.org/1999/xlink" x="0px" y="0px"
	 width="24px" height="24px" viewBox="0 0 24 24" style="enable-background:new 0 0 24 24;" xml:space="preserve">
<g>
	<path d="M23.95,23.344l-0.984-3C22.898,20.138,22.707,20,22.491,20h-1.528l-0.87-2.655C20.025,17.138,19.833,17,19.617,17h-1.683
		l-0.87-2.655C16.996,14.138,16.804,14,16.588,14h-1.554l-1.106-2.721c-0.104-0.256-0.397-0.38-0.651-0.275
		c-0.256,0.104-0.379,0.396-0.274,0.651L13.954,14h-0.562h-2.708H9.038h-1.55c-0.216,0-0.408,0.139-0.475,0.344L6.142,17H4.613
		c-0.216,0-0.408,0.139-0.475,0.344L3.267,20H1.583c-0.216,0-0.408,0.139-0.475,0.344l-0.984,3c-0.05,0.152-0.024,0.319,0.07,0.449
		C0.289,23.923,0.439,24,0.6,24h5.164c0.145,0,0.276-0.07,0.37-0.177C6.228,23.93,6.359,24,6.504,24h5.164
		c0.145,0,0.276-0.07,0.37-0.177C12.132,23.93,12.263,24,12.408,24h5.164c0.144,0,0.275-0.07,0.37-0.177
		C18.036,23.93,18.167,24,18.312,24h5.164c0.16,0,0.311-0.077,0.405-0.207C23.975,23.663,24.001,23.496,23.95,23.344z M19.91,20
		h-0.614h-2.708h-0.46l0.656-2h0.787h1.684L19.91,20z M10.683,20h-0.459l0.656-2h0.788h0.74h0.943l0.656,2h-0.615H10.683z M9.155,20
		l-0.656-2h1.328l-0.656,2H9.155z M12.03,17l-0.656-2h1.328l-0.656,2H12.03z M15.059,20l-0.656-2h1.329l-0.656,2H15.059z M14.697,15
		h1.528l0.655,2h-0.459h-2.709h-0.615l0.656-2H14.697z M7.85,15h1.188h1.283l0.656,2h-0.46H7.809H7.194L7.85,15z M4.976,18h1.528
		h0.942l0.656,2H7.488H4.779H4.32L4.976,18z M1.29,23l0.656-2h1.684h0.788l0.656,2H1.29z M6.134,23.024L5.47,21h1.328L6.134,23.024z
		 M7.194,23l0.656-2h0.943h0.74h0.788l0.656,2H7.194z M12.038,23.023L11.374,21h1.328L12.038,23.023z M13.098,23l0.656-2h0.943h0.74
		h0.788l0.655,2H13.098z M17.942,23.024L17.278,21h1.328L17.942,23.024z M19.002,23l0.656-2h0.942h1.528l0.656,2H19.002z"/>
	<path d="M13.559,6.995c0.793,0.092,2.218,0.404,2.665,0.851c0.446,0.446,0.759,1.872,0.851,2.666
		c0.029,0.252,0.243,0.442,0.497,0.442s0.468-0.19,0.497-0.442c0.092-0.794,0.404-2.219,0.851-2.666
		c0.446-0.446,1.871-0.759,2.665-0.851c0.252-0.029,0.442-0.243,0.442-0.497c0-0.254-0.19-0.468-0.442-0.497
		c-0.793-0.091-2.218-0.403-2.665-0.851c-0.446-0.446-0.759-1.872-0.851-2.666c-0.029-0.252-0.243-0.442-0.497-0.442
		s-0.468,0.19-0.497,0.442c-0.092,0.794-0.404,2.219-0.851,2.666c-0.445,0.446-1.871,0.758-2.665,0.851
		c-0.252,0.029-0.442,0.243-0.442,0.497S13.307,6.966,13.559,6.995z M16.931,5.858c0.268-0.268,0.478-0.673,0.641-1.108
		c0.163,0.435,0.373,0.841,0.641,1.108s0.673,0.478,1.107,0.64c-0.435,0.163-0.84,0.373-1.107,0.641s-0.478,0.673-0.641,1.108
		c-0.163-0.435-0.373-0.84-0.641-1.108c-0.268-0.268-0.672-0.478-1.107-0.641C16.259,6.336,16.663,6.126,16.931,5.858z"/>
	<path d="M6.988,10.954c0.495,0.057,1.334,0.25,1.567,0.482c0.231,0.231,0.424,1.071,0.482,1.567
		c0.029,0.252,0.243,0.442,0.497,0.442c0,0,0,0,0,0c0.253,0,0.467-0.19,0.496-0.442c0.057-0.494,0.25-1.334,0.482-1.566
		c0.231-0.231,1.072-0.424,1.567-0.482c0.252-0.029,0.442-0.243,0.442-0.497c0-0.254-0.19-0.467-0.442-0.497
		c-0.496-0.058-1.336-0.251-1.567-0.482c-0.231-0.231-0.424-1.072-0.482-1.567C10,7.66,9.787,7.47,9.533,7.47
		S9.066,7.66,9.037,7.912C8.979,8.407,8.786,9.248,8.555,9.479S7.483,9.903,6.988,9.961c-0.252,0.029-0.442,0.243-0.442,0.497
		C6.546,10.711,6.736,10.925,6.988,10.954z M9.262,10.186c0.103-0.103,0.193-0.232,0.271-0.377c0.079,0.145,0.169,0.274,0.272,0.377
		c0.103,0.103,0.232,0.193,0.376,0.271c-0.144,0.079-0.273,0.169-0.376,0.272c-0.103,0.103-0.193,0.232-0.272,0.376
		c-0.079-0.144-0.168-0.273-0.271-0.376s-0.232-0.193-0.376-0.272C9.029,10.379,9.159,10.289,9.262,10.186z"/>
</g>
</svg>
