<?xml version="1.0" encoding="utf-8"?>
<!-- Generator: Adobe Illustrator 19.2.0, SVG Export Plug-In . SVG Version: 6.00 Build 0)  -->
<svg version="1.1" id="Layer_1" xmlns="http://www.w3.org/2000/svg" xmlns:xlink="http://www.w3.org/1999/xlink" x="0px" y="0px"
	 width="24px" height="24px" viewBox="0 0 24 24" style="enable-background:new 0 0 24 24;" xml:space="preserve">
<g>
	<path d="M13.017,2.833c2.041-1.121,4.433-0.777,6.089,0.88c1.377,1.378,1.832,3.262,1.305,5.035l-0.705-1.602
		C19.594,6.893,19.3,6.78,19.046,6.89c-0.253,0.111-0.368,0.406-0.257,0.659l1.152,2.618c0.007,0.029,0.023,0.053,0.035,0.08
		l0.007,0.015c0.001,0.002,0.003,0.004,0.004,0.006c0.022,0.042,0.048,0.081,0.082,0.116c0.029,0.033,0.062,0.059,0.098,0.083
		c0.006,0.003,0.009,0.009,0.015,0.013c0.003,0.001,0.006,0.001,0.008,0.002c0.024,0.014,0.044,0.034,0.07,0.044
		c0.058,0.023,0.119,0.034,0.181,0.034c0.068,0,0.138-0.014,0.201-0.042l2.714-1.195c0.253-0.111,0.368-0.406,0.257-0.659
		c-0.112-0.252-0.406-0.367-0.659-0.256l-1.609,0.708c0.676-2.145,0.137-4.44-1.532-6.11c-1.977-1.978-4.834-2.39-7.277-1.05
		c-0.242,0.133-0.331,0.437-0.198,0.679C12.469,2.877,12.773,2.968,13.017,2.833z"/>
	<path d="M10.927,20.756c-2.044,1.121-4.434,0.774-6.089-0.88c-1.377-1.378-1.831-3.262-1.304-5.034l0.705,1.602
		c0.083,0.188,0.266,0.299,0.458,0.299c0.067,0,0.135-0.014,0.201-0.042c0.252-0.111,0.367-0.407,0.256-0.659l-1.152-2.615
		c-0.021-0.085-0.068-0.159-0.131-0.224c-0.028-0.032-0.061-0.058-0.097-0.082c-0.005-0.003-0.008-0.009-0.014-0.012
		c-0.003-0.002-0.006-0.001-0.009-0.003c-0.024-0.014-0.044-0.034-0.07-0.045c-0.124-0.048-0.262-0.044-0.383,0.009l-2.713,1.195
		c-0.252,0.111-0.367,0.407-0.256,0.659c0.111,0.253,0.405,0.367,0.659,0.257l1.609-0.709c-0.676,2.145-0.138,4.44,1.532,6.11
		c1.206,1.205,2.737,1.829,4.303,1.829c1.003,0,2.021-0.256,2.974-0.779c0.242-0.133,0.331-0.437,0.198-0.679
		C11.474,20.712,11.169,20.622,10.927,20.756z"/>
	<path d="M6.337,12.125c3.218,0,5.835-2.618,5.835-5.835c0-3.218-2.618-5.835-5.835-5.835c-3.217,0-5.835,2.618-5.835,5.835
		C0.502,9.508,3.12,12.125,6.337,12.125z M6.337,1.455c2.667,0,4.835,2.169,4.835,4.835c0,2.666-2.169,4.835-4.835,4.835
		c-2.666,0-4.835-2.169-4.835-4.835C1.502,3.624,3.671,1.455,6.337,1.455z"/>
	<path d="M17.907,11.644c-3.218,0-5.835,2.617-5.835,5.835s2.618,5.836,5.835,5.836s5.835-2.618,5.835-5.836
		S21.125,11.644,17.907,11.644z M17.907,22.315c-2.666,0-4.836-2.169-4.836-4.836c0-2.666,2.17-4.835,4.836-4.835
		s4.835,2.169,4.835,4.835C22.742,20.146,20.573,22.315,17.907,22.315z"/>
	<path d="M5.881,9.296v0.263c0,0.276,0.224,0.5,0.5,0.5s0.5-0.224,0.5-0.5V9.292C7.724,9.089,8.349,8.4,8.349,7.574
		c0-1.23-1.375-1.632-1.818-1.761c-0.982-0.308-1.118-0.57-1.118-0.807c0-0.432,0.435-0.784,0.968-0.784
		c0.358,0,0.687,0.162,0.857,0.421C7.39,4.875,7.7,4.94,7.931,4.788c0.231-0.151,0.295-0.461,0.144-0.692
		c-0.266-0.405-0.7-0.694-1.193-0.813V3.021c0-0.276-0.224-0.5-0.5-0.5s-0.5,0.224-0.5,0.5v0.267
		C5.039,3.49,4.413,4.181,4.413,5.007c0,1.191,1.274,1.59,1.828,1.764c1.108,0.323,1.108,0.672,1.108,0.804
		c0,0.432-0.435,0.783-0.968,0.783C6,8.357,5.413,8.106,5.045,7.786C4.836,7.605,4.521,7.626,4.34,7.835
		C4.158,8.043,4.18,8.359,4.389,8.54C4.802,8.9,5.364,9.178,5.881,9.296z"/>
	<path d="M20.186,18.787c-0.238-0.133-0.545-0.044-0.678,0.199c-0.316,0.578-0.808,0.923-1.315,0.923
		c-0.598,0-1.129-0.479-1.421-1.17h1.716c0.276,0,0.5-0.224,0.5-0.5s-0.224-0.5-0.5-0.5h-1.941
		c-0.003-0.055-0.012-0.109-0.012-0.165c0-0.088,0.012-0.172,0.019-0.258h1.934c0.276,0,0.5-0.224,0.5-0.5s-0.224-0.5-0.5-0.5h-1.68
		c0.299-0.642,0.813-1.077,1.385-1.077c0.487,0,0.951,0.309,1.271,0.847c0.143,0.238,0.45,0.313,0.686,0.174
		c0.237-0.142,0.315-0.448,0.174-0.686c-0.506-0.849-1.283-1.335-2.131-1.335c-1.111,0-2.062,0.861-2.459,2.077h-0.419
		c-0.276,0-0.5,0.224-0.5,0.5s0.224,0.5,0.5,0.5h0.24c-0.005,0.087-0.021,0.17-0.021,0.258c0,0.057,0.011,0.109,0.013,0.165h-0.233
		c-0.276,0-0.5,0.224-0.5,0.5s0.224,0.5,0.5,0.5h0.396c0.378,1.264,1.344,2.17,2.482,2.17c0.879,0,1.699-0.54,2.192-1.444
		C20.518,19.222,20.429,18.919,20.186,18.787z"/>
</g>
</svg>
