<?xml version="1.0" encoding="utf-8"?>
<!-- Generator: Adobe Illustrator 19.2.0, SVG Export Plug-In . SVG Version: 6.00 Build 0)  -->
<svg version="1.1" id="Layer_1" xmlns="http://www.w3.org/2000/svg" xmlns:xlink="http://www.w3.org/1999/xlink" x="0px" y="0px"
	 width="24px" height="24px" viewBox="0 0 24 24" style="enable-background:new 0 0 24 24;" xml:space="preserve">
<g>
	<path d="M21.608,11.961c0.063-0.117,0.077-0.253,0.04-0.381L18.584,1.224c-0.078-0.264-0.357-0.417-0.621-0.337l-2.516,0.744
		c-0.093-0.029-0.194-0.04-0.296-0.009c-0.096,0.03-0.169,0.092-0.229,0.164L3.68,5.112C3.603,5.099,3.522,5.099,3.442,5.126
		C3.371,5.149,3.311,5.189,3.26,5.237L0.703,5.993C0.576,6.031,0.469,6.117,0.405,6.234c-0.063,0.117-0.078,0.253-0.04,0.381
		l0.741,2.506c-0.01,0.065-0.008,0.133,0.009,0.2C1.13,9.38,1.176,9.416,1.208,9.463l2.221,7.507
		c0.064,0.218,0.264,0.358,0.479,0.358c0.047,0,0.095-0.007,0.142-0.021l17.26-5.106C21.438,12.164,21.545,12.078,21.608,11.961z
		 M18.122,9.891c-0.427,0.724-0.578,1.559-0.466,2.35l-10.649,3.15c-0.29-0.677-0.793-1.254-1.451-1.615
		c-0.66-0.363-1.414-0.476-2.135-0.356L2.258,9.489c0.656-0.293,1.213-0.79,1.565-1.432c0.349-0.636,0.471-1.359,0.373-2.055
		L15.05,2.791c0.348,0.717,0.889,1.301,1.557,1.634c0.415,0.208,0.859,0.312,1.304,0.312c0.217,0,0.432-0.034,0.645-0.084
		l1.136,3.839C19.05,8.77,18.501,9.247,18.122,9.891z M18.271,3.693c-0.41,0.083-0.825,0.034-1.219-0.163
		c-0.426-0.212-0.783-0.575-1.034-1.026l1.747-0.517L18.271,3.693z M3.225,6.29c0.032,0.437-0.058,0.886-0.278,1.286
		C2.718,7.993,2.38,8.316,1.973,8.525L1.466,6.81L3.225,6.29z M3.704,14.377c0.464-0.052,0.945,0.043,1.37,0.275
		c0.434,0.239,0.771,0.593,0.978,1.021l-1.807,0.535L3.704,14.377z M18.62,11.955c-0.04-0.524,0.082-1.081,0.363-1.557
		c0.248-0.421,0.592-0.745,0.993-0.946l0.572,1.932L18.62,11.955z"/>
	<path d="M23.5,12h-0.8c-0.276,0-0.5,0.224-0.5,0.5s0.224,0.5,0.5,0.5H23v2.054c-0.721-0.111-1.336-0.589-1.636-1.339
		c-0.103-0.256-0.395-0.382-0.649-0.278c-0.257,0.102-0.381,0.393-0.278,0.649c0.456,1.143,1.423,1.88,2.563,1.992v4.055
		c-1.465,0.148-2.638,1.336-2.853,2.867H8.849C8.63,21.528,7.472,20.371,6,20.151V18.2c0-0.276-0.224-0.5-0.5-0.5S5,17.924,5,18.2
		v5.3C5,23.776,5.224,24,5.5,24h18c0.276,0,0.5-0.224,0.5-0.5v-11C24,12.223,23.776,12,23.5,12z M6,21.154
		C6.922,21.351,7.649,22.078,7.846,23H6V21.154z M21.149,23c0.191-0.978,0.932-1.728,1.851-1.866V23H21.149z"/>
	<path d="M11,8.7c-0.975,0-1.167-0.181-1.204-0.262C9.73,7.909,10.042,7.422,10.498,7.29c0.389-0.078,0.753,0.011,0.925,0.126
		c0.229,0.152,0.539,0.091,0.693-0.14c0.153-0.23,0.09-0.54-0.14-0.693c-0.323-0.215-0.761-0.326-1.228-0.317l-0.075-0.224
		c-0.087-0.262-0.37-0.403-0.632-0.317C9.78,5.813,9.639,6.096,9.726,6.358l0.059,0.177c-0.684,0.41-1.082,1.204-0.959,2.123
		C9.173,9.7,10.453,9.7,11,9.7c0.975,0,1.167,0.181,1.226,0.358c0.047,0.142,0.029,0.304-0.051,0.456
		c-0.102,0.194-0.289,0.342-0.472,0.396c-0.38,0.075-0.976,0.002-1.416-0.174c-0.256-0.104-0.547,0.022-0.65,0.278
		c-0.103,0.256,0.022,0.547,0.278,0.65c0.435,0.174,0.957,0.271,1.439,0.271c0.034,0,0.062-0.008,0.095-0.009l0.077,0.232
		C11.596,12.367,11.791,12.5,12,12.5c0.052,0,0.106-0.008,0.158-0.026c0.262-0.087,0.403-0.371,0.316-0.632l-0.061-0.182
		c0.27-0.169,0.498-0.398,0.645-0.678c0.209-0.396,0.25-0.835,0.116-1.239C12.827,8.7,11.547,8.7,11,8.7z"/>
	<path d="M11.9,18.8c0,0.276,0.224,0.5,0.5,0.5h0.17c0.359,1.166,1.265,2,2.33,2c0.849,0,1.514-0.442,2.033-1.352
		c0.138-0.239,0.055-0.545-0.186-0.682c-0.237-0.138-0.545-0.056-0.682,0.186c-0.43,0.751-0.849,0.848-1.166,0.848
		c-0.516,0-0.987-0.411-1.259-1H15.2c0.276,0,0.5-0.224,0.5-0.5s-0.224-0.5-0.5-0.5h-1.792c-0.001-0.034-0.008-0.066-0.008-0.1
		c0-0.068,0.01-0.133,0.015-0.2H15.2c0.276,0,0.5-0.224,0.5-0.5S15.477,17,15.2,17h-1.51c0.278-0.535,0.724-0.899,1.21-0.899
		c0.46,0,0.825,0.239,1.184,0.777c0.153,0.229,0.465,0.29,0.693,0.139c0.229-0.153,0.292-0.464,0.139-0.693
		C16.367,15.501,15.708,15.1,14.9,15.1c-1.036,0-1.926,0.785-2.305,1.899H12.4c-0.276,0-0.5,0.224-0.5,0.5s0.224,0.5,0.5,0.5h0.016
		c-0.004,0.067-0.016,0.132-0.016,0.2c0,0.034,0.007,0.066,0.008,0.1H12.4C12.124,18.3,11.9,18.523,11.9,18.8z"/>
</g>
</svg>
