<?xml version="1.0" encoding="utf-8"?>
<!-- Generator: Adobe Illustrator 19.2.0, SVG Export Plug-In . SVG Version: 6.00 Build 0)  -->
<svg version="1.1" id="Layer_1" xmlns="http://www.w3.org/2000/svg" xmlns:xlink="http://www.w3.org/1999/xlink" x="0px" y="0px"
	 width="24px" height="24px" viewBox="0 0 24 24" style="enable-background:new 0 0 24 24;" xml:space="preserve">
<path d="M22.913,19.005l-2.169-3.144c-0.157-0.229-0.469-0.285-0.695-0.127l-0.427,0.295c-0.06-0.619-0.122-1.885-0.102-4.457
	c0.036-4.678-3.837-6.941-5.448-7.679l0.007-3.434c0-0.133-0.053-0.26-0.146-0.354c-0.094-0.094-0.221-0.146-0.354-0.146
	c0,0,0,0-0.001,0L2.505-0.027c-0.276,0-0.5,0.224-0.5,0.5l0.007,18.029c0,0.133,0.053,0.26,0.147,0.354
	c0.094,0.094,0.221,0.146,0.353,0.146h0l3.015-0.004c0,0,0,0,0,0c0,0,0,0,0.001,0c0,0,0,0,0,0l5.105-0.007c0,0,0,0,0,0
	c0,0,0,0,0.001,0c0,0,0,0,0,0l2.903-0.004c0.195,0,0.36-0.115,0.442-0.279c0.202,0.241,0.439,0.496,0.669,0.748l-0.485,0.334
	c-0.227,0.156-0.284,0.468-0.128,0.695l2.168,3.145c0.076,0.108,0.191,0.184,0.321,0.208c0.03,0.005,0.061,0.008,0.091,0.008
	c0.101,0,0.2-0.03,0.284-0.089l5.885-4.059c0.108-0.075,0.184-0.19,0.208-0.321C23.018,19.249,22.989,19.114,22.913,19.005z
	 M9.531,8.761c0.006,0.126,0.026,0.257,0.063,0.391H8.712c0.241-0.467,0.461-0.467,0.559-0.467C9.363,8.685,9.447,8.715,9.531,8.761
	z M9.808,7.784C9.637,7.72,9.459,7.685,9.271,7.685c-0.991,0-1.439,0.888-1.646,1.467H6.037C6.11,9.005,6.214,8.881,6.343,8.797
	C6.575,8.646,6.64,8.336,6.488,8.105C6.337,7.873,6.028,7.809,5.796,7.96C5.391,8.225,5.102,8.659,4.983,9.152H4.84
	c-0.276,0-0.5,0.224-0.5,0.5s0.224,0.5,0.5,0.5h0.149c0.202,0.841,0.891,1.466,1.717,1.466c0.977,0,1.417-0.853,1.64-1.466h1.563
	c0.092,0.284,0.18,0.559,0.265,0.825c0.568,1.773,1.025,3.198,1.709,4.571c-0.916,0.533-1.55,1.439-1.709,2.445l-4.197,0.005
	c-0.109-0.726-0.438-1.397-0.975-1.924c-0.545-0.535-1.242-0.855-1.991-0.953L3.007,3.805C3.733,3.71,4.41,3.391,4.946,2.852
	c0.518-0.52,0.84-1.188,0.941-1.883l4.17-0.006c0.221,1.556,1.454,2.794,3.015,3.023l-0.009,4.772l-0.199-0.579
	c-0.351-1.06-1.345-1.348-2.146-1.082C10.357,7.216,10.03,7.46,9.808,7.784z M7.256,10.152c-0.201,0.392-0.382,0.466-0.55,0.466
	c-0.28,0-0.514-0.193-0.653-0.466H7.256z M14.063,8.484c0.318,0.368,0.625,0.819,0.843,1.349c0.418,1.017,0.425,1.85,0.189,2.067
	c-0.114,0.107-0.435,0.118-0.997-0.135l-0.042-0.121L14.063,8.484z M13.073,2.986c-1.029-0.202-1.823-0.998-2.018-2.025l2.022-0.003
	L13.073,2.986z M4.879,0.97C4.787,1.403,4.567,1.815,4.237,2.147C3.892,2.494,3.465,2.723,3.006,2.81L3.005,0.973L4.879,0.97z
	 M3.012,16.121c0.486,0.089,0.934,0.316,1.291,0.667c0.344,0.337,0.572,0.756,0.67,1.211l-1.96,0.003L3.012,16.121z M13.038,17.989
	l-1.839,0.002c0.148-0.639,0.569-1.211,1.166-1.565c0.203,0.346,0.427,0.695,0.673,1.048V17.989z M11.126,10.672
	c-0.122-0.381-0.253-0.787-0.389-1.206c-0.001-0.004-0.002-0.008-0.004-0.011c-0.056-0.171-0.109-0.337-0.168-0.515
	C10.351,8.292,10.96,8.07,11.03,8.047c0.111-0.037,0.673-0.187,0.885,0.452l1.305,3.789c0.042,0.123,0.131,0.225,0.246,0.283
	c1.02,0.518,1.797,0.538,2.308,0.064c0.729-0.674,0.508-2.086,0.057-3.182c-0.375-0.911-1.027-1.761-1.766-2.343l0.004-2.104
	c1.596,0.819,4.478,2.816,4.45,6.558c-0.024,3.074,0.057,4.45,0.186,5.097l-3.227,2.225C12.868,16.058,12.225,14.103,11.126,10.672z
	 M16.745,22.652l-1.601-2.321l5.061-3.49l1.602,2.32L16.745,22.652z"/>
</svg>
