<?xml version="1.0" encoding="utf-8"?>
<!-- Generator: Adobe Illustrator 19.2.0, SVG Export Plug-In . SVG Version: 6.00 Build 0)  -->
<svg version="1.1" id="Layer_1" xmlns="http://www.w3.org/2000/svg" xmlns:xlink="http://www.w3.org/1999/xlink" x="0px" y="0px"
	 width="24px" height="24px" viewBox="0 0 24 24" style="enable-background:new 0 0 24 24;" xml:space="preserve">
<g>
	<path d="M12,0.2C5.494,0.2,0.2,5.493,0.2,12c0,6.507,5.293,11.8,11.8,11.8c6.507,0,11.8-5.293,11.8-11.8
		C23.8,5.493,18.507,0.2,12,0.2z M12,22.8C6.045,22.8,1.2,17.955,1.2,12S6.045,1.2,12,1.2S22.8,6.045,22.8,12S17.955,22.8,12,22.8z"
		/>
	<path d="M16.758,15.271c-0.235-0.142-0.544-0.064-0.687,0.171C15.223,16.856,13.963,17.7,12.7,17.7c-1.772,0-3.281-1.546-3.852-3.7
		H13.3c0.276,0,0.5-0.224,0.5-0.5S13.576,13,13.3,13H8.658C8.623,12.706,8.6,12.407,8.6,12.1c0-0.378,0.027-0.745,0.077-1.1H13.3
		c0.276,0,0.5-0.224,0.5-0.5S13.576,10,13.3,10H8.891C9.488,7.93,10.948,6.5,12.7,6.5c1.214,0,2.397,0.803,3.165,2.148
		c0.138,0.241,0.444,0.321,0.683,0.186c0.239-0.137,0.323-0.442,0.187-0.682C15.785,6.491,14.277,5.5,12.7,5.5
		c-2.289,0-4.178,1.86-4.842,4.5H6.5C6.224,10,6,10.223,6,10.5S6.224,11,6.5,11h1.174C7.629,11.358,7.6,11.723,7.6,12.1
		c0,0.306,0.022,0.605,0.053,0.9H6.5C6.224,13,6,13.223,6,13.5S6.224,14,6.5,14h1.318c0.632,2.716,2.581,4.7,4.883,4.7
		c1.617,0,3.197-1.025,4.229-2.742C17.071,15.72,16.994,15.414,16.758,15.271z"/>
</g>
</svg>
