<?xml version="1.0" encoding="utf-8"?>
<!-- Generator: Adobe Illustrator 19.2.0, SVG Export Plug-In . SVG Version: 6.00 Build 0)  -->
<svg version="1.1" id="Layer_1" xmlns="http://www.w3.org/2000/svg" xmlns:xlink="http://www.w3.org/1999/xlink" x="0px" y="0px"
	 width="24px" height="24px" viewBox="0 0 24 24" style="enable-background:new 0 0 24 24;" xml:space="preserve">
<g>
	<path d="M21.038,3v2c0,0.276,0.224,0.5,0.5,0.5s0.5-0.224,0.5-0.5V2.5c0-0.276-0.224-0.5-0.5-0.5h-19c-0.276,0-0.5,0.224-0.5,0.5V5
		c0,0.276,0.224,0.5,0.5,0.5s0.5-0.224,0.5-0.5V3h1.537L3.183,17.41c-0.014,0.14,0.033,0.279,0.127,0.384s0.229,0.164,0.37,0.164
		H5.5L5.14,23.496c-0.009,0.138,0.04,0.273,0.134,0.374s0.227,0.158,0.365,0.158h0l14.879-0.02c0.138,0,0.271-0.058,0.364-0.159
		c0.095-0.101,0.143-0.236,0.134-0.375L19.618,3H21.038z M4.231,16.958L5.579,3h0.896L5.566,16.958H4.231z M6.346,20.365
		c1.478,0.197,2.715,1.311,2.958,2.658l-3.132,0.004L6.346,20.365z M16.849,23.013c0.112-0.654,0.445-1.268,0.988-1.763
		c0.546-0.496,1.244-0.806,1.963-0.905l0.182,2.664L16.849,23.013z M19.732,19.352c-0.942,0.116-1.857,0.512-2.568,1.159
		c-0.757,0.689-1.2,1.566-1.317,2.503l-5.541,0.007c-0.243-1.887-1.879-3.419-3.896-3.651L7.477,3h11.138L19.732,19.352z"/>
	<path d="M8.644,12.016h0.753c0.207,1.055,1.053,1.849,2.065,1.849c1.2,0,1.712-1.082,1.977-1.849h2.288
		c-0.122,0.437-0.368,0.924-0.666,1.267c-0.182,0.208-0.16,0.523,0.049,0.705c0.095,0.083,0.211,0.123,0.328,0.123
		c0.14,0,0.278-0.058,0.377-0.172c0.465-0.534,0.809-1.266,0.936-1.923h0.762c0.276,0,0.5-0.224,0.5-0.5s-0.224-0.5-0.5-0.5h-0.752
		c-0.208-1.055-1.054-1.849-2.066-1.849c-1.211,0-1.746,1.154-1.982,1.849h-2.277c0.096-0.286,0.264-0.535,0.498-0.688
		c0.231-0.151,0.296-0.461,0.145-0.692c-0.151-0.231-0.461-0.296-0.692-0.145c-0.51,0.333-0.857,0.894-0.982,1.524H8.644
		c-0.276,0-0.5,0.224-0.5,0.5S8.367,12.016,8.644,12.016z M11.462,12.865c-0.469,0-0.867-0.353-1.033-0.849h1.932
		C12.064,12.697,11.78,12.865,11.462,12.865z M14.694,10.167c0.469,0,0.868,0.353,1.033,0.849H13.79
		C14.116,10.279,14.452,10.167,14.694,10.167z"/>
	<path d="M20.931,0H3.135C1.369,0,0.038,1.34,0.038,3.117v1.792c0,1.642,1.201,3.016,2.793,3.196
		c0.272,0.023,0.522-0.167,0.553-0.441c0.031-0.274-0.167-0.522-0.441-0.553C1.839,6.986,1.038,6.06,1.038,4.909V3.117
		C1.038,1.89,1.919,1,3.135,1h17.796c1.221,0,2.107,0.891,2.107,2.117v1.792c0,1.175-0.809,2.103-1.923,2.206
		c-0.275,0.026-0.478,0.27-0.452,0.544c0.024,0.259,0.242,0.454,0.497,0.454c0.016,0,0.031,0,0.047-0.002
		c1.614-0.15,2.831-1.527,2.831-3.202V3.117C24.038,1.34,22.702,0,20.931,0z"/>
</g>
</svg>
