<?xml version="1.0" encoding="utf-8"?>
<!-- Generator: Adobe Illustrator 19.2.0, SVG Export Plug-In . SVG Version: 6.00 Build 0)  -->
<svg version="1.1" id="Layer_1" xmlns="http://www.w3.org/2000/svg" xmlns:xlink="http://www.w3.org/1999/xlink" x="0px" y="0px"
	 width="24px" height="24px" viewBox="0 0 24 24" style="enable-background:new 0 0 24 24;" xml:space="preserve">
<g>
	<path d="M13.5,10c2.481,0,4.5-2.019,4.5-4.5S15.981,1,13.5,1S9,3.018,9,5.5S11.019,10,13.5,10z M13.5,2C15.43,2,17,3.57,17,5.5
		S15.43,9,13.5,9S10,7.429,10,5.5S11.57,2,13.5,2z"/>
	<path d="M23.523,11.453c-0.247-0.121-0.547-0.024-0.671,0.224c-0.124,0.247-0.395,0.501-0.71,0.655
		c0.181-0.407,0.246-0.836,0.138-1.269c-0.203-0.712-0.748-1.271-1.389-1.425c-0.433-0.107-0.839,0.004-1.111,0.297
		c-0.261,0.28-0.499,0.84-0.155,1.923c0.181,0.54,0.433,0.902,0.701,1.144c-0.206,0.166-0.428,0.315-0.651,0.446
		c-0.458-1.356-1.335-2.522-2.598-3.365c-0.229-0.152-0.539-0.091-0.693,0.139c-0.153,0.229-0.091,0.54,0.139,0.693
		c1.162,0.775,1.947,1.871,2.304,3.15c-0.03,0.105-0.033,0.218,0.012,0.327c0.017,0.041,0.054,0.063,0.08,0.097
		c0.123,0.616,0.162,1.264,0.087,1.94c-0.097,0.68-0.287,1.318-0.552,1.847c-0.042,0.085-0.06,0.18-0.05,0.273l0.397,3.938
		C18.76,22.644,18.223,23,17.8,23h-0.7c-0.24,0-0.5-0.191-0.507-0.582l-0.199-1.2c-0.026-0.159-0.128-0.296-0.272-0.367
		c-0.146-0.071-0.315-0.067-0.458,0.009c-1.129,0.607-3.958,0.718-5.101,0.015c-0.147-0.092-0.332-0.099-0.488-0.021
		c-0.155,0.078-0.258,0.231-0.272,0.405L9.7,22.5c0,0.171-0.033,0.29-0.097,0.353c-0.183,0.179-0.752,0.161-1.21,0.154L8,23
		c-0.24,0-0.5-0.191-0.503-0.442l0.3-2.6c0.019-0.158-0.04-0.315-0.156-0.424s-0.279-0.156-0.433-0.125
		c-1.404,0.264-2.942-0.271-3.823-1.329c-0.066-0.079-0.155-0.136-0.255-0.163l-1.507-0.402c-0.271-0.067-0.271-0.067-0.375-1.039
		c-0.036-0.332-0.079-0.74-0.152-1.149c0.015-0.025,0.098-0.097,0.277-0.156l1.1-0.4c0.14-0.051,0.25-0.161,0.3-0.302
		c0.444-1.243,1.63-2.215,3.022-2.477c0.154-0.029,0.286-0.128,0.355-0.269s0.07-0.306,0-0.446L4.918,8.818
		c0.097-0.011,0.362,0.009,0.829,0.23c1.052,0.497,2.204,1.557,2.37,2.181c0.046,0.173,0.181,0.308,0.353,0.354
		c0.171,0.045,0.357-0.003,0.483-0.129c0.355-0.355,0.814-0.63,1.299-0.922l0.004-0.002c0.237-0.142,0.311-0.448,0.169-0.685
		c-0.143-0.237-0.452-0.313-0.688-0.17c-0.325,0.195-0.658,0.395-0.97,0.627C7.942,9.031,5.9,7.68,4.789,7.827
		C4.241,7.899,3.9,8.31,3.9,8.9c0,0.078,0.018,0.154,0.053,0.224l1.022,2.044c-1.391,0.445-2.518,1.447-3.059,2.739l-0.873,0.318
		c-0.59,0.196-0.943,0.598-0.938,1.145c0.07,0.492,0.113,0.889,0.147,1.211c0.115,1.075,0.178,1.667,1.119,1.902l1.352,0.36
		c0.989,1.104,2.507,1.707,4.009,1.627L6.5,22.5C6.5,23.327,7.173,24,8,24l0.369,0.006c0.127,0.003,0.257,0.007,0.389,0.007
		c0.568,0,1.15-0.06,1.544-0.444c0.265-0.258,0.399-0.618,0.397-1.027l0.042-0.497c1.383,0.46,3.441,0.392,4.774-0.043L15.6,22.5
		c0,0.827,0.673,1.5,1.5,1.5h0.7c0.806,0,2-0.63,1.997-1.55l-0.385-3.859c0.278-0.596,0.479-1.292,0.585-2.036
		c0.081-0.73,0.052-1.432-0.064-2.102c0.478-0.251,0.969-0.591,1.382-0.992c0.039,0.005,0.076,0.009,0.111,0.011
		c0.966,0.084,1.962-0.629,2.32-1.348C23.87,11.877,23.771,11.576,23.523,11.453z M21.027,12.286
		c-0.188-0.154-0.339-0.401-0.451-0.738c-0.194-0.612-0.112-0.881-0.063-0.933c0.011-0.011,0.033-0.017,0.063-0.017
		c0.023,0,0.052,0.003,0.082,0.011c0.242,0.058,0.547,0.327,0.656,0.711C21.39,11.62,21.266,11.957,21.027,12.286z"/>
	<path d="M5.04,14.15C4.95,14.24,4.9,14.37,4.9,14.5s0.05,0.26,0.15,0.35C5.14,14.95,5.27,15,5.4,15s0.26-0.05,0.36-0.15
		c0.09-0.1,0.14-0.22,0.14-0.35s-0.05-0.26-0.15-0.36C5.56,13.96,5.23,13.96,5.04,14.15z"/>
	<path d="M13.4,6.7c-0.156,0-0.534-0.141-0.748-0.354c-0.194-0.194-0.512-0.195-0.707,0.001c-0.195,0.195-0.195,0.512,0.001,0.707
		c0.271,0.271,0.681,0.491,1.062,0.589C13.032,7.898,13.239,8.1,13.5,8.1c0.276,0,0.5-0.224,0.5-0.5V7.571
		c0.519-0.225,0.9-0.722,0.9-1.271c0-0.839-0.76-1.143-1.314-1.364C13.185,4.775,12.9,4.65,12.9,4.5
		c0-0.161,0.096-0.281,0.247-0.346C13.237,4.244,13.362,4.3,13.5,4.3c0.094,0,0.176-0.033,0.251-0.077c0,0,0.003,0.002,0.003,0.002
		c0.124,0.247,0.425,0.343,0.671,0.222c0.247-0.125,0.346-0.425,0.222-0.672c-0.125-0.249-0.37-0.437-0.662-0.553
		C13.945,2.984,13.749,2.8,13.5,2.8c-0.221,0-0.402,0.145-0.468,0.344C12.367,3.29,11.9,3.822,11.9,4.5
		c0,0.839,0.76,1.143,1.315,1.365C13.616,6.025,13.9,6.15,13.9,6.3C13.9,6.498,13.648,6.7,13.4,6.7z"/>
</g>
</svg>
