<?xml version="1.0" encoding="utf-8"?>
<!-- Generator: Adobe Illustrator 19.2.0, SVG Export Plug-In . SVG Version: 6.00 Build 0)  -->
<svg version="1.1" id="Layer_1" xmlns="http://www.w3.org/2000/svg" xmlns:xlink="http://www.w3.org/1999/xlink" x="0px" y="0px"
	 width="24px" height="24px" viewBox="0 0 24 24" style="enable-background:new 0 0 24 24;" xml:space="preserve">
<g>
	<path d="M23.609,13.753c0-2.191-1.527-4.021-3.569-4.513c0.351-0.676,0.547-1.454,0.547-2.228c0-2.566-2.088-4.654-4.653-4.654
		c-0.046,0-0.088,0.012-0.133,0.013l-0.172-0.847c-0.082-0.443-0.332-0.828-0.704-1.083c-0.371-0.255-0.819-0.351-1.264-0.267
		L6.719,1.469c-0.001,0-0.002,0-0.004,0l-3.34,0.623c-0.002,0-0.003,0.002-0.005,0.002L2.009,2.347
		C1.565,2.429,1.181,2.68,0.926,3.052s-0.35,0.82-0.267,1.264l3.374,18.094c0.151,0.811,0.862,1.378,1.659,1.378
		c0.102,0,0.206-0.01,0.31-0.029l1.863-0.347l2.843-0.53c0.001,0,0.002-0.001,0.003-0.001l6.943-1.295
		c0.443-0.082,0.828-0.332,1.083-0.704s0.35-0.82,0.261-1.293l-0.302-1.207c0.088,0.005,0.172,0.026,0.261,0.026
		C21.521,18.407,23.609,16.319,23.609,13.753z M22.609,13.753c0,2.015-1.639,3.654-3.653,3.654s-3.654-1.64-3.654-3.654
		s1.64-3.654,3.654-3.654S22.609,11.738,22.609,13.753z M19.587,7.011c0,0.747-0.235,1.489-0.633,2.088
		c-1.357,0.001-2.568,0.595-3.419,1.525c-1.839-0.223-3.255-1.763-3.255-3.612c0-2.015,1.639-3.654,3.654-3.654
		S19.587,4.997,19.587,7.011z M7.676,22.428L4.05,2.984l2.357-0.44l3.626,19.445L7.676,22.428z M5.818,22.775
		c-0.375,0.069-0.733-0.178-0.802-0.55L1.642,4.132C1.608,3.951,1.646,3.768,1.75,3.617c0.104-0.151,0.26-0.253,0.441-0.287
		l0.875-0.163l3.626,19.445L5.818,22.775z M18.021,19.801c0.033,0.181-0.005,0.363-0.109,0.515
		c-0.104,0.151-0.261,0.253-0.441,0.287l-6.454,1.203L7.391,2.361l6.454-1.203c0.181-0.035,0.362,0.004,0.515,0.108
		c0.151,0.104,0.253,0.261,0.288,0.449l0.161,0.796c-2.021,0.507-3.529,2.325-3.529,4.5c0,2.179,1.536,4.026,3.613,4.517
		c-0.365,0.664-0.591,1.414-0.591,2.224c0,2.097,1.403,3.854,3.314,4.434L18.021,19.801z"/>
	<path d="M18.532,11.228v0.127c-0.663,0.195-1.146,0.756-1.146,1.424c0,1.01,1.049,1.339,1.506,1.482
		c0.522,0.154,0.788,0.33,0.788,0.523c0,0.272-0.297,0.503-0.647,0.503c-0.235,0-0.674-0.16-0.972-0.419
		c-0.209-0.183-0.524-0.159-0.705,0.049c-0.182,0.208-0.159,0.523,0.049,0.705c0.312,0.272,0.731,0.48,1.128,0.586v0.171
		c0,0.276,0.224,0.5,0.5,0.5s0.5-0.224,0.5-0.5v-0.17c0.663-0.194,1.147-0.756,1.147-1.425c0-1.04-1.134-1.373-1.498-1.48
		c-0.701-0.219-0.796-0.389-0.796-0.525c0-0.272,0.296-0.503,0.646-0.503c0.244,0,0.465,0.107,0.577,0.279
		c0.15,0.231,0.459,0.295,0.692,0.146c0.231-0.151,0.296-0.461,0.146-0.692c-0.207-0.317-0.538-0.542-0.915-0.653v-0.128
		c0-0.276-0.224-0.5-0.5-0.5S18.532,10.952,18.532,11.228z"/>
	<path d="M15.504,9.166v0.085c0,0.276,0.224,0.5,0.5,0.5s0.5-0.224,0.5-0.5V9.167c0.608-0.191,1.049-0.714,1.049-1.335
		c0-0.985-1.06-1.295-1.399-1.395c-0.699-0.219-0.699-0.374-0.699-0.44c0-0.226,0.252-0.417,0.55-0.417
		c0.205,0,0.398,0.093,0.492,0.236c0.152,0.232,0.464,0.294,0.692,0.145c0.231-0.151,0.296-0.461,0.146-0.692
		c-0.189-0.289-0.489-0.495-0.83-0.603V4.58c0-0.276-0.224-0.5-0.5-0.5s-0.5,0.224-0.5,0.5v0.084
		c-0.609,0.191-1.05,0.714-1.05,1.335c0,0.956,0.981,1.263,1.409,1.397c0.314,0.092,0.689,0.243,0.689,0.438
		c0,0.226-0.251,0.417-0.549,0.417c-0.208,0-0.597-0.143-0.861-0.373c-0.209-0.182-0.524-0.16-0.705,0.049
		c-0.182,0.208-0.159,0.524,0.049,0.705C14.768,8.877,15.143,9.065,15.504,9.166z"/>
</g>
</svg>
