<?xml version="1.0" encoding="utf-8"?>
<!-- Generator: Adobe Illustrator 19.2.0, SVG Export Plug-In . SVG Version: 6.00 Build 0)  -->
<svg version="1.1" id="Layer_1" xmlns="http://www.w3.org/2000/svg" xmlns:xlink="http://www.w3.org/1999/xlink" x="0px" y="0px"
	 width="24px" height="24px" viewBox="0 0 24 24" style="enable-background:new 0 0 24 24;" xml:space="preserve">
<path d="M22.832,18.597l-2.342-3.395c-0.157-0.229-0.469-0.282-0.695-0.128l-0.517,0.356c-0.067-0.646-0.14-2.01-0.118-4.884
	c0.046-5.938-6.723-8.556-7.662-8.891c-0.88-0.877-2.092-1.42-3.43-1.42c-2.681,0-4.863,2.182-4.863,4.863
	c0,2.681,2.182,4.863,4.863,4.863c0.327,0,0.698-0.059,1.068-0.141l1.309,3.961c0.313,0.949,1.701,3.238,3.555,5.288l-0.559,0.385
	c-0.108,0.076-0.184,0.191-0.208,0.322c-0.023,0.13,0.005,0.265,0.081,0.374l2.342,3.395c0.097,0.141,0.253,0.216,0.411,0.216
	c0.099,0,0.197-0.028,0.284-0.088l6.354-4.383c0.108-0.075,0.184-0.19,0.208-0.321C22.937,18.842,22.908,18.707,22.832,18.597z
	 M12.665,6.552c0.59,0.545,1.281,1.352,1.591,2.103c0.469,1.141,0.454,2.021,0.201,2.27c-0.158,0.156-0.543,0.119-1.057-0.101
	c-0.055-0.024-0.096-0.065-0.112-0.113l-1.081-3.139C12.347,7.325,12.521,6.97,12.665,6.552z M8.068,8.963
	c-2.13,0-3.863-1.733-3.863-3.863c0-2.13,1.733-3.863,3.863-3.863c2.13,0,3.863,1.733,3.863,3.863c0,0.377-0.097,0.808-0.258,1.241
	c-0.249-0.331-0.588-0.566-0.999-0.651c-0.641-0.13-1.339,0.1-1.778,0.592C8.465,6.767,8.344,7.429,8.566,8.099l0.256,0.773
	C8.556,8.926,8.293,8.963,8.068,8.963z M11.394,13.469L9.515,7.785C9.406,7.454,9.45,7.164,9.643,6.948
	c0.203-0.227,0.539-0.337,0.829-0.278c0.262,0.054,0.454,0.242,0.555,0.547l1.315,3.82c0.108,0.313,0.349,0.571,0.663,0.706
	c1.18,0.507,1.822,0.222,2.153-0.104c0.929-0.914,0.252-2.806,0.022-3.363c-0.473-1.149-1.555-2.263-2.27-2.828
	c0.011-0.115,0.02-0.23,0.02-0.347c0-0.669-0.136-1.306-0.381-1.886c2.086,1.047,5.641,3.404,5.61,7.326
	c-0.026,3.375,0.067,4.845,0.207,5.519l-3.538,2.44C12.987,16.485,11.643,14.223,11.394,13.469z M16.194,22.568l-1.774-2.571
	l5.531-3.814l1.774,2.571L16.194,22.568z"/>
</svg>
