<?xml version="1.0" encoding="utf-8"?>
<!-- Generator: Adobe Illustrator 19.2.0, SVG Export Plug-In . SVG Version: 6.00 Build 0)  -->
<svg version="1.1" id="Layer_1" xmlns="http://www.w3.org/2000/svg" xmlns:xlink="http://www.w3.org/1999/xlink" x="0px" y="0px"
	 width="24px" height="24px" viewBox="0 0 24 24" style="enable-background:new 0 0 24 24;" xml:space="preserve">
<g>
	<path d="M12,0.2C5.494,0.2,0.2,5.493,0.2,12c0,6.507,5.293,11.8,11.8,11.8c6.507,0,11.8-5.293,11.8-11.8
		C23.8,5.493,18.507,0.2,12,0.2z M12,22.8C6.045,22.8,1.2,17.955,1.2,12S6.045,1.2,12,1.2S22.8,6.045,22.8,12S17.955,22.8,12,22.8z"
		/>
	<path d="M16.064,16.776c-0.231-0.146-0.541-0.075-0.688,0.159c-0.029,0.049-0.766,1.172-2.521,0.134
		c-1.082-0.639-2.13-0.63-2.977-0.413c0.509-1.181,0.554-2.498,0.458-3.656H14c0.276,0,0.5-0.224,0.5-0.5S14.276,12,14,12h-3.78
		c-0.062-0.407-0.131-0.778-0.19-1.086l-0.045-0.234C9.806,9.963,9.806,9.237,9.987,8.514C10.338,7.022,11.373,6.2,12.9,6.2
		c1.038,0,1.978,0.786,2.447,1.253c0.195,0.195,0.512,0.195,0.707,0s0.195-0.512,0-0.707C15.348,6.041,14.228,5.2,12.9,5.2
		c-2.009,0-3.425,1.125-3.885,3.079c-0.22,0.876-0.22,1.766-0.006,2.614L9.048,11.1C9.099,11.367,9.156,11.672,9.209,12H8.3
		c-0.276,0-0.5,0.224-0.5,0.5S8.023,13,8.3,13h1.04c0.147,1.583,0.002,3.432-1.368,4.623c-0.208,0.18-0.229,0.493-0.051,0.702
		c0.179,0.21,0.494,0.232,0.703,0.056c0.076-0.064,1.865-1.549,3.722-0.45c0.71,0.419,1.337,0.578,1.873,0.578
		c1.028,0,1.719-0.586,2.005-1.044C16.37,17.231,16.299,16.923,16.064,16.776z"/>
</g>
</svg>
