<?xml version="1.0" encoding="utf-8"?>
<!-- Generator: Adobe Illustrator 19.2.0, SVG Export Plug-In . SVG Version: 6.00 Build 0)  -->
<svg version="1.1" id="Layer_1" xmlns="http://www.w3.org/2000/svg" xmlns:xlink="http://www.w3.org/1999/xlink" x="0px" y="0px"
	 width="24px" height="24px" viewBox="0 0 24 24" style="enable-background:new 0 0 24 24;" xml:space="preserve">
<g>
	<path d="M11.562,9.121c-0.345,0.637-0.559,1.354-0.559,2.128c0,2.481,2.02,4.501,4.501,4.501s4.501-2.02,4.501-4.501
		c0-2.111-1.466-3.874-3.43-4.358c0.332-0.649,0.518-1.394,0.518-2.136c0-2.482-2.02-4.501-4.501-4.501
		c-2.482,0-4.501,2.02-4.501,4.501C8.092,6.855,9.565,8.637,11.562,9.121z M19.005,11.249c0,1.931-1.57,3.501-3.501,3.501
		s-3.501-1.57-3.501-3.501s1.57-3.501,3.501-3.501S19.005,9.318,19.005,11.249z M12.593,1.254c1.931,0,3.501,1.571,3.501,3.501
		c0,0.713-0.222,1.422-0.6,1.994c-1.306,0.003-2.472,0.573-3.293,1.467c-1.757-0.218-3.109-1.691-3.109-3.46
		C9.092,2.824,10.662,1.254,12.593,1.254z"/>
	<path d="M23.125,17.672c-0.5-0.357-1.136-0.401-1.743-0.124l-3.901,1.779c-0.202-0.235-0.478-0.428-0.85-0.537l-5.53-1.622
		c-0.921-0.271-3.465-0.422-6.063-0.074V16.5c0-0.276-0.224-0.5-0.5-0.5h-4c-0.276,0-0.5,0.224-0.5,0.5v7c0,0.276,0.224,0.5,0.5,0.5
		h4c0.276,0,0.5-0.224,0.5-0.5v-1.06l0.021-0.005c0.666-0.183,1.67-0.456,2.16-0.239c2.658,1.189,5.215,1.579,7.099,1.579
		c1.249,0,2.203-0.171,2.694-0.396l5.852-2.668c0.586-0.267,0.956-0.769,1.015-1.377C23.939,18.694,23.645,18.042,23.125,17.672z
		 M4.038,23h-3v-6h3V23z M22.449,19.801l-5.852,2.668c-0.803,0.366-4.567,0.783-8.971-1.186c-0.743-0.333-1.738-0.108-2.589,0.121
		v-3.302c2.558-0.358,5.053-0.19,5.781,0.025l5.531,1.622c0.249,0.073,0.39,0.215,0.464,0.376c0.005,0.016,0.004,0.033,0.011,0.049
		c0.003,0.006,0.009,0.01,0.012,0.016c0.053,0.159,0.051,0.333,0.007,0.485c-0.057,0.193-0.175,0.358-0.324,0.453
		c-0.164,0.104-0.361,0.12-0.587,0.056l-5.81-1.705c-0.266-0.076-0.543,0.074-0.621,0.339s0.074,0.543,0.339,0.62l5.81,1.705
		c0.179,0.053,0.356,0.079,0.531,0.079c0.312,0,0.611-0.084,0.872-0.249c0.356-0.226,0.622-0.587,0.748-1.017
		c0.067-0.229,0.087-0.47,0.065-0.707l3.929-1.792c0.286-0.132,0.538-0.123,0.749,0.028c0.226,0.161,0.364,0.471,0.338,0.752
		C22.858,19.492,22.712,19.68,22.449,19.801z"/>
	<path d="M14.979,8.508v0.16c-0.706,0.197-1.225,0.789-1.225,1.495c0,1.053,1.104,1.399,1.584,1.55
		c0.864,0.252,0.864,0.506,0.864,0.59c0,0.309-0.331,0.57-0.724,0.57c-0.295,0-0.771-0.205-1.06-0.456
		c-0.208-0.181-0.524-0.159-0.705,0.049c-0.182,0.208-0.159,0.524,0.049,0.706c0.337,0.293,0.79,0.517,1.216,0.626v0.16
		c0,0.276,0.224,0.5,0.5,0.5s0.5-0.224,0.5-0.5v-0.16c0.706-0.197,1.224-0.788,1.224-1.495c0-1.087-1.191-1.436-1.574-1.547
		c-0.769-0.241-0.874-0.427-0.874-0.593c0-0.314,0.325-0.57,0.725-0.57c0.271,0,0.518,0.12,0.645,0.313
		c0.15,0.231,0.463,0.293,0.691,0.145C17.046,9.9,17.11,9.59,16.959,9.359c-0.221-0.338-0.576-0.578-0.98-0.691V8.508
		c0-0.276-0.224-0.5-0.5-0.5S14.979,8.232,14.979,8.508z"/>
	<path d="M12.138,7.007v0.085c0,0.276,0.224,0.5,0.5,0.5s0.5-0.224,0.5-0.5V7.008c0.608-0.192,1.049-0.714,1.049-1.335
		c0-0.985-1.061-1.295-1.4-1.395c-0.698-0.219-0.698-0.374-0.698-0.44c0-0.226,0.251-0.417,0.547-0.417c0,0,0.001,0,0.001,0
		c0,0,0.001,0,0.001,0c0.205,0,0.398,0.093,0.492,0.236c0.153,0.232,0.463,0.295,0.692,0.145c0.231-0.151,0.296-0.461,0.146-0.692
		c-0.189-0.289-0.489-0.495-0.83-0.603V2.42c0-0.276-0.224-0.5-0.5-0.5s-0.5,0.224-0.5,0.5v0.083
		c-0.608,0.191-1.049,0.714-1.049,1.335c0,0.956,0.98,1.264,1.408,1.397c0.315,0.092,0.69,0.243,0.69,0.438
		c0,0.226-0.251,0.417-0.549,0.417c-0.208,0-0.596-0.143-0.86-0.373c-0.208-0.18-0.524-0.16-0.706,0.049
		c-0.182,0.208-0.16,0.524,0.048,0.705C11.403,6.717,11.778,6.905,12.138,7.007z"/>
</g>
</svg>
