<?xml version="1.0" encoding="utf-8"?>
<!-- Generator: Adobe Illustrator 19.2.0, SVG Export Plug-In . SVG Version: 6.00 Build 0)  -->
<svg version="1.1" id="Layer_1" xmlns="http://www.w3.org/2000/svg" xmlns:xlink="http://www.w3.org/1999/xlink" x="0px" y="0px"
	 width="24px" height="24px" viewBox="0 0 24 24" style="enable-background:new 0 0 24 24;" xml:space="preserve">
<g>
	<path d="M21.646,12.99c0.243,0,0.456-0.178,0.493-0.425l0.406-2.689c0-0.001,0.001-0.001,0.001-0.002s0-0.002,0-0.002l1.023-6.766
		c0.021-0.131-0.013-0.265-0.092-0.372c-0.079-0.106-0.196-0.178-0.328-0.198L7.459,0.165C7.33,0.148,7.194,0.178,7.088,0.258
		C6.981,0.336,6.91,0.454,6.89,0.585L6.4,3.831C6.359,4.104,6.547,4.359,6.82,4.4c0.271,0.038,0.528-0.147,0.569-0.42l0.037-0.247
		c0.64-0.007,1.259-0.211,1.784-0.598c0.524-0.387,0.897-0.921,1.093-1.529l9.741,1.472c-0.005,0.655,0.186,1.295,0.565,1.808
		c0.382,0.517,0.917,0.863,1.524,1.02l-0.51,3.373c-1.374,0.013-2.607,0.924-3.028,2.244l-1.504-0.227
		c-0.263-0.038-0.527,0.146-0.568,0.42c-0.042,0.273,0.146,0.528,0.419,0.569l4.628,0.699C21.595,12.988,21.62,12.99,21.646,12.99z
		 M8.617,2.33C8.309,2.558,7.951,2.684,7.58,2.719l0.225-1.49l1.491,0.225C9.153,1.799,8.925,2.103,8.617,2.33z M21.414,4.293
		c-0.227-0.307-0.35-0.675-0.371-1.064l1.462,0.221l-0.222,1.47C21.938,4.808,21.636,4.594,21.414,4.293z M19.59,11.674
		c0.31-0.781,1.046-1.322,1.882-1.392l-0.248,1.639L19.59,11.674z"/>
	<path d="M20.534,13.5c-2.004,0-3.516,0.819-3.516,1.905v5.29c0,1.086,1.512,1.904,3.516,1.904s3.515-0.818,3.515-1.904v-5.29
		C24.049,14.319,22.538,13.5,20.534,13.5z M23.049,18.931c0,0.318-0.955,0.904-2.515,0.904c-1.561,0-2.516-0.586-2.516-0.904v-0.408
		c0.629,0.343,1.51,0.55,2.516,0.55c1.005,0,1.886-0.207,2.515-0.549V18.931z M23.049,17.168c0,0.319-0.955,0.905-2.515,0.905
		c-1.561,0-2.516-0.586-2.516-0.905V16.76c0.629,0.343,1.51,0.549,2.516,0.549c1.005,0,1.886-0.206,2.515-0.549V17.168z
		 M20.534,14.5c1.56,0,2.515,0.586,2.515,0.905c0,0.318-0.955,0.904-2.515,0.904c-1.561,0-2.516-0.586-2.516-0.904
		C18.019,15.086,18.974,14.5,20.534,14.5z M20.534,21.599c-1.561,0-2.516-0.586-2.516-0.904v-0.409
		c0.629,0.343,1.51,0.549,2.516,0.549c1.005,0,1.886-0.206,2.515-0.549v0.408C23.049,21.013,22.094,21.599,20.534,21.599z"/>
	<path d="M4.596,4.884c-2.004,0-3.515,0.819-3.515,1.905v14.138c0,1.086,1.511,1.904,3.515,1.904s3.515-0.818,3.515-1.904V6.789
		C8.111,5.703,6.6,4.884,4.596,4.884z M7.111,19.163c0,0.318-0.955,0.904-2.515,0.904s-2.515-0.586-2.515-0.904v-0.408
		c0.629,0.343,1.51,0.549,2.515,0.549s1.886-0.207,2.515-0.549V19.163z M7.111,17.399c0,0.319-0.955,0.905-2.515,0.905
		s-2.515-0.586-2.515-0.905v-0.407c0.629,0.343,1.51,0.549,2.515,0.549s1.886-0.206,2.515-0.549V17.399z M7.111,15.636
		c0,0.318-0.955,0.904-2.515,0.904s-2.515-0.586-2.515-0.904v-0.408c0.629,0.343,1.51,0.549,2.515,0.549s1.886-0.206,2.515-0.549
		V15.636z M7.111,13.873c0,0.318-0.955,0.904-2.515,0.904s-2.515-0.586-2.515-0.904v-0.409c0.629,0.343,1.51,0.549,2.515,0.549
		s1.886-0.207,2.515-0.549V13.873z M7.111,12.109c0,0.319-0.955,0.904-2.515,0.904s-2.515-0.585-2.515-0.904v-0.408
		c0.629,0.343,1.51,0.549,2.515,0.549s1.886-0.207,2.515-0.549V12.109z M7.111,10.345c0,0.319-0.955,0.905-2.515,0.905
		s-2.515-0.586-2.515-0.905V9.937c0.629,0.343,1.51,0.549,2.515,0.549s1.886-0.207,2.515-0.549V10.345z M7.111,8.582
		c0,0.319-0.955,0.904-2.515,0.904S2.081,8.901,2.081,8.582V8.144c0.629,0.343,1.51,0.549,2.515,0.549s1.886-0.207,2.515-0.549
		V8.582z M4.596,5.884c1.56,0,2.515,0.586,2.515,0.905S6.156,7.694,4.596,7.694S2.081,7.108,2.081,6.789S3.036,5.884,4.596,5.884z
		 M4.596,21.831c-1.56,0-2.515-0.586-2.515-0.904v-0.408c0.629,0.343,1.51,0.549,2.515,0.549s1.886-0.206,2.515-0.549v0.408
		C7.111,21.245,6.156,21.831,4.596,21.831z"/>
	<path d="M12.541,11.184c-2.004,0-3.515,0.819-3.515,1.905v8.847c0,1.086,1.511,1.905,3.515,1.905s3.516-0.819,3.516-1.905v-8.847
		C16.056,12.003,14.545,11.184,12.541,11.184z M15.056,20.173c0,0.318-0.955,0.904-2.516,0.904c-1.56,0-2.515-0.586-2.515-0.904
		v-0.408c0.629,0.342,1.509,0.549,2.515,0.549c1.006,0,1.887-0.206,2.516-0.549V20.173z M15.056,18.409
		c0,0.318-0.955,0.904-2.516,0.904c-1.56,0-2.515-0.586-2.515-0.904v-0.408c0.629,0.342,1.509,0.549,2.515,0.549
		c1.006,0,1.887-0.206,2.516-0.549V18.409z M15.056,16.645c0,0.318-0.955,0.904-2.516,0.904c-1.56,0-2.515-0.586-2.515-0.904v-0.408
		c0.629,0.343,1.509,0.549,2.515,0.549c1.006,0,1.887-0.207,2.516-0.55V16.645z M15.056,14.882c0,0.319-0.955,0.905-2.516,0.905
		c-1.56,0-2.515-0.586-2.515-0.905v-0.438c0.629,0.343,1.51,0.549,2.515,0.549c1.006,0,1.886-0.206,2.515-0.549V14.882z
		 M12.541,12.184c1.56,0,2.515,0.586,2.515,0.905c0,0.318-0.955,0.904-2.515,0.904s-2.515-0.586-2.515-0.904
		C10.025,12.77,10.98,12.184,12.541,12.184z M12.54,22.841c-1.56,0-2.515-0.586-2.515-0.905v-0.407
		c0.629,0.342,1.509,0.549,2.515,0.549c1.006,0,1.887-0.206,2.516-0.549v0.408C15.056,22.255,14.101,22.841,12.54,22.841z"/>
	<path d="M15.362,4.119l0.027-0.196c0.038-0.273-0.152-0.526-0.426-0.564c-0.267-0.036-0.525,0.152-0.564,0.426l-0.028,0.198
		c-0.29,0.034-0.567,0.125-0.807,0.282c-0.399,0.262-0.653,0.654-0.715,1.103c-0.153,1.096,0.955,1.62,1.437,1.847
		c0.91,0.41,0.87,0.701,0.856,0.798c-0.022,0.16-0.119,0.303-0.273,0.404c-0.174,0.115-0.396,0.162-0.625,0.129
		c-0.329-0.046-0.806-0.334-1.087-0.656c-0.182-0.209-0.498-0.23-0.705-0.048c-0.208,0.182-0.229,0.498-0.048,0.706
		c0.319,0.365,0.775,0.676,1.216,0.851l-0.028,0.197c-0.038,0.273,0.152,0.526,0.426,0.564c0.023,0.003,0.047,0.005,0.07,0.005
		c0.245,0,0.459-0.181,0.494-0.431l0.029-0.21c0.288-0.034,0.567-0.114,0.806-0.271c0.399-0.262,0.653-0.654,0.715-1.103
		c0.158-1.13-1.042-1.67-1.428-1.844c-0.806-0.38-0.892-0.61-0.865-0.802c0.022-0.16,0.119-0.303,0.273-0.404
		c0.175-0.115,0.395-0.16,0.625-0.129c0,0,0.001,0,0.001,0c0.302,0.042,0.558,0.215,0.67,0.451c0.117,0.249,0.416,0.357,0.665,0.239
		c0.25-0.118,0.357-0.416,0.239-0.666C16.128,4.603,15.781,4.293,15.362,4.119z"/>
</g>
</svg>
