<?xml version="1.0" encoding="utf-8"?>
<!-- Generator: Adobe Illustrator 19.2.0, SVG Export Plug-In . SVG Version: 6.00 Build 0)  -->
<svg version="1.1" id="Layer_1" xmlns="http://www.w3.org/2000/svg" xmlns:xlink="http://www.w3.org/1999/xlink" x="0px" y="0px"
	 width="24px" height="24px" viewBox="0 0 24 24" style="enable-background:new 0 0 24 24;" xml:space="preserve">
<g>
	<path d="M21.3,5H2.7C1.211,5,0,6.211,0,7.7v7.5c0,1.489,1.211,2.7,2.7,2.7h18.6c1.489,0,2.7-1.211,2.7-2.7V7.7
		C24,6.211,22.789,5,21.3,5z M23,15.2c0,0.922-0.778,1.7-1.7,1.7H2.7c-0.921,0-1.7-0.778-1.7-1.7V7.7C1,6.779,1.779,6,2.7,6h18.6
		C22.222,6,23,6.779,23,7.7V15.2z"/>
	<path d="M11.9,10.5c0-1.031-1.089-1.5-2.1-1.5H8C7.724,9,7.5,9.223,7.5,9.5v4C7.5,13.776,7.724,14,8,14s0.5-0.224,0.5-0.5v-1.4
		h0.987l1.54,1.732C11.125,13.943,11.262,14,11.4,14c0.118,0,0.237-0.042,0.332-0.126c0.207-0.184,0.225-0.5,0.042-0.706
		l-1.08-1.215C11.307,11.756,11.9,11.331,11.9,10.5z M9.8,11.1H8.5V10h1.298c0.011,0,1.102,0.035,1.102,0.5
		C10.9,11.076,9.809,11.1,9.8,11.1z"/>
	<path d="M6.5,9h-3C3.224,9,3,9.223,3,9.5v4C3,13.776,3.224,14,3.5,14S4,13.776,4,13.5V12h2c0.276,0,0.5-0.224,0.5-0.5
		S6.276,11,6,11H4v-1h2.5C6.776,10,7,9.776,7,9.5S6.776,9,6.5,9z"/>
	<path d="M16,10c0.276,0,0.5-0.224,0.5-0.5S16.276,9,16,9h-3c-0.276,0-0.5,0.224-0.5,0.5v4c0,0.276,0.224,0.5,0.5,0.5h3
		c0.276,0,0.5-0.224,0.5-0.5S16.276,13,16,13h-2.5v-1h2.1c0.276,0,0.5-0.224,0.5-0.5S15.876,11,15.6,11h-2.1v-1H16z"/>
	<path d="M20.7,10c0.276,0,0.5-0.224,0.5-0.5S20.977,9,20.7,9h-3c-0.276,0-0.5,0.224-0.5,0.5v4c0,0.276,0.224,0.5,0.5,0.5h3
		c0.276,0,0.5-0.224,0.5-0.5S20.977,13,20.7,13h-2.5v-1h2c0.276,0,0.5-0.224,0.5-0.5S20.477,11,20.2,11h-2v-1H20.7z"/>
</g>
</svg>
