<?xml version="1.0" encoding="utf-8"?>
<!-- Generator: Adobe Illustrator 19.2.0, SVG Export Plug-In . SVG Version: 6.00 Build 0)  -->
<svg version="1.1" id="Layer_1" xmlns="http://www.w3.org/2000/svg" xmlns:xlink="http://www.w3.org/1999/xlink" x="0px" y="0px"
	 width="24px" height="24px" viewBox="0 0 24 24" style="enable-background:new 0 0 24 24;" xml:space="preserve">
<g>
	<path d="M15.907,4.937c0.566-0.003,1.315,0.095,1.653,0.6c0.238,0.442,0.361,0.843,0.48,1.231c0.215,0.704,0.419,1.37,1.236,1.778
		C19.349,8.583,19.425,8.6,19.5,8.6c0.183,0,0.359-0.101,0.447-0.276c0.123-0.247,0.023-0.547-0.224-0.671
		c-0.417-0.208-0.524-0.511-0.728-1.177c-0.121-0.394-0.271-0.883-0.58-1.453c-0.679-1.018-2.009-1.115-2.761-1.079
		c0.322-0.706,1.116-1.944,2.04-3.138c0.116-0.151,0.138-0.355,0.054-0.526S17.49,0,17.3,0H6.8C6.607,0,6.433,0.11,6.349,0.283
		c-0.083,0.173-0.06,0.379,0.06,0.529c0.877,1.097,1.778,2.455,2.082,3.201C7.461,4.06,7.178,4.271,6.56,4.976
		c-0.177,0.202-0.398,0.455-0.713,0.77c-0.971,0.97-1.583,0.502-1.698,0.395C3.953,5.951,3.64,5.952,3.446,6.146
		c-0.195,0.195-0.195,0.512,0,0.707c0.469,0.469,1.72,0.987,3.107-0.4c0.335-0.335,0.57-0.604,0.758-0.818
		c0.342-0.39,0.474-0.541,0.827-0.599C6.555,7.449,2.115,14.589,2.2,18.71c0.022,1.093,0.445,2.036,1.255,2.806
		c2.542,2.409,8.129,2.3,8.544,2.284c0.053,0.002,0.177,0.005,0.359,0.005c1.81,0,9.345-0.289,9.542-5.084
		C22.074,14.453,17.456,7.234,15.907,4.937z M16.301,1c-0.664,0.918-1.467,2.146-1.716,3H9.523C9.281,3.111,8.456,1.87,7.814,1
		H16.301z M12.016,22.8c-0.011,0-0.021,0-0.032,0c-0.058,0.006-5.556,0.156-7.84-2.01c-0.619-0.587-0.927-1.273-0.944-2.101
		C3.112,14.478,8.447,6.365,9.366,4.999l5.367-0.008c0.913,1.322,6.344,9.384,6.168,13.688C20.723,23.029,12.108,22.81,12.016,22.8z
		"/>
	<path d="M10.3,3.6h3.4c0.276,0,0.5-0.224,0.5-0.5s-0.224-0.5-0.5-0.5h-3.4c-0.276,0-0.5,0.224-0.5,0.5S10.023,3.6,10.3,3.6z"/>
	<path d="M10.3,6.5h3.4c0.276,0,0.5-0.224,0.5-0.5s-0.224-0.5-0.5-0.5h-3.4c-0.276,0-0.5,0.224-0.5,0.5S10.023,6.5,10.3,6.5z"/>
	<path d="M14.868,18.378c-0.235-0.147-0.543-0.079-0.69,0.153c-0.019,0.029-0.46,0.693-1.633,0.033
		c-0.722-0.406-1.421-0.446-2.009-0.33c0.252-0.764,0.271-1.587,0.212-2.334H13.1c0.276,0,0.5-0.224,0.5-0.5s-0.224-0.5-0.5-0.5
		h-2.474c-0.029-0.181-0.058-0.355-0.086-0.509l-0.047-0.273c-0.091-0.545-0.091-0.99-0.006-1.506C10.741,11.512,11.349,11,12.4,11
		c0.601,0,1.175,0.292,1.617,0.82c0.177,0.212,0.491,0.24,0.704,0.063c0.212-0.177,0.24-0.492,0.063-0.704
		C14.15,10.419,13.303,10,12.4,10c-1.507,0-2.532,0.848-2.893,2.418c-0.109,0.653-0.109,1.211,0,1.864l0.049,0.283
		c0.018,0.104,0.038,0.221,0.057,0.335H9c-0.276,0-0.5,0.224-0.5,0.5s0.224,0.5,0.5,0.5h0.743c0.099,1.108,0.011,2.35-0.873,3.124
		c-0.207,0.181-0.228,0.494-0.048,0.702c0.099,0.114,0.238,0.173,0.378,0.173c0.115,0,0.23-0.039,0.325-0.12
		c0.051-0.043,1.265-1.053,2.529-0.344c1.591,0.894,2.637,0.15,2.967-0.367C15.17,18.835,15.101,18.525,14.868,18.378z"/>
</g>
</svg>
