<?xml version="1.0" encoding="utf-8"?>
<!-- Generator: Adobe Illustrator 19.2.0, SVG Export Plug-In . SVG Version: 6.00 Build 0)  -->
<svg version="1.1" id="Layer_1" xmlns="http://www.w3.org/2000/svg" xmlns:xlink="http://www.w3.org/1999/xlink" x="0px" y="0px"
	 width="24px" height="24px" viewBox="0 0 24 24" style="enable-background:new 0 0 24 24;" xml:space="preserve">
<g>
	<path d="M10.24,7.18c0.265-0.077,0.417-0.355,0.34-0.62C9.655,3.389,9.492,2.069,9.488,1.537C9.594,1.64,9.734,1.794,9.917,2.021
		c1.354,1.616,2.266,2.256,3.06,2.179c0.757-0.085,1.122-0.796,1.444-1.424c0.12-0.235,0.244-0.479,0.406-0.715
		c0.03-0.049,0.059-0.089,0.084-0.121c0.107,0.447,0.094,1.849-1.166,4.654c-0.113,0.251-0.001,0.547,0.251,0.661
		C14.062,7.286,14.132,7.3,14.2,7.3c0.19,0,0.373-0.11,0.456-0.295c1.441-3.208,1.708-5.535,0.696-6.07
		c-0.35-0.185-0.92-0.14-1.363,0.581c-0.172,0.249-0.318,0.531-0.459,0.805c-0.218,0.423-0.442,0.861-0.666,0.886
		c-0.18,0.031-0.75-0.119-2.174-1.819c-0.524-0.654-1.138-1.28-1.735-0.971C8.538,0.634,7.905,0.962,9.62,6.84
		C9.697,7.104,9.97,7.257,10.24,7.18z"/>
	<path d="M12,7.5c-4.292,0-7.4,6.152-7.4,10.3c0,3.877,2.697,6.101,7.4,6.101c4.703,0,7.4-2.224,7.4-6.101
		C19.4,13.163,15.985,7.5,12,7.5z M12,22.9c-2.919,0-6.4-0.885-6.4-5.101c0-4.061,3.104-9.3,6.4-9.3c3.387,0,6.4,5.2,6.4,9.3
		C18.4,22.015,14.92,22.9,12,22.9z"/>
	<path d="M12.144,15.321C11.019,14.983,10.6,14.652,10.6,14.1c0-0.751,0.712-1.2,1.4-1.2c0.524,0,0.962,0.208,1.171,0.557
		c0.142,0.236,0.45,0.313,0.686,0.172c0.237-0.142,0.314-0.449,0.172-0.686c-0.314-0.524-0.869-0.867-1.528-0.986V11.5
		c0-0.276-0.224-0.5-0.5-0.5s-0.5,0.224-0.5,0.5v0.447c-1.098,0.206-1.9,1.077-1.9,2.153c0,1.502,1.524,1.959,2.302,2.189
		C13.5,16.61,13.5,17.184,13.5,17.4c0,0.751-0.712,1.2-1.4,1.2c-0.544,0-1.334-0.33-1.88-0.784
		c-0.211-0.177-0.527-0.147-0.704,0.063c-0.177,0.213-0.148,0.527,0.064,0.704c0.474,0.395,1.197,0.785,1.92,0.94V20
		c0,0.276,0.224,0.5,0.5,0.5s0.5-0.224,0.5-0.5v-0.435c1.148-0.171,2-1.057,2-2.164C14.5,16.332,13.692,15.629,12.144,15.321z"/>
</g>
</svg>
