<?xml version="1.0" encoding="utf-8"?>
<!-- Generator: Adobe Illustrator 19.2.0, SVG Export Plug-In . SVG Version: 6.00 Build 0)  -->
<svg version="1.1" id="Layer_1" xmlns="http://www.w3.org/2000/svg" xmlns:xlink="http://www.w3.org/1999/xlink" x="0px" y="0px"
	 width="24px" height="24px" viewBox="0 0 24 24" style="enable-background:new 0 0 24 24;" xml:space="preserve">
<path d="M23.308,10.709l-1.29-1.805l0.541-0.555c0.19-0.196,0.188-0.509-0.005-0.702l-7.4-7.4C15.06,0.153,14.933,0.1,14.8,0.1
	h-0.001c-0.133,0-0.26,0.053-0.354,0.148l-13.4,13.5C0.951,13.843,0.899,13.97,0.9,14.103s0.055,0.261,0.149,0.354l5.984,5.886
	C7.373,22.069,11.293,23,15,23c3.878,0,8-1.017,8-2.899v-5.9c0-0.028-0.011-0.052-0.016-0.078C22.988,14.081,23,14.042,23,14
	c0-0.635-0.423-1.171-1.123-1.608L23.2,11.4C23.418,11.237,23.465,10.93,23.308,10.709z M14.801,1.308l6.697,6.696l-3.165,3.25
	C17.281,11.087,16.14,11,15,11c-3.976,0-8,1.03-8,3c0,0.042,0.012,0.081,0.016,0.122C7.011,14.148,7,14.172,7,14.2v4.707
	l-4.892-4.811L14.801,1.308z M22,17.2c0,0.757-2.792,1.9-7,1.9s-7-1.144-7-1.9v-1.672C9.439,16.498,12.229,17,15,17
	s5.561-0.502,7-1.472V17.2z M15,22c-4.208,0-7-1.144-7-1.899v-1.445C9.456,19.6,12.285,20.1,15,20.1c2.715,0,5.544-0.5,7-1.445V20.1
	C22,20.856,19.208,22,15,22z M15,16c-4.273,0-7-1.185-7-2s2.727-2,7-2c1.26,0,2.381,0.105,3.342,0.271
	c0.056,0.018,0.113,0.03,0.171,0.028c0.827,0.152,1.522,0.352,2.071,0.571c0.086,0.073,0.187,0.121,0.296,0.126
	C21.604,13.326,22,13.69,22,14C22,14.815,19.273,16,15,16z M20.866,11.901c-0.412-0.16-0.87-0.298-1.362-0.415l1.804-1.853
	l0.901,1.261L20.866,11.901z"/>
</svg>
