<?xml version="1.0" encoding="utf-8"?>
<!-- Generator: Adobe Illustrator 19.2.0, SVG Export Plug-In . SVG Version: 6.00 Build 0)  -->
<svg version="1.1" id="Layer_1" xmlns="http://www.w3.org/2000/svg" xmlns:xlink="http://www.w3.org/1999/xlink" x="0px" y="0px"
	 width="24px" height="24px" viewBox="0 0 24 24" style="enable-background:new 0 0 24 24;" xml:space="preserve">
<g>
	<path d="M19.537,11.5c-2.004,0-3.516,0.819-3.516,1.904v5.291c0,1.086,1.512,1.904,3.516,1.904s3.515-0.818,3.515-1.904v-5.291
		C23.052,12.319,21.541,11.5,19.537,11.5z M22.052,16.931c0,0.318-0.955,0.904-2.515,0.904c-1.561,0-2.516-0.586-2.516-0.904v-0.409
		c0.629,0.343,1.51,0.549,2.516,0.549c1.005,0,1.886-0.206,2.515-0.549V16.931z M22.052,15.168c0,0.318-0.955,0.904-2.515,0.904
		c-1.561,0-2.516-0.586-2.516-0.904V14.76c0.629,0.343,1.51,0.55,2.516,0.55c1.005,0,1.886-0.207,2.515-0.549V15.168z M19.537,12.5
		c1.56,0,2.515,0.585,2.515,0.904c0,0.319-0.955,0.905-2.515,0.905c-1.561,0-2.516-0.586-2.516-0.905
		C17.021,13.085,17.977,12.5,19.537,12.5z M19.537,19.599c-1.561,0-2.516-0.586-2.516-0.904v-0.409
		c0.629,0.343,1.51,0.549,2.516,0.549c1.005,0,1.886-0.206,2.515-0.549v0.408C22.052,19.013,21.097,19.599,19.537,19.599z"/>
	<path d="M3.599,2.884c-2.004,0-3.515,0.819-3.515,1.905v14.138c0,1.086,1.511,1.904,3.515,1.904s3.515-0.818,3.515-1.904V4.789
		C7.114,3.703,5.603,2.884,3.599,2.884z M6.114,17.163c0,0.318-0.955,0.904-2.515,0.904s-2.515-0.586-2.515-0.904v-0.408
		c0.629,0.343,1.51,0.549,2.515,0.549s1.886-0.206,2.515-0.549V17.163z M6.114,15.399c0,0.318-0.955,0.904-2.515,0.904
		s-2.515-0.586-2.515-0.904v-0.408c0.629,0.343,1.51,0.549,2.515,0.549s1.886-0.207,2.515-0.549V15.399z M6.114,13.635
		c0,0.319-0.955,0.905-2.515,0.905s-2.515-0.586-2.515-0.905v-0.408c0.629,0.343,1.51,0.549,2.515,0.549s1.886-0.207,2.515-0.549
		V13.635z M6.114,11.872c0,0.319-0.955,0.905-2.515,0.905s-2.515-0.586-2.515-0.905v-0.408c0.629,0.343,1.51,0.549,2.515,0.549
		s1.886-0.207,2.515-0.549V11.872z M6.114,10.109c0,0.319-0.955,0.904-2.515,0.904s-2.515-0.585-2.515-0.904V9.701
		c0.629,0.343,1.51,0.549,2.515,0.549s1.886-0.207,2.515-0.549V10.109z M6.114,8.345c0,0.319-0.955,0.905-2.515,0.905
		S1.083,8.664,1.083,8.345V7.937c0.629,0.343,1.51,0.549,2.515,0.549S5.485,8.28,6.114,7.937V8.345z M6.114,6.582
		c0,0.319-0.955,0.905-2.515,0.905S1.083,6.901,1.083,6.582V6.144c0.629,0.343,1.51,0.549,2.515,0.549s1.886-0.207,2.515-0.549
		V6.582z M3.599,3.884c1.56,0,2.515,0.586,2.515,0.905S5.159,5.693,3.599,5.693S1.083,5.108,1.083,4.789S2.039,3.884,3.599,3.884z
		 M3.599,19.831c-1.56,0-2.515-0.586-2.515-0.904v-0.408c0.629,0.343,1.51,0.549,2.515,0.549s1.886-0.206,2.515-0.549v0.408
		C6.114,19.245,5.159,19.831,3.599,19.831z"/>
	<path d="M11.543,9.183c-2.004,0-3.515,0.819-3.515,1.905v8.847c0,1.086,1.511,1.904,3.515,1.904s3.516-0.818,3.516-1.904v-8.847
		C15.059,10.002,13.548,9.183,11.543,9.183z M14.059,18.172c0,0.319-0.955,0.905-2.516,0.905c-1.56,0-2.515-0.586-2.515-0.905
		v-0.407c0.629,0.342,1.509,0.549,2.515,0.549c1.006,0,1.887-0.206,2.516-0.549V18.172z M14.059,16.409
		c0,0.318-0.955,0.904-2.516,0.904c-1.56,0-2.515-0.586-2.515-0.904v-0.408c0.629,0.342,1.509,0.549,2.515,0.549
		c1.006,0,1.887-0.206,2.516-0.549V16.409z M14.059,14.645c0,0.318-0.955,0.904-2.516,0.904c-1.56,0-2.515-0.586-2.515-0.904v-0.408
		c0.629,0.342,1.509,0.549,2.515,0.549c1.006,0,1.887-0.206,2.516-0.549V14.645z M14.059,12.882c0,0.319-0.955,0.904-2.516,0.904
		c-1.56,0-2.515-0.585-2.515-0.904v-0.438c0.629,0.343,1.51,0.549,2.515,0.549c1.006,0,1.886-0.206,2.515-0.549V12.882z
		 M11.543,10.183c1.56,0,2.515,0.586,2.515,0.905s-0.955,0.905-2.515,0.905s-2.515-0.586-2.515-0.905S9.983,10.183,11.543,10.183z
		 M11.543,20.84c-1.56,0-2.515-0.586-2.515-0.904v-0.408c0.629,0.343,1.509,0.549,2.515,0.549c1.006,0,1.887-0.207,2.516-0.55v0.408
		C14.059,20.254,13.104,20.84,11.543,20.84z"/>
</g>
</svg>
