<?xml version="1.0" encoding="utf-8"?>
<!-- Generator: Adobe Illustrator 19.2.0, SVG Export Plug-In . SVG Version: 6.00 Build 0)  -->
<svg version="1.1" id="Layer_1" xmlns="http://www.w3.org/2000/svg" xmlns:xlink="http://www.w3.org/1999/xlink" x="0px" y="0px"
	 width="24px" height="24px" viewBox="0 0 24 24" style="enable-background:new 0 0 24 24;" xml:space="preserve">
<g>
	<path d="M23.525,10.401c0.255-0.106,0.375-0.398,0.27-0.653c-0.106-0.256-0.397-0.375-0.654-0.27l-4.131,1.718V9.945l4.518-1.906
		c0.023-0.009,0.038-0.027,0.058-0.04c0.03-0.018,0.06-0.034,0.086-0.059c0.028-0.026,0.048-0.058,0.069-0.089
		c0.012-0.018,0.029-0.031,0.039-0.05c0.003-0.005,0.002-0.011,0.004-0.016c0.017-0.036,0.023-0.075,0.031-0.115
		c0.005-0.025,0.014-0.049,0.015-0.075c0.001-0.032-0.007-0.064-0.013-0.097c-0.005-0.032-0.008-0.065-0.019-0.095
		c-0.002-0.006-0.001-0.013-0.004-0.02c-0.01-0.023-0.028-0.039-0.041-0.06c-0.018-0.03-0.035-0.06-0.059-0.086
		c-0.023-0.025-0.051-0.042-0.078-0.061c-0.021-0.015-0.036-0.035-0.06-0.047l-7.383-3.674c-0.131-0.064-0.282-0.069-0.416-0.013
		L0.541,9.83C0.517,9.84,0.5,9.859,0.479,9.872C0.45,9.89,0.422,9.905,0.397,9.928C0.369,9.954,0.35,9.984,0.329,10.014
		c-0.013,0.019-0.031,0.032-0.042,0.053c-0.003,0.006-0.002,0.012-0.005,0.018c-0.015,0.033-0.021,0.068-0.028,0.104
		c-0.006,0.029-0.016,0.057-0.017,0.086c-0.001,0.029,0.007,0.057,0.011,0.086c0.005,0.036,0.008,0.072,0.021,0.106
		c0.002,0.006,0.001,0.012,0.004,0.018c0.004,0.01,0.016,0.015,0.021,0.025c0.033,0.067,0.081,0.123,0.142,0.17
		c0.016,0.013,0.029,0.026,0.047,0.037c0.01,0.006,0.017,0.016,0.028,0.022l7.28,3.655c0.07,0.035,0.147,0.053,0.224,0.053
		c0.065,0,0.13-0.013,0.192-0.038l4.778-1.986v1.262l-4.951,2.073l-7.075-3.551c-0.246-0.125-0.547-0.024-0.671,0.223
		s-0.024,0.547,0.223,0.671l7.28,3.655c0.07,0.035,0.147,0.053,0.224,0.053c0.065,0,0.131-0.013,0.193-0.039l4.777-2v1.357
		l-4.95,2.053l-7.076-3.552c-0.246-0.125-0.547-0.023-0.671,0.223c-0.124,0.247-0.024,0.548,0.223,0.672l7.28,3.654
		c0.07,0.035,0.147,0.053,0.224,0.053c0.065,0,0.13-0.013,0.191-0.038l4.778-1.982v1.238l-4.95,2.058l-7.076-3.552
		c-0.246-0.123-0.547-0.024-0.671,0.223s-0.024,0.548,0.223,0.672l7.28,3.654c0.07,0.035,0.147,0.053,0.224,0.053
		c0.065,0,0.13-0.013,0.192-0.038l5.472-2.275c0,0,0,0,0,0l9.846-4.093c0.255-0.106,0.375-0.398,0.27-0.654
		c-0.106-0.254-0.397-0.372-0.654-0.27L19.01,15.94v-1.227l4.517-1.893c0.255-0.106,0.374-0.399,0.268-0.654
		c-0.106-0.254-0.398-0.375-0.654-0.268l-4.13,1.73v-1.35L23.525,10.401z M15.933,4.454l6.203,3.087l-3.603,1.52l-6.051-3.159
		L15.933,4.454z M8.034,13.396l-6.105-3.064L6.12,8.573l6.158,3.059L8.034,13.396z M13.984,18.029v-6.354c0,0,0-0.001,0-0.001
		v-0.002c0-0.001-0.001-0.002-0.001-0.004c0-0.063-0.011-0.127-0.037-0.189c-0.007-0.017-0.02-0.027-0.029-0.043
		c-0.011-0.02-0.023-0.036-0.036-0.054c-0.041-0.057-0.09-0.102-0.149-0.136c-0.01-0.006-0.014-0.017-0.025-0.023L7.338,8.061
		l3.945-1.656l6.726,3.511v2.025c0,0,0,0.001,0,0.001v4.413L13.984,18.029z"/>
	<path d="M14.521,9.365l-0.041-0.02c0.052-0.523-0.173-0.977-0.656-1.219c-0.555-0.277-1.244-0.184-1.706,0.221
		c-0.148,0.122-0.385,0.212-0.608,0.101c-0.136-0.068-0.141-0.118-0.087-0.225c0.02-0.039,0.093-0.052,0.17-0.062
		c0.316,0.016,0.506-0.211,0.513-0.487c0.007-0.276-0.211-0.505-0.487-0.513c-0.189,0.002-0.361,0.046-0.519,0.11l-0.198-0.099
		c-0.247-0.122-0.547-0.023-0.671,0.224c-0.122,0.243-0.025,0.536,0.214,0.663c-0.047,0.198-0.062,0.397-0.005,0.583
		c0.064,0.209,0.224,0.5,0.624,0.701c0.549,0.274,1.198,0.188,1.706-0.236c0.141-0.124,0.395-0.192,0.608-0.086
		c0.087,0.043,0.176,0.088,0.104,0.329c-0.003,0.009-0.026,0.039-0.078,0.064c-0.08,0.041-0.172,0.043-0.217,0.026
		c-0.257-0.102-0.547,0.029-0.646,0.287c-0.1,0.257,0.029,0.547,0.287,0.646c0.133,0.052,0.278,0.077,0.427,0.077
		c0.2,0,0.404-0.046,0.591-0.138c0.052-0.026,0.086-0.069,0.133-0.1l0.097,0.048c0.072,0.036,0.148,0.053,0.224,0.053
		c0.183,0,0.359-0.101,0.447-0.276C14.868,9.788,14.769,9.488,14.521,9.365z"/>
</g>
</svg>
