<?xml version="1.0" encoding="utf-8"?>
<!-- Generator: Adobe Illustrator 19.2.0, SVG Export Plug-In . SVG Version: 6.00 Build 0)  -->
<svg version="1.1" id="Layer_1" xmlns="http://www.w3.org/2000/svg" xmlns:xlink="http://www.w3.org/1999/xlink" x="0px" y="0px"
	 width="24px" height="24px" viewBox="0 0 24 24" style="enable-background:new 0 0 24 24;" xml:space="preserve">
<g>
	<path d="M23.055,13.748l-1.543-1.555c-0.017-0.099-0.054-0.195-0.13-0.271L11.128,1.669c-0.047-0.047-0.104-0.082-0.165-0.106
		l-0.687-0.692C9.423-0.104,7.696-0.112,6.835,0.857L0.847,6.846C0.344,7.349,0.079,7.994,0.101,8.663
		c0.021,0.625,0.294,1.197,0.744,1.589l0.693,0.698c0.024,0.07,0.059,0.137,0.115,0.193l9.983,9.984l2.01,2.025
		c0.483,0.483,1.098,0.747,1.738,0.747c0.026,0,0.052,0,0.078-0.001c0.624-0.021,1.197-0.295,1.591-0.746l6-6
		c0.503-0.503,0.768-1.148,0.745-1.817C23.778,14.712,23.505,14.139,23.055,13.748z M2.75,10.754l7.994-7.994l9.509,9.582
		l-7.993,7.994L2.75,10.754z M1.554,7.553l6-6c0.008-0.008,0.016-0.016,0.023-0.024C7.815,1.257,8.17,1.1,8.55,1.1
		c0.38,0,0.735,0.157,0.995,0.452L10.04,2.05l-7.994,7.994L1.529,9.524C1.264,9.292,1.112,8.974,1.101,8.63
		C1.088,8.24,1.249,7.859,1.554,7.553z M22.347,16.446l-6.022,6.024c-0.232,0.266-0.55,0.418-0.895,0.429
		c-0.421,0.032-0.771-0.148-1.075-0.452l-1.39-1.401l7.993-7.994l1.414,1.424c0.265,0.231,0.417,0.549,0.429,0.894
		C22.812,15.759,22.651,16.141,22.347,16.446z"/>
	<path d="M18.1,16.9c-0.717,0-1.3,0.583-1.3,1.3s0.583,1.3,1.3,1.3s1.301-0.583,1.301-1.3S18.816,16.9,18.1,16.9z M18.1,18.5
		c-0.165,0-0.3-0.135-0.3-0.3s0.135-0.3,0.3-0.3c0.166,0,0.301,0.135,0.301,0.3S18.266,18.5,18.1,18.5z"/>
	<path d="M15.317,4c1.258-0.045,2.435,0.41,3.304,1.279C19.49,6.147,19.944,7.32,19.9,8.583c-0.009,0.276,0.207,0.507,0.482,0.517
		c0.006,0,0.012,0,0.018,0c0.269,0,0.49-0.213,0.5-0.483c0.053-1.542-0.506-2.979-1.572-4.045c-1.066-1.066-2.513-1.62-4.046-1.571
		C15.007,3.01,14.791,3.241,14.8,3.517C14.81,3.794,15.026,4.01,15.317,4z"/>
	<path d="M15.712,1.3c1.913-0.058,3.668,0.662,4.997,1.991s2.036,3.104,1.991,4.998c-0.007,0.276,0.212,0.505,0.488,0.512
		c0.004,0,0.008,0,0.012,0c0.271,0,0.493-0.216,0.5-0.488c0.052-2.169-0.76-4.204-2.284-5.729S17.854,0.249,15.688,0.3
		c-0.276,0.007-0.495,0.236-0.488,0.512C15.207,1.088,15.45,1.323,15.712,1.3z"/>
	<path d="M8.483,20c-1.267,0.046-2.436-0.41-3.304-1.278s-1.323-2.042-1.279-3.304c0.01-0.276-0.206-0.508-0.482-0.518
		C3.146,14.908,2.91,15.107,2.9,15.383c-0.053,1.543,0.505,2.979,1.571,4.046c1.02,1.02,2.378,1.574,3.843,1.574
		c0.067,0,0.135-0.001,0.202-0.003C8.793,20.99,9.009,20.759,9,20.482C8.99,20.207,8.755,19.993,8.483,20z"/>
	<path d="M8.188,22.7c-1.906,0.059-3.669-0.662-4.998-1.991C1.862,19.38,1.155,17.605,1.2,15.712
		c0.006-0.275-0.212-0.505-0.488-0.512c-0.298-0.005-0.505,0.212-0.512,0.488c-0.052,2.169,0.759,4.203,2.283,5.728
		c1.479,1.479,3.438,2.286,5.534,2.286c0.065,0,0.13-0.001,0.194-0.002c0.276-0.007,0.495-0.235,0.488-0.512
		S8.451,22.682,8.188,22.7z"/>
	<path d="M14.825,14.12l-0.377-0.322c0.247-0.356,0.4-0.767,0.437-1.192c0.051-0.601-0.143-1.169-0.532-1.559
		c-0.676-0.678-1.806-0.629-2.996,0.116c-1.204,0.668-1.606,0.48-1.804,0.284c-0.53-0.53-0.366-1.328,0.1-1.793
		c0.377-0.376,0.814-0.537,1.265-0.46c0.271,0.049,0.53-0.139,0.575-0.411c0.045-0.272-0.139-0.53-0.411-0.575
		C10.471,8.105,9.866,8.26,9.337,8.63L9.054,8.346c-0.195-0.195-0.512-0.195-0.707,0c-0.195,0.195-0.195,0.512,0,0.707l0.282,0.282
		c-0.603,0.9-0.538,2.061,0.218,2.818c0.995,0.996,2.45,0.188,3.019-0.13c0.611-0.382,1.397-0.652,1.781-0.27
		c0.183,0.183,0.27,0.455,0.242,0.766c-0.028,0.336-0.189,0.674-0.442,0.926c-0.381,0.381-1.057,0.664-1.808,0.758
		c-0.274,0.034-0.468,0.284-0.434,0.558c0.031,0.253,0.247,0.438,0.496,0.438c0.021,0,0.042-0.001,0.062-0.004
		c0.754-0.094,1.44-0.344,1.965-0.7l0.448,0.383C14.27,14.961,14.385,15,14.5,15c0.141,0,0.281-0.06,0.38-0.175
		C15.06,14.615,15.035,14.3,14.825,14.12z"/>
</g>
</svg>
