<?xml version="1.0" encoding="utf-8"?>
<!-- Generator: Adobe Illustrator 19.2.0, SVG Export Plug-In . SVG Version: 6.00 Build 0)  -->
<svg version="1.1" id="Layer_1" xmlns="http://www.w3.org/2000/svg" xmlns:xlink="http://www.w3.org/1999/xlink" x="0px" y="0px"
	 width="24px" height="24px" viewBox="0 0 24 24" style="enable-background:new 0 0 24 24;" xml:space="preserve">
<g>
	<path d="M20.314,3.719c-2.207-2.207-5.146-3.422-8.274-3.422S5.972,1.512,3.765,3.719c-4.563,4.563-4.563,11.988,0,16.55
		c2.207,2.207,5.145,3.422,8.274,3.422c0,0,0,0,0.001,0c3.129,0,6.067-1.216,8.274-3.423C24.877,15.706,24.877,8.281,20.314,3.719z
		 M19.607,4.426c4.054,4.054,4.157,10.569,0.336,14.764l-1.758-1.758l0.911-5.452c0.7-0.671,1.141-1.609,1.141-2.653
		c0-2.031-1.651-3.683-3.682-3.683c-1.831,0-3.342,1.347-3.624,3.1L8.787,8.033L4.843,4.09c1.972-1.798,4.504-2.793,7.197-2.793
		C14.902,1.297,17.59,2.408,19.607,4.426z M4.371,15.776l0.194-1.158c0.259,0.126,0.488,0.309,0.66,0.55
		c0.172,0.241,0.27,0.516,0.305,0.802L4.371,15.776z M6.038,14.587c-0.329-0.461-0.782-0.799-1.304-0.987l0.489-2.926
		c1.133-0.019,2.148-0.738,2.539-1.802l0.542,0.093l2.256,2.256c-0.182,0.189-0.315,0.422-0.367,0.691
		c-0.188,0.979,0.764,1.492,1.179,1.715c0.469,0.24,0.688,0.455,0.653,0.637c-0.05,0.256-0.372,0.42-0.702,0.354
		c-0.224-0.043-0.613-0.276-0.849-0.578c-0.17-0.219-0.485-0.26-0.702-0.086c-0.217,0.17-0.256,0.484-0.086,0.701
		c0.249,0.319,0.611,0.596,0.972,0.772l-0.035,0.181c-0.053,0.271,0.125,0.533,0.396,0.586c0.032,0.006,0.064,0.009,0.095,0.009
		c0.235,0,0.444-0.166,0.49-0.405l0.037-0.193c0.671-0.07,1.241-0.509,1.365-1.151c0.195-1.01-0.838-1.541-1.169-1.711
		c-0.627-0.338-0.687-0.514-0.663-0.641c0.013-0.066,0.045-0.125,0.089-0.177l4.382,4.382c-0.377,0.322-0.673,0.733-0.844,1.212
		l-8.255-1.38C6.539,15.586,6.367,15.048,6.038,14.587z M5.393,9.656l0.193-1.156l1.156,0.198C6.481,9.222,5.975,9.582,5.393,9.656z
		 M12.916,9.756c0.216,1.826,1.756,3.253,3.639,3.253c0.497,0,0.969-0.102,1.402-0.281l-0.479,2.87
		c-0.327,0.007-0.642,0.075-0.941,0.186l-3.441-3.441c0.201-0.127,0.295-0.377,0.202-0.605c-0.14-0.342-0.416-0.62-0.756-0.797
		l0.022-0.115c0.053-0.271-0.125-0.533-0.396-0.585c-0.273-0.051-0.533,0.125-0.585,0.396l-0.022,0.113
		c-0.018,0.002-0.036,0.002-0.055,0.005l-1.496-1.496L12.916,9.756z M16.556,12.009c-1.479,0-2.683-1.203-2.683-2.682
		s1.203-2.683,2.683-2.683c1.479,0,2.682,1.204,2.682,2.683S18.034,12.009,16.556,12.009z M16.351,17.012l0.763,0.763l-0.021,0.128
		l-1.283-0.214C15.937,17.422,16.123,17.192,16.351,17.012z M12.039,22.691c-2.862,0-5.549-1.111-7.567-3.129
		C0.418,15.509,0.315,8.993,4.137,4.797L7.08,7.741L5.26,7.429C5.128,7.406,4.995,7.437,4.886,7.514S4.705,7.708,4.683,7.839
		L3.673,13.88c0,0,0,0,0,0s0,0,0,0l-0.372,2.224c-0.045,0.272,0.138,0.529,0.411,0.575l2.224,0.372c0,0,0.001,0,0.001,0
		c0.001,0,0.002,0,0.003,0l11.482,1.919c0.027,0.005,0.055,0.007,0.082,0.007c0.104,0,0.205-0.032,0.29-0.093
		c0.087-0.062,0.143-0.154,0.176-0.254l1.266,1.266C17.265,21.696,14.734,22.691,12.039,22.691
		C12.04,22.691,12.039,22.691,12.039,22.691z"/>
	<path d="M17.125,8.976c0.116,0.002,0.209-0.022,0.301-0.082c0.23-0.152,0.294-0.462,0.143-0.692
		c-0.119-0.18-0.291-0.313-0.489-0.399c-0.044-0.232-0.237-0.41-0.482-0.41c-0.245,0-0.44,0.18-0.482,0.413
		c-0.383,0.17-0.653,0.527-0.653,0.947c0,0.725,0.742,0.957,0.995,1.036c0.151,0.044,0.229,0.083,0.261,0.093
		c-0.021,0.018-0.06,0.039-0.12,0.039c-0.077,0-0.268-0.069-0.393-0.178c-0.209-0.181-0.523-0.16-0.706,0.049
		c-0.181,0.208-0.158,0.524,0.05,0.706c0.159,0.139,0.358,0.248,0.56,0.323c0.029,0.248,0.232,0.443,0.489,0.443
		c0.261,0,0.469-0.202,0.491-0.457c0.378-0.172,0.644-0.525,0.644-0.941C17.733,9.476,17.527,9.178,17.125,8.976z M16.478,8.735
		c0.047-0.042,0.233-0.018,0.255,0.016c0.026,0.039,0.056,0.073,0.089,0.102c-0.024-0.008-0.049-0.016-0.074-0.023
		C16.587,8.781,16.509,8.742,16.478,8.735z"/>
</g>
</svg>
