<?xml version="1.0" encoding="utf-8"?>
<!-- Generator: Adobe Illustrator 19.2.0, SVG Export Plug-In . SVG Version: 6.00 Build 0)  -->
<svg version="1.1" id="Layer_1" xmlns="http://www.w3.org/2000/svg" xmlns:xlink="http://www.w3.org/1999/xlink" x="0px" y="0px"
	 width="24px" height="24px" viewBox="0 0 24 24" style="enable-background:new 0 0 24 24;" xml:space="preserve">
<g>
	<path d="M18.1,0H5C3.917,0,3.1,0.817,3.1,1.9v20.2C3.1,23.183,3.917,24,5,24h13.1c0.914,0,1.9-0.765,1.9-2V1.9
		C20,0.817,19.183,0,18.1,0z M19,22c0,0.617-0.468,1-0.9,1H5c-0.521,0-0.9-0.378-0.9-0.899V1.9C4.1,1.379,4.479,1,5,1h13.1
		C18.621,1,19,1.379,19,1.9V22z"/>
	<path d="M7.5,10C6.673,10,6,10.673,6,11.5S6.673,13,7.5,13S9,12.327,9,11.5S8.327,10,7.5,10z M7.5,12C7.224,12,7,11.776,7,11.5
		S7.224,11,7.5,11S8,11.224,8,11.5S7.776,12,7.5,12z"/>
	<path d="M11.5,10c-0.827,0-1.5,0.673-1.5,1.5s0.673,1.5,1.5,1.5s1.5-0.673,1.5-1.5S12.327,10,11.5,10z M11.5,12
		c-0.276,0-0.5-0.224-0.5-0.5s0.224-0.5,0.5-0.5s0.5,0.224,0.5,0.5S11.776,12,11.5,12z"/>
	<path d="M15.5,10c-0.827,0-1.5,0.673-1.5,1.5s0.673,1.5,1.5,1.5s1.5-0.673,1.5-1.5S16.327,10,15.5,10z M15.5,12
		c-0.275,0-0.5-0.224-0.5-0.5s0.225-0.5,0.5-0.5s0.5,0.224,0.5,0.5S15.775,12,15.5,12z"/>
	<path d="M7.5,14C6.673,14,6,14.673,6,15.5S6.673,17,7.5,17S9,16.327,9,15.5S8.327,14,7.5,14z M7.5,16C7.224,16,7,15.775,7,15.5
		S7.224,15,7.5,15S8,15.224,8,15.5S7.776,16,7.5,16z"/>
	<path d="M11.5,14c-0.827,0-1.5,0.673-1.5,1.5s0.673,1.5,1.5,1.5s1.5-0.673,1.5-1.5S12.327,14,11.5,14z M11.5,16
		c-0.276,0-0.5-0.225-0.5-0.5s0.224-0.5,0.5-0.5s0.5,0.225,0.5,0.5S11.776,16,11.5,16z"/>
	<path d="M15.5,14c-0.827,0-1.5,0.673-1.5,1.5s0.673,1.5,1.5,1.5s1.5-0.673,1.5-1.5S16.327,14,15.5,14z M15.5,16
		c-0.275,0-0.5-0.225-0.5-0.5s0.225-0.5,0.5-0.5s0.5,0.225,0.5,0.5S15.775,16,15.5,16z"/>
	<path d="M7.5,18C6.673,18,6,18.673,6,19.5S6.673,21,7.5,21S9,20.327,9,19.5S8.327,18,7.5,18z M7.5,20C7.224,20,7,19.775,7,19.5
		S7.224,19,7.5,19S8,19.224,8,19.5S7.776,20,7.5,20z"/>
	<path d="M11.5,18c-0.827,0-1.5,0.673-1.5,1.5s0.673,1.5,1.5,1.5s1.5-0.673,1.5-1.5S12.327,18,11.5,18z M11.5,20
		c-0.276,0-0.5-0.225-0.5-0.5s0.224-0.5,0.5-0.5s0.5,0.225,0.5,0.5S11.776,20,11.5,20z"/>
	<path d="M15.5,18c-0.827,0-1.5,0.673-1.5,1.5s0.673,1.5,1.5,1.5s1.5-0.673,1.5-1.5S16.327,18,15.5,18z M15.5,20
		c-0.275,0-0.5-0.225-0.5-0.5s0.225-0.5,0.5-0.5s0.5,0.225,0.5,0.5S15.775,20,15.5,20z"/>
	<path d="M16.5,3h-10C6.224,3,6,3.223,6,3.5v4C6,7.776,6.224,8,6.5,8h10C16.776,8,17,7.776,17,7.5v-4C17,3.223,16.776,3,16.5,3z
		 M16,7H7V4h9V7z"/>
</g>
</svg>
