<?xml version="1.0" encoding="utf-8"?>
<!-- Generator: Adobe Illustrator 19.2.0, SVG Export Plug-In . SVG Version: 6.00 Build 0)  -->
<svg version="1.1" id="Layer_1" xmlns="http://www.w3.org/2000/svg" xmlns:xlink="http://www.w3.org/1999/xlink" x="0px" y="0px"
	 width="24px" height="24px" viewBox="0 0 24 24" style="enable-background:new 0 0 24 24;" xml:space="preserve">
<path d="M23.9,14c0-1.97-4.024-3-8-3c-0.067,0-0.133,0.003-0.2,0.003V8.569c0.059-0.151,0.1-0.305,0.1-0.469
	c0-0.108-0.042-0.203-0.1-0.284V5.478C15.759,5.325,15.8,5.167,15.8,5c0-1.904-3.974-2.9-7.9-2.9S0,3.096,0,5V17.1
	C0,19.093,4.095,20,7.9,20V20.1c0,1.883,4.122,2.899,8,2.899c3.878,0,8-1.017,8-2.899v-5.9c0-0.028-0.011-0.052-0.016-0.078
	C23.888,14.081,23.9,14.042,23.9,14z M22.9,17.2c0,0.757-2.792,1.9-7,1.9c-4.208,0-7-1.144-7-1.9v-1.672
	c1.439,0.97,4.23,1.472,7,1.472s5.561-0.502,7-1.472V17.2z M14.7,8.355C14.187,9.089,11.603,10,7.9,10C3.457,10,1,8.876,1,8.1V6.486
	C2.425,7.418,5.173,7.9,7.9,7.9c2.665,0,5.349-0.46,6.8-1.351V8.355z M1,12.608C2.446,13.555,5.241,14,7.9,14
	c0,0.042,0.012,0.081,0.016,0.122C7.911,14.148,7.9,14.172,7.9,14.2V16C3.457,16,1,14.877,1,14.1V12.608z M22.9,14
	c0,0.815-2.727,2-7,2s-7-1.185-7-2c0-0.041,0.012-0.084,0.026-0.127c0.074-0.064,0.123-0.149,0.149-0.246
	C9.729,12.866,12.246,12,15.9,12C20.174,12,22.9,13.184,22.9,14z M8.292,13H7.9C3.457,13,1,11.876,1,11.1V9.608
	C2.446,10.555,5.241,11,7.9,11c2.611,0,5.332-0.473,6.8-1.371v1.405C11.887,11.182,9.258,11.846,8.292,13z M7.9,3.1
	c3.869,0,6.445,0.949,6.841,1.704C14.715,4.864,14.7,4.93,14.7,5v0.264C14.192,6.007,11.654,6.9,7.9,6.9C3.688,6.9,1,5.775,1,5
	C1,4.225,3.688,3.1,7.9,3.1z M1,17.1v-1.492C2.446,16.555,5.241,17,7.9,17v2C3.457,19,1,17.877,1,17.1z M15.9,22
	c-4.208,0-7-1.144-7-1.899v-0.316C8.958,19.703,9,19.608,9,19.5s-0.042-0.203-0.1-0.285v-0.56c1.456,0.945,4.285,1.445,7,1.445
	c2.715,0,5.544-0.5,7-1.445V20.1C22.9,20.856,20.108,22,15.9,22z"/>
</svg>
