<?xml version="1.0" encoding="utf-8"?>
<!-- Generator: Adobe Illustrator 19.2.0, SVG Export Plug-In . SVG Version: 6.00 Build 0)  -->
<svg version="1.1" id="Layer_1" xmlns="http://www.w3.org/2000/svg" xmlns:xlink="http://www.w3.org/1999/xlink" x="0px" y="0px"
	 width="24px" height="24px" viewBox="0 0 24 24" style="enable-background:new 0 0 24 24;" xml:space="preserve">
<g>
	<path d="M12.015,0.238c-6.482,0-11.756,5.273-11.756,11.756S5.533,23.75,12.015,23.75c6.483,0,11.756-5.273,11.756-11.756
		S18.498,0.238,12.015,0.238z M12.015,22.75c-5.931,0-10.756-4.825-10.756-10.756S6.084,1.238,12.015,1.238
		s10.756,4.825,10.756,10.756S17.946,22.75,12.015,22.75z"/>
	<path d="M15.577,11.561c0.308-0.212,0.59-0.459,0.803-0.777c0.586-0.873,0.653-1.988,0.175-2.91
		c-0.581-1.12-1.867-1.787-3.539-1.842V4.605c0-0.276-0.224-0.5-0.5-0.5s-0.5,0.224-0.5,0.5v1.422h-1V4.605
		c0-0.276-0.224-0.5-0.5-0.5s-0.5,0.224-0.5,0.5v1.422H8.326c-0.276,0-0.5,0.224-0.5,0.5s0.224,0.5,0.5,0.5h0.689v9.951H8.326
		c-0.276,0-0.5,0.224-0.5,0.5s0.224,0.5,0.5,0.5h1.689v1.404c0,0.276,0.224,0.5,0.5,0.5s0.5-0.224,0.5-0.5v-1.404h1v1.404
		c0,0.276,0.224,0.5,0.5,0.5s0.5-0.224,0.5-0.5v-1.404h0.796c2.381-0.028,3.464-1.797,3.463-3.429
		C17.274,13.361,16.689,12.168,15.577,11.561z M12.929,7.028c1.343,0.029,2.315,0.493,2.738,1.308
		c0.311,0.598,0.266,1.322-0.117,1.892c-0.431,0.641-1.207,0.965-2.149,0.921h-3.386v-4.12H12.929z M13.806,16.978h-3.791v-4.831
		h3.175c0.129,0.011,0.256,0.018,0.381,0.018c0.058,0,0.11-0.015,0.167-0.018h0.218c1.592,0.017,2.317,1.257,2.318,2.403
		C16.275,15.744,15.511,16.958,13.806,16.978z"/>
</g>
</svg>
