<?xml version="1.0" encoding="utf-8"?>
<!-- Generator: Adobe Illustrator 19.2.0, SVG Export Plug-In . SVG Version: 6.00 Build 0)  -->
<svg version="1.1" id="Layer_1" xmlns="http://www.w3.org/2000/svg" xmlns:xlink="http://www.w3.org/1999/xlink" x="0px" y="0px"
	 width="24px" height="24px" viewBox="0 0 24 24" style="enable-background:new 0 0 24 24;" xml:space="preserve">
<g>
	<path d="M21.9,17.984V13.2c0-2.182-1.087-3.659-3-4.113V5.5c0-0.276-0.224-0.5-0.5-0.5h-2c-0.276,0-0.5,0.224-0.5,0.5
		S16.124,6,16.4,6h1.5v3.5c0,0.248,0.181,0.458,0.426,0.495c2.128,0.319,2.574,1.919,2.574,3.206v5.2c0,0.276,0.224,0.5,0.5,0.5
		c0.531,0,1.5,0.771,1.5,1.1V22.1c0,0.498-0.656,0.899-1.2,0.899H2.1c-0.502,0-1.2-0.453-1.2-0.899V20c0-0.319,1.05-1.1,1.6-1.1
		c0.276,0,0.5-0.224,0.5-0.5v-5.2c0-1.779,0.939-2.947,2.578-3.207C5.821,9.955,6,9.746,6,9.5V6h1.5C7.776,6,8,5.776,8,5.5
		S7.776,5,7.5,5h-2C5.224,5,5,5.223,5,5.5v3.592c-1.862,0.47-3,2.009-3,4.108v4.778C1.072,18.242-0.1,19.127-0.1,20V22.1
		C-0.1,23.26,1.203,24,2.1,24h19.6c1.041,0,2.2-0.78,2.2-1.899V20C23.9,19.134,22.79,18.255,21.9,17.984z"/>
	<path d="M11.5,4c0.13,0,0.26-0.05,0.35-0.15C11.95,3.76,12,3.63,12,3.5c0-0.14-0.05-0.27-0.15-0.35c-0.18-0.19-0.52-0.19-0.7-0.01
		C11.05,3.23,11,3.36,11,3.5c0,0.13,0.05,0.26,0.15,0.36C11.25,3.95,11.37,4,11.5,4z"/>
	<path d="M12.5,5h-1C11.224,5,11,5.223,11,5.5S11.224,6,11.5,6h1C12.776,6,13,5.776,13,5.5S12.776,5,12.5,5z"/>
	<path d="M12.5,7h-1C11.224,7,11,7.223,11,7.5S11.224,8,11.5,8h1C12.776,8,13,7.776,13,7.5S12.776,7,12.5,7z"/>
	<path d="M19.9,18.5c0-0.276-0.224-0.5-0.5-0.5H4.5C4.224,18,4,18.223,4,18.5S4.224,19,4.5,19h14.9C19.677,19,19.9,18.776,19.9,18.5
		z"/>
	<path d="M8.4,10h1.1h5h1.1c0.276,0,0.5-0.224,0.5-0.5S15.876,9,15.6,9H15V1.4c0-0.132-0.053-0.26-0.146-0.354l-0.8-0.8
		c-0.187-0.187-0.488-0.196-0.686-0.02L12.82,0.713l-0.467-0.467c-0.187-0.187-0.488-0.196-0.686-0.02L11.12,0.713l-0.467-0.467
		c-0.188-0.188-0.52-0.187-0.707,0l-0.8,0.8C9.053,1.14,9,1.268,9,1.4V9H8.4C8.124,9,7.9,9.223,7.9,9.5S8.124,10,8.4,10z M10,1.607
		l0.3-0.3l0.447,0.447c0.188,0.188,0.489,0.196,0.686,0.02l0.548-0.487l0.466,0.467c0.188,0.188,0.489,0.196,0.686,0.02l0.548-0.487
		L14,1.607V9h-4V1.607z"/>
	<path d="M12,20.5c-0.276,0-0.5,0.224-0.5,0.5s0.224,0.5,0.5,0.5h0.1c0.276,0,0.5-0.224,0.5-0.5s-0.224-0.5-0.5-0.5H12z"/>
	<path d="M6.5,13h0.1c0.276,0,0.5-0.224,0.5-0.5S6.876,12,6.6,12H6.5C6.224,12,6,12.223,6,12.5S6.224,13,6.5,13z"/>
	<path d="M6.5,16h0.1c0.276,0,0.5-0.224,0.5-0.5S6.876,15,6.6,15H6.5C6.224,15,6,15.223,6,15.5S6.224,16,6.5,16z"/>
	<path d="M8.5,13h0.1c0.276,0,0.5-0.224,0.5-0.5S8.876,12,8.6,12H8.5C8.224,12,8,12.223,8,12.5S8.224,13,8.5,13z"/>
	<path d="M8.5,16h0.1c0.276,0,0.5-0.224,0.5-0.5S8.876,15,8.6,15H8.5C8.224,15,8,15.223,8,15.5S8.224,16,8.5,16z"/>
	<path d="M10.5,13h0.1c0.276,0,0.5-0.224,0.5-0.5S10.876,12,10.6,12h-0.1c-0.276,0-0.5,0.224-0.5,0.5S10.224,13,10.5,13z"/>
	<path d="M10.5,16h0.1c0.276,0,0.5-0.224,0.5-0.5S10.876,15,10.6,15h-0.1c-0.276,0-0.5,0.224-0.5,0.5S10.224,16,10.5,16z"/>
	<path d="M12.5,13h0.1c0.276,0,0.5-0.224,0.5-0.5S12.876,12,12.6,12h-0.1c-0.276,0-0.5,0.224-0.5,0.5S12.224,13,12.5,13z"/>
	<path d="M12.5,16h0.1c0.276,0,0.5-0.224,0.5-0.5S12.876,15,12.6,15h-0.1c-0.276,0-0.5,0.224-0.5,0.5S12.224,16,12.5,16z"/>
	<path d="M14.5,13h0.1c0.276,0,0.45-0.224,0.45-0.5S14.776,12,14.5,12S14,12.223,14,12.5S14.224,13,14.5,13z"/>
	<path d="M14.5,16h0.1c0.276,0,0.45-0.224,0.45-0.5S14.776,15,14.5,15S14,15.223,14,15.5S14.224,16,14.5,16z"/>
	<path d="M17.5,16c0.276,0,0.5-0.224,0.5-0.5S17.776,15,17.5,15h-1c-0.276,0-0.5,0.224-0.5,0.5s0.224,0.5,0.5,0.5H17.5z"/>
	<path d="M17.5,12h-1c-0.276,0-0.5,0.224-0.5,0.5s0.224,0.5,0.5,0.5h1c0.276,0,0.5-0.224,0.5-0.5S17.776,12,17.5,12z"/>
</g>
</svg>
