<?xml version="1.0" encoding="utf-8"?>
<!-- Generator: Adobe Illustrator 19.2.0, SVG Export Plug-In . SVG Version: 6.00 Build 0)  -->
<svg version="1.1" id="Layer_1" xmlns="http://www.w3.org/2000/svg" xmlns:xlink="http://www.w3.org/1999/xlink" x="0px" y="0px"
	 width="24px" height="24px" viewBox="0 0 24 24" style="enable-background:new 0 0 24 24;" xml:space="preserve">
<g>
	<path d="M15.935,4.948c0.554,0.011,1.238,0.137,1.543,0.664c0.261,0.453,0.382,0.864,0.499,1.261
		c0.191,0.652,0.39,1.327,1.202,1.772c0.076,0.042,0.158,0.062,0.24,0.062c0.177,0,0.348-0.094,0.438-0.26
		c0.133-0.242,0.044-0.546-0.198-0.679c-0.432-0.236-0.534-0.532-0.724-1.177c-0.121-0.411-0.271-0.922-0.593-1.479
		c-0.604-1.049-1.86-1.19-2.672-1.163c0.336-0.748,1.203-2.06,2.046-3.143c0.117-0.15,0.139-0.355,0.055-0.526
		C17.688,0.109,17.514,0,17.322,0H6.754C6.563,0,6.389,0.109,6.305,0.281C6.221,0.452,6.242,0.656,6.359,0.807
		c0.869,1.116,1.768,2.48,2.079,3.214C7.408,4.06,7.093,4.295,6.44,5.046C6.273,5.238,6.071,5.47,5.8,5.751
		C4.881,6.703,4.264,6.236,4.147,6.131C3.949,5.943,3.636,5.949,3.445,6.146C3.252,6.344,3.257,6.66,3.456,6.853
		c0.053,0.051,0.546,0.513,1.296,0.483c0.613-0.01,1.208-0.31,1.769-0.891c0.286-0.296,0.499-0.542,0.674-0.743
		c0.372-0.428,0.518-0.598,0.883-0.66C6.474,7.476,2.046,14.588,2.172,18.74c0.048,1.558,0.976,3.616,5.126,4.573
		c2.284,0.527,4.512,0.482,4.739,0.478c0.048,0.002,0.166,0.004,0.342,0.004c1.337,0,5.997-0.158,8.259-2.282
		c0.806-0.758,1.231-1.686,1.265-2.758C22.032,14.543,17.477,7.281,15.935,4.948z M16.321,1c-0.64,0.884-1.473,2.147-1.72,3.015
		H9.474C9.227,3.147,8.395,1.884,7.754,1H16.321z M16.569,22.343c-1.778,0.409-3.572,0.451-4.242,0.451
		c-0.381,0-0.28-0.003-0.29-0.003c-0.005,0-0.01,0-0.015,0c-0.022,0-2.265,0.062-4.5-0.452c-2.833-0.653-4.297-1.874-4.351-3.63
		C3.043,14.483,8.331,6.45,9.3,5.015h5.475c0.97,1.437,6.257,9.48,6.128,13.708C20.85,20.475,19.392,21.692,16.569,22.343z"/>
	<path d="M10.284,3.593h3.379c0.276,0,0.5-0.224,0.5-0.5s-0.224-0.5-0.5-0.5h-3.379c-0.276,0-0.5,0.224-0.5,0.5
		S10.007,3.593,10.284,3.593z"/>
	<path d="M10.284,6.495h3.379c0.276,0,0.5-0.224,0.5-0.5s-0.224-0.5-0.5-0.5h-3.379c-0.276,0-0.5,0.224-0.5,0.5
		S10.007,6.495,10.284,6.495z"/>
	<path d="M12.963,14.2v-2.519c0.336,0.102,0.627,0.295,0.805,0.566c0.151,0.232,0.463,0.294,0.691,0.145
		c0.231-0.151,0.296-0.461,0.145-0.692c-0.357-0.547-0.962-0.913-1.641-1.041V9.809c0-0.276-0.224-0.5-0.5-0.5s-0.5,0.224-0.5,0.5
		v0.835c-1.13,0.209-1.983,1.11-1.983,2.188c0,1.275,1.169,1.817,1.983,2.096v2.529c-0.485-0.127-1.036-0.404-1.419-0.737
		c-0.208-0.182-0.523-0.159-0.705,0.049c-0.182,0.208-0.16,0.524,0.049,0.705c0.577,0.502,1.369,0.87,2.076,1v0.85
		c0,0.276,0.224,0.5,0.5,0.5s0.5-0.224,0.5-0.5v-0.835c1.13-0.209,1.983-1.11,1.983-2.188C14.946,15.011,13.698,14.446,12.963,14.2z
		 M10.98,12.832c0-0.534,0.412-0.985,0.983-1.156v2.178C11.27,13.563,10.98,13.255,10.98,12.832z M12.963,17.457v-2.182
		c0.857,0.365,0.983,0.75,0.983,1.026C13.946,16.834,13.535,17.285,12.963,17.457z"/>
</g>
</svg>
