<?xml version="1.0" encoding="utf-8"?>
<!-- Generator: Adobe Illustrator 19.2.0, SVG Export Plug-In . SVG Version: 6.00 Build 0)  -->
<svg version="1.1" id="Layer_1" xmlns="http://www.w3.org/2000/svg" xmlns:xlink="http://www.w3.org/1999/xlink" x="0px" y="0px"
	 width="24px" height="24px" viewBox="0 0 24 24" style="enable-background:new 0 0 24 24;" xml:space="preserve">
<g>
	<path d="M23.5,13H22V9.4c0-0.276-0.224-0.5-0.5-0.5h-0.531L20.079,6H21.5C21.776,6,22,5.776,22,5.5S21.776,5,21.5,5h-1.728
		l-1.394-4.546c-0.038-0.127-0.126-0.233-0.243-0.295c-0.118-0.062-0.253-0.074-0.382-0.036L2.149,4.93C2.101,4.915,2.053,4.9,2,4.9
		c-1.178,0-2.1,1.098-2.1,2.5c0,0.024,0.005,0.047,0.006,0.071C-0.095,7.481-0.1,7.49-0.1,7.5V21c0,1.178,0.922,2.101,2.1,2.101
		h19.5c0.276,0,0.5-0.224,0.5-0.5V19h1.5c0.276,0,0.5-0.224,0.5-0.5v-5C24,13.223,23.776,13,23.5,13z M17.569,1.225l1.369,4.462
		c0.001,0.003,0.001,0.006,0.003,0.009L19.924,8.9H3.752L2.647,5.823L17.569,1.225z M1.644,5.988L2.689,8.9H2
		c-0.606,0-1.1-0.673-1.1-1.5C0.9,6.744,1.213,6.191,1.644,5.988z M21,22.1H2c-0.627,0-1.1-0.474-1.1-1.101V9.531
		C1.219,9.761,1.592,9.9,2,9.9h19V13h-2c-1.683,0-3,1.317-3,3s1.317,3,3,3h2V22.1z M23,18h-4c-1.121,0-2-0.879-2-2s0.879-2,2-2
		h2.214c0.082,0.059,0.177,0.101,0.286,0.101s0.204-0.042,0.286-0.101H23V18z"/>
	<path d="M19.05,15.65c-0.1,0.09-0.15,0.22-0.15,0.35s0.051,0.26,0.141,0.35c0.1,0.101,0.229,0.15,0.359,0.15
		c0.131,0,0.261-0.05,0.36-0.15c0.09-0.09,0.14-0.22,0.14-0.35s-0.05-0.26-0.149-0.36C19.56,15.46,19.24,15.46,19.05,15.65z"/>
</g>
</svg>
