<?xml version="1.0" encoding="utf-8"?>
<!-- Generator: Adobe Illustrator 19.2.0, SVG Export Plug-In . SVG Version: 6.00 Build 0)  -->
<svg version="1.1" id="Layer_1" xmlns="http://www.w3.org/2000/svg" xmlns:xlink="http://www.w3.org/1999/xlink" x="0px" y="0px"
	 width="24px" height="24px" viewBox="0 0 24 24" style="enable-background:new 0 0 24 24;" xml:space="preserve">
<g>
	<path d="M3.854,14.949h8.254c0.449,0,0.814-0.367,0.814-0.819v-1.122c0-0.337-0.21-0.645-0.523-0.765
		c-2.199-0.85-2.724-1.241-2.83-1.33v-0.127c0.259-0.311,0.466-0.695,0.605-1.128c0.193-0.188,0.32-0.438,0.358-0.709
		c0.038-0.275-0.016-0.548-0.154-0.784V7.314c0-1.406-0.896-2.246-2.397-2.246c-1.479,0-2.397,0.861-2.397,2.246v0.851
		C5.447,8.401,5.393,8.672,5.431,8.947c0.038,0.271,0.165,0.521,0.357,0.71c0.14,0.433,0.346,0.817,0.606,1.129v0.107
		c-0.147,0.137-0.712,0.53-2.83,1.349C3.25,12.363,3.04,12.67,3.04,13.008v1.122C3.04,14.582,3.405,14.949,3.854,14.949z
		 M4.04,13.13c2.861-1.115,3.215-1.569,3.331-1.938c0.015-0.048,0.023-0.098,0.023-0.149v-0.449c0-0.131-0.051-0.256-0.143-0.35
		C7.009,9.997,6.82,9.649,6.706,9.238C6.675,9.127,6.606,9.03,6.512,8.963C6.463,8.928,6.43,8.873,6.421,8.81
		C6.415,8.766,6.419,8.699,6.472,8.633c0.072-0.089,0.112-0.2,0.112-0.315V7.314c0-0.827,0.47-1.246,1.397-1.246
		c0.953,0,1.397,0.396,1.397,1.246v1.004c0,0.115,0.04,0.227,0.112,0.315c0.053,0.066,0.057,0.133,0.051,0.177
		C9.533,8.873,9.5,8.928,9.451,8.963C9.356,9.029,9.288,9.126,9.257,9.238c-0.115,0.412-0.303,0.76-0.545,1.007
		c-0.091,0.093-0.143,0.219-0.143,0.35v0.449c0,0.05,0.008,0.101,0.022,0.149c0.116,0.37,0.47,0.824,3.331,1.938v0.819H4.04V13.13z"
		/>
	<path d="M14.52,11.989h5.962c0.276,0,0.5-0.224,0.5-0.5s-0.224-0.5-0.5-0.5H14.52c-0.276,0-0.5,0.224-0.5,0.5
		S14.243,11.989,14.52,11.989z"/>
	<path d="M14.52,8.989h5.962c0.276,0,0.5-0.224,0.5-0.5s-0.224-0.5-0.5-0.5H14.52c-0.276,0-0.5,0.224-0.5,0.5
		S14.243,8.989,14.52,8.989z"/>
	<path d="M23.487,1.032H0.508c-0.276,0-0.5,0.224-0.5,0.5v19.974c0,0.276,0.224,0.5,0.5,0.5h4.973c0.276,0,0.5-0.224,0.5-0.5V20.07
		c0-0.558,0.45-1.011,1.003-1.011s1.003,0.453,1.003,1.011v1.436c0,0.276,0.224,0.5,0.5,0.5h6.994c0.276,0,0.5-0.224,0.5-0.5V20.07
		c0-0.558,0.45-1.011,1.004-1.011c0.553,0,1.003,0.453,1.003,1.011v1.436c0,0.276,0.224,0.5,0.5,0.5h4.998
		c0.276,0,0.5-0.224,0.5-0.5V1.532C23.987,1.256,23.764,1.032,23.487,1.032z M22.987,21.006h-3.998V20.07
		c0-1.108-0.898-2.011-2.003-2.011s-2.004,0.902-2.004,2.011v0.936H8.988V20.07c0-1.108-0.899-2.011-2.003-2.011
		s-2.003,0.902-2.003,2.011v0.936H1.008V2.032h21.979V21.006z"/>
</g>
</svg>
