<?xml version="1.0" encoding="utf-8"?>
<!-- Generator: Adobe Illustrator 19.2.0, SVG Export Plug-In . SVG Version: 6.00 Build 0)  -->
<svg version="1.1" id="Layer_1" xmlns="http://www.w3.org/2000/svg" xmlns:xlink="http://www.w3.org/1999/xlink" x="0px" y="0px"
	 width="24px" height="24px" viewBox="0 0 24 24" style="enable-background:new 0 0 24 24;" xml:space="preserve">
<g>
	<path d="M10.872,15.469c0-0.657-0.534-1.191-1.191-1.191S8.49,14.811,8.49,15.469s0.534,1.191,1.191,1.191
		S10.872,16.126,10.872,15.469z M9.49,15.469c0-0.105,0.085-0.191,0.191-0.191s0.191,0.086,0.191,0.191
		C9.872,15.679,9.49,15.679,9.49,15.469z"/>
	<path d="M14.453,14.277c-0.657,0-1.191,0.534-1.191,1.191s0.534,1.191,1.191,1.191s1.191-0.534,1.191-1.191
		S15.11,14.277,14.453,14.277z M14.262,15.469c0-0.105,0.086-0.191,0.191-0.191s0.191,0.086,0.191,0.191
		C14.645,15.679,14.262,15.679,14.262,15.469z"/>
	<path d="M14.364,18.024c-0.059,0.058-0.405,0.261-0.823,0.271c-0.394-0.012-0.776-0.217-1.135-0.609
		c-0.095-0.104-0.229-0.162-0.369-0.162c-0.14,0-0.274,0.059-0.369,0.162c-0.357,0.39-0.736,0.595-1.128,0.608
		c-0.429,0.031-0.767-0.209-0.832-0.271c-0.2-0.188-0.517-0.181-0.707,0.02s-0.182,0.517,0.019,0.707
		c0.226,0.214,0.8,0.565,1.554,0.544c0.377-0.014,0.909-0.134,1.461-0.583c0.558,0.454,1.095,0.572,1.476,0.583
		c0.021,0.001,0.043,0.001,0.064,0.001c0.72,0,1.27-0.345,1.484-0.555c0.198-0.192,0.202-0.51,0.01-0.707
		C14.878,17.837,14.562,17.833,14.364,18.024z"/>
	<path d="M23.418,10.819c-0.047-0.019-4.671-1.948-5.181-5.748c-0.375-2.8-1.393-4.637-2.722-4.914
		c-0.673-0.141-1.692,0.055-2.741,1.787c-0.154,0.255-0.43,0.407-0.737,0.407c0,0,0,0,0,0c-0.307,0-0.583-0.152-0.737-0.407
		c-1.049-1.731-2.069-1.927-2.742-1.787C7.229,0.435,6.211,2.272,5.836,5.072c-0.51,3.8-5.134,5.729-5.18,5.748
		c-0.193,0.079-0.317,0.269-0.311,0.477c0.005,0.208,0.139,0.391,0.336,0.459c1.053,0.364,2.101,0.658,3.137,0.899
		c0.034,0.555,0.137,0.923,0.298,1.394c-0.427,0.343-0.686,0.865-0.686,1.428c0,0.856,0.592,1.578,1.403,1.775
		c0.56,3.635,4.668,6.52,7.234,6.52c2.857,0,6.691-3.021,7.232-6.515c0.805-0.193,1.404-0.918,1.404-1.78
		c0-0.562-0.26-1.086-0.687-1.429c0.163-0.486,0.266-0.883,0.299-1.45c1.905-0.424,3.051-0.833,3.086-0.845
		c0.193-0.071,0.323-0.254,0.327-0.46C23.732,11.084,23.609,10.897,23.418,10.819z M5.041,13.656
		c-0.095-0.282-0.16-0.518-0.197-0.779c0.458,0.091,0.912,0.171,1.362,0.241L6.14,13.819C5.831,13.672,5.456,13.594,5.041,13.656z
		 M18.852,16.304c-0.001,0-0.001,0-0.002,0c-0.261,0-0.478,0.201-0.498,0.461c-0.261,3.314-3.989,6.005-6.284,6.005
		c-2.242,0-6.028-2.748-6.284-6.005c-0.021-0.26-0.261-0.46-0.522-0.46c-0.458,0-0.831-0.372-0.831-0.83
		c0-0.327,0.193-0.623,0.491-0.756c0.7-0.312,1.175,0.285,1.225,0.351c0.095,0.132,0.247,0.207,0.405,0.207
		c0.043,0,0.088-0.006,0.131-0.018c0.201-0.055,0.347-0.228,0.366-0.436l0.149-1.569c1.574,0.199,3.099,0.288,4.539,0.288
		c1.915,0,3.676-0.147,5.228-0.354l0.146,1.634c0.019,0.207,0.164,0.382,0.365,0.438c0.044,0.012,0.089,0.018,0.133,0.018
		c0.158,0,0.31-0.075,0.405-0.207c0.019-0.028,0.476-0.642,1.18-0.365c0.007,0.003,0.011,0.01,0.019,0.013
		c0.299,0.133,0.492,0.43,0.492,0.757C19.704,15.932,19.332,16.304,18.852,16.304z M19.092,13.654
		c-0.401-0.054-0.766,0.02-1.068,0.162l-0.069-0.772c0.47-0.075,0.92-0.152,1.339-0.234C19.258,13.096,19.191,13.352,19.092,13.654z
		 M2.162,11.182c1.567-0.889,4.246-2.843,4.666-5.978C7.177,2.6,8.051,1.285,8.763,1.136c0.501-0.106,1.1,0.366,1.682,1.326
		c0.336,0.556,0.932,0.889,1.592,0.889c0,0,0,0,0,0c0.66,0,1.256-0.332,1.593-0.889c0.581-0.958,1.166-1.43,1.682-1.326
		c0.711,0.148,1.586,1.464,1.936,4.068c0.418,3.124,3.08,5.076,4.649,5.969C18.951,12.004,10.815,13.79,2.162,11.182z"/>
	<path d="M17.856,8.914C15.081,9.38,10.792,9.758,6.118,8.912C5.842,8.864,5.586,9.044,5.537,9.315
		C5.488,9.587,5.668,9.847,5.94,9.896c2.083,0.376,4.091,0.517,5.931,0.517c2.41,0,4.531-0.242,6.151-0.513
		c0.271-0.045,0.456-0.303,0.41-0.576S18.132,8.866,17.856,8.914z"/>
	<path d="M12.79,20.013h-1.445c-0.276,0-0.5,0.224-0.5,0.5s0.224,0.5,0.5,0.5h1.445c0.276,0,0.5-0.224,0.5-0.5
		S13.066,20.013,12.79,20.013z"/>
</g>
</svg>
