<?xml version="1.0" encoding="utf-8"?>
<!-- Generator: Adobe Illustrator 19.2.0, SVG Export Plug-In . SVG Version: 6.00 Build 0)  -->
<svg version="1.1" id="Layer_1" xmlns="http://www.w3.org/2000/svg" xmlns:xlink="http://www.w3.org/1999/xlink" x="0px" y="0px"
	 width="24px" height="24px" viewBox="0 0 24 24" style="enable-background:new 0 0 24 24;" xml:space="preserve">
<g>
	<path d="M21.309,17.262c0.35-0.896,0.323-1.781-0.07-2.428c-0.248-0.406-0.628-0.677-1.058-0.785
		c-0.143-0.237-0.334-0.444-0.572-0.596c-0.054-0.493,0.08-1.576,0.173-2.322c0.072-0.586,0.134-1.09,0.139-1.433
		c0,0,0-0.001,0-0.001c0-0.014,0.002-0.032,0.002-0.045c0-0.026-0.011-0.049-0.015-0.074c-0.004-0.026,0-0.052-0.009-0.077
		c-0.002-0.008-0.008-0.013-0.011-0.02c-0.013-0.035-0.033-0.064-0.053-0.095c-0.016-0.024-0.028-0.05-0.048-0.071
		c-0.022-0.024-0.05-0.042-0.077-0.061c-0.026-0.019-0.049-0.039-0.077-0.052c-0.025-0.012-0.053-0.016-0.081-0.024
		c-0.036-0.01-0.071-0.02-0.109-0.022c-0.007,0-0.013-0.004-0.02-0.004c-0.026,0-0.047,0.011-0.072,0.014
		c-0.027,0.004-0.053,0-0.08,0.009c-1.087,0.351-3.055-1.627-4.039-2.952C15.122,6.074,14.935,6,14.754,6.027
		c-0.184,0.028-0.336,0.155-0.396,0.331C13.91,7.652,8.294,8.909,4.45,9.389C4.426,9.392,4.408,9.405,4.385,9.411
		C4.352,9.42,4.32,9.428,4.29,9.443C4.262,9.457,4.238,9.476,4.213,9.495C4.187,9.515,4.162,9.534,4.14,9.558
		c-0.021,0.024-0.036,0.05-0.052,0.077C4.072,9.663,4.056,9.69,4.045,9.721C4.034,9.752,4.03,9.784,4.025,9.818
		C4.022,9.841,4.012,9.861,4.012,9.885c0,0.298,0.044,0.744,0.094,1.239c0.077,0.762,0.18,1.775,0.093,2.328
		c-0.52,0.329-0.844,0.906-0.844,1.533c0,0.849,0.585,1.563,1.388,1.761c0.557,3.595,4.621,6.448,7.159,6.448
		c1.979,0,4.427-1.465,5.905-3.529C19.487,19.369,20.74,18.72,21.309,17.262z M20.377,16.899c-0.312,0.798-0.92,1.28-1.866,1.576
		c0.263-0.554,0.457-1.132,0.55-1.726c0.674-0.163,1.178-0.712,1.324-1.392C20.614,15.736,20.612,16.297,20.377,16.899z
		 M11.902,22.194c-2.216,0-5.957-2.716-6.209-5.934c-0.021-0.26-0.261-0.46-0.521-0.46c-0.45,0-0.816-0.366-0.816-0.815
		c0-0.321,0.189-0.613,0.483-0.745c0.13-0.058,0.229-0.169,0.272-0.305c0.217-0.68,0.096-1.866-0.01-2.912
		c-0.026-0.257-0.048-0.491-0.065-0.702c2.092-0.283,8.023-1.222,9.814-2.969c0.787,0.949,2.483,2.75,4.034,2.853
		c-0.025,0.241-0.059,0.517-0.094,0.804c-0.172,1.383-0.278,2.402-0.093,2.939c0.046,0.13,0.143,0.236,0.269,0.292
		c0.294,0.132,0.484,0.424,0.484,0.745c0,0.449-0.365,0.814-0.837,0.814c-0.22-0.006-0.48,0.2-0.5,0.461
		c-0.07,0.887-0.397,1.726-0.873,2.482c-0.803,0.107-1.767,0.154-2.908,0.167c-0.21-0.401-0.649-0.684-1.166-0.684h-0.332
		c-0.717,0-1.301,0.534-1.301,1.191s0.584,1.192,1.301,1.192h0.332c0.524,0,0.971-0.289,1.177-0.699
		c0.719-0.007,1.408-0.025,2.05-0.071C15.062,21.267,13.238,22.194,11.902,22.194z M13.165,19.609h-0.332
		c-0.172,0-0.301-0.102-0.301-0.192s0.129-0.191,0.301-0.191h0.332c0.172,0,0.301,0.101,0.301,0.191S13.337,19.609,13.165,19.609z"
		/>
	<path d="M10.801,18.917h-0.676c-0.276,0-0.5,0.224-0.5,0.5s0.224,0.5,0.5,0.5h0.676c0.276,0,0.5-0.224,0.5-0.5
		S11.078,18.917,10.801,18.917z"/>
	<path d="M22.367,7.961c-2.287-7.127-7.603-6.915-8.454-6.828c-0.717-0.174-5.068-1.098-8.647,1.179
		C2.979,3.767,1.518,6.209,0.923,9.571c-1.158,6.542-1.069,9.66,0.317,11.123c1.106,1.168,2.934,1.124,4.745,0.902
		c0.274-0.033,0.469-0.282,0.436-0.557c-0.033-0.274-0.281-0.474-0.557-0.436c-2.12,0.258-3.25,0.085-3.897-0.598
		c-1.107-1.168-1.125-4.237-0.059-10.261c0.543-3.07,1.852-5.286,3.889-6.584c3.453-2.201,7.909-1.048,7.954-1.037
		c0.067,0.018,0.141,0.021,0.208,0.011c0.217-0.036,5.252-0.741,7.456,6.133c1.779,5.542,1.946,9.433,0.484,11.25
		c-0.786,0.977-2.105,1.388-3.912,1.211c-0.267-0.015-0.519,0.175-0.546,0.45c-0.026,0.275,0.176,0.52,0.45,0.546
		c0.304,0.028,0.597,0.043,0.878,0.043c1.729,0,3.041-0.544,3.909-1.623C24.385,18.022,24.28,13.924,22.367,7.961z"/>
	<path d="M10.489,13.573c0-0.276-0.224-0.5-0.5-0.5H9.028c-0.276,0-0.5,0.224-0.5,0.5s0.224,0.5,0.5,0.5h0.961
		C10.266,14.073,10.489,13.849,10.489,13.573z"/>
	<path d="M14.012,14.073h0.961c0.276,0,0.5-0.224,0.5-0.5s-0.224-0.5-0.5-0.5h-0.961c-0.276,0-0.5,0.224-0.5,0.5
		S13.735,14.073,14.012,14.073z"/>
</g>
</svg>
