<?xml version="1.0" encoding="utf-8"?>
<!-- Generator: Adobe Illustrator 19.2.0, SVG Export Plug-In . SVG Version: 6.00 Build 0)  -->
<svg version="1.1" id="Layer_1" xmlns="http://www.w3.org/2000/svg" xmlns:xlink="http://www.w3.org/1999/xlink" x="0px" y="0px"
	 width="24px" height="24px" viewBox="0 0 24 24" style="enable-background:new 0 0 24 24;" xml:space="preserve">
<g>
	<path d="M23.689,20.593c-1.264-1.227-6.644-4.03-8.339-4.298c-0.062-0.027-0.128-0.043-0.196-0.043v0.022
		c-0.106,0.001-0.184,0.009-0.237,0.038c-0.227,0.123-0.322,0.397-0.222,0.635c0.198,0.467,0.449,0.993,0.724,1.41
		c-0.963,0.379-2.528,1.324-3.421,3.465c-0.894-2.14-2.459-3.085-3.422-3.465c0.275-0.417,0.527-0.943,0.725-1.409
		c0.102-0.24,0.003-0.519-0.228-0.639c-0.875-0.472-7.521,3.072-8.767,4.282c-0.19,0.185-0.299,0.441-0.299,0.705v1.725
		c0,0.542,0.441,0.983,0.983,0.983h11.007c0.002,0,0.003-0.001,0.004-0.001h11.002c0.542,0,0.982-0.44,0.982-0.982v-1.725
		C23.987,21.033,23.879,20.776,23.689,20.593z M1.008,23.021l-0.005-1.712c1.507-1.464,5.037-2.995,6.852-3.69
		c-0.154,0.267-0.292,0.464-0.375,0.527c-0.197,0.085-0.318,0.287-0.299,0.503c0.02,0.226,0.189,0.409,0.412,0.448
		c0.122,0.022,2.844,0.546,3.777,3.908L1.008,23.021z M12.629,23.004c0.933-3.36,3.653-3.884,3.773-3.905
		c0.223-0.038,0.409-0.214,0.431-0.439c0.021-0.226-0.096-0.429-0.309-0.507c-0.076-0.053-0.212-0.239-0.377-0.523
		c1.827,0.71,5.379,2.262,6.84,3.676l0.018,1.699H12.629z"/>
	<path d="M6.203,6.009c0.208,0.063,0.422-0.017,0.543-0.181C6.635,6.287,6.578,6.761,6.578,7.242c0,0.503,0.062,1.001,0.186,1.486
		c-0.347,0.33-0.499,0.825-0.383,1.338c0.109,0.485,0.433,0.851,0.865,1.001C7.422,12.283,8,13.486,8.84,14.38
		c-0.004,0.521,0.017,0.702,0.09,0.848c0.093,0.183,0.292,0.308,0.49,0.308c0.068,0,0.135-0.015,0.198-0.047
		c0.246-0.126,0.36-0.384,0.234-0.63c-0.023-0.127-0.014-0.429-0.01-0.68c0-0.134-0.054-0.263-0.149-0.356
		C8.846,12.99,8.288,11.787,8.2,10.606c-0.02-0.261-0.252-0.463-0.514-0.463c-0.238,0-0.31-0.208-0.33-0.296
		c-0.012-0.056-0.062-0.34,0.2-0.464c0.227-0.107,0.339-0.366,0.263-0.605c-0.16-0.496-0.241-1.013-0.241-1.536
		c0-0.934,0.256-1.838,0.742-2.616c0.112-0.18,0.099-0.411-0.034-0.577c-0.123-0.153-0.323-0.22-0.51-0.173
		C8.514,2.948,9.75,2.03,11.755,2.124c0.271,0.015,0.502-0.191,0.523-0.461s-0.177-0.507-0.446-0.536
		c-0.081-0.009-0.167-0.025-0.259-0.047c1.188,0.045,2.473,0.414,3.29,1.583c0.127,0.18,0.361,0.255,0.57,0.187
		c0.036-0.011,0.178-0.005,0.338-0.045c-0.042,0.047-0.076,0.102-0.1,0.164c-0.076,0.207-0.007,0.44,0.169,0.573
		c0.047,0.035,0.864,0.666,1.125,1.72c-0.127-0.075-0.289-0.093-0.433-0.034c-0.242,0.094-0.372,0.356-0.3,0.605
		c0.133,0.456,0.2,0.929,0.2,1.409c0,0.524-0.081,1.041-0.24,1.535c-0.077,0.239,0.035,0.499,0.262,0.606
		c0.262,0.124,0.213,0.409,0.2,0.465c-0.02,0.088-0.092,0.295-0.345,0.295c-0.262,0-0.479,0.202-0.499,0.462
		c-0.088,1.182-0.646,2.384-1.493,3.217c-0.098,0.096-0.15,0.314-0.148,0.451c0.002,0.148,0.011,0.434-0.009,0.568
		c-0.076,0.232,0.028,0.491,0.254,0.604c0.245,0.121,0.547,0.022,0.67-0.227c0.067-0.137,0.089-0.31,0.086-0.839
		c0.84-0.893,1.417-2.095,1.595-3.311c0.429-0.149,0.756-0.515,0.865-1.002c0.115-0.513-0.036-1.009-0.383-1.339
		c0.123-0.483,0.186-0.981,0.186-1.486c0-0.012,0-0.024,0-0.037c0.121-0.028,0.219-0.078,0.273-0.108
		c0.121-0.069,0.208-0.186,0.239-0.322c0.239-1.038,0.023-1.907-0.312-2.57c0.167,0.163,0.43,0.188,0.626,0.056
		c0.219-0.147,0.286-0.438,0.154-0.666c-0.945-1.632-2.22-1.861-2.934-1.774c-2.366-2.917-6.946-1.329-7.146-1.258
		C8.089,0.65,7.952,0.912,8.021,1.164s0.319,0.407,0.576,0.36c0.251-0.048,0.499-0.049,0.74-0.022
		C6.68,2.549,5.873,5.361,5.863,5.397C5.791,5.659,5.942,5.931,6.203,6.009z"/>
</g>
</svg>
