<?xml version="1.0" encoding="utf-8"?>
<!-- Generator: Adobe Illustrator 19.2.0, SVG Export Plug-In . SVG Version: 6.00 Build 0)  -->
<svg version="1.1" id="Layer_1" xmlns="http://www.w3.org/2000/svg" xmlns:xlink="http://www.w3.org/1999/xlink" x="0px" y="0px"
	 width="24px" height="24px" viewBox="0 0 24 24" style="enable-background:new 0 0 24 24;" xml:space="preserve">
<g>
	<path d="M16.297,15.812c-4.393-1.736-5.201-2.471-5.344-2.7v-0.526c0.498-0.572,0.889-1.309,1.14-2.151
		c0.32-0.285,0.533-0.684,0.594-1.119c0.062-0.448-0.037-0.892-0.28-1.267V6.364c0-2.357-1.424-3.708-3.908-3.708
		c-2.448,0-3.91,1.386-3.91,3.708V8.05C4.347,8.425,4.248,8.866,4.31,9.314c0.061,0.435,0.273,0.834,0.593,1.121
		c0.251,0.842,0.642,1.579,1.14,2.151v0.524c-0.134,0.205-0.907,0.949-5.346,2.704c-0.413,0.164-0.679,0.562-0.679,1.013v2.062
		c0,0.6,0.478,1.087,1.065,1.087h14.829c0.588,0,1.065-0.487,1.065-1.087v-2.062C16.978,16.38,16.704,15.972,16.297,15.812z
		 M15.978,18.887c0,0.052-0.034,0.087-0.065,0.087H1.083c-0.032,0-0.065-0.035-0.065-0.087l0.047-2.145
		c4.922-1.945,5.771-2.774,5.956-3.381c0.014-0.048,0.021-0.097,0.021-0.146v-0.824c0-0.129-0.05-0.252-0.139-0.346
		c-0.482-0.504-0.856-1.207-1.082-2.032c-0.03-0.11-0.097-0.207-0.19-0.274C5.453,9.611,5.332,9.405,5.3,9.177
		C5.268,8.941,5.332,8.708,5.48,8.521c0.07-0.088,0.108-0.198,0.108-0.311V6.364c0-1.772,1.006-2.708,2.91-2.708
		c1.929,0,2.908,0.911,2.908,2.708v1.845c0,0.113,0.038,0.223,0.108,0.311c0.149,0.188,0.214,0.421,0.181,0.658
		c-0.032,0.228-0.153,0.433-0.332,0.562c-0.093,0.067-0.161,0.164-0.191,0.274c-0.225,0.826-0.599,1.528-1.081,2.032
		c-0.089,0.093-0.139,0.217-0.139,0.346v0.824c0,0.049,0.007,0.098,0.022,0.146c0.185,0.606,1.035,1.436,5.956,3.381l0.047,0.083
		V18.887z"/>
	<path d="M23.406,16.558c-3.334-1.287-3.994-1.853-4.118-1.999V14.24c0.381-0.438,0.681-0.994,0.878-1.625
		c0.259-0.237,0.431-0.562,0.48-0.916c0.049-0.359-0.028-0.715-0.22-1.019V9.427c0-1.853-1.186-2.959-3.171-2.959
		c-1.986,0-3.173,1.106-3.173,2.959v1.255c-0.19,0.303-0.268,0.658-0.218,1.018c0.049,0.354,0.221,0.678,0.479,0.915
		c0.221,0.709,0.572,1.323,1.021,1.781c0.192,0.198,0.511,0.2,0.707,0.008c0.197-0.193,0.201-0.51,0.008-0.707
		c-0.364-0.372-0.647-0.893-0.819-1.506c-0.031-0.111-0.1-0.208-0.193-0.274c-0.115-0.081-0.192-0.21-0.213-0.354
		c-0.02-0.146,0.021-0.29,0.115-0.406c0.073-0.089,0.112-0.201,0.112-0.315V9.427c0-1.282,0.751-1.959,2.173-1.959
		c1.44,0,2.171,0.659,2.171,1.959v1.414c0,0.115,0.04,0.227,0.112,0.316c0.095,0.117,0.137,0.261,0.116,0.406
		c-0.02,0.144-0.097,0.272-0.212,0.353c-0.095,0.066-0.163,0.163-0.194,0.274c-0.172,0.613-0.455,1.134-0.818,1.506
		c-0.092,0.094-0.143,0.219-0.143,0.35v0.632c0,0.051,0.008,0.101,0.022,0.148c0.144,0.46,0.639,1.083,4.7,2.619l0.057,1.529h-4.581
		c-0.276,0-0.5,0.224-0.5,0.5s0.224,0.5,0.5,0.5h4.581c0.521,0,0.943-0.426,0.943-0.949v-1.58
		C24.011,17.053,23.767,16.697,23.406,16.558z"/>
</g>
</svg>
