<?xml version="1.0" encoding="utf-8"?>
<!-- Generator: Adobe Illustrator 19.2.0, SVG Export Plug-In . SVG Version: 6.00 Build 0)  -->
<svg version="1.1" id="Layer_1" xmlns="http://www.w3.org/2000/svg" xmlns:xlink="http://www.w3.org/1999/xlink" x="0px" y="0px"
	 width="24px" height="24px" viewBox="0 0 24 24" style="enable-background:new 0 0 24 24;" xml:space="preserve">
<g>
	<path d="M11.704,15.978h6.513c0.412,0,0.748-0.337,0.748-0.752v-0.886c0-0.31-0.193-0.591-0.48-0.702
		c-1.624-0.627-2.069-0.929-2.166-0.987v-0.026c0.197-0.244,0.355-0.54,0.465-0.871c0.158-0.162,0.263-0.373,0.294-0.601
		c0.032-0.231-0.01-0.46-0.12-0.662V9.848c0-1.176-0.746-1.878-1.997-1.878c-1.231,0-1.997,0.72-1.997,1.878v0.644
		c-0.11,0.201-0.152,0.43-0.12,0.661c0.032,0.228,0.136,0.439,0.294,0.602c0.109,0.331,0.268,0.626,0.464,0.871
		c-0.147,0.119-0.631,0.422-2.169,1.016c-0.289,0.114-0.476,0.39-0.476,0.701v0.885C10.956,15.641,11.292,15.978,11.704,15.978z
		 M11.956,14.51c2.242-0.877,2.522-1.244,2.624-1.571c0.015-0.048,0.022-0.098,0.022-0.148v-0.354c0-0.131-0.051-0.256-0.143-0.35
		c-0.178-0.182-0.318-0.442-0.404-0.75c-0.031-0.111-0.109-0.314-0.204-0.381c0.073-0.089,0.112-0.201,0.112-0.315V9.848
		c0-0.377,0.104-0.878,0.997-0.878c0.884,0,0.997,0.469,0.997,0.878v0.792c0,0.115,0.03,0.333,0.103,0.422
		c-0.095,0.066-0.163,0.164-0.194,0.275c-0.085,0.304-0.229,0.57-0.404,0.749c-0.091,0.094-0.143,0.219-0.143,0.35v0.354
		c0,0.05,0.008,0.101,0.022,0.149c0.103,0.327,0.383,0.693,2.624,1.57v0.469h-6.009V14.51z"/>
	<path d="M23.471,5.003H7.171c-0.131,0-0.257,0.052-0.351,0.144l-6.631,6.521C0.094,11.761,0.04,11.89,0.04,12.024
		s0.054,0.263,0.149,0.356l6.631,6.521c0.094,0.092,0.219,0.144,0.351,0.144h16.299c0.276,0,0.5-0.224,0.5-0.5V5.503
		C23.971,5.227,23.747,5.003,23.471,5.003z M22.971,18.045H7.375l-6.123-6.021l6.123-6.021h15.595V18.045z"/>
</g>
</svg>
