<?xml version="1.0" encoding="utf-8"?>
<!-- Generator: Adobe Illustrator 19.2.0, SVG Export Plug-In . SVG Version: 6.00 Build 0)  -->
<svg version="1.1" id="Layer_1" xmlns="http://www.w3.org/2000/svg" xmlns:xlink="http://www.w3.org/1999/xlink" x="0px" y="0px"
	 width="24px" height="24px" viewBox="0 0 24 24" style="enable-background:new 0 0 24 24;" xml:space="preserve">
<g>
	<path d="M2.69,16.299c0.313,0.126,0.6,0.193,0.913,0.193c0.551,0,1.183-0.209,2.178-0.669c1.067-0.493,1.829-1.349,2.246-2.152
		c0.22,0.351,0.459,0.687,0.739,0.982v0.514c0,0.276,0.224,0.5,0.5,0.5s0.5-0.224,0.5-0.5v-0.718c0-0.134-0.054-0.263-0.149-0.356
		c-0.554-0.545-0.971-1.246-1.246-1.991c-0.023-0.124-0.066-0.234-0.122-0.335c-0.105-0.355-0.184-0.715-0.211-1.076
		c-0.019-0.261-0.253-0.463-0.515-0.463c-0.229,0-0.325-0.187-0.355-0.267C7.11,9.807,7.111,9.589,7.286,9.435
		c0.159-0.14,0.212-0.365,0.133-0.561C7.181,8.281,7.061,7.659,7.061,7.026c0-2.746,2.234-4.979,4.98-4.979
		c2.746,0,4.98,2.234,4.98,4.979c0,0.617-0.117,1.228-0.348,1.816c-0.081,0.207-0.016,0.442,0.16,0.578
		c0.189,0.146,0.199,0.368,0.146,0.525c-0.029,0.084-0.122,0.281-0.376,0.281c-0.262,0-0.479,0.202-0.499,0.463
		c-0.027,0.363-0.107,0.725-0.214,1.082c-0.049,0.086-0.09,0.191-0.116,0.319c-0.275,0.75-0.694,1.454-1.251,2.002
		c-0.096,0.094-0.149,0.223-0.149,0.356v0.718c0,0.276,0.224,0.5,0.5,0.5s0.5-0.224,0.5-0.5v-0.514
		c0.287-0.304,0.532-0.65,0.756-1.012c0.446,0.821,1.258,1.688,2.327,2.182c0.996,0.461,1.628,0.669,2.179,0.669
		c0.313,0,0.601-0.067,0.914-0.193c0.389-0.156,0.648-0.476,0.713-0.876c0.117-0.733-0.416-1.639-1.5-2.549
		c-1.139-0.957-2.653-1.631-3.725-1.628c0.005-0.031,0.016-0.061,0.021-0.091c0.398-0.136,0.719-0.454,0.866-0.886
		c0.165-0.483,0.081-0.987-0.21-1.368c0.203-0.61,0.306-1.239,0.306-1.875c0-3.297-2.683-5.979-5.98-5.979s-5.98,2.683-5.98,5.979
		c0,0.659,0.108,1.308,0.323,1.932c-0.265,0.389-0.327,0.89-0.151,1.356c0.153,0.404,0.464,0.705,0.85,0.837
		c0.003,0.022,0.011,0.043,0.015,0.065c-1.095,0.017-2.61,0.809-3.621,1.657c-1.084,0.91-1.617,1.815-1.5,2.549
		C2.041,15.823,2.3,16.142,2.69,16.299z M20.12,13.639c0.984,0.827,1.189,1.411,1.155,1.626c-0.006,0.033-0.012,0.07-0.099,0.105
		c-0.462,0.186-0.773,0.251-2.3-0.456c-1.068-0.493-1.812-1.461-2.052-2.151c-0.075-0.219-0.08-0.341-0.074-0.419
		c0.01-0.028,0.023-0.055,0.033-0.084C17.13,12.09,18.736,12.477,20.12,13.639z M4.119,13.639c1.242-1.042,2.508-1.448,3.035-1.448
		c0.092,0,0.149,0.018,0.192,0.041c0.014,0.043,0.035,0.084,0.05,0.127c0.003,0.089-0.009,0.222-0.07,0.417
		c-0.225,0.717-0.919,1.656-1.964,2.139c-1.525,0.706-1.838,0.641-2.299,0.456c0,0,0,0,0,0c-0.087-0.035-0.093-0.073-0.098-0.106
		C2.93,15.051,3.134,14.467,4.119,13.639z"/>
	<path d="M23.698,20.587c-2.179-2.115-4.845-3.611-7.626-4.296c-0.15-0.075-0.328-0.069-0.474,0.015
		c-0.146,0.083-0.239,0.234-0.249,0.402c-0.199,3.286-1.823,4.78-3.25,4.78c-0.001,0-0.003,0-0.005,0
		c-1.445-0.003-3.084-1.513-3.269-4.819c-0.017-0.304-0.336-0.525-0.63-0.457c-2.943,0.696-5.678,2.21-7.908,4.376
		c-0.189,0.184-0.298,0.441-0.298,0.707v1.727c0,0.542,0.441,0.983,0.983,0.983h22.043c0.542,0,0.983-0.441,0.983-0.983v-1.727
		C23.999,21.028,23.89,20.77,23.698,20.587z M0.989,23.021l-0.005-1.716c1.961-1.905,4.335-3.273,6.894-3.98
		c0.393,3.537,2.414,5.159,4.214,5.163c0.003,0,0.005,0,0.008,0c1.841,0,3.79-1.585,4.195-5.11c2.485,0.72,4.793,2.069,6.704,3.924
		l0.017,1.703L0.989,23.021z"/>
</g>
</svg>
