<?xml version="1.0" encoding="utf-8"?>
<!-- Generator: Adobe Illustrator 19.2.0, SVG Export Plug-In . SVG Version: 6.00 Build 0)  -->
<svg version="1.1" id="Layer_1" xmlns="http://www.w3.org/2000/svg" xmlns:xlink="http://www.w3.org/1999/xlink" x="0px" y="0px"
	 width="24px" height="24px" viewBox="0 0 24 24" style="enable-background:new 0 0 24 24;" xml:space="preserve">
<path d="M23.156,18.544C23.156,18.543,23.156,18.543,23.156,18.544c-6.569-2.538-7.667-3.613-7.84-3.944v-0.867
	c0.733-0.803,1.307-1.856,1.667-3.067c0.452-0.375,0.752-0.913,0.834-1.503c0.083-0.6-0.061-1.193-0.406-1.689V5.04
	c0-3.191-1.973-5.021-5.411-5.021c-3.39,0-5.414,1.877-5.414,5.021v2.435C6.242,7.969,6.099,8.561,6.181,9.161
	c0.082,0.59,0.382,1.129,0.833,1.504c0.361,1.21,0.935,2.264,1.668,3.067v0.867c-0.172,0.33-1.269,1.403-7.84,3.944
	c-0.512,0.199-0.843,0.687-0.843,1.239v2.904c0,0.731,0.59,1.327,1.315,1.327h21.371c0.726,0,1.315-0.596,1.315-1.327v-2.904
	C24,19.237,23.661,18.739,23.156,18.544z M23,22.687c0,0.181-0.142,0.327-0.315,0.327H1.314c-0.174,0-0.315-0.146-0.315-0.327
	v-2.904c0-0.136,0.083-0.26,0.205-0.307C8.23,16.76,9.421,15.61,9.66,14.844c0.015-0.048,0.022-0.098,0.022-0.148v-1.161
	c0-0.131-0.051-0.256-0.143-0.35c-0.718-0.735-1.275-1.755-1.609-2.951c-0.031-0.111-0.099-0.208-0.193-0.274
	C7.43,9.744,7.224,9.403,7.172,9.024C7.119,8.64,7.227,8.261,7.475,7.956c0.072-0.089,0.112-0.201,0.112-0.315V5.04
	c0-2.593,1.567-4.021,4.414-4.021c2.886,0,4.411,1.391,4.411,4.021v2.6c0,0.115,0.04,0.227,0.112,0.315
	c0.249,0.306,0.356,0.686,0.304,1.069c-0.053,0.379-0.259,0.72-0.565,0.935c-0.095,0.066-0.163,0.164-0.194,0.274
	c-0.334,1.195-0.891,2.216-1.608,2.95c-0.092,0.093-0.143,0.219-0.143,0.35v1.161c0,0.051,0.008,0.101,0.022,0.149
	c0.24,0.767,1.432,1.918,8.456,4.632C22.918,19.523,23,19.647,23,19.783V22.687z"/>
</svg>
