<?xml version="1.0" encoding="utf-8"?>
<!-- Generator: Adobe Illustrator 19.2.0, SVG Export Plug-In . SVG Version: 6.00 Build 0)  -->
<svg version="1.1" id="Layer_1" xmlns="http://www.w3.org/2000/svg" xmlns:xlink="http://www.w3.org/1999/xlink" x="0px" y="0px"
	 width="24px" height="24px" viewBox="0 0 24 24" style="enable-background:new 0 0 24 24;" xml:space="preserve">
<g>
	<path d="M19.206,21.174c-5.334-2.143-6.25-3.039-6.399-3.318v-0.707c0.599-0.688,1.067-1.584,1.364-2.609
		c0.372-0.328,0.621-0.793,0.691-1.299c0.073-0.525-0.044-1.045-0.332-1.482V9.695c0-2.774-1.655-4.365-4.54-4.365
		c-2.844,0-4.542,1.632-4.542,4.365v2.063c-0.287,0.437-0.404,0.955-0.332,1.479c0.07,0.507,0.319,0.971,0.691,1.3
		c0.296,1.025,0.765,1.922,1.364,2.61v0.707c-0.148,0.279-1.063,1.174-6.399,3.318c-0.452,0.183-0.744,0.623-0.744,1.124v1.046
		c0,0.276,0.224,0.5,0.5,0.5s0.5-0.224,0.5-0.5v-1.046c0-0.088,0.048-0.168,0.118-0.196c5.814-2.337,6.803-3.338,7.004-4.009
		c0.014-0.047,0.021-0.095,0.021-0.144v-0.993c0-0.127-0.048-0.25-0.136-0.343C7.453,15.993,7,15.131,6.729,14.12
		c-0.03-0.11-0.096-0.206-0.188-0.273c-0.234-0.171-0.392-0.443-0.434-0.746c-0.043-0.314,0.04-0.625,0.235-0.874
		c0.068-0.088,0.106-0.196,0.106-0.308V9.695c0-2.17,1.258-3.365,3.542-3.365c2.349,0,3.54,1.132,3.54,3.365v2.223
		c0,0.112,0.037,0.22,0.106,0.308c0.195,0.25,0.279,0.561,0.235,0.876c-0.042,0.302-0.2,0.574-0.435,0.745
		c-0.092,0.067-0.158,0.164-0.188,0.274c-0.272,1.011-0.724,1.872-1.307,2.492c-0.087,0.093-0.136,0.216-0.136,0.343v0.993
		c0,0.049,0.007,0.097,0.021,0.144c0.202,0.673,1.192,1.675,7.006,4.009c0.068,0.027,0.116,0.108,0.116,0.196v1.046
		c0,0.276,0.224,0.5,0.5,0.5s0.5-0.224,0.5-0.5v-1.046C19.95,21.803,19.65,21.351,19.206,21.174z"/>
	<path d="M23.001,5h-3V2c0-0.276-0.224-0.5-0.5-0.5s-0.5,0.224-0.5,0.5v3h-3c-0.276,0-0.5,0.224-0.5,0.5s0.224,0.5,0.5,0.5h3v3
		c0,0.276,0.224,0.5,0.5,0.5s0.5-0.224,0.5-0.5V6h3c0.276,0,0.5-0.224,0.5-0.5S23.277,5,23.001,5z"/>
</g>
</svg>
