<?xml version="1.0" encoding="utf-8"?>
<!-- Generator: Adobe Illustrator 19.2.0, SVG Export Plug-In . SVG Version: 6.00 Build 0)  -->
<svg version="1.1" id="Layer_1" xmlns="http://www.w3.org/2000/svg" xmlns:xlink="http://www.w3.org/1999/xlink" x="0px" y="0px"
	 width="24px" height="24px" viewBox="0 0 24 24" style="enable-background:new 0 0 24 24;" xml:space="preserve">
<g>
	<path d="M22.92,11.993c-0.673-0.673-1.567-1.044-2.52-1.044s-1.847,0.371-2.52,1.043c-0.897,0.898-1.243,2.214-0.922,3.431
		l-6.007,6.006c-0.144,0.144-0.187,0.36-0.107,0.548l0.451,1.066c0.079,0.186,0.26,0.306,0.46,0.306c0.006,0,0.012,0,0.019,0
		l1.767-0.065c0.22-0.009,0.408-0.159,0.465-0.371l0.321-1.207l1.42-0.278c0.21-0.04,0.37-0.21,0.399-0.421l0.247-1.762l1.259,0.03
		c0.135,0.006,0.27-0.05,0.365-0.146l1.243-1.243c1.27,0.426,2.702,0.104,3.658-0.854C24.309,15.642,24.309,13.383,22.92,11.993z
		 M22.213,16.325c-0.747,0.746-1.899,0.957-2.867,0.52c-0.191-0.084-0.413-0.045-0.56,0.103l-1.323,1.323l-1.49-0.036
		c-0.248,0.015-0.472,0.18-0.507,0.431l-0.259,1.851l-1.377,0.27c-0.188,0.036-0.338,0.177-0.388,0.361l-0.307,1.151l-1.053,0.039
		l-0.186-0.438l5.982-5.981c0.138-0.138,0.183-0.343,0.116-0.525c-0.342-0.934-0.109-1.99,0.592-2.691
		c0.484-0.484,1.128-0.75,1.812-0.75s1.328,0.267,1.812,0.751C23.212,13.7,23.212,15.326,22.213,16.325z"/>
	<path d="M11.002,19.478c0-0.276-0.224-0.5-0.5-0.5h-9.27c-0.097,0-0.176-0.081-0.176-0.181v-2.393c0-0.075,0.046-0.143,0.114-0.169
		c5.862-2.252,6.861-3.22,7.065-3.871c0.015-0.048,0.023-0.099,0.023-0.149v-0.957c0-0.131-0.052-0.257-0.144-0.351
		c-0.586-0.595-1.041-1.422-1.313-2.391c-0.031-0.111-0.1-0.208-0.195-0.274C6.373,8.078,6.215,7.82,6.175,7.532
		c-0.04-0.291,0.042-0.578,0.232-0.81C6.48,6.634,6.521,6.521,6.521,6.406V4.264c0-2.079,1.27-3.224,3.575-3.224
		c2.372,0,3.574,1.084,3.574,3.224v2.141c0,0.115,0.04,0.227,0.113,0.316c0.19,0.233,0.272,0.521,0.232,0.812
		c-0.04,0.287-0.197,0.545-0.433,0.709c-0.095,0.066-0.164,0.163-0.195,0.274c-0.273,0.97-0.727,1.797-1.312,2.392
		c-0.092,0.093-0.144,0.219-0.144,0.351v0.957c0,0.051,0.008,0.102,0.023,0.15c0.229,0.728,2.505,2.127,3.097,2.438
		c0.242,0.128,0.547,0.036,0.675-0.21c0.129-0.244,0.035-0.547-0.21-0.675c-0.979-0.515-2.345-1.52-2.584-1.821v-0.64
		c0.6-0.662,1.071-1.523,1.372-2.509c0.38-0.322,0.633-0.778,0.702-1.277c0.07-0.508-0.049-1.009-0.336-1.432V4.264
		c0-2.684-1.667-4.224-4.574-4.224c-2.865,0-4.575,1.579-4.575,4.224V6.24C5.233,6.662,5.115,7.162,5.185,7.67
		c0.069,0.5,0.321,0.956,0.701,1.278c0.3,0.986,0.771,1.847,1.373,2.51v0.657c-0.156,0.271-1.095,1.132-6.446,3.188
		c-0.452,0.174-0.756,0.616-0.756,1.103v2.393c0,0.651,0.527,1.181,1.176,1.181h9.27C10.779,19.978,11.002,19.755,11.002,19.478z"/>
	<path d="M20.45,13.75c-0.091,0.09-0.141,0.22-0.141,0.35c0,0.131,0.05,0.261,0.15,0.351c0.09,0.1,0.22,0.149,0.35,0.149
		s0.26-0.05,0.36-0.149c0.09-0.09,0.14-0.22,0.14-0.351c0-0.13-0.05-0.25-0.149-0.359C20.97,13.56,20.66,13.55,20.45,13.75z"/>
</g>
</svg>
