<?xml version="1.0" encoding="utf-8"?>
<!-- Generator: Adobe Illustrator 19.2.0, SVG Export Plug-In . SVG Version: 6.00 Build 0)  -->
<svg version="1.1" id="Layer_1" xmlns="http://www.w3.org/2000/svg" xmlns:xlink="http://www.w3.org/1999/xlink" x="0px" y="0px"
	 width="24px" height="24px" viewBox="0 0 24 24" style="enable-background:new 0 0 24 24;" xml:space="preserve">
<g>
	<path d="M12.014,0.013c-6.604,0-11.976,5.371-11.976,11.972v11.477c0,0.276,0.224,0.5,0.5,0.5h11.476
		c6.602,0,11.973-5.373,11.973-11.977C23.987,5.384,18.616,0.013,12.014,0.013z M12.014,22.962H1.038V11.985
		c0-6.05,4.924-10.972,10.976-10.972c6.05,0,10.973,4.922,10.973,10.972C22.987,18.038,18.064,22.962,12.014,22.962z"/>
	<path d="M16.485,14.854c-2.859-1.104-3.467-1.598-3.584-1.721v-0.239c0.33-0.386,0.591-0.871,0.765-1.42
		c0.231-0.216,0.385-0.51,0.43-0.83c0.045-0.325-0.022-0.646-0.191-0.922V8.636c0-1.668-1.065-2.664-2.851-2.664
		c-1.759,0-2.851,1.021-2.851,2.664v1.087c-0.168,0.275-0.236,0.596-0.191,0.92c0.044,0.32,0.197,0.614,0.429,0.831
		c0.173,0.55,0.435,1.035,0.765,1.42v0.229c-0.154,0.17-0.81,0.658-3.585,1.732c-0.341,0.132-0.57,0.468-0.57,0.835v1.391
		c0,0.494,0.399,0.896,0.89,0.896h10.226c0.491,0,0.891-0.401,0.891-0.896V15.69C17.057,15.321,16.827,14.986,16.485,14.854z
		 M16.057,16.976H6.05V15.76c3.566-1.384,4.003-1.941,4.132-2.355c0.015-0.049,0.022-0.099,0.022-0.149V12.7
		c0-0.131-0.051-0.256-0.143-0.35c-0.313-0.32-0.557-0.77-0.705-1.299c-0.031-0.111-0.099-0.208-0.193-0.274
		c-0.088-0.062-0.147-0.161-0.163-0.271c-0.011-0.079-0.004-0.196,0.089-0.311c0.073-0.089,0.112-0.201,0.112-0.315V8.636
		c0-1.104,0.623-1.664,1.851-1.664c1.245,0,1.851,0.544,1.851,1.664V9.88c0,0.115,0.04,0.226,0.112,0.315
		c0.093,0.115,0.1,0.233,0.089,0.312c-0.016,0.11-0.074,0.208-0.162,0.27c-0.095,0.066-0.163,0.163-0.194,0.274
		c-0.148,0.53-0.393,0.979-0.706,1.3c-0.091,0.093-0.142,0.219-0.142,0.349v0.556c0,0.05,0.008,0.101,0.023,0.149
		c0.129,0.415,0.567,0.974,4.132,2.355V16.976z"/>
</g>
</svg>
