<?xml version="1.0" encoding="utf-8"?>
<!-- Generator: Adobe Illustrator 19.2.0, SVG Export Plug-In . SVG Version: 6.00 Build 0)  -->
<svg version="1.1" id="Layer_1" xmlns="http://www.w3.org/2000/svg" xmlns:xlink="http://www.w3.org/1999/xlink" x="0px" y="0px"
	 width="24px" height="24px" viewBox="0 0 24 24" style="enable-background:new 0 0 24 24;" xml:space="preserve">
<g>
	<path d="M16.302,15.812c-4.393-1.736-5.201-2.471-5.344-2.7v-0.526c0.498-0.572,0.889-1.309,1.14-2.151
		c0.32-0.285,0.533-0.684,0.594-1.119c0.062-0.448-0.037-0.892-0.28-1.267V6.364c0-2.357-1.424-3.708-3.908-3.708
		c-2.448,0-3.909,1.386-3.909,3.708V8.05C4.352,8.425,4.253,8.866,4.314,9.314c0.061,0.435,0.273,0.834,0.593,1.121
		c0.251,0.842,0.642,1.579,1.14,2.151v0.524c-0.134,0.205-0.907,0.949-5.346,2.704c-0.413,0.164-0.679,0.562-0.679,1.013v2.062
		c0,0.6,0.478,1.087,1.065,1.087h14.829c0.588,0,1.065-0.487,1.065-1.087v-2.062C16.982,16.38,16.709,15.972,16.302,15.812z
		 M15.982,18.887c0,0.052-0.034,0.087-0.065,0.087H1.088c-0.032,0-0.065-0.035-0.065-0.087l0.047-2.145
		c4.922-1.945,5.771-2.774,5.956-3.381c0.014-0.048,0.021-0.097,0.021-0.146v-0.824c0-0.129-0.05-0.252-0.139-0.346
		c-0.482-0.504-0.856-1.207-1.082-2.032c-0.03-0.11-0.097-0.207-0.19-0.274c-0.18-0.129-0.301-0.335-0.333-0.563
		c-0.033-0.235,0.031-0.468,0.18-0.655c0.07-0.088,0.108-0.198,0.108-0.311V6.364c0-1.772,1.006-2.708,2.909-2.708
		c1.93,0,2.908,0.911,2.908,2.708v1.845c0,0.113,0.038,0.223,0.108,0.311c0.149,0.188,0.214,0.421,0.181,0.658
		c-0.032,0.228-0.153,0.433-0.332,0.562c-0.093,0.067-0.161,0.164-0.191,0.274c-0.225,0.826-0.599,1.528-1.081,2.032
		c-0.089,0.093-0.139,0.217-0.139,0.346v0.824c0,0.049,0.007,0.098,0.022,0.146c0.185,0.606,1.035,1.436,5.956,3.381l0.047,0.083
		V18.887z"/>
	<path d="M23.316,16.089c-1.145-0.437-2.343-0.664-3.306-0.847c-0.652-0.123-1.535-0.291-1.731-0.415v-0.458
		c2.173-0.1,3.101-0.795,3.206-0.879c0.129-0.104,0.198-0.266,0.185-0.431s-0.108-0.313-0.254-0.395
		c-0.466-0.262-0.936-2.353-1.079-4.101c0-1.797-1.003-3.395-2.617-4.168c-1.492-0.714-3.129-0.543-4.375,0.459
		c-0.215,0.173-0.249,0.488-0.076,0.703c0.174,0.215,0.487,0.249,0.703,0.076c0.938-0.755,2.176-0.884,3.316-0.337
		c1.264,0.605,2.049,1.857,2.051,3.307c0.065,0.813,0.313,3.17,1.037,4.352c-0.474,0.19-1.312,0.422-2.598,0.425
		c-0.276,0.001-0.499,0.225-0.499,0.5v1.079c0,0.051,0.008,0.102,0.023,0.15c0.214,0.678,1.132,0.852,2.522,1.115
		c0.924,0.175,2.073,0.393,3.158,0.831l-0.035,1.918h-4.377c-0.276,0-0.5,0.224-0.5,0.5s0.224,0.5,0.5,0.5h4.377
		c0.57,0,1.035-0.465,1.035-1.036v-1.882C23.983,16.63,23.716,16.241,23.316,16.089z"/>
</g>
</svg>
