<?xml version="1.0" encoding="utf-8"?>
<!-- Generator: Adobe Illustrator 19.2.0, SVG Export Plug-In . SVG Version: 6.00 Build 0)  -->
<svg version="1.1" id="Layer_1" xmlns="http://www.w3.org/2000/svg" xmlns:xlink="http://www.w3.org/1999/xlink" x="0px" y="0px"
	 width="24px" height="24px" viewBox="0 0 24 24" style="enable-background:new 0 0 24 24;" xml:space="preserve">
<g>
	<path d="M20.789,13.256c0.227-0.933,0.311-2.199,0.311-3.156c0-0.186-0.105-0.341-0.255-0.427l-1.048-5.133
		C19.773,4.354,19.159,0,11.9,0C5.185,0,4.059,4.299,4.01,4.5l-1.1,5.4c-0.03,0.145,0.013,0.286,0.097,0.398
		c0.018,0.841,0.153,2.029,0.4,2.961C2.912,13.613,2.6,14.189,2.6,14.8c0,0.929,0.672,1.733,1.546,1.945
		c0.016,0.115,0.047,0.227,0.07,0.34c-0.014,0.059-0.02,0.121-0.011,0.184c0.012,0.082,0.048,0.153,0.093,0.216
		c0.984,3.73,5.15,6.415,7.802,6.415c2.828,0,7.36-3.17,7.952-7.154c0.875-0.212,1.548-1.017,1.548-1.946
		C21.6,14.187,21.286,13.61,20.789,13.256z M18.51,13.018l-0.178-1.899c0.578-0.134,1.164-0.298,1.758-0.497
		c-0.022,0.712-0.092,1.534-0.229,2.192C19.343,12.715,18.881,12.823,18.51,13.018z M4.985,4.721C5.024,4.569,6.005,1,11.9,1
		c6.33,0,6.883,3.515,6.91,3.7l1.014,4.973c-1.415,0.479-2.813,0.736-4.088,0.907C16.023,10.012,16.2,9.379,16.2,8.7
		c0-2.316-1.884-4.2-4.2-4.2c-2.316,0-4.2,1.884-4.2,4.2c0,0.654,0.163,1.265,0.43,1.817C6.185,10.276,4.666,9.87,3.979,9.662
		L4.985,4.721z M8.8,8.7c0-1.765,1.436-3.2,3.2-3.2s3.2,1.436,3.2,3.2s-1.436,3.2-3.2,3.2S8.8,10.465,8.8,8.7z M4.324,12.79
		c-0.145-0.615-0.256-1.38-0.3-2.073c0.409,0.117,0.953,0.258,1.645,0.401l-0.178,1.9C5.164,12.847,4.765,12.747,4.324,12.79z
		 M12.1,22.9c-2.24,0-5.697-2.272-6.721-5.291l5.07-0.712c0.963-0.095,1.939-0.096,2.883-0.002l5.465,0.741
		C17.742,20.602,14.272,22.9,12.1,22.9z M19.6,15.8c-0.261,0-0.478,0.2-0.498,0.461c-0.011,0.135-0.037,0.267-0.059,0.4
		l-5.593-0.758c-1.029-0.104-2.072-0.104-3.12,0.002l-5.179,0.727c-0.018-0.123-0.043-0.245-0.053-0.37
		C5.079,16.001,4.861,15.8,4.6,15.8c-0.523,0-1-0.477-1-1c0-0.415,0.294-0.719,0.586-0.836c0.094-0.037,0.163-0.105,0.217-0.183
		c0.624-0.073,1.042,0.447,1.092,0.513C5.591,14.426,5.743,14.5,5.9,14.5c0.044,0,0.088-0.006,0.132-0.018
		c0.201-0.056,0.346-0.229,0.366-0.436l0.258-2.744c0.684,0.116,1.454,0.22,2.301,0.295c0.006,0.001,0.01-0.002,0.016-0.002
		C9.737,12.396,10.808,12.9,12,12.9c1.149,0,2.189-0.465,2.948-1.215c0.748-0.084,1.557-0.195,2.399-0.352l0.254,2.713
		c0.02,0.207,0.165,0.38,0.365,0.436c0.044,0.012,0.089,0.018,0.133,0.018c0.157,0,0.309-0.074,0.404-0.206
		c0.022-0.03,0.549-0.729,1.338-0.45c0.048,0.05,0.104,0.092,0.172,0.12c0.291,0.117,0.585,0.421,0.585,0.836
		C20.6,15.323,20.123,15.8,19.6,15.8z"/>
	<path d="M12,10.4c0.938,0,1.7-0.763,1.7-1.7S12.938,7,12,7s-1.7,0.763-1.7,1.7S11.062,10.4,12,10.4z M12,8
		c0.386,0,0.7,0.314,0.7,0.7S12.386,9.4,12,9.4s-0.7-0.314-0.7-0.7S11.614,8,12,8z"/>
	<path d="M9.6,14H9.5C9.224,14,9,14.223,9,14.5S9.224,15,9.5,15h0.1c0.276,0,0.5-0.224,0.5-0.5S9.876,14,9.6,14z"/>
	<path d="M14.5,14h-0.1c-0.276,0-0.45,0.224-0.45,0.5S14.224,15,14.5,15s0.5-0.224,0.5-0.5S14.776,14,14.5,14z"/>
</g>
</svg>
