<?xml version="1.0" encoding="utf-8"?>
<!-- Generator: Adobe Illustrator 19.2.0, SVG Export Plug-In . SVG Version: 6.00 Build 0)  -->
<svg version="1.1" id="Layer_1" xmlns="http://www.w3.org/2000/svg" xmlns:xlink="http://www.w3.org/1999/xlink" x="0px" y="0px"
	 width="24px" height="24px" viewBox="0 0 24 24" style="enable-background:new 0 0 24 24;" xml:space="preserve">
<g>
	<path d="M21.942,15.265c-0.222-0.478-0.607-0.822-1.166-1.017c-0.023-0.01-0.045-0.016-0.068-0.023
		c-0.147-0.246-0.344-0.462-0.59-0.621c0.021-0.266,0.214-0.677,0.375-1.02c0.14-0.3,0.277-0.607,0.372-0.914
		c0.021,0.008,0.047,0.016,0.067,0.024c0.135,0.05,0.288,0.038,0.416-0.033c0.127-0.071,0.217-0.194,0.246-0.337
		c0.039-0.196,0.941-4.843-1.746-8.129c-1.669-2.041-4.331-3.075-7.912-3.075c-3.163,0-5.641,0.958-7.365,2.847
		C1.538,6.291,1.955,11.26,1.974,11.47c0.021,0.224,0.188,0.406,0.409,0.446c0.03,0.006,0.06,0.008,0.089,0.008
		c0.189,0,0.365-0.107,0.45-0.282c0.198-0.408,0.487-0.834,0.823-1.261c0.004,0.047,0.008,0.091,0.012,0.14
		c0.083,0.979,0.205,2.411,0.102,3.07c-0.547,0.343-0.888,0.946-0.888,1.602c0,0.891,0.619,1.639,1.464,1.838
		c0.574,3.796,4.865,6.812,7.543,6.812c2.088,0,4.672-1.549,6.227-3.729c1.772-0.311,3.093-0.993,3.69-2.524
		C22.222,16.753,22.239,15.906,21.942,15.265z M5.311,3.64c1.527-1.673,3.756-2.521,6.626-2.521c3.264,0,5.664,0.91,7.134,2.704
		c1.87,2.282,1.764,5.441,1.625,6.726c-1.651-0.57-5.948-1.933-9.296-1.933c-1.727,0-3.202,0.363-3.931,1.384
		c-0.166,0.232-0.293,0.38-0.386,0.473c-0.09-0.958,0.618-3.823,1.631-4.608C8.929,5.698,8.971,5.39,8.81,5.172
		s-0.47-0.269-0.69-0.111c-0.16,0.113-3.291,2.34-5.135,4.666C3.105,8.078,3.59,5.527,5.311,3.64z M11.978,22.842
		c-2.353,0-6.324-2.883-6.593-6.299c-0.021-0.261-0.262-0.46-0.523-0.46c-0.491,0-0.891-0.399-0.891-0.891
		c0-0.35,0.208-0.669,0.529-0.813c0.13-0.059,0.229-0.169,0.272-0.305c0.213-0.669,0.122-1.986-0.018-3.638
		c-0.038-0.441-0.071-0.83-0.083-1.113C5.303,8.665,5.996,8.035,6.629,7.5c-0.448,1.276-0.65,2.667-0.483,3.372
		c0.131,0.552,0.466,0.697,0.653,0.733c0.589,0.116,1.1-0.487,1.483-1.024c1.48-2.071,8.17-0.384,11.64,0.764
		c-0.074,0.251-0.203,0.535-0.334,0.816c-0.302,0.645-0.613,1.312-0.4,1.926c0.046,0.13,0.143,0.236,0.269,0.292
		c0.321,0.144,0.528,0.463,0.528,0.813c0,0.49-0.398,0.89-0.913,0.89c-0.286-0.026-0.479,0.199-0.5,0.461
		c-0.074,0.947-0.425,1.842-0.935,2.648c-0.856,0.115-1.885,0.165-3.104,0.179c-0.213-0.424-0.676-0.723-1.22-0.723h-0.35
		c-0.743,0-1.347,0.553-1.347,1.231s0.604,1.231,1.347,1.231h0.35c0.551,0,1.023-0.306,1.232-0.739
		c0.789-0.008,1.546-0.026,2.247-0.079C15.376,21.835,13.412,22.842,11.978,22.842z M13.312,20.109h-0.35
		c-0.199,0-0.347-0.122-0.347-0.231s0.143-0.231,0.347-0.231h0.35c0.205,0,0.348,0.122,0.348,0.231S13.512,20.109,13.312,20.109z
		 M20.964,17.225c-0.34,0.871-1.005,1.392-2.052,1.706c0.295-0.607,0.509-1.244,0.608-1.897c0.719-0.166,1.279-0.745,1.424-1.472
		c0.029,0.042,0.068,0.074,0.09,0.123C21.215,16.074,21.188,16.65,20.964,17.225z"/>
	<path d="M10.814,19.039H10.1c-0.276,0-0.5,0.224-0.5,0.5s0.224,0.5,0.5,0.5h0.715c0.276,0,0.5-0.224,0.5-0.5
		S11.091,19.039,10.814,19.039z"/>
	<path d="M10.455,13.525c0-0.276-0.224-0.5-0.5-0.5H8.982c-0.276,0-0.5,0.224-0.5,0.5s0.224,0.5,0.5,0.5h0.973
		C10.231,14.025,10.455,13.802,10.455,13.525z"/>
	<path d="M14.026,14.025H15c0.276,0,0.5-0.224,0.5-0.5s-0.224-0.5-0.5-0.5h-0.974c-0.276,0-0.5,0.224-0.5,0.5
		S13.75,14.025,14.026,14.025z"/>
</g>
</svg>
