<?xml version="1.0" encoding="utf-8"?>
<!-- Generator: Adobe Illustrator 19.2.0, SVG Export Plug-In . SVG Version: 6.00 Build 0)  -->
<svg version="1.1" id="Layer_1" xmlns="http://www.w3.org/2000/svg" xmlns:xlink="http://www.w3.org/1999/xlink" x="0px" y="0px"
	 width="24px" height="24px" viewBox="0 0 24 24" style="enable-background:new 0 0 24 24;" xml:space="preserve">
<g>
	<path d="M16.228,15.039c-0.277-0.033-0.526,0.152-0.565,0.425c-0.039,0.273,0.151,0.526,0.425,0.565
		c3.945,0.558,6.7,1.888,6.7,3.234c0,1.665-4.43,3.52-10.787,3.52s-10.787-1.854-10.787-3.52c0-1.154,2.344-2.642,6.823-3.253
		c0.274-0.037,0.465-0.289,0.428-0.562c-0.037-0.274-0.29-0.478-0.563-0.428c-4.742,0.646-7.688,2.272-7.688,4.243
		c0,2.936,6.073,4.52,11.787,4.52c5.714,0,11.787-1.584,11.787-4.52C23.787,17.317,20.891,15.698,16.228,15.039z"/>
	<path d="M11.501,12.855l0,7.421c0,0.276,0.224,0.5,0.5,0.5c0.276,0,0.5-0.224,0.5-0.5l0-7.421c0-0.276-0.224-0.5-0.5-0.5
		S11.501,12.578,11.501,12.855z"/>
	<path d="M12.001,4.107c1.042,0,1.733-1.284,1.733-2.133c0-0.956-0.778-1.734-1.733-1.734c-0.956,0-1.734,0.778-1.734,1.734
		C10.267,2.823,10.958,4.107,12.001,4.107z M12.001,1.24c0.404,0,0.733,0.329,0.733,0.734c0,0.487-0.418,1.133-0.733,1.133
		s-0.734-0.646-0.734-1.133C11.267,1.57,11.596,1.24,12.001,1.24z"/>
	<path d="M9.024,11.803c0.13,0.113,0.278,0.145,0.417,0.147l0.464,8.353c0.015,0.276,0.238,0.502,0.527,0.472
		c0.276-0.015,0.487-0.251,0.471-0.526l-0.487-8.767c-0.005-0.138-0.087-0.312-0.191-0.402c-0.126-0.11-0.271-0.144-0.406-0.149
		C9.681,6.78,9.901,5.528,9.974,5.213c0.083-0.004,0.176-0.007,0.262-0.011l0.325,0.045c0.258,0.5,0.81,0.811,1.44,0.811
		c0.63,0,1.182-0.311,1.492-0.869l0.273,0.013c0.079,0.003,0.165,0.006,0.239,0.009c0.106,0.393,0.311,1.692,0.178,5.719
		c-0.136,0.005-0.28,0.04-0.407,0.149c-0.102,0.088-0.184,0.258-0.19,0.393l-0.488,8.776c-0.016,0.275,0.195,0.511,0.472,0.526
		c0.009,0.001,0.019,0.001,0.027,0.001c0.264,0,0.484-0.206,0.499-0.473l0.465-8.353c0.139-0.003,0.287-0.035,0.417-0.147
		c0.104-0.091,0.185-0.261,0.19-0.399c0.239-6.42-0.295-6.864-0.522-7.053c-0.054-0.045-0.118-0.079-0.187-0.098
		c-0.086-0.024-0.184-0.032-0.651-0.051l-0.251-0.011c-0.431-0.029-0.802,0.203-1.005,0.598c-0.206,0.397-0.897,0.396-1.102,0
		c-0.204-0.395-0.589-0.624-1.005-0.598l-0.25,0.011C9.727,4.222,9.629,4.23,9.543,4.254C9.474,4.273,9.409,4.307,9.354,4.353
		c-0.228,0.19-0.76,0.636-0.52,7.052C8.839,11.543,8.92,11.712,9.024,11.803z"/>
</g>
</svg>
