<?xml version="1.0" encoding="utf-8"?>
<!-- Generator: Adobe Illustrator 19.2.0, SVG Export Plug-In . SVG Version: 6.00 Build 0)  -->
<svg version="1.1" id="Layer_1" xmlns="http://www.w3.org/2000/svg" xmlns:xlink="http://www.w3.org/1999/xlink" x="0px" y="0px"
	 width="24px" height="24px" viewBox="0 0 24 24" style="enable-background:new 0 0 24 24;" xml:space="preserve">
<g>
	<path d="M23.848,20.777c-0.023-0.049-0.056-0.093-0.094-0.131c-2.152-2.151-7.934-4.323-8.179-4.415
		c-0.258-0.097-0.547,0.035-0.644,0.294s0.035,0.547,0.294,0.644c0.058,0.021,5.712,2.145,7.763,4.127
		c0.006,0.01,0.007,0.013,0.011,0.01c0,0.001,0,0.001,0.001,0.002V23h-8.4c-0.276,0-0.5,0.224-0.5,0.5s0.224,0.5,0.5,0.5H23
		c0.579,0,1-0.421,1-1v-1.7C24,21.12,23.917,20.917,23.848,20.777z"/>
	<path d="M9.4,23H1l0-1.69c2.144-1.99,7.72-4.12,7.777-4.142c0.258-0.099,0.388-0.387,0.29-0.646
		c-0.098-0.257-0.387-0.384-0.645-0.29c-0.241,0.092-5.921,2.261-8.177,4.415C0,20.894,0,21.168,0,21.3V23c0,0.579,0.42,1,1,1h8.4
		c0.276,0,0.5-0.224,0.5-0.5S9.676,23,9.4,23z"/>
	<path d="M6.097,9.148c0.112,0.529,0.471,0.925,0.945,1.081c0.175,1.293,0.754,2.509,1.658,3.474V15.2c0,0.276,0.224,0.5,0.5,0.5
		s0.5-0.224,0.5-0.5v-1.7c0-0.133-0.053-0.26-0.146-0.354c-0.912-0.912-1.464-2.113-1.555-3.382C7.98,9.503,7.762,9.3,7.5,9.3
		c-0.323,0-0.407-0.275-0.425-0.36C7.058,8.858,7.023,8.581,7.303,8.457c0.235-0.105,0.353-0.371,0.271-0.615
		C7.392,7.296,7.3,6.743,7.3,6.2c0-2.748,2.064-4.9,4.7-4.9c2.592,0,4.7,2.243,4.7,5c0,0.542-0.093,1.094-0.274,1.642
		c-0.078,0.236,0.028,0.494,0.251,0.605c0.201,0.101,0.246,0.349,0.201,0.537C16.844,9.228,16.751,9.4,16.5,9.4
		c-0.263,0-0.48,0.203-0.499,0.464c-0.09,1.268-0.643,2.469-1.555,3.382C14.353,13.341,14.3,13.468,14.3,13.6
		c0,0.021,0.003,0.094,0.009,0.199c0.043,0.788,0.041,1.096,0.028,1.21c-0.073,0.181-0.038,0.396,0.107,0.542
		c0.194,0.196,0.51,0.198,0.707,0.004c0.194-0.192,0.233-0.38,0.158-1.764c0.899-0.964,1.475-2.176,1.648-3.465
		c0.443-0.148,0.775-0.514,0.894-1.013c0.124-0.528-0.025-1.055-0.372-1.404C17.626,7.373,17.7,6.833,17.7,6.3
		c0-3.309-2.557-6-5.7-6c-3.196,0-5.7,2.591-5.7,5.9c0,0.528,0.072,1.062,0.215,1.59C6.15,8.121,5.986,8.623,6.097,9.148z"/>
	<path d="M13.635,19.948c0.991-1.739,0.809-2.343,0.749-2.542c-0.076-0.249-0.234-0.44-0.459-0.554
		c-0.007-0.003-0.013-0.006-0.02-0.009c-2.223-0.999-3.809-0.007-3.918,0.065c-0.77,0.616-0.219,1.993,0.378,3.039
		c0.09,0.157,0.256,0.252,0.434,0.252c0.021,0,0.041-0.001,0.062-0.004c0.756-0.094,1.521-0.094,2.277,0
		C13.335,20.222,13.534,20.123,13.635,19.948z M12,19.126c-0.308,0-0.615,0.014-0.921,0.041c-0.433-0.833-0.521-1.371-0.512-1.444
		c0.049-0.029,1.194-0.719,2.866,0.006c0.015,0.14-0.058,0.586-0.51,1.439C12.616,19.139,12.308,19.126,12,19.126z"/>
	<path d="M13.4,21.1c0-0.276-0.225-0.5-0.5-0.5c-0.276,0-0.5,0.224-0.5,0.5l0.305,2.47c0.036,0.25,0.25,0.43,0.494,0.43
		c0.023,0,0.048-0.002,0.071-0.005c0.273-0.039,0.464-0.293,0.425-0.565L13.4,21.4V21.1z"/>
	<path d="M11.165,20.704c-0.277-0.04-0.525,0.157-0.561,0.432l-0.3,2.3c-0.036,0.273,0.157,0.524,0.431,0.561
		C10.757,23.999,10.779,24,10.8,24c0.248,0,0.462-0.184,0.495-0.436l0.3-2.3C11.632,20.991,11.438,20.74,11.165,20.704z"/>
</g>
</svg>
