<?xml version="1.0" encoding="utf-8"?>
<!-- Generator: Adobe Illustrator 19.2.0, SVG Export Plug-In . SVG Version: 6.00 Build 0)  -->
<svg version="1.1" id="Layer_1" xmlns="http://www.w3.org/2000/svg" xmlns:xlink="http://www.w3.org/1999/xlink" x="0px" y="0px"
	 width="24px" height="24px" viewBox="0 0 24 24" style="enable-background:new 0 0 24 24;" xml:space="preserve">
<g>
	<path d="M19.2,15.9c0-0.336-0.114-0.768-0.525-1.134c-0.017-0.061-0.046-0.117-0.085-0.168c0.114-0.498,0.173-0.999,0.192-1.499
		c0.056-0.04,0.112-0.083,0.149-0.146c0.141-0.238,0.061-0.544-0.177-0.685c-0.658-0.387-1.409-0.688-2.194-0.944
		c-0.006-0.002-0.012-0.004-0.018-0.006C15.15,10.865,13.61,10.6,12,10.6c-1.61,0-3.149,0.265-4.541,0.719
		c-0.01,0.003-0.02,0.006-0.03,0.01c-0.78,0.256-1.527,0.555-2.182,0.941c-0.18,0.106-0.268,0.307-0.241,0.502
		C5.005,12.781,5,12.79,5,12.8c0,0.624,0.076,1.254,0.226,1.88C4.841,14.997,4.6,15.451,4.6,15.9c0,0.725,0.484,1.338,1.146,1.534
		C6.229,20.486,9.707,22.9,11.9,22.9c2.362,0,5.593-2.528,6.141-5.462C18.71,17.246,19.2,16.63,19.2,15.9z M17.124,14.394
		l-0.161-1.885c0.293,0.118,0.559,0.262,0.829,0.402c-0.008,0.46-0.072,0.924-0.173,1.386
		C17.443,14.306,17.275,14.338,17.124,14.394z M6.182,14.3c-0.094-0.433-0.154-0.865-0.167-1.295
		c0.327-0.178,0.662-0.35,1.023-0.495l-0.162,1.885C6.669,14.317,6.434,14.282,6.182,14.3z M17.6,16.5
		c-0.256,0-0.471,0.193-0.497,0.448C16.819,19.681,13.752,21.9,11.9,21.9c-1.832,0-5.02-2.307-5.201-4.935
		C6.681,16.703,6.463,16.5,6.2,16.5c-0.325,0-0.6-0.274-0.6-0.6c0-0.191,0.176-0.421,0.411-0.544
		c0.493-0.211,0.83,0.168,0.889,0.244c0.096,0.128,0.245,0.2,0.4,0.2c0.046,0,0.092-0.006,0.138-0.02
		c0.199-0.057,0.343-0.231,0.36-0.438l0.272-3.172C9.283,11.811,10.61,11.6,12,11.6c1.39,0,2.717,0.211,3.93,0.571l0.272,3.171
		c0.018,0.206,0.161,0.381,0.36,0.438c0.046,0.014,0.092,0.02,0.138,0.02c0.154,0,0.304-0.072,0.4-0.2
		c0.012-0.016,0.243-0.308,0.606-0.304c0.023,0.017,0.043,0.039,0.07,0.052c0.372,0.187,0.424,0.376,0.424,0.553
		C18.2,16.225,17.925,16.5,17.6,16.5z"/>
	<path d="M12,9.8c0.081,0,0.162-0.02,0.235-0.059C13.95,8.826,14,7.723,14,7.6V5.5C14,5.223,13.776,5,13.5,5h-3
		C10.224,5,10,5.223,10,5.5v2.1c0,0.054,0.021,1.328,1.789,2.153C11.855,9.784,11.928,9.8,12,9.8z M11,7.6V6h2v1.582
		c0,0.006-0.055,0.568-1.014,1.151C11.046,8.214,11.001,7.615,11,7.6z"/>
	<path d="M20.178,10.969C20.05,9.587,19.235,4.102,14.3,2.711V2.1c0-0.627-0.473-1.1-1.1-1.1h-2.4c-0.576,0-1.1,0.524-1.1,1.1v0.604
		c-5.019,1.309-5.847,6.853-5.977,8.258C2.805,11.385,0.1,12.849,0.1,15.4c0,3.897,4.044,5.477,6.434,5.796
		c0.278,0.036,0.524-0.156,0.562-0.43c0.037-0.274-0.156-0.525-0.43-0.562C6.439,20.174,1.1,19.416,1.1,15.4
		c0-2.322,3.249-3.622,3.282-3.634c0.187-0.073,0.312-0.251,0.318-0.452c0.001-0.066,0.25-6.618,5.601-7.725
		C10.534,3.541,10.7,3.337,10.7,3.1l0-0.996C10.706,2.069,10.769,2.006,10.8,2h2.4c0.1,0,0.1,0.053,0.1,0.1v1
		c0,0.233,0.161,0.436,0.389,0.487c5.249,1.198,5.504,7.462,5.512,7.728c0.006,0.196,0.127,0.371,0.308,0.446
		C19.54,11.775,22.8,13.167,22.8,15.4c0,3.421-3.915,4.572-5.598,4.909c-0.271,0.054-0.446,0.317-0.393,0.588
		c0.048,0.238,0.256,0.402,0.489,0.402c0.033,0,0.065-0.003,0.099-0.01c1.502-0.3,6.402-1.612,6.402-5.89
		C23.8,12.931,21.084,11.408,20.178,10.969z"/>
	<path d="M12.7,18h-1.5c-0.276,0-0.5,0.224-0.5,0.5s0.224,0.5,0.5,0.5h1.5c0.276,0,0.5-0.224,0.5-0.5S12.977,18,12.7,18z"/>
	<path d="M10.1,15H10c-0.276,0-0.5,0.224-0.5,0.5S9.724,16,10,16h0.1c0.276,0,0.5-0.224,0.5-0.5S10.376,15,10.1,15z"/>
	<path d="M14,15h-0.1c-0.276,0-0.45,0.224-0.45,0.5S13.724,16,14,16s0.5-0.224,0.5-0.5S14.276,15,14,15z"/>
</g>
</svg>
