<?xml version="1.0" encoding="utf-8"?>
<!-- Generator: Adobe Illustrator 19.2.0, SVG Export Plug-In . SVG Version: 6.00 Build 0)  -->
<svg version="1.1" id="Layer_1" xmlns="http://www.w3.org/2000/svg" xmlns:xlink="http://www.w3.org/1999/xlink" x="0px" y="0px"
	 width="24px" height="24px" viewBox="0 0 24 24" style="enable-background:new 0 0 24 24;" xml:space="preserve">
<g>
	<path d="M3.696,9.918C3.659,9.553,3.375,9.259,3,9.151V7.4c0-0.276-0.224-0.5-0.5-0.5S2,7.124,2,7.4v1.735
		C1.548,9.22,1.201,9.556,1.208,9.91L1,11.1C1,11.596,1.449,12,2,12h1c0.551,0,1-0.404,1-0.9c0-0.044-0.006-0.088-0.018-0.131
		L3.696,9.918z M2.026,10.993L2.2,10c0,0.063-0.029,0.1,0,0.1h0l0.512,0.006c0.001,0.008,0.003,0.017,0.006,0.025l0.237,0.868
		L2.026,10.993z"/>
	<path d="M23.31,4.012l-11.1-2.5c-0.072-0.017-0.147-0.017-0.22,0l-11.1,2.5c-0.017,0.004-0.031,0.014-0.047,0.02
		C0.819,4.039,0.797,4.048,0.776,4.059C0.742,4.076,0.712,4.097,0.683,4.121c-0.017,0.015-0.035,0.028-0.05,0.044
		c-0.028,0.031-0.05,0.066-0.069,0.103c-0.009,0.016-0.02,0.03-0.027,0.047C0.515,4.37,0.501,4.429,0.5,4.491
		c0,0.002,0.001,0.003,0.001,0.005C0.501,4.497,0.5,4.498,0.5,4.5c0,0.009,0.005,0.017,0.005,0.026
		c0.003,0.053,0.012,0.104,0.031,0.151c0.008,0.02,0.019,0.037,0.029,0.056C0.584,4.767,0.604,4.799,0.63,4.828
		c0.016,0.018,0.032,0.032,0.05,0.047C0.708,4.9,0.737,4.92,0.771,4.937c0.022,0.011,0.042,0.021,0.066,0.03
		C0.849,4.971,0.86,4.98,0.874,4.984l4.699,1.228l-0.449,7.093c-0.037,0.012-0.072,0.016-0.109,0.031
		c-0.112,0.044-0.193,0.129-0.247,0.227C4.354,13.89,4.1,14.371,4.1,14.9c0,0.814,0.516,1.461,1.256,1.646
		C5.912,19.718,9.447,22.6,12,22.6c2.668,0,6.193-2.805,6.657-6.058C19.391,16.353,19.9,15.71,19.9,14.9
		c0-0.529-0.254-1.01-0.668-1.337c-0.054-0.098-0.135-0.183-0.247-0.227c-0.142-0.057-0.281-0.092-0.416-0.113l-0.21-3.228
		c0.05-0.119,0.055-0.257,0.002-0.385c-0.007-0.018-0.021-0.029-0.03-0.045l-0.209-3.221l5.203-1.36
		c0.224-0.059,0.378-0.262,0.374-0.492C23.696,4.26,23.535,4.063,23.31,4.012z M17.576,13.346c-0.16,0.066-0.301,0.151-0.427,0.24
		C16.813,12.664,15.937,12,14.9,12c-0.881,0-1.645,0.483-2.062,1.192C12.592,13.012,12.3,12.9,12,12.9
		c-0.316,0-0.609,0.1-0.851,0.268C10.728,12.471,9.971,12,9.1,12c-1.036,0-1.913,0.664-2.248,1.586
		c-0.201-0.142-0.443-0.269-0.722-0.336l0.181-2.853C7.959,11.058,9.85,11.4,12.1,11.4c2.304,0,3.849-0.338,5.293-0.867
		L17.576,13.346z M16.3,14.4c0,0.771-0.628,1.399-1.399,1.399c-0.772,0-1.4-0.628-1.4-1.399c0-0.772,0.628-1.4,1.4-1.4
		C15.672,13,16.3,13.628,16.3,14.4z M10.5,14.4c0,0.771-0.628,1.399-1.4,1.399S7.7,15.172,7.7,14.4c0-0.772,0.628-1.4,1.4-1.4
		S10.5,13.628,10.5,14.4z M18.2,15.6c-0.265,0-0.483,0.206-0.499,0.47C17.516,19.123,14.119,21.6,12,21.6
		c-1.999,0-5.42-2.538-5.702-5.547C6.273,15.797,6.058,15.6,5.8,15.6c-0.425,0-0.7-0.274-0.7-0.7c0-0.276,0.158-0.521,0.423-0.653
		c0.015-0.007,0.024-0.021,0.037-0.029c0.528-0.097,0.901,0.335,0.947,0.391c0.061,0.077,0.142,0.123,0.229,0.154
		C6.913,15.913,7.901,16.8,9.1,16.8c1.323,0,2.4-1.076,2.4-2.399c0-0.309,0.26-0.5,0.5-0.5c0.224,0,0.5,0.275,0.5,0.5
		c0,1.323,1.077,2.399,2.4,2.399c1.2,0,2.187-0.887,2.363-2.038c0.086-0.03,0.167-0.075,0.228-0.151
		c0.046-0.056,0.419-0.488,0.95-0.391c0.013,0.008,0.022,0.021,0.036,0.028C18.742,14.38,18.9,14.624,18.9,14.9
		C18.9,15.326,18.626,15.6,18.2,15.6z M17.325,9.489C15.897,10.04,14.406,10.4,12.1,10.4c-2.26,0-4.129-0.352-5.724-1.049
		l0.182-2.882l5.415,1.415C12.015,7.895,12.058,7.9,12.1,7.9s0.085-0.005,0.126-0.016l4.911-1.283L17.325,9.489z M12.1,6.884
		L6.366,5.385C6.296,5.341,6.22,5.307,6.132,5.301C6.112,5.3,6.095,5.308,6.076,5.309L4.891,5H11.6c0.276,0,0.5-0.224,0.5-0.5
		S11.876,4,11.6,4H5.496L12.1,2.512l8.985,2.023L12.1,6.884z"/>
	<path d="M13.047,17.946c-0.349,0.349-0.682,0.505-1.079,0.521c-0.61-0.008-1.09-0.495-1.104-0.51
		c-0.188-0.2-0.503-0.21-0.705-0.022c-0.202,0.188-0.212,0.505-0.024,0.706c0.031,0.033,0.765,0.808,1.81,0.825
		c0.013,0.001,0.026,0.001,0.039,0.001c0.636,0,1.231-0.273,1.771-0.813c0.195-0.195,0.195-0.512,0-0.707
		S13.242,17.751,13.047,17.946z"/>
	<path d="M8.6,14.6c0,0.276,0.224,0.5,0.5,0.5h0.1c0.276,0,0.5-0.224,0.5-0.5s-0.224-0.5-0.5-0.5H9.1
		C8.824,14.1,8.6,14.324,8.6,14.6z"/>
	<path d="M14.8,14.1c-0.276,0-0.5,0.224-0.5,0.5s0.224,0.5,0.5,0.5H14.9c0.276,0,0.5-0.224,0.5-0.5s-0.224-0.5-0.5-0.5H14.8z"/>
</g>
</svg>
