<?xml version="1.0" encoding="utf-8"?>
<!-- Generator: Adobe Illustrator 19.2.0, SVG Export Plug-In . SVG Version: 6.00 Build 0)  -->
<svg version="1.1" id="Layer_1" xmlns="http://www.w3.org/2000/svg" xmlns:xlink="http://www.w3.org/1999/xlink" x="0px" y="0px"
	 width="24px" height="24px" viewBox="0 0 24 24" style="enable-background:new 0 0 24 24;" xml:space="preserve">
<g>
	<path d="M14.063,15.01c-0.437-0.306-0.583-0.493-0.631-0.572V13.7c0.635-0.716,1.131-1.65,1.444-2.72
		c0.393-0.339,0.655-0.822,0.729-1.349c0.075-0.544-0.049-1.082-0.352-1.534V5.946c0-2.875-1.739-4.524-4.772-4.524
		c-2.989,0-4.773,1.691-4.773,4.524v2.152c-0.302,0.451-0.426,0.987-0.351,1.53c0.073,0.528,0.335,1.011,0.729,1.351
		c0.314,1.07,0.81,2.004,1.445,2.722v0.743c-0.155,0.292-1.121,1.231-6.781,3.47c-0.468,0.188-0.771,0.64-0.771,1.153v1.089
		c0,0.276,0.224,0.5,0.5,0.5s0.5-0.224,0.5-0.5v-1.089c0-0.101,0.057-0.19,0.14-0.224c6.135-2.426,7.178-3.464,7.39-4.159
		c0.014-0.047,0.021-0.096,0.021-0.146v-1.033c0-0.129-0.05-0.252-0.139-0.345c-0.619-0.648-1.099-1.549-1.386-2.604
		c-0.03-0.111-0.097-0.208-0.19-0.274C6.564,10.1,6.394,9.812,6.349,9.49C6.303,9.16,6.393,8.834,6.601,8.572
		c0.07-0.088,0.108-0.198,0.108-0.311V5.946c0-2.272,1.34-3.524,3.773-3.524c2.468,0,3.772,1.219,3.772,3.524V8.26
		c0,0.113,0.038,0.222,0.108,0.311c0.209,0.264,0.299,0.591,0.253,0.922c-0.045,0.32-0.216,0.608-0.469,0.79
		c-0.093,0.067-0.16,0.164-0.19,0.275c-0.287,1.054-0.767,1.955-1.386,2.603c-0.089,0.093-0.138,0.216-0.138,0.345v1.033
		c0,0.049,0.007,0.098,0.021,0.145c0.11,0.364,0.439,0.728,1.035,1.145c0.228,0.159,0.539,0.104,0.696-0.122
		C14.345,15.479,14.289,15.168,14.063,15.01z"/>
	<path d="M19.05,14.214c-2.64,0-4.787,2.147-4.787,4.787c0,2.641,2.147,4.788,4.787,4.788c2.641,0,4.788-2.147,4.788-4.788
		C23.838,16.361,21.69,14.214,19.05,14.214z M19.05,22.789c-2.088,0-3.787-1.699-3.787-3.788c0-2.088,1.699-3.787,3.787-3.787
		c2.089,0,3.788,1.699,3.788,3.787C22.838,21.09,21.139,22.789,19.05,22.789z"/>
	<path d="M20.699,17.452l-2.386,2.551l-0.912-0.976c-0.189-0.199-0.504-0.211-0.707-0.023c-0.201,0.188-0.212,0.505-0.023,0.707
		l1.277,1.366c0.004,0.004,0.009,0.005,0.013,0.009c0.004,0.004,0.006,0.01,0.01,0.014c0.03,0.027,0.065,0.043,0.099,0.062
		c0.019,0.011,0.035,0.027,0.056,0.035c0.06,0.025,0.124,0.038,0.188,0.038c0.063,0,0.127-0.013,0.187-0.038
		c0.022-0.009,0.039-0.026,0.06-0.037c0.032-0.019,0.067-0.033,0.095-0.06c0.004-0.004,0.006-0.01,0.01-0.014
		c0.004-0.004,0.01-0.005,0.013-0.009l2.751-2.941c0.188-0.202,0.178-0.519-0.023-0.707C21.204,17.24,20.888,17.251,20.699,17.452z"
		/>
</g>
</svg>
