<?xml version="1.0" encoding="utf-8"?>
<!-- Generator: Adobe Illustrator 19.2.0, SVG Export Plug-In . SVG Version: 6.00 Build 0)  -->
<svg version="1.1" id="Layer_1" xmlns="http://www.w3.org/2000/svg" xmlns:xlink="http://www.w3.org/1999/xlink" x="0px" y="0px"
	 width="24px" height="24px" viewBox="0 0 24 24" style="enable-background:new 0 0 24 24;" xml:space="preserve">
<g>
	<path d="M20.4,7.6c0.772-1.03,1.717-2.462,0.999-3c-0.091-0.068-0.196-0.098-0.314-0.1c-0.02-0.001-3.146,0.054-5.756-2.276
		c-2.239-1.959-2.973-2.126-3.229-2.127C11.822,0.1,11.11,0.264,8.88,2.216C6.065,4.561,2.93,4.6,2.899,4.6
		c-0.098,0-0.195,0.03-0.277,0.084C2.508,4.76,2.409,4.928,2.386,5.064c-0.054,0.315,0.06,0.864,1.306,2.524
		C4.427,8.63,4.8,9.576,4.8,10.5c0,0.156,0.038,0.316,0.094,0.477C4.705,11.597,4.6,12.305,4.6,13.1
		c0,0.777,0.091,1.414,0.292,2.009C4.519,15.435,4.3,15.9,4.3,16.4c0,0.811,0.511,1.455,1.246,1.644
		C6.033,21.257,9.688,23.8,12,23.8c2.575,0,5.985-2.664,6.454-5.756c0.734-0.188,1.246-0.833,1.246-1.644
		c0-0.513-0.23-0.988-0.62-1.314c0.17-0.613,0.32-1.255,0.32-1.986c0-0.763-0.112-1.499-0.321-2.135
		c0.074-0.19,0.12-0.38,0.12-0.565C19.2,10.217,19.259,9.217,20.4,7.6z M4.5,7C3.966,6.288,3.686,5.834,3.538,5.557
		C4.684,5.43,7.181,4.933,9.529,2.976c1.779-1.557,2.433-1.829,2.571-1.872c0.138,0.043,0.792,0.315,2.567,1.869
		c2.251,2.009,4.784,2.425,5.888,2.508c-0.116,0.272-0.377,0.75-0.963,1.531c-0.758,1.073-1.104,1.925-1.262,2.551
		C12.635,7.77,7.394,9.032,5.701,9.544C5.53,8.747,5.133,7.897,4.5,7z M12,13.2c-3.347,0-5.93-1.626-6.176-2.646
		c1.385-0.428,6.732-1.816,12.363,0.011C18.055,11.383,15.427,13.2,12,13.2z M6.875,12.933L6.69,14.844
		c-0.25-0.11-0.546-0.163-0.871-0.128C5.671,14.244,5.6,13.73,5.6,13.1c0-0.364,0.023-0.706,0.068-1.025
		C5.993,12.378,6.402,12.668,6.875,12.933z M18,17.1c-0.264,0-0.482,0.205-0.499,0.468C17.317,20.405,13.992,22.8,12,22.8
		c-1.945,0-5.321-2.445-5.501-5.231C6.482,17.305,6.264,17.1,6,17.1c-0.425,0-0.7-0.274-0.7-0.7c0-0.27,0.154-0.508,0.408-0.643
		c0.566-0.209,0.915,0.232,0.976,0.32C6.778,16.219,6.936,16.3,7.1,16.3c0.041,0,0.081-0.005,0.122-0.015
		c0.205-0.052,0.356-0.227,0.376-0.438l0.238-2.456C9.024,13.879,10.466,14.2,12,14.2c1.559,0,3.043-0.35,4.258-0.877l0.244,2.525
		c0.021,0.211,0.171,0.386,0.376,0.438C16.919,16.295,16.96,16.3,17,16.3c0.164,0,0.322-0.081,0.416-0.223
		c0.014-0.02,0.314-0.448,0.82-0.36c0.014,0.009,0.025,0.022,0.04,0.03C18.542,15.88,18.7,16.124,18.7,16.4
		C18.7,16.826,18.426,17.1,18,17.1z M18.4,13.1c0,0.567-0.112,1.084-0.254,1.606c-0.272-0.008-0.521,0.043-0.737,0.138l-0.194-2.007
		c0.421-0.249,0.792-0.517,1.092-0.799C18.365,12.377,18.4,12.731,18.4,13.1z"/>
	<path d="M11.751,7.977C11.799,7.992,11.85,8,11.9,8S12,7.992,12.049,7.977C12.724,7.766,14,6.956,14,5.4V4.3
		c0-0.154-0.071-0.299-0.192-0.394s-0.278-0.131-0.429-0.091c-0.14,0.029-0.514-0.097-0.837-0.466
		c-0.195-0.397-0.923-0.38-1.097,0.028c-0.306,0.406-0.806,0.526-0.922,0.475c-0.154-0.077-0.339-0.07-0.486,0.022
		C9.89,3.966,9.8,4.127,9.8,4.3v1.1C9.8,6.956,11.076,7.766,11.751,7.977z M10.8,4.844c0.42-0.057,0.868-0.277,1.214-0.609
		C12.317,4.51,12.665,4.698,13,4.778V5.4c0,0.961-0.767,1.413-1.1,1.562c-0.331-0.15-1.1-0.602-1.1-1.562V4.844z"/>
	<path d="M12.7,19h-1.4c-0.276,0-0.5,0.224-0.5,0.5s0.224,0.5,0.5,0.5h1.4c0.276,0,0.5-0.224,0.5-0.5S12.977,19,12.7,19z"/>
	<path d="M14.1,16H14c-0.276,0-0.45,0.224-0.45,0.5S13.823,17,14.1,17s0.5-0.224,0.5-0.5S14.376,16,14.1,16z"/>
	<path d="M10,16H9.9c-0.276,0-0.5,0.224-0.5,0.5S9.624,17,9.9,17H10c0.276,0,0.5-0.224,0.5-0.5S10.276,16,10,16z"/>
</g>
</svg>
