<?xml version="1.0" encoding="utf-8"?>
<!-- Generator: Adobe Illustrator 19.2.0, SVG Export Plug-In . SVG Version: 6.00 Build 0)  -->
<svg version="1.1" id="Layer_1" xmlns="http://www.w3.org/2000/svg" xmlns:xlink="http://www.w3.org/1999/xlink" x="0px" y="0px"
	 width="24px" height="24px" viewBox="0 0 24 24" style="enable-background:new 0 0 24 24;" xml:space="preserve">
<g>
	<path d="M15.89,9.302c-0.112-0.089-0.259-0.126-0.398-0.102c-0.141,0.024-0.265,0.108-0.34,0.23
		c-1.419,2.303-3.728,3.678-6.177,3.678c-0.937,0-1.863-0.202-2.751-0.6c-0.127-0.057-0.274-0.058-0.403-0.003
		c-0.129,0.056-0.229,0.163-0.274,0.295c-0.312,0.901-0.47,1.842-0.47,2.796c0,4.379,3.203,8.22,6.854,8.22s6.854-3.841,6.854-8.22
		C18.784,13.103,17.702,10.75,15.89,9.302z M11.93,22.816c-3.119,0-5.854-3.374-5.854-7.22c0-0.665,0.087-1.324,0.26-1.963
		c0.857,0.315,1.743,0.475,2.639,0.475c2.618,0,5.085-1.358,6.706-3.662c1.326,1.273,2.104,3.157,2.104,5.15
		C17.784,19.442,15.049,22.816,11.93,22.816z"/>
	<path d="M17.459,5.107c0.486-1.489,0.487-1.658,0.487-1.724c0-1.75-2.643-3.121-6.016-3.121S5.914,1.633,5.914,3.383
		c0,0.067,0.001,0.24,0.503,1.772C-0.225,9.26,2.423,19.371,2.541,19.806c0.043,0.158,0.161,0.286,0.316,0.341l2.667,0.941
		c0.055,0.02,0.111,0.028,0.167,0.028c0.206,0,0.399-0.128,0.472-0.334c0.092-0.26-0.045-0.546-0.305-0.638l-2.412-0.852
		C3.093,17.76,1.531,9.624,6.749,6.149c0.095,0.279,0.197,0.58,0.314,0.92c0.561,1.353,2.622,1.465,4.866,1.465
		c2.596,0,4.337-0.103,4.877-1.494c0.121-0.35,0.226-0.659,0.322-0.944c5.394,3.412,3.765,11.658,3.402,13.197l-2.413,0.852
		c-0.261,0.092-0.397,0.378-0.306,0.638c0.072,0.206,0.266,0.334,0.472,0.334c0.056,0,0.111-0.009,0.166-0.028l2.667-0.941
		c0.154-0.055,0.271-0.181,0.315-0.338C21.463,19.702,24.3,9.155,17.459,5.107z M11.93,7.534c-1.865,0-3.633-0.103-3.932-0.82
		c-0.505-1.466-1.05-3.128-1.084-3.332c0-1.003,2.06-2.121,5.016-2.121c2.932,0,4.982,1.1,5.016,2.096
		c-0.034,0.182-0.253,0.876-0.529,1.714c-0.005,0.008-0.012,0.012-0.016,0.02c-0.033,0.063-0.051,0.13-0.055,0.196
		c-0.152,0.456-0.315,0.942-0.476,1.408C15.566,7.473,13.977,7.534,11.93,7.534z"/>
	<path d="M13.501,4h-1V3c0-0.276-0.224-0.5-0.5-0.5S11.5,2.724,11.5,3v1h-1C10.224,4,10,4.224,10,4.5S10.224,5,10.5,5h1v1
		c0,0.276,0.224,0.5,0.5,0.5s0.5-0.224,0.5-0.5V5h1c0.276,0,0.5-0.224,0.5-0.5S13.777,4,13.501,4z"/>
	<path d="M13.026,18.837c-0.336,0.336-0.689,0.506-1.051,0.506c0,0,0,0-0.001,0c-0.629,0-1.134-0.498-1.139-0.503
		c-0.192-0.197-0.508-0.2-0.705-0.008c-0.198,0.193-0.202,0.51-0.009,0.707c0.032,0.033,0.789,0.798,1.84,0.804
		c0.004,0,0.009,0,0.014,0c0.636,0,1.228-0.269,1.758-0.799c0.195-0.195,0.195-0.512,0-0.707S13.222,18.641,13.026,18.837z"/>
	<path d="M11,15.495c0-0.276-0.224-0.5-0.5-0.5H9.512c-0.276,0-0.5,0.224-0.5,0.5s0.224,0.5,0.5,0.5H10.5
		C10.777,15.995,11,15.771,11,15.495z"/>
	<path d="M14.512,14.995h-0.989c-0.276,0-0.5,0.224-0.5,0.5s0.224,0.5,0.5,0.5h0.989c0.276,0,0.5-0.224,0.5-0.5
		S14.788,14.995,14.512,14.995z"/>
</g>
</svg>
