<?xml version="1.0" encoding="utf-8"?>
<!-- Generator: Adobe Illustrator 19.2.0, SVG Export Plug-In . SVG Version: 6.00 Build 0)  -->
<svg version="1.1" id="Layer_1" xmlns="http://www.w3.org/2000/svg" xmlns:xlink="http://www.w3.org/1999/xlink" x="0px" y="0px"
	 width="24px" height="24px" viewBox="0 0 24 24" style="enable-background:new 0 0 24 24;" xml:space="preserve">
<path d="M12,0.188c-6.524,0-11.832,5.308-11.832,11.831c0,6.524,5.308,11.832,11.832,11.832s11.832-5.308,11.832-11.832
	C23.831,5.496,18.523,0.188,12,0.188z M12,1.188c5.972,0,10.832,4.859,10.832,10.831c0,2.921-1.167,5.57-3.053,7.52
	c-1.012-0.301-2.002-0.504-2.88-0.673c-0.827-0.159-1.949-0.375-2.17-0.578v-0.703c2.707-0.108,3.85-1.014,3.899-1.055
	c0.128-0.104,0.196-0.265,0.183-0.43c-0.014-0.164-0.107-0.312-0.251-0.393c-0.61-0.347-1.179-2.939-1.354-5.103
	c0-2.621-1.99-5.449-5.206-5.449c-2.87,0-5.206,2.444-5.204,5.409c-0.176,2.203-0.744,4.795-1.355,5.143
	c-0.144,0.081-0.237,0.229-0.251,0.393c-0.014,0.165,0.054,0.325,0.183,0.43c0.05,0.041,1.193,0.945,3.9,1.055v0.694
	c-0.243,0.216-1.349,0.428-2.167,0.586c-0.879,0.168-1.87,0.372-2.883,0.673c-1.886-1.95-3.053-4.6-3.053-7.52
	C1.168,6.047,6.027,1.188,12,1.188z M5.08,20.344c0.769-0.2,1.527-0.365,2.213-0.497c1.637-0.314,2.718-0.522,2.956-1.286
	c0.015-0.048,0.022-0.098,0.022-0.148v-1.316c0-0.275-0.223-0.499-0.499-0.5c-1.676-0.005-2.731-0.333-3.286-0.578
	c0.941-1.426,1.248-4.652,1.307-5.412c0-2.453,1.887-4.449,4.206-4.449c2.598,0,4.206,2.309,4.208,4.488
	c0.058,0.727,0.363,3.947,1.305,5.373c-0.557,0.246-1.611,0.573-3.285,0.578c-0.276,0.001-0.499,0.225-0.499,0.5v1.316
	c0,0.051,0.008,0.101,0.022,0.148c0.238,0.765,1.32,0.973,2.959,1.287c0.684,0.132,1.441,0.296,2.209,0.496
	c-1.878,1.564-4.29,2.507-6.919,2.507C9.37,22.851,6.958,21.908,5.08,20.344z"/>
</svg>
