<?xml version="1.0" encoding="utf-8"?>
<!-- Generator: Adobe Illustrator 19.2.0, SVG Export Plug-In . SVG Version: 6.00 Build 0)  -->
<svg version="1.1" id="Layer_1" xmlns="http://www.w3.org/2000/svg" xmlns:xlink="http://www.w3.org/1999/xlink" x="0px" y="0px"
	 width="24px" height="24px" viewBox="0 0 24 24" style="enable-background:new 0 0 24 24;" xml:space="preserve">
<g>
	<path d="M6.078,9.14c0.115,0.511,0.46,0.894,0.911,1.045c0.36,2.512,2.364,5.057,5.002,5.057s4.642-2.545,5.001-5.057
		c0.451-0.151,0.797-0.534,0.911-1.044c0.121-0.537-0.04-1.056-0.408-1.398c0.132-0.514,0.199-1.043,0.199-1.579
		c0-3.319-2.559-6.02-5.704-6.02s-5.704,2.7-5.704,6.02c0,0.534,0.067,1.063,0.199,1.578C6.118,8.084,5.957,8.603,6.078,9.14z
		 M7.28,8.4c0.227-0.107,0.339-0.366,0.262-0.605C7.373,7.268,7.287,6.719,7.287,6.164c0-2.768,2.11-5.02,4.704-5.02
		c2.593,0,4.704,2.252,4.704,5.02c0,0.557-0.086,1.105-0.255,1.63c-0.077,0.239,0.035,0.498,0.262,0.605
		c0.296,0.14,0.24,0.459,0.227,0.521C16.91,9,16.831,9.256,16.537,9.256h-0.001c-0.262,0-0.479,0.202-0.499,0.463
		c-0.158,2.14-1.859,4.523-4.046,4.523c-2.188,0-3.889-2.384-4.047-4.523c-0.02-0.262-0.246-0.462-0.507-0.462
		c-0.004,0-0.009,0-0.013,0c-0.274-0.003-0.353-0.257-0.37-0.335C7.039,8.859,6.984,8.54,7.28,8.4z"/>
	<path d="M23.729,20.62c-1.419-1.377-7.988-4.729-8.806-4.297c-1.616,0.866-4.248,0.865-5.872-0.003
		c-0.876-0.473-7.551,3.086-8.801,4.3c-0.191,0.185-0.3,0.442-0.3,0.708v1.733c0,0.543,0.442,0.984,0.985,0.984h22.11
		c0.543,0,0.984-0.441,0.984-0.984v-1.733C24.03,21.061,23.921,20.803,23.729,20.62z M0.951,23.061l-0.004-1.723
		c1.861-1.807,6.788-3.716,7.817-4.044c1.853,0.902,4.597,0.901,6.452,0.002c1.026,0.333,6.006,2.285,7.814,4.038l0.016,1.711
		L0.951,23.061z"/>
</g>
</svg>
