<?xml version="1.0" encoding="utf-8"?>
<!-- Generator: Adobe Illustrator 19.2.0, SVG Export Plug-In . SVG Version: 6.00 Build 0)  -->
<svg version="1.1" id="Layer_1" xmlns="http://www.w3.org/2000/svg" xmlns:xlink="http://www.w3.org/1999/xlink" x="0px" y="0px"
	 width="24px" height="24px" viewBox="0 0 24 24" style="enable-background:new 0 0 24 24;" xml:space="preserve">
<g>
	<path d="M20.258,12.175c0.581-0.194,1.942-0.647,1.942-2.075c0-1.038-0.717-1.878-1.693-2.062c-0.73-2.92-2.87-5.197-5.674-6.049
		C14.439,0.849,13.353,0,12.1,0h-0.2c-1.253,0-2.338,0.848-2.732,1.987C6.307,2.828,4.128,5.106,3.393,8.037
		C2.417,8.222,1.7,9.062,1.7,10.1c0,1.428,1.36,1.881,1.932,2.071c0.026,0.009,0.051,0.016,0.077,0.025
		c0.019,0.705,0.105,1.292,0.287,1.881C3.567,14.41,3.3,14.937,3.3,15.5c0,0.821,0.584,1.535,1.351,1.74
		c0.579,3.655,4.695,6.56,7.25,6.56c2.847,0,6.693-3.043,7.25-6.56c0.767-0.205,1.351-0.919,1.351-1.74
		c0-0.562-0.267-1.09-0.695-1.423c0.179-0.578,0.264-1.155,0.286-1.842C20.175,12.205,20.237,12.182,20.258,12.175z M10,2.9
		C10,1.87,10.87,1,11.9,1h0.2C13.13,1,14,1.87,14,2.9v2.2C14,6.13,13.13,7,12.1,7h-0.2C10.87,7,10,6.13,10,5.1V2.9z M2.7,10.1
		C2.7,9.473,3.173,9,3.8,9c0.237,0,0.441-0.167,0.49-0.398C4.823,6.021,6.606,3.976,9,3.099V5.1C9,6.672,10.328,8,11.9,8h0.2
		C13.672,8,15,6.672,15,5.1V3.106c2.336,0.887,4.08,2.929,4.61,5.495C19.658,8.833,19.862,9,20.1,9c0.627,0,1.101,0.473,1.101,1.1
		c0,0.436-0.211,0.777-1.277,1.132c-0.078,0.029-7.837,2.896-15.965-0.007C2.911,10.877,2.7,10.536,2.7,10.1z M6.17,12.909
		l-0.084,0.927c-0.323-0.151-0.716-0.228-1.155-0.135c-0.11-0.374-0.179-0.746-0.209-1.172C5.208,12.675,5.69,12.798,6.17,12.909z
		 M18.7,16.3c-0.26,0-0.476,0.198-0.498,0.457C17.916,20.093,14.185,22.8,11.9,22.8c-2.231,0-6.021-2.766-6.302-6.043
		C5.576,16.498,5.36,16.3,5.1,16.3c-0.426,0-0.8-0.374-0.8-0.8c0-0.298,0.178-0.576,0.435-0.706c0.058-0.004,0.116-0.014,0.172-0.04
		c0.673-0.308,1.105,0.226,1.183,0.332C6.186,15.222,6.339,15.3,6.5,15.3c0.043,0,0.086-0.006,0.128-0.017
		c0.203-0.054,0.351-0.229,0.37-0.438l0.157-1.728c1.626,0.305,3.19,0.428,4.634,0.428c1.944,0,3.668-0.214,5.049-0.473l0.163,1.873
		c0.019,0.21,0.165,0.386,0.368,0.44c0.043,0.011,0.087,0.017,0.13,0.017c0.16,0,0.314-0.077,0.409-0.213
		c0.02-0.026,0.47-0.656,1.184-0.332c0.038,0.017,0.078,0.02,0.118,0.027C19.387,15.031,19.5,15.26,19.5,15.5
		C19.5,15.926,19.126,16.3,18.7,16.3z M18.845,13.778c-0.346-0.029-0.662,0.032-0.927,0.156l-0.093-1.066
		c0.483-0.109,0.902-0.218,1.251-0.317C19.043,12.996,18.966,13.385,18.845,13.778z"/>
	<path d="M13,19h-2c-0.276,0-0.5,0.224-0.5,0.5S10.724,20,11,20h2c0.276,0,0.5-0.224,0.5-0.5S13.276,19,13,19z"/>
	<path d="M10.1,15H10c-0.276,0-0.5,0.224-0.5,0.5S9.724,16,10,16h0.1c0.276,0,0.5-0.224,0.5-0.5S10.376,15,10.1,15z"/>
	<path d="M14,15h-0.1c-0.276,0-0.45,0.224-0.45,0.5S13.724,16,14,16s0.5-0.224,0.5-0.5S14.276,15,14,15z"/>
</g>
</svg>
