<?xml version="1.0" encoding="utf-8"?>
<!-- Generator: Adobe Illustrator 19.2.0, SVG Export Plug-In . SVG Version: 6.00 Build 0)  -->
<svg version="1.1" id="Layer_1" xmlns="http://www.w3.org/2000/svg" xmlns:xlink="http://www.w3.org/1999/xlink" x="0px" y="0px"
	 width="24px" height="24px" viewBox="0 0 24 24" style="enable-background:new 0 0 24 24;" xml:space="preserve">
<g>
	<path d="M18.489,13.002c-3.029,0-5.493,2.464-5.493,5.493s2.464,5.494,5.493,5.494s5.493-2.465,5.493-5.494
		S21.519,13.002,18.489,13.002z M18.489,22.989c-2.478,0-4.493-2.016-4.493-4.494c0-2.478,2.016-4.493,4.493-4.493
		s4.493,2.016,4.493,4.493C22.982,20.973,20.967,22.989,18.489,22.989z"/>
	<path d="M21.299,18.048h-2.25v-2.25c0-0.276-0.224-0.5-0.5-0.5s-0.5,0.224-0.5,0.5v2.25h-2.251c-0.276,0-0.5,0.224-0.5,0.5
		s0.224,0.5,0.5,0.5h2.251v2.251c0,0.276,0.224,0.5,0.5,0.5s0.5-0.224,0.5-0.5v-2.251h2.25c0.276,0,0.5-0.224,0.5-0.5
		S21.575,18.048,21.299,18.048z"/>
	<path d="M13.393,8.517c-0.273,0.97-0.727,1.797-1.312,2.392c-0.092,0.093-0.144,0.219-0.144,0.351v0.956
		c0,0.051,0.008,0.102,0.023,0.15c0.192,0.611,0.413,0.745,1.424,1.275c0.242,0.129,0.547,0.035,0.675-0.21
		c0.129-0.244,0.034-0.546-0.21-0.675c-0.765-0.402-0.851-0.45-0.912-0.62v-0.678c0.6-0.662,1.071-1.523,1.372-2.509
		c0.38-0.322,0.633-0.778,0.702-1.277c0.07-0.508-0.048-1.009-0.336-1.432V4.264c0-2.684-1.667-4.224-4.574-4.224
		c-2.865,0-4.576,1.579-4.576,4.224V6.24C5.238,6.662,5.12,7.163,5.189,7.67c0.069,0.5,0.322,0.956,0.702,1.278
		c0.3,0.986,0.771,1.847,1.373,2.51v0.657c-0.156,0.271-1.095,1.132-6.447,3.188c-0.452,0.174-0.755,0.617-0.755,1.103v2.393
		c0,0.651,0.527,1.181,1.175,1.181h10.258c0.276,0,0.5-0.224,0.5-0.5s-0.224-0.5-0.5-0.5H1.237c-0.097,0-0.175-0.081-0.175-0.181
		v-2.393c0-0.075,0.046-0.143,0.114-0.169c5.862-2.252,6.861-3.22,7.065-3.871c0.015-0.048,0.023-0.099,0.023-0.149v-0.957
		c0-0.131-0.052-0.257-0.144-0.351C7.534,10.313,7.08,9.486,6.807,8.517c-0.031-0.111-0.1-0.208-0.195-0.274
		C6.377,8.078,6.22,7.82,6.18,7.532c-0.04-0.291,0.042-0.578,0.232-0.81c0.073-0.089,0.113-0.201,0.113-0.316V4.264
		c0-2.079,1.27-3.224,3.576-3.224c2.372,0,3.574,1.084,3.574,3.224v2.141c0,0.115,0.04,0.227,0.113,0.316
		c0.19,0.233,0.272,0.521,0.232,0.812c-0.04,0.287-0.197,0.545-0.433,0.709C13.493,8.309,13.424,8.406,13.393,8.517z"/>
</g>
</svg>
