<?xml version="1.0" encoding="utf-8"?>
<!-- Generator: Adobe Illustrator 19.2.0, SVG Export Plug-In . SVG Version: 6.00 Build 0)  -->
<svg version="1.1" id="Layer_1" xmlns="http://www.w3.org/2000/svg" xmlns:xlink="http://www.w3.org/1999/xlink" x="0px" y="0px"
	 width="24px" height="24px" viewBox="0 0 24 24" style="enable-background:new 0 0 24 24;" xml:space="preserve">
<g>
	<path d="M10.425,12.613v0.102c-0.147,0.136-0.708,0.524-2.797,1.332c-0.31,0.121-0.519,0.427-0.519,0.761v0.622
		c0,0.276,0.224,0.5,0.5,0.5s0.5-0.224,0.5-0.5v-0.497c2.829-1.103,3.179-1.553,3.293-1.919c0.015-0.048,0.022-0.098,0.022-0.148
		v-0.443c0-0.131-0.051-0.256-0.143-0.35c-0.238-0.243-0.424-0.587-0.538-0.994c-0.031-0.111-0.099-0.208-0.193-0.274
		c-0.047-0.033-0.079-0.087-0.087-0.147c-0.006-0.042-0.002-0.107,0.049-0.17c0.073-0.089,0.112-0.201,0.112-0.315V9.177
		c0-0.814,0.463-1.227,1.376-1.227c0.938,0,1.375,0.39,1.375,1.227v0.993c0,0.115,0.04,0.227,0.112,0.316
		c0.052,0.063,0.056,0.128,0.05,0.171c-0.009,0.06-0.04,0.113-0.087,0.146c-0.095,0.066-0.163,0.163-0.194,0.274
		c-0.114,0.407-0.3,0.751-0.538,0.994c-0.091,0.094-0.143,0.219-0.143,0.35v0.443c0,0.05,0.008,0.101,0.022,0.148
		c0.114,0.367,0.465,0.817,3.293,1.919v0.497c0,0.276,0.224,0.5,0.5,0.5s0.5-0.224,0.5-0.5v-0.622c0-0.338-0.21-0.644-0.52-0.762
		c-2.157-0.833-2.685-1.214-2.796-1.31v-0.124c0.256-0.307,0.46-0.687,0.598-1.114c0.191-0.187,0.317-0.435,0.354-0.704
		c0.038-0.273-0.016-0.543-0.152-0.778V9.177c0-1.394-0.888-2.227-2.375-2.227c-1.465,0-2.376,0.853-2.376,2.227v0.84
		c-0.136,0.233-0.189,0.503-0.152,0.775c0.037,0.269,0.163,0.518,0.354,0.705C9.965,11.926,10.169,12.306,10.425,12.613z"/>
	<path d="M10.081,4.955C10.156,5.561,10.679,6,11.326,6h1.349c0.647,0,1.172-0.436,1.245-1.034L14.368,1.4
		c0.044-0.344-0.064-0.683-0.304-0.955C13.819,0.167,13.467,0,13.123,0h-2.245c-0.343,0-0.693,0.165-0.937,0.441
		c-0.24,0.272-0.352,0.626-0.309,0.973L10.081,4.955z M10.691,1.102C10.75,1.035,10.83,1,10.878,1h2.245
		c0.047,0,0.131,0.037,0.191,0.106c0.033,0.037,0.07,0.097,0.062,0.167l-0.448,3.568C12.914,4.951,12.787,5,12.675,5h-1.349
		c-0.115,0-0.239-0.058-0.253-0.169l-0.448-3.542C10.615,1.209,10.656,1.143,10.691,1.102z"/>
	<path d="M17.644,4h-1.643c-0.276,0-0.5,0.224-0.5,0.5s0.224,0.5,0.5,0.5h1.643c0.748,0,1.357,0.554,1.357,1.235v10.765H5V6.236
		C5,5.554,5.609,5,6.358,5H8c0.276,0,0.5-0.224,0.5-0.5S8.277,4,8,4H6.358C5.058,4,4,5.003,4,6.236v15.639
		c0,1.212,1.014,2.126,2.357,2.126h11.286c1.344,0,2.357-0.914,2.357-2.126V6.236C20.001,5.003,18.943,4,17.644,4z M17.644,23.001
		H6.358C5.7,23.001,5,22.606,5,21.875v-3.874h14v3.874C19.001,22.606,18.302,23.001,17.644,23.001z"/>
	<path d="M16.392,20.001h-3.783c-0.276,0-0.5,0.224-0.5,0.5s0.224,0.5,0.5,0.5h3.783c0.276,0,0.5-0.224,0.5-0.5
		S16.668,20.001,16.392,20.001z"/>
	<path d="M9.609,20.001h-2c-0.276,0-0.5,0.224-0.5,0.5s0.224,0.5,0.5,0.5h2c0.276,0,0.5-0.224,0.5-0.5S9.885,20.001,9.609,20.001z"
		/>
	<path d="M12,3.02c0.13,0,0.26-0.05,0.36-0.15c0.09-0.09,0.14-0.22,0.14-0.35s-0.05-0.26-0.15-0.36c-0.19-0.18-0.52-0.17-0.7,0.01
		c-0.1,0.09-0.15,0.22-0.15,0.35c0,0.14,0.05,0.26,0.15,0.36C11.74,2.97,11.87,3.02,12,3.02z"/>
</g>
</svg>
