<?xml version="1.0" encoding="utf-8"?>
<!-- Generator: Adobe Illustrator 19.2.0, SVG Export Plug-In . SVG Version: 6.00 Build 0)  -->
<svg version="1.1" id="Layer_1" xmlns="http://www.w3.org/2000/svg" xmlns:xlink="http://www.w3.org/1999/xlink" x="0px" y="0px"
	 width="24px" height="24px" viewBox="0 0 24 24" style="enable-background:new 0 0 24 24;" xml:space="preserve">
<path d="M23.83,12.019c0-6.523-5.308-11.831-11.831-11.831c-6.524,0-11.832,5.308-11.832,11.831c0,6.524,5.308,11.832,11.832,11.832
	c2.988,0,5.712-1.122,7.797-2.956c0.02-0.012,0.032-0.031,0.05-0.046C22.284,18.68,23.83,15.53,23.83,12.019z M1.167,12.019
	c0-5.972,4.859-10.831,10.832-10.831S22.83,6.047,22.83,12.019c0,3.096-1.313,5.886-3.403,7.862
	c-3.676-1.556-4.346-2.271-4.463-2.455v-0.69c0.621-0.688,1.107-1.584,1.416-2.609c0.391-0.331,0.65-0.802,0.722-1.317
	c0.072-0.523-0.051-1.041-0.347-1.476V9.274c0-2.775-1.713-4.366-4.7-4.366c-2.944,0-4.702,1.632-4.702,4.366v2.059
	c-0.295,0.435-0.418,0.952-0.345,1.476c0.071,0.515,0.331,0.985,0.72,1.316c0.309,1.026,0.795,1.922,1.417,2.61v0.695
	c-0.121,0.207-0.801,0.914-4.547,2.476C2.493,17.929,1.167,15.129,1.167,12.019z M5.456,20.63c3.787-1.617,4.496-2.401,4.667-2.952
	c0.015-0.048,0.022-0.098,0.022-0.148v-0.993c0-0.131-0.051-0.256-0.143-0.35c-0.606-0.62-1.076-1.481-1.358-2.492
	c-0.031-0.11-0.099-0.208-0.193-0.274c-0.246-0.172-0.411-0.446-0.453-0.75c-0.042-0.308,0.044-0.612,0.243-0.858
	c0.072-0.089,0.112-0.2,0.112-0.315V9.274c0-2.171,1.314-3.366,3.702-3.366c2.42,0,3.7,1.164,3.7,3.366v2.223
	c0,0.115,0.04,0.226,0.112,0.315c0.199,0.246,0.286,0.551,0.243,0.858c-0.042,0.304-0.207,0.578-0.453,0.75
	c-0.094,0.066-0.162,0.163-0.193,0.274c-0.282,1.01-0.752,1.871-1.357,2.491c-0.092,0.094-0.143,0.219-0.143,0.35v0.993
	c0,0.051,0.008,0.101,0.022,0.148c0.103,0.331,0.344,1.085,4.589,2.927c-1.826,1.402-4.102,2.245-6.577,2.245
	C9.54,22.85,7.276,22.017,5.456,20.63z"/>
</svg>
