<?xml version="1.0" encoding="utf-8"?>
<!-- Generator: Adobe Illustrator 19.2.0, SVG Export Plug-In . SVG Version: 6.00 Build 0)  -->
<svg version="1.1" id="Layer_1" xmlns="http://www.w3.org/2000/svg" xmlns:xlink="http://www.w3.org/1999/xlink" x="0px" y="0px"
	 width="24px" height="24px" viewBox="0 0 24 24" style="enable-background:new 0 0 24 24;" xml:space="preserve">
<g>
	<path d="M23.329,20.916l-6.179-6.179c1.03-1.497,1.635-3.308,1.635-5.258c0-5.131-4.175-9.306-9.307-9.306
		c-5.131,0-9.306,4.174-9.306,9.306c0,5.132,4.175,9.307,9.306,9.307c1.951,0,3.761-0.606,5.258-1.635l6.179,6.179
		c0.332,0.332,0.77,0.499,1.206,0.499s0.874-0.167,1.207-0.499C23.994,22.664,23.994,21.582,23.329,20.916z M1.172,9.478
		c0-4.58,3.726-8.306,8.306-8.306s8.307,3.726,8.307,8.306c0,4.58-3.727,8.307-8.307,8.307S1.172,14.058,1.172,9.478z
		 M22.622,22.622c-0.275,0.273-0.724,0.275-0.999,0l-6.09-6.09c0.358-0.307,0.692-0.641,0.999-0.999l6.09,6.09
		C22.897,21.898,22.897,22.346,22.622,22.622z"/>
	<path d="M13.49,11.247c-1.988-0.85-2.449-1.235-2.541-1.322V9.772c0.236-0.311,0.423-0.696,0.549-1.129
		c0.365-0.387,0.439-0.984,0.182-1.464V6.318c0-1.405-0.827-2.244-2.212-2.244c-1.365,0-2.213,0.86-2.213,2.244v0.861
		C6.998,7.658,7.072,8.255,7.435,8.642c0.126,0.434,0.313,0.819,0.55,1.13v0.136c-0.125,0.131-0.622,0.518-2.542,1.34
		c-0.295,0.127-0.485,0.424-0.485,0.757v1.121c0,0.452,0.352,0.819,0.784,0.819h7.452c0.432,0,0.783-0.367,0.783-0.819v-1.121
		C13.977,11.67,13.786,11.373,13.49,11.247z M12.977,12.944h-7.02v-0.829c2.332-1.005,2.883-1.489,3.009-1.938
		c0.012-0.044,0.019-0.089,0.019-0.135V9.594c0-0.122-0.044-0.24-0.125-0.331C8.644,9.02,8.468,8.66,8.365,8.251
		c-0.027-0.108-0.09-0.204-0.178-0.272C8.102,7.912,8.07,7.736,8.157,7.616C8.22,7.531,8.254,7.427,8.254,7.321V6.318
		c0-0.837,0.397-1.244,1.213-1.244c0.827,0,1.212,0.396,1.212,1.244v1.003c0,0.106,0.034,0.21,0.097,0.296
		c0.088,0.12,0.056,0.295-0.03,0.361c-0.088,0.069-0.151,0.165-0.179,0.273c-0.105,0.416-0.275,0.766-0.494,1.013
		C9.994,9.355,9.949,9.472,9.949,9.594v0.448c0,0.046,0.006,0.092,0.019,0.136c0.126,0.45,0.678,0.933,3.008,1.937V12.944z"/>
</g>
</svg>
