<?xml version="1.0" encoding="utf-8"?>
<!-- Generator: Adobe Illustrator 19.2.0, SVG Export Plug-In . SVG Version: 6.00 Build 0)  -->
<svg version="1.1" id="Layer_1" xmlns="http://www.w3.org/2000/svg" xmlns:xlink="http://www.w3.org/1999/xlink" x="0px" y="0px"
	 width="24px" height="24px" viewBox="0 0 24 24" style="enable-background:new 0 0 24 24;" xml:space="preserve">
<g>
	<path d="M19.209,21.174c-5.334-2.143-6.25-3.039-6.399-3.318v-0.707c0.599-0.688,1.067-1.584,1.364-2.609
		c0.372-0.328,0.621-0.792,0.691-1.299c0.073-0.525-0.044-1.045-0.331-1.482V9.695c0-2.774-1.655-4.365-4.541-4.365
		c-2.844,0-4.542,1.632-4.542,4.365v2.063c-0.287,0.437-0.404,0.955-0.331,1.48c0.07,0.506,0.319,0.97,0.69,1.299
		c0.297,1.026,0.766,1.922,1.365,2.61v0.707c-0.148,0.279-1.064,1.174-6.398,3.318c-0.453,0.182-0.745,0.623-0.745,1.124v1.046
		c0,0.276,0.224,0.5,0.5,0.5s0.5-0.224,0.5-0.5v-1.046c0-0.088,0.049-0.168,0.118-0.196c5.813-2.337,6.803-3.338,7.004-4.009
		c0.014-0.047,0.021-0.095,0.021-0.144v-0.993c0-0.127-0.049-0.25-0.136-0.343c-0.584-0.62-1.036-1.482-1.308-2.493
		c-0.03-0.109-0.096-0.206-0.188-0.273c-0.234-0.171-0.392-0.443-0.434-0.746c-0.044-0.314,0.04-0.625,0.234-0.874
		c0.069-0.088,0.106-0.196,0.106-0.308V9.695c0-2.17,1.258-3.365,3.542-3.365c2.35,0,3.541,1.132,3.541,3.365v2.223
		c0,0.111,0.037,0.22,0.106,0.308c0.195,0.25,0.278,0.562,0.234,0.876c-0.042,0.302-0.2,0.574-0.435,0.745
		c-0.092,0.067-0.158,0.164-0.188,0.274c-0.272,1.011-0.724,1.872-1.307,2.492c-0.087,0.093-0.136,0.216-0.136,0.343v0.993
		c0,0.049,0.007,0.097,0.021,0.144c0.202,0.673,1.192,1.675,7.006,4.009c0.068,0.027,0.116,0.108,0.116,0.196v1.046
		c0,0.276,0.224,0.5,0.5,0.5s0.5-0.224,0.5-0.5v-1.046C19.953,21.803,19.653,21.351,19.209,21.174z"/>
	<path d="M23.004,5h-7c-0.276,0-0.5,0.224-0.5,0.5s0.224,0.5,0.5,0.5h7c0.276,0,0.5-0.224,0.5-0.5S23.28,5,23.004,5z"/>
</g>
</svg>
