<svg xmlns="http://www.w3.org/2000/svg" width="24" height="24" viewBox="0 0 24 24"><path d="M19.825 4.28c-.247-.118-.548-.01-.665.24-.447.96-3.332.414-5.2-.398-1.462-.637-2.507.268-2.867 1.068l-.223.623c-1.548-.284-3.397-.263-3.586.732L6.93 8.422c-3.363.91-5.847 3.98-5.847 7.627 0 4.36 3.547 7.907 7.908 7.907 4.36 0 7.91-3.548 7.91-7.908 0-2.6-1.267-4.904-3.21-6.346l.357-1.883c.15-.805-.952-1.41-2.2-1.773l.173-.483c.046-.102.482-.985 1.542-.525 1.493.648 5.572 1.896 6.505-.096.117-.25.008-.548-.242-.665zm-3.927 11.77c0 3.81-3.1 6.907-6.908 6.907s-6.908-3.1-6.908-6.908 3.1-6.91 6.91-6.91 6.906 3.1 6.906 6.91zm-3.113-6.937c-1.127-.62-2.42-.973-3.794-.973-.34 0-.673.03-1.003.07l.266-1.406c.23-.132 1.132-.255 2.484 0 1.352.256 2.148.7 2.313.906l-.265 1.403z"/><path d="M11.047 21.31c.066 0 .133-.014.198-.042 1.735-.75 2.98-2.308 3.332-4.164.324-1.713-.145-3.453-1.284-4.773-.183-.21-.498-.23-.706-.05-.21.18-.232.495-.052.704.94 1.09 1.326 2.522 1.06 3.935-.29 1.528-1.317 2.81-2.748 3.43-.253.11-.37.405-.26.658.082.19.266.3.46.3zM23.39 3.49l-1.995.274c-.273.038-.465.29-.427.563.034.25.248.432.494.432.023 0 .046-.002.07-.006l1.993-.273c.273-.037.465-.29.427-.562-.038-.274-.297-.467-.563-.427zM20.997 5.882c-.124-.247-.422-.35-.67-.224-.248.123-.348.423-.225.67l.893 1.79c.088.174.264.276.447.276.075 0 .15-.017.224-.053.247-.122.347-.422.224-.67l-.893-1.788zM16.177 3.223l1.738.9c.073.037.15.055.23.055.18 0 .354-.1.443-.27.127-.246.03-.548-.215-.675l-1.738-.9c-.242-.123-.546-.03-.674.216-.125.244-.028.546.217.673zM19.93 3.236c.028.005.057.007.085.007.238 0 .45-.172.492-.415l.33-1.92c.047-.27-.137-.53-.408-.577-.278-.046-.532.137-.58.41l-.33 1.918c-.046.273.137.53.41.578z"/></svg>