<svg xmlns="http://www.w3.org/2000/svg" width="24" height="24" viewBox="0 0 24 24"><path d="M8.328.003H2.672C1.2.003 0 1.203 0 2.675V8.33c0 1.474 1.2 2.673 2.672 2.673h5.656C9.8 11.003 11 9.803 11 8.33V2.676C11 1.202 9.8.003 8.328.003zM10 8.33c0 .923-.75 1.673-1.672 1.673H2.672C1.75 10.003 1 9.253 1 8.33V2.676c0-.922.75-1.672 1.672-1.672h5.656c.922 0 1.672.75 1.672 1.672V8.33z"/><path d="M7.44 5.003H5.987V3.55c0-.276-.224-.5-.5-.5s-.5.224-.5.5v1.453H3.534c-.276 0-.5.224-.5.5s.224.5.5.5h1.453v1.453c0 .276.224.5.5.5s.5-.224.5-.5V6.003H7.44c.276 0 .5-.224.5-.5s-.224-.5-.5-.5zM20.44 5.003h-3.906c-.276 0-.5.224-.5.5s.224.5.5.5h3.906c.276 0 .5-.224.5-.5s-.223-.5-.5-.5z"/><path d="M21.33.003h-5.657C14.2.003 13 1.203 13 2.675V8.33c0 1.474 1.2 2.673 2.673 2.673h5.656c1.473 0 2.67-1.2 2.67-2.672V2.676C24 1.202 22.804.003 21.33.003zM23 8.33c0 .923-.75 1.673-1.67 1.673h-5.657c-.922 0-1.672-.75-1.672-1.672V2.676c0-.922.75-1.672 1.673-1.672h5.656c.92 0 1.67.75 1.67 1.672V8.33zM8.328 13.004H2.672C1.2 13.004 0 14.202 0 15.676v5.656c0 1.474 1.2 2.672 2.672 2.672h5.656C9.8 24.004 11 22.806 11 21.332v-5.656c0-1.474-1.2-2.672-2.672-2.672zM10 21.332c0 .922-.75 1.672-1.672 1.672H2.672c-.922 0-1.672-.75-1.672-1.672v-5.656c0-.922.75-1.672 1.672-1.672h5.656c.922 0 1.672.75 1.672 1.672v5.656z"/><path d="M7.22 16.77c-.194-.196-.51-.196-.706 0l-1.028 1.026-1.028-1.027c-.195-.196-.512-.196-.707 0s-.194.51 0 .706l1.03 1.027-1.03 1.027c-.194.195-.194.512 0 .707.1.098.227.146.355.146s.256-.05.354-.146l1.027-1.027 1.028 1.027c.098.098.226.146.354.146s.255-.05.353-.146c.195-.195.195-.512 0-.707l-1.028-1.027 1.028-1.027c.194-.195.194-.51-.002-.707zM20.44 18.004h-3.906c-.276 0-.5.224-.5.5s.224.5.5.5h3.906c.276 0 .5-.224.5-.5s-.223-.5-.5-.5z"/><path d="M21.33 13.004h-5.657C14.2 13.004 13 14.202 13 15.676v5.656c0 1.474 1.2 2.672 2.673 2.672h5.656c1.473 0 2.67-1.198 2.67-2.672v-5.656c0-1.474-1.197-2.672-2.67-2.672zM23 21.332c0 .922-.75 1.672-1.67 1.672h-5.657c-.922 0-1.672-.75-1.672-1.672v-5.656c0-.922.75-1.672 1.673-1.672h5.656c.92 0 1.67.75 1.67 1.672v5.656z"/><path d="M18.5 17c.13 0 .25-.05.36-.15.09-.09.14-.22.14-.35 0-.12-.05-.25-.15-.35-.19-.19-.52-.19-.7 0-.1.1-.15.22-.15.35 0 .14.05.26.15.36.09.09.22.14.35.14zM18.15 20.15c-.1.09-.15.22-.15.35s.05.26.15.36c.09.09.22.14.35.14s.25-.05.36-.15c.09-.09.14-.22.14-.35 0-.12-.05-.25-.15-.35-.19-.19-.53-.18-.7 0z"/></svg>