<svg xmlns="http://www.w3.org/2000/svg" width="24" height="24" viewBox="0 0 24 24"><path d="M22.513 11.405c-.16-1.695-1.305-2.905-1.748-3.314-.245-2.84-1.96-3.713-2.714-3.962-.454-1.89-1.294-3.11-2.5-3.633-1.443-.626-2.92-.04-3.5.245-.557-.283-1.95-.85-3.357-.277C7.457.965 6.568 2.197 6.05 4.125c-.748.244-2.47 1.11-2.723 3.95-.472.397-1.66 1.544-1.857 3.19-.137 1.15.254 2.288 1.122 3.39-.05.154-.093.314-.125.48-.346 1.827.615 3.84 2.844 5.986.01.024.012.046.022.07.48 1.193 1.303 2.025 2.38 2.404.44.154.918.23 1.418.23.93 0 1.934-.275 2.916-.785.48.224 1.638.697 2.914.697.537 0 1.093-.084 1.624-.308 1.065-.45 1.816-1.378 2.255-2.73.805-.392 3.545-2.043 2.493-5.84.88-1.11 1.29-2.27 1.18-3.455zM8.043 22.65c-.81-.283-1.41-.9-1.784-1.834-.525-1.306.078-2.28.102-2.317.15-.232.086-.542-.145-.693-.23-.15-.54-.087-.692.144-.024.037-.38.598-.46 1.458-1.292-1.5-1.843-2.87-1.617-4.08.366-1.95 2.66-2.91 2.684-2.92.255-.105.378-.397.273-.652-.104-.256-.396-.38-.65-.275-.09.037-1.715.717-2.67 2.167-.493-.755-.71-1.51-.623-2.255.185-1.58 1.626-2.645 1.64-2.655.122-.09.198-.227.207-.376.162-2.768 1.86-3.256 2.17-3.323.104.012.475.074.766.408.287.328.408.83.36 1.495-.02.276.187.515.462.535h.037c.26 0 .48-.2.498-.463.07-.953-.14-1.708-.62-2.245-.29-.323-.623-.502-.902-.603.435-1.474 1.1-2.41 1.983-2.772.98-.402 2.027-.006 2.482.213v20.58c-1.252.642-2.515.81-3.5.466zM19.1 19.386c.073-1.536-.775-2.42-1.738-2.74-1.375-.455-2.955.142-3.388 1.275-.098.258.032.547.29.646.258.095.547-.03.646-.29.24-.635 1.283-.967 2.137-.682.963.32 1.297 1.267.918 2.6-.337 1.183-.932 1.96-1.767 2.314-1.343.568-3.016-.055-3.653-.34V9.862c.734-.383 2.187-.924 3.217-.508-.072.58-.047 1.22.17 1.91.066.212.264.35.477.35.05 0 .1-.008.15-.024.262-.083.408-.364.325-.627-.513-1.63.282-2.956.802-3.602.173-.215.14-.53-.076-.703-.214-.172-.528-.14-.702.076-.3.373-.665.934-.913 1.63-1.21-.412-2.607.027-3.45.396V1.61c.482-.225 1.603-.638 2.612-.196.95.416 1.62 1.5 1.983 3.222.044.207.213.364.422.392.02.002 2.042.31 2.22 3.333.008.143.076.274.187.362.014.01 1.394 1.132 1.548 2.776.093.983-.28 1.97-1.106 2.934-.227.266-.922 1.072-2.432-.2-.21-.178-.528-.15-.705.06-.178.213-.15.528.06.706 1.143.96 2.252 1.167 3.16.643.363 2.016-.62 3.17-1.396 3.745z"/><path d="M7.926 8.372c-.25-.118-.548-.01-.666.24-.117.25-.01.548.24.666.025.01 2.47 1.19 1.886 3.222-.076.265.077.542.342.62.046.012.093.02.14.02.216 0 .416-.144.48-.363.653-2.275-1.3-3.876-2.422-4.405zM9.13 15.677c-.053.04-1.294.963-1.395 2.283-.055.723.23 1.4.848 2.018.098.098.226.146.354.146s.256-.05.354-.146c.196-.195.196-.513 0-.707-.406-.405-.588-.808-.557-1.23.062-.858.98-1.55.99-1.557.22-.164.27-.477.105-.698-.165-.225-.476-.273-.698-.108z"/></svg>