<svg xmlns="http://www.w3.org/2000/svg" width="24" height="24" viewBox="0 0 24 24"><path d="M20.044 12.405c-.27-.042-.524.16-.558.434-.3 2.412-1.69 4.463-3.815 5.627-2.133 1.17-4.612 1.242-6.8.203-.25-.12-.55-.013-.668.236-.12.25-.012.548.237.666 1.164.554 2.4.83 3.634.83 1.398 0 2.793-.355 4.077-1.06 2.41-1.32 3.987-3.645 4.328-6.38.035-.273-.16-.523-.434-.557z"/><path d="M23.6 5.618c-.406-.74-1.59-1.472-4.908-.754-.27.06-.44.325-.383.594.057.27.32.446.593.383 2.43-.524 3.564-.21 3.818.258.26.47-.096 1.606-1.86 3.38-.228.23-.474.462-.733.696-.022-.107-.04-.217-.067-.32-.443-1.736-1.42-3.254-2.823-4.39-2.062-1.666-4.71-2.247-7.263-1.596-3.33.85-5.817 3.72-6.188 7.144-.278 2.56.63 5.04 2.443 6.806-.338.094-.67.18-.986.25-2.497.56-3.667.245-3.93-.232-.26-.476.098-1.623 1.892-3.416.195-.195.195-.512 0-.707s-.512-.195-.707 0C.05 16.163.025 17.568.437 18.317c.29.527.972 1.048 2.53 1.048.66 0 1.48-.094 2.494-.32.61-.137 1.256-.314 1.922-.527 4.285-1.37 9.273-4.11 12.71-6.987.54-.452 1.036-.905 1.474-1.345 2.414-2.428 2.437-3.823 2.03-4.567zM7.334 17.482c-1.868-1.564-2.82-3.923-2.556-6.36.326-3.013 2.513-5.538 5.44-6.285.603-.153 1.21-.23 1.813-.23 1.644 0 3.246.563 4.573 1.636 1.235.998 2.094 2.333 2.483 3.86.063.252.113.522.152.832-3.22 2.64-7.936 5.234-11.907 6.547z"/><path d="M7.87 9.218c-.978 0-1.773.795-1.773 1.772s.795 1.773 1.773 1.773 1.772-.795 1.772-1.773-.795-1.772-1.772-1.772zm0 2.545c-.426 0-.773-.347-.773-.773 0-.426.347-.772.773-.772.426 0 .772.347.772.772 0 .427-.347.773-.772.773zM9.78 6.894c-.61 0-1.107.497-1.107 1.107S9.17 9.11 9.78 9.11c.61 0 1.107-.497 1.107-1.107S10.39 6.895 9.78 6.895zM9.673 8c0-.058.048-.106.107-.106s.107.048.107.107c0 .12-.214.12-.214 0z"/></svg>