<svg xmlns="http://www.w3.org/2000/svg" width="24" height="24" viewBox="0 0 24 24"><path d="M20.027 21.34L15.635 9.39v-5.41c.38-.095.71-.3.958-.602.302-.367.47-.854.47-1.37 0-1.015-.66-2.04-1.922-2.04H8.886c-1.258 0-1.917 1.03-1.917 2.05 0 .86.485 1.733 1.423 1.962v5.41L6.586 14.3l-2.583 7.03c-.24.59-.172 1.26.184 1.79.357.53.95.848 1.59.848H18.25c.64 0 1.232-.316 1.59-.847.353-.526.424-1.192.187-1.78zM9.36 9.65c.022-.055.032-.113.032-.172v-5.94c0-.276-.23-.5-.506-.5-.677 0-.917-.55-.917-1.02 0-.286.088-.56.243-.75.163-.2.39-.3.673-.3h6.255c.728 0 .922.652.922 1.04 0 .28-.088.55-.24.734-.162.197-.392.296-.687.296-.276 0-.5.224-.5.5v5.94c0 .058.01.116.03.17l1.405 3.823c-1.09.38-4.834.566-8.31.538l1.6-4.358zm9.65 12.915c-.174.257-.45.404-.76.404H5.776c-.31 0-.586-.148-.76-.406-.173-.258-.205-.57-.082-.87l2.458-6.688c.343.005.76.008 1.23.008 2.42 0 6.184-.095 7.782-.632l2.686 7.31.007.017c.118.285.085.597-.088.855z"/><path d="M9.5 15.913c-.852 0-1.545.694-1.545 1.548 0 .854.693 1.548 1.545 1.548.855 0 1.55-.694 1.55-1.547s-.695-1.547-1.55-1.547zm0 2.095c-.3 0-.545-.245-.545-.547s.245-.547.545-.547c.31 0 .55.24.55.548 0 .302-.246.548-.55.548zM13.953 17.734c-1.182 0-2.144.963-2.144 2.146 0 1.185.96 2.148 2.143 2.148 1.187 0 2.152-.964 2.152-2.148 0-1.183-.965-2.146-2.152-2.146zm0 3.295c-.63 0-1.144-.517-1.144-1.15 0-.63.512-1.145 1.143-1.145.636 0 1.152.515 1.152 1.146 0 .633-.516 1.15-1.152 1.15zM11.526 12.91c.813 0 1.476-.663 1.476-1.476S12.34 9.96 11.526 9.96c-.813 0-1.475.66-1.475 1.474.002.814.663 1.475 1.476 1.475zm0-1.95c.262 0 .475.213.475.475s-.212.475-.474.475-.475-.213-.475-.475c.002-.262.215-.475.476-.475z"/></svg>