<svg xmlns="http://www.w3.org/2000/svg" width="24" height="24" viewBox="0 0 24 24"><path d="M3.972 18.314c0-.533-.39-.957-.897-1.052v-2.658c0-.276-.224-.5-.5-.5s-.5.224-.5.5v2.657c-.505.095-.896.512-.89.968L.9 19.922c0 .602.49 1.092 1.09 1.092h1.17c.6 0 1.09-.49 1.09-1.092 0-.028 0-.058-.006-.086l-.272-1.522zm-.813 1.7H1.99c-.035 0-.066-.02-.083-.02-.008 0-.013.003-.015.014l.287-1.694c0-.05.04-.092.09-.092h.61c.052 0 .093.04.1.178l.27 1.547c-.013.04-.05.067-.09.067z"/><path d="M23.965 12.312l-3.094-7.02c-.08-.182-.26-.3-.457-.3H4.366c-.183 0-.352.1-.44.262L.1 12.274c-.084.156-.08.344.01.496.09.15.253.245.43.245h6.16l-1.186 5.197c-.008.036-.013.074-.013.11 0 1.986 3.387 2.693 6.557 2.693s6.558-.707 6.558-2.692c0-.037-.004-.075-.013-.11l-1.187-5.198h6.092c.17 0 .326-.085.42-.227.09-.143.105-.32.038-.476zm-6.352 6.057c-.076.816-2.143 1.645-5.556 1.645-3.414 0-5.48-.828-5.556-1.646l1.224-5.356h8.665l1.223 5.355zM1.38 12.013L3.01 9.02h8.7c.275 0 .5-.224.5-.5s-.225-.5-.5-.5H3.556l1.105-2.027h15.424l2.653 6.02H1.38z"/></svg>