<svg xmlns="http://www.w3.org/2000/svg" width="24" height="24" viewBox="0 0 24 24"><path d="M21.777 6.122C21.2 2.132 16.57.118 12.482.242 8.835.355 4.432 2.28 4.025 7.306c-.124 1.142-.616 3.25-1.407 4.04-.26.26-.868.87-.563 1.617.297.728.996.692 1.468.723-.02.1-.04.2-.057.294-.055.28-.093.516-.093.56 0 .35.14.638.396.843-.118.332-.12.735.305 1.157.013.033.042.172.042.737 0 .637.255 1.207.717 1.604.55.473 1.35.67 2.203.542 1.02-.165 1.038-.14 1.37.254.08.095.17.203.28.323.61.666.612 1.195.614 1.864.002.478.004 1.02.237 1.626.076.198.265.32.467.32.047 0 .095-.006.142-.02l8.125-2.405c.236-.07.387-.3.355-.543-.46-3.598 1.125-6.28 1.887-7.568l.15-.258c1.433-2.464 1.69-2.908 1.115-6.894zm-1.98 6.392l-.146.25c-.787 1.335-2.397 4.06-2.062 7.78l-7.238 2.143c-.047-.275-.048-.546-.05-.826 0-.742-.004-1.584-.875-2.537-.1-.108-.18-.206-.253-.29-.408-.486-.692-.697-1.327-.697-.254 0-.564.034-.96.098-.563.084-1.07-.028-1.397-.312-.245-.21-.37-.495-.37-.846 0-.914-.058-1.158-.35-1.45-.05-.05-.066-.08-.07-.08.01-.062.11-.225.172-.322.084-.136.1-.303.04-.45-.06-.147-.186-.258-.34-.298-.193-.05-.195-.098-.197-.098.007-.06.04-.22.076-.405.06-.317.136-.704.156-.89.027-.256-.14-.49-.39-.544-.245-.054-.487-.054-.702-.054-.448 0-.5-.027-.53-.1-.037-.088.08-.268.344-.533 1.32-1.318 1.69-4.605 1.695-4.652.354-4.378 4.103-6.053 7.493-6.16 3.642-.108 7.78 1.607 8.273 5.024.523 3.643.38 3.89-.992 6.25z"/><path d="M13.934 5.83c-1.18 0-2.14.96-2.14 2.14s.96 2.14 2.14 2.14c1.18 0 2.14-.96 2.14-2.14s-.96-2.14-2.14-2.14zm0 3.28c-.628 0-1.14-.512-1.14-1.14s.512-1.14 1.14-1.14 1.14.512 1.14 1.14-.512 1.14-1.14 1.14z"/><path d="M18.38 6.863l-.874-.115c-.05-.15-.11-.296-.182-.44l.538-.7c.137-.177.138-.426.002-.605-.274-.364-.6-.688-.96-.962-.18-.136-.428-.134-.607.003l-.7.54c-.143-.07-.29-.132-.44-.184l-.113-.876c-.03-.224-.204-.4-.428-.43-.456-.064-.9-.064-1.36-.002-.222.03-.397.207-.426.43l-.115.876c-.15.052-.298.113-.44.183l-.7-.538c-.18-.137-.428-.14-.607-.002-.36.27-.692.602-.963.96-.136.18-.135.428.002.607l.538.7c-.07.143-.132.29-.184.442l-.874.114c-.223.03-.4.204-.43.427-.062.453-.062.91 0 1.36.03.223.207.398.43.427l.875.115c.053.15.114.298.185.44l-.538.7c-.137.18-.138.428-.002.607.27.356.603.69.96.96.18.136.43.135.607-.002l.7-.54c.145.07.292.132.442.184l.114.874c.03.224.204.4.427.43.228.033.452.048.677.048.227 0 .453-.016.683-.048.224-.03.398-.207.428-.43l.114-.875c.15-.05.297-.11.44-.182l.7.538c.18.137.425.138.605.002.364-.275.688-.6.962-.963.135-.18.134-.427-.003-.605l-.537-.7c.07-.143.13-.29.182-.44l.875-.114c.224-.03.4-.204.43-.427.064-.458.064-.903 0-1.362-.03-.22-.206-.396-.43-.425zm-1.326 1.38c-.206.027-.373.177-.422.378-.067.28-.18.548-.33.795-.107.177-.096.402.03.566l.494.644c-.075.082-.154.16-.237.236l-.643-.493c-.166-.127-.39-.14-.565-.03-.248.15-.515.262-.795.33-.2.048-.352.216-.38.42l-.104.804c-.11.006-.223.006-.334 0l-.105-.8c-.027-.207-.178-.375-.38-.423-.28-.067-.548-.178-.796-.33-.177-.106-.402-.096-.566.03l-.642.493c-.082-.075-.16-.154-.237-.236l.493-.642c.126-.165.138-.39.03-.566-.15-.248-.263-.516-.33-.796-.048-.202-.216-.352-.42-.38l-.803-.104c-.005-.11-.005-.223 0-.334l.802-.105c.206-.027.373-.177.42-.378.068-.283.18-.55.33-.798.11-.177.097-.4-.03-.566l-.492-.642c.075-.082.154-.16.236-.236l.643.494c.164.127.39.14.566.03.246-.15.513-.262.795-.33.2-.05.352-.216.38-.42l.103-.804c.11-.005.222-.005.335 0l.104.803c.027.207.178.374.38.422.28.068.547.18.795.33.176.11.4.098.565-.03l.642-.493c.08.075.16.154.236.236l-.494.642c-.126.164-.138.39-.03.566.152.248.263.515.33.794.05.2.216.352.422.378l.802.105c.006.113.006.225 0 .336l-.802.107z"/></svg>