<svg xmlns="http://www.w3.org/2000/svg" width="24" height="24" viewBox="0 0 24 24"><path d="M17.745 5.385c-.034-1.278-.53-2.49-1.432-3.455C15.238.777 13.693.116 12.077.116c-1.617 0-3.16.66-4.236 1.814-.9.965-1.397 2.177-1.43 3.455C4.28 5.717.306 6.597.306 8.525c0 1.206 1.314 2.13 3.907 2.745 2.08.494 4.874.766 7.864.766 5.43 0 11.77-.92 11.77-3.51 0-1.93-3.973-2.81-6.103-3.14zM8.57 2.612c.888-.95 2.166-1.496 3.506-1.496 1.34 0 2.618.545 3.505 1.497.762.815 1.17 1.844 1.168 2.923-.994.414-2.774.675-4.672.675s-3.678-.26-4.67-.674c-.003-1.08.405-2.11 1.165-2.924zm3.507 8.423c-6.653 0-10.77-1.303-10.77-2.51 0-.54 1.492-1.6 5.466-2.183 1.09.536 3.102.868 5.303.868 2.2 0 4.213-.333 5.303-.868 3.972.584 5.466 1.642 5.466 2.182 0 1.208-4.117 2.51-10.77 2.51zM15.37 13.71c-.07-.267-.345-.43-.61-.36-.267.07-.428.342-.36.61l2.322 9.053c.058.226.26.376.484.376.04 0 .083-.006.124-.017.268-.068.43-.34.36-.608l-2.32-9.054zM9.375 13.35c-.267-.07-.54.094-.608.36l-2.32 9.05c-.07.268.092.54.36.608.04.01.082.016.124.016.224 0 .427-.15.485-.376l2.32-9.05c.07-.267-.092-.54-.36-.608z"/><path d="M11.72 8.66c-.09.09-.14.22-.14.35 0 .14.05.27.15.36.09.09.22.14.35.14.13 0 .25-.05.35-.14.09-.1.15-.22.15-.36 0-.13-.06-.26-.15-.36-.19-.18-.51-.18-.71.01zM8.37 8.56c-.09.09-.15.22-.15.35s.05.25.15.36c.1.09.22.14.35.14s.26-.05.36-.15c.09-.1.14-.22.14-.35s-.05-.26-.14-.35c-.19-.19-.53-.19-.71 0zM5.01 8.07c-.09.09-.14.22-.14.35 0 .13.05.26.15.36.09.09.22.14.35.14.13 0 .26-.05.36-.15.09-.09.14-.22.14-.35 0-.13-.05-.26-.15-.35-.18-.19-.52-.19-.71 0zM15.07 8.56c-.09.1-.14.22-.14.35s.05.25.14.35c.1.1.23.15.36.15s.26-.05.36-.15c.09-.1.14-.22.14-.35s-.05-.25-.15-.36c-.18-.18-.51-.19-.71.01zM18.43 8.06c-.09.1-.15.23-.15.36 0 .13.06.26.15.36.1.09.22.14.35.14.13 0 .26-.05.36-.15.09-.09.14-.22.14-.35 0-.13-.05-.26-.14-.35-.19-.19-.53-.19-.71-.01zM12.077 13.335c-.276 0-.5.224-.5.5v9.556c0 .277.224.5.5.5s.5-.223.5-.5v-9.555c0-.277-.224-.5-.5-.5z"/></svg>