<svg xmlns="http://www.w3.org/2000/svg" width="24" height="24" viewBox="0 0 24 24"><path d="M22.867 21.122c.01-.065.004-.13-.012-.194v-.003l-.636-2.374c-.073-.266-.35-.42-.613-.353-.268.072-.426.346-.354.612l.32 1.192-5.585-3.295v-4.915c0-.095-.033-.182-.082-.26-.015-.024-.035-.04-.054-.062-.026-.03-.043-.064-.076-.087-.024-.017-.052-.018-.078-.03-.016-.01-.024-.026-.04-.032l-3.67-1.318V3.516l.885.885c.098.1.226.147.354.147s.256-.05.354-.146c.196-.194.196-.51 0-.706l-1.74-1.738c-.046-.046-.102-.083-.163-.11-.122-.05-.26-.05-.382 0-.062.026-.117.063-.163.11L9.395 3.694c-.195.195-.195.512 0 .707s.512.196.707 0l.885-.884v6.504l-3.667 1.3c-.017.007-.025.025-.04.032-.027.012-.057.014-.08.03-.033.023-.05.058-.076.087-.02.02-.04.037-.055.06-.05.08-.083.165-.083.26V16.706l-5.623 3.3.32-1.196c.07-.268-.087-.54-.354-.613-.266-.064-.54.088-.612.354l-.636 2.375v.002c-.017.063-.02.13-.012.194.01.067.03.13.063.185v.002l.007.006c.04.064.095.115.16.157.02.013.042.022.064.032.025.01.045.03.072.036l2.375.637c.044.01.088.017.13.017.222 0 .423-.147.483-.37.072-.268-.087-.54-.354-.613l-1.22-.328 5.69-3.34 3.78 1.35c.054.02.11.03.167.03s.113-.01.168-.03l3.78-1.35 5.656 3.338-1.223.328c-.267.072-.425.347-.354.613.06.224.263.37.483.37.043 0 .086-.005.13-.016l2.374-.637c.027-.007.048-.025.073-.036.022-.01.042-.017.063-.03.066-.042.122-.093.162-.158 0-.002.003-.002.004-.004.033-.057.056-.12.065-.186zM11.51 10.895l2.494.896-2.518.9-2.51-.896 2.535-.9zm-3.524 1.607l.762.272 2.238.8v4.137l-3-1.07v-4.138zm7 4.138l-3 1.07v-4.137l2.238-.8.762-.27v4.137zM19.39 9.847h1.246c.03 0 .06-.002.09-.008 1.4-.048 2.13-1.2 2.13-2.34 0-1.163-.762-2.34-2.22-2.34H19.39c-.275 0-.5.224-.5.5v3.687c0 .277.224.5.5.5zm.5-3.686h.746c.964 0 1.22.843 1.22 1.34 0 .498-.256 1.34-1.22 1.34-.026 0-.053.003-.08.007h-.665V6.16z"/><path d="M16.74 9.804c.11 0 .223-.01.332-.03.645-.118 1.076-.576 1.154-1.225.07-.59-.148-.96-.346-1.164-.165-.172-.367-.286-.568-.36l.81-1.03c.12-.15.142-.354.06-.527-.085-.173-.26-.283-.45-.283h-2.07c-.277 0-.5.224-.5.5s.223.5.5.5h1.04l-.708.897c-.123.156-.14.37-.048.543s.286.28.48.265c.166-.013.574.017.736.188.028.03.102.107.073.35-.02.15-.073.31-.342.36-.357.066-.81-.127-.914-.326-.13-.246-.434-.337-.676-.21-.244.127-.34.43-.21.674.272.523.966.876 1.645.876z"/></svg>