<svg xmlns="http://www.w3.org/2000/svg" width="24" height="24" viewBox="0 0 24 24"><path d="M19.417 7.506c.027-.107.062-.24.057-.397-.015-.42-.362-1.017-.595-1.245-.077-.074-.247-.22-.243-.208-.005-.125-.036-.367-.195-.59-.177-.25-.448-.387-.774-.393l-.02-.043c-.044-.1-.104-.237-.223-.353-.022-.022-.044-.054-.068-.086-.12-.158-.454-.6-.95-.5-.102-.145-.254-.347-.515-.434l-.13-.05c-.206-.082-.532-.21-.935-.094-.04-.107-.094-.226-.193-.322-.17-.167-.445-.265-.727-.25-.243.01-.463.09-.63.234-.05-.02-.114-.058-.157-.1-.183-.178-.467-.276-.782-.258-.158.005-.55.047-.75.28-.088.058-.446.147-.677.155-.204.01-.852.1-1.132.402-.055.058-.097.126-.125.197-.163.144-.663.464-.998.58-.396.137-.86.48-.83 1.32 0 .007-.03.19-.482.702-.327.37-.324.644-.293.894.008.067.013.1.002.155-.034.188-.038.302-.04.41-.002.106-.004.176-.06.376-.175.624.264 1.413.353 1.564.062.104.158.183.273.22.108.037.28.14.304.177.008.235.105.437.27.57.3.237.677.165.927.116.042-.008.082-.018.114-.02.035 0 .363.065.737.43.554.544.928.466 1.354.16.044-.032.094-.067.204-.13l.08.08.102.105c.22.215.493.32.792.32.292-.01.575-.147.738-.34.085-.045.344-.055.54-.057-.143.39 0 .625.1.73.217.238.52.212.77.15.05.09.11.2.19.326.228.364.516.528.727.648.107.06.192.11.258.173.138.135.31.208.488.208.02 0 .042 0 .063-.003.383-.037.61-.366.83-.684.072-.104.146-.21.223-.3.194-.22.49-.336.9-.35.295-.01.518-.106.66-.284.21-.258.16-.555.13-.732-.008-.038-.016-.076-.017-.116-.01-.252-.006-.38.065-.46.186-.21.657-.74.292-1.25.022-.027.05-.06.084-.098.374-.42.25-1.083-.103-1.476.006-.018.012-.036.017-.056zm-.92 2.083c-.038.045-.084.096-.117.133-.344.39-.327.852-.316 1.158 0 .035.004.07.01.11-.605.057-1.087.284-1.434.677-.102.114-.2.254-.295.392-.03.04-.064.092-.1.14-.077-.052-.153-.095-.225-.135-.168-.096-.28-.16-.375-.31-.08-.127-.134-.23-.177-.312-.106-.2-.262-.492-.617-.528.044-.195.04-.388-.09-.57-.094-.128-.276-.286-.634-.267h-.223c-.474-.002-1.094-.003-1.416.362l.375.33-.494-.327-.086-.087c-.222-.228-.633-.652-1.334-.23-.098.057-.178.115-.25.166-.02-.016-.043-.037-.07-.062-.474-.467-1.014-.74-1.47-.717-.07.002-.165.018-.268.038l-.05.01c-.128-.402-.507-.64-.747-.756-.115-.24-.21-.536-.178-.648.083-.298.093-.452.097-.622.002-.066.003-.136.024-.25.04-.207.02-.36-.006-.488 0 0 .012-.026.062-.083.518-.584.744-1.01.732-1.385-.01-.295.056-.318.157-.352.015-.005 1.204-.468 1.545-1.035.103-.038.295-.086.422-.09.01 0 .988-.048 1.3-.413.047-.024.174-.032.173-.048.198.19.524.412.94.398.227-.008.43-.102.55-.27.062.188.168.5.49.632.136.056.36.092.635-.05.11-.058.147-.05.355.034.06.024.12.047.128.04.018.016.06.074.086.113.27.384.57.524.895.43l.057.074c.06.08.115.15.174.243.08.182.274.618.906.662.016.37.308.655.543.885.103.1.278.44.293.564 0 .022-.016.08-.025.116-.05.2-.156.614.202.964.06.06.09.16.107.15-.492.553-.442.952-.26 1.215z"/><path d="M21.772 6.123c-.575-3.978-5.275-5.98-9.426-5.856-3.76.118-7.92 2.034-8.326 7.04-.124 1.143-.616 3.25-1.407 4.04-.26.26-.868.872-.563 1.618.297.728 1 .692 1.468.723-.02.1-.04.2-.057.294-.054.28-.092.515-.092.56 0 .347.14.637.396.842-.117.332-.12.735.306 1.157.013.034.042.173.042.738 0 .648.252 1.206.73 1.613.543.466 1.322.67 2.07.55 1.152-.174 1.162-.158 1.48.225.082.098.175.21.29.335.626.686.62 1.27.615 1.95-.004.453-.008.92.182 1.406l.052.138c.076.196.265.32.466.32.047 0 .095-.008.142-.022l8.125-2.405c.235-.07.386-.3.354-.543-.46-3.598 1.125-6.28 1.887-7.568l.15-.258c1.433-2.466 1.69-2.91 1.115-6.895zm-1.978 6.39l-.147.252c-.788 1.335-2.398 4.06-2.064 7.78L10.33 22.69c-.037-.225-.034-.467-.032-.734.006-.74.015-1.658-.878-2.634-.103-.112-.186-.212-.258-.3-.408-.49-.694-.683-1.31-.683-.28 0-.63.04-1.093.11-.464.078-.95-.05-1.27-.323-.25-.215-.377-.5-.377-.853 0-.914-.06-1.158-.35-1.45-.05-.05-.067-.08-.07-.08.01-.062.11-.224.17-.322.085-.135.1-.302.04-.45-.06-.147-.185-.258-.34-.298-.192-.05-.194-.098-.196-.098.007-.06.04-.22.076-.405.062-.316.137-.703.157-.89.027-.255-.14-.49-.39-.543-.245-.053-.487-.053-.702-.053-.448 0-.5-.027-.53-.1-.037-.088.08-.268.344-.533 1.32-1.317 1.69-4.604 1.695-4.65.353-4.364 4.034-6.03 7.362-6.136 3.74-.118 7.93 1.72 8.403 5 .526 3.642.382 3.89-.99 6.25z"/></svg>