<svg xmlns="http://www.w3.org/2000/svg" width="24" height="24" viewBox="0 0 24 24"><path d="M23.244 2.986H10.8c-.228 0-.428.156-.484.378l-4.43 17.57-2.49-5.62c-.08-.183-.26-.3-.458-.3H.728c-.276 0-.5.225-.5.5s.224.5.5.5h1.885l2.947 6.65c.08.183.26.298.457.298.014 0 .028 0 .042-.002.21-.018.39-.17.44-.376l4.69-18.598h12.054c.276 0 .5-.224.5-.5s-.223-.5-.5-.5z"/><path d="M21.79 13.17c-.194-.196-.51-.196-.706 0L17 17.253l-4.086-4.085c-.195-.196-.512-.196-.707 0s-.195.51 0 .706l4.085 4.085-4.085 4.086c-.195.195-.195.512 0 .707.098.098.226.146.354.146s.257-.05.355-.147L17 18.668l4.085 4.085c.098.098.226.146.354.146s.255-.05.353-.147c.195-.195.195-.512 0-.707l-4.085-4.085 4.085-4.084c.193-.196.193-.512-.002-.707z"/></svg>