<svg xmlns="http://www.w3.org/2000/svg" width="24" height="24" viewBox="0 0 24 24"><path d="M22.82 10.168l-2.416-1.203.11-.29c.098-.26-.033-.548-.29-.646l-4.67-1.763.495-1.308 1.634.616c.06.022.118.032.177.032.203 0 .394-.123.47-.323.097-.258-.034-.547-.292-.645l-2.1-.793h-.003-.002L13.83 3.05c-.26-.1-.547.033-.644.29-.098.26.033.548.29.646l1.637.618-.493 1.308-6.306-2.38.014-.038c.09-.235-.01-.5-.233-.618L3.083.21c-.126-.067-.276-.076-.41-.025s-.24.157-.292.29L.32 5.94c-.05.134-.04.284.027.41.067.127.186.22.326.252l5.524 1.31c.04.01.077.015.116.015.204 0 .393-.125.468-.323l.014-.037 4.642 1.752-3.492 13.966c-.067.268.096.54.364.606.267.062.54-.097.606-.364l1.38-5.525h3.44l1.38 5.525c.057.228.26.38.485.38.04 0 .08-.006.12-.016.27-.067.432-.34.365-.606L12.712 9.8l5.99 2.262c.057.02.116.032.176.032.07 0 .14-.015.206-.044.12-.055.215-.155.262-.28l.103-.27 2.62.673c.04.01.083.016.124.016.204 0 .393-.126.468-.324l.405-1.074c.09-.24-.016-.51-.246-.624zM1.456 5.76l1.66-4.4L7.24 3.555 5.998 6.84 1.455 5.76zm9.088 11.243l1.47-5.876 1.468 5.876h-2.937zM7.145 6.63l.816-2.16 11.442 4.318-.092.243-.002.004-.64 1.692v.006l-.082.218-11.44-4.32zm14.74 4.464l-2.08-.535.245-.653 1.922.956-.088.23z"/></svg>