<svg xmlns="http://www.w3.org/2000/svg" width="24" height="24" viewBox="0 0 24 24"><path d="M8.557 9.847c-2.03-.71-3.853-.408-4.24.7-.386 1.107.853 2.477 2.883 3.186.716.25 1.44.382 2.088.382.16 0 .315-.01.465-.024.883-.096 1.48-.47 1.686-1.056.386-1.108-.853-2.478-2.883-3.187zm1.938 2.857c-.067.192-.393.342-.85.392-.6.064-1.37-.046-2.115-.307-1.573-.55-2.407-1.516-2.268-1.914.08-.23.537-.408 1.214-.408.488 0 1.092.092 1.75.323 1.574.55 2.408 1.516 2.27 1.914z"/><path d="M12.017.17c-5.76 0-9.94 3.783-9.94 8.994 0 5.484 6.225 14.67 9.94 14.67 3.716 0 9.94-9.187 9.94-14.67 0-5.21-4.18-8.993-9.94-8.993zm0 22.665c-2.846 0-8.94-8.582-8.94-13.67 0-4.706 3.677-7.993 8.94-7.993 5.264 0 8.94 3.287 8.94 7.993 0 5.088-6.094 13.67-8.94 13.67z"/><path d="M19.715 10.546c-.387-1.107-2.21-1.408-4.24-.7-.893.313-1.682.78-2.22 1.312-.63.625-.865 1.292-.66 1.876.203.586.8.96 1.685 1.057.148.018.304.025.464.025.647 0 1.372-.13 2.09-.382 2.028-.71 3.268-2.08 2.88-3.187zm-3.212 2.242c-.743.26-1.51.374-2.115.307-.457-.05-.782-.2-.85-.392-.066-.192.095-.512.42-.836.43-.424 1.103-.816 1.848-1.077.66-.23 1.263-.322 1.752-.322.676 0 1.133.176 1.214.407.138.398-.696 1.365-2.27 1.913z"/></svg>