<svg xmlns="http://www.w3.org/2000/svg" width="24" height="24" viewBox="0 0 24 24"><path d="M23.33 21.5c0-.18-.103-.333-.247-.42l-1.395-1.396c-.195-.195-.512-.195-.707 0s-.194.512 0 .707l.61.61H2.986V2.414l.64.64c.1.1.227.147.354.147s.256-.048.354-.145c.195-.195.195-.512 0-.707L2.84.854C2.795.808 2.74.77 2.68.746c-.062-.026-.127-.04-.194-.04s-.132.014-.192.04c-.06.025-.116.062-.162.108L.638 2.348c-.195.195-.195.512 0 .707s.512.195.707 0l.64-.64V21.5c0 .276.225.5.5.5h19.17l-.674.673c-.194.195-.194.512 0 .707.1.098.227.146.355.146s.256-.05.354-.146l1.493-1.494c.102-.102.148-.237.143-.37 0-.006.003-.01.003-.016z"/><path d="M5.496 18.937c.152 0 15.233-.175 15.333-15.33 0-.275-.222-.5-.498-.502h-.003c-.275 0-.5.222-.5.497-.095 14.152-13.753 14.334-14.335 14.335-.276 0-.5.225-.5.5 0 .277.225.5.5.5z"/></svg>