<svg xmlns="http://www.w3.org/2000/svg" width="24" height="24" viewBox="0 0 24 24"><path d="M21.14 0H2.87C1.29 0 .007 1.285.007 2.865v18.27C.006 22.715 1.29 24 2.87 24h18.27c1.58 0 2.866-1.285 2.866-2.865V2.865C24.006 1.285 22.72 0 21.14 0zm1.866 21.135c0 1.028-.837 1.865-1.865 1.865H2.87c-1.027 0-1.864-.837-1.864-1.865V2.865C1.006 1.837 1.843 1 2.87 1h18.27c1.03 0 1.866.837 1.866 1.865v18.27z"/><path d="M6.006 4.014c-1.097 0-1.99.893-1.99 1.99s.893 1.99 1.99 1.99 1.99-.893 1.99-1.99-.893-1.99-1.99-1.99zm0 2.98c-.546 0-.99-.444-.99-.99s.444-.99.99-.99c.545 0 .99.444.99.99s-.445.99-.99.99zM6.006 10.015c-1.097 0-1.99.893-1.99 1.99s.893 1.99 1.99 1.99 1.99-.894 1.99-1.99c0-1.098-.893-1.99-1.99-1.99zm0 2.98c-.546 0-.99-.445-.99-.99 0-.546.444-.99.99-.99.545 0 .99.444.99.99 0 .545-.445.99-.99.99zM6.006 16.015c-1.097 0-1.99.893-1.99 1.99s.893 1.99 1.99 1.99 1.99-.894 1.99-1.99c0-1.097-.893-1.99-1.99-1.99zm0 2.98c-.546 0-.99-.444-.99-.99s.444-.99.99-.99c.545 0 .99.444.99.99s-.445.99-.99.99zM12.006 4.014c-1.097 0-1.99.893-1.99 1.99s.894 1.99 1.99 1.99c1.098 0 1.99-.893 1.99-1.99s-.892-1.99-1.99-1.99zm0 2.98c-.545 0-.99-.444-.99-.99s.445-.99.99-.99c.546 0 .99.444.99.99s-.444.99-.99.99zM12.006 10.015c-1.097 0-1.99.893-1.99 1.99s.894 1.99 1.99 1.99c1.098 0 1.99-.894 1.99-1.99 0-1.098-.892-1.99-1.99-1.99zm0 2.98c-.545 0-.99-.445-.99-.99 0-.546.445-.99.99-.99.546 0 .99.444.99.99 0 .545-.444.99-.99.99zM12.006 16.015c-1.097 0-1.99.893-1.99 1.99s.894 1.99 1.99 1.99c1.098 0 1.99-.894 1.99-1.99 0-1.097-.892-1.99-1.99-1.99zm0 2.98c-.545 0-.99-.444-.99-.99s.445-.99.99-.99c.546 0 .99.444.99.99s-.444.99-.99.99zM18.007 4.014c-1.098 0-1.99.893-1.99 1.99s.893 1.99 1.99 1.99 1.99-.893 1.99-1.99-.893-1.99-1.99-1.99zm0 2.98c-.546 0-.99-.444-.99-.99s.444-.99.99-.99.99.444.99.99-.444.99-.99.99zM18.007 10.015c-1.098 0-1.99.893-1.99 1.99s.893 1.99 1.99 1.99 1.99-.894 1.99-1.99c0-1.098-.893-1.99-1.99-1.99zm0 2.98c-.546 0-.99-.445-.99-.99 0-.546.444-.99.99-.99s.99.444.99.99c0 .545-.444.99-.99.99zM18.007 16.015c-1.098 0-1.99.893-1.99 1.99s.893 1.99 1.99 1.99 1.99-.894 1.99-1.99c0-1.097-.893-1.99-1.99-1.99zm0 2.98c-.546 0-.99-.444-.99-.99s.444-.99.99-.99.99.444.99.99-.444.99-.99.99z"/></svg>