<svg xmlns="http://www.w3.org/2000/svg" width="24" height="24" viewBox="0 0 24 24"><path d="M22.526 8.97c0-1.506-1.102-2.75-2.54-2.99V1c0-.275-.223-.5-.5-.5s-.5.225-.5.5v4.98c-1.437.24-2.54 1.483-2.54 2.988s1.103 2.748 2.54 2.99V23.02c0 .276.225.5.5.5s.5-.224.5-.5V11.957c1.44-.24 2.54-1.484 2.54-2.988zm-3.04 2.038c-1.124 0-2.04-.915-2.04-2.04s.916-2.04 2.04-2.04c1.125 0 2.04.916 2.04 2.04s-.915 2.04-2.04 2.04zM5.053 2.077V1c0-.275-.224-.5-.5-.5s-.5.225-.5.5v1.077c-1.437.24-2.54 1.484-2.54 2.99s1.103 2.748 2.54 2.988v14.968c0 .276.224.5.5.5s.5-.224.5-.5V8.055c1.438-.24 2.54-1.484 2.54-2.99S6.49 2.318 5.053 2.078zm-.5 5.028c-1.125 0-2.04-.915-2.04-2.04s.916-2.04 2.04-2.04 2.04.916 2.04 2.04-.915 2.04-2.04 2.04zM12.5 14.076V1c0-.275-.224-.5-.5-.5s-.5.225-.5.5v13.075c-1.437.24-2.54 1.484-2.54 2.99 0 1.504 1.103 2.748 2.54 2.99v2.968c0 .276.224.5.5.5s.5-.224.5-.5v-2.97c1.437-.24 2.54-1.483 2.54-2.99 0-1.503-1.103-2.747-2.54-2.987zm-.5 5.028c-1.125 0-2.04-.915-2.04-2.04 0-1.124.916-2.04 2.04-2.04s2.04.916 2.04 2.04c0 1.125-.916 2.04-2.04 2.04z"/></svg>