<svg xmlns="http://www.w3.org/2000/svg" width="24" height="24" viewBox="0 0 24 24"><path d="M23.26 20.802l-6.12-6.12c1.02-1.484 1.62-3.277 1.62-5.21 0-5.086-4.14-9.225-9.225-9.225C4.448.247.31 4.387.31 9.473S4.447 18.7 9.534 18.7c1.932 0 3.726-.6 5.21-1.62l6.12 6.12c.32.32.745.497 1.197.497.454 0 .88-.177 1.198-.497.662-.66.662-1.736 0-2.398zM1.31 9.472c0-4.535 3.69-8.225 8.225-8.225s8.225 3.69 8.225 8.226c0 4.535-3.69 8.226-8.225 8.226S1.31 14.01 1.31 9.472zm21.244 13.02c-.13.132-.305.204-.49.204-.187 0-.36-.072-.492-.203l-6.03-6.03c.35-.304.68-.632.982-.984l6.03 6.03c.27.27.27.71 0 .983z"/><path d="M10.12 2.97c-1.907-.068-3.695.64-5.035 1.98-1.34 1.34-2.045 3.13-1.982 5.035.01.27.23.483.5.483h.016c.275-.01.49-.24.482-.516-.054-1.626.546-3.15 1.69-4.294 1.143-1.143 2.68-1.733 4.294-1.69.294.038.507-.207.516-.483.01-.277-.207-.508-.483-.516z"/></svg>