<svg xmlns="http://www.w3.org/2000/svg" width="24" height="24" viewBox="0 0 24 24"><path d="M23.47 21.003h-2.24l2.258-.81c.253-.09.39-.366.308-.622l-4.5-14.142c-.04-.13-.133-.237-.255-.297-.12-.058-.262-.067-.39-.02l-4.678 1.675v-.282c0-.276-.224-.5-.5-.5h-12c-.276 0-.5.224-.5.5v14.5H.548c-.276 0-.5.224-.5.5s.224.5.5.5H23.47c.275 0 .5-.224.5-.5s-.225-.5-.5-.5zM18.5 6.225l4.196 13.19-4.018 1.44-4.197-13.19 4.02-1.44zm-.824 14.778h-3.704V9.365l3.704 11.638zm-15.703-14h5v14h-5v-14zm6 14v-14h5v14h-5z"/><path d="M5.442 18.003H3.42c-.276 0-.5.224-.5.5s.224.5.5.5h2.022c.276 0 .5-.224.5-.5s-.223-.5-.5-.5zM11.443 18.003H9.42c-.276 0-.5.224-.5.5s.224.5.5.5h2.022c.276 0 .5-.224.5-.5s-.223-.5-.5-.5zM18.7 8.967c-.128-.388-.396-.698-.756-.873-.348-.17-.74-.193-1.104-.06-.753.268-1.157 1.12-.9 1.895.126.387.395.697.754.872.198.097.41.146.624.146.162 0 .324-.028.48-.084.754-.27 1.158-1.122.902-1.897zm-1.238.955c-.107.04-.226.03-.33-.02-.113-.055-.2-.157-.243-.287-.088-.266.04-.553.288-.642.047-.017.095-.025.143-.025.064 0 .128.014.187.043.115.057.202.16.245.29.085.26-.047.555-.29.642zM4.432 7.96c-.833 0-1.51.68-1.51 1.512s.677 1.51 1.51 1.51 1.51-.677 1.51-1.51-.677-1.51-1.51-1.51zm0 2.023c-.282 0-.51-.23-.51-.51s.228-.512.51-.512.51.23.51.512-.23.51-.51.51zM10.432 10.983c.833 0 1.51-.678 1.51-1.51s-.677-1.512-1.51-1.512-1.51.68-1.51 1.512.676 1.51 1.51 1.51zm0-2.022c.282 0 .51.23.51.512s-.228.51-.51.51-.512-.228-.512-.51.23-.51.512-.51z"/></svg>