<svg xmlns="http://www.w3.org/2000/svg" width="24" height="24" viewBox="0 0 24 24"><path d="M23.354 3.646l-.006-.006L20.354.746c-.768-.77-2.138-.77-2.907 0l-14.8 14.8c-.022.022-.044.047-.084.127-.01.022-.023.042-.03.064-.178.39-.65 1.68-2.307 6.504-.153.46-.03.962.32 1.313.25.25.58.386.915.386.135 0 .27-.022.4-.066 4.247-1.438 5.855-1.982 6.465-2.298.085-.023.166-.06.23-.122l14.8-14.9c.8-.802.8-2.106 0-2.908zM7.314 20.923c-.912.335-2.64.935-4.213 1.472l-1.39-1.39c.543-1.57 1.144-3.288 1.478-4.21l4.127 4.128zm-5.772 2.003c-.145.052-.257-.047-.288-.08-.03-.03-.128-.142-.08-.283.055-.162.113-.333.174-.507l.7.7c-.175.057-.345.115-.506.17zm21.104-17.08L8.2 20.393 6.806 19 18.554 7.254c.195-.195.195-.512 0-.707s-.512-.195-.707 0L6.1 18.293 3.707 15.9 18.153 1.453c.392-.39 1.095-.4 1.5.006l2.996 2.895c.4.406.4 1.088-.004 1.492z"/></svg>