<svg xmlns="http://www.w3.org/2000/svg" width="24" height="24" viewBox="0 0 24 24"><path d="M23.597.41c-.195-.196-.512-.196-.707 0L.53 22.767c-.195.195-.195.512 0 .707.098.098.226.146.354.146s.256-.048.354-.145l22.36-22.36c.194-.194.194-.51 0-.706zM14.146 8.15c.104-.256-.02-.547-.274-.65-1.813-.74-3.806-.336-5.195 1.052-1.392 1.39-1.797 3.383-1.057 5.198.08.194.266.312.463.312.063 0 .127-.012.188-.037.257-.104.38-.396.275-.65-.584-1.437-.264-3.014.838-4.115 1.1-1.1 2.674-1.418 4.11-.834.255.103.548-.02.653-.276z"/><path d="M4.47 17.266c.09.07.198.104.304.104.15 0 .298-.067.397-.195.17-.22.128-.533-.09-.7-1.525-1.172-2.83-2.735-3.785-4.532 3.08-5.792 9.29-8.39 14.866-6.18.26.1.55-.024.65-.28.102-.257-.023-.548-.28-.65C10.392 2.4 3.56 5.293.286 11.715c-.073.143-.073.312 0 .454 1.032 2.023 2.48 3.786 4.184 5.096zM23.84 11.716c-1.03-2.022-2.477-3.785-4.183-5.097-.22-.168-.53-.127-.7.09-.17.22-.128.534.09.702 1.526 1.172 2.83 2.735 3.785 4.53-3.08 5.793-9.293 8.39-14.867 6.18-.257-.102-.547.024-.65.28s.025.55.282.65c1.46.58 2.96.856 4.44.856 4.747 0 9.31-2.846 11.804-7.74.074-.14.074-.31 0-.452z"/><path d="M10.256 16.386c.6.245 1.222.364 1.833.364 1.234 0 2.43-.487 3.36-1.415 1.218-1.218 1.68-2.896 1.28-4.513-.056-.23-.13-.46-.223-.688-.104-.256-.396-.38-.65-.274-.257.104-.38.396-.275.65.103.254.168.512.215.77.222 1.21-.147 2.44-1.056 3.348-1.098 1.1-2.67 1.415-4.107.832-.254-.105-.548.018-.65.274-.027.064-.04.13-.038.195.002.195.12.38.31.456zM11.47 9.567c-.88.22-1.562.903-1.782 1.783-.066.268.097.54.365.606.04.01.08.015.12.015.225 0 .43-.15.486-.378.128-.52.532-.924 1.053-1.054.268-.067.43-.338.364-.606-.067-.27-.34-.435-.606-.365z"/><path d="M12.535 14.333c.04 0 .08-.005.122-.015.878-.22 1.562-.902 1.783-1.782.065-.26-.09-.52-.344-.597-.008-.003-.014-.01-.022-.01-.018-.005-.036 0-.054-.003-.05-.007-.098-.013-.146-.006-.193.03-.357.172-.407.373-.13.52-.533.924-1.053 1.054-.268.067-.43.338-.364.606.057.228.26.38.485.38z"/></svg>