<svg xmlns="http://www.w3.org/2000/svg" width="24" height="24" viewBox="0 0 24 24"><path d="M21.71 1.502c-.058-.27-.32-.44-.595-.38L14.28 2.62 12.954.5c-.113-.178-.326-.268-.53-.222l-4.234.93c-.208.044-.363.214-.39.423l-.32 2.48-6.834 1.5c-.27.06-.44.327-.38.596.05.234.256.393.486.393.036 0 .072-.005.107-.013l2.05-.45c-.04.024-.08.047-.114.082-.095.102-.142.24-.13.378l1.376 16.98c.02.26.238.46.5.46h14.773c.26 0 .478-.2.498-.46l1.378-16.98c.013-.14-.035-.277-.13-.38s-.228-.16-.367-.16h-1.176l-1.082-1.95c-.072-.128-.197-.22-.343-.247-.145-.027-.295.012-.41.104l-1.09.885-1.714-.937c-.16-.087-.354-.08-.508.017l-3.346 2.128H3.272l4.765-1.045 6.113-1.34 7.178-1.576c.272-.06.443-.326.383-.595zm-12.963.606l3.545-.778.95 1.517L8.52 3.884l.227-1.776zM14.66 4.93l1.75.956c.177.097.397.076.554-.05l.887-.72.524.94h-5.486l1.77-1.125zm5.49 2.128l-1.296 15.98H5.002L3.706 7.06H20.15z"/><path d="M11.938 20.91c.276 0 .5-.223.5-.5V9.718c0-.276-.224-.5-.5-.5s-.5.224-.5.5V20.41c0 .277.224.5.5.5zM15.598 20.91h.04c.26 0 .478-.197.498-.46l.854-10.693c.022-.275-.183-.517-.458-.54-.273-.018-.517.184-.538.46L15.14 20.37c-.023.276.182.517.458.54zM8.237 20.91h.04c.276-.022.48-.264.46-.54L7.88 9.678c-.022-.275-.26-.48-.54-.458-.274.02-.48.262-.457.537L7.74 20.45c.02.263.24.46.497.46z"/></svg>