<svg xmlns="http://www.w3.org/2000/svg" width="24" height="24" viewBox="0 0 24 24"><path d="M22.76 9.868c-.45-.788-1.24-1.17-2.047-1.036l.984-.824c.86-.622 1.048-1.942.41-2.883-.3-.445-.754-.74-1.275-.832-.094-.017-.19-.02-.283-.02.74-.672.86-1.905.236-2.784-.31-.44-.77-.725-1.293-.805-.514-.08-1.032.05-1.472.385l-.266.223C17.378.537 16.6 0 15.72 0H8.213C7.013 0 6 1.048 6 2.288V5.62c-.36-1.018-.847-1.89-1.502-2.315-.513-.332-1.1-.388-1.698-.157-1.146.44-1.01 2.235-.82 4.718.17 2.226.38 4.997-.413 6.97-.76 1.896-.62 4.12.367 5.805.717 1.225 2.218 2.768 5.293 3.165.062.008.13.012.203.012 1.722 0 5.984-2.223 7.09-2.816h1.2c1.184 0 2.182-.95 2.264-2.103 1.61-.97 2.996-2.07 3.047-2.11.717-.54 1.508-1.302 1.26-2.428-.11-.508-.412-.94-.85-1.215l-.08-.048.676-.45c.936-.712 1.22-1.764.725-2.78zM17 17H7V4h10v13zm4.28-11.314c.324.48.242 1.214-.197 1.533L18 9.8V6.947l1.958-1.507c.205-.147.454-.206.7-.163.253.045.474.19.622.41zM18.644 1.85c.202-.153.452-.217.698-.178.253.04.476.18.63.394.333.47.267 1.208-.163 1.534L18 5.16V2.39l.644-.54zM8.214 1h7.505c.67 0 1.28.614 1.28 1.288V3H7v-.712C7 1.59 7.556 1 8.213 1zm-.86 21.812c-2.114-.273-3.69-1.2-4.557-2.678-.835-1.424-.95-3.312-.302-4.925.88-2.192.66-5.09.482-7.42-.114-1.492-.27-3.535.182-3.71.303-.116.546-.097.793.063C5.21 4.958 5.875 8.966 6 11.308v7.44C6 19.99 6.993 21 8.213 21h4.113c-1.966.964-4.22 1.922-4.97 1.812zM15.72 20H8.213C7.543 20 7 19.438 7 18.748V18h10v.748c0 .667-.6 1.252-1.28 1.252zm4.7-4.004c-.014.01-1.095.866-2.42 1.714v-2.382l2.203-1.464c.244-.044.498-.004.704.126.21.132.354.34.408.583.1.456-.157.866-.896 1.423zm1.037-4.165l-1.703 1.132L18 14.128v-2.462l2.6-1.774c.472-.244.99-.053 1.278.443.268.554.11 1.092-.42 1.496z"/><path d="M11.65 18.66c-.1.1-.15.22-.15.36 0 .13.05.26.15.35.09.09.22.15.35.15.13 0 .25-.05.36-.15.09-.1.14-.22.14-.35 0-.13-.05-.26-.15-.36-.19-.19-.52-.18-.7 0z"/></svg>