<svg xmlns="http://www.w3.org/2000/svg" width="24" height="24" viewBox="0 0 24 24"><path d="M18.138 0H5.868c-1.58 0-2.865 1.285-2.865 2.865v18.27c0 1.58 1.285 2.865 2.865 2.865h12.27c1.58 0 2.865-1.285 2.865-2.865V2.865c0-1.58-1.285-2.865-2.865-2.865zM4.003 21.135V2.865C4.003 1.837 4.84 1 5.868 1H7v22H5.87c-1.028 0-1.865-.837-1.865-1.865zm16 0c0 1.028-.837 1.865-1.865 1.865H8V1H18.14c1.028 0 1.865.837 1.865 1.865v18.27z"/><path d="M16.48 6h-5.956c-.276 0-.5.224-.5.5s.224.5.5.5h5.956c.276 0 .5-.224.5-.5s-.223-.5-.5-.5zM14.475 8h-3.95c-.276 0-.5.224-.5.5s.224.5.5.5h3.95c.276 0 .5-.224.5-.5s-.224-.5-.5-.5z"/></svg>