<svg xmlns="http://www.w3.org/2000/svg" width="24" height="24" viewBox="0 0 24 24"><path d="M7.55 19.642c-.688.002-1.247.555-1.247 1.232 0 .68.56 1.23 1.247 1.23s1.246-.552 1.247-1.23c0-.678-.56-1.23-1.248-1.232zm-.247 1.233c0-.258.495-.253.494 0 0 .255-.493.254-.494 0z"/><path d="M10.766.228c-.153-.1-.35-.108-.51-.022-.163.087-.264.256-.264.44v3.27L8.788 5.71H6.233L5.03 3.917V.647c0-.184-.1-.353-.262-.44C4.605.12 4.41.13 4.256.227 2.62 1.3 1.646 3.088 1.646 5.012c0 2.268 2.237 4.017 3.255 4.694l-.76 10.84c0 1.824 1.512 3.31 3.37 3.31 1.86 0 3.374-1.485 3.372-3.346l-.76-10.804c1.017-.678 3.254-2.428 3.254-4.693 0-1.922-.975-3.71-2.61-4.782zM9.336 9.02c-.156.098-.247.275-.233.46l.78 11.063c0 1.274-1.063 2.31-2.372 2.31S5.14 21.82 5.138 20.58l.782-11.1c.012-.186-.078-.363-.236-.46-.713-.443-3.038-2.04-3.038-4.01 0-1.253.504-2.438 1.384-3.317v2.375c0 .1.03.196.085.28l1.437 2.14c.093.14.248.222.415.222h3.088c.167 0 .322-.083.415-.22l1.437-2.142c.055-.083.085-.18.085-.28V1.694c.88.88 1.384 2.064 1.384 3.318 0 1.968-2.326 3.567-3.04 4.01zM20.79 13.325c.177-.082.29-.26.29-.454V10.8c0-.276-.224-.5-.5-.5h-2.537v-6.72h.104c.218 0 .41-.142.477-.35l.466-1.476c.036-.113.03-.235-.016-.345L18.608.303c-.078-.185-.26-.306-.46-.306h-1.21c-.2 0-.383.12-.46.306l-.467 1.104c-.045.11-.05.23-.015.345l.466 1.476c.066.208.26.35.478.35h.104v6.72h-2.537c-.276 0-.5.224-.5.5v2.073c0 .196.113.374.29.455.37.17.6.462.6.763s-.23.593-.6.763c-.177.082-.29.26-.29.455v5.66c0 1.613 1.587 2.925 3.537 2.925s3.537-1.312 3.537-2.924v-5.66c0-.196-.114-.374-.292-.455-.37-.17-.6-.46-.6-.762s.232-.593.6-.763zM17.27 1h.546l.266.628-.3.95h-.477l-.3-.95.266-.63zm2.81 11.576c-.556.357-.89.914-.89 1.512s.334 1.154.89 1.512v5.366c0 1.06-1.138 1.924-2.537 1.924s-2.537-.863-2.537-1.924V15.6c.556-.357.89-.914.89-1.512s-.334-1.154-.89-1.512v-1.278h5.074v1.278z"/><path d="M17.043 16.187v4.687c0 .276.224.5.5.5s.5-.224.5-.5v-4.687c0-.276-.224-.5-.5-.5s-.5.224-.5.5z"/></svg>