<svg xmlns="http://www.w3.org/2000/svg" width="24" height="24" viewBox="0 0 24 24"><path d="M11.48 13H6.5c-.276 0-.5.223-.5.5s.224.5.5.5h4.98c.275 0 .5-.224.5-.5s-.225-.5-.5-.5zM11.48 16H6.5c-.276 0-.5.223-.5.5s.224.5.5.5h4.98c.275 0 .5-.224.5-.5s-.225-.5-.5-.5zM11.48 10H6.5c-.276 0-.5.224-.5.5s.224.5.5.5h4.98c.275 0 .5-.224.5-.5s-.225-.5-.5-.5zM11.48 7H6.5c-.276 0-.5.223-.5.5s.224.5.5.5h4.98c.275 0 .5-.224.5-.5s-.225-.5-.5-.5zM20.48 16H14.5c-.276 0-.5.224-.5.5s.224.5.5.5h5.98c.275 0 .5-.224.5-.5 0-.277-.224-.5-.5-.5zM20.48 7H14.5c-.275 0-.5.224-.5.5v6c0 .276.225.5.5.5h5.98c.276 0 .5-.224.5-.5v-6c0-.276-.223-.5-.5-.5zm-.5 6H15V8h4.98v5z"/><path d="M21.752 4.053H3.497c-.276 0-.5.224-.5.5v.94H.504c-.276 0-.5.224-.5.5V18.01c0 1.1.912 2.025 1.992 2.025.024 0 .047-.007.07-.008.007 0 .012.004.02.004H21.81c1.2 0 2.176-.988 2.176-2.205V6.38c0-1.284-1.004-2.327-2.236-2.327zM1.004 18.01V6.494h1.993v11.51c0 .55-.467 1.032-1 1.032-.53 0-.993-.478-.993-1.024zm21.983-.184c0 .677-.517 1.206-1.176 1.206H3.704c.182-.305.293-.655.293-1.028V5.994v-.942H21.75c.67 0 1.236.608 1.236 1.327v11.446z"/></svg>