<svg xmlns="http://www.w3.org/2000/svg" width="24" height="24" viewBox="0 0 24 24"><path d="M6.452 15.99h2.99c.275 0 .5-.224.5-.5v-3.008c0-.276-.225-.5-.5-.5H6.45c-.276 0-.5.224-.5.5v3.008c0 .276.223.5.5.5zm.5-3.008h1.99v2.008H6.95v-2.008zM6.452 9.99h2.99c.275 0 .5-.224.5-.5V6.48c0-.275-.225-.5-.5-.5H6.45c-.276 0-.5.225-.5.5v3.01c0 .276.223.5.5.5zm.5-3.01h1.99v2.01H6.95V6.98z"/><path d="M22.602 10.076L15 8.493V1.006c0-.146-.063-.284-.174-.38-.11-.094-.25-.134-.4-.115L1.41 2.457c-.246.037-.427.247-.427.495V23.5c0 .276.224.5.5.5H22.5c.276 0 .5-.224.5-.5V10.565c0-.237-.166-.44-.398-.49zM1.982 3.382L14 1.586V23H9.94v-4.456c0-.276-.223-.5-.5-.5H6.453c-.276 0-.5.224-.5.5V23h-3.97V3.382zm4.97 19.6v-3.94h1.99v3.94H6.95zM22 23h-3.045v-2.482c0-.276-.224-.5-.5-.5s-.5.224-.5.5V23H15V9.514l7 1.458V23z"/><path d="M18.455 17.97c.276 0 .5-.225.5-.5v-1.08c0-.277-.224-.5-.5-.5s-.5.223-.5.5v1.08c0 .275.224.5.5.5zM18.455 14.97c.276 0 .5-.225.5-.5v-1.08c0-.277-.224-.5-.5-.5s-.5.223-.5.5v1.08c0 .275.224.5.5.5z"/></svg>