<svg xmlns="http://www.w3.org/2000/svg" width="24" height="24" viewBox="0 0 24 24"><path d="M11.998 7.366c-2.563 0-4.648 2.085-4.648 4.648 0 2.562 2.085 4.647 4.648 4.647 2.562 0 4.647-2.084 4.647-4.646 0-2.563-2.084-4.648-4.647-4.648zm0 8.296c-2.012 0-3.648-1.637-3.648-3.647 0-2.012 1.636-3.648 3.648-3.648 2.01 0 3.647 1.636 3.647 3.648 0 2.01-1.636 3.647-3.647 3.647z"/><path d="M23.583 10.398c-.03-.223-.207-.398-.43-.427l-2.7-.353c-.186-.655-.447-1.287-.78-1.884l1.66-2.16c.137-.18.138-.428.002-.607-.652-.864-1.422-1.633-2.284-2.286-.18-.135-.427-.135-.605.002l-2.16 1.66c-.598-.335-1.23-.597-1.886-.783l-.355-2.7c-.03-.224-.204-.4-.428-.43-1.1-.154-2.126-.155-3.23-.002-.223.03-.397.207-.427.43l-.354 2.7c-.658.186-1.29.448-1.89.783l-2.16-1.66c-.18-.137-.427-.138-.606-.002-.85.644-1.64 1.433-2.284 2.283-.137.18-.136.43 0 .608l1.66 2.16c-.334.598-.597 1.232-.784 1.89l-2.7.355c-.223.03-.4.204-.43.427-.148 1.072-.148 2.158 0 3.23.03.223.207.397.43.427l2.7.354c.186.66.45 1.294.785 1.893l-1.66 2.16c-.137.18-.138.427-.002.606.645.85 1.435 1.64 2.285 2.28.18.137.427.135.606-.002l2.16-1.66c.6.335 1.232.598 1.89.783l.354 2.7c.03.224.204.4.428.43.55.077 1.08.114 1.61.114.534 0 1.067-.038 1.62-.114.223-.03.397-.207.427-.43l.354-2.7c.655-.188 1.287-.45 1.885-.784l2.16 1.66c.18.138.428.137.606.002.862-.65 1.632-1.42 2.285-2.285.136-.18.135-.428-.002-.606l-1.66-2.16c.334-.6.596-1.23.78-1.885l2.7-.354c.223-.03.4-.204.43-.428.153-1.103.153-2.13 0-3.232zm-.944 2.718l-2.65.347c-.205.027-.372.178-.42.38-.19.783-.5 1.534-.925 2.23-.107.177-.096.4.03.565l1.63 2.12c-.467.57-.988 1.093-1.56 1.558l-2.118-1.63c-.166-.125-.39-.138-.566-.03-.692.427-1.443.738-2.23.928-.2.05-.352.216-.38.42l-.346 2.65c-.744.078-1.46.077-2.203.002l-.346-2.647c-.027-.207-.177-.374-.38-.423-.788-.19-1.54-.5-2.234-.927-.176-.106-.402-.096-.566.03l-2.12 1.63c-.565-.462-1.095-.99-1.557-1.558l1.628-2.118c.126-.164.138-.39.03-.566-.426-.695-.74-1.447-.928-2.237-.048-.2-.216-.35-.42-.378l-2.65-.347c-.074-.73-.074-1.47 0-2.2l2.65-.348c.204-.027.372-.177.42-.38.19-.79.502-1.54.928-2.236.108-.176.097-.4-.03-.565l-1.628-2.12c.462-.564.99-1.094 1.558-1.555l2.12 1.628c.163.127.39.14.565.03.695-.425 1.447-.737 2.235-.926.2-.048.352-.216.38-.42l.346-2.65c.747-.076 1.46-.076 2.204.002l.347 2.65c.028.204.18.372.38.42.787.19 1.538.5 2.23.926.18.107.4.096.567-.03l2.12-1.63c.57.466 1.092.988 1.557 1.56l-1.63 2.12c-.126.164-.138.39-.03.566.426.694.736 1.445.925 2.23.048.202.215.352.42.38l2.65.346c.077.744.077 1.46 0 2.204z"/></svg>