<svg xmlns="http://www.w3.org/2000/svg" width="24" height="24" viewBox="0 0 24 24"><path d="M12.004.215C5.492.215.194 5.512.194 12.025c0 6.51 5.298 11.81 11.81 11.81s11.81-5.3 11.81-11.81C23.81 5.51 18.515.214 12.003.214zm0 22.62c-5.96 0-10.81-4.85-10.81-10.81 0-5.96 4.85-10.81 10.81-10.81s10.81 4.85 10.81 10.81c-.002 5.96-4.85 10.81-10.81 10.81z"/><path d="M11.008 9.547c0-1.35-1.098-2.446-2.447-2.446S6.116 8.2 6.116 9.548s1.097 2.447 2.446 2.447 2.448-1.098 2.448-2.447zm-3.893 0c0-.797.65-1.446 1.446-1.446.8 0 1.448.65 1.448 1.447 0 .798-.65 1.447-1.447 1.447-.796 0-1.445-.65-1.445-1.447zM15.47 7.1c-1.35 0-2.448 1.098-2.448 2.447s1.098 2.447 2.447 2.447c1.348 0 2.445-1.098 2.445-2.447S16.817 7.1 15.47 7.1zm0 3.894c-.8 0-1.448-.65-1.448-1.447S14.672 8.1 15.47 8.1s1.445.65 1.445 1.447c0 .798-.648 1.447-1.446 1.447zM12.003 13.983c-1.696 0-3.246 1.24-3.95 3.158-.094.26.04.548.3.643.26.096.546-.04.64-.298.557-1.52 1.738-2.502 3.01-2.502s2.453.982 3.01 2.502c.073.202.265.328.47.328.056 0 .114-.01.17-.03.26-.095.394-.382.3-.642-.703-1.918-2.253-3.157-3.95-3.157z"/></svg>