<svg xmlns="http://www.w3.org/2000/svg" width="24" height="24" viewBox="0 0 24 24"><path d="M22.292 5.156l-1.47-1.49c-.144-.15-.35-.214-.57-.183-.157.026-.308.106-.42.223L18.565 4.99c-.356.364-.053.684.407 1.168.25.264.57.59.832.844.135.13.254.245.342.324.197.178.363.242.5.242.144 0 .254-.07.335-.152l1.267-1.283c.116-.12.192-.268.215-.414.036-.216-.026-.422-.17-.564zM20.6 6.38c-.295-.284-.725-.72-1-1.014l.747-.758 1 1.013-.748.76zM16.115 9.187l-4.887 5.026c-.192.198-.188.515.01.707.097.095.223.142.35.142.13 0 .26-.05.357-.15l4.887-5.027c.192-.198.188-.515-.01-.707-.198-.192-.514-.188-.707.01z"/><path d="M14 4.682V4h.5c.276 0 .5-.224.5-.5V1c0-.55-.448-1-1-1h-4c-.55 0-1 .448-1 1v2.5c0 .276.224.5.5.5h.5v.705c-4.3.95-7.53 4.833-7.53 9.468 0 5.346 4.294 9.695 9.573 9.695s9.574-4.35 9.574-9.695c0-4.667-3.274-8.573-7.617-9.49zM10.5 3H10V1h4v2h-.5c-.276 0-.5.223-.5.5v1.026c-.315-.032-.634-.05-.958-.05-.353 0-.7.023-1.042.06V3.5c0-.277-.224-.5-.5-.5zm1.542 19.868c-4.728 0-8.574-3.9-8.574-8.695s3.846-8.696 8.574-8.696 8.574 3.9 8.574 8.696-3.845 8.695-8.574 8.695z"/></svg>