<svg xmlns="http://www.w3.org/2000/svg" width="24" height="24" viewBox="0 0 24 24"><path d="M21.98 3.327c0-2.09-4.98-3.183-9.895-3.183S2.192 1.238 2.192 3.327c0 .012.005.023.005.034 0 .01-.004.02-.003.03L3.89 21.566c0 .263.12.494.32.703.016.025.027.053.05.075.024.024.054.035.08.053 1.316 1.112 5.24 1.437 7.746 1.437 3.044 0 8.197-.478 8.195-2.223L21.98 3.39l-.003-.03c0-.01.004-.02.004-.033zm-2.65 17.72l-2.267-2.293 2.755-2.94-.487 5.232zm-7.244-5.9l3.59 3.625-3.59 3.83-3.6-3.82 3.6-3.636zM7.8 18.053l-3.38-3.59 3.496-3.53 3.466 3.502-3.58 3.618zm4.99-3.618l3.478-3.515 3.485 3.502-3.394 3.62-3.57-3.606zm-.704-.71L8.62 10.222l3.467-3.503 3.476 3.492-3.477 3.513zm1.18-7.24c3.07-.11 6-.646 7.555-1.587l-4.553 4.6-3-3.013zm-5.35 3.026L3.35 4.9c1.558.94 4.487 1.478 7.56 1.588L7.916 9.512zm-.703.71l-3.088 3.12-.64-6.887 3.728 3.768zM4.36 15.86l2.738 2.907-2.255 2.278-.483-5.185zm3.423 3.636l3.123 3.317c-2.733-.098-4.637-.524-5.5-.914l2.377-2.402zm8.596-.01l2.393 2.42c-.86.38-2.768.808-5.512.907l3.12-3.326zm3.67-6.18l-3.08-3.094 3.717-3.755-.636 6.85zm-7.965-12.16c5.425 0 8.888 1.29 8.893 2.18v.008c-.014.89-3.473 2.178-8.89 2.178h-.005-.003c-5.416 0-8.874-1.288-8.887-2.177v-.008c.005-.89 3.468-2.18 8.892-2.18z"/></svg>