<svg xmlns="http://www.w3.org/2000/svg" width="24" height="24" viewBox="0 0 24 24"><path d="M20.918 9.068c-.015-.025-.036-.04-.055-.063-.026-.03-.044-.065-.077-.087-.022-.016-.05-.017-.075-.03-.015-.007-.023-.024-.04-.03L13.69 6.31c-.255-.094-.546.04-.64.3-.096.258.038.545.298.64l5.696 2.077-7.54 2.754L3.96 9.33 9.7 7.236c.26-.094.395-.38.3-.64-.094-.26-.38-.394-.64-.3L2.33 8.86c-.018.006-.025.023-.04.03-.026.012-.054.014-.077.03-.032.022-.05.058-.076.087-.02.022-.04.038-.055.062-.05.08-.082.166-.082.26v10.636c0 .21.13.397.33.47l9 3.288c.055.022.113.03.17.03s.116-.01.17-.03l9-3.287c.198-.072.33-.26.33-.47V9.327c0-.094-.033-.18-.082-.26zM3 10.042l.053.02L11 12.964v9.572l-8-2.923v-9.572zm9 12.495v-9.57l8-2.924v9.57l-8 2.924z"/><path d="M9.24 4.024L11 2.22v6.987c0 .276.224.5.5.5s.5-.224.5-.5V2.2l1.828 1.827c.098.098.226.146.354.146s.256-.05.354-.146c.195-.195.195-.512 0-.707L11.856.64c-.047-.046-.102-.083-.163-.108-.06-.025-.126-.04-.192-.04-.142-.044-.255.05-.348.144l-.005.004-.003.003-2.62 2.68c-.193.2-.19.516.008.71.198.192.515.188.707-.01z"/></svg>