<svg xmlns="http://www.w3.org/2000/svg" width="24" height="24" viewBox="0 0 24 24"><path d="M23.5 6h-6.258L13.62 2.612c.097-.22.152-.46.152-.713C13.772.92 12.977.126 12 .126S10.228.922 10.228 1.9c0 .3.082.577.213.824L6.76 6H.5c-.276 0-.5.223-.5.5v17c0 .276.224.5.5.5h23c.276 0 .5-.224.5-.5v-17c0-.277-.224-.5-.5-.5zM12 1.127c.426 0 .772.346.772.772s-.346.77-.772.77-.772-.346-.772-.77.346-.773.772-.773zm-.86 2.313c.257.143.547.23.86.23.36 0 .694-.108.974-.293L15.778 6H8.263l2.878-2.56zM23 7v2H1V7h22zM1 23V10h22v13H1z"/><path d="M5.492 19.95h-.935c-.276 0-.5.224-.5.5s.224.5.5.5h.935c.276 0 .5-.224.5-.5s-.224-.5-.5-.5zM8.534 19.95H7.6c-.277 0-.5.224-.5.5s.223.5.5.5h.934c.276 0 .5-.224.5-.5s-.224-.5-.5-.5zM11.47 19.95h-.936c-.276 0-.5.224-.5.5s.224.5.5.5h.935c.275 0 .5-.224.5-.5s-.224-.5-.5-.5zM14.47 19.95h-.935c-.276 0-.5.224-.5.5s.224.5.5.5h.935c.276 0 .5-.224.5-.5s-.224-.5-.5-.5zM5.492 17.95h-.935c-.276 0-.5.224-.5.5s.224.5.5.5h.935c.276 0 .5-.224.5-.5s-.224-.5-.5-.5zM8.534 17.95H7.6c-.277 0-.5.224-.5.5s.223.5.5.5h.934c.276 0 .5-.224.5-.5s-.224-.5-.5-.5zM11.47 17.95h-.936c-.276 0-.5.224-.5.5s.224.5.5.5h.935c.275 0 .5-.224.5-.5s-.224-.5-.5-.5zM14.47 17.95h-.935c-.276 0-.5.224-.5.5s.224.5.5.5h.935c.276 0 .5-.224.5-.5s-.224-.5-.5-.5zM17.47 17.95h-.935c-.276 0-.5.224-.5.5s.224.5.5.5h.935c.276 0 .5-.224.5-.5s-.224-.5-.5-.5zM20.47 17.95h-.935c-.276 0-.5.224-.5.5s.224.5.5.5h.936c.277 0 .5-.224.5-.5s-.223-.5-.5-.5zM5.492 15.95h-.935c-.276 0-.5.224-.5.5s.224.5.5.5h.935c.276 0 .5-.224.5-.5s-.224-.5-.5-.5zM8.534 15.95H7.6c-.277 0-.5.224-.5.5s.223.5.5.5h.934c.276 0 .5-.224.5-.5s-.224-.5-.5-.5zM11.47 15.95h-.936c-.276 0-.5.224-.5.5s.224.5.5.5h.935c.275 0 .5-.224.5-.5s-.224-.5-.5-.5zM14.47 15.95h-.935c-.276 0-.5.224-.5.5s.224.5.5.5h.935c.276 0 .5-.224.5-.5s-.224-.5-.5-.5zM17.47 15.95h-.935c-.276 0-.5.224-.5.5s.224.5.5.5h.935c.276 0 .5-.224.5-.5s-.224-.5-.5-.5zM20.47 15.95h-.935c-.276 0-.5.224-.5.5s.224.5.5.5h.936c.277 0 .5-.224.5-.5s-.223-.5-.5-.5zM5.492 13.95h-.935c-.276 0-.5.223-.5.5s.224.5.5.5h.935c.276 0 .5-.225.5-.5s-.224-.5-.5-.5zM8.534 13.95H7.6c-.277 0-.5.223-.5.5s.223.5.5.5h.934c.276 0 .5-.225.5-.5s-.224-.5-.5-.5zM11.47 13.95h-.936c-.276 0-.5.223-.5.5s.224.5.5.5h.935c.275 0 .5-.225.5-.5s-.224-.5-.5-.5zM14.47 13.95h-.935c-.276 0-.5.223-.5.5s.224.5.5.5h.935c.276 0 .5-.225.5-.5s-.224-.5-.5-.5zM17.47 13.95h-.935c-.276 0-.5.223-.5.5s.224.5.5.5h.935c.276 0 .5-.225.5-.5s-.224-.5-.5-.5zM20.47 13.95h-.935c-.276 0-.5.223-.5.5s.224.5.5.5h.936c.277 0 .5-.225.5-.5s-.223-.5-.5-.5zM14.47 11.95h-.935c-.276 0-.5.223-.5.5s.224.5.5.5h.935c.276 0 .5-.225.5-.5s-.224-.5-.5-.5zM17.47 11.95h-.935c-.276 0-.5.223-.5.5s.224.5.5.5h.935c.276 0 .5-.225.5-.5s-.224-.5-.5-.5zM20.47 11.95h-.935c-.276 0-.5.223-.5.5s.224.5.5.5h.936c.277 0 .5-.225.5-.5s-.223-.5-.5-.5z"/></svg>