<svg xmlns="http://www.w3.org/2000/svg" width="24" height="24" viewBox="0 0 24 24"><path d="M21.144 0H2.874C1.295 0 .01 1.285.01 2.865v18.27C.01 22.715 1.295 24 2.875 24h18.27c1.58 0 2.864-1.285 2.864-2.865V2.865C24.01 1.285 22.723 0 21.143 0zm1.865 21.135c0 1.028-.838 1.865-1.866 1.865H2.874c-1.027 0-1.864-.837-1.864-1.865V2.865C1.01 1.837 1.846 1 2.875 1h18.27c1.027 0 1.864.837 1.864 1.865v18.27z"/><path d="M8.98 13H5.02C4.458 13 4 13.457 4 14.02v3.96c0 .563.458 1.02 1.02 1.02h3.96c.563 0 1.02-.457 1.02-1.02v-3.96c0-.563-.457-1.02-1.02-1.02zm0 5L5 17.98 5.02 14h3.96c.012 0 .02.01.02.02L8.98 18zM19.438 14h-6.896c-.276 0-.5.224-.5.5s.224.5.5.5h6.896c.276 0 .5-.224.5-.5s-.224-.5-.5-.5zM19.438 16h-6.896c-.276 0-.5.224-.5.5s.224.5.5.5h6.896c.276 0 .5-.224.5-.5s-.224-.5-.5-.5zM8.98 4H5.02C4.458 4 4 4.456 4 5.02v3.96C4 9.542 4.458 10 5.02 10h3.96C9.544 10 10 9.54 10 8.98V5.02C10 4.456 9.542 4 8.98 4zm0 5L5 8.98 5.02 5h3.96c.01 0 .02.008.02.02L8.98 9zM19.438 5h-6.896c-.276 0-.5.223-.5.5s.224.5.5.5h6.896c.276 0 .5-.225.5-.5s-.224-.5-.5-.5zM19.438 7h-6.896c-.276 0-.5.223-.5.5s.224.5.5.5h6.896c.276 0 .5-.225.5-.5s-.224-.5-.5-.5z"/></svg>