<svg xmlns="http://www.w3.org/2000/svg" width="24" height="24" viewBox="0 0 24 24"><path d="M20.838 2.306c-2.92-2.68-5.61-1.875-8.21-1.093C10.574 1.83 8.448 2.45 6 1.53V1c0-.276-.224-.5-.5-.5S5 .723 5 1v22c0 .276.224.5.5.5s.5-.224.5-.5v-9.552c.663.107 1.326.17 1.986.17 1.488 0 2.962-.222 4.406-.438 2.74-.414 5.324-.8 7.928.206.155.062.327.04.463-.054.136-.093.217-.247.217-.412V2.675c0-.14-.06-.274-.162-.37zM20 12.218c-2.623-.8-5.23-.41-7.757-.027-2.152.325-4.192.632-6.243.264V2.606c2.618.854 4.89.173 6.916-.436 2.49-.746 4.65-1.394 7.084.728v9.32z"/></svg>