<svg xmlns="http://www.w3.org/2000/svg" width="24" height="24" viewBox="0 0 24 24"><path d="M23.802 10.664c.025-.06.04-.126.04-.192s-.015-.132-.04-.192-.062-.116-.108-.162L20.38 6.804c-.196-.195-.513-.195-.708 0s-.195.512 0 .707l2.462 2.462H11.49c-.277 0-.5.224-.5.5s.223.5.5.5h10.644l-2.462 2.462c-.195.195-.195.512 0 .707.098.1.226.147.354.147s.256-.05.354-.146l3.315-3.314c.045-.046.082-.1.107-.162z"/><path d="M15.396 12.98c-.276 0-.5.225-.5.5v4.554H8.083V4.782c0-.175-.09-.337-.24-.428L2.27.974h12.625V7.46c0 .277.224.5.5.5s.5-.223.5-.5V.475c0-.276-.224-.5-.5-.5H.482c-.082 0-.156.024-.224.06-.007.003-.015 0-.02.005C.224.045.22.06.207.066.158.1.115.143.078.193.07.21.055.227.045.246.007.316-.018.39-.018.474V18.78c0 .174.09.336.24.427l7.103 4.308c.08.048.17.072.26.072.083 0 .168-.02.244-.064.157-.09.254-.255.254-.436v-4.053h7.312c.276 0 .5-.224.5-.5V13.48c0-.275-.224-.5-.5-.5zM7.083 22.2L.98 18.497V1.363l6.103 3.7V22.2z"/></svg>