<svg xmlns="http://www.w3.org/2000/svg" width="24" height="24" viewBox="0 0 24 24"><path d="M21.107 0H2.737C1.15 0 0 1.163 0 2.765v18.43C0 22.82 1.15 24 2.737 24h18.37C22.73 24 24 22.767 24 21.195V2.765C24 1.19 22.757 0 21.107 0zM2.737 1h18.37C22.187 1 23 1.76 23 2.765V7H1V2.765C1 1.71 1.698 1 2.737 1zM10 15v-3h4v3h-4zm4 1v3h-4v-3h4zm-5-1H5v-3h4v3zm6-3h4v3h-4v-3zm0-1V8h4v3h-4zm-1 0h-4V8h4v3zm-5 0H5V8h4v3zm-5 0H1V8h3v3zm0 1v3H1v-3h3zm0 4v3H1v-3h3zm1 0h4v3H5v-3zm4 4v3H5v-3h4zm1 0h4v3h-4v-3zm5 0h4v3h-4v-3zm0-1v-3h4v3h-4zm5-3h3v3h-3v-3zm0-1v-3h3v3h-3zm0-4V8h3v3h-3zM1 21.195V20h3v3H2.737C1.714 23 1 22.258 1 21.195zM21.107 23H20v-3h3v1.195c0 1.03-.813 1.805-1.893 1.805z"/><path d="M7.642 4.897c.735 0 1.333-.598 1.333-1.333 0-.734-.598-1.332-1.333-1.332-.734 0-1.332.598-1.332 1.332 0 .735.597 1.333 1.332 1.333zm0-1.665c.184 0 .333.15.333.332 0 .184-.15.333-.333.333-.183 0-.332-.15-.332-.333 0-.183.148-.332.332-.332zM16.358 4.897c.734 0 1.332-.598 1.332-1.333 0-.734-.598-1.332-1.332-1.332s-1.332.598-1.332 1.332c0 .735.598 1.333 1.332 1.333zm0-1.665c.183 0 .332.15.332.332 0 .184-.15.333-.332.333s-.332-.15-.332-.333c0-.183.15-.332.332-.332z"/></svg>