<svg xmlns="http://www.w3.org/2000/svg" width="24" height="24" viewBox="0 0 24 24"><path d="M12 17H4c-.276 0-.5.224-.5.5s.224.5.5.5h8c.276 0 .5-.224.5-.5s-.224-.5-.5-.5zM12 14H4c-.276 0-.5.224-.5.5s.224.5.5.5h8c.276 0 .5-.224.5-.5s-.224-.5-.5-.5zM12 11H4c-.276 0-.5.224-.5.5s.224.5.5.5h8c.276 0 .5-.224.5-.5s-.224-.5-.5-.5zM4 9h3c.276 0 .5-.224.5-.5S7.276 8 7 8H4c-.276 0-.5.223-.5.5s.224.5.5.5zM24 17.5v-15C24 1.1 22.945 0 21.6 0h-1.125C19.11 0 18 1.122 18 2.5v15c0 .03 0 .057.035.174.003.01.004.018.008.026.11.365.512 1.503 1.985 5.563.14.438.526.732.96.733h.002c.432 0 .804-.287.94-.712 1.503-4.074 1.912-5.216 2.025-5.583l.01-.03c.035-.114.035-.14.035-.17zm-2.348 3.627h-1.334c-.435-1.206-.87-2.416-1.12-3.127h3.6c-.255.71-.7 1.92-1.146 3.127zM19 2.5c0-.84.647-1.5 1.475-1.5H21.6c.798 0 1.4.645 1.4 1.5V17h-4V2.5zm1.975 20.44l-.295-.813h.6c-.106.282-.21.556-.305.813z"/><path d="M11.92.148C11.828.053 11.7 0 11.567 0H1.386C.645 0 0 .604 0 1.294v21.412C0 23.396.647 24 1.385 24H14.7c.716 0 1.3-.58 1.3-1.294V4.466c0-.13-.052-.257-.145-.35L11.92.147zm.146 1.566L14.3 3.967h-2.234V1.714zM14.7 23H1.384c-.18 0-.385-.156-.385-.294V1.294C1 1.16 1.208 1 1.385 1h9.68v3.467c0 .276.225.5.5.5H15v17.74c0 .155-.14.293-.3.293z"/></svg>