<svg xmlns="http://www.w3.org/2000/svg" width="24" height="24" viewBox="0 0 24 24"><path d="M23.744 9.853c-.158-.09-.35-.086-.505.01L18 13.068v-2.78c0-.18-.098-.348-.256-.436-.158-.09-.35-.086-.505.01L12 13.068v-2.78c0-.18-.097-.346-.254-.435-.157-.088-.35-.085-.504.007l-5.565 3.353L5.205.48c-.01-.267-.23-.48-.5-.48h-3.63c-.27 0-.493.217-.5.488l-.54 23c-.004.135.047.265.14.36.095.097.223.152.358.152H23.5c.276 0 .5-.224.5-.5V10.29c0-.182-.098-.35-.256-.437zM11 11.173v11.828H6.04l-.32-8.643L11 11.174zM1.045 23l.52-22h2.658l.485 13.085c0 .006-.004.01-.004.017l.332 8.824.003.074H1.044zM12 14.24l5-3.06V23h-5v-8.76zM23 23h-5v-8.76l5-3.06V23z"/><path d="M8.507 17.135c.276 0 .5-.224.5-.5v-1.257c0-.276-.224-.5-.5-.5s-.5.224-.5.5v1.257c0 .276.223.5.5.5zM14.508 14.878c-.276 0-.5.224-.5.5v1.257c0 .276.224.5.5.5s.5-.224.5-.5v-1.257c0-.277-.224-.5-.5-.5zM20.508 17.135c.276 0 .5-.224.5-.5v-1.257c0-.276-.224-.5-.5-.5s-.5.224-.5.5v1.257c0 .276.223.5.5.5z"/></svg>