<svg xmlns="http://www.w3.org/2000/svg" width="24" height="24" viewBox="0 0 24 24"><path d="M23.347 10.344l-10.17-8.81c-.035-.03-.076-.055-.122-.074-.65-.494-1.55-.47-2.178.073l-10.17 8.81c-.73.63-.822 1.75-.205 2.497.39.472 1.037.466 1.533.366v9.47c0 .716.574 1.298 1.28 1.298h6.127c.276 0 .5-.224.5-.5v-8.26h4.17v8.26c0 .276.224.5.5.5h6.127c.705 0 1.28-.582 1.28-1.297v-9.47c.497.097 1.142.104 1.532-.367.616-.746.524-1.867-.205-2.496zm-.566 1.858c-.102.12-.635.055-1.06-.13-.156-.07-.336-.053-.475.04-.14.09-.227.25-.227.417v10.146c0 .164-.126.297-.28.297H15.11v-8.26c0-.276-.223-.5-.5-.5H9.44c-.275 0-.5.224-.5.5v8.26H3.315c-.154 0-.28-.133-.28-.297V12.53c0-.17-.085-.328-.227-.42-.14-.09-.32-.105-.475-.04-.378.168-.953.262-1.06.13-.274-.33-.235-.823.087-1.102l10.17-8.81c.278-.24.68-.24.96 0 .035.03.076.057.12.076L22.69 11.1c.323.278.362.772.09 1.102z"/></svg>