<svg xmlns="http://www.w3.org/2000/svg" width="24" height="24" viewBox="0 0 24 24"><path d="M9.518 14.006h-3.05c-.275 0-.5.224-.5.5v3.04c0 .276.225.5.5.5h3.05c.276 0 .5-.224.5-.5v-3.04c0-.277-.224-.5-.5-.5zm-.5 3.04h-2.05v-2.04h2.05v2.04z"/><path d="M23.832 10.96L12.327 1.22c-.187-.158-.46-.158-.646 0L.176 10.96c-.21.18-.237.494-.06.705.18.21.496.236.706.06l1.156-.98v12.737c0 .276.224.5.5.5H21.53c.276 0 .5-.224.5-.5V10.745l1.155.978c.094.08.21.118.323.118.142 0 .282-.06.382-.176.178-.21.153-.526-.058-.704zM12.95 22.98v-7.975h4.056v7.976H12.95zm8.08 0h-3.024v-8.475c0-.276-.224-.5-.5-.5H12.45c-.276 0-.5.224-.5.5v8.476H2.977V9.9l9.027-7.644L21.03 9.9v13.08z"/></svg>