<svg xmlns="http://www.w3.org/2000/svg" width="24" height="24" viewBox="0 0 24 24"><path d="M12 1.022C5.833 1.022.22 2.87.22 4.98c0 1.78 2.603 4.635 5.123 7.395 1.518 1.663 2.955 3.238 3.503 4.248v4.575c0 1.25 1.584 1.81 3.155 1.81 1.57 0 3.153-.56 3.153-1.81v-4.575c.548-1.01 1.984-2.585 3.503-4.25 2.52-2.76 5.123-5.613 5.123-7.394v-.084C23.777 2.868 18.163 1.022 12 1.022zM22.777 4.98c0 1.393-2.695 4.347-4.86 6.72-1.62 1.773-3.147 3.448-3.713 4.577-.034.07-.053.146-.053.224V21.2c0 .44-.985.81-2.152.81-1.168 0-2.155-.37-2.155-.81V16.5c0-.077-.018-.153-.053-.223-.565-1.13-2.093-2.804-3.71-4.576-2.167-2.373-4.863-5.327-4.863-6.804C1.22 4.043 5.402 2.02 12 2.02c6.595 0 10.778 2.022 10.778 2.876v.084z"/><path d="M22.052 4.852c-.24-.13-.545-.044-.68.198-.595 1.085-4.625 1.903-9.374 1.903-4.75 0-8.778-.818-9.373-1.903-.133-.24-.436-.33-.68-.198-.242.133-.33.437-.197.68 1.266 2.304 8.76 2.42 10.25 2.42 1.493 0 8.987-.117 10.252-2.42.133-.243.044-.547-.198-.68z"/></svg>