<svg xmlns="http://www.w3.org/2000/svg" width="24" height="24" viewBox="0 0 24 24"><path d="M23.618 6.648L17.35.383c-.242-.242-.577-.38-.92-.38H7.565c-.343 0-.678.138-.92.38L.38 6.65c-.244.24-.383.576-.383.92v8.866c0 .343.14.678.38.92l6.268 6.27c.243.24.578.38.92.38h8.864c.346 0 .673-.135.92-.38l6.272-6.27c.244-.248.378-.574.378-.92V7.57c0-.35-.135-.676-.382-.922zM23 16.435c0 .08-.03.158-.086.214l-6.27 6.267c-.06.058-.134.09-.214.09H7.565c-.08 0-.157-.033-.213-.09l-6.267-6.27c-.056-.056-.088-.133-.088-.212V7.57c0-.08.032-.157.09-.213L7.35 1.09c.056-.056.134-.088.213-.088h8.864c.078 0 .155.032.212.088l6.27 6.266c.058.057.09.133.09.213v8.865z"/><path d="M17.062 7.15c-.195-.196-.512-.196-.707 0L12 11.504 7.644 7.15c-.195-.196-.512-.196-.707 0s-.195.51 0 .706l4.355 4.356-4.355 4.356c-.195.195-.195.512 0 .707.098.098.226.146.354.146s.257-.048.355-.145L12 12.92l4.355 4.355c.098.098.226.146.354.146s.255-.048.353-.145c.195-.195.195-.512 0-.707l-4.355-4.356 4.355-4.356c.194-.196.194-.512 0-.707z"/></svg>