<svg xmlns="http://www.w3.org/2000/svg" width="24" height="24" viewBox="0 0 24 24"><path d="M23.267 13.884c-.005-.07-.02-.138-.056-.203l-4.457-8.327c-.12-.225-1.222-2.184-2.822-2.184h-.017c-.98.008-1.852.746-2.595 2.19-.127.246-.03.548.216.674.244.126.547.03.673-.216.385-.748.995-1.642 1.714-1.65h.01c.856 0 1.692 1.197 1.942 1.658l3.144 5.874c-.788-.365-1.702-.587-2.69-.587-2.053 0-3.816.917-4.664 2.235-1.084-.212-2.2-.187-3.272.074-.828-1.36-2.624-2.31-4.716-2.31-.98 0-1.888.22-2.672.58L6.114 5.88C6.346 5.448 7.2 4.22 8.056 4.22h.008c.72.007 1.33.9 1.714 1.65.125.244.426.34.673.215.247-.126.343-.428.217-.673C9.924 3.967 9.052 3.23 8.074 3.22c-1.654 0-2.72 1.958-2.84 2.185L.893 13.51l-.037.07-.082.154c-.03.058-.047.12-.054.18-.15.372-.256.76-.256 1.168 0 2.188 2.337 3.97 5.21 3.97s5.21-1.78 5.21-3.97c0-.25-.04-.49-.096-.726.8-.173 1.624-.198 2.435-.07-.07.257-.106.523-.106.796 0 2.188 2.337 3.97 5.21 3.97s5.21-1.78 5.21-3.97c0-.42-.11-.818-.27-1.198zM5.674 18.052c-2.32 0-4.21-1.332-4.21-2.97 0-.367.107-.716.28-1.04l.087-.16c.657-1.04 2.13-1.77 3.844-1.77 2.32 0 4.21 1.332 4.21 2.97s-1.89 2.97-4.21 2.97zm12.652 0c-2.32 0-4.21-1.332-4.21-2.97s1.89-2.97 4.21-2.97 4.21 1.333 4.21 2.97-1.89 2.97-4.21 2.97z"/></svg>