<svg xmlns="http://www.w3.org/2000/svg" width="24" height="24" viewBox="0 0 24 24"><path d="M21.146 0H2.876C1.297 0 .013 1.285.013 2.865v18.27C.012 22.715 1.297 24 2.877 24h18.27c1.58 0 2.864-1.285 2.864-2.865V2.865C24.013 1.285 22.728 0 21.147 0zm1.866 21.135c0 1.028-.837 1.865-1.865 1.865H2.877c-1.028 0-1.865-.837-1.865-1.865V2.865C1.012 1.837 1.85 1 2.877 1h18.27c1.027 0 1.864.837 1.864 1.865v18.27z"/><path d="M10.398 16H4.53c-.275 0-.5.224-.5.5s.225.5.5.5H10.4c.276 0 .5-.224.5-.5s-.224-.5-.5-.5zM10.398 19H4.53c-.275 0-.5.224-.5.5s.225.5.5.5H10.4c.276 0 .5-.224.5-.5s-.224-.5-.5-.5zM19.398 16H13.53c-.275 0-.5.224-.5.5s.225.5.5.5H19.4c.276 0 .5-.224.5-.5s-.223-.5-.5-.5zM19.398 19H13.53c-.275 0-.5.224-.5.5s.225.5.5.5H19.4c.276 0 .5-.224.5-.5s-.223-.5-.5-.5zM19.398 10H13.53c-.275 0-.5.224-.5.5s.225.5.5.5H19.4c.276 0 .5-.224.5-.5s-.223-.5-.5-.5zM19.398 7H13.53c-.275 0-.5.223-.5.5s.225.5.5.5H19.4c.276 0 .5-.225.5-.5s-.223-.5-.5-.5zM19.4 4H4.53c-.276 0-.5.224-.5.5s.223.5.5.5H19.4c.276 0 .5-.224.5-.5s-.224-.5-.5-.5zM19.398 13H13.53c-.275 0-.5.224-.5.5s.225.5.5.5H19.4c.276 0 .5-.224.5-.5s-.223-.5-.5-.5zM10.5 7h-6c-.276 0-.5.223-.5.5v6c0 .276.224.5.5.5h6c.276 0 .5-.224.5-.5v-6c0-.277-.224-.5-.5-.5zm-.5 6H5V8h5v5z"/></svg>