<svg xmlns="http://www.w3.org/2000/svg" width="24" height="24" viewBox="0 0 24 24"><path d="M15.45 12H12V6.552c0-.276-.224-.5-.5-.5s-.5.224-.5.5V12.5c0 .276.224.5.5.5h3.95c.277 0 .5-.224.5-.5s-.222-.5-.5-.5z"/><path d="M12.002 3.87c-4.478 0-8.12 3.643-8.12 8.12s3.642 8.122 8.12 8.122 8.12-3.643 8.12-8.12-3.642-8.122-8.12-8.122zm0 15.242c-3.926 0-7.12-3.194-7.12-7.12C4.88 8.063 8.074 4.87 12 4.87s7.12 3.194 7.12 7.12c0 3.928-3.193 7.122-7.12 7.122z"/><path d="M17.106 19.755c-.267-.05-.533.124-.586.396L15.97 23H7.898l-.55-2.873c-.052-.272-.316-.45-.585-.397-.27.052-.45.314-.397.585l.628 3.28c.045.235.25.405.49.405h8.9c.24 0 .445-.17.49-.405l.63-3.254c.052-.27-.125-.533-.397-.585zM6.764 4.363c.275.05.533-.13.583-.4L7.9 1h8.068l.553 2.986c.045.24.255.41.49.41.03 0 .063-.003.093-.01.27-.05.45-.31.4-.582L16.875.408c-.043-.236-.25-.408-.49-.408h-8.9c-.242 0-.45.172-.493.408l-.628 3.37c-.05.273.13.534.4.585zM22.5 10h-1.027c-.276 0-.5.224-.5.5s.224.5.5.5H22v3h-.527c-.276 0-.5.224-.5.5s.224.5.5.5H22.5c.276 0 .5-.224.5-.5v-4c0-.277-.224-.5-.5-.5z"/></svg>