<svg xmlns="http://www.w3.org/2000/svg" width="24" height="24" viewBox="0 0 24 24"><path d="M22.437 2.228c-.75-.766-1.75-1.188-2.812-1.187-1.062 0-2.06.422-2.81 1.188L6.194 13.063c-1.09 1.114-1.09 2.926 0 4.038.533.544 1.24.843 1.993.843.753 0 1.46-.3 1.992-.842l7.758-7.914c.193-.197.19-.514-.008-.707-.195-.195-.512-.19-.707.006l-7.757 7.916c-.342.35-.796.54-1.278.54s-.936-.19-1.278-.54c-.712-.728-.712-1.91 0-2.64L17.53 2.928c1.12-1.145 3.07-1.143 4.19 0 1.165 1.187 1.165 3.12 0 4.306L8.446 20.784c-.78.793-1.813 1.23-2.914 1.23-1.1 0-2.134-.438-2.913-1.23-1.615-1.648-1.615-4.33 0-5.978L13.03 4.18c.194-.197.19-.514-.006-.707-.198-.195-.514-.19-.707.007L1.903 14.107c-1.993 2.033-1.993 5.342 0 7.375.968.988 2.257 1.532 3.628 1.532 1.372 0 2.66-.544 3.628-1.532l13.28-13.547c1.54-1.573 1.54-4.133 0-5.707z"/></svg>