<svg xmlns="http://www.w3.org/2000/svg" width="24" height="24" viewBox="0 0 24 24"><path d="M21.1 0H2.9C1.328 0 0 1.328 0 2.9v18.2C0 22.672 1.328 24 2.9 24h18.2c1.572 0 2.9-1.328 2.9-2.9V2.9C24 1.328 22.672 0 21.1 0zM2.9 1h18.2c1.03 0 1.9.87 1.9 1.9V6H1V2.9C1 1.87 1.87 1 2.9 1zm18.2 22H2.9C1.87 23 1 22.13 1 21.1V7h22v14.1c0 1.03-.87 1.9-1.9 1.9z"/><path d="M7.5 4.1h.1c.276 0 .5-.224.5-.5s-.224-.5-.5-.5h-.1c-.276 0-.5.223-.5.5s.224.5.5.5zM16.5 4.1c.276 0 .5-.224.5-.5s-.224-.5-.5-.5h-.1c-.276 0-.45.224-.45.5s.274.5.55.5zM16.322 10.032l-2.1.8c-.26.1-.388.387-.29.646.1.258.39.387.646.29L16 11.224V19.4c0 .276.224.5.5.5s.5-.224.5-.5v-8.9c0-.165-.08-.318-.217-.412-.135-.094-.308-.113-.46-.056zM9.524 14.334l2.864-3.52c.122-.148.146-.355.064-.53-.083-.173-.26-.284-.452-.284H6.7c-.276 0-.5.224-.5.5s.224.5.5.5h4.248l-2.836 3.484c-.126.155-.148.37-.055.547.092.18.28.297.48.268.502-.033 1.94.018 2.608.728.322.34.44.802.36 1.408-.146 1.088-.896 1.453-1.5 1.567-1.223.233-2.78-.36-3.27-1.243-.133-.24-.437-.327-.68-.194-.24.135-.328.438-.193.68.595 1.072 2.125 1.81 3.585 1.81.252 0 .502-.022.745-.068 1.292-.245 2.13-1.126 2.303-2.417.122-.913-.088-1.662-.624-2.23-.634-.673-1.602-.92-2.346-1.004z"/></svg>