<svg xmlns="http://www.w3.org/2000/svg" width="24" height="24" viewBox="0 0 24 24"><path d="M6.6 0H5.5C4.122 0 3 1.12 3 2.5v14.7c0 .03 0 .056.036.176l.007.023c.112.375.53 1.57 2.093 5.885.178.444.564.727.99.727h.028c.417-.013.77-.302.92-.75 1.484-4.308 1.88-5.495 1.986-5.868 0-.002 0-.004.002-.006.037-.13.038-.16.038-.188V2.5C9.1 1.12 7.98 0 6.6 0zm.21 21H5.372c-.46-1.28-.92-2.563-1.178-3.3h3.72c-.24.73-.673 2.006-1.106 3.3zM4 2.5C4 1.673 4.673 1 5.5 1h1.1c.827 0 1.5.673 1.5 1.5v14.2H7V4.5c0-.277-.224-.5-.5-.5s-.5.223-.5.5v12.2H4V2.5zm2.14 20.515c-.01-.003-.047-.03-.07-.085L5.734 22h.742l-.336 1.015zM20.5 0h-8c-.276 0-.5.223-.5.5v23c0 .276.224.5.5.5h8c.276 0 .5-.224.5-.5V.5c0-.277-.224-.5-.5-.5zM20 23h-7v-1h3.5c.276 0 .5-.224.5-.5s-.224-.5-.5-.5H13v-2h1.5c.276 0 .5-.224.5-.5s-.224-.5-.5-.5H13v-2h3.5c.276 0 .5-.224.5-.5s-.224-.5-.5-.5H13v-2h1.5c.276 0 .5-.224.5-.5s-.224-.5-.5-.5H13v-2h3.5c.276 0 .5-.224.5-.5s-.224-.5-.5-.5H13V7h1.5c.276 0 .5-.224.5-.5s-.224-.5-.5-.5H13V4h3.5c.276 0 .5-.224.5-.5s-.224-.5-.5-.5H13V1h7v22z"/></svg>