<svg xmlns="http://www.w3.org/2000/svg" width="24" height="24" viewBox="0 0 24 24"><path d="M24 2.9C24 1.326 22.672 0 21.1 0H2.9C1.328 0 0 1.328 0 2.9v18.3c0 1.572 1.328 2.9 2.9 2.9h18.3c1.57 0 2.9-1.328 2.9-2.903L24 2.9zm-2.8 20.2H2.9c-1.03 0-1.9-.87-1.9-1.9V2.9C1 1.87 1.87 1 2.9 1h18.2c1.03 0 1.9.87 1.9 1.9v.003l.1 18.297c0 1.03-.87 1.9-1.9 1.9z"/><path d="M19.5 5h-15c-.276 0-.5.223-.5.5s.224.5.5.5h15c.276 0 .5-.224.5-.5s-.224-.5-.5-.5zM19.5 9h-11c-.276 0-.5.223-.5.5s.224.5.5.5h11c.276 0 .5-.224.5-.5s-.224-.5-.5-.5zM19.5 13h-11c-.276 0-.5.223-.5.5s.224.5.5.5h11c.276 0 .5-.224.5-.5s-.224-.5-.5-.5zM19.5 17h-11c-.276 0-.5.223-.5.5s.224.5.5.5h11c.276 0 .5-.224.5-.5s-.224-.5-.5-.5zM4.7 9h-.1c-.276 0-.5.223-.5.5s.224.5.5.5h.1c.276 0 .5-.224.5-.5S4.977 9 4.7 9zM4.7 13h-.1c-.276 0-.5.224-.5.5s.224.5.5.5h.1c.276 0 .5-.224.5-.5s-.223-.5-.5-.5zM4.7 17h-.1c-.276 0-.5.224-.5.5s.224.5.5.5h.1c.276 0 .5-.224.5-.5s-.223-.5-.5-.5z"/></svg>