<svg xmlns="http://www.w3.org/2000/svg" width="24" height="24" viewBox="0 0 24 24"><path d="M22.8 4.03h-7.219l-.878-2.693c-.067-.206-.26-.345-.476-.345h-4.47c-.217 0-.41.14-.476.345L8.4 4.03H1.18c-.276 0-.5.225-.5.5s.224.5.5.5h1.58l1.345 18.545c.02.262.236.464.5.464h14.773c.262 0 .48-.203.5-.465L21.22 5.03h1.58c.277 0 .5-.223.5-.5s-.223-.5-.5-.5zM10.12 1.993h3.746l.665 2.04H9.45l.666-2.04zm8.795 21.047H5.068L3.764 5.03H20.22l-1.307 18.01z"/><path d="M12 7.084c-.276 0-.5.224-.5.5V20.41c0 .277.224.5.5.5s.5-.223.5-.5V7.585c0-.277-.224-.5-.5-.5zM15.667 20.91h.034c.262 0 .48-.2.5-.466l.853-12.827c.02-.275-.19-.514-.466-.532-.27-.012-.514.19-.532.466L15.2 20.38c-.017.275.192.513.467.532zM7.413 7.085c-.276.018-.484.257-.466.532L7.8 20.444c.02.265.238.467.5.467h.034c.275-.02.484-.257.466-.532L7.945 7.55c-.018-.275-.264-.477-.532-.465z"/></svg>