<svg xmlns="http://www.w3.org/2000/svg" width="24" height="24" viewBox="0 0 24 24"><path d="M22.81 4.03h-7.219l-.88-2.693c-.066-.206-.258-.345-.475-.345h-4.47c-.216 0-.408.14-.475.345L8.41 4.03H1.19c-.276 0-.5.225-.5.5s.224.5.5.5h1.58l1.345 18.545c.02.262.236.464.5.464h14.772c.262 0 .48-.203.5-.465L21.23 5.03h1.58c.277 0 .5-.223.5-.5s-.223-.5-.5-.5zM10.128 1.993h3.746l.665 2.04H9.462l.665-2.04zm8.795 21.047H5.078L3.773 5.03h16.454l-1.305 18.01z"/><path d="M14.766 16.647c-.928.935-2.258 1.304-3.505 1.054l.976-.43c.252-.113.366-.408.254-.66-.112-.254-.408-.368-.66-.255l-2.106.934c-.018.007-.03.022-.047.033-.03.018-.057.035-.083.06-.026.023-.046.05-.066.077-.012.016-.028.027-.038.045-.005.01-.005.02-.01.03-.015.032-.022.064-.03.098-.007.03-.015.06-.017.092 0 .03.004.06.008.09.006.034.01.068.023.1.004.01.002.022.007.032l.928 2.118c.082.188.266.3.458.3.067 0 .135-.014.2-.042.253-.11.368-.405.257-.658l-.448-1.023c.38.093.768.14 1.155.14 1.267 0 2.523-.49 3.455-1.43 1.52-1.527 1.86-3.92.826-5.816-.13-.243-.436-.332-.678-.2s-.332.436-.2.678c.824 1.51.554 3.416-.656 4.633zM12.783 10.072l-.948.42c-.252.112-.366.407-.254.66.084.187.267.297.46.297.066 0 .135-.015.2-.044l2.02-.895c.016-.004.03-.014.047-.02l.04-.017c.004-.002.007-.007.012-.01.04-.02.077-.045.11-.078.032-.028.057-.06.08-.093.005-.008.013-.012.017-.02l.004-.014c.076-.132.097-.293.032-.443l-.928-2.12c-.11-.252-.41-.367-.658-.256-.253.11-.37.405-.258.658l.464 1.06c-1.634-.412-3.415.033-4.64 1.266-1.52 1.53-1.86 3.92-.827 5.817.09.168.262.262.44.262.08 0 .162-.02.238-.06.243-.134.332-.438.2-.68-.823-1.51-.553-3.416.657-4.633.925-.933 2.25-1.304 3.493-1.058z"/></svg>