<svg xmlns="http://www.w3.org/2000/svg" width="24" height="24" viewBox="0 0 24 24"><path d="M12 .215C5.486.215.19 5.512.19 12.025c0 6.51 5.297 11.81 11.81 11.81s11.808-5.3 11.808-11.81c0-6.513-5.297-11.81-11.81-11.81zm0 22.62c-5.96 0-10.81-4.85-10.81-10.81 0-5.96 4.85-10.81 10.81-10.81s10.808 4.85 10.808 10.81c0 5.96-4.85 10.81-10.81 10.81z"/><path d="M11.003 9.547c0-1.35-1.097-2.446-2.446-2.446S6.11 8.2 6.11 9.548s1.098 2.447 2.447 2.447 2.446-1.098 2.446-2.447zm-3.893 0c0-.797.65-1.446 1.447-1.446s1.446.65 1.446 1.447c0 .798-.65 1.447-1.446 1.447-.798 0-1.447-.65-1.447-1.447zM15.464 7.1c-1.35 0-2.446 1.098-2.446 2.447s1.098 2.447 2.446 2.447 2.446-1.098 2.446-2.447S16.812 7.1 15.464 7.1zm0 3.894c-.798 0-1.446-.65-1.446-1.447S14.666 8.1 15.464 8.1s1.446.65 1.446 1.447c0 .798-.648 1.447-1.446 1.447zM15.22 15.98H8.778c-.276 0-.5.224-.5.5s.224.5.5.5h6.44c.277 0 .5-.224.5-.5s-.222-.5-.498-.5z"/></svg>