<svg xmlns="http://www.w3.org/2000/svg" width="24" height="24" viewBox="0 0 24 24"><path d="M12.046 6.97c-2.705 0-4.906 2.26-4.906 5.04 0 2.78 2.2 5.042 4.906 5.042s4.906-2.262 4.906-5.042-2.2-5.04-4.906-5.04zm0 9.08c-2.154 0-3.906-1.812-3.906-4.04s1.752-4.042 3.906-4.042 3.906 1.812 3.906 4.04-1.752 4.043-3.906 4.043z"/><path d="M12.046 9.642c-1.275 0-2.312 1.062-2.312 2.368s1.037 2.367 2.312 2.367c1.274 0 2.312-1.062 2.312-2.367s-1.038-2.368-2.312-2.368zm0 3.735c-.724 0-1.312-.613-1.312-1.367s.588-1.368 1.312-1.368c.723 0 1.312.614 1.312 1.368s-.59 1.367-1.312 1.367z"/><path d="M23.555 11.788c-2.378-4.805-6.787-7.79-11.51-7.79-4.72 0-9.13 2.985-11.508 7.79-.07.14-.07.304 0 .443 2.377 4.806 6.787 7.79 11.51 7.79s9.13-2.984 11.508-7.79c.07-.138.07-.303 0-.442zm-11.51 7.232c-4.266 0-8.27-2.68-10.5-7.01 2.232-4.332 6.235-7.012 10.5-7.012 4.268 0 8.27 2.68 10.5 7.01-2.23 4.333-6.233 7.012-10.5 7.012z"/></svg>