<svg xmlns="http://www.w3.org/2000/svg" width="24" height="24" viewBox="0 0 24 24"><path d="M22.518 13.896c.558-1.044 1.79-3.662.994-5.055-.176-.307-.51-.66-1.134-.81.323-1.32.65-4.496-2.542-7.347-.19-.17-.477-.17-.666 0-3.192 2.85-2.865 6.028-2.542 7.348-.625.15-.958.503-1.134.81-.797 1.394.438 4.012.994 5.056-.618.477-.937 1.057-.947 1.73-.03 1.925 2.607 3.856 3.463 4.432v3.42c0 .277.224.5.5.5s.5-.223.5-.5v-3.42c.856-.576 3.492-2.507 3.462-4.43-.01-.675-.33-1.255-.947-1.732zm-3.015 5.293c-.996-.687-2.98-2.31-2.962-3.547.008-.442.29-.82.862-1.158.237-.14.316-.445.178-.684-.738-1.258-1.722-3.583-1.218-4.463.054-.093.216-.377.92-.377.168 0 .325-.085.417-.226.092-.14.106-.318.04-.473-.015-.034-1.41-3.386 1.763-6.52 3.157 3.11 1.822 6.38 1.762 6.522-.065.154-.05.332.043.472.093.14.25.225.416.225.705 0 .867.283.92.376.504.88-.48 3.205-1.218 4.464-.14.238-.06.544.178.684.573.337.854.716.86 1.157.02 1.247-1.93 2.844-2.96 3.55z"/><path d="M19.503 9.016c-.276 0-.5.224-.5.5v6.923c0 .275.224.5.5.5s.5-.225.5-.5V9.515c0-.276-.224-.5-.5-.5zM9.917 16.473V15.5c0-.275.22-.5.49-.5.276 0 .5-.224.5-.5v-3c0-.276-.224-.5-.5-.5h-6.87c-.275 0-.5.224-.5.5v3c0 .276.225.5.5.5.272 0 .49.225.49.5v.974c-2.01 1.19-3.96 3.904-3.96 7.026 0 .276.225.5.5.5h12.81c.275 0 .5-.224.5-.5 0-3.122-1.95-5.837-3.96-7.027zM1.087 23c.206-2.626 1.988-4.91 3.672-5.79.164-.085.268-.256.268-.442V15.5c0-.65-.414-1.206-.99-1.413V12h5.87v2.087c-.578.207-.99.763-.99 1.413v1.268c0 .187.103.357.268.443 1.683.88 3.466 3.164 3.67 5.79H1.087z"/></svg>