<svg xmlns="http://www.w3.org/2000/svg" width="24" height="24" viewBox="0 0 24 24"><path d="M21.1 0H2.9C1.328 0 0 1.328 0 2.9v18.2C0 22.672 1.328 24 2.9 24h18.2c1.572 0 2.9-1.328 2.9-2.9V2.9C24 1.328 22.672 0 21.1 0zM2.9 1h18.2c1.03 0 1.9.87 1.9 1.9V6H1V2.9C1 1.87 1.87 1 2.9 1zm18.2 22H2.9C1.87 23 1 22.13 1 21.1V7h22v14.1c0 1.03-.87 1.9-1.9 1.9z"/><path d="M7.5 4.1h.1c.276 0 .5-.224.5-.5s-.224-.5-.5-.5h-.1c-.276 0-.5.223-.5.5s.224.5.5.5zM16.5 4.1c.276 0 .5-.224.5-.5s-.224-.5-.5-.5h-.1c-.276 0-.45.224-.45.5s.274.5.55.5zM7.4 10.8c-.276 0-.5.224-.5.5v4.8c0 .067-.014 1.656-1.233 1.8-1.14.073-1.602-.792-1.62-.824-.124-.246-.424-.348-.67-.224-.248.124-.348.424-.225.67.03.06.71 1.382 2.386 1.382.072 0 .145-.002.22-.008C7.452 18.696 7.9 16.98 7.9 16.1v-4.8c0-.276-.224-.5-.5-.5zM13.02 13.282c-.778-.586-1.95-.603-3.488-.053-.26.093-.395.38-.302.64.093.26.38.39.64.3 1.178-.423 2.058-.455 2.543-.094.41.307.478.854.487 1.098-.945-.18-2.665-.373-3.553.395-.303.26-.644.75-.543 1.59.14 1.165.923 1.854 2.102 1.854h.073c.655-.017 1.365-.248 1.92-.62v.006c0 .276.225.5.5.5s.5-.224.5-.5v-3.067c.003-.054.076-1.33-.88-2.05zm-2.065 4.73c-1.08-.005-1.13-.726-1.16-.972-.05-.437.092-.616.205-.713.526-.455 1.926-.342 2.9-.133v.675c-.04.47-1.004 1.12-1.945 1.143zM17.6 12.9c-.736 0-1.287.237-1.7.565V13.3c0-.276-.223-.5-.5-.5s-.5.224-.5.5v5.1c0 .276.225.5.5.5s.5-.224.5-.5v-3.15c.047-.222.345-1.35 1.7-1.35 1.315 0 1.397 1.086 1.4 1.3v3.2c0 .276.224.5.5.5s.5-.224.5-.5v-3.2c0-.64-.432-2.3-2.4-2.3z"/></svg>