<svg xmlns="http://www.w3.org/2000/svg" width="24" height="24" viewBox="0 0 24 24"><path d="M22.69 6.364c-.125-.046-2.896-.97-9.405 1.696 1.495-1.427 4.248-3.325 8.484-3.56.275-.014.486-.25.47-.525-.014-.275-.24-.496-.525-.472-4.272.236-7.123 2.01-8.794 3.506C13.983 5.246 16.214 3 20.87 1.923c.268-.062.436-.33.373-.6-.062-.27-.33-.437-.6-.375-5.955 1.38-8.25 4.59-9.128 6.62-.877-2.03-3.173-5.24-9.127-6.62-.268-.062-.538.105-.6.374-.062.27.105.538.375.6 4.655 1.08 6.885 3.324 7.947 5.086-1.672-1.497-4.523-3.27-8.795-3.507-.27-.036-.51.196-.526.472-.017.275.194.51.47.526 4.29.238 7.063 2.183 8.544 3.616C3.207 5.376.484 6.32.36 6.366c-.21.078-.34.288-.32.512l1.205 13.534c.023.26.24.456.498.456h.008c5.085-.076 9.392 2.93 9.435 2.96.01.006.022.003.032.01.012.006.017.02.03.027.072.037.15.056.23.056.077 0 .156-.018.228-.055.012-.006.017-.02.028-.026.01-.007.023-.005.033-.01.042-.03 4.243-2.964 9.276-2.964.072 0 .11.005.22.002.258 0 .474-.196.498-.454L23.018 6.88c.02-.227-.114-.44-.328-.516zm-21.616.863c.99-.142 4.04-.226 9.902 2.49v12.79c-1.468-.876-4.81-2.574-8.775-2.64L1.075 7.228zm19.73 12.64c-3.974.065-7.353 1.77-8.828 2.645V9.717C17.854 6.994 20.97 7.08 21.98 7.23l-1.175 12.638z"/></svg>