<svg xmlns="http://www.w3.org/2000/svg" width="24" height="24" viewBox="0 0 24 24"><path d="M8.5 9h-5c-.276 0-.5.223-.5.5s.224.5.5.5h5c.276 0 .5-.224.5-.5S8.776 9 8.5 9zM8.5 12h-5c-.276 0-.5.223-.5.5s.224.5.5.5h5c.276 0 .5-.224.5-.5s-.224-.5-.5-.5zM8.5 15h-5c-.276 0-.5.223-.5.5s.224.5.5.5h5c.276 0 .5-.224.5-.5s-.224-.5-.5-.5z"/><path d="M21 3.984V2.5c0-.277-.224-.5-.5-.5h-6c-.276 0-.5.223-.5.5v1.488c-1.2.234-2.044.55-2.52.958C10.49 4.126 8.235 3.7 6 3.7c-2.768 0-6 .576-6 2.2v14.9c0 .146.063.284.174.38.09.078.207.12.326.12.024 0 .05-.002.074-.006C2.62 20.987 3.976 20.8 6 20.8c2.548 0 4.54.14 5.34.375.004 0 .007 0 .01.002h.006c.006.003.013 0 .02.002.056.014.114.024.173.016l.412-.04c2.665-.268 3.562-.357 5.538-.357 1.842 0 3.613.146 5.926.493.024.004.05.006.074.006.12 0 .235-.043.326-.122.11-.094.174-.233.174-.378V5.9c0-1.133-1.856-1.684-3-1.916zM15 3h5v10.394l-.01-.003-1.836-1.542c-.192-.194-.46-.223-.604-.223-.142 0-.41.03-.562.185L15 13.322V3zM1 20.22V5.9c0-.42 1.717-1.2 5-1.2 3.28 0 5 .892 5 1.2v14.178c-1.472-.248-3.907-.278-5-.278-1.897 0-3.215.157-5 .42zm22 0c-2.09-.294-3.763-.42-5.5-.42-1.99 0-2.904.087-5.5.347V5.9c0-.134.394-.556 2-.895V13.5c0 .306.18.585.483.747.35.188.78.177 1.13-.057l1.933-1.55 1.832 1.542.045.033c.183.122.4.184.618.184.174 0 .345-.04.494-.12.292-.155.466-.447.466-.78V5.007c1.42.315 1.966.756 2 .893v14.32z"/></svg>