<svg xmlns="http://www.w3.org/2000/svg" width="24" height="24" viewBox="0 0 24 24"><path d="M18.5 0h-13c-.276 0-.5.223-.5.5v21.93c0 .525.265.978.69 1.184.404.194.875.127 1.294-.214l4.964-4.895 5.05 4.896c.01.012.02.022.033.03.24.192.513.29.783.29.166 0 .332-.036.488-.11.432-.207.7-.66.7-1.183V.5c0-.277-.224-.5-.5-.5zM18 22.427c0 .16-.07.25-.13.28-.068.032-.142-.004-.196-.044l-5.38-5.218c-.196-.188-.507-.188-.7.003L6.32 22.653c-.045.034-.13.088-.197.058-.06-.03-.123-.127-.123-.282V1h12v21.427z"/></svg>