<svg xmlns="http://www.w3.org/2000/svg" width="24" height="24" viewBox="0 0 24 24"><path d="M17.5 3c.276 0 .5-.224.5-.5v-.83c0-.16-.076-.31-.205-.404l-1.6-1.17C16.112.034 16.01 0 15.902 0H8.1c-.107 0-.21.033-.296.096l-1.6 1.17C6.077 1.36 6 1.51 6 1.668v.83c0 .276.224.5.5.5h5v.734h-1.138c-.276 0-.5.224-.5.5s.224.5.5.5H11.5v.496h-1.138c-.276 0-.5.224-.5.5s.224.5.5.5H11.5V7h-5c-.276 0-.5.223-.5.5v.76c0 .154.07.3.193.395l1.6 1.24c.087.068.195.105.306.105h3.4v2h-1c-.276 0-.5.224-.5.5v11c0 .276.224.5.5.5h3c.276 0 .5-.224.5-.5v-11c0-.276-.224-.5-.5-.5h-1v-2h3.4c.112 0 .22-.037.308-.105l1.6-1.24c.12-.095.192-.24.192-.395V7.5c0-.277-.224-.5-.5-.5h-5v-.77h1.14c.275 0 .5-.224.5-.5s-.225-.5-.5-.5H12.5v-.496h1.14c.275 0 .5-.224.5-.5s-.225-.5-.5-.5H12.5V3h5zM13 23h-2V13h2v10zm2.73-14H8.27L7 8.014 17 8l-1.27 1zM7 1.923L8.262 1h7.476L17 1.923V2H7v-.077z"/></svg>