<svg xmlns="http://www.w3.org/2000/svg" width="24" height="24" viewBox="0 0 24 24"><path d="M7.97 12.86c-1.777 0-3.224 1.446-3.224 3.224s1.446 3.224 3.224 3.224 3.223-1.446 3.223-3.224S9.747 12.86 7.97 12.86zm0 5.447c-1.226 0-2.224-.997-2.224-2.224 0-1.226.998-2.223 2.224-2.223s2.223.997 2.223 2.223c0 1.227-.997 2.224-2.223 2.224z"/><path d="M15.315 14.572l-1.66-.217c-.113-.37-.26-.726-.442-1.066l1.02-1.33c.138-.18.14-.428.003-.607-.438-.58-.954-1.096-1.533-1.534-.18-.137-.428-.135-.606 0l-1.33 1.022c-.34-.183-.697-.33-1.066-.443l-.217-1.662c-.03-.223-.204-.4-.427-.43-.74-.104-1.43-.104-2.168 0-.223.03-.398.206-.427.43l-.216 1.66c-.37.113-.728.26-1.07.444L3.845 9.82c-.178-.138-.427-.14-.606-.003-.57.432-1.1.962-1.533 1.533-.136.18-.135.428.002.606l1.02 1.33c-.182.342-.33.7-.443 1.07l-1.66.217c-.224.03-.4.204-.43.428-.1.72-.1 1.45 0 2.168.03.224.206.398.43.428l1.66.217c.113.37.26.73.444 1.07l-1.02 1.33c-.138.18-.14.427-.003.606.433.57.963 1.1 1.533 1.53.18.137.428.137.606 0l1.33-1.023c.342.183.7.33 1.07.443l.217 1.66c.03.224.205.4.428.43.37.052.726.078 1.082.078.358 0 .717-.026 1.087-.078.223-.03.397-.207.426-.43l.218-1.662c.37-.112.727-.26 1.068-.443l1.33 1.02c.176.138.425.138.605.003.58-.438 1.095-.954 1.534-1.533.135-.18.134-.428-.003-.606l-1.02-1.33c.18-.34.328-.697.44-1.066l1.66-.217c.225-.03.4-.204.432-.428.1-.728.1-1.438 0-2.17-.03-.223-.207-.4-.43-.428zm-.517 2.083l-1.603.21c-.206.027-.373.178-.42.38-.122.5-.32.975-.588 1.414-.108.175-.096.4.03.564l.986 1.283c-.247.29-.516.56-.807.807l-1.283-.985c-.164-.126-.39-.14-.566-.03-.44.27-.916.468-1.416.588-.2.05-.35.216-.377.422l-.21 1.604c-.383.033-.756.033-1.142 0l-.208-1.604c-.027-.206-.178-.374-.38-.422-.5-.12-.976-.317-1.417-.588-.176-.106-.4-.095-.566.03l-1.284.986c-.29-.244-.56-.516-.807-.806l.984-1.282c.126-.164.138-.39.03-.566-.27-.44-.47-.918-.59-1.42-.047-.2-.215-.35-.42-.378l-1.603-.21c-.03-.38-.03-.76 0-1.14l1.604-.21c.205-.027.373-.178.42-.38.12-.5.32-.978.59-1.42.108-.176.096-.4-.03-.565l-.985-1.283c.245-.29.517-.562.806-.807l1.283.986c.164.127.39.138.564.03.442-.27.92-.468 1.42-.587.2-.05.35-.217.378-.422l.21-1.603c.383-.033.756-.033 1.14 0l.21 1.604c.028.204.178.372.38.42.5.12.975.318 1.415.588.177.108.402.097.566-.03l1.283-.986c.29.246.56.516.807.807l-.986 1.282c-.126.164-.138.39-.03.565.27.44.467.917.587 1.416.048.2.216.352.42.38l1.604.21c.033.385.033.76 0 1.142zM18.24 3.464c-1.252 0-2.27 1.018-2.27 2.27S16.988 8 18.24 8s2.27-1.018 2.27-2.27-1.02-2.268-2.27-2.268zm0 3.538c-.7 0-1.27-.57-1.27-1.27s.57-1.268 1.27-1.268c.7 0 1.27.57 1.27 1.27S18.94 7 18.24 7z"/><path d="M23.63 6.61l-.975-.555c.017-.227.016-.454-.002-.68l.97-.564c.194-.112.29-.342.23-.56-.137-.52-.346-1.017-.618-1.48-.115-.193-.343-.284-.562-.227l-1.082.297c-.148-.173-.31-.333-.482-.48l.286-1.084c.058-.217-.037-.446-.232-.56-.47-.273-.955-.473-1.483-.608-.22-.058-.448.04-.56.237l-.555.973c-.227-.016-.454-.015-.684.003L17.32.35c-.114-.193-.34-.29-.56-.23-.512.134-1.023.35-1.48.62-.193.114-.287.344-.228.56l.295 1.083c-.173.15-.334.31-.48.485L13.78 2.58c-.22-.06-.446.038-.56.232-.27.464-.474.963-.607 1.483-.056.218.04.447.236.56l.973.555c-.017.228-.016.456.003.684l-.968.564c-.194.113-.29.342-.232.56.135.512.35 1.024.62 1.48.115.193.344.283.562.226l1.082-.296c.15.173.312.334.485.48l-.287 1.084c-.058.218.038.448.232.56.473.274.958.473 1.484.607.04.01.083.015.124.015.177 0 .344-.094.435-.252l.556-.974c.226.014.453.014.68-.004l.563.97c.114.194.35.29.56.23.522-.137 1.02-.346 1.48-.62.193-.114.287-.344.228-.56l-.295-1.084c.172-.15.333-.31.48-.483l1.082.286c.223.058.448-.038.56-.232.274-.472.474-.958.608-1.484.056-.22-.04-.448-.236-.56zM22.57 7.82l-1.02-.27c-.2-.052-.41.022-.533.19-.206.288-.458.542-.748.755-.168.123-.242.335-.188.535l.278 1.018c-.173.085-.35.16-.533.223l-.53-.912c-.103-.178-.307-.273-.512-.242-.354.058-.712.06-1.062.005-.204-.032-.408.067-.51.247l-.523.916c-.184-.062-.36-.134-.534-.22l.27-1.017c.053-.2-.023-.413-.19-.534-.29-.207-.544-.46-.757-.75-.123-.167-.334-.24-.536-.187l-1.017.278c-.085-.172-.16-.35-.223-.532l.91-.53c.18-.103.274-.307.24-.51-.056-.355-.058-.714-.004-1.068.03-.205-.066-.407-.246-.51l-.914-.52c.062-.182.135-.36.22-.534l1.017.27c.2.05.413-.024.533-.192.21-.29.462-.544.75-.756.168-.123.242-.335.188-.535L16.12 1.42c.173-.085.35-.16.532-.224l.53.91c.103.18.304.28.512.243.355-.058.714-.06 1.065-.005.2.03.407-.066.51-.247l.52-.915c.185.062.36.134.535.22l-.27 1.02c-.053.2.023.41.19.532.288.208.542.46.755.75.123.167.336.24.535.187l1.017-.278c.085.173.16.35.224.533l-.912.53c-.18.104-.274.308-.24.512.056.35.057.707.003 1.06-.03.205.066.408.246.51l.915.522c-.06.185-.133.36-.218.536z"/></svg>