<svg xmlns="http://www.w3.org/2000/svg" width="24" height="24" viewBox="0 0 24 24"><path d="M20.352 3.634c-4.605-4.606-12.1-4.604-16.706 0C1.418 5.862.19 8.828.19 11.987s1.228 6.125 3.456 8.352C5.874 22.566 8.84 23.793 12 23.793c3.158 0 6.125-1.227 8.352-3.454 2.228-2.228 3.455-5.194 3.455-8.353s-1.228-6.125-3.455-8.353zm-16 .707C6.463 2.234 9.23 1.18 12 1.18c2.61 0 5.216.95 7.274 2.825L4.017 19.26c-1.82-1.99-2.825-4.55-2.825-7.273 0-2.892 1.122-5.607 3.16-7.646zm15.293 15.293c-2.038 2.04-4.753 3.16-7.645 3.16-2.724 0-5.283-1.006-7.276-2.825L19.98 4.712c1.82 1.992 2.827 4.552 2.827 7.275 0 2.892-1.123 5.607-3.162 7.646z"/></svg>