<svg xmlns="http://www.w3.org/2000/svg" width="24" height="24" viewBox="0 0 24 24"><path d="M11.99.358C5.55.358.308 5.598.308 12.04c0 6.44 5.24 11.68 11.682 11.68s11.682-5.24 11.682-11.68c0-6.442-5.24-11.682-11.682-11.682zm0 22.362c-5.89 0-10.682-4.792-10.682-10.68C1.308 6.15 6.1 1.357 11.99 1.357c5.89 0 10.682 4.792 10.682 10.682 0 5.888-4.792 10.68-10.682 10.68z"/><path d="M13.43 12.742c.564-.716.914-1.606.914-2.585 0-2.32-1.887-4.206-4.206-4.206S5.932 7.84 5.932 10.158c0 2.32 1.887 4.206 4.206 4.206.98 0 1.87-.35 2.585-.914l4.112 4.112c.098.098.226.146.354.146s.255-.05.353-.146c.195-.195.195-.512 0-.707l-4.112-4.113zm-6.497-2.585c0-1.768 1.438-3.206 3.206-3.206s3.205 1.44 3.205 3.207-1.438 3.206-3.206 3.206-3.207-1.438-3.207-3.206z"/></svg>