<svg xmlns="http://www.w3.org/2000/svg" width="24" height="24" viewBox="0 0 24 24"><path d="M18.54 9.06c-.82 0-1.56.34-2.093.883L8.64 4.457c.17-.372.273-.782.273-1.217 0-1.62-1.317-2.936-2.936-2.936S3.042 1.62 3.042 3.24c0 1.618 1.317 2.935 2.936 2.935.823 0 1.566-.343 2.1-.89l7.804 5.483c-.174.375-.278.788-.278 1.228 0 .452.11.875.294 1.258l-7.85 5.398c-.532-.53-1.264-.856-2.07-.856-1.62 0-2.937 1.316-2.937 2.935 0 1.62 1.318 2.937 2.937 2.937s2.936-1.316 2.936-2.936c0-.45-.11-.874-.294-1.257l7.85-5.398c.53.53 1.263.857 2.07.857 1.618 0 2.935-1.316 2.935-2.936 0-1.62-1.317-2.936-2.936-2.936zM5.977 5.175c-1.067 0-1.936-.868-1.936-1.935 0-1.067.868-1.936 1.936-1.936s1.935.868 1.935 1.936c0 1.066-.868 1.935-1.935 1.935zm0 17.49c-1.067 0-1.936-.867-1.936-1.935 0-1.066.868-1.935 1.936-1.935s1.936.868 1.936 1.935c0 1.068-.87 1.936-1.936 1.936zm12.56-8.734c-1.065 0-1.934-.867-1.934-1.935s.868-1.936 1.935-1.936c1.066 0 1.935.867 1.935 1.935s-.87 1.936-1.936 1.936z"/></svg>