<svg xmlns="http://www.w3.org/2000/svg" width="24" height="24" viewBox="0 0 24 24"><path d="M12.495 6.55c-.276 0-.5.225-.5.5v6.254l-3.79 2.676c-.227.16-.28.47-.12.696.097.14.25.212.408.212.1 0 .2-.03.288-.092l4.004-2.826c.132-.094.21-.246.21-.408v-6.51c0-.278-.223-.5-.5-.5z"/><path d="M20.895 13.125c0-4.91-3.995-8.906-8.905-8.906-4.91 0-8.906 3.994-8.906 8.905 0 2.806 1.308 5.31 3.343 6.943l-1.79 3.06c-.14.24-.06.546.178.686.08.046.166.068.252.068.172 0 .34-.09.432-.247l1.747-2.986c1.375.87 3 1.38 4.744 1.38 1.745 0 3.368-.51 4.743-1.38l1.747 2.986c.093.158.26.247.432.247.086 0 .173-.022.253-.068.238-.14.318-.445.18-.685l-1.792-3.06c2.033-1.635 3.342-4.14 3.342-6.945zM11.99 21.03c-4.36 0-7.907-3.546-7.907-7.905S7.63 5.22 11.99 5.22s7.904 3.545 7.904 7.905-3.545 7.905-7.905 7.905zM3.73 6.057c.084 0 .17-.02.25-.067l5.586-3.226c.114-.066.198-.175.232-.303s.017-.264-.05-.378C8.72.302 6.438-.308 4.658.718c-.86.498-1.477 1.3-1.735 2.262-.257.962-.125 1.966.372 2.827.093.16.26.25.434.25zm.16-2.818c.187-.704.64-1.292 1.27-1.656.427-.247.895-.365 1.357-.365.783 0 1.55.336 2.075.95L3.95 4.85c-.182-.513-.205-1.07-.06-1.61zM14.435 2.765l5.587 3.226c.077.045.163.068.25.068.043 0 .087-.006.13-.017.128-.033.237-.117.303-.232.498-.862.63-1.866.373-2.827-.258-.96-.874-1.764-1.736-2.26-1.78-1.028-4.063-.417-5.09 1.363-.065.115-.084.25-.05.38.034.126.117.235.233.302zm4.406-1.18c1.154.665 1.638 2.053 1.21 3.266l-4.643-2.68c.837-.975 2.28-1.252 3.434-.586z"/></svg>