<svg xmlns="http://www.w3.org/2000/svg" width="24" height="24" viewBox="0 0 24 24"><path d="M18.14 2h-2.634V.51c0-.276-.224-.5-.5-.5s-.5.224-.5.5V2h-2V.51c0-.276-.224-.5-.5-.5s-.5.224-.5.5V2h-2V.51c0-.276-.224-.5-.5-.5s-.5.224-.5.5V2H5.87C4.29 2 3.007 3.285 3.007 4.865v16.27C3.006 22.715 4.29 24 5.87 24h12.27c1.58 0 2.866-1.285 2.866-2.865V4.865C21.006 3.285 19.72 2 18.14 2zm1.866 19.135c0 1.028-.837 1.865-1.865 1.865H5.87c-1.027 0-1.864-.837-1.864-1.865V4.865C4.006 3.837 4.843 3 5.87 3h2.636v.503c0 .276.224.5.5.5s.5-.224.5-.5V3h2v.503c0 .276.224.5.5.5s.5-.224.5-.5V3h2v.503c0 .276.224.5.5.5s.5-.224.5-.5V3h2.635c1.03 0 1.866.836 1.866 1.865v16.27z"/><path d="M16.438 8H7.51c-.275 0-.5.224-.5.5s.224.5.5.5h8.928c.276 0 .5-.224.5-.5s-.224-.5-.5-.5zM16.438 12H7.51c-.275 0-.5.224-.5.5s.225.5.5.5h8.928c.276 0 .5-.224.5-.5s-.224-.5-.5-.5zM16.438 16H7.51c-.275 0-.5.224-.5.5s.225.5.5.5h8.928c.276 0 .5-.224.5-.5s-.224-.5-.5-.5z"/></svg>