<svg xmlns="http://www.w3.org/2000/svg" width="24" height="24" viewBox="0 0 24 24"><path d="M23.802 1.257c-.1-.094-.236-.137-.374-.134 0 0-.588.038-1.506.137V.738c0-.138-.057-.27-.157-.364-.1-.094-.23-.14-.373-.135-1.376.083-7.54.57-9.404 2.685C10.182.82 3.928.325 2.543.24 2.408.23 2.27.28 2.17.373c-.1.095-.157.226-.157.364v.53C1.076 1.162.51 1.122.51 1.122c-.138-.006-.275.04-.377.133-.1.095-.158.227-.158.366v19.354c0 .14.06.274.163.37.103.093.242.14.382.128 4.073-.36 10.65-.156 10.953 1.948.002.01.008.02.01.03.006.027.016.05.026.077.012.032.025.063.044.09.015.024.032.043.05.063.024.025.048.048.076.068.022.017.045.03.07.043.032.016.066.027.1.036.017.003.03.013.048.016.024.003.047.005.07.005H12.006c.023-.002.042-.013.064-.017.032-.007.065-.013.095-.026.027-.012.05-.028.073-.044.026-.017.052-.033.074-.055.02-.02.036-.042.053-.065.02-.026.037-.05.05-.08.013-.026.02-.053.028-.08.006-.022.017-.04.02-.062.303-2.103 6.882-2.31 10.953-1.947.146.01.28-.035.383-.13.103-.094.16-.228.16-.368V1.622c0-.138-.058-.27-.158-.365zm-2.88.018v16.6c-1.864-.13-6.42-.29-8.455.998L12.462 4.05c.222-1.5 4.91-2.494 8.46-2.775zm-17.91 0c3.55.28 8.24 1.272 8.456 2.703v14.894c-1.39-.878-3.957-1.082-6.037-1.082-.964 0-1.826.044-2.416.085v-16.6zM.976 20.435V2.165c.262.025.614.06 1.038.108v16.142c0 .14.06.273.162.368.103.095.236.137.38.13 3.555-.31 8.654-.058 8.912 1.46v1.402c-2.424-1.747-8.49-1.483-10.492-1.34zm21.985 0c-2.006-.142-8.072-.405-10.493 1.344V20.37c.26-1.516 5.354-1.77 8.912-1.46.13.01.276-.035.38-.13s.162-.23.162-.368V2.266c.42-.046.773-.08 1.038-.103v18.272z"/></svg>