<svg xmlns="http://www.w3.org/2000/svg" width="24" height="24" viewBox="0 0 24 24"><path d="M23.453 7.246l-6.7-6.7c-.24-.24-.55-.354-.86-.322-.324.032-.618.214-.82.52-.618 1.026-.773 2.358-.436 3.617l-3.944 4.034c-2.835-1.29-5.942-.952-7.846.952-.168.168-.347.49-.347.754 0 .41.226.633.345.752l4.775 4.82-7.273 7.274c-.195.195-.195.512 0 .707.097.098.225.147.353.147s.256-.05.354-.146l7.27-7.27 4.82 4.868c.002 0 .002 0 .003.002.188.188.463.297.754.297.29 0 .565-.107.754-.296 1.905-1.905 2.265-4.955.95-7.85l4.04-4.04c1.258.336 2.59.178 3.634-.45.285-.19.467-.483.5-.807.03-.315-.086-.62-.325-.86zm-.71.825c-.86.517-2.014.61-3.085.256-.18-.06-.377-.013-.512.12l-4.5 4.5c-.152.153-.19.386-.094.578 1.3 2.6 1.062 5.355-.6 7.017-.02.014-.08.015-.104.003L3.494 10.16c.008-.027.042-.087.06-.107 1.677-1.678 4.473-1.88 7.022-.606.194.098.43.058.58-.098l4.4-4.5c.132-.135.177-.33.118-.51-.357-1.07-.263-2.222.254-3.083L15.5 1l.547.253 6.7 6.7-.004.118z"/></svg>