<svg xmlns="http://www.w3.org/2000/svg" width="24" height="24" viewBox="0 0 24 24"><path d="M8.457 9H3.493c-.276 0-.5.224-.5.5s.224.5.5.5h4.963c.276 0 .5-.224.5-.5s-.223-.5-.5-.5zM8.457 12H3.493c-.276 0-.5.224-.5.5s.224.5.5.5h4.963c.276 0 .5-.224.5-.5s-.223-.5-.5-.5zM8.457 15H3.493c-.276 0-.5.224-.5.5s.224.5.5.5h4.963c.276 0 .5-.224.5-.5s-.223-.5-.5-.5zM20.446 9H15.51c-.276 0-.5.224-.5.5s.224.5.5.5h4.936c.276 0 .5-.224.5-.5s-.223-.5-.5-.5zM20.446 12H15.51c-.276 0-.5.224-.5.5s.224.5.5.5h4.936c.276 0 .5-.224.5-.5s-.223-.5-.5-.5zM20.446 15H15.51c-.276 0-.5.224-.5.5s.224.5.5.5h4.936c.276 0 .5-.224.5-.5s-.223-.5-.5-.5z"/><path d="M17.698 3.78c-2.36 0-4.73.384-5.733 1.22-1.003-.837-3.374-1.22-5.732-1.22C3.13 3.78 0 4.44 0 5.924v14.658c0 .156.073.303.197.397.088.067.195.103.303.103.044 0 .088-.006.132-.018.9-.246 3.307-.432 5.6-.432 2.042 0 3.51.15 5.666.444.023.003.045-.005.068-.005s.045.008.068.005c2.156-.295 3.625-.444 5.666-.444 2.293 0 4.7.186 5.6.432.043.012.088.018.132.018.108 0 .215-.035.304-.103.124-.095.196-.24.196-.397V5.925C23.93 4.442 20.8 3.78 17.698 3.78zM1 19.966V5.927c.036-.344 1.86-1.148 5.232-1.148s5.197.803 5.232 1.145V20.01c-1.902-.25-3.32-.377-5.232-.377-1.698 0-3.89.106-5.232.334zm21.93 0c-1.342-.228-3.533-.333-5.23-.333-1.914 0-3.33.127-5.234.378V5.926c.036-.343 1.86-1.147 5.233-1.147s5.195.803 5.23 1.145v14.042z"/></svg>