<svg xmlns="http://www.w3.org/2000/svg" width="24" height="24" viewBox="0 0 24 24"><path d="M23.713 3.994l-.065-.117c-.023-.048-.056-.093-.094-.13l-3.3-3.302C20.04.235 19.706.1 19.4.1c-.28 0-.47.11-.608.19l-.116.063c-.048.024-.09.056-.13.093l-12.2 12.2c-.14.14-.294.414-2.026 4.687-.25.615-.433 1.068-.468 1.145-.205.412-.025.896.1 1.146.025.048.057.092.095.13.205.205.488.313.774.313.17 0 .34-.038.497-.117.075-.034.462-.188 1-.403 4.388-1.752 4.77-1.955 4.9-2.166.92-.653 3.546-3.135 12.337-11.926.21-.213.346-.547.346-.854 0-.28-.108-.468-.187-.606zM9.963 16.97c-.92.408-2.772 1.15-3.818 1.568l-.88-.88c.398-.98 1.18-2.904 1.57-3.817l3.128 3.13zm-5.165 2.095c-.033-.086-.044-.142-.05-.142.01-.023.054-.124.11-.26l.28.28c-.14.057-.24.1-.263.11-.016.008-.048.02-.077.012zM22.845 4.748c-4.056 4.056-10.516 10.437-11.99 11.7l-.696-.695L20.75 5.255c.196-.194.198-.51.004-.707-.193-.196-.512-.198-.707-.003L9.45 15.045 7.407 13 19.2 1.207l.092-.052c.037-.02.088-.05.108-.055.054 0 .127.036.146.054L22.793 4.4l.054.095c.02.037.05.086.054.105 0 .053-.036.125-.055.148z"/><path d="M18.5 12.5c-.276 0-.5.224-.5.5v9c0 .924-.33 1-.7 1H2c-.626 0-1-.374-1-1V6.8c0-.53.37-.8 1.1-.8H11c.276 0 .5-.224.5-.5S11.276 5 11 5H2.1C.824 5 0 5.706 0 6.8V22c0 1.178.822 2 2 2h15.3c.635 0 1.7-.26 1.7-2v-9c0-.277-.224-.5-.5-.5z"/></svg>