<svg xmlns="http://www.w3.org/2000/svg" width="24" height="24" viewBox="0 0 24 24"><path d="M16.63 1.834c-.14-.14-.35-.183-.535-.112L6.91 5.318c-.212.083-.34.302-.313.53.008.06.682 6.194-6.36 14.45-.17.197-.158.492.027.677L1.64 22.35v.002l1.377 1.376c.097.098.225.146.354.146.116 0 .23-.04.326-.12 8.254-7.04 14.393-6.366 14.45-6.36.22.033.445-.1.53-.312l3.594-9.186c.072-.185.028-.395-.112-.536L16.63 1.834zm1.248 14.54c-1.52-.05-7.137.2-14.48 6.322l-.698-.698 9.683-9.684c.236.125.5.202.786.202.934 0 1.694-.76 1.694-1.695s-.76-1.694-1.695-1.694-1.696.76-1.696 1.695c0 .286.077.55.202.787L1.992 21.29l-.698-.697C7.418 13.25 7.677 7.63 7.618 6.115l8.537-3.343 5.063 5.064-3.34 8.538zm-5.403-5.553c0-.382.312-.694.695-.694.384 0 .695.312.695.695s-.312.696-.695.696c-.192 0-.365-.078-.49-.204-.127-.126-.205-.3-.205-.49zM23.736 6.068L17.884.216c-.195-.195-.512-.195-.707 0s-.195.512 0 .707l5.852 5.852c.097.098.225.146.353.146s.256-.048.354-.145c.195-.196.195-.512 0-.707z"/></svg>