<svg xmlns="http://www.w3.org/2000/svg" width="24" height="24" viewBox="0 0 24 24"><path d="M22.254 22.747c-.748-.748-1.712-1.786-2.568-2.765-.898-1.092-.863-2.006-.805-3.52.022-.576.048-1.23.02-1.98C18.808 11.9 16.684 10 16 9.454V1.2c0-.673-.527-1.2-1.2-1.2H1.3C.595 0 0 .55 0 1.2v16.6c0 .65.595 1.2 1.3 1.2h13.233c.693 1.715 1.833 3.57 2.346 4.37.095.15.256.23.42.23.093 0 .187-.025.27-.08.233-.148.3-.458.15-.69-.45-.702-1.967-3.137-2.53-4.93-.068-.344-.544-1.187-1.883-3.34-.19-.306-.328-.526-.385-.63-.104-.16-.123-.306-.058-.428.07-.133.235-.23.393-.236.135-.01.236.06.334.22l1.9 2.7c.16.226.473.28.698.122.226-.16.28-.47.12-.697L16 15.174v-4.375c.773.766 1.842 2.108 1.9 3.72.026.714.002 1.348-.02 1.906-.06 1.568-.107 2.808 1.043 4.204.88 1.006 1.86 2.062 2.623 2.825.098.098.226.146.354.146s.256-.05.354-.147c.195-.194.195-.51 0-.706zM11.98 13.033c-.235.444-.2.968.072 1.39.027.055.183.31.405.665l.563.912H3V3h10v9.305c-.428.083-.814.345-1.02.728zm2.45-.09c-.114-.19-.263-.33-.43-.443v-10c0-.277-.224-.5-.5-.5h-11c-.276 0-.5.223-.5.5v14c0 .276.224.5.5.5h11.12c.243.416.444.78.542 1H1.3c-.154 0-.3-.113-.3-.2V1.2c0-.087.146-.2.3-.2h13.5c.123 0 .2.077.2.2v12.553l-.57-.81z"/><path d="M9.5 7h1.9c.276 0 .5-.224.5-.5s-.224-.5-.5-.5H9.5c-.276 0-.5.223-.5.5s.224.5.5.5zM9.5 5h1.9c.276 0 .5-.224.5-.5s-.224-.5-.5-.5H9.5c-.276 0-.5.223-.5.5s.224.5.5.5zM9.5 9h1.9c.276 0 .5-.224.5-.5s-.224-.5-.5-.5H9.5c-.276 0-.5.223-.5.5s.224.5.5.5zM11.5 10h-7c-.276 0-.5.223-.5.5s.224.5.5.5h7c.276 0 .5-.224.5-.5s-.224-.5-.5-.5zM10.5 12h-6c-.276 0-.5.223-.5.5s.224.5.5.5h6c.276 0 .5-.224.5-.5s-.224-.5-.5-.5zM8.5 17.5c0-.13-.05-.26-.15-.36-.19-.18-.52-.18-.7 0-.1.1-.15.23-.15.36s.05.26.15.35c.09.1.22.15.35.15.13 0 .26-.05.36-.15.09-.09.14-.22.14-.35zM4.5 9h3c.276 0 .5-.224.5-.5v-4c0-.277-.224-.5-.5-.5h-3c-.276 0-.5.223-.5.5v4c0 .276.224.5.5.5zM5 5h2v3H5V5z"/></svg>