<svg xmlns="http://www.w3.org/2000/svg" width="24" height="24" viewBox="0 0 24 24"><path d="M12 .248C5.52.248.247 5.52.247 12 .247 18.48 5.52 23.754 12 23.754S23.753 18.48 23.753 12 18.48.25 12 .25zm0 22.506c-5.93 0-10.753-4.823-10.753-10.752S6.07 1.248 12 1.248c5.93 0 10.753 4.824 10.753 10.753S17.93 22.755 12 22.755z"/><path d="M12.33 12.896c.086 0 .17-.02.25-.066l3.48-1.99c.24-.136.323-.44.187-.68-.14-.242-.446-.324-.683-.187l-3.15 1.8-5.457-5.42c-.196-.195-.513-.193-.707.002-.195.196-.194.512 0 .707l5.728 5.69c.096.094.224.144.353.144zM20.215 10.535c-.724 0-1.312.588-1.312 1.312s.59 1.312 1.312 1.312 1.312-.59 1.312-1.313-.59-1.312-1.312-1.312zm0 1.624c-.172 0-.312-.14-.312-.313s.14-.312.312-.312.312.14.312.312-.14.312-.312.312zM5.097 11.847c0-.724-.588-1.312-1.312-1.312-.723 0-1.312.588-1.312 1.312s.588 1.312 1.312 1.312c.724 0 1.312-.59 1.312-1.313zm-1.312.312c-.172 0-.312-.14-.312-.313s.14-.312.312-.312.312.14.312.312-.14.312-.312.312zM11.992 4.982c.724 0 1.312-.588 1.312-1.312s-.588-1.312-1.312-1.312-1.312.588-1.312 1.312.588 1.312 1.312 1.312zm0-1.624c.172 0 .312.14.312.312s-.14.312-.312.312-.312-.14-.312-.312.14-.312.312-.312zM11.992 18.772c-.724 0-1.312.588-1.312 1.312s.588 1.312 1.312 1.312 1.312-.59 1.312-1.312-.59-1.312-1.312-1.312zm0 1.624c-.172 0-.312-.14-.312-.312s.14-.312.312-.312.312.14.312.312-.14.312-.312.312zM7.84 5.29c.13 0 .26-.05.35-.15.09-.1.14-.22.14-.35s-.05-.25-.14-.35c-.19-.19-.52-.19-.71 0-.1.09-.15.22-.15.35s.05.25.15.35c.09.1.22.15.36.15zM7.48 18.61c-.09.1-.14.23-.14.36s.05.26.15.36c.09.09.22.14.34.14.13 0 .26-.05.36-.15.09-.09.15-.22.15-.35s-.06-.26-.15-.35c-.19-.19-.52-.19-.71-.01zM15.71 4.39c-.09.09-.14.22-.14.35 0 .14.05.26.15.36.09.09.22.14.35.14.13 0 .25-.05.36-.15.09-.09.14-.22.14-.35 0-.13-.05-.25-.15-.35-.19-.19-.52-.19-.71 0zM15.71 18.67c-.09.09-.14.22-.14.35 0 .12.05.25.15.36.1.09.22.14.35.14.13 0 .26-.06.35-.15s.15-.22.15-.35c0-.14-.05-.27-.15-.36-.18-.18-.5-.2-.71.01zM19.1 8.24c.13 0 .26-.05.36-.15.09-.09.14-.22.14-.35 0-.13-.05-.26-.14-.35-.19-.19-.53-.19-.71 0-.09.09-.15.22-.15.35 0 .13.05.26.15.36.1.09.22.14.35.14zM18.75 15.68c-.09.09-.15.22-.15.35s.06.26.15.36c.1.09.22.14.35.14s.26-.05.36-.15c.09-.09.14-.22.14-.35s-.05-.25-.15-.35c-.18-.18-.51-.19-.7 0zM4.48 7.47c-.09.09-.15.22-.15.35 0 .13.06.26.15.36.1.09.23.14.35.14.13 0 .26-.05.36-.15.09-.09.14-.22.14-.35 0-.13-.05-.26-.15-.36-.19-.18-.5-.19-.7.01zM4.48 15.6c-.09.09-.15.22-.15.36 0 .13.06.25.16.36.09.09.22.14.34.14.13 0 .26-.05.36-.15.09-.1.14-.22.14-.35s-.05-.26-.14-.36c-.19-.18-.52-.18-.71 0z"/></svg>