<svg xmlns="http://www.w3.org/2000/svg" width="24" height="24" viewBox="0 0 24 24"><path d="M22.866 6.44c-.058-.29-.27-.523-.552-.61-.283-.084-.59-.01-.8.2l-2.52 2.52-2.127.44-1.763-1.762.443-2.128 2.52-2.52c.208-.21.285-.516.198-.8-.086-.282-.32-.494-.61-.55-2.18-.432-4.414.248-5.98 1.815-1.793 1.79-1.54 4.79-1.275 6.265l-9.007 7.847c-1.53 1.528-1.53 4.016 0 5.546.737.737 1.716 1.146 2.756 1.15h.016c1.047 0 2.037-.415 2.81-1.19l7.81-8.966c1.473.266 4.47.523 6.266-1.275 1.565-1.567 2.244-3.803 1.814-5.98zm-2.522 5.275c-1.626 1.625-4.732 1.136-5.645.947-.183-.035-.36.026-.48.16L6.246 21.98c-.564.565-1.333.91-2.092.872-.775-.003-1.504-.308-2.054-.856-1.14-1.14-1.14-2.993-.025-4.108l9.198-8.013c.136-.118.197-.3.16-.477-.186-.916-.67-4.027.948-5.646 1.068-1.067 2.5-1.65 3.98-1.65.24 0 .48.016.723.047l-2.35 2.348c-.068.07-.115.157-.135.252l-.526 2.54c-.034.164.017.335.136.454l2.144 2.143c.12.12.287.17.455.136l2.54-.525c.095-.02.182-.067.25-.136l2.35-2.35c.222 1.728-.363 3.462-1.603 4.703z"/><path d="M3.432 18.972c-.464.466-.465 1.224 0 1.69.234.234.54.35.846.35s.612-.115.845-.35c.466-.466.466-1.225 0-1.69-.467-.47-1.226-.465-1.69 0zm.985.985c-.077.075-.2.076-.277 0-.077-.076-.077-.2 0-.277.038-.04.09-.058.14-.058s.1.02.137.056c.076.077.076.202 0 .28z"/></svg>