<svg xmlns="http://www.w3.org/2000/svg" width="24" height="24" viewBox="0 0 24 24"><path d="M21.116 0H2.883C1.293 0 0 1.293 0 2.883v18.234C0 22.707 1.293 24 2.883 24h18.233C22.706 24 24 22.707 24 21.117V2.883C24 1.293 22.706 0 21.116 0zM23 21.117C23 22.155 22.155 23 21.116 23H2.883C1.845 23 1 22.155 1 21.117V2.883C1 1.843 1.845 1 2.883 1h18.233C22.156 1 23 1.844 23 2.883v18.234z"/><path d="M6.997 4.73v-.3c0-.275-.224-.5-.5-.5s-.5.225-.5.5v.3C4.82 4.963 3.932 6 3.932 7.243s.89 2.28 2.064 2.514v9.776c0 .276.224.5.5.5s.5-.224.5-.5V9.757C8.17 9.524 9.06 8.487 9.06 7.243s-.888-2.28-2.063-2.514zm-.5 4.078c-.863 0-1.564-.702-1.564-1.564S5.635 5.68 6.497 5.68s1.564.702 1.564 1.564-.7 1.564-1.563 1.564zM12.593 13.485V4.43c0-.275-.224-.5-.5-.5s-.5.225-.5.5v9.055c-1.175.233-2.064 1.27-2.064 2.514s.888 2.28 2.063 2.513v1.02c0 .276.224.5.5.5s.5-.224.5-.5v-1.02c1.175-.233 2.064-1.27 2.064-2.514s-.89-2.282-2.064-2.515zm-.5 4.078c-.863 0-1.564-.702-1.564-1.564s.7-1.565 1.563-1.565 1.564.702 1.564 1.564-.7 1.563-1.564 1.563zM17.98 7.23v-2.8c0-.275-.225-.5-.5-.5s-.5.225-.5.5v2.8c-1.176.234-2.065 1.272-2.065 2.515s.89 2.28 2.064 2.514v7.273c0 .276.223.5.5.5s.5-.224.5-.5V12.26c1.174-.234 2.063-1.272 2.063-2.515s-.888-2.28-2.064-2.514zm-.5 4.08c-.863 0-1.565-.703-1.565-1.565s.702-1.564 1.564-1.564 1.563.703 1.563 1.565-.7 1.564-1.564 1.564z"/></svg>