<svg xmlns="http://www.w3.org/2000/svg" width="24" height="24" viewBox="0 0 24 24"><path d="M21.135 0H2.865C1.285 0 0 1.285 0 2.865v18.27C0 22.715 1.285 24 2.865 24h18.27C22.715 24 24 22.715 24 21.135V2.865C24 1.285 22.715 0 21.135 0zM23 21.135C23 22.163 22.163 23 21.135 23H2.865C1.837 23 1 22.163 1 21.135V2.865C1 1.837 1.837 1 2.865 1h18.27C22.163 1 23 1.837 23 2.865v18.27z"/><path d="M18.485 5H5.515c-.276 0-.5.224-.5.5s.223.5.5.5h12.97c.277 0 .5-.224.5-.5s-.223-.5-.5-.5zM18.485 9H5.515c-.276 0-.5.224-.5.5s.224.5.5.5h12.97c.277 0 .5-.224.5-.5s-.223-.5-.5-.5zM18.485 13H5.515c-.276 0-.5.224-.5.5s.224.5.5.5h12.97c.277 0 .5-.224.5-.5s-.223-.5-.5-.5zM18.485 17H5.515c-.276 0-.5.224-.5.5s.224.5.5.5h12.97c.277 0 .5-.224.5-.5s-.223-.5-.5-.5z"/></svg>