<svg xmlns="http://www.w3.org/2000/svg" width="24" height="24" viewBox="0 0 24 24"><path d="M23.567 17.59l-5.656-5.656 5.624-5.624c.21-.21.326-.49.326-.79 0-.298-.116-.578-.326-.787l-4.32-4.32c-.405-.405-1.17-.405-1.575 0L12.015 6.04 6.39.413c-.427-.425-1.148-.425-1.576 0L.43 4.802c-.433.435-.433 1.142 0 1.577L6.053 12 .466 17.59c-.212.21-.33.49-.33.79 0 .297.118.577.33.786l4.318 4.32c.434.433 1.14.433 1.575 0l5.59-5.59 5.654 5.655c.21.21.488.327.787.328h.003c.3 0 .58-.116.79-.326l4.384-4.385c.21-.21.327-.49.327-.788 0-.3-.116-.58-.327-.79zm-.707.87l-4.386 4.386.354.354-.516-.354-6.01-6.01c-.1-.1-.227-.147-.355-.147s-.256.048-.354.145L5.65 22.777c-.045.045-.118.046-.162 0L1.17 18.46v-.162l5.942-5.944c.195-.195.195-.512 0-.707L1.138 5.67c-.045-.044-.046-.118 0-.162L5.52 1.122c.038-.037.13-.035.165 0L11.663 7.1c.188.187.52.187.707 0l5.977-5.978c.035-.035.127-.035.162 0l4.318 4.32v.162L16.85 11.58c-.093.095-.145.222-.145.355s.053.26.146.354l6.01 6.007.355-.354-.355.516z"/></svg>