<svg xmlns="http://www.w3.org/2000/svg" width="24" height="24" viewBox="0 0 24 24"><path d="M21.002 4.025c0-.016-.005-.03-.005-.046v-.002c0-.076-.018-.146-.05-.21l-.01-.022c-.032-.056-.07-.104-.12-.145-.007-.004-.01-.013-.016-.018-.004-.004-.01-.004-.015-.007-.046-.032-.097-.053-.152-.07-.02-.004-.035-.012-.054-.015-.01 0-.018-.007-.028-.008-1.664-.155-2.8-.626-3.287-1.36-.432-.652-.227-1.32-.22-1.345.06-.177.018-.373-.112-.507-.13-.135-.325-.185-.503-.133L4.335 3.724c-.01.003-.016.01-.025.013-.01.004-.02.004-.03.007-.023.01-.04.03-.062.043-.026.016-.052.03-.074.05-.007.006-.015.01-.022.015-.017.017-.026.04-.04.06-.018.025-.038.05-.05.077-.005.007-.012.013-.016.022-.008.02-.008.044-.013.066-.01.033-.018.065-.02.1 0 .01-.005.018-.005.027v.004L3.996 20c0 .036.06 3.482 4.446 3.875.01 0 .02.01.03.01.007 0 .014-.003.02-.003h.01c.013.002.027.003.04.003.085 0 .16-.027.23-.064l11.858-3.23c.217-.06.368-.257.368-.482V4.042c0-.006.003-.01.004-.017zM8.455 6.742c-.737-.073-1.318-.23-1.775-.435l10.308-3.02c.363.31.82.56 1.37.756l-9.903 2.7zm7.85-4.296L5.618 5.576c-.347-.372-.507-.75-.58-1.017l10.954-3.252c.013.333.096.732.31 1.138zM4.994 20L4.98 6.34c.058.06.115.118.18.176.014.012.025.023.04.033.59.51 1.47.95 2.77 1.138v15.12C5.066 22.3 4.998 20.097 4.997 20zm15.002-.275L8.97 22.73V7.638l11.027-3.005v15.092z"/></svg>