<svg xmlns="http://www.w3.org/2000/svg" width="24" height="24" viewBox="0 0 24 24"><path d="M11.54 5.184c-.275 0-.5.224-.5.5v6.88c0 .276.225.5.5.5s.5-.224.5-.5v-6.88c0-.277-.223-.5-.5-.5zM11.54 14.903c-.275 0-.5.224-.5.5v.176c0 .275.225.5.5.5s.5-.225.5-.5v-.177c0-.276-.223-.5-.5-.5z"/><path d="M22.102 15.915L13.926 1.51C13.434.642 12.543.123 11.543.123c-1.002 0-1.894.52-2.386 1.387L.98 15.915c-.486.857-.48 1.88.018 2.733.497.853 1.382 1.362 2.368 1.362h.624V23c0 .385.23.726.59.87.116.046.237.068.356.068.247 0 .484-.096.646-.268l4.006-3.66h10.13c.984 0 1.87-.51 2.366-1.364s.504-1.874.018-2.73zm-.88 2.23c-.316.54-.88.865-1.504.865H9.395c-.125 0-.245.047-.337.13L4.99 22.86V19.51c0-.276-.224-.5-.5-.5H3.365c-.626 0-1.188-.323-1.503-.866-.316-.543-.32-1.19-.012-1.735l8.176-14.406c.312-.55.88-.88 1.515-.88.637 0 1.202.33 1.515.88l8.177 14.405c.31.543.305 1.19-.01 1.734z"/></svg>