<svg xmlns="http://www.w3.org/2000/svg" width="24" height="24" viewBox="0 0 24 24"><path d="M7.536 6h8.948c.276 0 .5-.224.5-.5s-.224-.5-.5-.5H7.535c-.276 0-.5.224-.5.5s.223.5.5.5zM7.536 9h8.948c.276 0 .5-.224.5-.5s-.224-.5-.5-.5H7.535c-.276 0-.5.224-.5.5s.223.5.5.5zM7.536 12h8.948c.276 0 .5-.224.5-.5s-.224-.5-.5-.5H7.536c-.276 0-.5.224-.5.5s.223.5.5.5zM14.96 14.5c0-.276-.225-.5-.5-.5H7.535c-.276 0-.5.224-.5.5s.224.5.5.5h6.923c.275 0 .5-.224.5-.5zM16.014 17.287c-.95 0-1.72.77-1.72 1.72s.77 1.722 1.72 1.722 1.72-.772 1.72-1.722-.77-1.72-1.72-1.72zm0 2.44c-.397 0-.72-.322-.72-.72s.322-.72.72-.72.72.322.72.72-.323.72-.72.72z"/><path d="M18.135 0H5.865C4.285 0 3 1.285 3 2.865v18.27C3 22.715 4.285 24 5.865 24h12.27C19.715 24 21 22.715 21 21.135V2.865C21 1.285 19.715 0 18.135 0zM20 21.135C20 22.163 19.163 23 18.135 23H5.865C4.837 23 4 22.163 4 21.135V2.865C4 1.837 4.837 1 5.865 1h12.27C19.163 1 20 1.837 20 2.865v18.27z"/></svg>