<svg xmlns="http://www.w3.org/2000/svg" width="24" height="24" viewBox="0 0 24 24"><path d="M23.5 0H.5C.224 0 0 .223 0 .5v23c0 .276.224.5.5.5h23c.276 0 .5-.224.5-.5V.5c0-.277-.224-.5-.5-.5zM23 23H1V1h22v22z"/><path d="M11.98 12.755c.097.095.225.145.354.145.085 0 .17-.02.248-.066l3.516-2.01c.24-.136.323-.44.187-.68-.14-.242-.446-.324-.683-.187l-3.185 1.82L6.902 6.3c-.196-.194-.51-.194-.708.002-.194.196-.193.512.003.707l5.784 5.745zM18.978 11.845c0 .728.593 1.32 1.32 1.32s1.32-.592 1.32-1.32c0-.728-.593-1.32-1.32-1.32s-1.32.592-1.32 1.32zm1.32-.32c.177 0 .32.144.32.32 0 .176-.144.32-.32.32s-.32-.144-.32-.32c0-.176.143-.32.32-.32zM3.703 13.165c.728 0 1.32-.592 1.32-1.32 0-.728-.592-1.32-1.32-1.32-.728 0-1.32.592-1.32 1.32 0 .728.592 1.32 1.32 1.32zm0-1.64c.176 0 .32.144.32.32 0 .176-.144.32-.32.32-.177 0-.32-.144-.32-.32 0-.176.143-.32.32-.32zM11.992 4.906c.728 0 1.32-.592 1.32-1.32s-.592-1.32-1.32-1.32c-.728 0-1.32.592-1.32 1.32s.592 1.32 1.32 1.32zm0-1.64c.176 0 .32.143.32.32s-.144.32-.32.32c-.177 0-.32-.145-.32-.32s.143-.32.32-.32zM11.992 18.845c-.728 0-1.32.593-1.32 1.32s.592 1.32 1.32 1.32c.728 0 1.32-.593 1.32-1.32s-.593-1.32-1.32-1.32zm0 1.64c-.177 0-.32-.143-.32-.32s.144-.32.32-.32c.176 0 .32.145.32.32s-.144.32-.32.32zM7.79 5.22c.13 0 .26-.06.36-.15.09-.1.14-.23.14-.35 0-.13-.05-.26-.14-.36-.19-.19-.54-.18-.71 0-.09.09-.15.22-.15.36 0 .13.06.26.15.34.09.1.22.16.35.16zM7.44 18.69c-.09.09-.15.22-.15.35 0 .14.06.26.15.35.09.1.22.15.35.15.13 0 .26-.05.36-.15.09-.09.14-.22.14-.35s-.05-.26-.14-.35c-.19-.19-.54-.18-.71 0zM16.11 5.17c.13 0 .26-.05.36-.15.09-.09.14-.22.14-.35 0-.13-.05-.26-.15-.36-.19-.18-.52-.18-.7.01-.1.09-.15.22-.15.35 0 .13.05.26.14.35.1.1.23.15.36.15zM15.75 18.74c-.09.09-.14.22-.14.35s.05.26.15.35c.09.1.22.15.35.15.13 0 .26-.05.36-.15.09-.1.14-.23.14-.35 0-.13-.05-.26-.15-.36-.18-.18-.51-.18-.71.01zM19.17 8.2c.13 0 .26-.05.36-.15.09-.1.15-.22.15-.35s-.06-.26-.15-.35c-.19-.19-.53-.19-.71-.01-.09.09-.14.23-.14.36s.05.26.14.35c.09.1.22.15.35.15zM19.17 16.57c.13 0 .26-.05.36-.15.1-.09.15-.22.15-.35s-.06-.25-.15-.35c-.19-.19-.53-.18-.71 0-.09.09-.14.22-.14.35 0 .14.05.26.14.36.1.09.22.14.35.14zM4.76 8.28c.13 0 .26-.06.36-.15.09-.1.14-.22.14-.35 0-.13-.05-.26-.15-.36-.19-.18-.5-.19-.71.01-.09.09-.14.22-.14.35 0 .13.05.25.15.36.1.09.22.14.35.14zM4.4 15.65c-.09.09-.14.22-.14.35s.05.25.15.35c.1.1.23.15.35.15.13 0 .26-.06.36-.15.09-.1.14-.22.14-.35s-.05-.26-.14-.36c-.19-.18-.53-.18-.72.01z"/></svg>