<svg xmlns="http://www.w3.org/2000/svg" width="24" height="24" viewBox="0 0 24 24"><path d="M17.173 15.02H6.825c-.172 0-.333.09-.424.235-.09.146-.1.33-.024.483 1.02 2.09 3.227 3.44 5.624 3.44 2.396 0 4.604-1.35 5.623-3.44.076-.154.066-.338-.025-.483-.092-.146-.252-.235-.425-.235zM12 18.18c-1.726 0-3.333-.827-4.295-2.16h8.588c-.963 1.333-2.57 2.16-4.294 2.16z"/><path d="M11.994.215C5.482.215.184 5.512.184 12.025c0 6.51 5.298 11.81 11.81 11.81s11.81-5.3 11.81-11.81c0-6.513-5.298-11.81-11.81-11.81zm0 22.62c-5.96 0-10.81-4.85-10.81-10.81 0-5.96 4.85-10.81 10.81-10.81s10.81 4.85 10.81 10.81c0 5.96-4.85 10.81-10.81 10.81z"/><path d="M8.552 11.994c1.35 0 2.446-1.098 2.446-2.447S9.9 7.1 8.552 7.1 6.105 8.2 6.105 9.548s1.098 2.447 2.447 2.447zm0-3.893c.797 0 1.446.65 1.446 1.447 0 .798-.65 1.447-1.446 1.447-.798 0-1.447-.65-1.447-1.447S7.755 8.1 8.552 8.1zM15.46 7.1c-1.35 0-2.447 1.098-2.447 2.447s1.098 2.447 2.446 2.447 2.445-1.098 2.445-2.447S16.808 7.1 15.46 7.1zm0 3.894c-.8 0-1.447-.65-1.447-1.447S14.66 8.1 15.46 8.1s1.445.65 1.445 1.447c0 .798-.648 1.447-1.446 1.447z"/></svg>