<?xml version="1.0" encoding="utf-8"?>
<!-- Generator: Adobe Illustrator 19.2.0, SVG Export Plug-In . SVG Version: 6.00 Build 0)  -->
<svg version="1.1" id="Layer_1" xmlns="http://www.w3.org/2000/svg" xmlns:xlink="http://www.w3.org/1999/xlink" x="0px" y="0px"
	 width="24px" height="24px" viewBox="0 0 24 24" style="enable-background:new 0 0 24 24;" xml:space="preserve">
<g>
	<path d="M11.999,1.022c-6.165,0-11.78,1.847-11.78,3.958c0,1.781,2.604,4.635,5.124,7.395c1.518,1.663,2.955,3.238,3.503,4.248
		v4.575c0,1.251,1.584,1.811,3.155,1.811c1.569,0,3.152-0.56,3.152-1.811v-4.575c0.548-1.011,1.984-2.585,3.503-4.249
		c2.519-2.76,5.123-5.614,5.123-7.395V4.896C23.778,2.868,18.164,1.022,11.999,1.022z M22.778,4.98c0,1.393-2.695,4.347-4.861,6.72
		c-1.618,1.773-3.146,3.448-3.712,4.577c-0.034,0.069-0.053,0.146-0.053,0.224v4.697c0,0.439-0.985,0.811-2.152,0.811
		c-1.168,0-2.155-0.371-2.155-0.811v-4.697c0-0.078-0.018-0.154-0.053-0.224c-0.565-1.129-2.093-2.804-3.711-4.576
		C3.915,9.327,1.219,6.373,1.219,4.896c0-0.853,4.184-2.875,10.78-2.875c6.596,0,10.779,2.021,10.779,2.875V4.98z"/>
	<path d="M22.052,4.852c-0.24-0.13-0.545-0.044-0.679,0.198c-0.596,1.085-4.626,1.903-9.375,1.903c0,0-0.001,0-0.001,0
		c-4.748,0-8.777-0.818-9.372-1.903c-0.133-0.241-0.436-0.33-0.679-0.198C1.703,4.985,1.615,5.289,1.748,5.531
		c1.266,2.305,8.76,2.421,10.249,2.421c0,0,0,0,0.001,0c1.493,0,8.987-0.117,10.252-2.421C22.383,5.289,22.294,4.985,22.052,4.852z"
		/>
</g>
</svg>
