<?xml version="1.0" encoding="utf-8"?>
<!-- Generator: Adobe Illustrator 19.2.0, SVG Export Plug-In . SVG Version: 6.00 Build 0)  -->
<svg version="1.1" id="Layer_1" xmlns="http://www.w3.org/2000/svg" xmlns:xlink="http://www.w3.org/1999/xlink" x="0px" y="0px"
	 width="24px" height="24px" viewBox="0 0 24 24" style="enable-background:new 0 0 24 24;" xml:space="preserve">
<path d="M23.354,3.646c-0.002-0.002-0.004-0.004-0.006-0.006l-2.994-2.894c-0.768-0.77-2.138-0.77-2.907,0l-14.8,14.8c0,0,0,0,0,0
	c-0.022,0.022-0.044,0.047-0.084,0.127c-0.011,0.022-0.023,0.042-0.031,0.064c-0.177,0.39-0.648,1.681-2.306,6.504
	c-0.153,0.458-0.03,0.961,0.32,1.312c0.251,0.251,0.58,0.386,0.915,0.386c0.134,0,0.269-0.021,0.399-0.065
	c4.247-1.438,5.855-1.982,6.465-2.298c0.085-0.023,0.166-0.059,0.23-0.122L23.354,6.553C24.154,5.752,24.154,4.448,23.354,3.646z
	 M7.315,20.923c-0.913,0.335-2.641,0.935-4.214,1.472l-1.391-1.391c0.543-1.569,1.144-3.287,1.478-4.208L7.315,20.923z
	 M1.542,22.926c-0.145,0.052-0.257-0.047-0.288-0.079c-0.031-0.03-0.128-0.143-0.081-0.284c0.056-0.162,0.114-0.333,0.175-0.507
	l0.7,0.7C1.873,22.813,1.703,22.871,1.542,22.926z M22.646,5.847L8.199,20.392L6.807,19L18.554,7.254
	c0.195-0.195,0.195-0.512,0-0.707s-0.512-0.195-0.707,0L6.1,18.293L3.707,15.9L18.153,1.453c0.392-0.391,1.095-0.399,1.499,0.006
	l2.997,2.896C23.051,4.761,23.05,5.443,22.646,5.847z"/>
</svg>
