<?xml version="1.0" encoding="utf-8"?>
<!-- Generator: Adobe Illustrator 19.2.0, SVG Export Plug-In . SVG Version: 6.00 Build 0)  -->
<svg version="1.1" id="Layer_1" xmlns="http://www.w3.org/2000/svg" xmlns:xlink="http://www.w3.org/1999/xlink" x="0px" y="0px"
	 width="24px" height="24px" viewBox="0 0 24 24" style="enable-background:new 0 0 24 24;" xml:space="preserve">
<g>
	<path d="M7.549,19.642c-0.687,0.002-1.246,0.555-1.246,1.232c0,0,0,0,0,0.001c0.001,0.678,0.56,1.229,1.247,1.229
		s1.246-0.552,1.247-1.231C8.797,20.196,8.238,19.644,7.549,19.642z M7.303,20.875c0-0.258,0.495-0.253,0.494-0.001
		C7.797,21.13,7.304,21.129,7.303,20.875z"/>
	<path d="M10.766,0.228c-0.153-0.101-0.349-0.108-0.511-0.022c-0.162,0.087-0.263,0.256-0.263,0.439l0,3.271L8.788,5.71l-2.555,0
		L5.03,3.917v-3.27c0-0.184-0.101-0.353-0.262-0.44C4.605,0.12,4.41,0.129,4.256,0.228C2.621,1.3,1.646,3.088,1.646,5.011
		c0,2.267,2.237,4.016,3.255,4.693L4.139,20.543c0,1.825,1.513,3.311,3.372,3.311c1.86,0,3.373-1.485,3.371-3.346L10.121,9.704
		c1.018-0.678,3.255-2.428,3.255-4.693C13.376,3.088,12.401,1.3,10.766,0.228z M9.337,9.02C9.18,9.118,9.089,9.295,9.103,9.48
		l0.781,11.063c0,1.274-1.064,2.311-2.373,2.311s-2.372-1.036-2.374-2.275L5.919,9.479c0.013-0.185-0.077-0.362-0.235-0.46
		C4.971,8.577,2.646,6.98,2.646,5.011c0-1.254,0.504-2.439,1.384-3.318v2.375c0,0.099,0.029,0.196,0.085,0.279l1.437,2.141
		C5.645,6.627,5.8,6.71,5.967,6.71l3.088,0c0.167,0,0.322-0.083,0.415-0.221l1.437-2.141c0.055-0.083,0.085-0.179,0.085-0.279
		l0-2.376c0.879,0.879,1.384,2.064,1.384,3.318C12.376,6.978,10.05,8.577,9.337,9.02z"/>
	<path d="M20.789,13.325c0.178-0.082,0.291-0.259,0.291-0.454v-2.073c0-0.276-0.224-0.5-0.5-0.5h-2.537v-6.72h0.104
		c0.218,0,0.411-0.142,0.477-0.35l0.466-1.476c0.036-0.113,0.03-0.235-0.016-0.345l-0.466-1.104
		c-0.078-0.185-0.26-0.306-0.461-0.306h-1.209c-0.201,0-0.383,0.121-0.461,0.306l-0.466,1.104c-0.046,0.109-0.052,0.231-0.016,0.345
		l0.466,1.476c0.065,0.208,0.259,0.35,0.477,0.35h0.104v6.72h-2.537c-0.276,0-0.5,0.224-0.5,0.5v2.073
		c0,0.195,0.113,0.373,0.291,0.454c0.369,0.17,0.599,0.462,0.599,0.763s-0.229,0.593-0.599,0.763
		c-0.178,0.081-0.291,0.259-0.291,0.454v5.661c0,1.612,1.587,2.924,3.537,2.924s3.537-1.312,3.537-2.924v-5.661
		c0-0.195-0.113-0.373-0.291-0.454c-0.369-0.17-0.599-0.462-0.599-0.763S20.42,13.495,20.789,13.325z M17.271,0.999h0.545
		l0.266,0.629l-0.3,0.951h-0.477l-0.3-0.951L17.271,0.999z M20.08,12.576c-0.556,0.357-0.89,0.914-0.89,1.512
		s0.334,1.154,0.89,1.512v5.366c0,1.061-1.138,1.924-2.537,1.924s-2.537-0.863-2.537-1.924v-5.366
		c0.556-0.357,0.89-0.914,0.89-1.512s-0.334-1.154-0.89-1.512v-1.278h5.074V12.576z"/>
	<path d="M17.043,16.187v4.687c0,0.276,0.224,0.5,0.5,0.5s0.5-0.224,0.5-0.5v-4.687c0-0.276-0.224-0.5-0.5-0.5
		S17.043,15.911,17.043,16.187z"/>
</g>
</svg>
