<?xml version="1.0" encoding="utf-8"?>
<!-- Generator: Adobe Illustrator 19.2.0, SVG Export Plug-In . SVG Version: 6.00 Build 0)  -->
<svg version="1.1" id="Layer_1" xmlns="http://www.w3.org/2000/svg" xmlns:xlink="http://www.w3.org/1999/xlink" x="0px" y="0px"
	 width="24px" height="24px" viewBox="0 0 24 24" style="enable-background:new 0 0 24 24;" xml:space="preserve">
<path d="M23.347,10.344L13.176,1.533c-0.034-0.029-0.075-0.054-0.121-0.073c-0.651-0.494-1.55-0.471-2.178,0.073l-10.171,8.81
	c-0.729,0.631-0.821,1.751-0.204,2.497c0.39,0.472,1.037,0.466,1.533,0.366v9.471c0,0.715,0.574,1.297,1.28,1.297h6.127
	c0.276,0,0.5-0.224,0.5-0.5v-8.26h4.17v8.26c0,0.276,0.224,0.5,0.5,0.5h6.127c0.706,0,1.28-0.582,1.28-1.297v-9.471
	c0.498,0.098,1.143,0.105,1.533-0.366C24.168,12.094,24.076,10.973,23.347,10.344z M22.781,12.202
	c-0.103,0.121-0.636,0.055-1.062-0.131c-0.155-0.068-0.335-0.052-0.474,0.04c-0.141,0.092-0.227,0.25-0.227,0.418v10.147
	c0,0.164-0.126,0.297-0.28,0.297h-5.627v-8.26c0-0.276-0.224-0.5-0.5-0.5h-5.17c-0.276,0-0.5,0.224-0.5,0.5v8.26H3.314
	c-0.154,0-0.28-0.133-0.28-0.297V12.529c0-0.169-0.085-0.327-0.227-0.419c-0.141-0.091-0.32-0.105-0.475-0.039
	c-0.378,0.167-0.953,0.261-1.061,0.13c-0.273-0.33-0.234-0.824,0.088-1.103l10.171-8.811c0.278-0.24,0.681-0.24,0.959,0
	c0.036,0.032,0.077,0.058,0.12,0.077L22.692,11.1C23.015,11.378,23.054,11.872,22.781,12.202z"/>
</svg>
