<?xml version="1.0" encoding="utf-8"?>
<!-- Generator: Adobe Illustrator 19.2.0, SVG Export Plug-In . SVG Version: 6.00 Build 0)  -->
<svg version="1.1" id="Layer_1" xmlns="http://www.w3.org/2000/svg" xmlns:xlink="http://www.w3.org/1999/xlink" x="0px" y="0px"
	 width="24px" height="24px" viewBox="0 0 24 24" style="enable-background:new 0 0 24 24;" xml:space="preserve">
<g>
	<path d="M8.457,9H3.493c-0.276,0-0.5,0.224-0.5,0.5s0.224,0.5,0.5,0.5h4.963c0.276,0,0.5-0.224,0.5-0.5S8.733,9,8.457,9z"/>
	<path d="M8.457,12H3.493c-0.276,0-0.5,0.224-0.5,0.5s0.224,0.5,0.5,0.5h4.963c0.276,0,0.5-0.224,0.5-0.5S8.733,12,8.457,12z"/>
	<path d="M8.457,15H3.493c-0.276,0-0.5,0.224-0.5,0.5s0.224,0.5,0.5,0.5h4.963c0.276,0,0.5-0.224,0.5-0.5S8.733,15,8.457,15z"/>
	<path d="M20.446,9h-4.936c-0.276,0-0.5,0.224-0.5,0.5s0.224,0.5,0.5,0.5h4.936c0.276,0,0.5-0.224,0.5-0.5S20.723,9,20.446,9z"/>
	<path d="M20.446,12h-4.936c-0.276,0-0.5,0.224-0.5,0.5s0.224,0.5,0.5,0.5h4.936c0.276,0,0.5-0.224,0.5-0.5S20.723,12,20.446,12z"/>
	<path d="M20.446,15h-4.936c-0.276,0-0.5,0.224-0.5,0.5s0.224,0.5,0.5,0.5h4.936c0.276,0,0.5-0.224,0.5-0.5S20.723,15,20.446,15z"/>
	<path d="M17.698,3.779c-2.359,0-4.73,0.385-5.733,1.22c-1.003-0.836-3.374-1.22-5.732-1.22C3.13,3.779,0,4.442,0,5.925v14.658
		c0,0.156,0.073,0.303,0.197,0.397c0.088,0.067,0.195,0.103,0.303,0.103c0.044,0,0.088-0.006,0.132-0.018
		c0.899-0.246,3.307-0.432,5.601-0.432c2.041,0,3.509,0.149,5.665,0.444c0.023,0.003,0.045-0.005,0.068-0.005
		s0.045,0.008,0.068,0.005c2.156-0.295,3.625-0.444,5.666-0.444c2.293,0,4.7,0.186,5.6,0.432c0.043,0.012,0.088,0.018,0.132,0.018
		c0.108,0,0.215-0.035,0.304-0.103c0.124-0.095,0.196-0.241,0.196-0.397V5.925C23.93,4.442,20.8,3.779,17.698,3.779z M1,19.967
		V5.926c0.036-0.343,1.859-1.147,5.232-1.147s5.197,0.804,5.232,1.146v14.086c-1.902-0.251-3.319-0.378-5.232-0.378
		C4.534,19.634,2.342,19.739,1,19.967z M22.93,19.967c-1.342-0.228-3.533-0.333-5.231-0.333c-1.913,0-3.33,0.127-5.233,0.378V5.926
		c0.036-0.343,1.86-1.147,5.233-1.147s5.196,0.804,5.231,1.146V19.967z"/>
</g>
</svg>
