<?xml version="1.0" encoding="utf-8"?>
<!-- Generator: Adobe Illustrator 19.2.0, SVG Export Plug-In . SVG Version: 6.00 Build 0)  -->
<svg version="1.1" id="Layer_1" xmlns="http://www.w3.org/2000/svg" xmlns:xlink="http://www.w3.org/1999/xlink" x="0px" y="0px"
	 width="24px" height="24px" viewBox="0 0 24 24" style="enable-background:new 0 0 24 24;" xml:space="preserve">
<g>
	<path d="M22.526,8.969c0-1.505-1.102-2.749-2.539-2.989V1.001c0-0.276-0.224-0.5-0.5-0.5s-0.5,0.224-0.5,0.5v4.978
		c-1.438,0.24-2.54,1.484-2.54,2.989s1.102,2.748,2.54,2.989v11.065c0,0.276,0.224,0.5,0.5,0.5s0.5-0.224,0.5-0.5V11.957
		C21.425,11.717,22.526,10.473,22.526,8.969z M19.487,11.008c-1.125,0-2.04-0.915-2.04-2.039s0.915-2.04,2.04-2.04
		c1.124,0,2.039,0.915,2.039,2.04S20.611,11.008,19.487,11.008z"/>
	<path d="M5.053,2.077V1.001c0-0.276-0.224-0.5-0.5-0.5s-0.5,0.224-0.5,0.5v1.076c-1.437,0.24-2.539,1.484-2.539,2.989
		s1.102,2.749,2.539,2.989v14.968c0,0.276,0.224,0.5,0.5,0.5s0.5-0.224,0.5-0.5V8.055c1.438-0.24,2.54-1.484,2.54-2.989
		S6.491,2.317,5.053,2.077z M4.553,7.105c-1.125,0-2.039-0.915-2.039-2.04s0.915-2.039,2.039-2.039s2.04,0.915,2.04,2.039
		S5.678,7.105,4.553,7.105z"/>
	<path d="M12.5,14.076V1.001c0-0.276-0.224-0.5-0.5-0.5s-0.5,0.224-0.5,0.5v13.074c-1.437,0.24-2.539,1.484-2.539,2.989
		c0,1.505,1.102,2.749,2.539,2.99v2.969c0,0.276,0.224,0.5,0.5,0.5s0.5-0.224,0.5-0.5v-2.969c1.437-0.24,2.539-1.484,2.539-2.99
		C15.039,15.56,13.937,14.316,12.5,14.076z M12,19.104c-1.125,0-2.039-0.915-2.039-2.04c0-1.124,0.915-2.039,2.039-2.039
		c1.124,0,2.039,0.915,2.039,2.039C14.039,18.189,13.124,19.104,12,19.104z"/>
</g>
</svg>
