<?xml version="1.0" encoding="utf-8"?>
<!-- Generator: Adobe Illustrator 19.2.0, SVG Export Plug-In . SVG Version: 6.00 Build 0)  -->
<svg version="1.1" id="Layer_1" xmlns="http://www.w3.org/2000/svg" xmlns:xlink="http://www.w3.org/1999/xlink" x="0px" y="0px"
	 width="24px" height="24px" viewBox="0 0 24 24" style="enable-background:new 0 0 24 24;" xml:space="preserve">
<g>
	<path d="M21.135,0H2.865C1.285,0,0,1.285,0,2.865v18.27C0,22.715,1.285,24,2.865,24h18.27C22.715,24,24,22.715,24,21.135V2.865
		C24,1.285,22.715,0,21.135,0z M23,21.135C23,22.163,22.163,23,21.135,23H2.865C1.837,23,1,22.163,1,21.135V2.865
		C1,1.837,1.837,1,2.865,1h18.27C22.163,1,23,1.837,23,2.865V21.135z"/>
	<path d="M18.52,6h-7.014c-0.276,0-0.5,0.224-0.5,0.5s0.224,0.5,0.5,0.5h7.014c0.276,0,0.5-0.224,0.5-0.5S18.796,6,18.52,6z"/>
	<path d="M18.52,12h-7.014c-0.276,0-0.5,0.224-0.5,0.5s0.224,0.5,0.5,0.5h7.014c0.276,0,0.5-0.224,0.5-0.5S18.796,12,18.52,12z"/>
	<path d="M18.52,18h-7.014c-0.276,0-0.5,0.224-0.5,0.5s0.224,0.5,0.5,0.5h7.014c0.276,0,0.5-0.224,0.5-0.5S18.796,18,18.52,18z"/>
	<path d="M6,4.014c-1.097,0-1.989,0.893-1.989,1.99S4.903,7.994,6,7.994c1.097,0,1.99-0.893,1.99-1.99S7.097,4.014,6,4.014z
		 M6,6.994c-0.545,0-0.989-0.444-0.989-0.99S5.454,5.014,6,5.014c0.546,0,0.99,0.444,0.99,0.99S6.545,6.994,6,6.994z"/>
	<path d="M6,10.015c-1.097,0-1.989,0.893-1.989,1.99c0,1.097,0.893,1.989,1.989,1.989c1.097,0,1.99-0.893,1.99-1.989
		C7.989,10.907,7.097,10.015,6,10.015z M6,12.994c-0.545,0-0.989-0.444-0.989-0.989c0-0.546,0.444-0.99,0.989-0.99
		c0.546,0,0.99,0.444,0.99,0.99C6.989,12.55,6.545,12.994,6,12.994z"/>
	<path d="M6,16.015c-1.097,0-1.989,0.893-1.989,1.989c0,1.098,0.893,1.99,1.989,1.99c1.097,0,1.99-0.893,1.99-1.99
		C7.989,16.908,7.097,16.015,6,16.015z M6,18.995c-0.545,0-0.989-0.444-0.989-0.99S5.454,17.015,6,17.015
		c0.546,0,0.99,0.443,0.99,0.989S6.545,18.995,6,18.995z"/>
</g>
</svg>
