<?xml version="1.0" encoding="utf-8"?>
<!-- Generator: Adobe Illustrator 19.2.0, SVG Export Plug-In . SVG Version: 6.00 Build 0)  -->
<svg version="1.1" id="Layer_1" xmlns="http://www.w3.org/2000/svg" xmlns:xlink="http://www.w3.org/1999/xlink" x="0px" y="0px"
	 width="24px" height="24px" viewBox="0 0 24 24" style="enable-background:new 0 0 24 24;" xml:space="preserve">
<g>
	<path d="M11.99,0.358c-6.441,0-11.682,5.24-11.682,11.682c0,6.441,5.24,11.681,11.682,11.681c6.442,0,11.682-5.24,11.682-11.681
		C23.672,5.598,18.432,0.358,11.99,0.358z M11.99,22.72c-5.89,0-10.682-4.792-10.682-10.681C1.308,6.15,6.1,1.358,11.99,1.358
		c5.89,0,10.682,4.792,10.682,10.682C22.672,17.928,17.88,22.72,11.99,22.72z"/>
	<path d="M13.431,12.742c0.563-0.716,0.913-1.606,0.913-2.585c0-2.319-1.887-4.206-4.206-4.206s-4.206,1.887-4.206,4.206
		c0,2.319,1.887,4.206,4.206,4.206c0.979,0,1.87-0.35,2.585-0.914l4.112,4.113c0.098,0.098,0.226,0.146,0.354,0.146
		s0.256-0.049,0.354-0.146c0.195-0.195,0.195-0.512,0-0.707L13.431,12.742z M6.933,10.157c0-1.768,1.438-3.206,3.206-3.206
		s3.206,1.438,3.206,3.206s-1.438,3.206-3.206,3.206S6.933,11.925,6.933,10.157z"/>
</g>
</svg>
