<?xml version="1.0" encoding="utf-8"?>
<!-- Generator: Adobe Illustrator 19.2.0, SVG Export Plug-In . SVG Version: 6.00 Build 0)  -->
<svg version="1.1" id="Layer_1" xmlns="http://www.w3.org/2000/svg" xmlns:xlink="http://www.w3.org/1999/xlink" x="0px" y="0px"
	 width="24px" height="24px" viewBox="0 0 24 24" style="enable-background:new 0 0 24 24;" xml:space="preserve">
<g>
	<path d="M21.1,0H2.9C1.328,0,0,1.328,0,2.9v18.2C0,22.672,1.328,24,2.9,24h18.2c1.572,0,2.9-1.328,2.9-2.899V2.9
		C24,1.328,22.672,0,21.1,0z M2.9,1h18.2C22.13,1,23,1.87,23,2.9V6H1V2.9C1,1.87,1.87,1,2.9,1z M21.1,23H2.9C1.87,23,1,22.13,1,21.1
		V7h22V21.1C23,22.13,22.13,23,21.1,23z"/>
	<path d="M7.5,4.1h0.1c0.276,0,0.5-0.224,0.5-0.5S7.876,3.1,7.6,3.1H7.5C7.224,3.1,7,3.323,7,3.6S7.224,4.1,7.5,4.1z"/>
	<path d="M16.5,4.1c0.276,0,0.5-0.224,0.5-0.5s-0.224-0.5-0.5-0.5h-0.1c-0.276,0-0.45,0.224-0.45,0.5S16.224,4.1,16.5,4.1z"/>
	<path d="M16.322,10.032l-2.1,0.8c-0.259,0.099-0.388,0.387-0.289,0.646c0.098,0.258,0.388,0.387,0.645,0.289L16,11.225V19.4
		c0,0.276,0.224,0.5,0.5,0.5s0.5-0.224,0.5-0.5v-8.9c0-0.165-0.081-0.318-0.217-0.412C16.648,9.994,16.475,9.975,16.322,10.032z"/>
	<path d="M9.524,14.334l2.864-3.519c0.122-0.149,0.146-0.356,0.064-0.53C12.369,10.111,12.193,10,12,10H6.7
		c-0.276,0-0.5,0.224-0.5,0.5S6.424,11,6.7,11h4.248l-2.836,3.484c-0.126,0.155-0.148,0.37-0.055,0.547
		c0.092,0.178,0.281,0.296,0.481,0.267c0.501-0.033,1.938,0.018,2.607,0.728c0.322,0.341,0.44,0.802,0.359,1.408
		c-0.145,1.088-0.895,1.453-1.498,1.567c-1.224,0.232-2.78-0.361-3.27-1.244c-0.134-0.24-0.438-0.327-0.68-0.194
		c-0.242,0.135-0.329,0.438-0.194,0.681c0.595,1.071,2.125,1.809,3.585,1.809c0.252-0.001,0.502-0.022,0.745-0.068
		c1.292-0.245,2.13-1.126,2.303-2.417c0.122-0.913-0.088-1.662-0.624-2.229C11.236,14.665,10.268,14.419,9.524,14.334z"/>
</g>
</svg>
