<?xml version="1.0" encoding="utf-8"?>
<!-- Generator: Adobe Illustrator 19.2.0, SVG Export Plug-In . SVG Version: 6.00 Build 0)  -->
<svg version="1.1" id="Layer_1" xmlns="http://www.w3.org/2000/svg" xmlns:xlink="http://www.w3.org/1999/xlink" x="0px" y="0px"
	 width="24px" height="24px" viewBox="0 0 24 24" style="enable-background:new 0 0 24 24;" xml:space="preserve">
<g>
	<path d="M21.141,0H2.871c-1.58,0-2.865,1.285-2.865,2.865v18.27c0,1.58,1.285,2.865,2.865,2.865h18.27
		c1.58,0,2.865-1.285,2.865-2.865V2.865C24.006,1.285,22.721,0,21.141,0z M23.006,21.135c0,1.028-0.837,1.865-1.865,1.865H2.871
		c-1.028,0-1.865-0.837-1.865-1.865V2.865C1.006,1.837,1.843,1,2.871,1h18.27c1.028,0,1.865,0.837,1.865,1.865V21.135z"/>
	<path d="M6.006,4.014c-1.097,0-1.99,0.893-1.99,1.99s0.893,1.99,1.99,1.99c1.097,0,1.989-0.893,1.989-1.99S7.103,4.014,6.006,4.014
		z M6.006,6.994c-0.546,0-0.99-0.444-0.99-0.99s0.444-0.99,0.99-0.99c0.545,0,0.989,0.444,0.989,0.99S6.551,6.994,6.006,6.994z"/>
	<path d="M6.006,10.015c-1.097,0-1.99,0.893-1.99,1.99c0,1.097,0.893,1.989,1.99,1.989c1.097,0,1.989-0.893,1.989-1.989
		C7.995,10.907,7.103,10.015,6.006,10.015z M6.006,12.994c-0.546,0-0.99-0.444-0.99-0.989c0-0.546,0.444-0.99,0.99-0.99
		c0.545,0,0.989,0.444,0.989,0.99C6.995,12.55,6.551,12.994,6.006,12.994z"/>
	<path d="M6.006,16.015c-1.097,0-1.99,0.893-1.99,1.989c0,1.098,0.893,1.99,1.99,1.99c1.097,0,1.989-0.893,1.989-1.99
		C7.995,16.908,7.103,16.015,6.006,16.015z M6.006,18.995c-0.546,0-0.99-0.444-0.99-0.99s0.444-0.989,0.99-0.989
		c0.545,0,0.989,0.443,0.989,0.989S6.551,18.995,6.006,18.995z"/>
	<path d="M12.006,4.014c-1.097,0-1.989,0.893-1.989,1.99s0.893,1.99,1.989,1.99c1.098,0,1.99-0.893,1.99-1.99
		S13.104,4.014,12.006,4.014z M12.006,6.994c-0.545,0-0.989-0.444-0.989-0.99s0.444-0.99,0.989-0.99c0.546,0,0.99,0.444,0.99,0.99
		S12.552,6.994,12.006,6.994z"/>
	<path d="M12.006,10.015c-1.097,0-1.989,0.893-1.989,1.99c0,1.097,0.893,1.989,1.989,1.989c1.098,0,1.99-0.893,1.99-1.989
		C13.996,10.907,13.104,10.015,12.006,10.015z M12.006,12.994c-0.545,0-0.989-0.444-0.989-0.989c0-0.546,0.444-0.99,0.989-0.99
		c0.546,0,0.99,0.444,0.99,0.99C12.996,12.55,12.552,12.994,12.006,12.994z"/>
	<path d="M12.006,16.015c-1.097,0-1.989,0.893-1.989,1.989c0,1.098,0.893,1.99,1.989,1.99c1.098,0,1.99-0.893,1.99-1.99
		C13.996,16.908,13.104,16.015,12.006,16.015z M12.006,18.995c-0.545,0-0.989-0.444-0.989-0.99s0.444-0.989,0.989-0.989
		c0.546,0,0.99,0.443,0.99,0.989S12.552,18.995,12.006,18.995z"/>
	<path d="M18.007,4.014c-1.098,0-1.99,0.893-1.99,1.99s0.893,1.99,1.99,1.99c1.097,0,1.989-0.893,1.989-1.99
		S19.104,4.014,18.007,4.014z M18.007,6.994c-0.546,0-0.99-0.444-0.99-0.99s0.444-0.99,0.99-0.99s0.989,0.444,0.989,0.99
		S18.553,6.994,18.007,6.994z"/>
	<path d="M18.007,10.015c-1.098,0-1.99,0.893-1.99,1.99c0,1.097,0.893,1.989,1.99,1.989c1.097,0,1.989-0.893,1.989-1.989
		C19.996,10.907,19.104,10.015,18.007,10.015z M18.007,12.994c-0.546,0-0.99-0.444-0.99-0.989c0-0.546,0.444-0.99,0.99-0.99
		s0.989,0.444,0.989,0.99C18.996,12.55,18.553,12.994,18.007,12.994z"/>
	<path d="M18.007,16.015c-1.098,0-1.99,0.893-1.99,1.989c0,1.098,0.893,1.99,1.99,1.99c1.097,0,1.989-0.893,1.989-1.99
		C19.996,16.908,19.104,16.015,18.007,16.015z M18.007,18.995c-0.546,0-0.99-0.444-0.99-0.99s0.444-0.989,0.99-0.989
		s0.989,0.443,0.989,0.989S18.553,18.995,18.007,18.995z"/>
</g>
</svg>
