<?xml version="1.0" encoding="utf-8"?>
<!-- Generator: Adobe Illustrator 19.2.0, SVG Export Plug-In . SVG Version: 6.00 Build 0)  -->
<svg version="1.1" id="Layer_1" xmlns="http://www.w3.org/2000/svg" xmlns:xlink="http://www.w3.org/1999/xlink" x="0px" y="0px"
	 width="24px" height="24px" viewBox="0 0 24 24" style="enable-background:new 0 0 24 24;" xml:space="preserve">
<g>
	<path d="M23.5,0h-23C0.224,0,0,0.223,0,0.5v23C0,23.776,0.224,24,0.5,24h23c0.276,0,0.5-0.224,0.5-0.5v-23
		C24,0.223,23.776,0,23.5,0z M23,23H1V1h22V23z"/>
	<path d="M11.981,12.755c0.096,0.095,0.224,0.145,0.353,0.145c0.085,0,0.17-0.021,0.248-0.066l3.516-2.009
		c0.24-0.137,0.323-0.442,0.187-0.682c-0.139-0.241-0.446-0.323-0.683-0.186l-3.185,1.82L6.902,6.299
		C6.706,6.106,6.391,6.106,6.194,6.302C6,6.498,6.001,6.814,6.197,7.009L11.981,12.755z"/>
	<path d="M18.978,11.845c0,0.728,0.593,1.32,1.32,1.32s1.32-0.592,1.32-1.32c0-0.728-0.593-1.32-1.32-1.32
		S18.978,11.117,18.978,11.845z M20.298,11.525c0.177,0,0.32,0.144,0.32,0.32c0,0.176-0.144,0.32-0.32,0.32s-0.32-0.144-0.32-0.32
		C19.978,11.669,20.121,11.525,20.298,11.525z"/>
	<path d="M3.703,13.165c0.728,0,1.32-0.592,1.32-1.32c0-0.728-0.592-1.32-1.32-1.32c-0.728,0-1.32,0.592-1.32,1.32
		C2.382,12.573,2.975,13.165,3.703,13.165z M3.703,11.525c0.176,0,0.32,0.144,0.32,0.32c0,0.176-0.144,0.32-0.32,0.32
		c-0.177,0-0.32-0.144-0.32-0.32C3.382,11.669,3.526,11.525,3.703,11.525z"/>
	<path d="M11.992,4.906c0.728,0,1.32-0.592,1.32-1.32s-0.592-1.32-1.32-1.32c-0.728,0-1.32,0.592-1.32,1.32
		S11.264,4.906,11.992,4.906z M11.992,3.265c0.176,0,0.32,0.144,0.32,0.32s-0.144,0.32-0.32,0.32c-0.177,0-0.32-0.144-0.32-0.32
		S11.815,3.265,11.992,3.265z"/>
	<path d="M11.992,18.845c-0.728,0-1.32,0.593-1.32,1.32s0.592,1.32,1.32,1.32c0.728,0,1.32-0.593,1.32-1.32
		S12.719,18.845,11.992,18.845z M11.992,20.486c-0.177,0-0.32-0.144-0.32-0.32s0.144-0.32,0.32-0.32c0.176,0,0.32,0.144,0.32,0.32
		S12.168,20.486,11.992,20.486z"/>
	<path d="M7.79,5.22c0.13,0,0.26-0.06,0.36-0.15c0.09-0.1,0.14-0.23,0.14-0.35c0-0.13-0.05-0.26-0.14-0.36
		c-0.19-0.19-0.54-0.18-0.71,0C7.35,4.45,7.29,4.58,7.29,4.72c0,0.13,0.06,0.26,0.15,0.34C7.53,5.16,7.66,5.22,7.79,5.22z"/>
	<path d="M7.44,18.69c-0.09,0.09-0.15,0.22-0.15,0.35c0,0.14,0.06,0.26,0.15,0.35c0.09,0.101,0.22,0.15,0.35,0.15
		c0.13,0,0.26-0.05,0.36-0.15c0.09-0.09,0.14-0.22,0.14-0.35s-0.05-0.26-0.14-0.35C7.96,18.5,7.61,18.51,7.44,18.69z"/>
	<path d="M16.109,5.17c0.131,0,0.261-0.05,0.36-0.15c0.09-0.09,0.14-0.22,0.14-0.35c0-0.13-0.05-0.26-0.149-0.36
		c-0.19-0.18-0.521-0.18-0.7,0.01c-0.1,0.09-0.15,0.22-0.15,0.35c0,0.13,0.051,0.26,0.141,0.35C15.85,5.12,15.979,5.17,16.109,5.17z
		"/>
	<path d="M15.75,18.74c-0.09,0.09-0.141,0.22-0.141,0.35s0.051,0.26,0.15,0.351c0.09,0.1,0.22,0.149,0.35,0.149
		c0.131,0,0.261-0.05,0.36-0.149c0.09-0.101,0.14-0.23,0.14-0.351c0-0.13-0.05-0.26-0.149-0.359
		C16.28,18.55,15.95,18.55,15.75,18.74z"/>
	<path d="M19.17,8.2c0.13,0,0.26-0.05,0.36-0.15c0.09-0.1,0.149-0.22,0.149-0.35s-0.06-0.26-0.149-0.35
		C19.34,7.16,19,7.16,18.819,7.34c-0.09,0.09-0.14,0.23-0.14,0.36s0.05,0.26,0.14,0.35C18.91,8.15,19.04,8.2,19.17,8.2z"/>
	<path d="M19.17,16.57c0.13,0,0.26-0.05,0.36-0.15c0.1-0.09,0.149-0.22,0.149-0.35s-0.06-0.25-0.149-0.351
		c-0.19-0.189-0.53-0.18-0.711,0c-0.09,0.091-0.14,0.221-0.14,0.351c0,0.14,0.05,0.26,0.14,0.359
		C18.92,16.52,19.04,16.57,19.17,16.57z"/>
	<path d="M4.76,8.28c0.13,0,0.26-0.06,0.36-0.15c0.09-0.1,0.14-0.22,0.14-0.35c0-0.13-0.05-0.26-0.15-0.36
		C4.92,7.24,4.61,7.23,4.4,7.43C4.31,7.52,4.26,7.65,4.26,7.78c0,0.13,0.05,0.25,0.15,0.36C4.51,8.23,4.63,8.28,4.76,8.28z"/>
	<path d="M4.4,15.65C4.31,15.74,4.26,15.87,4.26,16s0.05,0.25,0.15,0.35c0.1,0.101,0.23,0.15,0.35,0.15c0.13,0,0.26-0.06,0.36-0.15
		c0.09-0.1,0.14-0.22,0.14-0.35s-0.05-0.26-0.14-0.36C4.93,15.46,4.59,15.46,4.4,15.65z"/>
</g>
</svg>
