<?xml version="1.0" encoding="utf-8"?>
<!-- Generator: Adobe Illustrator 19.2.0, SVG Export Plug-In . SVG Version: 6.00 Build 0)  -->
<svg version="1.1" id="Layer_1" xmlns="http://www.w3.org/2000/svg" xmlns:xlink="http://www.w3.org/1999/xlink" x="0px" y="0px"
	 width="24px" height="24px" viewBox="0 0 24 24" style="enable-background:new 0 0 24 24;" xml:space="preserve">
<g>
	<path d="M23.5,6h-6.258L13.62,2.612c0.097-0.219,0.152-0.459,0.152-0.713c0-0.977-0.795-1.772-1.772-1.772
		s-1.772,0.795-1.772,1.772c0,0.3,0.082,0.578,0.213,0.825L6.759,6H0.5C0.224,6,0,6.223,0,6.5v17C0,23.776,0.224,24,0.5,24h23
		c0.276,0,0.5-0.224,0.5-0.5v-17C24,6.223,23.776,6,23.5,6z M12,1.127c0.426,0,0.772,0.346,0.772,0.772S12.426,2.671,12,2.671
		s-0.772-0.347-0.772-0.772S11.574,1.127,12,1.127z M11.141,3.44C11.397,3.583,11.687,3.671,12,3.671
		c0.36,0,0.694-0.109,0.974-0.294L15.778,6H8.263L11.141,3.44z M23,7v2H1V7H23z M1,23V10h22v13H1z"/>
	<path d="M5.492,19.95H4.557c-0.276,0-0.5,0.224-0.5,0.5s0.224,0.5,0.5,0.5h0.935c0.276,0,0.5-0.224,0.5-0.5
		S5.768,19.95,5.492,19.95z"/>
	<path d="M8.534,19.95H7.599c-0.276,0-0.5,0.224-0.5,0.5s0.224,0.5,0.5,0.5h0.935c0.276,0,0.5-0.224,0.5-0.5S8.81,19.95,8.534,19.95
		z"/>
	<path d="M11.469,19.95h-0.935c-0.276,0-0.5,0.224-0.5,0.5s0.224,0.5,0.5,0.5h0.935c0.276,0,0.5-0.224,0.5-0.5
		S11.746,19.95,11.469,19.95z"/>
	<path d="M14.47,19.95h-0.935c-0.276,0-0.5,0.224-0.5,0.5s0.224,0.5,0.5,0.5h0.935c0.276,0,0.5-0.224,0.5-0.5
		S14.746,19.95,14.47,19.95z"/>
	<path d="M5.492,17.95H4.557c-0.276,0-0.5,0.224-0.5,0.5s0.224,0.5,0.5,0.5h0.935c0.276,0,0.5-0.224,0.5-0.5
		S5.768,17.95,5.492,17.95z"/>
	<path d="M8.534,17.95H7.599c-0.276,0-0.5,0.224-0.5,0.5s0.224,0.5,0.5,0.5h0.935c0.276,0,0.5-0.224,0.5-0.5S8.81,17.95,8.534,17.95
		z"/>
	<path d="M11.469,17.95h-0.935c-0.276,0-0.5,0.224-0.5,0.5s0.224,0.5,0.5,0.5h0.935c0.276,0,0.5-0.224,0.5-0.5
		S11.746,17.95,11.469,17.95z"/>
	<path d="M14.47,17.95h-0.935c-0.276,0-0.5,0.224-0.5,0.5s0.224,0.5,0.5,0.5h0.935c0.276,0,0.5-0.224,0.5-0.5
		S14.746,17.95,14.47,17.95z"/>
	<path d="M17.47,17.95h-0.935c-0.276,0-0.5,0.224-0.5,0.5s0.224,0.5,0.5,0.5h0.935c0.276,0,0.5-0.224,0.5-0.5
		S17.746,17.95,17.47,17.95z"/>
	<path d="M20.471,17.95h-0.936c-0.276,0-0.5,0.224-0.5,0.5s0.224,0.5,0.5,0.5h0.936c0.276,0,0.5-0.224,0.5-0.5
		S20.747,17.95,20.471,17.95z"/>
	<path d="M5.492,15.95H4.557c-0.276,0-0.5,0.224-0.5,0.5s0.224,0.5,0.5,0.5h0.935c0.276,0,0.5-0.224,0.5-0.5
		S5.768,15.95,5.492,15.95z"/>
	<path d="M8.534,15.95H7.599c-0.276,0-0.5,0.224-0.5,0.5s0.224,0.5,0.5,0.5h0.935c0.276,0,0.5-0.224,0.5-0.5S8.81,15.95,8.534,15.95
		z"/>
	<path d="M11.469,15.95h-0.935c-0.276,0-0.5,0.224-0.5,0.5s0.224,0.5,0.5,0.5h0.935c0.276,0,0.5-0.224,0.5-0.5
		S11.746,15.95,11.469,15.95z"/>
	<path d="M14.47,15.95h-0.935c-0.276,0-0.5,0.224-0.5,0.5s0.224,0.5,0.5,0.5h0.935c0.276,0,0.5-0.224,0.5-0.5
		S14.746,15.95,14.47,15.95z"/>
	<path d="M17.47,15.95h-0.935c-0.276,0-0.5,0.224-0.5,0.5s0.224,0.5,0.5,0.5h0.935c0.276,0,0.5-0.224,0.5-0.5
		S17.746,15.95,17.47,15.95z"/>
	<path d="M20.471,15.95h-0.936c-0.276,0-0.5,0.224-0.5,0.5s0.224,0.5,0.5,0.5h0.936c0.276,0,0.5-0.224,0.5-0.5
		S20.747,15.95,20.471,15.95z"/>
	<path d="M5.492,13.949H4.557c-0.276,0-0.5,0.224-0.5,0.5s0.224,0.5,0.5,0.5h0.935c0.276,0,0.5-0.224,0.5-0.5
		S5.768,13.949,5.492,13.949z"/>
	<path d="M8.534,13.949H7.599c-0.276,0-0.5,0.224-0.5,0.5s0.224,0.5,0.5,0.5h0.935c0.276,0,0.5-0.224,0.5-0.5
		S8.81,13.949,8.534,13.949z"/>
	<path d="M11.469,13.949h-0.935c-0.276,0-0.5,0.224-0.5,0.5s0.224,0.5,0.5,0.5h0.935c0.276,0,0.5-0.224,0.5-0.5
		S11.746,13.949,11.469,13.949z"/>
	<path d="M14.47,13.949h-0.935c-0.276,0-0.5,0.224-0.5,0.5s0.224,0.5,0.5,0.5h0.935c0.276,0,0.5-0.224,0.5-0.5
		S14.746,13.949,14.47,13.949z"/>
	<path d="M17.47,13.949h-0.935c-0.276,0-0.5,0.224-0.5,0.5s0.224,0.5,0.5,0.5h0.935c0.276,0,0.5-0.224,0.5-0.5
		S17.746,13.949,17.47,13.949z"/>
	<path d="M20.471,13.949h-0.936c-0.276,0-0.5,0.224-0.5,0.5s0.224,0.5,0.5,0.5h0.936c0.276,0,0.5-0.224,0.5-0.5
		S20.747,13.949,20.471,13.949z"/>
	<path d="M14.47,11.949h-0.935c-0.276,0-0.5,0.224-0.5,0.5s0.224,0.5,0.5,0.5h0.935c0.276,0,0.5-0.224,0.5-0.5
		S14.746,11.949,14.47,11.949z"/>
	<path d="M17.47,11.949h-0.935c-0.276,0-0.5,0.224-0.5,0.5s0.224,0.5,0.5,0.5h0.935c0.276,0,0.5-0.224,0.5-0.5
		S17.746,11.949,17.47,11.949z"/>
	<path d="M20.471,11.949h-0.936c-0.276,0-0.5,0.224-0.5,0.5s0.224,0.5,0.5,0.5h0.936c0.276,0,0.5-0.224,0.5-0.5
		S20.747,11.949,20.471,11.949z"/>
</g>
</svg>
