<svg xmlns="http://www.w3.org/2000/svg" width="24" height="24" viewBox="0 0 24 24"><path d="M21.744 18.006h-4.588c-.654 0-1.207.56-1.207 1.22v3.605c0 .648.54 1.176 1.206 1.176h4.588c.676 0 1.205-.516 1.205-1.175v-3.603c0-.663-.553-1.22-1.206-1.22zm.205 4.824c0 .113-.106.175-.206.175h-4.588c-.102 0-.207-.065-.207-.175v-3.604c0-.11.102-.22.206-.22h4.588c.105 0 .205.106.205.22v3.604zM13.743 12.005H9.155c-.654 0-1.207.56-1.207 1.22v9.604c0 .646.54 1.174 1.207 1.174h4.588c.676 0 1.205-.516 1.205-1.175v-9.605c0-.66-.552-1.22-1.205-1.22zm.205 10.825c0 .113-.105.175-.205.175H9.155c-.102 0-.207-.065-.207-.175v-9.604c0-.11.103-.22.207-.22h4.588c.105 0 .205.107.205.22v9.604zM5.742 2.004H1.155c-.654 0-1.207.56-1.207 1.22V22.83c0 .647.542 1.175 1.207 1.175h4.587c.676 0 1.206-.516 1.206-1.175V3.224c0-.66-.552-1.22-1.206-1.22zm.206 20.826c0 .113-.106.175-.206.175H1.155c-.102 0-.207-.065-.207-.175V3.224c0-.11.103-.22.207-.22h4.587c.105 0 .206.107.206.22V22.83zM20.173 11.974H16.95c-.277 0-.5.224-.5.5s.223.5.5.5h4.5c.275 0 .5-.224.5-.5v-4.5c0-.276-.225-.5-.5-.5s-.5.224-.5.5v3.362l-8.19-8.19c-.195-.195-.512-.195-.707 0s-.195.512 0 .707l8.12 8.12z"/></svg>