<svg xmlns="http://www.w3.org/2000/svg" width="24" height="24" viewBox="0 0 24 24"><path d="M23.494 16.494c0-.03-.012-.06-.018-.09-.008-.036-.013-.072-.028-.104-.002-.004 0-.01-.004-.013l-4.49-9.012c-.005-.01-.015-.012-.02-.02-.034-.062-.082-.112-.14-.155-.02-.014-.037-.026-.058-.037-.018-.01-.03-.025-.05-.032L12.5 4.654V2.745c0-.276-.223-.5-.5-.5s-.5.224-.5.5V4.27L5.685 2.03c-.05-.018-.102-.022-.153-.025-.01 0-.016-.007-.026-.007L5.497 2c-.083 0-.16.027-.232.066-.018.01-.032.022-.05.034-.052.04-.095.086-.13.145-.008.012-.022.017-.028.03l-4.52 9.01-.004.015c-.015.03-.02.066-.027.1-.007.032-.018.062-.02.094l-.002.016c0 2.468 2.246 4.476 5.006 4.476s5.006-2.008 5.006-4.476l-.003-.015c0-.032-.012-.062-.02-.094-.007-.034-.012-.068-.026-.1-.002-.004 0-.01-.004-.013l-3.918-7.86 4.977 1.914V23H7.455c-.276 0-.5.224-.5.5s.224.5.5.5h9c.276 0 .5-.224.5-.5s-.224-.5-.5-.5h-3.953V5.725l5.31 2.042-4.274 8.518c-.003.005-.002.01-.004.016-.013.03-.017.062-.025.094-.01.033-.02.065-.02.1 0 .005-.004.01-.004.015 0 2.467 2.246 4.475 5.006 4.475s5.006-2.008 5.006-4.476c0-.006-.004-.01-.004-.016zM5.502 3.616l3.686 7.393H1.795l3.707-7.394zm-.012 11.37c-2.013 0-3.685-1.296-3.964-2.977h7.93c-.28 1.68-1.953 2.975-3.966 2.975zm16.7 1.024h-7.393l3.71-7.393 3.683 7.393zm-3.7 3.975c-2.013 0-3.684-1.295-3.964-2.976h7.93c-.28 1.68-1.95 2.975-3.965 2.975z"/></svg>