<svg xmlns="http://www.w3.org/2000/svg" width="24" height="24" viewBox="0 0 24 24"><path d="M4.525 14.89c-.276 0-.5.224-.5.5v8.007c0 .276.224.5.5.5s.5-.224.5-.5V15.39c0-.276-.223-.5-.5-.5zM4.525 5.913c1.1 0 1.83-1.36 1.83-2.262 0-1.01-.82-1.83-1.83-1.83s-1.83.822-1.83 1.832c0 .9.73 2.26 1.83 2.26zm0-3.092c.458 0 .83.374.83.832 0 .554-.465 1.262-.83 1.262s-.83-.708-.83-1.262c0-.458.372-.83.83-.83z"/><path d="M7.353 6.246c-.054-.044-.116-.077-.183-.096-.09-.026-.198-.034-.71-.055l-.26-.012c-.44-.033-.833.213-1.045.624-.12.23-.414.312-.63.312s-.51-.083-.63-.313c-.21-.412-.622-.656-1.046-.624l-.272.012c-.502.02-.607.03-.697.055-.067.02-.13.053-.184.098-.22.184-.806.672-.548 7.577.005.14.087.31.19.4.143.124.322.16.462.15l.503 9.05c.015.274.24.492.527.47.275-.014.487-.25.47-.525l-.524-9.46c-.005-.14-.09-.315-.194-.405-.138-.12-.3-.15-.45-.15-.153-4.593.097-5.923.18-6.247.094-.004.206-.01.307-.013l.29-.014c.04 0 .075.043.097.085.27.526.853.853 1.518.853s1.247-.327 1.52-.854c.02-.042.068-.086.094-.083l.278.014.3.012c.117.4.35 1.782.2 6.248-.15 0-.31.03-.45.15-.102.09-.186.263-.193.398L5.75 23.37c-.017.275.194.512.47.526h.028c.263 0 .484-.205.5-.472l.502-9.05c.14.01.32-.026.46-.15.105-.09.187-.263.192-.4.26-6.91-.328-7.395-.55-7.578zM16.022.652c-2.126 0-3.855 1.705-3.855 3.8 0 1.07.447 2.233 1.198 3.124.005.008.01.016.017.023.273.353.662.997.806 1.516-.09.09-.144.214-.144.35v2.463c0 .275.224.5.5.5h.403l.345.342c.093.094.22.146.353.146h.755c.133 0 .26-.052.353-.146l.345-.343h.403c.277 0 .5-.225.5-.5V9.466c0-.13-.052-.248-.134-.337.14-.524.525-1.176.783-1.517.77-.896 1.228-2.077 1.228-3.16 0-2.096-1.73-3.8-3.856-3.8zm.98 10.777h-.11c-.134 0-.26.05-.354.145l-.345.343h-.342l-.344-.343c-.093-.094-.22-.146-.353-.146h-.11V9.966H17v1.462zm.87-4.447c-.093.122-.794 1.062-1.01 1.983h-.34V6.282c0-.276-.224-.5-.5-.5s-.5.224-.5.5v2.685h-.33c-.2-.847-.814-1.708-.985-1.935-.015-.023-.03-.046-.05-.067-.61-.71-.99-1.672-.99-2.512 0-1.544 1.28-2.8 2.855-2.8s2.855 1.255 2.855 2.8c0 .838-.377 1.8-1.005 2.53zM11.2 4.482c0-.276-.224-.5-.5-.5H9.31c-.275 0-.5.224-.5.5s.225.5.5.5h1.39c.276 0 .5-.223.5-.5zM10.484.968c-.2-.19-.516-.185-.707.015-.19.2-.184.515.015.707l1.123 1.078c.097.093.222.14.346.14.132 0 .264-.052.362-.155.19-.2.185-.516-.015-.707L10.484.968zM10.915 6.197L9.792 7.275c-.2.19-.206.507-.015.707.1.103.23.154.36.154.126 0 .25-.046.347-.14l1.123-1.077c.2-.192.206-.51.015-.708-.192-.2-.508-.206-.707-.015zM22.767 3.982h-1.39c-.275 0-.5.224-.5.5s.225.5.5.5h1.39c.276 0 .5-.224.5-.5s-.224-.5-.5-.5zM20.816 2.906c.125 0 .25-.046.347-.14l1.122-1.077c.2-.192.205-.51.014-.708-.19-.2-.507-.204-.708-.015l-1.122 1.08c-.2.19-.205.507-.014.706.098.102.23.153.36.153zM21.163 6.197c-.2-.19-.515-.186-.707.014-.19.2-.186.517.014.708l1.122 1.078c.098.093.222.14.347.14.13 0 .262-.05.36-.154.19-.2.185-.516-.015-.707l-1.122-1.078z"/><path d="M17.115 3.918l-.534.183-.233-.14c-.157-.092-.353-.093-.512 0l-.25.15-.51-.19c-.254-.094-.545.038-.64.297-.097.26.035.547.295.643l.732.27c.056.022.114.032.173.032.09 0 .178-.024.256-.07l.2-.118.178.106c.126.075.278.09.418.043l.753-.258c.26-.09.4-.374.31-.635s-.373-.4-.635-.312z"/></svg>