<svg xmlns="http://www.w3.org/2000/svg" width="24" height="24" viewBox="0 0 24 24"><path d="M12.458 19.325c-.022 0-.043.006-.065.007l-1.202-4.72c.424-.19.787-.48 1.08-.832l.48.277c.078.045.164.066.25.066.172 0 .34-.09.433-.25.138-.24.055-.546-.185-.684l-.48-.277c.116-.318.19-.657.19-1.015 0-.666-.228-1.274-.598-1.77l5.306-5.624c.35.22.763.353 1.207.353 1.26 0 2.286-1.025 2.286-2.286 0-1.26-1.026-2.285-2.287-2.285S16.587 1.31 16.587 2.57c0 .455.137.877.366 1.233l-5.31 5.627c-.475-.32-1.046-.507-1.66-.507-.33 0-.643.067-.94.167l-.27-.49c-.13-.24-.436-.33-.678-.198-.242.132-.33.436-.2.678l.266.486c-.694.545-1.15 1.382-1.15 2.332 0 .354.073.69.187 1.005l-1.37.83c-.01.006-.018.018-.03.026-.01.005-.025.005-.037.013l-1.33.807c-.31-.297-.728-.48-1.19-.48-.95 0-1.724.772-1.724 1.723s.773 1.724 1.724 1.724 1.724-.773 1.724-1.724c0-.128-.016-.25-.043-.37l1.36-.823c.013-.008.02-.022.033-.032.01-.005.023-.003.034-.01l1.348-.814c.546.666 1.364 1.1 2.29 1.1.08 0 .157-.017.236-.023l1.207 4.735c-.74.38-1.253 1.14-1.253 2.028 0 1.26 1.025 2.286 2.286 2.286s2.286-1.026 2.286-2.287-1.027-2.288-2.288-2.288zm-9.218-2.78c-.4 0-.724-.323-.724-.723s.325-.724.724-.724.724.324.724.724-.325.724-.724.724zm15.633-15.26c.71 0 1.286.577 1.286 1.286s-.578 1.287-1.287 1.287c-.34 0-.642-.138-.872-.352-.012-.015-.018-.034-.033-.048-.01-.01-.022-.012-.032-.02-.212-.23-.348-.53-.348-.865 0-.71.577-1.287 1.286-1.287zM8.01 11.898c0-1.088.886-1.974 1.975-1.974s1.974.886 1.974 1.974c0 1.09-.887 1.975-1.975 1.975s-1.974-.886-1.974-1.975zm4.448 11c-.71 0-1.286-.578-1.286-1.287s.577-1.285 1.286-1.285c.708 0 1.286.577 1.286 1.286s-.577 1.287-1.286 1.287zM20.758 16.325c-.466 0-.888.188-1.198.49l-.49-.282c-.236-.138-.544-.057-.682.185-.138.24-.055.545.185.683l.5.29c-.024.116-.038.236-.038.36 0 .95.773 1.724 1.724 1.724s1.723-.773 1.723-1.724-.775-1.725-1.725-1.725zm0 2.447c-.4 0-.724-.324-.724-.724s.324-.724.724-.724.724.324.724.724-.325.724-.724.724zM4.663 3.705c.096 0 .19-.013.28-.028l.286.523c.09.166.26.26.438.26.08 0 .163-.02.24-.06.24-.133.33-.437.198-.68l-.266-.487c.334-.315.546-.758.546-1.252 0-.95-.773-1.723-1.724-1.723S2.94 1.03 2.94 1.982s.772 1.723 1.723 1.723zm0-2.447c.4 0 .724.325.724.724 0 .295-.18.547-.432.66h-.007l-.006.007c-.086.035-.18.055-.28.055-.398 0-.723-.325-.723-.724s.324-.722.723-.722zM6.118 5.826l.89 1.627c.09.166.262.26.438.26.08 0 .163-.02.24-.06.242-.133.33-.437.2-.68l-.89-1.626c-.133-.242-.436-.33-.68-.2-.24.134-.33.437-.198.68z"/><path d="M17.13 15.418l-1.94-1.114c-.237-.137-.544-.057-.683.185-.138.238-.055.544.185.682l1.94 1.114c.078.045.164.066.25.066.172 0 .34-.09.433-.25.137-.24.054-.547-.185-.684z"/></svg>