<svg xmlns="http://www.w3.org/2000/svg" width="24" height="24" viewBox="0 0 24 24"><path d="M21.486 12c-.276 0-.5.224-.5.5v5.854c0 .923-.77 1.646-1.755 1.646H2.704c-.963 0-1.717-.723-1.717-1.646V6.74c0-.96.77-1.74 1.717-1.74h11.752c.276 0 .5-.224.5-.5s-.224-.5-.5-.5H2.703C1.205 4-.014 5.23-.014 6.74v11.614C-.014 19.838 1.18 21 2.703 21H19.23c1.52 0 2.756-1.187 2.756-2.646V12.5c0-.277-.223-.5-.5-.5z"/><path d="M2.986 14.5v3c0 .276.224.5.5.5s.5-.224.5-.5v-3c0-.276-.224-.5-.5-.5s-.5.223-.5.5zM17.986 17.5v-3c0-.276-.224-.5-.5-.5s-.5.224-.5.5v3c0 .276.224.5.5.5s.5-.224.5-.5zM10.986 8.5v9c0 .276.224.5.5.5s.5-.224.5-.5v-9c0-.276-.224-.5-.5-.5s-.5.223-.5.5zM4.986 12.5v5c0 .276.224.5.5.5s.5-.224.5-.5v-5c0-.276-.224-.5-.5-.5s-.5.223-.5.5zM8.986 12.5v5c0 .276.224.5.5.5s.5-.224.5-.5v-5c0-.276-.224-.5-.5-.5s-.5.223-.5.5zM15.486 18c.276 0 .5-.224.5-.5v-5c0-.276-.224-.5-.5-.5s-.5.224-.5.5v5c0 .276.224.5.5.5zM12.986 13.5v4c0 .276.224.5.5.5s.5-.224.5-.5v-4c0-.276-.224-.5-.5-.5s-.5.223-.5.5zM6.986 10.5v7c0 .276.224.5.5.5s.5-.224.5-.5v-7c0-.276-.224-.5-.5-.5s-.5.223-.5.5zM19.55 2.248c-2.35 0-4.262 1.912-4.262 4.262s1.912 4.262 4.262 4.262 4.262-1.912 4.262-4.262S21.9 2.248 19.55 2.248zm0 7.524c-1.8 0-3.262-1.463-3.262-3.262s1.463-3.262 3.262-3.262 3.262 1.463 3.262 3.262-1.463 3.262-3.262 3.262z"/><path d="M19.84 4.647c-.09-.09-.215-.147-.354-.147s-.264.056-.354.147l-1.578 1.578c-.195.195-.195.512 0 .707s.512.195.707 0l.726-.725V8c0 .276.224.5.5.5s.5-.224.5-.5V6.207l.725.725c.1.098.227.146.355.146s.256-.05.354-.146c.194-.195.194-.512 0-.707l-1.58-1.578z"/></svg>