<svg xmlns="http://www.w3.org/2000/svg" width="24" height="24" viewBox="0 0 24 24"><path d="M21.33 9c.208 0 .395-.13.468-.324.073-.195.02-.416-.14-.552l-9.275-8.1c-.188-.165-.47-.165-.658 0l-9.29 8.1c-.157.136-.213.356-.14.55.074.196.26.326.47.326h5.162L6.064 23.435c-.018.143.026.287.12.395.095.108.233.17.376.17h10.973c.144 0 .28-.062.376-.17.094-.107.138-.252.12-.395L16.165 9h5.164zm-4.365 14H7.13L8.99 8.564c.018-.143-.026-.286-.12-.394S8.638 8 8.495 8H4.098l7.956-6.936L19.997 8h-4.4c-.143 0-.28.062-.375.17-.095.108-.14.25-.12.394L16.965 23z"/><path d="M7.032 10.5c0-.276-.224-.5-.5-.5H2.764c-.276 0-.5.224-.5.5s.224.5.5.5h3.77c.275 0 .498-.224.498-.5zM21.384 10h-3.832c-.276 0-.5.224-.5.5s.224.5.5.5h3.832c.276 0 .5-.224.5-.5s-.224-.5-.5-.5zM12.295 15.982c-.914-.29-1.1-.535-1.1-.812 0-.435.425-.788.948-.788.35 0 .67.16.838.42.153.233.464.3.692.15.232-.15.3-.46.15-.69-.263-.408-.692-.7-1.18-.82v-.263c0-.277-.224-.5-.5-.5s-.5.223-.5.5v.27c-.832.204-1.45.894-1.45 1.72 0 1.192 1.26 1.594 1.808 1.77 1.092.323 1.092.675 1.092.808 0 .434-.426.787-.95.787-.374 0-.95-.25-1.31-.57-.206-.185-.522-.165-.706.042s-.165.522.042.706c.407.36.962.64 1.474.76v.266c0 .275.224.5.5.5s.5-.225.5-.5v-.272c.832-.204 1.45-.894 1.45-1.72 0-1.232-1.36-1.636-1.797-1.766z"/></svg>