<svg xmlns="http://www.w3.org/2000/svg" width="24" height="24" viewBox="0 0 24 24"><path d="M23.873 6.206c-.094-.094-.22-.147-.354-.147l-2.526-.005V3.497c0-.276-.224-.5-.5-.5H18.05L18.18 2c.02-.135-.02-.272-.106-.378s-.212-.173-.35-.184L3.497.298c-.138-.007-.267.034-.37.122s-.162.214-.17.35L2.83 2.996H.493c-.276 0-.5.224-.5.5v15c0 .276.224.5.5.5h.958l-.248 1.988c-.017.135.022.27.108.377.086.105.21.172.347.183l14.227 1.15.04.002c.258 0 .477-.198.498-.46l.02-.25h7.014c.274 0 .498-.223.5-.498l.06-14.93c0-.132-.053-.26-.147-.354zM3.926 1.336L17.12 2.393l-.08.604H3.83l.096-1.66zM.994 3.996h2.25c.01.002.018.008.028.008.015 0 .03-.006.044-.007H17.4c.006 0 .01.003.013.004.022.004.044.005.066.005.015 0 .03-.007.044-.008h2.47v14h-19v-14zM2.26 20.592l.2-1.593h13.23l-.22 2.66-13.21-1.066zm20.7.397h-6.432l.163-1.99h3.804c.276 0 .5-.224.5-.5V7.054l2.022.004-.056 13.93z"/><path d="M9.998 8.982c-.17 0-.207 0-2.03.802L8.2 7.87c.028-.222-.033-.43-.17-.587-.26-.293-.674-.293-.976-.293-1.982 0-3.658 1.486-3.898 3.456-.136 1.115.214 2.24.96 3.082.747.842 1.82 1.325 2.946 1.325 1.982 0 3.658-1.485 3.897-3.456.036-.297.08-1.613-.397-2.15-.15-.17-.352-.265-.565-.265zm-.03 2.295c-.18 1.47-1.43 2.577-2.906 2.577-.84 0-1.64-.36-2.196-.988-.557-.63-.82-1.467-.718-2.298.18-1.47 1.43-2.578 2.906-2.578h.123l-.31 2.544c-.022.18.054.355.198.462.145.11.336.128.5.056l2.305-1.015c.088.284.14.882.097 1.24zm.03-1.295v-.5.5zM17.48 12.997h-3.972c-.276 0-.5.224-.5.5s.224.5.5.5h3.97c.277 0 .5-.224.5-.5s-.223-.5-.5-.5zM17.48 9.997h-3.972c-.276 0-.5.224-.5.5s.224.5.5.5h3.97c.277 0 .5-.224.5-.5s-.223-.5-.5-.5zM17.48 6.996h-3.972c-.276 0-.5.224-.5.5s.224.5.5.5h3.97c.277 0 .5-.224.5-.5s-.223-.5-.5-.5z"/></svg>