<svg xmlns="http://www.w3.org/2000/svg" width="24" height="24" viewBox="0 0 24 24"><path d="M20.83 10.084c-.247-.132-.28-.146-9.415 2.63l2.296-9.308c.033-.128.012-.265-.057-.378-.068-.113-.18-.195-.308-.227C7.652 1.4 1.88 4.887.475 10.58-.93 16.27 2.56 22.046 8.25 23.45c.852.21 1.712.313 2.567.313 1.914 0 3.798-.52 5.48-1.536 2.43-1.47 4.144-3.797 4.824-6.554.43-1.734.412-3.56-.046-5.28-.034-.13-.124-.244-.244-.31zm-.68 5.35c-.615 2.498-2.168 4.606-4.37 5.937-2.202 1.33-4.79 1.725-7.29 1.108-5.157-1.272-8.318-6.504-7.045-11.662C2.528 6.432 6.473 3.49 10.8 3.49c.6 0 1.21.057 1.818.174l-2.384 9.665c-.043.174.01.358.142.482.13.123.317.167.49.115 3.21-.977 7.894-2.388 9.357-2.797.3 1.415.276 2.892-.072 4.303z"/><path d="M23.67 6.505C22.757 3.368 20.23.93 17.064.143c-.273-.066-.54.096-.606.365l-2.1 8.43c-.044.174.01.357.137.48.095.092.22.14.348.14.046 0 .093-.005.138-.02l8.35-2.395c.145-.04.262-.143.32-.28.05-.113.055-.242.016-.358zM15.537 8.34l1.766-7.09c2.44.77 4.396 2.658 5.257 5.075L15.54 8.34z"/></svg>