<svg xmlns="http://www.w3.org/2000/svg" width="24" height="24" viewBox="0 0 24 24"><path d="M18.485 17.455L15.37 8.42c-.09-.262-.374-.4-.635-.31-.26.09-.4.374-.31.635l3.04 8.822-.41.723-1.037-.443c-.256-.107-.548.01-.656.264s.01.55.264.657l1.45.618c.062.027.13.04.195.04.176 0 .345-.093.436-.253l.74-1.307c.073-.125.086-.274.04-.41zM10.295 5.077c.027 0 .055-.002.082-.007 1.04-.173 2.14-.184 3.175-.03.202.027.41-.07.51-.253C15.22 2.7 15.41 1.402 14.64.807 14.546.742 12.327-.817 9.322.772c-.025.015-.05.03-.072.048-.76.588-.562 1.897.608 4.002.09.16.258.257.437.257zm-.45-3.45C12.25.38 13.98 1.567 14.04 1.61c.14.105.132.826-.69 2.394-.924-.106-1.856-.098-2.782.026-.798-1.515-.842-2.248-.724-2.403zM13.198 5.398c-.275.026-.477.27-.45.545l1.377 14.506-2.1 2.238-2.248-2.25 1.375-14.467c.026-.274-.175-.518-.45-.544-.28-.032-.52.176-.545.45L8.76 20.58c-.013.148.04.295.145.4l2.78 2.78c.093.094.22.146.353.146h.008c.136-.002.264-.06.357-.158l2.607-2.78c.1-.104.147-.246.134-.39l-1.4-14.73c-.027-.275-.288-.48-.546-.45z"/></svg>