<svg xmlns="http://www.w3.org/2000/svg" width="24" height="24" viewBox="0 0 24 24"><path d="M4.798 5.947H23.27c.203 0 .386-.123.463-.31.076-.188.033-.403-.11-.545L20.628 2.13c-.095-.092-.22-.145-.353-.145L7.82 1.982c-.13 0-.256.05-.35.143L4.45 5.09c-.145.142-.19.358-.113.546s.26.31.463.31zm3.227-2.965l12.046.003 1.983 1.96H6.023l2.002-1.963zM23.136 17.672c-.5-.357-1.135-.4-1.743-.124l-3.9 1.78c-.203-.236-.48-.43-.85-.538l-5.53-1.622c-.92-.27-3.465-.42-6.064-.074V16.5c0-.276-.225-.5-.5-.5h-4c-.277 0-.5.224-.5.5v7c0 .276.223.5.5.5h4c.275 0 .5-.224.5-.5v-1.06l.02-.005c.666-.183 1.67-.455 2.16-.24 2.658 1.19 5.214 1.58 7.1 1.58 1.248 0 2.202-.17 2.693-.396l5.852-2.67c.586-.266.955-.768 1.014-1.376.06-.64-.236-1.292-.754-1.662zM4.048 23h-3v-6h3v6zm18.412-3.2l-5.852 2.67c-.92.42-4.81.675-8.97-1.187-.744-.333-1.738-.108-2.59.12v-3.3c2.558-.36 5.052-.19 5.78.024l5.532 1.622c.25.072.39.214.464.375.005.016.004.033.01.05.004.005.01.01.013.015.053.16.05.333.007.485-.057.193-.175.358-.324.453-.165.104-.362.12-.587.056l-5.81-1.705c-.266-.077-.543.073-.62.338s.073.543.338.62l5.81 1.705c.18.053.357.08.532.08.312 0 .61-.085.872-.25.356-.226.622-.587.748-1.017.067-.23.087-.47.065-.707l3.93-1.793c.285-.132.538-.123.747.028.227.16.365.47.338.752-.024.255-.17.443-.432.564zM4.798 9.948H23.27c.203 0 .386-.123.463-.31.076-.187.033-.403-.11-.545l-2-1.98c-.197-.194-.514-.193-.708.004-.194.196-.192.513.004.707l1.135 1.125H6.022l1.145-1.124c.197-.193.2-.51.007-.707-.195-.2-.51-.203-.707-.01l-2.02 1.98c-.144.143-.188.358-.112.546s.26.312.463.312zM4.798 13.948H23.27c.203 0 .386-.122.463-.31.076-.188.033-.403-.11-.546l-2-1.98c-.197-.194-.514-.192-.708.004-.194.196-.192.513.004.707l1.135 1.125H6.022l1.145-1.123c.197-.193.2-.51.007-.707-.195-.198-.51-.2-.707-.007l-2.02 1.98c-.144.143-.188.36-.112.547.077.188.26.31.463.31z"/></svg>