<svg xmlns="http://www.w3.org/2000/svg" width="24" height="24" viewBox="0 0 24 24"><path d="M17.66 4.424c.196.195.513.193.706-.003.195-.195.193-.51-.002-.706l-2.53-2.51c-.01-.012-.026-.016-.04-.026-.037-.03-.075-.062-.12-.08-.123-.05-.26-.05-.383 0-.045.02-.083.05-.12.08-.014.01-.03.015-.04.026l-2.53 2.51c-.195.195-.196.51-.002.707.098.1.227.15.355.15.127 0 .255-.05.353-.146l1.676-1.664v1.21c0 11.424-12.21 11.947-12.73 11.964-.277.01-.494.24-.485.516.008.27.23.484.5.484h.015c.137-.005 13.7-.565 13.7-12.964V2.76l1.677 1.664z"/><path d="M5.11 11.888c2.71 0 4.916-2.205 4.916-4.916S7.82 2.056 5.11 2.056C2.4 2.056.194 4.26.194 6.972S2.4 11.888 5.11 11.888zm0-8.832c2.16 0 3.916 1.757 3.916 3.916S7.27 10.888 5.11 10.888 1.194 9.13 1.194 6.972 2.95 3.056 5.11 3.056z"/><path d="M4.583 9.735v.226c0 .277.224.5.5.5s.5-.223.5-.5v-.227c.794-.2 1.382-.855 1.382-1.64 0-1.178-1.31-1.56-1.732-1.684-.906-.285-1.03-.52-1.03-.733 0-.39.395-.708.88-.708.328 0 .627.145.782.382.15.23.46.296.692.145.23-.15.296-.46.145-.692-.25-.382-.656-.655-1.12-.772V3.81c0-.277-.223-.5-.5-.5s-.5.223-.5.5v.228c-.793.2-1.38.855-1.38 1.64 0 1.142 1.214 1.522 1.74 1.687 1.023.3 1.023.61 1.023.728 0 .39-.396.708-.882.708-.353 0-.896-.232-1.237-.53-.207-.178-.524-.157-.705.05-.18.208-.16.524.05.706.385.336.908.595 1.393.71zM23.552 2h-2c-.276 0-.5.224-.5.5v21c0 .276.224.5.5.5h2c.276 0 .5-.224.5-.5v-21c0-.277-.224-.5-.5-.5zm-.5 21h-1V3h1v20zM18.55 11h-2c-.275 0-.5.225-.5.5v12c0 .276.225.5.5.5h2c.277 0 .5-.224.5-.5v-12c0-.276-.223-.5-.5-.5zm-.5 12h-1V12h1v11zM13.55 16h-2c-.275 0-.5.225-.5.5v7c0 .276.225.5.5.5h2c.277 0 .5-.224.5-.5v-7c0-.276-.223-.5-.5-.5zm-.5 7h-1v-6h1v6zM8.55 19h-2c-.275 0-.5.225-.5.5v4c0 .276.225.5.5.5h2c.277 0 .5-.224.5-.5v-4c0-.276-.223-.5-.5-.5zm-.5 4h-1v-3h1v3zM3.55 20h-2c-.276 0-.5.225-.5.5v3c0 .276.224.5.5.5h2c.276 0 .5-.224.5-.5v-3c0-.276-.223-.5-.5-.5zm-.5 3h-1v-2h1v2z"/></svg>