<svg xmlns="http://www.w3.org/2000/svg" width="24" height="24" viewBox="0 0 24 24"><path d="M23.484 14.492c0-.03-.01-.058-.018-.087-.008-.037-.013-.074-.03-.107 0-.004 0-.008-.002-.012l-4.492-9.012c-.005-.01-.016-.014-.022-.024-.035-.06-.08-.11-.136-.15-.018-.013-.034-.025-.053-.036-.07-.038-.146-.066-.23-.066h-6.007V3.743c0-.276-.224-.5-.5-.5s-.5.224-.5.5v1.253H5.495c-.087 0-.165.028-.236.067-.02.01-.035.022-.053.035-.056.04-.102.09-.137.15-.006.01-.017.013-.022.023l-4.52 9.01-.004.015c-.015.03-.02.067-.028.1-.007.032-.018.063-.02.094l-.002.015c0 2.47 2.246 4.477 5.005 4.477 2.76 0 5.005-2.008 5.005-4.477l-.003-.015c0-.03-.01-.06-.018-.09-.008-.036-.013-.072-.028-.105-.002-.004 0-.008-.003-.012l-4.13-8.288h5.19v2.35c0 .276.223.5.5.5s.5-.224.5-.5v-2.35h5.192l-4.156 8.287c-.003.005-.003.01-.005.015-.014.03-.018.063-.026.097-.008.032-.02.063-.02.095 0 .005-.003.01-.003.016 0 2.47 2.246 4.477 5.006 4.477s5.006-2.008 5.006-4.477c-.003-.006-.006-.01-.006-.016zM5.494 6.615l3.684 7.392H1.785l3.708-7.392zm-.014 11.37c-2.013 0-3.684-1.297-3.964-2.978h7.928c-.28 1.68-1.95 2.977-3.964 2.977zm16.7-3.977h-7.394l3.707-7.392 3.686 7.392zm-3.7 3.976c-2.013 0-3.684-1.296-3.964-2.977h7.93c-.28 1.68-1.95 2.977-3.965 2.977z"/></svg>