<svg xmlns="http://www.w3.org/2000/svg" width="24" height="24" viewBox="0 0 24 24"><path d="M7.664 19.98c-.27-.07-.538.102-.602.37l-.702 2.964c-.064.27.103.538.37.602.04.01.08.014.117.014.227 0 .432-.155.486-.385l.702-2.964c.064-.268-.102-.537-.37-.6zM16.933 20.35c-.063-.27-.33-.44-.602-.37-.268.062-.434.332-.37.6l.702 2.965c.055.23.26.385.486.385.038 0 .076-.004.115-.014.27-.063.435-.333.37-.602l-.7-2.964zM23.5 1.997H16v-1c0-.276-.225-.5-.5-.5s-.5.224-.5.5v1H8.997v-1c0-.276-.224-.5-.5-.5s-.5.224-.5.5v1h-7.5c-.275 0-.5.224-.5.5v16c0 .276.225.5.5.5h23c.277 0 .5-.224.5-.5v-16c0-.277-.223-.5-.5-.5zm-.5 16H1v-15h22v15z"/><path d="M7.744 13.003H6.156c-.653 0-1.206.56-1.206 1.22v.604c0 .66.53 1.175 1.206 1.175h1.587c.666 0 1.207-.527 1.207-1.175v-.604c0-.662-.553-1.22-1.206-1.22zm.206 1.823c0 .113-.106.175-.207.175H6.156c-.1 0-.206-.06-.206-.174v-.604c0-.113.1-.22.206-.22h1.587c.104 0 .207.108.207.22v.604zM12.744 10.002h-1.587c-.653 0-1.206.56-1.206 1.22v3.604c0 .66.53 1.175 1.207 1.175h1.587c.666 0 1.207-.526 1.207-1.174v-3.604c0-.66-.552-1.22-1.206-1.22zm.207 4.824c0 .11-.104.175-.206.175h-1.587c-.1 0-.206-.06-.206-.174v-3.604c0-.113.1-.22.207-.22h1.587c.104 0 .207.11.207.22v3.604zM14.952 8.222v6.604c0 .66.53 1.175 1.205 1.175h1.587c.666 0 1.207-.526 1.207-1.174V8.222c0-.662-.552-1.22-1.206-1.22h-1.587c-.653 0-1.205.558-1.205 1.22zm1 0c0-.113.1-.22.205-.22h1.587c.104 0 .207.11.207.22v6.604c0 .11-.104.175-.206.175h-1.587c-.1 0-.205-.06-.205-.174V8.222zM7.45 10.97c.13 0 .257-.048.355-.145l4.19-4.19v1.362c0 .276.223.5.5.5s.5-.224.5-.5v-2.5c0-.276-.225-.5-.5-.5h-2.5c-.277 0-.5.224-.5.5s.223.5.5.5h1.223l-4.12 4.12c-.196.195-.196.512 0 .707.097.098.225.147.353.147z"/></svg>