<svg xmlns="http://www.w3.org/2000/svg" width="24" height="24" viewBox="0 0 24 24"><path d="M20.487 14.63c-.276 0-.5.225-.5.5v8.296c0 .276.223.5.5.5s.5-.224.5-.5V15.13c0-.276-.223-.5-.5-.5zM20.487 5.295c1.113 0 1.853-1.4 1.853-2.325 0-1.036-.83-1.88-1.853-1.88-1.022 0-1.854.844-1.854 1.88 0 .925.74 2.325 1.854 2.325zm0-3.204c.47 0 .853.395.853.88 0 .582-.48 1.325-.853 1.325-.375 0-.854-.743-.854-1.325 0-.485.384-.88.854-.88z"/><path d="M23.36 5.677c-.054-.047-.12-.082-.188-.102-.092-.026-.2-.034-.715-.056l-.267-.013c-.453-.032-.845.217-1.06.64-.242.483-1.044.486-1.29 0-.214-.422-.62-.67-1.057-.64-.215.015-5.108.826-5.846.95-.5.085-.836.502-.817 1.014.02.506.394.906.89.953l4.69.438v4.787l.536 9.808c.015.267.235.473.5.473h.026c.275-.016.487-.252.472-.527l-.534-9.78V8.405c0-.258-.196-.474-.453-.498l-5.144-.463c1.472-.248 5.507-.91 5.743-.937.027-.006.073.037.102.093.273.54.862.876 1.537.876.676 0 1.265-.336 1.538-.877.028-.057.07-.1.103-.094l.288.013c.102.003.214.008.306.01.118.41.36 1.84.206 6.51-.153 0-.318.03-.46.15-.102.09-.187.266-.193.4l-.535 9.81c-.016.274.196.51.472.525.303.033.512-.196.526-.472l.513-9.39c.156-.002.324-.026.47-.15.103-.092.186-.268.19-.405.262-7.142-.327-7.643-.55-7.83z"/><path d="M15.986 18h-15V2h16c.276 0 .5-.224.5-.5s-.223-.5-.5-.5h-1V.52c0-.277-.224-.5-.5-.5s-.5.223-.5.5V1h-5V.52c0-.277-.224-.5-.5-.5s-.5.223-.5.5V1h-8.5c-.276 0-.5.224-.5.5v17c0 .276.224.5.5.5h15.5c.276 0 .5-.224.5-.5s-.223-.5-.5-.5z"/><path d="M8.954 5.015c-.815 0-1.478.663-1.478 1.478 0 .095.01.187.028.276l-2.69 1.996c-.245-.182-.545-.293-.874-.293-.815 0-1.478.663-1.478 1.478s.663 1.48 1.478 1.48 1.478-.664 1.478-1.48c0-.12-.02-.238-.047-.35l2.652-1.97c.255.21.577.34.932.34.098 0 .193-.01.286-.03l2.715 5.443c-.207.254-.336.574-.336.926 0 .813.662 1.477 1.477 1.477.814 0 1.478-.663 1.478-1.478s-.663-1.48-1.478-1.48c-.098 0-.193.012-.285.03l-2.715-5.442c.207-.254.336-.574.336-.926 0-.815-.664-1.477-1.48-1.477zM3.94 10.43c-.264 0-.478-.215-.478-.48s.215-.477.478-.477.478.214.478.478-.214.48-.478.48zM8.476 6.49c0-.263.214-.478.478-.478.263 0 .478.214.478.478s-.214.478-.478.478-.478-.214-.478-.478zm5.098 7.817c0 .263-.214.477-.478.477s-.478-.214-.478-.478.214-.48.478-.48.478.216.478.48zM14.986 23h-2v-2.374c0-.276-.224-.5-.5-.5s-.5.224-.5.5V23h-3c-.276 0-.5.224-.5.5s.224.5.5.5h6c.276 0 .5-.224.5-.5s-.223-.5-.5-.5z"/></svg>