<svg xmlns="http://www.w3.org/2000/svg" width="24" height="24" viewBox="0 0 24 24"><path d="M22.925 12.117L19.98 4.38c-.1-.235-.328-.38-.596-.38H7.007v-.358c0-.25.098-.488.275-.666L8.82 1.438c.215-.215.522-.315.822-.263l1.567.263c.27.046.53-.138.575-.41.045-.273-.138-.53-.41-.577L9.807.19c-.62-.106-1.252.098-1.695.54L6.575 2.27c-.367.366-.568.854-.568 1.372V4h-1.42c-.265 0-.5.155-.602.406L1.05 12.102c-.08.2-.055.43.068.613.12.178.32.285.53.285h9.837v6.945c-2.02.09-3.9.73-3.9 1.933 0 1.3 2.214 1.98 4.4 1.98 2.187 0 4.4-.68 4.4-1.98 0-1.202-1.88-1.84-3.9-1.933V13h9.837c.213 0 .41-.106.532-.285.122-.18.147-.407.07-.598zm-7.54 9.76c0 .286-1.19.982-3.4.982s-3.398-.697-3.398-.982c0-.262 1.02-.866 2.9-.962v.902c0 .276.223.5.5.5s.5-.224.5-.5v-.902c1.88.096 2.898.7 2.898.962zM2.16 12l2.67-7h1.177v1.555c0 .276.224.5.5.5s.5-.224.5-.5V5h12.14l2.663 7H2.16z"/><path d="M14.795 7H9.17c-.244 0-.452.176-.493.416l-.51 3c-.023.145.017.293.112.406.094.113.233.178.38.178h6.645c.147 0 .287-.065.382-.177.095-.113.136-.26.11-.407l-.51-3c-.04-.24-.248-.416-.492-.416zM9.592 8h1.89v2h-2.23l.34-2zm2.89 2V8h1.89l.34 2h-2.23z"/></svg>