<svg xmlns="http://www.w3.org/2000/svg" width="24" height="24" viewBox="0 0 24 24"><path d="M7.67 19.98c-.27-.07-.54.1-.603.37l-.703 2.964c-.064.27.102.538.37.602.04.01.08.014.117.014.228 0 .433-.154.487-.385l.703-2.964c.064-.268-.102-.537-.37-.6zM16.938 20.35c-.064-.27-.332-.44-.602-.37-.27.062-.435.332-.37.6l.7 2.965c.056.23.26.385.487.385.038 0 .076-.004.115-.014.27-.063.435-.333.37-.602l-.7-2.964zM23.504 1.997h-7.5v-1c0-.276-.224-.5-.5-.5s-.5.224-.5.5v1h-6v-1c0-.276-.225-.5-.5-.5s-.5.224-.5.5v1h-7.5c-.277 0-.5.224-.5.5v16c0 .276.223.5.5.5h23c.275 0 .5-.224.5-.5v-16c0-.277-.224-.5-.5-.5zm-.5 16h-22v-15h22v15z"/><path d="M11.916 9.235c-.14 0-.19 0-2.82 1.334l.627-2.733c.034-.273-.08-.53-.31-.704-.505-.382-1.6-.333-2.66.12-1.562.662-2.57 1.983-2.77 3.623-.156 1.282.247 2.574 1.106 3.544.857.97 2.09 1.524 3.386 1.524 1.498 0 2.895-.743 3.737-1.987.843-1.246 1.013-2.82.454-4.22-.126-.305-.42-.502-.75-.502zm-.532 4.16c-.666.984-1.726 1.55-2.91 1.55-1.007 0-1.97-.434-2.637-1.19-.67-.754-.983-1.76-.862-2.76.202-1.65 1.337-2.427 1.995-2.745.596-.287 1.137-.372 1.48-.372.095 0 .174.006.236.017l-.803 3.492c-.043.19.026.386.18.506.153.12.36.14.535.052 1.02-.52 2.59-1.312 3.22-1.617.344 1.04.19 2.147-.434 3.068z"/><path d="M13.61 7.456c-.575-1.352-2.07-2.095-2.793-1.99-.324.045-.556.264-.592.556l-.015.114c-.397 2.88-.326 2.934-.056 3.143.106.08.217.103.317.103.103 0 .194-.025.257-.042.026-.006 2.69-.898 2.887-1.38.064-.16.063-.335-.002-.497 0-.003-.002-.005-.003-.007zm-2.647.744c.032-.336.093-.868.207-1.708.348.104.974.43 1.36 1.05-.4.188-1.08.472-1.567.658zM19.474 12.997h-3.97c-.276 0-.5.224-.5.5s.224.5.5.5h3.97c.276 0 .5-.224.5-.5s-.224-.5-.5-.5zM19.474 9.997h-3.97c-.276 0-.5.224-.5.5s.224.5.5.5h3.97c.276 0 .5-.224.5-.5s-.224-.5-.5-.5zM15.004 7.496c0 .276.224.5.5.5h3.97c.276 0 .5-.224.5-.5s-.224-.5-.5-.5h-3.97c-.276 0-.5.224-.5.5z"/></svg>