<svg xmlns="http://www.w3.org/2000/svg" width="24" height="24" viewBox="0 0 24 24"><path d="M21.124.003H2.854C1.274.003-.01 1.288-.01 2.868v18.27c0 1.58 1.284 2.865 2.864 2.865h18.27c1.58 0 2.865-1.285 2.865-2.864V2.867c0-1.58-1.286-2.865-2.866-2.865zm-18.27 1h18.27c1.028 0 1.865.836 1.865 1.865v8.934l-3.67-3.11c.1-.22.157-.466.157-.724 0-.99-.805-1.793-1.794-1.793-.988 0-1.793.805-1.793 1.793 0 .47.187.898.485 1.218l-3.902 6.547c-.144-.037-.293-.064-.448-.064-.37 0-.713.112-.998.304L8.005 13.44c.098-.22.154-.463.154-.72 0-.99-.806-1.793-1.794-1.793s-1.793.804-1.793 1.793c0 .256.056.5.153.72L.99 16.558V2.868c0-1.028.836-1.865 1.864-1.865zM16.89 7.968c0-.438.356-.793.794-.793s.794.356.794.793-.356.793-.794.793-.793-.354-.793-.792zm-4.865 8.702c.438 0 .793.355.793.793s-.356.793-.793.793-.793-.355-.793-.793.355-.793.793-.793zm-6.453-3.95c0-.437.356-.793.793-.793s.793.356.793.793c0 .438-.356.793-.793.793s-.793-.356-.793-.793zm15.552 10.283H2.854c-1.028 0-1.865-.836-1.865-1.864v-3.28l4.376-3.652c.286.193.63.306 1 .306s.713-.113.998-.305l3.022 2.532c-.098.22-.154.464-.154.72 0 .99.805 1.794 1.793 1.794s1.793-.805 1.793-1.793c0-.47-.187-.898-.486-1.218l3.902-6.547c.144.038.293.064.45.064.367 0 .71-.112.994-.303l4.31 3.652v8.026c0 1.03-.836 1.865-1.864 1.865z"/></svg>