<svg xmlns="http://www.w3.org/2000/svg" width="24" height="24" viewBox="0 0 24 24"><path d="M5.736 18.006H1.148c-.653 0-1.206.56-1.206 1.22v3.605c0 .66.53 1.176 1.206 1.176h4.588c.666 0 1.207-.527 1.207-1.175v-3.603c0-.663-.553-1.22-1.207-1.22zm.207 4.824c0 .113-.106.175-.207.175H1.148c-.1 0-.206-.062-.206-.175v-3.604c0-.113.1-.22.206-.22h4.588c.104 0 .207.108.207.22v3.604zM13.737 12.005H9.15c-.654 0-1.207.56-1.207 1.22v9.604c0 .658.53 1.174 1.206 1.174h4.587c.666 0 1.207-.527 1.207-1.175v-9.605c0-.66-.552-1.22-1.207-1.22zm.207 10.825c0 .11-.105.175-.207.175H9.15c-.1 0-.207-.062-.207-.175v-9.604c0-.113.1-.22.206-.22h4.587c.104 0 .207.11.207.22v9.604zM21.738 2.004H17.15c-.653 0-1.206.56-1.206 1.22V22.83c0 .66.53 1.175 1.206 1.175h4.588c.665 0 1.206-.527 1.206-1.175V3.224c0-.66-.552-1.22-1.206-1.22zm.206 20.826c0 .11-.104.175-.206.175H17.15c-.1 0-.206-.062-.206-.175V3.224c0-.113.1-.22.206-.22h4.588c.104 0 .206.11.206.22V22.83zM1.443 12.974c.128 0 .256-.05.354-.146l8.19-8.19V8c0 .276.223.5.5.5s.5-.224.5-.5V3.5c0-.276-.225-.5-.5-.5h-4.5c-.277 0-.5.224-.5.5s.223.5.5.5H9.21l-8.12 8.12c-.195.195-.195.512 0 .707.098.098.225.147.353.147z"/></svg>