<svg xmlns="http://www.w3.org/2000/svg" width="24" height="24" viewBox="0 0 24 24"><path d="M9.973 13.522v7.95c0 .276.224.5.5.5s.5-.224.5-.5v-7.95c0-.276-.224-.5-.5-.5s-.5.224-.5.5zM7.973 13.522v7.95c0 .276.224.5.5.5s.5-.224.5-.5v-7.95c0-.276-.224-.5-.5-.5s-.5.224-.5.5zM4.973 13.522v7.95c0 .276.224.5.5.5s.5-.224.5-.5v-7.95c0-.276-.224-.5-.5-.5s-.5.224-.5.5zM2.973 13.522v7.95c0 .276.224.5.5.5s.5-.224.5-.5v-7.95c0-.276-.224-.5-.5-.5s-.5.224-.5.5zM14.974 13.522v7.95c0 .276.224.5.5.5s.5-.224.5-.5v-7.95c0-.276-.224-.5-.5-.5s-.5.224-.5.5zM12.974 13.522v7.95c0 .276.224.5.5.5s.5-.224.5-.5v-7.95c0-.276-.224-.5-.5-.5s-.5.224-.5.5zM19.975 13.522v7.95c0 .276.224.5.5.5s.5-.224.5-.5v-7.95c0-.276-.224-.5-.5-.5s-.5.224-.5.5zM17.974 13.522v7.95c0 .276.224.5.5.5s.5-.224.5-.5v-7.95c0-.276-.224-.5-.5-.5s-.5.224-.5.5zM23.358 23.002H.613c-.276 0-.5.224-.5.5s.224.5.5.5H23.36c.275 0 .5-.224.5-.5s-.225-.5-.502-.5zM.613 12H23.36c.275 0 .5-.224.5-.5s-.225-.5-.5-.5H.612c-.276 0-.5.224-.5.5s.223.5.5.5zM7.61 9.932c.277 0 .5-.224.5-.5 0-1.95 1.74-3.535 3.876-3.535s3.875 1.586 3.875 3.535c0 .276.225.5.5.5s.5-.224.5-.5c0-2.34-1.923-4.25-4.374-4.488V1.006h2.304c.276 0 .5-.224.5-.5s-.224-.5-.5-.5h-2.804c-.276 0-.5.224-.5.5v4.438C9.036 5.18 7.11 7.09 7.11 9.432c0 .277.225.5.5.5z"/></svg>