<svg xmlns="http://www.w3.org/2000/svg" width="24" height="24" viewBox="0 0 24 24"><path d="M5.78 7H1.192C.54 7-.014 7.558-.014 8.22v14.605c0 .66.53 1.175 1.206 1.175H5.78c.666 0 1.207-.527 1.207-1.175V8.22C6.987 7.558 6.434 7 5.78 7zm.206 15.825c0 .11-.105.175-.206.175H1.192c-.1 0-.206-.062-.206-.175V8.22c0-.113.1-.22.206-.22H5.78c.104 0 .207.11.207.22v14.605zM13.78 12H9.193c-.653 0-1.206.56-1.206 1.22v9.605c0 .66.53 1.175 1.206 1.175h4.587c.666 0 1.207-.527 1.207-1.175V13.22c0-.66-.552-1.22-1.207-1.22zm.207 10.825c0 .11-.105.175-.207.175H9.193c-.1 0-.206-.062-.206-.175V13.22c0-.113.1-.22.206-.22h4.587c.104 0 .207.11.207.22v9.605zM21.78 2h-4.587c-.653 0-1.205.558-1.205 1.22v19.604c0 .66.53 1.175 1.205 1.175h4.588c.667 0 1.208-.528 1.208-1.176V3.22c0-.662-.552-1.22-1.207-1.22zm.208 20.825c0 .11-.105.175-.207.175h-4.587c-.1 0-.205-.062-.205-.175V3.22c0-.114.1-.22.205-.22h4.588c.105 0 .208.108.208.22v19.605z"/></svg>