<svg xmlns="http://www.w3.org/2000/svg" width="24" height="24" viewBox="0 0 24 24"><path d="M20.49 14.63c-.276 0-.5.225-.5.5v8.296c0 .276.223.5.5.5s.5-.224.5-.5V15.13c0-.276-.223-.5-.5-.5zM20.49 5.295c1.113 0 1.853-1.4 1.853-2.325 0-1.036-.83-1.88-1.853-1.88-1.022 0-1.854.844-1.854 1.88 0 .925.74 2.325 1.854 2.325zm0-3.204c.47 0 .853.395.853.88 0 .582-.48 1.325-.853 1.325-.375 0-.854-.743-.854-1.325 0-.485.384-.88.854-.88z"/><path d="M23.364 5.677c-.055-.046-.12-.08-.188-.1-.093-.027-.2-.036-.717-.057l-.268-.012c-.456-.032-.845.217-1.06.64-.243.486-1.045.483-1.29 0-.21-.422-.62-.666-1.057-.64-.215.014-5.108.825-5.846.95-.5.084-.837.5-.818 1.013.02.506.394.906.89.953l4.69.438v4.787l.536 9.808c.015.267.235.473.5.473h.026c.275-.016.487-.252.472-.527l-.534-9.78V8.405c0-.258-.196-.474-.453-.498l-5.145-.463c1.472-.248 5.507-.91 5.743-.937.038.015.073.037.102.093.273.54.862.876 1.538.876.675 0 1.264-.336 1.537-.877.028-.057.066-.1.103-.094l.288.013c.102.003.214.008.306.01.118.41.36 1.838.206 6.51-.153 0-.318.03-.46.15-.102.09-.187.266-.193.4l-.535 9.81c-.016.274.196.51.472.525.314.033.512-.196.526-.472l.513-9.39c.155-.002.326-.026.47-.15.105-.092.188-.268.193-.405.263-7.14-.327-7.643-.55-7.83z"/><path d="M15.99 18h-15V2h16c.275 0 .5-.224.5-.5s-.224-.5-.5-.5h-1V.52c0-.277-.225-.5-.5-.5s-.5.223-.5.5V1h-5V.52c0-.277-.225-.5-.5-.5s-.5.223-.5.5V1H.49c-.277 0-.5.224-.5.5v17c0 .276.223.5.5.5h15.5c.275 0 .5-.224.5-.5s-.224-.5-.5-.5zM14.99 23h-2v-2.374c0-.276-.225-.5-.5-.5s-.5.224-.5.5V23h-3c-.277 0-.5.224-.5.5s.223.5.5.5h6c.275 0 .5-.224.5-.5s-.224-.5-.5-.5z"/><path d="M7.502 11h-4c-.276 0-.5.224-.5.5v4c0 .276.224.5.5.5h4c.276 0 .5-.224.5-.5v-4c0-.277-.223-.5-.5-.5zm-.5 4h-3v-3h3v3zM8.002 4.5c0-.277-.224-.5-.5-.5h-4c-.276 0-.5.223-.5.5v4c0 .275.224.5.5.5h4c.276 0 .5-.225.5-.5v-4zm-1 3.5h-3V5h3v3zM14.856 5.5c0-.276-.224-.5-.5-.5H9.578c-.276 0-.5.224-.5.5s.224.5.5.5h4.778c.277 0 .5-.224.5-.5zM14.856 12.5c0-.276-.224-.5-.5-.5H9.578c-.276 0-.5.224-.5.5s.224.5.5.5h4.778c.277 0 .5-.224.5-.5zM10.504 7h-.926c-.276 0-.5.224-.5.5s.224.5.5.5h.926c.276 0 .5-.224.5-.5s-.223-.5-.5-.5zM9.578 14c-.276 0-.5.224-.5.5s.224.5.5.5h.926c.276 0 .5-.224.5-.5s-.224-.5-.5-.5h-.926z"/></svg>