<svg xmlns="http://www.w3.org/2000/svg" width="24" height="24" viewBox="0 0 24 24"><path d="M23.905 13.42L21.775 5.9c-.074-.265-.35-.422-.616-.345l-3.63 1.028c-.13.036-.237.12-.302.237-.034.06-.053.127-.06.195l-.68.206C13.2 5.568 11.76 5.9 11.66 5.933c-.582.093-1.096.286-1.552.54-1.672.038-2.682.12-3.3.218-.054-.142-.165-.26-.323-.305l-3.63-1.028c-.126-.036-.263-.02-.38.044-.116.065-.2.174-.237.3L.106 13.22c-.074.266.08.542.346.618l3.63 1.028c.045.013.09.02.136.02.084 0 .168-.022.244-.064.116-.064.2-.173.237-.3l.265-.938c1.464 1.925 4.713 4.465 5.134 4.79.382.324.768.456 1.117.456.43 0 .807-.202 1.053-.492.11-.13.194-.283.253-.447l.19.164c.338.286.72.435 1.093.435.16 0 .316-.027.47-.082.457-.165.82-.57.947-1.054.275.068.565.06.846-.042.548-.197.97-.695 1.074-1.27.012-.067.02-.134.022-.2.412-.042.792-.263 1.06-.577.172-.205.294-.45.354-.712.2-.002.43-.027.657-.103l.077.27c.036.128.122.236.237.3.076.043.16.064.245.064.046 0 .092-.006.137-.02l3.63-1.027c.264-.075.418-.352.343-.618zm-20.03.345l-2.67-.755L3.06 6.455l2.67.755-1.856 6.555zm13.586.854c-.06.07-.378.41-.758.092l-.07-.06-.01-.01-.003-.002-2.142-1.8c-.21-.176-.526-.148-.704.062-.178.21-.15.527.062.705l2.14 1.797.005.005c.153.13.212.278.18.453-.04.22-.22.432-.428.507-.17.062-.326.024-.482-.107l-.522-.44c0-.002-.002-.002-.003-.002-.024-.03-.044-.066-.076-.092l-1.75-1.43c-.214-.176-.528-.144-.704.07-.175.214-.143.528.07.703l1.745 1.428c.023.03.04.062.07.087.192.164.206.348.184.473-.034.186-.165.35-.327.408-.213.075-.434-.053-.573-.172l-2.07-1.797c-.024-.02-.053-.03-.08-.045-.027-.016-.052-.035-.08-.046-.03-.01-.062-.012-.092-.016-.033-.005-.065-.013-.098-.012-.03 0-.056.01-.084.018-.034.008-.068.012-.1.027-.03.013-.05.034-.077.052-.025.018-.054.03-.076.052-.004.004-.005.01-.008.012-.004.002-.01.004-.012.007-.018.02-.026.047-.04.07-.018.03-.04.06-.052.092-.01.028-.01.058-.016.09-.005.032-.014.064-.012.097 0 .032.012.06.02.092.006.03.01.062.024.092.014.032.038.058.06.086.015.022.024.047.044.066l.786.762c.276.233.247.523.103.694-.176.207-.46.176-.78-.095-1.318-1.02-4.77-3.892-5.4-5.293l1.292-4.558c.23-.058.828-.157 2.214-.224-.47.554-.795 1.18-.94 1.785-.226.936-.03 1.735.52 2.137.31.226.674.307 1.06.238.884-.163 1.69-1.13 2.038-1.6.34-.017.733-.125 1.024-.22l4.896 3.99c.083.07.13.144.16.216.002.026.014.05.02.075.045.227-.104.428-.147.48zm.987-1.07c-.09-.164-.21-.324-.38-.468l-5.123-4.176c-.14-.113-.33-.145-.495-.08-.415.16-.917.285-1.054.257-.21-.062-.436.024-.556.207-.323.493-1.03 1.312-1.553 1.407-.114.02-.2.002-.287-.062-.205-.15-.26-.59-.138-1.095.27-1.114 1.286-2.355 3-2.628.01-.002 1.3-.278 4.35 1.293.117.06.252.072.374.034l.82-.25 1.556 5.49c-.166.072-.362.08-.515.07zm1.692.417L18.282 7.41l2.668-.754 1.857 6.555-2.668.757z"/></svg>