<svg xmlns="http://www.w3.org/2000/svg" width="24" height="24" viewBox="0 0 24 24"><path d="M21.87 8.622c-.896 0-1.625.73-1.625 1.625 0 .29.083.56.217.797l-4.537 4.95c-.206-.095-.433-.15-.674-.15-.144 0-.282.024-.415.06L9.887 8.258c.228-.28.37-.63.37-1.02 0-.895-.73-1.624-1.625-1.624-.896 0-1.625.73-1.625 1.625 0 .146.026.286.063.42l-4.026 2.544c-.28-.233-.637-.38-1.03-.38-.896 0-1.625.73-1.625 1.626 0 .896.728 1.625 1.624 1.625.896 0 1.625-.73 1.625-1.625 0-.14-.024-.273-.058-.403l4.036-2.55c.28.226.63.367 1.015.367.145 0 .283-.025.416-.06l4.946 7.645c-.228.28-.37.63-.37 1.02 0 .895.73 1.624 1.625 1.624s1.627-.73 1.627-1.625c0-.292-.083-.56-.217-.798l4.537-4.95c.206.094.433.15.674.15.897 0 1.627-.73 1.627-1.625 0-.896-.73-1.625-1.627-1.625zM2.013 12.076c-.345 0-.625-.28-.625-.625s.28-.624.625-.624.625.28.625.625-.28.626-.625.626zM8.007 7.24c0-.346.28-.626.625-.626s.625.28.625.625-.28.624-.625.624-.625-.28-.625-.625zm7.244 10.854c-.344 0-.624-.28-.624-.625s.28-.626.625-.626.627.28.627.625-.28.624-.626.624zm6.62-7.22c-.345 0-.625-.28-.625-.626s.28-.625.625-.625.626.28.626.625-.28.625-.626.625z"/></svg>