<svg xmlns="http://www.w3.org/2000/svg" width="24" height="24" viewBox="0 0 24 24"><path d="M7.66 19.98c-.27-.07-.54.1-.602.37l-.703 2.964c-.064.27.103.538.37.602.04.01.08.014.117.014.227 0 .432-.154.486-.385l.703-2.964c.065-.268-.1-.537-.37-.6zM16.928 20.35c-.064-.27-.332-.44-.602-.37-.27.062-.435.332-.37.6l.7 2.965c.056.23.26.385.487.385.038 0 .076-.004.115-.014.27-.063.435-.333.37-.602l-.7-2.964zM23.494 1.997h-7.5v-1c0-.276-.224-.5-.5-.5s-.5.224-.5.5v1h-6v-1c0-.276-.225-.5-.5-.5s-.5.224-.5.5v1h-7.5c-.276 0-.5.224-.5.5v16c0 .276.224.5.5.5h23c.276 0 .5-.224.5-.5v-16c0-.277-.223-.5-.5-.5zm-.5 16h-22v-15h22v15z"/><path d="M15.03 13.103c-.154-.06-.32-.096-.494-.096-.094 0-.186.01-.275.028l-3.747-5.793c.163-.226.26-.5.26-.8 0-.756-.615-1.373-1.373-1.373s-1.373.616-1.373 1.374c0 .097.01.19.03.282l-2.985 1.88c-.228-.166-.505-.267-.808-.267-.757 0-1.373.615-1.373 1.372s.617 1.374 1.374 1.374 1.374-.616 1.374-1.374c0-.09-.01-.177-.027-.262l2.997-1.89c.224.16.497.257.793.257.094 0 .186-.01.275-.028l3.75 5.793c-.163.226-.262.5-.262.8 0 .756.616 1.372 1.373 1.372s1.373-.616 1.373-1.373c0-.217-.056-.42-.145-.6l3.414-3.726c.153.06.318.096.493.096.757 0 1.373-.616 1.373-1.373s-.616-1.374-1.373-1.374S18.3 8.02 18.3 8.778c0 .216.055.418.144.6l-3.414 3.725zM9.4 6.07c.206 0 .374.167.374.374 0 .206-.167.373-.374.373-.206 0-.373-.167-.373-.373s.167-.374.373-.374zm-5.136 4.015c-.206 0-.373-.167-.373-.374 0-.205.168-.372.374-.372s.374.167.374.373c0 .208-.168.375-.374.375zm10.272 4.67c-.206 0-.373-.167-.373-.373s.167-.374.373-.374c.097 0 .183.04.25.1 0 0 .002 0 .003.002.072.068.12.164.12.27 0 .208-.168.375-.374.375zm5.137-6.35c.206 0 .373.167.373.373s-.167.373-.373.373-.373-.166-.373-.372.167-.373.373-.373z"/></svg>