<svg xmlns="http://www.w3.org/2000/svg" width="24" height="24" viewBox="0 0 24 24"><path d="M20.2 18.1c-.505 0-.974.14-1.388.37L12 10.71V5.95c1.36-.24 2.4-1.422 2.4-2.85 0-1.6-1.3-2.9-2.9-2.9-1.6 0-2.9 1.3-2.9 2.9 0 1.428 1.04 2.61 2.4 2.85v4.77l-6.495 7.813c-.44-.27-.952-.433-1.505-.433C1.4 18.1.1 19.4.1 21c0 1.6 1.3 2.9 2.9 2.9s2.9-1.302 2.9-2.9c0-.686-.25-1.308-.647-1.804L11 12.283v5.867c-1.36.24-2.4 1.422-2.4 2.85 0 1.6 1.3 2.9 2.9 2.9 1.6 0 2.9-1.3 2.9-2.9 0-1.427-1.04-2.61-2.4-2.85V12.23l6.03 6.868c-.45.51-.73 1.172-.73 1.904 0 1.6 1.3 2.9 2.9 2.9 1.6 0 2.9-1.3 2.9-2.9 0-1.6-1.3-2.9-2.9-2.9zM3 22.9c-1.048 0-1.9-.853-1.9-1.9s.852-1.9 1.9-1.9 1.9.853 1.9 1.9c0 1.048-.852 1.9-1.9 1.9zM9.6 3.1c0-1.048.852-1.9 1.9-1.9s1.9.852 1.9 1.9S12.548 5 11.5 5s-1.9-.852-1.9-1.9zM13.4 21c0 1.048-.853 1.9-1.9 1.9s-1.9-.852-1.9-1.9c0-1.047.852-1.9 1.9-1.9s1.9.853 1.9 1.9zm6.8 1.9c-1.048 0-1.9-.853-1.9-1.9s.853-1.9 1.9-1.9 1.9.854 1.9 1.9c0 1.048-.853 1.9-1.9 1.9z"/></svg>