<svg xmlns="http://www.w3.org/2000/svg" width="24" height="24" viewBox="0 0 24 24"><path d="M23.23 10.44l-.157-.157c-.394-.392-.95-.527-1.463-.376L14.054 2.35c.15-.508.017-1.068-.377-1.462L13.52.732c-.578-.58-1.52-.58-2.1 0l-5.44 5.44c-.58.58-.58 1.52 0 2.1l.158.158c.39.39.947.524 1.456.377l7.562 7.562c-.146.507-.013 1.064.377 1.455l.157.157c.29.29.67.435 1.05.435s.762-.145 1.052-.435l5.44-5.44c.578-.58.578-1.522-.002-2.1zM6.845 7.723l-.157-.156c-.19-.19-.19-.498 0-.687l5.44-5.44c.183-.185.5-.187.687 0l.157.156c.153.152.177.39.072.577L7.42 7.795c-.19.105-.422.08-.575-.073zm1.57.492L13.46 3.17l7.33 7.33-5.042 5.047-7.333-7.333zm14.108 3.622l-5.44 5.44c-.188.188-.497.188-.687 0l-.156-.158c-.154-.153-.178-.386-.073-.576l5.62-5.623c.192-.107.424-.083.58.07l.156.158c.19.19.19.498 0 .688zM10.036 13.22L.26 22.995c-.195.195-.195.512 0 .707.098.098.226.146.354.146s.256-.05.354-.147l9.775-9.776c.195-.195.195-.512 0-.707s-.512-.196-.707 0z"/></svg>