<svg xmlns="http://www.w3.org/2000/svg" width="24" height="24" viewBox="0 0 24 24"><path d="M17.562 3.606c.276 0 .5-.224.5-.5v-1.5c0-.276-.224-.5-.5-.5s-.5.224-.5.5v1.5c0 .276.224.5.5.5zM17.563 15.188c-.276 0-.5.224-.5.5v1.952c0 .276.224.5.5.5s.5-.224.5-.5v-1.952c0-.276-.223-.5-.5-.5zM17.563 20.394c-.276 0-.5.224-.5.5v1.5c0 .276.224.5.5.5s.5-.224.5-.5v-1.5c0-.276-.223-.5-.5-.5zM23.888 10.88L20.87 6.37c-.092-.138-.246-.22-.41-.223h-.006c-.163 0-.316.08-.41.213l-1.266 1.81c-.205-.18-.447-.31-.716-.386V6.708c0-.276-.224-.5-.5-.5s-.5.224-.5.5v1.077c-.57.16-1.028.58-1.236 1.127l-1.14-.674c-.133-.078-.293-.09-.435-.036-.142.055-.252.172-.297.318l-1.483 4.783-2.525-1.178c-.238-.11-.52-.02-.65.21L6.39 17.58 3.9 15.223c-.106-.1-.252-.152-.396-.134-.145.015-.276.093-.36.213L.188 19.606c-.156.228-.1.54.13.695.085.06.184.09.282.09.158 0 .314-.077.412-.218l2.626-3.82 2.533 2.396c.114.106.268.155.42.13.154-.022.287-.115.362-.25l2.993-5.4 2.622 1.224c.13.06.28.062.414.004.133-.06.233-.17.276-.31L14.72 9.42l1.046.617c.167.64.662 1.14 1.297 1.32v1.076c0 .276.224.5.5.5s.5-.224.5-.5v-1.077c.784-.22 1.363-.933 1.363-1.786 0-.167-.03-.327-.07-.48l1.09-1.558 2.61 3.904c.096.145.254.222.415.222.097 0 .193-.027.28-.084.23-.154.29-.464.138-.694zm-6.325-.446c-.476 0-.863-.387-.863-.863 0-.475.388-.862.863-.862s.863.387.863.863c0 .477-.387.864-.863.864z"/></svg>