<svg xmlns="http://www.w3.org/2000/svg" width="24" height="24" viewBox="0 0 24 24"><path d="M21.396 5.993H2.572c-1.45 0-2.627 1.178-2.627 2.627v12.748c0 1.448 1.18 2.627 2.627 2.627h18.825c1.45 0 2.628-1.18 2.628-2.627V8.62c0-1.45-1.18-2.627-2.63-2.627zm-18.824 1h18.825c.897 0 1.628.73 1.628 1.627v3.402h-9.057v-.07c0-.54-.44-.98-.98-.98h-2.054c-.54 0-.98.44-.98.98v.07H.943V8.62c0-.897.73-1.627 1.628-1.627zm8.366 5.46l-.005-.483 2.035-.02v2.035l-2.016.02-.013-1.42c.002-.022.012-.04.012-.063 0-.025-.01-.046-.014-.07zm10.458 10.542H2.572c-.897 0-1.627-.73-1.627-1.627v-8.346h9.008v.983c0 .54.44.98.98.98h2.054c.54 0 .98-.44.98-.98v-.983h9.058v8.346c0 .897-.73 1.627-1.63 1.627zM7.492 4.992c.276 0 .5-.224.5-.5v-.54c0-1.075.94-1.95 2.093-1.95h3.788c1.154 0 2.093.875 2.093 1.95v.54c0 .276.224.5.5.5s.5-.224.5-.5v-.54c0-1.627-1.388-2.95-3.093-2.95h-3.788c-1.706 0-3.093 1.323-3.093 2.95v.54c0 .277.223.5.5.5z"/></svg>