<svg xmlns="http://www.w3.org/2000/svg" width="24" height="24" viewBox="0 0 24 24"><path d="M21.738 13.485c0-.01-.005-.017-.005-.027-.05-4.81-3.435-8.83-7.95-9.86.132-.306.214-.635.214-.97 0-1.37-1.116-2.486-2.487-2.486-1.37 0-2.486 1.115-2.486 2.486 0 .336.082.664.212.97-4.514 1.03-7.9 5.05-7.95 9.86 0 .01-.004.017-.004.027 0 .006.003.01.003.016 0 .022-.003.043-.003.064 0 5.64 4.588 10.23 10.23 10.23 5.64 0 10.228-4.59 10.228-10.23l-.003-.063c-.002-.005 0-.01 0-.015zM10.185 3.302c-.107-.21-.16-.436-.16-.673 0-.82.666-1.487 1.485-1.487.82 0 1.487.667 1.487 1.486 0 .236-.054.463-.16.673-.02.04-.027.082-.036.124-.423-.054-.852-.09-1.29-.09-.438 0-.867.036-1.29.09-.01-.043-.015-.085-.035-.125zm1.825 19.465v-1.774c0-.276-.224-.5-.5-.5s-.5.224-.5.5v1.774c-4.715-.255-8.492-4.056-8.707-8.782h1.76c.275 0 .5-.224.5-.5s-.225-.5-.5-.5H2.31c.292-4.652 4.038-8.372 8.7-8.624v1.775c0 .276.224.5.5.5s.5-.224.5-.5V4.36c4.663.253 8.408 3.973 8.7 8.625h-1.8c-.275 0-.5.224-.5.5s.225.5.5.5h1.807c-.215 4.726-3.992 8.528-8.707 8.782z"/><path d="M16.494 7.905L9.64 11.482c-.01.006-.017.017-.027.023-.033.02-.06.047-.086.075s-.055.053-.075.086c-.006.01-.018.016-.023.027L5.85 18.55c-.1.192-.064.43.09.584.096.096.224.146.354.146.08 0 .158-.02.23-.057l6.856-3.577c.01-.006.017-.017.027-.024.034-.02.06-.048.087-.076.027-.027.054-.052.074-.085.007-.01.018-.015.024-.027l3.577-6.855c.1-.194.063-.43-.09-.585-.154-.153-.392-.19-.586-.088zM7.474 17.6l2.525-4.84 2.313 2.314-4.84 2.526zm5.547-3.232l-2.313-2.314 4.84-2.526-2.526 4.84z"/></svg>