<svg xmlns="http://www.w3.org/2000/svg" width="24" height="24" viewBox="0 0 24 24"><path d="M23.575 1.124L17.463.104c-.1-.017-.2-.003-.29.04l-5.69 2.6L6.714.565C6.593.51 6.455.506 6.33.553L.408 2.783c-.195.072-.324.26-.324.467v15.145c0 .164.08.317.215.41.085.06.185.09.285.09.06 0 .12-.01.176-.032l5.73-2.158 4.558 2.04c.254.115.548 0 .66-.252.114-.252 0-.548-.25-.66L6.71 15.71c-.12-.057-.256-.06-.38-.013l-5.247 1.976V3.596L6.49 1.56l4.784 2.187c.133.06.283.06.416 0l5.76-2.63 5.544.923v14.12l-1.41-.263c-.27-.052-.532.127-.583.4-.05.27.13.532.4.582l2.002.372c.145.026.298-.012.41-.106.115-.095.182-.236.182-.385V1.618c0-.245-.178-.453-.42-.493z"/><path d="M6.007 3.932v9.61c0 .276.224.5.5.5s.5-.224.5-.5v-9.61c0-.276-.224-.5-.5-.5s-.5.224-.5.5zM11.98 9.46V5.792c0-.276-.223-.5-.5-.5s-.5.224-.5.5V9.46c0 .275.225.5.5.5s.5-.225.5-.5zM17.987 8.107V3.25c0-.276-.224-.5-.5-.5s-.5.224-.5.5v4.857c0 .276.224.5.5.5s.5-.223.5-.5zM15.987 10.068c-2.587 0-4.69 2.094-4.69 4.668 0 2.384 3.836 8.25 4.273 8.912.093.14.25.224.417.224s.324-.084.417-.224c.438-.66 4.274-6.528 4.274-8.912 0-2.574-2.104-4.668-4.69-4.668zm0 12.384c-1.318-2.076-3.69-6.138-3.69-7.716 0-2.023 1.655-3.668 3.69-3.668s3.69 1.646 3.69 3.668c.002 1.578-2.37 5.64-3.69 7.716z"/><path d="M15.987 12.903c-.848 0-1.537.687-1.537 1.53 0 .845.69 1.53 1.537 1.53s1.536-.686 1.536-1.53c0-.843-.69-1.53-1.536-1.53zm0 2.062c-.296 0-.537-.238-.537-.53 0-.293.24-.53.537-.53s.536.237.536.53c0 .29-.24.53-.536.53z"/></svg>