<svg xmlns="http://www.w3.org/2000/svg" width="24" height="24" viewBox="0 0 24 24"><path d="M4.537 14.003c.168 0 .325-.085.417-.226.386-.585 3.765-5.783 3.765-7.905 0-2.306-1.877-4.183-4.184-4.183C2.23 1.69.353 3.564.353 5.87c0 2.122 3.38 7.32 3.766 7.905.09.14.248.226.417.226zm0-11.313c1.755 0 3.183 1.428 3.183 3.183 0 1.36-2.018 4.853-3.183 6.705-1.165-1.853-3.183-5.344-3.183-6.705 0-1.756 1.427-3.183 3.183-3.183z"/><path d="M6.347 5.59c0-.998-.812-1.81-1.81-1.81s-1.81.812-1.81 1.81.81 1.812 1.81 1.812 1.81-.813 1.81-1.81zm-1.81.81c-.448 0-.812-.363-.812-.81s.364-.81.81-.81.812.364.812.81-.364.81-.81.81zM19.59 7.63c-2.307 0-4.183 1.876-4.183 4.183 0 2.123 3.38 7.32 3.765 7.904.093.14.25.226.418.226s.325-.085.418-.225c.385-.586 3.766-5.782 3.766-7.905 0-2.307-1.878-4.183-4.184-4.183zm0 10.887c-1.165-1.852-3.183-5.343-3.183-6.705 0-1.755 1.428-3.183 3.183-3.183 1.756 0 3.184 1.427 3.184 3.182 0 1.362-2.02 4.853-3.184 6.705z"/><path d="M19.59 9.72c-.998 0-1.81.812-1.81 1.81s.81 1.812 1.81 1.812 1.81-.812 1.81-1.81-.812-1.812-1.81-1.812zm0 2.62c-.447 0-.81-.363-.81-.81s.362-.81.81-.81.81.363.81.81-.363.81-.81.81zM9.478 16.402l-.96-.278c-.266-.077-.542.076-.62.34-.077.267.076.544.34.62l.96.28c.047.013.094.02.14.02.217 0 .417-.143.48-.36.078-.267-.075-.545-.34-.622zM17.16 18.633l-.96-.278c-.264-.078-.543.077-.62.342-.076.265.076.542.342.62l.96.277c.047.014.094.02.14.02.217 0 .417-.143.48-.36.076-.267-.076-.544-.342-.62zM5.636 15.287l-.96-.278c-.266-.08-.543.076-.62.34-.077.266.076.543.34.62l.96.278c.047.014.094.02.14.02.217 0 .417-.143.48-.36.078-.267-.075-.544-.34-.62zM13.32 17.517l-.962-.278c-.266-.08-.543.076-.62.34-.077.266.076.543.34.62l.96.278c.048.014.095.02.14.02.218 0 .418-.143.48-.36.078-.266-.074-.544-.34-.62z"/></svg>