<svg xmlns="http://www.w3.org/2000/svg" width="24" height="24" viewBox="0 0 24 24"><path d="M.62 5.67c.097.1.225.147.353.147s.256-.05.354-.146l1.68-1.678 1.678 1.68c.097.097.225.146.353.146s.256-.05.354-.146c.195-.195.195-.512 0-.707l-1.68-1.68 1.68-1.68c.194-.194.194-.51 0-.706s-.513-.196-.708 0l-1.68 1.678L1.327.898C1.13.705.814.705.62.9s-.196.513 0 .708l1.678 1.68-1.68 1.678c-.194.195-.194.512 0 .707zM19.986 6c0 .276.224.5.5.5s.5-.224.5-.5V2.5c0-.024-.01-.044-.013-.067-.005-.037-.01-.073-.022-.108-.012-.034-.032-.062-.05-.09-.014-.02-.02-.045-.037-.064-.004-.003-.01-.005-.013-.01-.026-.027-.058-.046-.09-.068-.023-.015-.043-.035-.068-.046-.025-.01-.053-.014-.08-.02-.036-.01-.073-.022-.11-.024L20.485 2h-3.5c-.276 0-.5.224-.5.5s.224.5.5.5h2.167l-3.886 3.394c-1.68 1.604-2.367 2.96-2.367 4.685v3.34c0 2.38-1.656 4.328-4.027 4.74l-1.887.33C6.61 18.036 5.3 16.956 3.73 16.956c-1.86 0-3.374 1.514-3.374 3.375s1.514 3.375 3.375 3.375c1.81 0 3.278-1.433 3.36-3.222l1.954-.34c2.86-.497 4.856-2.852 4.856-5.727v-3.34c0-1.438.577-2.55 2.04-3.947l4.046-3.53V6zM3.73 22.707c-1.31 0-2.374-1.065-2.374-2.375s1.065-2.375 2.375-2.375 2.376 1.065 2.376 2.375-1.065 2.375-2.375 2.375z"/><path d="M4.927 9.604c-.195-.195-.512-.195-.707 0s-.195.512 0 .707l1.68 1.68-1.68 1.68c-.195.195-.195.512 0 .707.098.098.226.146.354.146s.256-.05.354-.146l1.68-1.68 1.678 1.68c.098.098.226.146.354.146s.256-.05.354-.146c.195-.195.195-.512 0-.707l-1.68-1.68 1.678-1.68c.195-.194.195-.51 0-.706s-.512-.195-.707 0l-1.68 1.68-1.678-1.68zM21.79 9.958l1.68-1.68c.195-.194.195-.51 0-.706s-.512-.195-.707 0l-1.68 1.68-1.678-1.68c-.195-.195-.512-.195-.707 0s-.195.512 0 .707l1.68 1.678-1.68 1.68c-.195.194-.195.51 0 .706.098.098.226.146.354.146s.256-.05.354-.146l1.68-1.68 1.678 1.68c.098.098.226.146.354.146s.256-.05.354-.146c.195-.195.195-.512 0-.707l-1.68-1.68zM21.985 18.273c-.195-.195-.512-.195-.707 0l-1.68 1.68-1.68-1.68c-.195-.195-.512-.195-.707 0s-.194.512 0 .707l1.68 1.68-1.68 1.678c-.194.195-.194.512 0 .707.1.098.227.146.355.146s.256-.048.354-.145l1.68-1.68 1.68 1.68c.097.098.225.146.353.146s.256-.048.354-.145c.195-.195.195-.512 0-.707l-1.68-1.68 1.68-1.678c.194-.195.194-.51-.002-.707z"/></svg>