<svg xmlns="http://www.w3.org/2000/svg" width="24" height="24" viewBox="0 0 24 24"><path d="M23.704 12.587c.005-.03.018-.056.018-.087 0-.018-.01-.034-.01-.052.005-.134.02-.265.02-.4 0-1.672-.357-3.26-.99-4.702-.01-.036-.028-.068-.047-.1-1.823-4.05-5.87-6.886-10.58-6.938-.023 0-.046-.007-.07-.007l-.01.003-.05-.002-.025.002h-.007c-.013 0-.025.002-.038.003-4.737.028-8.81 2.874-10.64 6.94-.02.033-.036.065-.048.1-.632 1.442-.99 3.03-.99 4.703 0 .122.016.24.02.36-.007.032-.02.06-.02.092 0 .054.015.103.03.152.094 1.815.587 3.524 1.415 5.03.012.03.03.053.048.08 2 3.575 5.81 6.003 10.183 6.03.013 0 .025.003.038.003h.034l.048-.002.012.002c.024 0 .047-.006.07-.007 4.35-.048 8.14-2.47 10.128-6.033.014-.024.032-.044.043-.07.84-1.526 1.335-3.258 1.42-5.098zM1.286 13h4.567c.057 1.427.242 2.77.533 4h-3.93c-.635-1.217-1.044-2.567-1.17-4zm.75-5h4.16c-.232 1.244-.364 2.586-.367 4H1.24c.006-1.414.29-2.763.795-4zm20.693 4h-4.563c-.003-1.414-.135-2.756-.367-4h4.134c.505 1.237.79 2.586.795 4zm-5.563 0h-4.682V8h4.29c.248 1.243.39 2.594.392 4zm-4.683-5V1.35c1.733.326 3.25 2.55 4.06 5.65h-4.06zm-1-5.648V7H7.45c.806-3.084 2.312-5.303 4.034-5.648zm0 6.648v4H6.83c.002-1.406.143-2.757.392-4h4.262zm-4.632 5h4.632v4H7.428c-.31-1.222-.513-2.575-.576-4zm4.632 5v4.743c-1.55-.31-2.923-2.135-3.77-4.743h3.77zm1 4.746V18h3.797c-.85 2.624-2.236 4.452-3.796 4.746zm0-5.746v-4h4.66c-.063 1.424-.265 2.777-.577 4h-4.083zm5.66-4h4.54c-.128 1.432-.537 2.783-1.17 4H17.61c.29-1.228.476-2.573.534-4zm3.322-6h-3.88c-.543-2.24-1.436-4.075-2.56-5.254 2.783.824 5.097 2.74 6.44 5.254zM8.976 1.738C7.85 2.915 6.954 4.756 6.41 7H2.5c1.35-2.524 3.678-4.445 6.474-5.262zM3.043 18h3.61c.552 1.834 1.352 3.343 2.323 4.358C6.524 21.64 4.43 20.078 3.043 18zm11.985 4.35c.967-1.016 1.764-2.522 2.315-4.35h3.583c-1.382 2.068-3.46 3.628-5.898 4.35z"/></svg>