<svg xmlns="http://www.w3.org/2000/svg" width="24" height="24" viewBox="0 0 24 24"><path d="M15.604 17.185c-.24-.13-.546-.042-.678.2-.402.74-.85 1.344-1.127 1.634-.055-.214-.097-.532-.102-.805.054-3.2-1.216-4.106-1.443-4.242-.063-.025-1.556-.627-2.25-.773-.017-.02-.048-.122-.012-.286.048-.22.185-.412.35-.49.132-.065.212-.056.328-.042.14.016.4.047.613-.162.25-.244.233-.61.182-1.19-.043-.504-.218-.883-.517-1.126-.467-.38-1.06-.308-1.494-.256-.107.013-.205.027-.288.027-.857 0-1.043.592-1.298 1.77-.033-.287-.064-.657-.084-.98-.014-.22-.17-.407-.386-.457-.215-.05-.438.047-.547.24l-.614 1.093c0 .003-.126.225-.767.452.006-.29.167-.878.39-1.387.11-.253-.007-.548-.26-.658-.252-.11-.547.005-.658.26-.31.71-.75 1.987-.218 2.56.143.153.473.38 1.075.17.61-.216.955-.47 1.15-.688.043.212.082.28.103.317.07.12.435.718.998.633.24-.037.55-.207.68-.807l.056-.263c.127-.598.248-1.164.38-1.256.116 0 .256-.015.407-.033.257-.03.607-.072.744.04.08.064.133.22.152.437l.02.256c-.16.007-.357.042-.58.148-.69.332-.99 1.128-.923 1.71.057.484.363.846.8.94.488.106 1.573.52 2.03.703.157.143.922.956.882 3.34.008.57.106 1.57.66 1.865.107.057.224.085.34.085.157 0 .318-.05.468-.147.498-.324 1.198-1.344 1.638-2.154.132-.24.042-.545-.202-.677z"/><path d="M21.948 5.78c0-3.025-2.46-5.486-5.485-5.486S10.98 2.754 10.98 5.78c0 .136.02.292.04.45-.083-.003-.165-.014-.25-.014-4.82 0-8.745 3.923-8.745 8.745s3.923 8.746 8.746 8.746c4.824 0 8.747-3.923 8.747-8.745 0-.768-.127-1.555-.35-2.342 1.345-2.378 2.78-5.28 2.78-6.84zm-5.485-4.486c2.474 0 4.485 2.012 4.485 4.485 0 1.327-1.37 4.09-2.733 6.488-.01.018-.022.035-.03.054-.622 1.09-1.24 2.1-1.723 2.862-1.555-2.45-4.484-7.463-4.484-9.406 0-2.473 2.012-4.484 4.485-4.484zm2.053 13.667c0 4.272-3.475 7.746-7.746 7.746S3.024 19.23 3.024 14.96 6.5 7.217 10.77 7.217c.162 0 .32.014.48.024 1.016 3.368 4.617 8.872 4.795 9.14.093.142.25.227.418.227s.325-.085.418-.226c.074-.11.733-1.118 1.55-2.492.054.36.086.72.086 1.073z"/><path d="M18.737 5.397c0-1.254-1.02-2.274-2.274-2.274s-2.273 1.02-2.273 2.274 1.02 2.274 2.273 2.274 2.274-1.02 2.274-2.273zm-3.548 0c0-.703.57-1.274 1.272-1.274.703 0 1.274.57 1.274 1.274s-.57 1.274-1.274 1.274c-.7 0-1.273-.57-1.273-1.273z"/></svg>