<svg xmlns="http://www.w3.org/2000/svg" width="24" height="24" viewBox="0 0 24 24"><path d="M20.187 23.317l-2.354-6c-.075-.19-.26-.317-.466-.317h-1.38c-.277 0-.5.224-.5.5s.223.5.5.5h1.04l1.96 5H4.985l1.96-5h1.04c.277 0 .5-.224.5-.5s-.222-.5-.5-.5h-1.38c-.206 0-.39.126-.465.317l-2.354 6c-.06.154-.04.328.052.464.094.138.248.22.414.22h15.47c.164 0 .32-.082.412-.22.093-.135.112-.31.053-.463zM14.534 6.384c0-1.405-1.143-2.548-2.548-2.548S9.438 4.98 9.438 6.384s1.143 2.548 2.548 2.548 2.548-1.143 2.548-2.548zm-4.096 0c0-.854.694-1.548 1.548-1.548.854 0 1.548.694 1.548 1.548 0 .854-.694 1.548-1.548 1.548-.854 0-1.548-.694-1.548-1.548z"/><path d="M11.986 20.677c.168 0 .325-.085.417-.226.263-.398 6.446-9.835 6.446-13.457C18.85 3.21 15.77.13 11.985.13S5.124 3.21 5.124 6.994c0 3.622 6.182 13.06 6.445 13.458.09.14.248.225.416.225zm0-19.546c3.233 0 5.863 2.63 5.863 5.864 0 2.815-4.46 10.05-5.864 12.26-1.404-2.21-5.863-9.443-5.863-12.26 0-3.233 2.63-5.863 5.863-5.863z"/></svg>