<svg xmlns="http://www.w3.org/2000/svg" width="24" height="24" viewBox="0 0 24 24"><path d="M20.278 3.624L16.863 1.58c-.093-.058-.203-.08-.31-.07l-4.564.503V.635c0-.276-.225-.5-.5-.5s-.5.224-.5.5v1.488l-6.87.757c-.274.03-.473.277-.442.552l.52 4.728c.015.13.082.252.185.335.09.07.2.11.312.11.018 0 .037 0 .055-.003l12.43-1.37c.107-.012.208-.058.286-.13L20.36 4.42c.116-.107.175-.262.158-.418-.015-.158-.105-.298-.24-.378zm-3.37 2.632L5.138 7.553l-.41-3.733 11.767-1.297 2.698 1.616-2.285 2.116zM18.333 8.525L5.89 9.76c-.108.01-.208.055-.288.127l-2.923 2.65c-.118.106-.178.26-.163.417s.103.297.236.38l3.393 2.08c.08.05.17.075.262.075.017 0 .033-.002.05-.004l12.446-1.235c.132-.012.253-.076.337-.18.085-.103.125-.234.11-.366l-.47-4.73c-.027-.276-.26-.473-.547-.45zm-11.808 5.95l-2.68-1.645 2.306-2.09 11.784-1.17.372 3.736-11.78 1.17zM11.488 16.176c-.276 0-.5.224-.5.5v6.785c0 .277.224.5.5.5s.5-.223.5-.5v-6.784c0-.277-.223-.5-.5-.5z"/></svg>