<svg xmlns="http://www.w3.org/2000/svg" width="24" height="24" viewBox="0 0 24 24"><path d="M11.986.27C5.49.27.208 5.554.208 12.048s5.284 11.778 11.778 11.778c6.494 0 11.778-5.283 11.778-11.778S18.48.27 11.986.27zm0 22.556c-5.943 0-10.778-4.835-10.778-10.778 0-5.943 4.835-10.778 10.778-10.778s10.778 4.835 10.778 10.778c0 5.943-4.834 10.778-10.778 10.778z"/><path d="M21.113 7.937c-.275.015-.487.25-.472.526.024.425-.447.922-1.325 1.397-1.34.726-1.132 1.317-.63 2.747.38 1.08-1.71 4.583-2.64 5.318-.12-.253-.227-.883-.236-1.438 0-1.96 0-4.918-2.605-5.91-.73-.28-1.725-.64-2.312-.767-.04-.008-.143-.03-.17-.268-.046-.387.184-.935.598-1.133.232-.11.387-.092.55-.074.17.02.458.053.69-.17.27-.262.266-.652.193-1.48-.055-.637-.27-1.113-.64-1.413-.58-.47-1.347-.377-1.906-.31-.154.02-.297.037-.417.037-1.112 0-1.29.833-1.678 2.657l-.073.357c-.005.015-.008.028-.01.04-.034-.04-.065-.08-.086-.116-.073-.192-.176-1.205-.227-2.03-.014-.222-.17-.407-.386-.457-.21-.047-.436.048-.546.24L5.99 7.078c-.024.045-.03.047-.04.097-.002.004-.168.36-1.16.71-.125.045-.196.052-.213.063-.112-.266.133-1.314.522-2.208.11-.253-.007-.548-.26-.658-.254-.11-.548.005-.658.26-.327.75-1.013 2.57-.332 3.302.202.217.59.426 1.275.185 1.224-.434 1.615-.965 1.74-1.25.058.42.124.698.197.826.084.148.535.882 1.178.778.39-.06.653-.384.776-.96l.076-.357c.368-1.727.443-1.865.7-1.865.154 0 .337-.02.536-.044.425-.052.907-.11 1.155.093.15.124.244.367.275.725.022.256.032.432.036.552-.228-.01-.538.007-.904.183-.87.416-1.246 1.42-1.16 2.15.07.593.425 1.015.952 1.13.41.088 1.18.345 2.168.722 1.812.69 1.96 2.663 1.96 4.984.01.596.106 2.02.806 2.392.086.046.22.096.385.096.154 0 .336-.043.535-.173.927-.603 3.73-4.727 3.094-6.533-.43-1.217-.43-1.217.162-1.537 1.273-.69 1.895-1.474 1.848-2.33-.015-.276-.216-.496-.527-.473zM6.437 13.394c-.337-.128-.8-.304-.928-.432-.363-.363-.636-.526-.9-.683-.173-.105-.362-.218-.61-.415-.216-.17-.476-.21-.712-.107-.19.082-.766.33-1.01 3.1-.024.275.18.518.454.542.28.024.518-.18.542-.454.073-.826.23-1.68.376-2.093.167.117.31.203.447.285.24.144.43.257.705.532.28.28.765.465 1.278.66.22.084.547.21.75.315l-.12.104c-.72.612-1.11 1.032-2.067 3.84-.09.26.05.544.312.634.053.018.108.026.16.026.21 0 .403-.13.474-.34.91-2.67 1.215-2.93 1.768-3.4.085-.07.176-.148.273-.235.326-.293.35-.59.314-.785-.102-.56-.753-.808-1.507-1.096z"/></svg>