<svg xmlns="http://www.w3.org/2000/svg" width="24" height="24" viewBox="0 0 24 24"><path d="M23.58 2.13l-6.11-1.025c-.1-.016-.2-.002-.293.04l-5.69 2.613-4.766-2.19c-.12-.055-.26-.06-.384-.013L.41 3.797c-.194.074-.322.26-.322.468v15.23c0 .163.08.317.216.41.085.06.184.09.284.09.06 0 .12-.012.177-.033l5.73-2.17 4.558 2.05c.132.06.284.06.416-.002l6.11-2.837 5.807 1.336c.15.035.305-.003.424-.097.12-.096.19-.24.19-.392V2.624c-.002-.244-.18-.453-.42-.493zM23 17.223l-5.36-1.233c-.108-.025-.223-.013-.323.034l-6.06 2.812-4.537-2.042c-.065-.03-.135-.044-.205-.044-.06 0-.12.01-.177.032l-5.25 1.988V4.61l5.407-2.046 4.784 2.198c.132.062.285.062.417 0l5.76-2.646 5.543.93v14.177z"/><path d="M17.466 6.19l.358.856-.856.358c-.255.106-.375.4-.27.654.08.192.267.307.462.307.064 0 .13-.012.192-.04l.856-.357.358.856c.08.192.266.307.46.307.065 0 .13-.01.193-.038.254-.106.374-.4.268-.654l-.357-.855.856-.358c.255-.106.375-.4.27-.654-.107-.254-.4-.374-.654-.268l-.857.358-.358-.856c-.106-.255-.4-.374-.653-.27-.255.108-.375.4-.268.656zM4.786 11.995c-.246-.126-.547-.028-.673.216-.282.55-.45.926-.45.926-.11.252.002.548.255.66.066.03.135.043.203.043.192 0 .375-.11.458-.298.002-.006.16-.36.424-.874.126-.245.03-.547-.216-.673zM11.5 11.092c-.253-.41-.508-.82-.763-1.202-.154-.23-.463-.292-.694-.138-.23.153-.292.464-.138.694.25.373.498.774.744 1.172l.167.272c.095.153.258.236.425.236.09 0 .18-.024.263-.075.235-.145.307-.453.16-.687l-.166-.27zM7.494 7.972c-.476.21-.96.617-1.483 1.243-.177.212-.148.527.064.704.094.077.207.115.32.115.144 0 .286-.06.384-.18.41-.49.797-.826 1.12-.97.253-.11.367-.405.255-.658-.11-.253-.41-.368-.66-.255zM14.617 13.177c-.357.355-.68.544-.926.544-.026 0-.057-.004-.09-.014-.263-.078-.54.077-.618.342-.077.265.076.542.342.62.118.033.237.05.36.053.53 0 1.08-.28 1.638-.834.196-.195.196-.512.002-.707-.195-.197-.512-.197-.707-.003zM17.495 9.293c-.252-.11-.55.01-.655.265-.003.007-.156.366-.41.875-.124.247-.024.547.223.67.07.037.148.054.224.054.183 0 .36-.1.447-.276.273-.546.437-.93.437-.93.108-.256-.01-.55-.265-.657z"/></svg>