<svg xmlns="http://www.w3.org/2000/svg" width="24" height="24" viewBox="0 0 24 24"><path d="M11.99 21.027c.17 0 .326-.085.418-.226.266-.402 6.5-9.92 6.5-13.573 0-3.815-3.103-6.92-6.918-6.92s-6.92 3.105-6.92 6.92c0 3.653 6.237 13.17 6.502 13.574.094.142.25.227.42.227zm0-19.718c3.265 0 5.92 2.654 5.92 5.918 0 2.844-4.506 10.154-5.92 12.375-1.412-2.222-5.918-9.53-5.918-12.375 0-3.264 2.656-5.92 5.92-5.92z"/><path d="M14.473 6.527c0-1.368-1.113-2.48-2.48-2.48S9.51 5.158 9.51 6.526s1.113 2.48 2.48 2.48 2.483-1.112 2.483-2.48zm-3.963 0c0-.817.665-1.48 1.48-1.48s1.482.664 1.482 1.48-.665 1.48-1.48 1.48-1.482-.663-1.482-1.48zM15.06 18.857c-.266-.057-.533.122-.586.395-.054.27.123.533.395.586 1.955.384 2.684 1.03 2.684 1.347 0 .64-2.22 1.61-5.562 1.61s-5.562-.97-5.562-1.61c0-.32.736-.97 2.71-1.352.27-.053.448-.315.396-.586-.053-.27-.312-.448-.586-.396-2.237.435-3.52 1.285-3.52 2.334 0 1.713 3.3 2.61 6.56 2.61 3.262 0 6.563-.897 6.563-2.61 0-1.044-1.274-1.892-3.493-2.327z"/></svg>