<svg xmlns="http://www.w3.org/2000/svg" width="24" height="24" viewBox="0 0 24 24"><path d="M11.986.188c-4.34 0-7.87 3.53-7.87 7.87 0 4.173 7.148 15.084 7.453 15.546.09.14.248.226.416.226s.325-.085.417-.226c.305-.462 7.453-11.374 7.453-15.545 0-4.34-3.53-7.872-7.87-7.872zm0 22.22c-1.55-2.43-6.87-11.02-6.87-14.35 0-3.788 3.082-6.87 6.87-6.87s6.87 3.082 6.87 6.87c0 3.328-5.32 11.918-6.87 14.35z"/><path d="M11.986 3.957c-1.678 0-3.044 1.365-3.044 3.043s1.366 3.044 3.044 3.044c1.68 0 3.044-1.366 3.044-3.044s-1.365-3.043-3.044-3.043zm0 5.088c-1.127 0-2.044-.917-2.044-2.044s.917-2.042 2.044-2.042S14.03 5.875 14.03 7s-.917 2.045-2.044 2.045z"/></svg>