<svg xmlns="http://www.w3.org/2000/svg" width="24" height="24" viewBox="0 0 24 24"><path d="M21.038 3v2c0 .276.224.5.5.5s.5-.224.5-.5V2.5c0-.276-.224-.5-.5-.5h-19c-.276 0-.5.224-.5.5V5c0 .276.224.5.5.5s.5-.224.5-.5V3h1.537L3.183 17.41c-.014.14.033.28.127.384s.23.164.37.164H5.5l-.36 5.538c-.01.138.04.273.134.374s.227.158.365.158l14.878-.02c.138 0 .27-.058.364-.16.095-.1.143-.235.134-.374L19.618 3h1.42zM4.23 16.958L5.58 3h.895l-.91 13.958H4.232zm2.116 3.407c1.478.197 2.715 1.31 2.958 2.658l-3.132.004.174-2.662zm10.503 2.648c.11-.654.444-1.268.987-1.763.546-.496 1.244-.806 1.963-.905l.182 2.664-3.133.003zm2.882-3.66c-.942.115-1.857.51-2.568 1.158-.757.69-1.2 1.567-1.317 2.504l-5.54.007c-.244-1.886-1.88-3.418-3.897-3.65L7.477 3h11.138l1.117 16.352z"/><path d="M8.644 12.016h.753c.207 1.055 1.053 1.85 2.065 1.85 1.2 0 1.712-1.083 1.977-1.85h2.287c-.122.437-.368.924-.666 1.267-.18.208-.16.523.05.705.095.083.21.123.328.123.14 0 .278-.057.377-.17.465-.535.81-1.267.936-1.924h.763c.276 0 .5-.224.5-.5s-.224-.5-.5-.5h-.752c-.207-1.055-1.053-1.85-2.065-1.85-1.21 0-1.746 1.155-1.982 1.85h-2.277c.096-.286.264-.535.498-.688.23-.15.296-.46.145-.692-.152-.23-.462-.296-.693-.145-.51.334-.857.895-.982 1.525h-.76c-.277 0-.5.224-.5.5s.222.5.5.5zm2.818.85c-.47 0-.867-.354-1.033-.85h1.93c-.296.68-.58.85-.898.85zm3.232-2.7c.47 0 .868.354 1.033.85H13.79c.326-.737.662-.85.904-.85zM20.93 0H3.136C1.37 0 .038 1.34.038 3.117V4.91c0 1.64 1.2 3.015 2.793 3.195.273.023.523-.167.554-.44.03-.275-.167-.523-.44-.554-1.105-.124-1.906-1.05-1.906-2.2V3.116C1.038 1.89 1.918 1 3.135 1H20.93c1.222 0 2.108.89 2.108 2.117V4.91c0 1.174-.81 2.102-1.923 2.205-.275.026-.478.27-.452.544.024.258.242.453.497.453.016 0 .03 0 .047-.002 1.614-.15 2.83-1.526 2.83-3.2V3.116C24.038 1.34 22.703 0 20.932 0z"/></svg>