<svg xmlns="http://www.w3.org/2000/svg" width="24" height="24" viewBox="0 0 24 24"><path d="M12 .2C5.494.2.2 5.493.2 12c0 6.507 5.293 11.8 11.8 11.8 6.507 0 11.8-5.293 11.8-11.8C23.8 5.493 18.507.2 12 .2zm0 22.6C6.045 22.8 1.2 17.955 1.2 12S6.045 1.2 12 1.2 22.8 6.045 22.8 12 17.955 22.8 12 22.8z"/><path d="M16.758 15.27c-.235-.14-.544-.063-.687.172-.847 1.414-2.107 2.258-3.37 2.258-1.772 0-3.28-1.546-3.852-3.7H13.3c.276 0 .5-.224.5-.5s-.224-.5-.5-.5H8.658c-.035-.294-.058-.593-.058-.9 0-.378.027-.745.077-1.1H13.3c.276 0 .5-.224.5-.5s-.224-.5-.5-.5H8.89c.598-2.07 2.058-3.5 3.81-3.5 1.214 0 2.397.803 3.165 2.148.138.24.444.32.683.186.24-.137.323-.442.187-.682-.95-1.66-2.458-2.652-4.035-2.652-2.29 0-4.178 1.86-4.842 4.5H6.5c-.276 0-.5.223-.5.5s.224.5.5.5h1.174c-.045.358-.074.723-.074 1.1 0 .306.022.605.053.9H6.5c-.276 0-.5.223-.5.5s.224.5.5.5h1.318c.632 2.716 2.58 4.7 4.883 4.7 1.618 0 3.198-1.025 4.23-2.742.14-.238.064-.544-.172-.687z"/></svg>