<svg xmlns="http://www.w3.org/2000/svg" width="24" height="24" viewBox="0 0 24 24"><path d="M13.5 10c2.48 0 4.5-2.02 4.5-4.5S15.98 1 13.5 1 9 3.018 9 5.5s2.02 4.5 4.5 4.5zm0-8C15.43 2 17 3.57 17 5.5S15.43 9 13.5 9 10 7.43 10 5.5 11.57 2 13.5 2z"/><path d="M23.523 11.453c-.247-.12-.547-.024-.67.224-.125.247-.396.5-.71.655.18-.407.245-.836.137-1.27-.203-.71-.748-1.27-1.39-1.424-.432-.107-.838.004-1.11.297-.26.28-.5.84-.155 1.923.18.54.433.902.7 1.144-.205.166-.427.315-.65.446-.458-1.356-1.335-2.522-2.598-3.365-.23-.152-.54-.09-.693.14-.153.228-.09.54.14.692 1.16.775 1.946 1.87 2.303 3.15-.03.105-.033.218.012.327.016.04.053.063.08.097.122.615.16 1.263.086 1.94-.097.68-.287 1.317-.552 1.846-.042.085-.06.18-.05.273l.397 3.937c-.04.157-.577.513-1 .513h-.7c-.24 0-.5-.19-.507-.582l-.2-1.2c-.025-.16-.127-.296-.27-.367-.147-.07-.316-.066-.46.01-1.128.607-3.957.718-5.1.015-.147-.092-.332-.1-.488-.02-.155.077-.258.23-.272.404L9.7 22.5c0 .17-.033.29-.097.353-.183.18-.752.16-1.21.154L8 23c-.24 0-.5-.19-.503-.442l.3-2.6c.02-.158-.04-.315-.156-.424s-.278-.156-.432-.125c-1.404.263-2.942-.272-3.823-1.33-.066-.08-.155-.136-.255-.163l-1.507-.402c-.27-.067-.27-.067-.375-1.04-.036-.33-.08-.74-.152-1.148.015-.025.098-.097.277-.156l1.1-.4c.14-.05.25-.16.3-.3.444-1.244 1.63-2.216 3.022-2.478.154-.03.286-.128.355-.27s.07-.305 0-.445l-1.232-2.46c.097-.01.362.01.83.23 1.05.498 2.203 1.558 2.37 2.182.045.172.18.307.352.353.17.045.357-.003.483-.13.355-.354.814-.63 1.3-.92l.003-.003c.237-.142.31-.448.17-.685-.144-.237-.453-.313-.69-.17-.324.195-.657.395-.97.627C7.943 9.032 5.9 7.68 4.79 7.827 4.24 7.9 3.9 8.31 3.9 8.9c0 .078.018.154.053.224l1.022 2.044c-1.39.445-2.518 1.447-3.06 2.74l-.872.317c-.59.196-.943.598-.938 1.145.07.492.113.89.147 1.21.115 1.076.178 1.668 1.12 1.903l1.35.36c.99 1.104 2.508 1.707 4.01 1.627L6.5 22.5c0 .827.673 1.5 1.5 1.5l.37.006c.126.003.256.007.388.007.568 0 1.15-.06 1.544-.444.265-.26.4-.62.397-1.028l.04-.497c1.384.46 3.442.392 4.775-.043l.085.498c0 .827.673 1.5 1.5 1.5h.7c.806 0 2-.63 1.997-1.55l-.385-3.86c.278-.595.48-1.29.585-2.035.08-.73.052-1.432-.064-2.102.478-.25.97-.59 1.382-.992.04.006.076.01.11.012.967.084 1.963-.63 2.32-1.348.125-.247.026-.548-.222-.67zm-2.496.833c-.188-.154-.34-.4-.45-.738-.195-.612-.113-.88-.064-.933.01-.01.033-.017.063-.017.023 0 .052.003.082.01.242.06.547.328.656.712.076.3-.048.637-.287.966z"/><path d="M5.04 14.15c-.09.09-.14.22-.14.35s.05.26.15.35c.09.1.22.15.35.15s.26-.05.36-.15c.09-.1.14-.22.14-.35s-.05-.26-.15-.36c-.19-.18-.52-.18-.71.01zM13.4 6.7c-.156 0-.534-.14-.748-.354-.194-.194-.512-.195-.707 0-.195.196-.195.513 0 .708.272.27.682.49 1.063.59.024.254.23.456.492.456.276 0 .5-.224.5-.5v-.03c.52-.224.9-.72.9-1.27 0-.84-.76-1.143-1.314-1.364-.4-.16-.686-.286-.686-.436 0-.16.096-.28.247-.346.09.09.215.146.353.146.094 0 .176-.033.25-.077l.004.002c.124.247.425.343.67.222.248-.125.347-.425.223-.672-.125-.25-.37-.437-.662-.553-.04-.238-.236-.422-.485-.422-.22 0-.402.145-.468.344-.665.146-1.132.678-1.132 1.356 0 .84.76 1.143 1.315 1.365.4.16.685.285.685.435 0 .198-.252.4-.5.4z"/></svg>