<svg xmlns="http://www.w3.org/2000/svg" width="24" height="24" viewBox="0 0 24 24"><path d="M23.84 11.607c0-2.56-2.083-4.644-4.644-4.644-.11 0-.214.025-.323.033.033-.237.053-.48.053-.715 0-2.56-2.083-4.643-4.644-4.643S9.638 3.72 9.638 6.28c0 .792.217 1.526.567 2.178l-4.698-.784h-.003l-2.896-.485c-.13-.022-.265.01-.373.085-.108.077-.18.194-.202.325l-.484 2.896h-.002v.003l-.83 4.966v.002l-.484 2.897c-.045.272.138.53.41.575l17.852 2.982c.027.005.056.007.083.007.238 0 .45-.173.49-.417l.91-5.34c2.187-.377 3.86-2.274 3.86-4.566zm-9.558-8.97c2.01 0 3.644 1.635 3.644 3.645 0 .306-.047.627-.114.917-1.325.417-2.4 1.396-2.916 2.674-.2.03-.41.052-.614.052-2.01 0-3.644-1.635-3.644-3.644s1.635-3.644 3.644-3.644zm4.39 15.266c-1.608-.06-3.026.926-3.505 2.448L4.152 18.51c.015-.734-.192-1.452-.627-2.06-.435-.61-1.046-1.04-1.746-1.264l.68-4.07c.02 0 .044.005.067.005 1.483 0 2.806-.97 3.262-2.385l5.273.88c.836.808 1.968 1.31 3.22 1.31.112 0 .226-.01.34-.018-.035.23-.07.46-.07.7 0 2.478 1.955 4.49 4.402 4.62l-.284 1.676zM4.794 8.57c-.35.895-1.21 1.506-2.17 1.547l.31-1.858 1.86.31zm-3.18 7.607c.437.17.817.462 1.097.853.28.39.432.846.45 1.315l-1.858-.31.31-1.858zm16.554 4.676l-2.016-.337c.367-.99 1.282-1.622 2.35-1.63l-.335 1.967zm1.026-5.602c-2.01 0-3.644-1.634-3.644-3.643 0-2.01 1.635-3.644 3.644-3.644s3.644 1.634 3.644 3.644c0 2.01-1.635 3.644-3.644 3.644z"/><path d="M11.514 11.55l.107-.567c.052-.27-.126-.533-.397-.584-.27-.05-.533.126-.584.397l-.108.567c-.917.033-1.71.627-1.87 1.484-.19 1.013.624 1.636 1.216 1.985l-.33 1.742c-.305-.168-.62-.414-.83-.68-.17-.217-.484-.254-.702-.084-.217.172-.254.486-.083.703.363.46.903.863 1.424 1.084l-.107.567c-.05.27.127.533.398.584.03.006.062.01.093.01.237 0 .447-.168.492-.408l.107-.57c.355-.013.7-.102 1.002-.28.464-.272.772-.7.866-1.202.194-1.027-.657-1.667-1.215-1.99l.326-1.73c.163.113.294.26.365.43.106.256.398.38.654.27.254-.105.375-.397.27-.653-.198-.476-.6-.86-1.096-1.076zm-1.87 1.484c.06-.322.34-.55.692-.633l-.258 1.37c-.428-.32-.47-.542-.434-.736zm1.582 3.08c-.04.215-.18.4-.39.526-.092.054-.197.08-.302.106l.26-1.375c.438.33.464.574.432.743zM19.497 11.137c-.72-.226-.817-.402-.817-.544 0-.282.306-.52.668-.52.25 0 .48.11.596.287.15.232.463.295.69.145.232-.15.297-.46.147-.692-.21-.322-.548-.552-.932-.663v-.136c0-.276-.224-.5-.5-.5s-.5.224-.5.5v.136c-.675.195-1.168.765-1.168 1.443 0 1.02 1.063 1.355 1.527 1.5.81.237.81.467.81.542 0 .282-.307.52-.67.52-.276 0-.724-.19-.995-.428-.21-.182-.524-.16-.705.05-.182.207-.16.522.05.704.318.28.746.492 1.15.598v.136c0 .276.225.5.5.5s.5-.224.5-.5v-.136c.676-.195 1.17-.765 1.17-1.443 0-1.054-1.15-1.39-1.52-1.498zM13.86 8.71v.048c0 .276.223.5.5.5s.5-.224.5-.5V8.71c.674-.194 1.167-.764 1.167-1.443 0-1.055-1.15-1.39-1.52-1.498-.72-.226-.815-.402-.815-.545 0-.282.306-.52.667-.52.25 0 .478.11.595.287.153.232.464.294.692.145.23-.15.296-.46.145-.692-.21-.322-.548-.552-.933-.663v-.136c0-.276-.225-.5-.5-.5s-.5.224-.5.5v.136c-.675.195-1.168.765-1.168 1.443 0 1.023 1.063 1.356 1.526 1.5.81.237.81.466.81.542 0 .283-.307.52-.67.52-.275 0-.722-.19-.994-.428-.21-.182-.524-.16-.705.048-.183.208-.16.524.048.705.32.278.746.49 1.15.598z"/></svg>