<svg xmlns="http://www.w3.org/2000/svg" width="24" height="24" viewBox="0 0 24 24"><path d="M21.646 12.99c.243 0 .456-.178.493-.425l.405-2.69V9.87l1.024-6.766c.02-.13-.014-.265-.093-.372-.08-.106-.196-.178-.328-.198L7.46.166c-.13-.018-.266.012-.372.092-.107.078-.178.196-.198.327L6.4 3.83c-.04.274.147.53.42.57.27.038.528-.147.57-.42l.036-.247c.64-.007 1.26-.21 1.784-.598.524-.387.897-.92 1.093-1.53l9.74 1.473c-.004.655.187 1.295.566 1.808.38.517.916.863 1.523 1.02l-.51 3.373c-1.374.012-2.607.923-3.028 2.243l-1.504-.227c-.262-.038-.526.146-.567.42-.042.273.146.528.42.57l4.627.698c.025.004.05.006.076.006zM8.616 2.33c-.307.228-.665.354-1.036.39l.225-1.49 1.49.224c-.142.345-.37.65-.678.876zm12.798 1.963c-.227-.307-.35-.675-.37-1.064l1.46.22-.22 1.47c-.346-.112-.648-.326-.87-.627zm-1.824 7.38c.31-.78 1.046-1.32 1.882-1.39l-.248 1.638-1.634-.246zM20.534 13.5c-2.004 0-3.516.82-3.516 1.905v5.29c0 1.086 1.512 1.904 3.516 1.904s3.515-.82 3.515-1.905v-5.29c0-1.086-1.512-1.905-3.516-1.905zm2.515 5.43c0 .32-.956.905-2.516.905s-2.516-.586-2.516-.904v-.407c.63.343 1.51.55 2.516.55 1.005 0 1.886-.207 2.515-.55v.408zm0-1.762c0 .32-.956.905-2.516.905s-2.516-.586-2.516-.905v-.408c.63.343 1.51.55 2.516.55 1.005 0 1.886-.207 2.515-.55v.408zM20.533 14.5c1.56 0 2.515.586 2.515.905 0 .318-.956.904-2.516.904s-2.516-.587-2.516-.905c0-.32.956-.905 2.516-.905zm0 7.1c-1.56 0-2.516-.587-2.516-.905v-.41c.63.344 1.51.55 2.516.55 1.005 0 1.886-.206 2.515-.55v.41c0 .318-.956.904-2.516.904zM4.596 4.884c-2.004 0-3.515.82-3.515 1.905v14.137c0 1.086 1.512 1.904 3.516 1.904s3.515-.817 3.515-1.903V6.79c0-1.087-1.51-1.906-3.514-1.906zm2.515 14.28c0 .317-.954.903-2.514.903s-2.515-.586-2.515-.904v-.408c.63.343 1.51.55 2.516.55s1.886-.208 2.515-.55v.408zm0-1.765c0 .318-.954.904-2.514.904S2.08 17.718 2.08 17.4v-.408c.63.343 1.51.55 2.516.55s1.886-.207 2.515-.55v.407zm0-1.764c0 .318-.954.904-2.514.904s-2.515-.586-2.515-.904v-.408c.63.343 1.51.55 2.516.55s1.886-.207 2.515-.55v.408zm0-1.763c0 .318-.954.904-2.514.904s-2.515-.586-2.515-.904v-.41c.63.344 1.51.55 2.516.55s1.886-.207 2.515-.55v.41zm0-1.764c0 .318-.954.903-2.514.903s-2.515-.585-2.515-.904v-.41c.63.344 1.51.55 2.516.55s1.886-.207 2.515-.55v.41zm0-1.765c0 .32-.954.905-2.514.905s-2.515-.586-2.515-.905v-.408c.63.343 1.51.55 2.516.55s1.886-.208 2.515-.55v.408zm0-1.763c0 .32-.954.904-2.514.904S2.08 8.9 2.08 8.582v-.438c.63.343 1.51.55 2.516.55s1.886-.208 2.515-.55v.438zM4.597 5.884c1.56 0 2.515.586 2.515.905s-.954.904-2.514.904S2.08 7.108 2.08 6.79s.956-.906 2.516-.906zm0 15.947c-1.56 0-2.515-.585-2.515-.903v-.408c.63.342 1.51.548 2.516.548s1.886-.206 2.515-.55v.41c0 .317-.954.903-2.514.903zM12.54 11.184c-2.003 0-3.514.82-3.514 1.905v8.846c0 1.086 1.51 1.905 3.515 1.905s3.517-.818 3.517-1.904V13.09c0-1.087-1.512-1.906-3.516-1.906zm2.516 8.99c0 .317-.955.903-2.516.903-1.56 0-2.515-.586-2.515-.904v-.408c.63.342 1.51.55 2.515.55 1.006 0 1.887-.207 2.516-.55v.408zm0-1.765c0 .317-.955.903-2.516.903-1.56 0-2.515-.586-2.515-.904V18c.63.343 1.51.55 2.515.55 1.006 0 1.887-.206 2.516-.55v.41zm0-1.765c0 .318-.955.904-2.516.904-1.56 0-2.515-.587-2.515-.905v-.408c.63.343 1.51.55 2.515.55 1.006 0 1.887-.208 2.516-.55v.408zm0-1.763c0 .32-.955.905-2.516.905-1.56 0-2.515-.586-2.515-.905v-.438c.63.343 1.51.55 2.515.55 1.006 0 1.886-.207 2.515-.55v.438zm-2.515-2.698c1.56 0 2.516.586 2.516.905 0 .317-.955.903-2.515.903s-2.514-.586-2.514-.904c0-.32.954-.906 2.515-.906zm0 10.657c-1.56 0-2.515-.585-2.515-.904v-.407c.63.34 1.51.548 2.515.548 1.006 0 1.887-.206 2.516-.55v.41c0 .317-.955.903-2.516.903z"/><path d="M15.362 4.12l.027-.197c.037-.273-.153-.526-.427-.564-.267-.037-.525.15-.564.425l-.03.198c-.29.034-.566.125-.806.282-.4.262-.653.654-.715 1.103-.154 1.096.954 1.62 1.436 1.847.91.41.87.7.856.798-.022.16-.12.303-.273.404-.175.115-.397.162-.626.13-.33-.047-.806-.335-1.087-.657-.182-.21-.498-.23-.705-.048-.208.182-.23.498-.048.706.32.365.775.676 1.216.85l-.028.198c-.038.273.152.526.426.564.023.003.047.005.07.005.245 0 .46-.18.494-.43l.03-.21c.287-.035.566-.115.805-.272.4-.262.653-.654.715-1.103.158-1.13-1.042-1.67-1.428-1.844-.806-.38-.892-.61-.865-.802.02-.16.118-.303.272-.404.175-.115.395-.16.625-.13.303.043.56.216.67.452.118.25.417.357.666.24.25-.12.357-.417.24-.667-.185-.392-.532-.702-.95-.876z"/></svg>