<svg xmlns="http://www.w3.org/2000/svg" width="24" height="24" viewBox="0 0 24 24"><path d="M11.562 9.12c-.345.638-.56 1.355-.56 2.13 0 2.48 2.02 4.5 4.502 4.5s4.5-2.02 4.5-4.5c0-2.112-1.465-3.875-3.43-4.36.333-.648.52-1.393.52-2.135 0-2.482-2.02-4.5-4.502-4.5-2.482 0-4.5 2.02-4.5 4.5 0 2.1 1.473 3.882 3.47 4.366zm7.443 2.13c0 1.93-1.57 3.5-3.5 3.5s-3.502-1.57-3.502-3.5 1.57-3.502 3.5-3.502 3.502 1.57 3.502 3.5zm-6.412-9.996c1.93 0 3.5 1.57 3.5 3.5 0 .714-.22 1.423-.6 1.995-1.305.002-2.47.572-3.292 1.466-1.756-.218-3.108-1.69-3.108-3.46 0-1.932 1.57-3.502 3.5-3.502zM23.125 17.672c-.5-.357-1.136-.4-1.743-.124l-3.9 1.78c-.203-.236-.48-.43-.85-.538l-5.53-1.622c-.922-.27-3.466-.422-6.064-.074V16.5c0-.276-.224-.5-.5-.5h-4c-.276 0-.5.224-.5.5v7c0 .276.224.5.5.5h4c.276 0 .5-.224.5-.5v-1.06l.02-.005c.667-.183 1.67-.456 2.16-.24 2.66 1.19 5.216 1.58 7.1 1.58 1.25 0 2.203-.17 2.694-.396l5.852-2.67c.586-.266.956-.768 1.015-1.376.06-.64-.235-1.292-.755-1.662zM4.038 23h-3v-6h3v6zm18.41-3.2l-5.85 2.67c-.804.365-4.568.782-8.972-1.187-.743-.333-1.738-.108-2.59.12v-3.3c2.56-.36 5.054-.19 5.782.024l5.53 1.622c.25.072.39.214.465.375.005.016.004.033.01.05.004.005.01.01.013.015.053.16.05.333.007.485-.057.193-.175.358-.324.453-.165.104-.362.12-.588.056l-5.81-1.705c-.266-.077-.543.073-.62.338s.073.543.338.62l5.81 1.705c.18.053.356.08.53.08.313 0 .612-.085.873-.25.356-.226.622-.587.748-1.017.068-.23.088-.47.066-.707l3.93-1.793c.285-.132.537-.123.748.028.226.16.364.47.338.752-.024.255-.17.443-.433.564z"/><path d="M14.98 8.508v.16c-.707.197-1.226.79-1.226 1.495 0 1.053 1.104 1.4 1.584 1.55.864.252.864.506.864.59 0 .31-.33.57-.724.57-.295 0-.77-.205-1.06-.456-.208-.18-.524-.16-.705.05-.182.207-.16.523.05.705.336.293.79.517 1.215.626v.16c0 .276.224.5.5.5s.5-.224.5-.5v-.16c.706-.197 1.224-.788 1.224-1.495 0-1.087-1.19-1.436-1.574-1.547-.77-.24-.874-.427-.874-.593 0-.314.325-.57.725-.57.27 0 .517.12.644.313.15.23.463.293.69.145.232-.15.296-.46.145-.69-.222-.34-.577-.58-.98-.692v-.16c0-.276-.225-.5-.5-.5s-.5.224-.5.5zM12.138 7.007v.085c0 .276.224.5.5.5s.5-.224.5-.5v-.084c.608-.192 1.05-.714 1.05-1.335 0-.985-1.062-1.295-1.4-1.395-.7-.22-.7-.374-.7-.44 0-.226.252-.417.548-.417h.002c.205 0 .398.094.492.237.153.232.463.295.692.145.23-.15.296-.46.146-.692-.19-.29-.49-.495-.83-.603V2.42c0-.276-.224-.5-.5-.5s-.5.224-.5.5v.083c-.608.19-1.05.714-1.05 1.335 0 .956.98 1.264 1.41 1.397.314.092.69.243.69.438 0 .226-.252.417-.55.417-.208 0-.596-.143-.86-.373-.208-.18-.524-.16-.706.05-.182.207-.16.523.048.704.283.247.658.435 1.018.537z"/></svg>