<svg xmlns="http://www.w3.org/2000/svg" width="24" height="24" viewBox="0 0 24 24"><path d="M23.95 23.344l-.984-3c-.068-.206-.26-.344-.475-.344h-1.527l-.87-2.655c-.068-.207-.26-.345-.476-.345h-1.683l-.87-2.655c-.068-.207-.26-.345-.476-.345h-1.554l-1.106-2.72c-.104-.257-.397-.38-.65-.276-.257.104-.38.396-.275.65l.95 2.346H7.49c-.216 0-.408.14-.475.344L6.143 17h-1.53c-.216 0-.408.14-.475.344L3.268 20H1.582c-.216 0-.408.14-.475.344l-.984 3c-.05.152-.024.32.07.45.095.13.245.206.406.206h5.164c.145 0 .276-.07.37-.177.094.107.225.177.37.177h5.164c.145 0 .276-.07.37-.177.094.107.225.177.37.177h5.164c.144 0 .275-.07.37-.177.094.107.225.177.37.177h5.164c.16 0 .31-.077.405-.207.095-.13.12-.297.07-.45zM19.91 20h-3.782l.656-2h2.472l.655 2zm-9.227 0h-.46l.657-2h2.471l.657 2h-3.325zm-1.528 0L8.5 18h1.327l-.656 2h-.015zm2.875-3l-.656-2h1.328l-.656 2h-.016zm3.03 3l-.657-2h1.33l-.657 2h-.017zm-.363-5h1.528l.655 2H13.097l.656-2h.944zM7.85 15h2.471l.657 2H7.193l.656-2zm-2.874 3H7.446l.656 2H4.32l.656-2zM1.29 23l.656-2h2.472l.656 2H1.29zm4.844.024L5.47 21h1.328l-.664 2.024zM7.194 23l.656-2h2.471l.657 2H7.194zm4.844.023L11.374 21h1.328l-.664 2.023zm1.06-.023l.656-2h2.471l.655 2h-3.782zm4.844.024L17.278 21h1.328l-.664 2.024zm1.06-.024l.656-2H22.128l.656 2h-3.782zM13.56 6.995c.792.092 2.217.404 2.664.85.446.447.76 1.873.85 2.667.03.252.244.442.498.442s.468-.19.497-.442c.09-.794.403-2.22.85-2.666.446-.446 1.87-.76 2.665-.85.252-.03.442-.244.442-.498s-.19-.468-.442-.497c-.793-.09-2.218-.402-2.665-.85-.446-.446-.76-1.872-.85-2.666-.03-.252-.244-.442-.498-.442s-.468.19-.497.442c-.092.794-.404 2.22-.85 2.666-.446.446-1.872.758-2.666.85-.253.03-.443.244-.443.498s.19.468.442.497zm3.37-1.137c.27-.268.48-.673.642-1.108.163.435.373.84.64 1.108s.674.478 1.108.64c-.435.163-.84.373-1.107.64s-.478.674-.64 1.11c-.164-.436-.374-.84-.642-1.11-.267-.267-.67-.477-1.106-.64.435-.162.84-.372 1.107-.64z"/><path d="M6.988 10.954c.495.057 1.334.25 1.567.482.23.23.424 1.07.482 1.567.03.252.243.442.497.442.253 0 .467-.19.496-.442.057-.494.25-1.334.482-1.566.23-.23 1.072-.424 1.567-.482.25-.03.44-.243.44-.497s-.19-.467-.44-.497c-.497-.057-1.337-.25-1.568-.48-.23-.232-.424-1.073-.482-1.568-.03-.252-.243-.442-.497-.442s-.467.19-.496.442c-.058.495-.25 1.336-.482 1.567s-1.072.423-1.567.48c-.252.03-.442.244-.442.498 0 .253.19.467.442.496zm2.274-.768c.103-.103.193-.232.27-.377.08.144.17.273.273.376.103.103.232.193.376.27-.143.08-.272.17-.375.273-.103.102-.193.23-.272.375-.08-.144-.168-.273-.27-.376s-.233-.194-.377-.273c.143-.078.273-.168.376-.27z"/></svg>