<svg xmlns="http://www.w3.org/2000/svg" width="24" height="24" viewBox="0 0 24 24"><path d="M21.3 5H2.7C1.21 5 0 6.21 0 7.7v7.5c0 1.49 1.21 2.7 2.7 2.7h18.6c1.49 0 2.7-1.21 2.7-2.7V7.7C24 6.21 22.79 5 21.3 5zM23 15.2c0 .922-.778 1.7-1.7 1.7H2.7c-.92 0-1.7-.778-1.7-1.7V7.7C1 6.78 1.78 6 2.7 6h18.6c.922 0 1.7.78 1.7 1.7v7.5z"/><path d="M11.9 10.5c0-1.03-1.09-1.5-2.1-1.5H8c-.276 0-.5.223-.5.5v4c0 .276.224.5.5.5s.5-.224.5-.5v-1.4h.987l1.54 1.732c.098.11.235.168.373.168.118 0 .237-.042.332-.126.207-.184.225-.5.042-.706l-1.08-1.215c.613-.197 1.206-.622 1.206-1.453zm-2.1.6H8.5V10h1.298c.01 0 1.102.035 1.102.5 0 .576-1.09.6-1.1.6zM6.5 9h-3c-.276 0-.5.223-.5.5v4c0 .276.224.5.5.5s.5-.224.5-.5V12h2c.276 0 .5-.224.5-.5S6.276 11 6 11H4v-1h2.5c.276 0 .5-.224.5-.5S6.776 9 6.5 9zM16 10c.276 0 .5-.224.5-.5S16.276 9 16 9h-3c-.276 0-.5.224-.5.5v4c0 .276.224.5.5.5h3c.276 0 .5-.224.5-.5s-.224-.5-.5-.5h-2.5v-1h2.1c.276 0 .5-.224.5-.5s-.224-.5-.5-.5h-2.1v-1H16zM20.7 10c.276 0 .5-.224.5-.5s-.223-.5-.5-.5h-3c-.276 0-.5.224-.5.5v4c0 .276.224.5.5.5h3c.276 0 .5-.224.5-.5s-.223-.5-.5-.5h-2.5v-1h2c.276 0 .5-.224.5-.5s-.223-.5-.5-.5h-2v-1h2.5z"/></svg>