<svg xmlns="http://www.w3.org/2000/svg" width="24" height="24" viewBox="0 0 24 24"><path d="M23.055 13.748l-1.543-1.555c-.017-.1-.054-.195-.13-.27L11.128 1.668c-.047-.048-.104-.083-.165-.107L10.276.87c-.853-.974-2.58-.982-3.44-.013l-5.99 5.99C.345 7.348.08 7.993.102 8.662c.022.625.295 1.197.745 1.59l.693.697c.024.07.06.137.115.193l9.983 9.984 2.01 2.025c.483.483 1.098.747 1.738.747.026 0 .052 0 .078-.002.624-.02 1.197-.295 1.59-.746l6-6c.504-.503.77-1.148.746-1.817-.02-.623-.293-1.196-.743-1.587zM2.75 10.754l7.994-7.994 9.51 9.582-7.994 7.994-9.51-9.582zm-1.196-3.2l6-6 .023-.025c.238-.273.593-.43.973-.43s.735.157.995.452l.495.498-7.994 7.994-.517-.52c-.266-.232-.418-.55-.43-.894-.012-.39.15-.77.454-1.077zm20.793 8.892l-6.022 6.024c-.232.266-.55.418-.895.43-.42.03-.77-.15-1.075-.453l-1.39-1.4 7.993-7.995 1.414 1.424c.265.23.417.55.43.894.01.39-.15.77-.455 1.076z"/><path d="M18.1 16.9c-.717 0-1.3.583-1.3 1.3s.583 1.3 1.3 1.3 1.3-.583 1.3-1.3-.584-1.3-1.3-1.3zm0 1.6c-.165 0-.3-.135-.3-.3s.135-.3.3-.3c.166 0 .3.135.3.3s-.134.3-.3.3zM15.317 4c1.258-.045 2.435.41 3.304 1.28.87.867 1.324 2.04 1.28 3.303-.01.276.207.507.482.517h.018c.27 0 .49-.213.5-.483.053-1.542-.506-2.98-1.572-4.045-1.066-1.066-2.513-1.62-4.046-1.57-.275.008-.49.24-.482.515.01.277.226.493.517.483z"/><path d="M15.712 1.3c1.913-.058 3.668.662 4.997 1.99s2.035 3.105 1.99 5c-.007.275.212.504.488.51h.012c.27 0 .493-.215.5-.487.052-2.17-.76-4.204-2.284-5.73S17.854.25 15.688.3c-.276.007-.495.236-.488.512.007.276.25.51.512.488zM8.483 20c-1.267.046-2.436-.41-3.304-1.278S3.855 16.68 3.9 15.418c.01-.276-.206-.508-.482-.518-.272.008-.508.207-.518.483-.053 1.543.505 2.98 1.57 4.046 1.02 1.02 2.38 1.573 3.844 1.573.067 0 .135 0 .202-.003.277-.01.493-.24.484-.518-.01-.275-.245-.49-.517-.482z"/><path d="M8.188 22.7c-1.906.06-3.67-.662-4.998-1.99-1.328-1.33-2.035-3.105-1.99-4.998.006-.275-.212-.505-.488-.512-.298-.005-.505.212-.512.488-.052 2.17.76 4.203 2.283 5.728 1.48 1.48 3.438 2.286 5.534 2.286.065 0 .13 0 .194-.002.277-.007.496-.235.49-.512s-.25-.506-.512-.488zM14.825 14.12l-.377-.322c.247-.356.4-.767.437-1.192.05-.6-.143-1.17-.532-1.56-.676-.677-1.806-.628-2.996.117-1.204.668-1.606.48-1.804.284-.53-.53-.366-1.328.1-1.793.377-.376.814-.537 1.265-.46.27.05.53-.14.575-.41.045-.273-.14-.53-.41-.576-.612-.103-1.217.052-1.746.422l-.283-.284c-.195-.195-.512-.195-.707 0-.195.195-.195.512 0 .707l.282.282c-.604.9-.54 2.06.217 2.818.995.996 2.45.188 3.02-.13.61-.382 1.396-.652 1.78-.27.183.183.27.455.242.766-.03.335-.19.673-.443.925-.38.38-1.057.664-1.808.758-.275.034-.47.284-.435.558.03.254.247.44.496.44.022 0 .043-.002.063-.005.754-.094 1.44-.344 1.965-.7l.448.383c.094.083.21.122.324.122.14 0 .28-.06.38-.175.18-.21.155-.525-.055-.705z"/></svg>