<svg xmlns="http://www.w3.org/2000/svg" width="24" height="24" viewBox="0 0 24 24"><path d="M18.735 2.03l-2.1-1.9c-.188-.17-.47-.173-.663-.008l-1.865 1.61L12.335.13c-.188-.172-.472-.174-.662-.01L9.808 1.734 8.036.13c-.19-.174-.48-.174-.67 0l-1.97 1.78C5.17 1.96 5 2.16 5 2.4v21.1c0 .276.224.5.5.5h12.9c.276 0 .5-.224.5-.5V2.4c0-.14-.06-.276-.165-.37zM17.9 23H6V2.713l1.7-1.54 1.764 1.598c.187.17.47.173.662.01l1.866-1.612 1.77 1.604c.19.17.47.172.664.008l1.865-1.61L17.9 2.62V23z"/><path d="M14.5 19h-5c-.276 0-.5.223-.5.5s.224.5.5.5h5c.276 0 .5-.224.5-.5s-.224-.5-.5-.5zM14.5 16h-5c-.276 0-.5.223-.5.5s.224.5.5.5h5c.276 0 .5-.224.5-.5s-.224-.5-.5-.5zM11 13.044v.456c0 .276.224.5.5.5s.5-.224.5-.5v-.45c1.04-.204 1.8-1.03 1.8-2.05 0-1.432-1.51-1.885-2.156-2.08-1.198-.36-1.444-.707-1.444-1.12 0-.512.402-.914.952-1.042.09.087.213.142.348.142.144 0 .27-.062.363-.16.31.072.544.24.71.517.142.237.45.312.685.17.237-.14.314-.448.172-.685-.32-.532-.82-.865-1.43-.985V5.6c0-.276-.224-.5-.5-.5s-.5.223-.5.5v.15c-1.04.204-1.8 1.03-1.8 2.05 0 1.432 1.51 1.885 2.156 2.08 1.198.358 1.444.707 1.444 1.12 0 .617-.57 1.1-1.3 1.1-.506 0-1.197-.28-1.68-.684-.212-.177-.527-.148-.704.064-.177.212-.148.527.064.704.524.437 1.196.745 1.82.86z"/></svg>