<svg xmlns="http://www.w3.org/2000/svg" width="24" height="24" viewBox="0 0 24 24"><path d="M12.015.238C5.533.238.26 5.51.26 11.994S5.532 23.75 12.014 23.75c6.483 0 11.756-5.273 11.756-11.756S18.5.238 12.016.238zm0 22.512c-5.93 0-10.756-4.825-10.756-10.756S6.083 1.238 12.014 1.238 22.77 6.063 22.77 11.994 17.947 22.75 12.016 22.75z"/><path d="M15.577 11.56c.308-.21.59-.458.803-.776.586-.873.653-1.988.175-2.91-.58-1.12-1.867-1.787-3.54-1.842V4.605c0-.276-.223-.5-.5-.5s-.5.224-.5.5v1.422h-1V4.605c0-.276-.223-.5-.5-.5s-.5.224-.5.5v1.422h-1.69c-.275 0-.5.224-.5.5s.225.5.5.5h.69v9.95h-.69c-.275 0-.5.225-.5.5s.225.5.5.5h1.69v1.405c0 .276.224.5.5.5s.5-.224.5-.5v-1.404h1v1.404c0 .276.224.5.5.5s.5-.224.5-.5v-1.404h.796c2.382-.028 3.465-1.797 3.464-3.43 0-1.187-.585-2.38-1.697-2.987zM12.93 7.03c1.342.03 2.314.493 2.737 1.308.31.598.266 1.322-.117 1.892-.43.64-1.207.965-2.15.92h-3.385V7.03h2.914zm.876 9.95h-3.79v-4.83h3.174c.13.01.256.017.38.017.06 0 .11-.015.168-.018h.218c1.592.017 2.317 1.257 2.318 2.403 0 1.194-.763 2.408-2.468 2.428z"/></svg>