<svg xmlns="http://www.w3.org/2000/svg" width="24" height="24" viewBox="0 0 24 24"><path d="M10.24 7.18c.265-.077.417-.355.34-.62-.925-3.17-1.088-4.49-1.092-5.023.106.103.246.257.43.484 1.353 1.617 2.265 2.257 3.06 2.18.756-.085 1.12-.796 1.443-1.424.12-.235.245-.48.407-.715.03-.048.06-.088.084-.12.108.447.095 1.85-1.165 4.654-.113.25 0 .547.25.66.067.032.137.046.205.046.19 0 .373-.11.456-.295 1.44-3.208 1.708-5.535.696-6.07-.35-.185-.92-.14-1.363.58-.173.25-.32.532-.46.806-.218.424-.442.862-.666.887-.18.03-.75-.12-2.174-1.82-.524-.653-1.138-1.28-1.735-.97-.417.217-1.05.545.665 6.423.077.264.35.417.62.34zM12 7.5c-4.292 0-7.4 6.152-7.4 10.3 0 3.877 2.697 6.1 7.4 6.1s7.4-2.223 7.4-6.1c0-4.637-3.415-10.3-7.4-10.3zm0 15.4c-2.92 0-6.4-.885-6.4-5.1 0-4.062 3.104-9.3 6.4-9.3 3.387 0 6.4 5.2 6.4 9.3 0 4.215-3.48 5.1-6.4 5.1z"/><path d="M12.144 15.32c-1.125-.337-1.544-.668-1.544-1.22 0-.75.712-1.2 1.4-1.2.524 0 .962.208 1.17.557.143.236.45.313.687.172.237-.143.314-.45.172-.687-.315-.524-.87-.867-1.53-.986V11.5c0-.276-.223-.5-.5-.5s-.5.224-.5.5v.447c-1.097.206-1.9 1.077-1.9 2.153 0 1.502 1.525 1.96 2.303 2.19 1.597.32 1.597.894 1.597 1.11 0 .75-.712 1.2-1.4 1.2-.544 0-1.334-.33-1.88-.784-.21-.177-.527-.147-.704.063-.177.212-.148.526.064.703.474.395 1.197.785 1.92.94V20c0 .276.224.5.5.5s.5-.224.5-.5v-.435c1.148-.17 2-1.057 2-2.164 0-1.068-.808-1.77-2.356-2.08z"/></svg>