<svg xmlns="http://www.w3.org/2000/svg" width="24" height="24" viewBox="0 0 24 24"><path d="M12 .2C5.494.2.2 5.493.2 12c0 6.507 5.293 11.8 11.8 11.8 6.507 0 11.8-5.293 11.8-11.8C23.8 5.493 18.507.2 12 .2zm0 22.6C6.045 22.8 1.2 17.955 1.2 12S6.045 1.2 12 1.2 22.8 6.045 22.8 12 17.955 22.8 12 22.8z"/><path d="M16.064 16.776c-.23-.146-.54-.075-.688.16-.03.048-.766 1.17-2.52.133-1.083-.64-2.13-.63-2.978-.414.51-1.18.554-2.498.458-3.656H14c.276 0 .5-.224.5-.5s-.224-.5-.5-.5h-3.78c-.062-.407-.13-.778-.19-1.086l-.045-.234c-.18-.717-.18-1.443.002-2.166.35-1.492 1.386-2.314 2.913-2.314 1.038 0 1.978.786 2.447 1.253.195.195.512.195.707 0s.195-.512 0-.707C15.348 6.04 14.228 5.2 12.9 5.2c-2.01 0-3.425 1.125-3.885 3.08-.22.875-.22 1.765-.006 2.613l.038.207c.05.267.108.572.16.9H8.3c-.276 0-.5.224-.5.5s.223.5.5.5h1.04c.147 1.583.002 3.432-1.368 4.623-.208.18-.23.493-.05.702.178.21.493.232.702.056.076-.063 1.865-1.548 3.722-.45.71.42 1.337.58 1.873.58 1.027 0 1.718-.587 2.004-1.045.146-.234.075-.542-.16-.69z"/></svg>