<svg xmlns="http://www.w3.org/2000/svg" width="24" height="24" viewBox="0 0 24 24"><path d="M23.9 14c0-1.97-4.024-3-8-3-.067 0-.133.003-.2.003V8.57c.06-.152.1-.306.1-.47 0-.108-.042-.203-.1-.284V5.478c.06-.153.1-.31.1-.478 0-1.904-3.974-2.9-7.9-2.9S0 3.096 0 5v12.1C0 19.093 4.095 20 7.9 20v.1c0 1.883 4.122 2.9 8 2.9s8-1.018 8-2.9v-5.9c0-.028-.01-.052-.016-.078.004-.04.016-.08.016-.122zm-1 3.2c0 .757-2.792 1.9-7 1.9s-7-1.144-7-1.9v-1.672c1.44.97 4.23 1.472 7 1.472s5.56-.502 7-1.472V17.2zm-8.2-8.845C14.187 9.09 11.603 10 7.9 10 3.457 10 1 8.876 1 8.1V6.486C2.425 7.418 5.173 7.9 7.9 7.9c2.665 0 5.35-.46 6.8-1.35v1.805zM1 12.608C2.446 13.555 5.24 14 7.9 14c0 .042.012.08.016.122-.005.026-.016.05-.016.078V16C3.457 16 1 14.877 1 14.1v-1.492zM22.9 14c0 .815-2.727 2-7 2s-7-1.185-7-2c0-.04.012-.084.026-.127.074-.064.123-.15.15-.246.653-.76 3.17-1.627 6.824-1.627 4.274 0 7 1.184 7 2zM8.292 13H7.9C3.457 13 1 11.876 1 11.1V9.608C2.446 10.555 5.24 11 7.9 11c2.61 0 5.332-.473 6.8-1.37v1.404c-2.813.148-5.442.812-6.408 1.966zM7.9 3.1c3.87 0 6.445.95 6.84 1.704-.025.06-.04.126-.04.196v.264c-.508.743-3.046 1.636-6.8 1.636C3.688 6.9 1 5.775 1 5c0-.775 2.688-1.9 6.9-1.9zM1 17.1v-1.492C2.446 16.555 5.24 17 7.9 17v2C3.457 19 1 17.877 1 17.1zM15.9 22c-4.208 0-7-1.144-7-1.9v-.315c.058-.082.1-.177.1-.285s-.042-.203-.1-.285v-.56c1.456.945 4.285 1.445 7 1.445s5.544-.5 7-1.445V20.1c0 .756-2.792 1.9-7 1.9z"/></svg>