<svg xmlns="http://www.w3.org/2000/svg" width="24" height="24" viewBox="0 0 24 24"><path d="M18.1 0H5C3.917 0 3.1.817 3.1 1.9v20.2c0 1.083.817 1.9 1.9 1.9h13.1c.914 0 1.9-.765 1.9-2V1.9C20 .817 19.183 0 18.1 0zm.9 22c0 .617-.468 1-.9 1H5c-.52 0-.9-.378-.9-.9V1.9c0-.52.38-.9.9-.9h13.1c.52 0 .9.38.9.9V22z"/><path d="M7.5 10c-.827 0-1.5.673-1.5 1.5S6.673 13 7.5 13 9 12.327 9 11.5 8.327 10 7.5 10zm0 2c-.276 0-.5-.224-.5-.5s.224-.5.5-.5.5.224.5.5-.224.5-.5.5zM11.5 10c-.827 0-1.5.673-1.5 1.5s.673 1.5 1.5 1.5 1.5-.673 1.5-1.5-.673-1.5-1.5-1.5zm0 2c-.276 0-.5-.224-.5-.5s.224-.5.5-.5.5.224.5.5-.224.5-.5.5zM15.5 10c-.827 0-1.5.673-1.5 1.5s.673 1.5 1.5 1.5 1.5-.673 1.5-1.5-.673-1.5-1.5-1.5zm0 2c-.275 0-.5-.224-.5-.5s.225-.5.5-.5.5.224.5.5-.225.5-.5.5zM7.5 14c-.827 0-1.5.673-1.5 1.5S6.673 17 7.5 17 9 16.327 9 15.5 8.327 14 7.5 14zm0 2c-.276 0-.5-.225-.5-.5s.224-.5.5-.5.5.224.5.5-.224.5-.5.5zM11.5 14c-.827 0-1.5.673-1.5 1.5s.673 1.5 1.5 1.5 1.5-.673 1.5-1.5-.673-1.5-1.5-1.5zm0 2c-.276 0-.5-.225-.5-.5s.224-.5.5-.5.5.225.5.5-.224.5-.5.5zM15.5 14c-.827 0-1.5.673-1.5 1.5s.673 1.5 1.5 1.5 1.5-.673 1.5-1.5-.673-1.5-1.5-1.5zm0 2c-.275 0-.5-.225-.5-.5s.225-.5.5-.5.5.225.5.5-.225.5-.5.5zM7.5 18c-.827 0-1.5.673-1.5 1.5S6.673 21 7.5 21 9 20.327 9 19.5 8.327 18 7.5 18zm0 2c-.276 0-.5-.225-.5-.5s.224-.5.5-.5.5.224.5.5-.224.5-.5.5zM11.5 18c-.827 0-1.5.673-1.5 1.5s.673 1.5 1.5 1.5 1.5-.673 1.5-1.5-.673-1.5-1.5-1.5zm0 2c-.276 0-.5-.225-.5-.5s.224-.5.5-.5.5.225.5.5-.224.5-.5.5zM15.5 18c-.827 0-1.5.673-1.5 1.5s.673 1.5 1.5 1.5 1.5-.673 1.5-1.5-.673-1.5-1.5-1.5zm0 2c-.275 0-.5-.225-.5-.5s.225-.5.5-.5.5.225.5.5-.225.5-.5.5zM16.5 3h-10c-.276 0-.5.223-.5.5v4c0 .276.224.5.5.5h10c.276 0 .5-.224.5-.5v-4c0-.277-.224-.5-.5-.5zM16 7H7V4h9v3z"/></svg>