<svg xmlns="http://www.w3.org/2000/svg" width="24" height="24" viewBox="0 0 24 24"><path d="M13.017 2.833c2.04-1.12 4.433-.777 6.09.88 1.376 1.378 1.83 3.262 1.304 5.035l-.704-1.602c-.112-.253-.406-.366-.66-.256-.253.11-.368.406-.257.66l1.15 2.617c.008.03.024.053.036.08l.007.015c0 .002.003.004.004.006.022.042.048.08.082.116.028.033.06.06.097.083.006.003.01.01.015.013.003 0 .006 0 .008.002.024.014.044.034.07.044.058.023.12.034.18.034.07 0 .14-.014.202-.042l2.714-1.195c.253-.11.368-.406.257-.66-.112-.25-.406-.366-.66-.255l-1.608.708c.676-2.145.137-4.44-1.532-6.11-1.977-1.978-4.834-2.39-7.277-1.05-.242.133-.33.437-.198.68.13.24.435.332.68.197zM10.927 20.756c-2.044 1.12-4.434.774-6.09-.88-1.376-1.378-1.83-3.262-1.303-5.034l.705 1.602c.082.188.265.3.457.3.067 0 .135-.015.2-.043.253-.11.368-.406.257-.658l-1.152-2.615c-.02-.085-.068-.16-.13-.224-.03-.032-.062-.058-.098-.082-.005-.002-.008-.008-.014-.01-.003-.003-.006-.002-.01-.004-.023-.014-.043-.034-.07-.045-.123-.047-.26-.043-.382.01L.585 14.265c-.252.11-.367.407-.256.66.11.252.404.366.658.256l1.61-.708c-.677 2.145-.14 4.44 1.53 6.11 1.207 1.205 2.738 1.83 4.304 1.83 1.003 0 2.02-.257 2.974-.78.242-.133.33-.437.198-.68-.13-.24-.435-.33-.677-.196zM6.337 12.125c3.218 0 5.835-2.618 5.835-5.835 0-3.218-2.618-5.835-5.835-5.835S.502 3.073.502 6.29c0 3.218 2.618 5.835 5.835 5.835zm0-10.67c2.667 0 4.835 2.17 4.835 4.835 0 2.666-2.17 4.835-4.835 4.835-2.666 0-4.835-2.17-4.835-4.835 0-2.666 2.17-4.835 4.835-4.835zM17.907 11.644c-3.218 0-5.835 2.617-5.835 5.835s2.618 5.835 5.835 5.835 5.835-2.618 5.835-5.836-2.617-5.836-5.835-5.836zm0 10.67c-2.666 0-4.836-2.168-4.836-4.835s2.17-4.836 4.837-4.836 4.835 2.17 4.835 4.835c0 2.666-2.17 4.835-4.835 4.835z"/><path d="M5.88 9.296v.263c0 .275.225.5.5.5s.5-.225.5-.5V9.29c.844-.203 1.47-.892 1.47-1.718 0-1.23-1.376-1.632-1.82-1.76-.98-.31-1.117-.57-1.117-.808 0-.432.435-.784.968-.784.36 0 .688.162.858.42.152.233.462.298.693.146.232-.15.296-.46.145-.692-.266-.405-.7-.694-1.193-.813V3.02c0-.275-.224-.5-.5-.5s-.5.225-.5.5v.268c-.843.202-1.47.893-1.47 1.72 0 1.19 1.275 1.59 1.83 1.763 1.107.324 1.107.673 1.107.805 0 .432-.436.783-.97.783-.38 0-.967-.252-1.335-.572-.21-.18-.524-.16-.705.05-.182.207-.16.523.05.704.412.36.974.638 1.49.756zM20.186 18.787c-.238-.133-.545-.044-.678.2-.316.577-.808.922-1.315.922-.598 0-1.13-.48-1.42-1.17h1.715c.276 0 .5-.225.5-.5s-.224-.5-.5-.5h-1.94c-.004-.056-.013-.11-.013-.166 0-.088.012-.172.02-.258h1.933c.276 0 .5-.224.5-.5s-.224-.5-.5-.5h-1.68c.3-.642.813-1.077 1.385-1.077.487 0 .95.308 1.27.846.144.238.45.313.687.174.237-.142.315-.448.174-.686-.506-.85-1.283-1.335-2.13-1.335-1.112 0-2.063.86-2.46 2.076h-.42c-.275 0-.5.224-.5.5s.225.5.5.5h.24c-.004.087-.02.17-.02.258 0 .057.01.11.013.165h-.233c-.276 0-.5.223-.5.5s.224.5.5.5h.396c.378 1.263 1.344 2.17 2.482 2.17.88 0 1.7-.54 2.192-1.445.134-.243.045-.546-.198-.678z"/></svg>