<svg xmlns="http://www.w3.org/2000/svg" width="24" height="24" viewBox="0 0 24 24"><path d="M15.907 4.937c.566-.003 1.315.095 1.653.6.238.442.36.843.48 1.23.215.705.42 1.37 1.236 1.78.073.036.15.053.224.053.183 0 .36-.1.447-.276.123-.247.023-.547-.224-.67-.417-.21-.524-.512-.728-1.178-.12-.394-.27-.883-.58-1.453-.68-1.018-2.01-1.115-2.76-1.08.32-.705 1.115-1.943 2.04-3.137.115-.15.137-.355.053-.526S17.49 0 17.3 0H6.8c-.193 0-.367.11-.45.283-.084.173-.06.38.06.53.876 1.096 1.777 2.454 2.08 3.2-1.03.047-1.312.258-1.93.963-.177.202-.398.455-.713.77-.97.97-1.583.502-1.698.395-.197-.19-.51-.188-.704.006-.195.195-.195.512 0 .707.47.47 1.72.987 3.107-.4.335-.335.57-.604.758-.818.343-.39.475-.54.828-.6C6.555 7.45 2.115 14.59 2.2 18.71c.022 1.093.445 2.036 1.255 2.806 2.542 2.41 8.13 2.3 8.544 2.284.052.002.176.005.358.005 1.81 0 9.345-.29 9.542-5.084.174-4.267-4.444-11.486-5.993-13.783zM16.3 1c-.663.918-1.466 2.146-1.715 3H9.523c-.242-.89-1.067-2.13-1.71-3h8.488zm-4.284 21.8h-.032c-.058.006-5.556.156-7.84-2.01-.62-.587-.927-1.273-.944-2.1C3.112 14.477 8.447 6.364 9.366 5l5.367-.01c.913 1.323 6.344 9.385 6.168 13.69-.177 4.35-8.792 4.13-8.884 4.12z"/><path d="M10.3 3.6h3.4c.276 0 .5-.224.5-.5s-.224-.5-.5-.5h-3.4c-.276 0-.5.224-.5.5s.223.5.5.5zM10.3 6.5h3.4c.276 0 .5-.224.5-.5s-.224-.5-.5-.5h-3.4c-.276 0-.5.224-.5.5s.223.5.5.5zM14.868 18.378c-.235-.147-.543-.08-.69.153-.02.03-.46.694-1.633.034-.722-.406-1.42-.446-2.01-.33.253-.764.272-1.587.213-2.334H13.1c.276 0 .5-.224.5-.5s-.224-.5-.5-.5h-2.474c-.03-.18-.058-.355-.086-.51l-.047-.272c-.09-.545-.09-.99-.006-1.506.254-1.1.862-1.612 1.913-1.612.6 0 1.175.292 1.617.82.177.212.49.24.704.063.213-.177.24-.492.064-.704-.634-.76-1.48-1.18-2.384-1.18-1.507 0-2.532.848-2.893 2.418-.11.653-.11 1.21 0 1.864l.05.283.056.335H9c-.276 0-.5.224-.5.5s.224.5.5.5h.743c.1 1.108.01 2.35-.873 3.124-.207.18-.228.494-.048.702.1.114.238.173.378.173.115 0 .23-.04.325-.12.05-.044 1.265-1.054 2.53-.345 1.59.894 2.636.15 2.966-.367.15-.233.08-.543-.152-.69z"/></svg>