<svg xmlns="http://www.w3.org/2000/svg" width="24" height="24" viewBox="0 0 24 24"><path d="M15.938 4.948c.554.01 1.238.136 1.543.664.262.453.383.864.5 1.26.19.653.39 1.328 1.202 1.773.076.042.158.062.24.062.177 0 .348-.094.438-.26.133-.242.044-.546-.198-.68-.432-.235-.534-.53-.724-1.176-.12-.41-.27-.92-.593-1.478-.604-1.05-1.86-1.19-2.672-1.163.336-.75 1.203-2.06 2.046-3.144.116-.15.138-.355.054-.526-.084-.17-.257-.28-.45-.28H6.758c-.19 0-.365.11-.45.28-.083.172-.062.376.055.527.87 1.115 1.768 2.48 2.08 3.213-1.033.04-1.345.274-2 1.026-.165.19-.367.424-.64.705-.917.953-1.533.487-1.65.38-.2-.187-.512-.18-.704.016-.192.198-.187.514.01.707.054.05.543.513 1.296.483.613-.01 1.208-.31 1.77-.89.285-.298.5-.543.674-.745.37-.424.52-.593.88-.656C6.475 7.482 2.05 14.59 2.176 18.74c.048 1.558.976 3.616 5.126 4.573 2.286.527 4.515.482 4.74.478.048.003.166.005.342.005 1.337 0 5.996-.158 8.26-2.282.805-.758 1.23-1.686 1.264-2.758.13-4.212-4.426-11.474-5.968-13.807zM16.324 1c-.64.884-1.473 2.147-1.72 3.015H9.478C9.23 3.147 8.398 1.885 7.758 1h8.566zm.248 21.343c-1.777.41-3.57.45-4.24.45-.38 0-.28-.002-.29-.002h-.016c-.02 0-2.265.063-4.5-.45-2.833-.654-4.297-1.875-4.35-3.63-.13-4.227 5.158-12.26 6.127-13.695h5.475c.97 1.437 6.257 9.48 6.128 13.708-.053 1.752-1.51 2.97-4.334 3.62z"/><path d="M10.287 3.593h3.38c.275 0 .5-.224.5-.5s-.225-.5-.5-.5h-3.38c-.276 0-.5.224-.5.5s.224.5.5.5zM10.287 6.495h3.38c.275 0 .5-.224.5-.5s-.225-.5-.5-.5h-3.38c-.276 0-.5.224-.5.5s.224.5.5.5zM14.95 16.845c-.24-.132-.545-.045-.678.198-.456.833-1.174 1.33-1.92 1.33-.96 0-1.786-.787-2.17-1.915h2.566c.276 0 .5-.224.5-.5s-.224-.5-.5-.5H9.982c-.012-.13-.03-.258-.03-.393 0-.178.02-.35.04-.52h2.757c.275 0 .5-.224.5-.5s-.225-.5-.5-.5h-2.517c.4-1.06 1.196-1.79 2.12-1.79.718 0 1.394.444 1.855 1.22.142.238.45.316.686.174.237-.142.315-.45.174-.686-.646-1.087-1.636-1.71-2.715-1.71-1.452 0-2.685 1.165-3.172 2.79h-.695c-.276 0-.5.225-.5.5s.224.5.5.5h.51c-.018.173-.042.343-.042.52 0 .136.022.263.03.395h-.498c-.276 0-.5.223-.5.5s.224.5.5.5h.666c.46 1.69 1.715 2.915 3.204 2.915 1.116 0 2.16-.69 2.796-1.85.132-.243.043-.547-.2-.68z"/></svg>