<svg xmlns="http://www.w3.org/2000/svg" width="24" height="24" viewBox="0 0 24 24"><path d="M21.608 11.96c.063-.116.077-.252.04-.38L18.584 1.224c-.078-.264-.357-.417-.62-.337l-2.517.744c-.093-.028-.194-.04-.296-.008-.095.03-.168.092-.228.164L3.68 5.112c-.077-.013-.158-.013-.238.014-.07.023-.13.063-.182.11l-2.557.757c-.127.038-.234.124-.298.24-.063.118-.078.254-.04.382l.74 2.506c-.01.066-.007.134.01.2.015.06.06.096.093.143l2.22 7.507c.065.218.265.358.48.358.047 0 .095-.007.142-.02L21.31 12.2c.128-.036.235-.122.298-.24zm-3.486-2.07c-.427.725-.578 1.56-.466 2.35l-10.65 3.15c-.29-.676-.792-1.253-1.45-1.614-.66-.363-1.414-.476-2.135-.356L2.26 9.49c.656-.294 1.213-.79 1.565-1.433.35-.636.47-1.36.373-2.055l10.854-3.21c.348.716.89 1.3 1.557 1.633.415.208.86.312 1.304.312.218 0 .433-.034.646-.084l1.136 3.84c-.642.277-1.19.754-1.57 1.398zm.15-6.197c-.41.083-.826.034-1.22-.163-.426-.212-.783-.575-1.034-1.026l1.747-.517.506 1.706zM3.224 6.29c.032.437-.058.886-.278 1.286-.23.417-.567.74-.974.95L1.466 6.81l1.76-.52zm.48 8.087c.463-.052.944.043 1.37.275.433.24.77.593.977 1.02l-1.807.536-.54-1.83zm14.915-2.422c-.04-.524.082-1.08.363-1.557.248-.42.592-.745.993-.946l.572 1.932-1.928.57zM23.5 12h-.8c-.276 0-.5.224-.5.5s.224.5.5.5h.3v2.054c-.72-.11-1.336-.59-1.636-1.34-.103-.255-.395-.38-.65-.277-.256.102-.38.393-.277.65.456 1.142 1.423 1.88 2.563 1.99v4.056c-1.465.148-2.638 1.336-2.853 2.867H8.85C8.63 21.528 7.47 20.37 6 20.15V18.2c0-.276-.224-.5-.5-.5s-.5.224-.5.5v5.3c0 .276.224.5.5.5h18c.276 0 .5-.224.5-.5v-11c0-.277-.224-.5-.5-.5zM6 21.154c.922.197 1.65.924 1.846 1.846H6v-1.846zM21.15 23c.19-.978.93-1.728 1.85-1.866V23h-1.85z"/><path d="M11 8.7c-.975 0-1.167-.18-1.204-.262-.066-.53.246-1.016.702-1.148.39-.078.753.01.925.126.23.152.54.09.693-.14.153-.23.09-.54-.14-.693-.323-.215-.76-.326-1.228-.317l-.075-.224c-.087-.262-.37-.403-.632-.317-.26.088-.4.37-.314.633l.06.177c-.685.41-1.083 1.204-.96 2.123C9.173 9.7 10.453 9.7 11 9.7c.975 0 1.167.18 1.226.358.047.142.03.304-.05.456-.103.194-.29.342-.473.396-.38.075-.976.002-1.416-.174-.256-.104-.547.022-.65.278-.103.256.022.547.278.65.435.174.957.27 1.44.27.033 0 .06-.007.094-.008l.076.232c.07.21.265.342.474.342.052 0 .106-.008.158-.026.262-.087.403-.37.316-.632l-.06-.182c.27-.17.497-.398.644-.678.21-.396.25-.835.116-1.24C12.827 8.7 11.547 8.7 11 8.7zM11.9 18.8c0 .276.224.5.5.5h.17c.36 1.166 1.265 2 2.33 2 .85 0 1.514-.442 2.033-1.352.138-.24.055-.545-.186-.682-.237-.138-.545-.056-.682.186-.43.75-.85.848-1.166.848-.517 0-.988-.41-1.26-1h1.56c.276 0 .5-.224.5-.5s-.224-.5-.5-.5h-1.792c0-.034-.008-.066-.008-.1 0-.068.01-.133.015-.2H15.2c.276 0 .5-.224.5-.5s-.223-.5-.5-.5h-1.51c.278-.535.724-.9 1.21-.9.46 0 .825.24 1.184.778.153.23.465.29.693.14.23-.154.292-.465.14-.694-.55-.823-1.21-1.224-2.017-1.224-1.036 0-1.926.785-2.305 1.9H12.4c-.276 0-.5.223-.5.5s.224.5.5.5h.016c-.004.066-.016.13-.016.2 0 .033.007.065.008.1H12.4c-.276 0-.5.223-.5.5z"/></svg>