<svg xmlns="http://www.w3.org/2000/svg" width="24" height="24" viewBox="0 0 24 24"><path d="M8.5 9c-.276 0-.5.223-.5.5v12c0 .276.224.5.5.5h2c.276 0 .5-.224.5-.5v-12c0-.277-.224-.5-.5-.5h-2zM10 21H9V10h1v11zM3.5 9c-.276 0-.5.223-.5.5v12c0 .276.224.5.5.5h2c.276 0 .5-.224.5-.5v-12c0-.277-.224-.5-.5-.5h-2zM5 21H4V10h1v11zM13.5 9c-.276 0-.5.223-.5.5v12c0 .276.224.5.5.5h2c.276 0 .5-.224.5-.5v-12c0-.277-.224-.5-.5-.5h-2zM15 21h-1V10h1v11zM18.5 9c-.276 0-.5.223-.5.5v12c0 .276.224.5.5.5h2c.276 0 .5-.224.5-.5v-12c0-.277-.224-.5-.5-.5h-2zM20 21h-1V10h1v11zM.6 8h22.8c.224 0 .42-.15.48-.364.062-.215-.028-.445-.22-.562l-11.4-7c-.16-.1-.36-.1-.522 0l-11.4 7c-.19.117-.28.347-.22.562C.18 7.85.377 8 .6 8zM12 1.087L21.63 7H2.37L12 1.087zM23.4 23H.6c-.276 0-.5.224-.5.5s.224.5.5.5h22.8c.276 0 .5-.224.5-.5s-.223-.5-.5-.5z"/><path d="M12 3c-.827 0-1.5.673-1.5 1.5S11.173 6 12 6s1.5-.673 1.5-1.5S12.827 3 12 3zm0 2c-.276 0-.5-.224-.5-.5s.224-.5.5-.5.5.224.5.5-.224.5-.5.5z"/></svg>