<svg xmlns="http://www.w3.org/2000/svg" width="24" height="24" viewBox="0 0 24 24"><path d="M22.913 19.005l-2.17-3.144c-.156-.228-.468-.284-.694-.126l-.428.295c-.06-.62-.122-1.886-.102-4.458.036-4.678-3.837-6.94-5.448-7.68L14.08.46c0-.134-.054-.26-.147-.355-.094-.094-.22-.146-.354-.146h-.002L2.505-.028c-.276 0-.5.224-.5.5l.007 18.03c0 .132.053.26.147.353.093.094.22.146.352.146l3.015-.004 5.106-.007 2.904-.003c.195 0 .36-.115.442-.28.2.242.438.497.668.75l-.485.333c-.227.156-.284.468-.128.695l2.168 3.145c.076.108.19.184.32.208.03.005.062.008.092.008.1 0 .2-.03.284-.09l5.884-4.058c.108-.075.184-.19.208-.32.026-.13-.003-.264-.08-.373zM9.53 8.76c.007.127.027.258.064.392h-.882c.24-.467.46-.467.56-.467.09 0 .175.03.26.076zm.278-.976c-.17-.064-.35-.1-.537-.1-.99 0-1.438.89-1.645 1.468H6.037c.073-.147.177-.27.306-.355.232-.15.297-.46.145-.692-.15-.232-.46-.296-.692-.145-.405.265-.694.7-.813 1.192H4.84c-.276 0-.5.224-.5.5s.224.5.5.5h.15c.2.84.89 1.466 1.716 1.466.977 0 1.417-.853 1.64-1.466H9.91l.264.825c.568 1.773 1.025 3.198 1.71 4.57-.917.534-1.55 1.44-1.71 2.446l-4.197.005c-.11-.726-.438-1.397-.975-1.924-.545-.535-1.242-.855-1.99-.953L3.006 3.806c.726-.095 1.403-.414 1.94-.953.517-.52.84-1.188.94-1.883l4.17-.007c.22 1.556 1.454 2.794 3.015 3.023l-.01 4.772-.198-.58c-.35-1.06-1.345-1.347-2.146-1.08-.36.118-.688.362-.91.686zm-2.552 2.368c-.2.392-.382.466-.55.466-.28 0-.514-.193-.653-.466h1.203zm6.807-1.668c.318.368.625.82.843 1.35.418 1.016.425 1.85.19 2.066-.115.107-.436.118-.998-.135l-.042-.12.007-3.16zm-.99-5.498c-1.03-.202-1.823-.998-2.018-2.025L13.077.96l-.004 2.028zM4.88.97c-.093.433-.313.845-.643 1.177-.345.347-.772.576-1.23.663L3.004.973 4.88.97zM3.01 16.12c.486.09.934.317 1.29.668.345.337.573.756.67 1.21l-1.96.004v-1.88zm10.026 1.87h-1.84c.15-.638.57-1.21 1.167-1.564.203.346.427.695.673 1.048v.515zm-1.912-7.318c-.122-.38-.253-.787-.39-1.206 0-.004 0-.008-.003-.01l-.168-.516c-.214-.648.395-.87.465-.893.11-.037.673-.187.885.452l1.305 3.788c.042.123.13.225.246.283 1.02.52 1.797.54 2.308.065.73-.674.508-2.086.057-3.182-.374-.91-1.026-1.76-1.765-2.343l.004-2.104c1.595.82 4.477 2.816 4.45 6.558-.025 3.074.056 4.45.185 5.097l-3.227 2.226c-2.61-2.828-3.253-4.783-4.352-8.214zm5.62 11.98l-1.602-2.32 5.06-3.49 1.603 2.32-5.062 3.49z"/></svg>