<svg xmlns="http://www.w3.org/2000/svg" width="24" height="24" viewBox="0 0 24 24"><path d="M18.1 0H5C3.917 0 3.1.817 3.1 1.9v20.2c0 1.083.817 1.9 1.9 1.9h13.1c.914 0 1.9-.765 1.9-2V1.9C20 .817 19.183 0 18.1 0zm.9 22c0 .617-.468 1-.9 1H5c-.52 0-.9-.378-.9-.9V1.9c0-.52.38-.9.9-.9h13.1c.52 0 .9.38.9.9V22z"/><path d="M10.4 12H9v-1.4c0-.276-.224-.5-.5-.5s-.5.223-.5.5V12H6.5c-.276 0-.5.223-.5.5s.224.5.5.5H8v1.4c0 .276.224.5.5.5s.5-.223.5-.5V13h1.4c.276 0 .5-.224.5-.5s-.224-.5-.5-.5zM16.4 12h-3.9c-.276 0-.5.224-.5.5s.224.5.5.5h3.9c.276 0 .5-.224.5-.5s-.223-.5-.5-.5zM16.4 18h-3.9c-.276 0-.5.224-.5.5s.224.5.5.5h3.9c.276 0 .5-.224.5-.5s-.223-.5-.5-.5zM10.56 16.45c-.193-.196-.51-.202-.708-.01L8.45 17.804l-1.4-1.362c-.2-.192-.516-.187-.708.01-.193.2-.188.516.01.708l1.38 1.342-1.38 1.342c-.198.192-.203.51-.01.707.097.1.228.15.358.15.125 0 .25-.047.35-.142l1.4-1.362 1.4 1.362c.1.095.225.142.35.142.13 0 .26-.05.358-.15.193-.2.188-.516-.01-.708L9.168 18.5l1.38-1.342c.2-.192.203-.51.01-.707zM14.86 16.85c.09-.1.14-.22.14-.35s-.05-.26-.15-.36c-.19-.18-.53-.18-.7.01-.1.09-.15.22-.15.35s.05.26.15.35c.09.1.22.15.35.15s.25-.05.36-.15zM14.14 20.15c-.09.09-.14.22-.14.35s.05.25.15.36c.1.09.22.14.35.14s.26-.05.35-.15c.1-.09.15-.22.15-.35s-.05-.26-.15-.35c-.18-.19-.51-.2-.71 0zM16.5 3h-10c-.276 0-.5.223-.5.5v4c0 .276.224.5.5.5h10c.276 0 .5-.224.5-.5v-4c0-.277-.224-.5-.5-.5zM16 7H7V4h9v3z"/></svg>