<svg xmlns="http://www.w3.org/2000/svg" width="24" height="24" viewBox="0 0 24 24"><path d="M19.537 11.5c-2.004 0-3.516.82-3.516 1.904v5.29c0 1.087 1.513 1.905 3.517 1.905s3.515-.82 3.515-1.905v-5.29c0-1.086-1.51-1.905-3.515-1.905zm2.515 5.43c0 .32-.955.905-2.515.905s-2.516-.586-2.516-.904v-.408c.63.343 1.51.55 2.517.55 1.005 0 1.886-.207 2.515-.55v.41zm0-1.762c0 .318-.955.904-2.515.904s-2.516-.586-2.516-.904v-.408c.63.343 1.51.55 2.517.55 1.005 0 1.886-.207 2.515-.55v.408zM19.537 12.5c1.56 0 2.515.585 2.515.904 0 .32-.955.905-2.515.905s-2.516-.587-2.516-.906c0-.32.957-.904 2.517-.904zm0 7.1c-1.56 0-2.516-.587-2.516-.905v-.41c.63.344 1.51.55 2.517.55 1.005 0 1.886-.206 2.515-.55v.41c0 .318-.955.904-2.515.904zM3.6 2.884c-2.005 0-3.516.82-3.516 1.905v14.137c0 1.086 1.51 1.904 3.515 1.904s3.514-.817 3.514-1.903V4.79c0-1.087-1.51-1.906-3.515-1.906zm2.514 14.28c0 .317-.955.903-2.515.903s-2.516-.586-2.516-.904v-.408c.63.343 1.51.55 2.515.55s1.885-.207 2.514-.55v.408zm0-1.765c0 .317-.955.903-2.515.903s-2.516-.586-2.516-.904v-.41c.63.344 1.51.55 2.515.55s1.885-.207 2.514-.55v.41zm0-1.765c0 .32-.955.905-2.515.905s-2.516-.586-2.516-.905v-.408c.63.343 1.51.55 2.515.55s1.885-.208 2.514-.55v.408zm0-1.763c0 .32-.955.905-2.515.905s-2.516-.586-2.516-.905v-.408c.63.343 1.51.55 2.515.55s1.885-.208 2.514-.55v.408zm0-1.763c0 .318-.955.903-2.515.903s-2.516-.585-2.516-.904V9.7c.63.344 1.51.55 2.515.55s1.885-.207 2.514-.55v.41zm0-1.765c0 .32-.955.905-2.515.905s-2.517-.586-2.517-.905v-.408c.63.343 1.51.55 2.515.55s1.887-.207 2.516-.55v.408zm0-1.763c0 .32-.955.905-2.515.905S1.082 6.9 1.082 6.582v-.438c.63.343 1.51.55 2.515.55s1.886-.208 2.515-.55v.438zM3.6 3.884c1.56 0 2.514.586 2.514.905s-.955.903-2.515.903-2.517-.585-2.517-.904.956-.906 2.516-.906zm0 15.947c-1.56 0-2.516-.585-2.516-.903v-.408c.63.342 1.51.548 2.515.548s1.885-.206 2.514-.55v.41c0 .317-.955.903-2.515.903zM11.543 9.183c-2.004 0-3.515.82-3.515 1.905v8.847c0 1.086 1.51 1.904 3.515 1.904s3.516-.82 3.516-1.905v-8.847c0-1.086-1.512-1.905-3.517-1.905zm2.516 8.99c0 .318-.956.904-2.517.904-1.56 0-2.515-.586-2.515-.905v-.407c.63.342 1.51.55 2.515.55 1.006 0 1.887-.207 2.516-.55v.407zm0-1.764c0 .317-.956.903-2.517.903-1.56 0-2.515-.586-2.515-.904V16c.63.343 1.51.55 2.515.55 1.006 0 1.887-.206 2.516-.55v.41zm0-1.765c0 .318-.956.904-2.517.904-1.56 0-2.515-.587-2.515-.905v-.408c.63.342 1.51.55 2.515.55 1.006 0 1.887-.207 2.516-.55v.408zm0-1.763c0 .32-.956.904-2.517.904-1.56 0-2.515-.585-2.515-.904v-.438c.63.343 1.51.55 2.515.55 1.006 0 1.886-.207 2.515-.55v.438zm-2.517-2.7c1.56 0 2.515.587 2.515.906s-.955.905-2.515.905-2.515-.586-2.515-.905.955-.905 2.515-.905zm0 10.658c-1.56 0-2.515-.586-2.515-.904v-.408c.63.343 1.51.55 2.515.55 1.006 0 1.887-.208 2.516-.55v.407c0 .32-.956.905-2.517.905z"/></svg>