<svg xmlns="http://www.w3.org/2000/svg" width="24" height="24" viewBox="0 0 24 24"><path d="M19.5 16h-6c-.276 0-.5.224-.5.5s.224.5.5.5h6c.276 0 .5-.224.5-.5s-.224-.5-.5-.5z"/><path d="M22.3 4H1.8C.824 4 0 4.824 0 5.8v1.415c-.058.082-.1.176-.1.285v4c0 .108.042.203.1.285V19.2c0 .976.824 1.8 1.8 1.8h20.4c.976 0 1.8-.823 1.8-1.8l.1-13.4c0-.976-.825-1.8-1.8-1.8zM1.8 5h20.5c.426 0 .8.374.8.796L23.09 7H1V5.8c0-.426.374-.8.8-.8zM1 8h22v3H1V8zm22 11.2c0 .426-.374.8-.8.8H1.8c-.426 0-.8-.374-.8-.8V12h22.053L23 19.196v.004z"/></svg>