<svg xmlns="http://www.w3.org/2000/svg" width="24" height="24" viewBox="0 0 24 24"><path d="M22.832 18.597l-2.342-3.395c-.157-.23-.47-.282-.695-.128l-.517.356c-.067-.646-.14-2.01-.118-4.884.046-5.938-6.723-8.556-7.662-8.89-.88-.878-2.092-1.42-3.43-1.42-2.68 0-4.863 2.18-4.863 4.862 0 2.68 2.182 4.863 4.863 4.863.327 0 .698-.058 1.068-.14l1.31 3.96c.312.95 1.7 3.24 3.554 5.29l-.56.384c-.107.076-.183.19-.207.322-.023.13.005.265.08.374l2.343 3.395c.097.14.253.216.41.216.1 0 .198-.027.285-.087l6.355-4.383c.108-.075.184-.19.208-.32.024-.128-.005-.263-.08-.373zM12.665 6.552c.59.545 1.28 1.352 1.59 2.103.47 1.14.455 2.02.202 2.27-.158.156-.543.12-1.057-.1-.055-.025-.096-.066-.112-.114l-1.08-3.138c.14-.247.313-.602.457-1.02zm-4.597 2.41c-2.13 0-3.863-1.732-3.863-3.862s1.733-3.863 3.863-3.863S11.93 2.97 11.93 5.1c0 .377-.096.808-.257 1.24-.25-.33-.588-.565-1-.65-.64-.13-1.338.1-1.777.592-.43.485-.552 1.147-.33 1.817l.256.772c-.266.054-.53.09-.754.09zm3.326 4.507l-1.88-5.685c-.108-.33-.064-.62.13-.837.202-.227.538-.337.828-.278.262.054.454.242.555.547l1.315 3.82c.108.313.35.57.663.706 1.18.507 1.822.222 2.153-.104.93-.915.252-2.807.022-3.364-.473-1.15-1.555-2.263-2.27-2.828.01-.115.02-.23.02-.347 0-.668-.136-1.305-.38-1.885 2.085 1.047 5.64 3.404 5.61 7.326-.027 3.376.066 4.846.206 5.52l-3.538 2.44c-1.84-2.015-3.185-4.277-3.434-5.03zm4.8 9.098l-1.774-2.57 5.53-3.815 1.775 2.57-5.53 3.815z"/></svg>