<svg xmlns="http://www.w3.org/2000/svg" width="24" height="24" viewBox="0 0 24 24"><path d="M12 .2C5.494.2.2 5.493.2 12c0 6.507 5.293 11.8 11.8 11.8 6.507 0 11.8-5.293 11.8-11.8C23.8 5.493 18.507.2 12 .2zm0 22.6C6.045 22.8 1.2 17.955 1.2 12S6.045 1.2 12 1.2 22.8 6.045 22.8 12 17.955 22.8 12 22.8z"/><path d="M12.4 11.662v-4.69c.71.146 1.36.54 1.8 1.128.166.222.48.265.7.1.22-.166.265-.48.1-.7-.63-.84-1.575-1.37-2.6-1.53V4.9c0-.276-.224-.5-.5-.5s-.5.224-.5.5v1.036c-1.85.18-3.3 1.567-3.3 3.264 0 2.046 2.247 2.878 3.3 3.2v4.65c-.95-.12-2.09-.626-2.865-1.322-.205-.184-.52-.167-.706.038s-.17.52.036.706c.956.86 2.354 1.482 3.534 1.603V19.2c0 .276.224.5.5.5s.5-.224.5-.5v-1.154c1.754-.258 3.1-1.61 3.1-3.247 0-1.924-1.987-2.774-3.1-3.138zM9.1 9.2c0-1.15 1.002-2.1 2.3-2.265v4.408C9.86 10.8 9.1 10.098 9.1 9.2zm3.3 7.84v-4.31c1.408.53 2.1 1.21 2.1 2.07 0 1.092-.9 2.005-2.1 2.24z"/></svg>