<svg xmlns="http://www.w3.org/2000/svg" width="24" height="24" viewBox="0 0 24 24"><path d="M11.978 18.916c2.707 0 4.91-2.202 4.91-4.91S14.684 9.1 11.977 9.1s-4.91 2.202-4.91 4.91 2.203 4.908 4.91 4.908zm0-8.82c2.155 0 3.91 1.754 3.91 3.91 0 2.155-1.755 3.91-3.91 3.91-2.156 0-3.91-1.755-3.91-3.91 0-2.155 1.754-3.91 3.91-3.91z"/><path d="M10.032 16.155c0 .276.224.5.5.5h.47v.246c0 .277.224.5.5.5s.5-.223.5-.5v-.245h.683c1.09-.013 1.658-.838 1.657-1.647 0-.432-.175-.875-.5-1.194.03-.038.07-.07.097-.11.29-.436.324-.99.085-1.45-.284-.548-.895-.872-1.686-.888H12v-.253c0-.276-.223-.5-.5-.5s-.5.224-.5.5v.253h-.47c-.275 0-.5.224-.5.5 0 .264.207.475.467.493v3.302c-.258.018-.465.23-.465.493zm2.647-.5H11.5V14.37h.935c.05.005.098.008.146.008.023 0 .042-.006.064-.007h.09c.592.007.608.574.608.64 0 .105-.03.637-.663.645zm.458-2.94c.07.134.06.3-.028.43-.114.17-.33.245-.606.226H11.5v-1.004h.83c.403.008.697.135.808.348z"/><path d="M23.443 6.958H1.99c-.582 0-1.074-.67-1.074-1.465s.492-1.465 1.075-1.465h21.454c.276 0 .5-.224.5-.5s-.224-.5-.5-.5H1.99c-1.143 0-2.074 1.106-2.074 2.465v13.452c0 1.145.93 2.075 2.075 2.075h21.454c.276 0 .5-.224.5-.5V7.458c0-.277-.224-.5-.5-.5zm-.5 13.062H1.99c-.592 0-1.074-.482-1.074-1.075V7.6c.313.228.682.358 1.075.358h20.954V20.02z"/><path d="M23.443 4.993H2.31c-.276 0-.5.224-.5.5s.224.5.5.5h21.134c.276 0 .5-.224.5-.5s-.224-.5-.5-.5z"/></svg>