<svg xmlns="http://www.w3.org/2000/svg" width="24" height="24" viewBox="0 0 24 24"><path d="M21.04 3v2c0 .276.225.5.5.5s.5-.224.5-.5V2.5c0-.276-.223-.5-.5-.5h-19c-.275 0-.5.224-.5.5V5c0 .276.225.5.5.5s.5-.224.5-.5V3h1.707l-.69 15.53c-.06.9.247 1.76.866 2.42C5.546 21.618 6.43 22 7.35 22h.003l8.903-.012h.387c.92-.002 1.805-.387 2.427-1.056.618-.664.923-1.525.86-2.413L19.18 3h1.86zm-5.758 0l.468 17.988-2.323.003V3h1.855zm-7.93 18H7.35c-.654 0-1.256-.26-1.697-.73-.428-.46-.64-1.052-.598-1.683L5.748 3h6.68v17.993L7.352 21zm11.58-2.42c.043.62-.167 1.213-.595 1.672-.415.446-.976.695-1.586.724L16.284 3h1.9l.748 15.58z"/><path d="M20.935 0H3.138C1.372 0 .04 1.34.04 3.117V4.91c0 1.64 1.202 3.015 2.793 3.195.277.023.522-.167.554-.44.03-.276-.167-.523-.44-.554C1.84 6.988 1.04 6.06 1.04 4.91V3.116C1.04 1.89 1.924 1 3.14 1h17.797c1.22 0 2.106.89 2.106 2.117V4.91c0 1.174-.808 2.102-1.922 2.205-.275.026-.478.27-.452.544.024.258.242.453.497.453.016 0 .03 0 .047-.002 1.614-.15 2.83-1.526 2.83-3.2V3.116C24.04 1.34 22.706 0 20.936 0z"/></svg>