<svg xmlns="http://www.w3.org/2000/svg" width="24" height="24" viewBox="0 0 24 24"><path d="M23.525 10.4c.255-.105.375-.397.27-.652-.106-.256-.397-.375-.654-.27l-4.13 1.718v-1.25l4.518-1.907c.023-.01.038-.028.058-.04.03-.02.06-.035.086-.06.028-.026.048-.058.07-.09.01-.017.028-.03.038-.05.003-.004.002-.01.004-.015.017-.036.023-.075.03-.115.006-.025.015-.05.016-.075 0-.032-.007-.064-.013-.097-.005-.032-.008-.065-.02-.095 0-.006 0-.013-.003-.02-.01-.023-.028-.04-.04-.06-.02-.03-.036-.06-.06-.086-.023-.025-.05-.042-.078-.06-.02-.016-.036-.036-.06-.048l-7.383-3.675c-.13-.064-.282-.07-.416-.013L.54 9.83c-.023.01-.04.03-.06.042-.03.018-.058.033-.083.056-.028.026-.047.056-.068.086-.014.02-.032.032-.043.053-.003.006-.002.012-.005.018-.015.033-.02.068-.028.104-.006.028-.016.056-.017.085 0 .03.007.057.01.086.006.037.01.073.022.107 0 .006 0 .012.003.018.004.01.016.015.02.025.034.067.082.123.143.17.016.013.03.026.047.037.01.006.017.016.028.022l7.28 3.654c.07.035.148.053.225.053.065 0 .13-.013.192-.038l4.778-1.987v1.262l-4.95 2.073-7.076-3.55c-.247-.126-.548-.025-.672.222s-.024.547.223.67l7.28 3.656c.07.035.148.053.225.053.065 0 .13-.014.193-.04l4.777-2v1.357l-4.95 2.053L.96 14.628c-.247-.125-.548-.023-.672.223-.124.248-.024.55.223.673l7.28 3.654c.07.035.148.053.225.053.065 0 .13-.013.19-.038l4.78-1.982v1.238l-4.95 2.058-7.077-3.552c-.246-.123-.547-.024-.67.223s-.025.548.222.672l7.28 3.653c.07.035.147.053.224.053.065 0 .13-.013.192-.038l5.472-2.275 9.846-4.093c.255-.106.375-.398.27-.654-.106-.254-.397-.372-.654-.27l-4.13 1.714v-1.227l4.517-1.893c.255-.106.374-.4.268-.654-.106-.254-.398-.375-.654-.268l-4.13 1.73v-1.35l4.515-1.877zm-7.592-5.946l6.203 3.087-3.603 1.52-6.05-3.158 3.45-1.448zm-7.9 8.942L1.93 10.332l4.19-1.76 6.158 3.06-4.244 1.764zm5.95 4.633V11.67v-.004c0-.063-.01-.127-.037-.19-.007-.016-.02-.026-.03-.042-.01-.02-.022-.036-.035-.054-.04-.057-.09-.102-.148-.136-.01-.006-.014-.017-.025-.023L7.337 8.06l3.946-1.655 6.726 3.51v6.441l-4.026 1.674z"/><path d="M14.52 9.365l-.04-.02c.052-.523-.173-.977-.656-1.22-.555-.276-1.244-.183-1.706.222-.148.122-.385.212-.608.1-.136-.067-.14-.117-.087-.224.02-.04.093-.052.17-.062.316.017.506-.21.513-.486.007-.276-.21-.505-.487-.513-.19.003-.362.047-.52.11l-.198-.098c-.247-.122-.547-.023-.67.224-.123.243-.026.536.213.663-.047.197-.062.396-.005.582.064.21.224.5.624.7.55.275 1.198.19 1.706-.235.14-.124.395-.192.608-.086.087.044.176.09.104.33-.003.01-.026.04-.078.064-.08.04-.172.043-.217.026-.257-.102-.547.03-.646.287-.1.257.03.547.288.646.133.052.278.077.427.077.2 0 .404-.046.59-.138.053-.026.087-.07.134-.1l.096.048c.072.036.148.053.224.053.183 0 .36-.1.447-.276.12-.25.022-.55-.226-.672z"/></svg>