<svg xmlns="http://www.w3.org/2000/svg" width="24" height="24" viewBox="0 0 24 24"><path d="M21.9 17.984V13.2c0-2.182-1.087-3.66-3-4.113V5.5c0-.276-.224-.5-.5-.5h-2c-.276 0-.5.224-.5.5s.224.5.5.5h1.5v3.5c0 .248.18.458.426.495 2.128.32 2.574 1.92 2.574 3.206v5.2c0 .277.224.5.5.5.53 0 1.5.772 1.5 1.1v2.1c0 .498-.656.9-1.2.9H2.1c-.502 0-1.2-.454-1.2-.9V20c0-.32 1.05-1.1 1.6-1.1.276 0 .5-.224.5-.5v-5.2c0-1.78.94-2.947 2.578-3.207C5.82 9.955 6 9.746 6 9.5V6h1.5c.276 0 .5-.224.5-.5S7.776 5 7.5 5h-2c-.276 0-.5.223-.5.5v3.592c-1.862.47-3 2.01-3 4.108v4.778c-.928.264-2.1 1.15-2.1 2.022v2.1c0 1.16 1.303 1.9 2.2 1.9h19.6c1.04 0 2.2-.78 2.2-1.9V20c0-.866-1.11-1.745-2-2.016zM11.5 4c.13 0 .26-.05.35-.15.1-.09.15-.22.15-.35 0-.14-.05-.27-.15-.35-.18-.19-.52-.19-.7-.01-.1.09-.15.22-.15.36 0 .13.05.26.15.36.1.09.22.14.35.14z"/><path d="M12.5 5h-1c-.276 0-.5.223-.5.5s.224.5.5.5h1c.276 0 .5-.224.5-.5s-.224-.5-.5-.5zM12.5 7h-1c-.276 0-.5.223-.5.5s.224.5.5.5h1c.276 0 .5-.224.5-.5s-.224-.5-.5-.5zM19.9 18.5c0-.276-.224-.5-.5-.5H4.5c-.276 0-.5.223-.5.5s.224.5.5.5h14.9c.277 0 .5-.224.5-.5z"/><path d="M8.4 10H15.6c.276 0 .5-.224.5-.5s-.224-.5-.5-.5H15V1.4c0-.132-.053-.26-.146-.354l-.8-.8c-.187-.187-.488-.196-.686-.02l-.548.487-.467-.467c-.187-.187-.488-.196-.686-.02l-.547.487-.467-.467c-.188-.188-.52-.187-.707 0l-.8.8C9.053 1.14 9 1.268 9 1.4V9h-.6c-.276 0-.5.223-.5.5s.224.5.5.5zM10 1.607l.3-.3.447.447c.188.188.49.196.686.02l.548-.487.467.467c.188.188.49.196.686.02l.548-.487.32.32V9h-4V1.607zM12 20.5c-.276 0-.5.224-.5.5s.224.5.5.5h.1c.276 0 .5-.224.5-.5s-.224-.5-.5-.5H12zM6.5 13h.1c.276 0 .5-.224.5-.5s-.224-.5-.5-.5h-.1c-.276 0-.5.223-.5.5s.224.5.5.5zM6.5 16h.1c.276 0 .5-.224.5-.5s-.224-.5-.5-.5h-.1c-.276 0-.5.223-.5.5s.224.5.5.5zM8.5 13h.1c.276 0 .5-.224.5-.5s-.224-.5-.5-.5h-.1c-.276 0-.5.223-.5.5s.224.5.5.5zM8.5 16h.1c.276 0 .5-.224.5-.5s-.224-.5-.5-.5h-.1c-.276 0-.5.223-.5.5s.224.5.5.5zM10.5 13h.1c.276 0 .5-.224.5-.5s-.224-.5-.5-.5h-.1c-.276 0-.5.224-.5.5s.224.5.5.5zM10.5 16h.1c.276 0 .5-.224.5-.5s-.224-.5-.5-.5h-.1c-.276 0-.5.224-.5.5s.224.5.5.5zM12.5 13h.1c.276 0 .5-.224.5-.5s-.224-.5-.5-.5h-.1c-.276 0-.5.224-.5.5s.224.5.5.5zM12.5 16h.1c.276 0 .5-.224.5-.5s-.224-.5-.5-.5h-.1c-.276 0-.5.224-.5.5s.224.5.5.5zM14.5 13h.1c.276 0 .45-.224.45-.5s-.274-.5-.55-.5-.5.223-.5.5.224.5.5.5zM14.5 16h.1c.276 0 .45-.224.45-.5s-.274-.5-.55-.5-.5.223-.5.5.224.5.5.5zM17.5 16c.276 0 .5-.224.5-.5s-.224-.5-.5-.5h-1c-.276 0-.5.224-.5.5s.224.5.5.5h1zM17.5 12h-1c-.276 0-.5.224-.5.5s.224.5.5.5h1c.276 0 .5-.224.5-.5s-.224-.5-.5-.5z"/></svg>