<svg xmlns="http://www.w3.org/2000/svg" width="24" height="24" viewBox="0 0 24 24"><path d="M23.61 13.753c0-2.19-1.528-4.02-3.57-4.513.35-.676.547-1.454.547-2.228 0-2.566-2.088-4.654-4.653-4.654-.046 0-.088.012-.133.013l-.17-.846c-.083-.443-.333-.828-.705-1.083-.37-.254-.82-.35-1.264-.266L6.72 1.47h-.005l-3.34.622-.005.002-1.36.253c-.445.082-.83.333-1.084.705s-.35.82-.267 1.264L4.032 22.41c.15.81.862 1.378 1.66 1.378.1 0 .205-.01.31-.03l1.862-.346 2.843-.53h.003l6.944-1.296c.443-.082.828-.332 1.083-.704s.35-.82.26-1.293l-.3-1.208c.087.005.17.026.26.026 2.564 0 4.652-2.09 4.652-4.655zm-1 0c0 2.015-1.64 3.654-3.654 3.654s-3.654-1.64-3.654-3.654 1.64-3.654 3.654-3.654 3.653 1.638 3.653 3.653zM19.586 7.01c0 .748-.235 1.49-.633 2.09-1.357 0-2.568.594-3.42 1.524-1.838-.223-3.254-1.763-3.254-3.612 0-2.015 1.64-3.654 3.654-3.654s3.653 1.64 3.653 3.653zM7.677 22.43L4.05 2.984l2.357-.44 3.626 19.445-2.357.438zm-1.86.347c-.374.07-.732-.178-.8-.55L1.64 4.132c-.034-.18.004-.364.108-.515.104-.15.26-.253.44-.287l.876-.163 3.626 19.445-.874.163zM18.022 19.8c.034.182-.004.364-.108.516-.104.15-.26.253-.44.287l-6.455 1.203L7.39 2.36l6.455-1.202c.18-.035.362.004.515.108.15.104.253.26.288.45l.16.795c-2.02.508-3.528 2.326-3.528 4.5 0 2.18 1.536 4.027 3.613 4.518-.365.664-.59 1.414-.59 2.224 0 2.097 1.402 3.854 3.313 4.434l.405 1.615z"/><path d="M18.532 11.228v.127c-.663.195-1.146.756-1.146 1.424 0 1.01 1.05 1.338 1.506 1.48.522.155.788.33.788.524 0 .272-.297.503-.647.503-.235 0-.674-.16-.972-.42-.208-.182-.523-.158-.704.05-.182.208-.16.523.05.705.31.272.73.48 1.127.586v.17c0 .277.224.5.5.5s.5-.223.5-.5v-.17c.663-.193 1.147-.755 1.147-1.424 0-1.04-1.134-1.373-1.498-1.48-.7-.22-.796-.39-.796-.525 0-.273.296-.504.646-.504.244 0 .465.107.577.28.15.23.458.294.69.145.232-.15.297-.46.147-.69-.207-.318-.538-.543-.915-.654v-.128c0-.276-.224-.5-.5-.5s-.5.224-.5.5zM15.504 9.166v.085c0 .277.224.5.5.5s.5-.223.5-.5v-.083c.608-.19 1.05-.714 1.05-1.335 0-.985-1.06-1.295-1.4-1.395-.7-.22-.7-.374-.7-.44 0-.226.253-.417.55-.417.206 0 .4.093.493.236.152.232.464.294.692.145.23-.15.295-.46.145-.69-.19-.29-.49-.496-.83-.604V4.58c0-.276-.224-.5-.5-.5s-.5.224-.5.5v.084c-.61.19-1.05.714-1.05 1.335 0 .955.98 1.262 1.41 1.396.313.092.688.243.688.438 0 .226-.25.417-.55.417-.207 0-.596-.142-.86-.372-.21-.182-.524-.16-.705.05-.182.207-.16.523.05.704.28.245.655.433 1.016.534z"/></svg>