<svg xmlns="http://www.w3.org/2000/svg" width="24" height="24" viewBox="0 0 24 24"><path d="M15.935 4.948c.554.01 1.238.137 1.543.664.26.453.382.864.5 1.26.19.653.39 1.328 1.2 1.773.077.042.16.062.24.062.178 0 .35-.094.44-.26.132-.242.043-.546-.2-.68-.43-.235-.533-.53-.723-1.176-.12-.41-.27-.92-.593-1.478-.604-1.05-1.86-1.19-2.672-1.163.336-.75 1.203-2.06 2.046-3.144.117-.15.14-.355.055-.526-.082-.17-.256-.28-.448-.28H6.754c-.19 0-.365.11-.45.28-.083.172-.062.376.055.527.868 1.116 1.767 2.48 2.078 3.214-1.03.04-1.345.275-1.998 1.026-.167.192-.37.424-.64.705-.92.953-1.536.486-1.653.38-.198-.187-.51-.18-.702.016-.193.198-.188.514.01.707.054.05.547.513 1.297.483.613-.01 1.208-.31 1.77-.89.285-.297.498-.543.673-.744.372-.428.518-.598.883-.66-1.604 2.434-6.032 9.546-5.906 13.698.048 1.558.976 3.616 5.126 4.573 2.284.527 4.512.482 4.74.478.047.003.165.005.34.005 1.338 0 5.998-.158 8.26-2.282.806-.758 1.23-1.686 1.265-2.758.13-4.212-4.426-11.474-5.968-13.807zM16.32 1c-.64.884-1.472 2.147-1.72 3.015H9.475c-.247-.868-1.08-2.13-1.72-3.015h8.567zm.25 21.343c-1.78.41-3.573.45-4.243.45-.38 0-.28-.002-.29-.002h-.015c-.022 0-2.265.063-4.5-.45-2.833-.654-4.297-1.875-4.35-3.63C3.04 14.482 8.33 6.45 9.3 5.014h5.475c.97 1.437 6.257 9.48 6.128 13.708-.053 1.752-1.51 2.97-4.334 3.62z"/><path d="M10.284 3.593h3.38c.275 0 .5-.224.5-.5s-.225-.5-.5-.5h-3.38c-.276 0-.5.224-.5.5s.223.5.5.5zM10.284 6.495h3.38c.275 0 .5-.224.5-.5s-.225-.5-.5-.5h-3.38c-.276 0-.5.224-.5.5s.223.5.5.5zM12.963 14.2v-2.52c.336.103.627.296.805.567.15.232.463.294.69.145.232-.15.297-.46.146-.692-.357-.547-.962-.913-1.64-1.04v-.85c0-.277-.225-.5-.5-.5s-.5.223-.5.5v.834c-1.13.21-1.984 1.11-1.984 2.188 0 1.275 1.17 1.817 1.983 2.096v2.53c-.485-.128-1.036-.405-1.42-.738-.207-.182-.522-.16-.704.05-.183.207-.16.523.048.704.577.502 1.37.87 2.076 1v.85c0 .276.224.5.5.5s.5-.224.5-.5v-.835c1.13-.21 1.983-1.11 1.983-2.19 0-1.29-1.25-1.854-1.984-2.1zm-1.983-1.368c0-.534.412-.985.983-1.156v2.178c-.693-.29-.983-.6-.983-1.022zm1.983 4.625v-2.182c.857.365.983.75.983 1.026 0 .534-.41.985-.983 1.157z"/></svg>