<svg xmlns="http://www.w3.org/2000/svg" width="24" height="24" viewBox="0 0 24 24"><path d="M23.308 10.71l-1.29-1.806.54-.555c.19-.197.19-.51-.004-.703l-7.4-7.4C15.06.153 14.934.1 14.8.1c-.134 0-.26.053-.355.148l-13.4 13.5c-.094.095-.146.222-.145.355s.055.26.15.354l5.983 5.886C7.373 22.07 11.293 23 15 23c3.878 0 8-1.017 8-2.9v-5.9c0-.027-.01-.05-.016-.077.004-.042.016-.08.016-.123 0-.635-.423-1.17-1.123-1.608L23.2 11.4c.218-.163.265-.47.108-.69zM14.8 1.307L21.5 8.004l-3.165 3.25C17.28 11.087 16.14 11 15 11c-3.976 0-8 1.03-8 3 0 .042.012.08.016.122-.005.026-.016.05-.016.078v4.707l-4.892-4.81L14.8 1.306zM22 17.2c0 .757-2.792 1.9-7 1.9s-7-1.144-7-1.9v-1.672c1.44.97 4.23 1.472 7 1.472s5.56-.502 7-1.472V17.2zM15 22c-4.208 0-7-1.144-7-1.9v-1.444c1.456.944 4.285 1.444 7 1.444s5.544-.5 7-1.445V20.1c0 .756-2.792 1.9-7 1.9zm0-6c-4.273 0-7-1.185-7-2s2.727-2 7-2c1.26 0 2.38.105 3.342.27.056.02.113.03.17.03.828.15 1.523.35 2.072.57.086.073.187.12.296.126.724.33 1.12.694 1.12 1.004 0 .815-2.727 2-7 2zm5.866-4.1c-.412-.16-.87-.297-1.362-.414l1.804-1.853.9 1.26-1.342 1.008z"/></svg>