<svg xmlns="http://www.w3.org/2000/svg" width="24" height="24" viewBox="0 0 24 24"><path d="M23.5 13H22V9.4c0-.276-.224-.5-.5-.5h-.53L20.08 6h1.42c.276 0 .5-.224.5-.5s-.224-.5-.5-.5h-1.728L18.378.454C18.34.327 18.252.22 18.135.16c-.118-.063-.253-.075-.382-.037L2.15 4.93C2.1 4.915 2.052 4.9 2 4.9.822 4.9-.1 5.998-.1 7.4c0 .024.005.047.006.07 0 .01-.006.02-.006.03V21c0 1.178.922 2.1 2.1 2.1h19.5c.276 0 .5-.223.5-.5V19h1.5c.276 0 .5-.224.5-.5v-5c0-.277-.224-.5-.5-.5zM17.57 1.225l1.368 4.462c0 .003 0 .006.003.01l.984 3.203H3.752L2.647 5.823 17.57 1.225zM1.643 5.988L2.69 8.9H2C1.394 8.9.9 8.227.9 7.4c0-.656.313-1.21.744-1.412zM21 22.1H2c-.627 0-1.1-.474-1.1-1.1V9.53c.32.23.692.37 1.1.37h19V13h-2c-1.683 0-3 1.317-3 3s1.317 3 3 3h2v3.1zm2-4.1h-4c-1.12 0-2-.88-2-2s.88-2 2-2h2.214c.082.06.177.1.286.1s.204-.04.286-.1H23v4z"/><path d="M19.05 15.65c-.1.09-.15.22-.15.35s.05.26.14.35c.1.1.23.15.36.15.13 0 .26-.05.36-.15.09-.09.14-.22.14-.35s-.05-.26-.15-.36c-.19-.18-.51-.18-.7.01z"/></svg>