<svg xmlns="http://www.w3.org/2000/svg" width="24" height="24" viewBox="0 0 24 24"><path d="M23.5 13h-1.6V9.4c0-.276-.224-.5-.5-.5H2C1.394 8.9.9 8.227.9 7.4S1.394 5.9 2 5.9h19.5c.276 0 .5-.224.5-.5s-.224-.5-.5-.5H2C.822 4.9-.1 5.998-.1 7.4c0 .024.005.047.006.07 0 .01-.006.02-.006.03V21c0 1.178.922 2.1 2.1 2.1h19.5c.276 0 .5-.223.5-.5V19h1.5c.276 0 .5-.224.5-.5v-5c0-.277-.224-.5-.5-.5zM21 22.1H2c-.627 0-1.1-.474-1.1-1.1V9.53c.32.23.692.37 1.1.37h18.9V13H19c-1.683 0-3 1.317-3 3s1.317 3 3 3h2v3.1zm2-4.1h-4c-1.12 0-2-.88-2-2s.88-2 2-2h2.115c.082.06.177.1.286.1s.205-.04.287-.1H23v4z"/><path d="M21.4 7H2.3c-.277 0-.5.223-.5.5s.223.5.5.5h19.1c.276 0 .5-.224.5-.5s-.223-.5-.5-.5zM19.05 15.65c-.1.09-.15.22-.15.35s.05.26.14.35c.1.1.23.15.36.15.13 0 .26-.05.36-.15.09-.09.14-.22.14-.35s-.05-.26-.15-.36c-.19-.18-.51-.18-.7.01z"/></svg>