<svg xmlns="http://www.w3.org/2000/svg" width="24" height="24" viewBox="0 0 24 24"><path d="M20.314 3.72C18.107 1.51 15.168.296 12.04.296S5.972 1.512 3.765 3.72c-4.563 4.562-4.563 11.987 0 16.55 2.207 2.206 5.145 3.42 8.274 3.42 3.13 0 6.067-1.215 8.274-3.422 4.563-4.562 4.563-11.987 0-16.55zm-.707.706c4.054 4.054 4.157 10.57.336 14.764l-1.758-1.758.91-5.452c.7-.67 1.142-1.61 1.142-2.653 0-2.03-1.65-3.683-3.682-3.683-1.83 0-3.342 1.347-3.624 3.1l-4.143-.71L4.843 4.09c1.972-1.798 4.504-2.793 7.197-2.793 2.862 0 5.55 1.11 7.567 3.13zM4.37 15.776l.195-1.158c.26.126.488.31.66.55.172.24.27.516.305.802l-1.16-.194zm1.668-1.19c-.33-.46-.782-.798-1.304-.986l.49-2.926c1.132-.02 2.147-.738 2.538-1.802l.542.093 2.256 2.256c-.182.19-.315.423-.367.692-.188.98.764 1.492 1.18 1.715.468.24.687.455.652.637-.05.256-.372.42-.702.354-.224-.043-.613-.276-.85-.578-.17-.22-.484-.26-.7-.086-.218.17-.257.484-.087.7.25.32.61.597.972.773l-.035.18c-.053.272.125.534.396.587.03.006.063.01.094.01.235 0 .444-.167.49-.406l.037-.193c.672-.07 1.242-.51 1.366-1.15.195-1.01-.838-1.542-1.17-1.712-.626-.338-.686-.514-.662-.64.013-.067.045-.126.09-.178l4.38 4.382c-.376.322-.672.733-.843 1.212l-8.254-1.38c-.007-.554-.18-1.092-.508-1.553zm-.645-4.93L5.586 8.5l1.156.198c-.26.524-.767.884-1.35.958zm7.523.1c.216 1.826 1.756 3.253 3.64 3.253.496 0 .968-.103 1.4-.282l-.478 2.87c-.327.007-.642.075-.94.186l-3.442-3.44c.2-.128.295-.378.202-.606-.14-.342-.416-.62-.756-.797l.022-.114c.053-.27-.125-.533-.396-.585-.273-.05-.533.126-.585.397l-.022.113c-.017.002-.035.002-.054.005L10.01 9.26l2.906.496zm3.64 2.253c-1.48 0-2.683-1.204-2.683-2.683s1.203-2.683 2.683-2.683c1.48 0 2.682 1.204 2.682 2.683s-1.204 2.682-2.682 2.682zm-.205 5.002l.764.763-.02.128-1.284-.214c.127-.268.313-.498.54-.678zm-4.31 5.68c-2.863 0-5.55-1.112-7.568-3.13C.418 15.51.315 8.992 4.137 4.797L7.08 7.74l-1.82-.31c-.132-.024-.265.007-.374.084s-.18.194-.203.325l-1.01 6.04-.372 2.224c-.044.272.14.53.412.575l2.224.37h.004l11.482 1.92c.027.005.055.007.082.007.104 0 .205-.032.29-.093.087-.062.143-.154.176-.254l1.266 1.266c-1.97 1.8-4.502 2.795-7.197 2.795z"/><path d="M17.125 8.976c.116.002.21-.022.3-.082.23-.152.295-.462.144-.692-.12-.18-.292-.313-.49-.4-.044-.23-.237-.41-.482-.41s-.44.18-.482.414c-.383.17-.653.527-.653.947 0 .725.742.957.995 1.036.15.043.23.082.26.092-.02.018-.06.04-.12.04-.076 0-.267-.07-.392-.18-.21-.18-.523-.16-.706.05-.18.208-.158.524.05.706.16.14.358.248.56.323.03.25.232.444.49.444.26 0 .468-.202.49-.457.378-.172.644-.525.644-.94 0-.39-.207-.69-.61-.89zm-.647-.24c.047-.043.233-.02.255.015.026.04.056.074.09.103l-.075-.023c-.16-.05-.24-.088-.27-.095z"/></svg>