<svg xmlns="http://www.w3.org/2000/svg" width="24" height="24" viewBox="0 0 24 24"><path d="M20.557 5.49l-7.927 7.127c-.408.367-1.072.367-1.48 0L3.22 5.49c-.205-.185-.52-.17-.706.036-.185.205-.168.52.037.706l7.927 7.128c.395.355.902.533 1.41.533.507 0 1.014-.178 1.41-.533l7.926-7.128c.206-.185.223-.5.038-.706s-.505-.222-.707-.037zM15.9 13.34c-.21-.173-.525-.146-.704.066-.176.212-.147.527.065.704l5.312 4.417c.093.077.206.115.32.115.143 0 .284-.062.384-.18.176-.213.147-.528-.065-.705L15.9 13.34zM7.878 13.34l-5.31 4.418c-.213.177-.242.492-.065.704.1.12.24.18.385.18.112 0 .226-.037.32-.114l5.31-4.417c.212-.176.24-.49.064-.703-.176-.213-.492-.243-.704-.066z"/><path d="M21.15 3H2.842C1.25 3 0 4.226 0 5.79v12.423C0 19.775 1.25 21 2.842 21H21.15c1.57 0 2.85-1.25 2.85-2.787V5.79C24 4.253 22.722 3 21.15 3zM23 18.213C23 19.215 22.188 20 21.15 20H2.842C1.81 20 1 19.215 1 18.213V5.79C1 4.787 1.81 4 2.842 4H21.15C22.188 4 23 4.786 23 5.79v12.423z"/></svg>