<svg xmlns="http://www.w3.org/2000/svg" width="24" height="24" viewBox="0 0 24 24"><path d="M18.458 14.9c-2.86-1.104-3.467-1.597-3.585-1.72v-.24c.33-.383.59-.868.765-1.418.23-.216.385-.51.43-.83.045-.324-.022-.646-.19-.92V8.684c0-1.667-1.066-2.663-2.85-2.663-1.76 0-2.852 1.02-2.852 2.663v1.087c-.168.275-.236.595-.19.92.043.32.197.613.428.83.173.55.435 1.034.765 1.42v.227c-.146.155-.787.65-3.584 1.73-.346.135-.57.464-.57.837v1.39c0 .493.4.895.89.895h10.222c.49 0 .89-.4.89-.896V15.74c0-.368-.228-.706-.57-.84zm-.432 2.12h-10v-1.214c3.563-1.383 4-1.94 4.13-2.354.015-.048.022-.098.022-.148v-.556c0-.13-.05-.256-.143-.35-.313-.32-.557-.77-.705-1.3-.03-.11-.1-.207-.193-.273-.088-.062-.147-.16-.162-.27-.01-.08-.004-.197.09-.31.07-.09.11-.202.11-.316V8.684c0-1.104.624-1.663 1.852-1.663 1.244 0 1.85.544 1.85 1.663V9.93c0 .114.04.225.112.314.092.115.1.232.088.31-.016.11-.074.21-.162.27-.095.067-.163.164-.194.275-.148.53-.393.98-.705 1.297-.09.094-.143.22-.143.35v.556c0 .05.008.102.022.15.13.413.57.97 4.13 2.353v1.215z"/><path d="M20.693-.002H4.307C3.587-.002 3 .585 3 1.306v.69H1.485c-.276 0-.5.224-.5.5s.224.5.5.5H3v2H1.485c-.276 0-.5.224-.5.5s.224.5.5.5H3v2H1.485c-.276 0-.5.224-.5.5s.224.5.5.5H3v2H1.485c-.276 0-.5.224-.5.5s.224.5.5.5H3v2H1.485c-.276 0-.5.224-.5.5s.224.5.5.5H3v2H1.485c-.276 0-.5.225-.5.5s.224.5.5.5H3v2H1.485c-.276 0-.5.225-.5.5s.224.5.5.5H3v1.693c0 .72.586 1.307 1.307 1.307h16.385c.72 0 1.308-.587 1.308-1.308V1.305c0-.72-.586-1.308-1.307-1.308zM21 22.69c0 .17-.138.308-.308.308H4.307c-.17 0-.307-.138-.307-.308v-1.692h.584c.276 0 .5-.224.5-.5s-.224-.5-.5-.5H4v-2h.584c.276 0 .5-.224.5-.5s-.224-.5-.5-.5H4v-2h.584c.276 0 .5-.225.5-.5s-.224-.5-.5-.5H4v-2h.584c.276 0 .5-.225.5-.5s-.224-.5-.5-.5H4v-2h.584c.276 0 .5-.225.5-.5s-.224-.5-.5-.5H4v-2h.584c.276 0 .5-.225.5-.5s-.224-.5-.5-.5H4v-2h.584c.276 0 .5-.225.5-.5s-.224-.5-.5-.5H4v-.69c0-.17.138-.31.307-.31h16.386c.17 0 .307.138.307.308V22.69z"/></svg>