<svg xmlns="http://www.w3.org/2000/svg" width="24" height="24" viewBox="0 0 24 24"><path d="M18.587.133c-1.22 0-2.357.606-3.02 1.533C14.902.74 13.763.133 12.546.133c-1.623 0-3.027 1.08-3.415 2.625-.255 1.008-.04 2.062.61 2.916l5.38 6.217c.095.11.23.173.376.174h.003c.144 0 .28-.06.375-.168l5.406-6.092c.533-.62.826-1.407.826-2.22 0-1.903-1.58-3.45-3.52-3.45zm1.94 5.013l-5.02 5.66-4.988-5.762c-.446-.585-.6-1.33-.42-2.042.277-1.1 1.283-1.87 2.445-1.87 1.156 0 2.248.773 2.54 1.797.06.213.257.362.48.362s.42-.148.48-.363c.293-1.025 1.385-1.797 2.54-1.797 1.39 0 2.52 1.1 2.52 2.452 0 .572-.206 1.13-.577 1.56zM16.035 18.998h-9c-.276 0-.5.224-.5.5s.224.5.5.5h9c.276 0 .5-.224.5-.5s-.223-.5-.5-.5zM16.035 15.998h-9c-.276 0-.5.224-.5.5s.224.5.5.5h9c.276 0 .5-.224.5-.5s-.223-.5-.5-.5zM11.036 12.998h-4c-.276 0-.5.224-.5.5s.224.5.5.5h4c.276 0 .5-.224.5-.5s-.224-.5-.5-.5z"/><path d="M19.47 11.018c-.275 0-.5.224-.5.5V22.79c0 .108-.09.196-.202.196H4.165c-.112 0-.203-.088-.203-.196V4.167c0-.108.09-.196.203-.196h3.41c.275 0 .5-.223.5-.5s-.225-.5-.5-.5h-3.41c-.663 0-1.203.538-1.203 1.197V22.79c0 .66.54 1.196 1.203 1.196h14.603c.663 0 1.203-.537 1.203-1.196V11.518c0-.277-.223-.5-.5-.5z"/></svg>