<svg xmlns="http://www.w3.org/2000/svg" width="24" height="24" viewBox="0 0 24 24"><path d="M17.34 13.465c-.373-.38-.972-.39-1.37-.02l-.093.092c-1.083 1.063-1.335 1.296-1.32 1.296-.135.078-.824-.104-2.01-1.11C10.634 12.1 9.47 10.175 9.56 9.83l1.464-1.434c.187-.184.29-.43.292-.692.002-.262-.098-.508-.28-.69L6.25 2.133c-.375-.387-.996-.394-1.385-.016-.158.155-.322.31-.488.467C3.192 3.703 1.85 4.97 1.81 7.06c-.05 2.503 1.79 5.566 5.786 9.642 4.022 4.103 7.066 6.018 9.57 6.017h.074c2.15-.034 3.49-1.49 4.672-2.772l.252-.272c.358-.384.35-.98-.02-1.356l-4.803-4.855zm3.837 5.804c-1.097 1.19-2.23 2.422-3.952 2.448-2.158.025-5.11-1.836-8.915-5.716-3.744-3.82-5.543-6.737-5.5-8.923.032-1.67 1.162-2.737 2.254-3.77.17-.16.34-.32.472-.48l4.788 4.852L8.848 9.13c-.524.552-.254 1.55.803 2.967 1.077 1.442 3.925 4.36 5.358 3.63.097-.05.137-.07 1.57-1.478l.067-.067 4.787 4.81-.255.276zM22.948 6.05h-3.976V2.072c0-.276-.224-.5-.5-.5s-.5.224-.5.5V6.05h-3.976c-.276 0-.5.223-.5.5s.224.5.5.5h3.976v3.975c0 .276.224.5.5.5s.5-.224.5-.5V7.05h3.976c.276 0 .5-.225.5-.5s-.223-.5-.5-.5z"/></svg>