<svg xmlns="http://www.w3.org/2000/svg" width="24" height="24" viewBox="0 0 24 24"><path d="M22.193 15.43l-4.427-4.47c-.304-.308-.858-.47-1.43.09l-.224.217c-.37.36-.933.913-.956.946-.076.034-.627-.022-1.78-.992-1.766-1.486-2.833-3.23-2.78-3.553l1.35-1.32c.18-.177.278-.414.28-.666.002-.25-.094-.487-.27-.664L7.55.52C7.19.15 6.59.143 6.216.507c-.148.145-.302.29-.46.438-1.092 1.027-2.33 2.192-2.37 4.13C3.34 7.396 5.04 10.23 8.732 14c1.79 1.822 5.396 5.5 8.82 5.5.893 0 1.77-.27 2.604-.868.092.757-.006 2.046-1.296 3.337-.672.67-1.466.8-2.01.78-1-.027-2.022-.518-2.748-1.327l-7.39-7.578c-.698-.565-2.415-1.26-3.913.148-.006.004-.08.075-.084.08-.585.583-.908 1.358-.91 2.185 0 .826.32 1.602.904 2.185l2.58 2.58c.196.196.513.196.708 0s.195-.51 0-.706l-2.58-2.58c-.395-.396-.612-.92-.61-1.478s.218-1.084.672-1.534c1.213-1.143 2.464-.213 2.558-.144l7.333 7.523c.893.995 2.183 1.61 3.452 1.644h.114c1.02 0 1.926-.37 2.63-1.074 1.976-1.977 1.682-3.995 1.46-4.782.395-.384 1.147-1.12 1.184-1.158.346-.37.338-.94-.017-1.305zm-4.783-4.118l-.355.35c-.002 0-.005-.003-.006-.004l.36-.346zm2.703 6.074l-.084.08c-3.004 2.813-7.232-.752-10.584-4.168C6 9.783 4.346 7.1 4.386 5.096c.03-1.52 1.06-2.487 2.056-3.423.163-.152.323-.303.392-.454l4.412 4.413-1.36 1.334c-.498.525-.25 1.46.733 2.78.996 1.34 3.63 4.044 4.987 3.36.042-.02.15-.097.184-.13.07-.062.647-.625 1.023-.995l.224-.218c.025-.025.047-.043.063-.056l4.388 4.337c-.072.073-1.293 1.265-1.375 1.34z"/></svg>