<svg xmlns="http://www.w3.org/2000/svg" width="24" height="24" viewBox="0 0 24 24"><path d="M15.838-.002h-7.52C3.91-.002.187 4.13.187 9.023c0 4.5 2.95 7.955 5.926 8.873v5.382c0 .194.113.37.29.453.066.032.138.048.21.048.116 0 .23-.04.322-.118l6.715-5.662h2.188c4.3 0 7.932-4.12 7.932-9s-3.632-9-7.932-9zm0 17h-2.37c-.117 0-.23.042-.32.118l-6.033 5.086v-4.688c0-.232-.16-.434-.386-.487-2.724-.638-5.54-3.806-5.54-8.003C1.19 4.75 4.52 1 8.317 1h7.52c3.76 0 6.933 3.663 6.933 8s-3.174 7.998-6.932 7.998z"/><path d="M6.784 6.79c-1.15 0-2.087.95-2.087 2.118 0 1.17.936 2.12 2.087 2.12s2.087-.95 2.087-2.12c0-1.168-.935-2.12-2.086-2.12zm0 3.238c-.6 0-1.087-.502-1.087-1.12s.488-1.12 1.087-1.12 1.087.503 1.087 1.12-.487 1.12-1.086 1.12zM11.765 6.79c-1.15 0-2.087.95-2.087 2.118 0 1.17.936 2.12 2.087 2.12s2.087-.95 2.087-2.12c0-1.168-.936-2.12-2.087-2.12zm0 3.238c-.6 0-1.087-.502-1.087-1.12s.488-1.12 1.087-1.12c.6 0 1.087.503 1.087 1.12s-.487 1.12-1.087 1.12zM16.746 6.79c-1.15 0-2.087.95-2.087 2.118 0 1.17.936 2.12 2.086 2.12s2.087-.95 2.087-2.12c0-1.168-.937-2.12-2.087-2.12zm0 3.238c-.6 0-1.087-.502-1.087-1.12s.486-1.12 1.086-1.12 1.087.503 1.087 1.12-.487 1.12-1.087 1.12z"/></svg>