<svg xmlns="http://www.w3.org/2000/svg" width="24" height="24" viewBox="0 0 24 24"><path d="M21.708 15.35c-.52-.937-1.373-1.618-2.405-1.915l-2.413-.692c-.67-.256-.735-.608-.757-.724-.154-.84.878-2.393 2.65-3.978 1.105-1.113 1.53-2.688 1.133-4.213-.396-1.523-1.533-2.692-3.043-3.126-1.604-.458-3.247-.016-4.4 1.193-1.14 1.194-1.52 2.9-1.003 4.42.55 2.124.556 3.8.012 4.377-.078.084-.318.34-.978.21l-2.457-.708c-2.127-.612-4.358.622-4.97 2.75-.077.267.076.544.342.62l.46.132-.35 1.215c-.076.265.077.542.342.618l16.138 4.64c.046.015.092.02.138.02.218 0 .417-.142.48-.36l.35-1.212.457.132c.047.014.093.02.14.02.217 0 .416-.143.48-.36.296-1.034.173-2.12-.347-3.06zM7.77 11.16l2.5.717c1.028.202 1.62-.157 1.94-.495 1.096-1.163.613-3.83.217-5.35-.414-1.22-.126-2.506.768-3.444.892-.933 2.163-1.276 3.4-.922 1.167.336 2.046 1.24 2.353 2.416.307 1.18-.02 2.397-.853 3.236-.993.887-3.267 3.14-2.946 4.883.085.464.395 1.098 1.423 1.49l2.453.705c.775.223 1.417.734 1.807 1.44.308.555.423 1.18.35 1.8l-.4-.117c-.005 0-.007-.004-.01-.005l-15.27-4.39-1.28-.368c.626-1.3 2.113-2.008 3.548-1.597zm12.035 7.913L4.63 14.71l.21-.732 3.392.976 11.783 3.39-.21.73zM20.003 23h-17c-.276 0-.5.224-.5.5s.224.5.5.5h17c.276 0 .5-.224.5-.5s-.224-.5-.5-.5z"/></svg>