<svg xmlns="http://www.w3.org/2000/svg" width="24" height="24" viewBox="0 0 24 24"><path d="M21.512.032H1.547c-.276 0-.5.224-.5.5v22.966c0 .276.224.5.5.5h16.937c.276 0 .5-.224.5-.5v-16.5h2.528c.276 0 .5-.223.5-.5V.533c0-.276-.224-.5-.5-.5zM21.012 6h-2.528c-.276 0-.5.223-.5.5v16.498H2.047V1.032h18.965V6z"/><path d="M14.502 18.998H5.478c-.276 0-.5.224-.5.5s.224.5.5.5h9.024c.276 0 .5-.224.5-.5s-.224-.5-.5-.5zM14.502 15.998H5.478c-.276 0-.5.224-.5.5s.224.5.5.5h9.024c.276 0 .5-.224.5-.5s-.224-.5-.5-.5zM4.978 13.498c0 .276.224.5.5.5h9.024c.276 0 .5-.224.5-.5s-.224-.5-.5-.5H5.478c-.277 0-.5.223-.5.5zM21.495 16.998h-1.012c-.276 0-.5.224-.5.5s.224.5.5.5h.512v5h-.512c-.276 0-.5.224-.5.5s.224.5.5.5h1.012c.276 0 .5-.224.5-.5v-6c0-.277-.224-.5-.5-.5zM21.495 8.998h-1.012c-.276 0-.5.224-.5.5s.224.5.5.5h.512v5h-.512c-.276 0-.5.224-.5.5s.224.5.5.5h1.012c.276 0 .5-.224.5-.5v-6c0-.277-.224-.5-.5-.5zM5.292 9.983c.06.024.124.036.186.036.198 0 .386-.12.464-.315l.504-1.262h2.05l.505 1.262c.103.257.396.38.65.28.257-.104.382-.395.28-.65l-.634-1.587-1.36-3.405c-.152-.38-.777-.38-.93 0l-1.993 4.99c-.102.256.023.547.28.65zm2.18-4.107l.625 1.566h-1.25l.624-1.566z"/></svg>