<svg xmlns="http://www.w3.org/2000/svg" width="24" height="24" viewBox="0 0 24 24"><path d="M11.46 4.998H7.684c-.356 0-.646.294-.646.657v3.683c0 .362.29.657.645.657h1.363c-.01.476-.058.98-.27 1.19-.054.056-.156.13-.398.13-.356 0-.646.294-.646.657v1.324c0 .362.29.657.646.657 2.472 0 3.726-1.665 3.726-4.95V5.656c-.002-.363-.29-.657-.647-.657zm-.356 4.006c0 3.178-1.2 3.84-2.37 3.936v-.656c.296-.056.548-.187.75-.39.567-.568.566-1.53.565-2.4 0-.275-.225-.5-.5-.5H8.04V6h3.065v3.006zM17.34 4.998h-3.774c-.356 0-.646.294-.646.657v3.683c0 .362.29.657.646.657h1.362c-.01.476-.058.98-.27 1.19-.055.056-.156.13-.398.13-.355 0-.646.294-.646.657v1.324c0 .362.29.657.646.657 2.472 0 3.726-1.665 3.726-4.95V5.656c0-.363-.29-.657-.646-.657zm-.355 4.006c0 3.178-1.2 3.84-2.37 3.936v-.656c.296-.056.548-.187.75-.39.567-.568.566-1.53.565-2.4 0-.275-.224-.5-.5-.5h-1.512V6h3.066v3.006z"/><path d="M15.862-.002h-7.52C3.934-.002.21 4.13.21 9.023c0 4.5 2.95 7.955 5.926 8.873v5.382c0 .194.113.37.29.453.066.032.138.048.21.048.116 0 .23-.04.322-.118l6.715-5.662h2.187c4.3 0 7.93-4.12 7.93-9s-3.63-9-7.93-9zm0 17h-2.37c-.117 0-.23.042-.32.118l-6.034 5.087v-4.688c0-.232-.16-.434-.386-.487-2.723-.638-5.54-3.806-5.54-8.003C1.212 4.75 4.542 1 8.342 1h7.52c3.757 0 6.93 3.664 6.93 8s-3.173 7.998-6.93 7.998z"/></svg>