<svg xmlns="http://www.w3.org/2000/svg" width="24" height="24" viewBox="0 0 24 24"><path d="M23.443 7.978L12.793.325c-.456-.328-1.07-.328-1.525 0L.582 7.98C.217 8.24 0 8.63 0 9.015v.022c-.004.028 0 .055 0 .083v12.61C0 22.42.634 23 1.384 23H22.66c.8 0 1.34-.65 1.34-1.255V9.015c0-.396-.208-.783-.557-1.037zM11.85 1.138c.053-.04.117-.057.18-.057s.13.02.18.057L22.86 8.79c.017.012.028.03.043.046l-10.88 5.91-10.93-5.884c.023-.024.04-.048.07-.07l10.688-7.655zM22.66 22H1.383C1.187 22 1 21.848 1 21.73V9.948l10.785 5.807c.074.04.155.06.237.06.082 0 .164-.02.24-.06L23 9.92v11.825c0 .07-.104.255-.34.255z"/></svg>