<svg xmlns="http://www.w3.org/2000/svg" width="24" height="24" viewBox="0 0 24 24"><path d="M15.084 5.998h-6.15c-.524 0-.934.38-.934.867v5.196c0 .537.492.938.932.938h6.15c.498 0 .918-.43.918-.938V6.865c0-.427-.343-.867-.916-.867zm-.084 6l-6 .063V7h6v5z"/><path d="M17.658 2.998h-8.12L9.23 1.412C9.12.632 8.433.042 7.638.042H6.62c-.887 0-1.61.717-1.61 1.598v20.897c0 .77.63 1.396 1.408 1.396h11.24c.777 0 1.408-.626 1.408-1.396V4.394c0-.77-.63-1.396-1.408-1.396zm.407 19.54c0 .22-.183.396-.407.396H6.418c-.226 0-.41-.178-.41-.396V1.64c0-.328.275-.596.612-.596h1.016c.302 0 .562.22.608.535L8.63 3.59c.046.236.252.406.492.406h8.535c.225 0 .407.178.407.396v18.144z"/><path d="M9.46 15H8.5c-.276 0-.5.223-.5.5s.224.5.5.5h.96c.276 0 .5-.225.5-.5s-.223-.5-.5-.5zM9.46 17H8.5c-.276 0-.5.223-.5.5s.224.5.5.5h.96c.276 0 .5-.225.5-.5s-.223-.5-.5-.5zM9.46 19H8.5c-.276 0-.5.223-.5.5s.224.5.5.5h.96c.276 0 .5-.225.5-.5s-.223-.5-.5-.5zM12.46 15h-.96c-.276 0-.5.223-.5.5s.224.5.5.5h.96c.276 0 .5-.225.5-.5s-.223-.5-.5-.5zM12.46 17h-.96c-.276 0-.5.223-.5.5s.224.5.5.5h.96c.276 0 .5-.225.5-.5s-.223-.5-.5-.5zM12.46 19h-.96c-.276 0-.5.223-.5.5s.224.5.5.5h.96c.276 0 .5-.225.5-.5s-.223-.5-.5-.5zM15.46 15h-.96c-.275 0-.5.223-.5.5s.225.5.5.5h.96c.277 0 .5-.225.5-.5s-.223-.5-.5-.5zM15.46 17h-.96c-.275 0-.5.223-.5.5s.225.5.5.5h.96c.277 0 .5-.225.5-.5s-.223-.5-.5-.5zM15.46 19h-.96c-.275 0-.5.223-.5.5s.225.5.5.5h.96c.277 0 .5-.225.5-.5s-.223-.5-.5-.5z"/></svg>