<svg xmlns="http://www.w3.org/2000/svg" width="24" height="24" viewBox="0 0 24 24"><path d="M18.983 10.003V8.066c0-3.856-3.138-6.994-6.995-6.994-3.856 0-6.994 3.138-6.994 6.994v1.937C3.884 10.07 3 10.867 3 11.85v4.287c0 1.024.96 1.858 2.14 1.858h1.332c.276 0 .5-.224.5-.5V10.49c0-.276-.224-.5-.5-.5h-.477V8.066c0-3.305 2.69-5.994 5.994-5.994s5.994 2.69 5.994 5.994V9.99h-.482c-.276 0-.5.224-.5.5v7.005c0 .276.224.5.5.5h1.332c.083 0 .162-.013.242-.02-.283 2.31-1.525 3.222-4.527 3.393-.2-.363-.57-.62-1.013-.62h-1.424c-.644 0-1.167.523-1.167 1.167s.523 1.167 1.167 1.167h1.424c.48 0 .892-.292 1.07-.707 3.138-.173 5.26-1.122 5.516-4.764.513-.34.85-.87.85-1.472V11.85c0-.98-.88-1.778-1.99-1.847zm-13.01 6.992H5.14c-.618 0-1.14-.394-1.14-.858V11.85c0-.466.522-.86 1.14-.86h.832v6.005zm7.563 5.087h-1.424c-.092 0-.167-.075-.167-.167s.075-.167.167-.167h1.424c.092 0 .167.075.167.167s-.075.167-.167.167zM18 16.995V10.99h.833c.618 0 1.14.394 1.14.86v4.287c0 .465-.52.858-1.14.858H18z"/></svg>