<svg xmlns="http://www.w3.org/2000/svg" width="24" height="24" viewBox="0 0 24 24"><path d="M19.647-.002H4.335C3.61-.002 3 .6 3 1.312v5.186c0 .276.224.5.5.5h1.19c.265 0 .488.23.488.5s-.223.5-.487.5H3.5c-.276 0-.5.224-.5.5v3c0 .276.224.5.5.5h1.19c.265 0 .488.23.488.5s-.223.5-.487.5H3.5c-.276 0-.5.224-.5.5v3c0 .276.224.5.5.5h1.19c.265 0 .488.23.488.5s-.223.5-.487.5H3.5c-.276 0-.5.224-.5.5v4.177c0 .717.61 1.323 1.335 1.323h15.312c.72 0 1.353-.618 1.353-1.323V1.312c0-.712-.62-1.314-1.353-1.314zM20 22.675c0 .16-.178.323-.353.323H4.335c-.17 0-.335-.16-.335-.323v-3.677h.69c.82 0 1.488-.673 1.488-1.5s-.667-1.5-1.487-1.5H4v-2h.69c.82 0 1.488-.673 1.488-1.5s-.667-1.5-1.487-1.5H4v-2h.69c.82 0 1.488-.673 1.488-1.5s-.667-1.5-1.487-1.5H4V1.312c0-.162.163-.314.335-.314h15.312c.175 0 .353.158.353.314v21.363z"/><path d="M15.373 12.602c-.134-.16-.33-.258-.54-.27-.19-.01-.415.07-.57.22-.15.15-.395.312-.54.366-.17-.163-.595-.64-1.65-2.025l-.08-.097c-.034-.075-.023-.37.425-.83.244-.252.28-.647.09-.937L10.77 6.36c-.204-.312-.6-.427-.93-.278-1.03.443-1.758 1.23-2.05 2.216-.23.778-.29 2.027.772 3.61l2.853 3.596c.718.996 1.94 1.745 3.392 1.745.83 0 1.735-.244 2.664-.828.188-.117.313-.31.346-.525.032-.217-.03-.436-.17-.597l-2.273-2.698zm-3.16 2.3l-2.856-3.598c-.64-.958-.85-1.9-.608-2.72.187-.636.644-1.16 1.302-1.494l1.514 2.325c-.934 1.066-.475 1.83-.396 1.945l.107.14c1.815 2.38 2.002 2.402 2.256 2.43.48.053.97-.276 1.237-.493l1.924 2.283c-1.918 1.067-3.612.388-4.482-.817z"/></svg>