<svg xmlns="http://www.w3.org/2000/svg" width="24" height="24" viewBox="0 0 24 24"><path d="M3.954.837c-1.72 0-3.12 1.4-3.12 3.12s1.4 3.118 3.12 3.118 3.12-1.4 3.12-3.12S5.673.838 3.953.838zm0 5.238c-1.168 0-2.12-.95-2.12-2.12s.952-2.118 2.12-2.118 2.12.95 2.12 2.12-.95 2.118-2.12 2.118zM11.99.837c-1.72 0-3.118 1.4-3.118 3.12s1.4 3.118 3.12 3.118 3.118-1.4 3.118-3.12S13.71.838 11.99.838zm0 5.238c-1.167 0-2.118-.95-2.118-2.12s.95-2.118 2.12-2.118c1.168 0 2.118.95 2.118 2.12s-.95 2.118-2.12 2.118zM20.028 7.075c1.72 0 3.12-1.4 3.12-3.12s-1.4-3.118-3.12-3.118-3.12 1.4-3.12 3.12 1.4 3.118 3.12 3.118zm0-5.238c1.17 0 2.12.95 2.12 2.12s-.95 2.118-2.12 2.118-2.12-.95-2.12-2.12.95-2.118 2.12-2.118zM3.954 8.874c-1.72 0-3.12 1.4-3.12 3.12 0 1.718 1.4 3.118 3.12 3.118s3.12-1.4 3.12-3.12c0-1.718-1.4-3.118-3.12-3.118zm0 5.238c-1.168 0-2.12-.95-2.12-2.12s.952-2.118 2.12-2.118 2.12.95 2.12 2.12-.95 2.118-2.12 2.118zM11.99 8.874c-1.72 0-3.118 1.4-3.118 3.12 0 1.718 1.4 3.118 3.12 3.118s3.118-1.4 3.118-3.12c0-1.718-1.4-3.118-3.12-3.118zm0 5.238c-1.167 0-2.118-.95-2.118-2.12s.95-2.118 2.12-2.118c1.168 0 2.118.95 2.118 2.12s-.95 2.118-2.12 2.118zM20.028 8.874c-1.72 0-3.12 1.4-3.12 3.12 0 1.718 1.4 3.118 3.12 3.118s3.12-1.4 3.12-3.12c0-1.718-1.4-3.118-3.12-3.118zm0 5.238c-1.17 0-2.12-.95-2.12-2.12s.95-2.118 2.12-2.118 2.12.95 2.12 2.12-.95 2.118-2.12 2.118zM3.954 16.912c-1.72 0-3.12 1.4-3.12 3.12s1.4 3.117 3.12 3.117 3.12-1.4 3.12-3.12-1.4-3.118-3.12-3.118zm0 5.237c-1.168 0-2.12-.95-2.12-2.12 0-1.168.952-2.118 2.12-2.118s2.12.95 2.12 2.12c0 1.167-.95 2.117-2.12 2.117zM11.99 16.912c-1.72 0-3.118 1.4-3.118 3.12s1.4 3.117 3.12 3.117 3.118-1.4 3.118-3.12-1.4-3.118-3.12-3.118zm0 5.237c-1.167 0-2.118-.95-2.118-2.12 0-1.168.95-2.118 2.12-2.118 1.168 0 2.118.95 2.118 2.12 0 1.167-.95 2.117-2.12 2.117zM20.028 16.912c-1.72 0-3.12 1.4-3.12 3.12s1.4 3.117 3.12 3.117 3.12-1.4 3.12-3.12-1.4-3.118-3.12-3.118zm0 5.237c-1.17 0-2.12-.95-2.12-2.12 0-1.168.95-2.118 2.12-2.118s2.12.95 2.12 2.12c0 1.167-.95 2.117-2.12 2.117z"/></svg>