<svg xmlns="http://www.w3.org/2000/svg" width="24" height="24" viewBox="0 0 24 24"><path d="M21.517.032H1.552c-.276 0-.5.224-.5.5v22.966c0 .276.224.5.5.5H18.49c.275 0 .5-.224.5-.5v-16.5h2.527c.276 0 .5-.223.5-.5V.533c0-.276-.224-.5-.5-.5zM21.017 6H18.49c-.277 0-.5.223-.5.5v16.498H2.05V1.032h18.965V6z"/><path d="M5.482 19.998h9.024c.276 0 .5-.224.5-.5s-.224-.5-.5-.5H5.482c-.276 0-.5.224-.5.5s.224.5.5.5zM5.482 16.998h9.024c.276 0 .5-.224.5-.5s-.224-.5-.5-.5H5.482c-.276 0-.5.224-.5.5s.224.5.5.5zM21.5 16.998h-1.012c-.276 0-.5.224-.5.5s.224.5.5.5H21v5h-.512c-.276 0-.5.224-.5.5s.224.5.5.5H21.5c.276 0 .5-.224.5-.5v-6c0-.277-.224-.5-.5-.5zM21.5 8.998h-1.012c-.276 0-.5.224-.5.5s.224.5.5.5H21v5h-.512c-.276 0-.5.224-.5.5s.224.5.5.5H21.5c.276 0 .5-.224.5-.5v-6c0-.277-.224-.5-.5-.5zM5.804 13.998h8.448c.453 0 .82-.37.82-.823V12.04c0-.34-.21-.65-.527-.77-2.258-.864-2.794-1.26-2.903-1.35v-.13c.266-.315.477-.705.62-1.144.197-.19.328-.443.366-.718.04-.28-.017-.554-.158-.792v-.862c0-1.42-.913-2.268-2.44-2.268-1.507 0-2.443.87-2.443 2.268v.862c-.14.238-.197.513-.16.79.04.276.17.53.367.72.143.438.355.828.62 1.143v.11c-.15.14-.726.538-2.903 1.37-.315.122-.527.43-.527.77v1.135c0 .454.368.823.82.823zm.178-1.838c2.93-1.128 3.292-1.587 3.41-1.96.014-.05.022-.1.022-.15v-.455c0-.132-.052-.258-.145-.352-.248-.25-.44-.604-.56-1.022-.03-.11-.1-.207-.195-.272-.052-.037-.087-.094-.096-.158-.007-.046-.003-.114.052-.18.074-.09.114-.203.114-.318V6.274c0-.84.485-1.268 1.442-1.268.983 0 1.44.403 1.44 1.268V7.29c0 .117.04.23.115.318.056.068.06.137.054.182-.01.063-.044.12-.096.157-.094.066-.164.163-.195.275-.118.418-.312.77-.56 1.02-.092.095-.144.22-.144.353v.454c0 .05.01.1.024.15.118.372.48.83 3.41 1.96v.837H5.98v-.837z"/></svg>