<svg xmlns="http://www.w3.org/2000/svg" width="24" height="24" viewBox="0 0 24 24"><path d="M15.848-.002h-7.52C3.92-.002.197 4.13.197 9.023c0 4.5 2.95 7.955 5.926 8.873v5.382c0 .194.113.37.29.453.066.032.138.048.21.048.116 0 .23-.04.322-.118l6.715-5.662h2.188c4.3 0 7.93-4.12 7.93-9s-3.632-9-7.93-9zm0 17h-2.37c-.117 0-.23.042-.32.118l-6.033 5.086v-4.688c0-.232-.16-.434-.386-.487C4.015 16.39 1.2 13.22 1.2 9.024 1.2 4.75 4.53 1 8.327 1h7.52c3.758 0 6.932 3.663 6.932 8s-3.176 7.998-6.932 7.998z"/><path d="M16.904 5.428c-.6-.612-1.398-.95-2.247-.95-.85 0-1.647.338-2.247.95l-.273.278-.273-.278c-1.2-1.224-3.295-1.223-4.493 0-1.23 1.256-1.23 3.3 0 4.557l4.41 4.498c.094.097.223.15.357.15s.263-.054.357-.15l4.41-4.5c1.23-1.254 1.23-3.298 0-4.555zm-.715 3.857l-4.053 4.135-4.052-4.135c-.853-.87-.853-2.286 0-3.156.41-.42.955-.65 1.533-.65.58 0 1.123.23 1.533.65l.63.642c.19.19.527.19.715 0l.63-.643c.41-.42.953-.65 1.53-.65h.002c.578 0 1.122.23 1.532.65.852.87.852 2.285 0 3.155z"/></svg>