<svg xmlns="http://www.w3.org/2000/svg" width="24" height="24" viewBox="0 0 24 24"><path d="M15.84 13.873c-.122-.358-.488-.644-1.037-.46l-.12.04c-.185.06-.556.184-.753.245-.485-.366-1.225-2.63-1.07-3.266l.952-.313c.4-.134.616-.566.484-.964L13.12 5.584c-.085-.26-.246-.386-.366-.447-.285-.145-.57-.05-.766.015l-.29.092c-.812.252-1.822.566-2.382 1.654-.662 1.285-.503 3.3.5 6.345 1.018 3.095 2.103 4.826 3.414 5.447.405.19.8.266 1.18.266.706 0 1.368-.256 1.978-.49l.188-.073c.384-.144.585-.562.456-.956l-1.193-3.564zm-2.183 3.913c-1.018-.48-1.99-2.115-2.893-4.855-.888-2.696-1.076-4.572-.56-5.574.368-.715 1.06-.93 1.79-1.157l.248-.08 1.03 3.125-.864.284c-.77.283-.543 1.503-.47 1.904.158.854.86 3.285 1.985 3.285h.01c.093-.003.11-.004 1.03-.307l1.046 3.126c-.817.314-1.585.61-2.353.246z"/><path d="M20.697-.002H4.312c-.72 0-1.307.587-1.307 1.308v.69H1.49c-.276 0-.5.224-.5.5s.224.5.5.5h1.515v2H1.49c-.276 0-.5.224-.5.5s.224.5.5.5h1.515v2H1.49c-.276 0-.5.224-.5.5s.224.5.5.5h1.515v2H1.49c-.276 0-.5.224-.5.5s.224.5.5.5h1.515v2H1.49c-.276 0-.5.224-.5.5s.224.5.5.5h1.515v2H1.49c-.276 0-.5.225-.5.5s.224.5.5.5h1.515v2H1.49c-.276 0-.5.225-.5.5s.224.5.5.5h1.515v1.693c0 .72.586 1.307 1.307 1.307h16.385c.72 0 1.308-.587 1.308-1.308V1.305c0-.72-.587-1.308-1.308-1.308zm.308 22.692c0 .17-.138.308-.308.308H4.312c-.17 0-.307-.138-.307-.308v-1.692h.584c.275 0 .5-.224.5-.5s-.225-.5-.5-.5h-.585v-2h.584c.275 0 .5-.224.5-.5s-.225-.5-.5-.5h-.585v-2h.584c.275 0 .5-.225.5-.5s-.225-.5-.5-.5h-.585v-2h.584c.275 0 .5-.225.5-.5s-.225-.5-.5-.5h-.585v-2h.584c.275 0 .5-.225.5-.5s-.225-.5-.5-.5h-.585v-2h.584c.275 0 .5-.225.5-.5s-.225-.5-.5-.5h-.585v-2h.584c.275 0 .5-.225.5-.5s-.225-.5-.5-.5h-.585v-.69c0-.17.138-.31.307-.31h16.385c.17 0 .308.14.308.31V22.69z"/></svg>