<svg xmlns="http://www.w3.org/2000/svg" width="24" height="24" viewBox="0 0 24 24"><path d="M8.005 19.675c-.746 0-1.353.607-1.353 1.354s.607 1.352 1.353 1.352 1.354-.606 1.354-1.353-.61-1.355-1.355-1.355zm0 1.706c-.195 0-.353-.157-.353-.352 0-.195.158-.354.353-.354s.354.158.354.354c-.002.194-.16.353-.355.353z"/><path d="M18.52 1.998h-3.567c-.235-1.154-1.258-2.026-2.48-2.026H3.536c-1.396 0-2.532 1.136-2.532 2.53v18.973c0 1.396 1.136 2.53 2.532 2.53h8.936c1.396 0 2.532-1.135 2.532-2.53V18.54c0-.014.01-.027.01-.043s-.008-.028-.01-.044v-2.74l2.124-1.717h1.392c2.99 0 5.423-2.69 5.423-6 0-3.306-2.433-5.998-5.424-5.998zM3.538.972h8.936c.666 0 1.23.43 1.44 1.026h-.375c-1.13 0-2.183.37-3.058 1H2.005v-.495c0-.844.687-1.53 1.532-1.53zm8.936 22.035H3.537c-.845 0-1.532-.687-1.532-1.53v-2.48h12v2.48c0 .843-.688 1.53-1.532 1.53zm1.532-5.01H2.015v-14H9.42C8.562 5.043 8.034 6.41 8.034 7.91c0 2.804 1.995 5.05 3.976 5.706v3.475c0 .193.11.37.285.452.068.033.142.05.215.05.112 0 .224-.04.314-.112l1.18-.955v1.473zm4.516-5h-1.568c-.114 0-.226.04-.314.112l-3.628 2.933v-2.806c0-.234-.163-.437-.39-.488-1.725-.387-3.586-2.346-3.586-4.84 0-2.663 2.063-4.912 4.504-4.912h.94c.01 0 .017.005.027.005s.017-.005.027-.005h3.99c2.397 0 4.423 2.29 4.423 5s-2.026 5-4.424 5z"/><path d="M17.68 9.078c-.454-.49-.662-.715-1.006-.72-.3.018-.496.19-.68.375l-.07.072c-.296-.168-.815-.703-.994-1.018.214-.19.45-.427.46-.74.006-.172-.058-.333-.23-.51-1.547-1.607-1.6-1.607-1.844-1.608-.256-.002-.45.15-.928.646-1.367 1.397.08 3.196 1.288 4.428.853.87 2.035 1.92 3.153 1.92.253 0 .504-.054.747-.177.382-.193.973-.827.997-.854.234-.252.23-.643-.013-.893-.388-.392-.67-.696-.88-.922zm-.554 1.777c-.52.267-1.494-.286-2.735-1.55-2.127-2.17-1.54-2.773-1.255-3.063.064-.067.118-.122.164-.167.173.168.466.46.96.97l-.053.046c-.055.05-.104.094-.156.145-.292.308-.22.76.214 1.342.05.067 1.22 1.63 2.053 1.2.043-.02.1-.06.14-.096.086-.08.157-.15.22-.213.077.08.173.184.27.29.17.182.383.413.658.696-.2.192-.397.36-.48.402zM15.85 6.52h.017c.342-.01.7.122.954.376.255.254.388.593.376.955-.01.277.208.508.483.517h.016c.27 0 .49-.213.5-.483.02-.642-.216-1.243-.668-1.695-.45-.453-1.057-.693-1.694-.668-.275.01-.492.24-.483.516.008.27.23.483.5.483z"/><path d="M16.17 4.295c-.276.006-.495.235-.49.51.007.277.257.5.512.49.566-.02 1.167.212 1.592.636.425.425.65.99.638 1.594-.006.276.213.504.49.51h.01c.27 0 .494-.216.5-.488.02-.878-.312-1.703-.93-2.322-.62-.618-1.403-.944-2.322-.93z"/></svg>