<svg xmlns="http://www.w3.org/2000/svg" width="24" height="24" viewBox="0 0 24 24"><path d="M21.405 20.9c-3.483-1.345-5.847-2.95-6.194-3.77v-.38c1.736-.288 3.085-1.083 3.185-3.283.337-.294.555-.72.555-1.202V8.92c0-.724-.486-1.33-1.146-1.527V6.26c0-3.198-2.602-5.8-5.8-5.8s-5.8 2.602-5.8 5.8v1.138c-.653.2-1.132.803-1.132 1.522v3.345c0 .882.718 1.6 1.6 1.6h.545c.372 1.06.945 1.783 1.574 2.438v.825c-.307.708-2.367 2.294-6.194 3.774-.5.194-.823.67-.823 1.21v.567c0 .713.576 1.294 1.284 1.294h17.89c.707 0 1.283-.58 1.283-1.295v-.57c0-.532-.332-1.018-.825-1.21zm-5.553-5.33c.382-.477.71-1.026.95-1.705h.557c-.134.866-.578 1.4-1.508 1.705zm2.098-3.305c0 .33-.27.6-.6.6h-.395V8.32h.394c.33 0 .6.27.6.6v3.345zM12.004 1.46c2.646 0 4.8 2.153 4.8 4.8v.147c-.458-2.2-2.056-3.33-4.802-3.33-2.726 0-4.353 1.182-4.798 3.413v-.23c0-2.647 2.153-4.8 4.8-4.8zM6.072 12.265V8.92c0-.33.27-.6.6-.6h.394v4.545h-.394c-.33 0-.6-.27-.6-.6zM21.23 22.68c0 .162-.13.294-.285.294H3.057c-.156 0-.284-.132-.284-.295v-.57c0-.122.075-.233.185-.275 2.842-1.1 6.332-2.93 6.81-4.47.016-.048.023-.098.023-.148V16.1c0-.13-.05-.256-.142-.35-.675-.69-1.26-1.352-1.583-2.455V7.82c0-2.553 1.25-3.743 3.936-3.743 2.736 0 3.956 1.154 3.956 3.743v5.475c-.316 1.078-.914 1.75-1.603 2.455-.03.03-.046.066-.066.1-.276.025-.585.04-.905.052-.2-.463-.66-.79-1.196-.79-.72 0-1.304.586-1.304 1.306s.585 1.305 1.304 1.305c.545 0 1.01-.337 1.205-.813.278-.01.55-.022.82-.042v.35c0 .05.01.1.023.148.482 1.54 3.97 3.37 6.812 4.47.11.04.185.152.185.275v.57zm-9.044-5.958c-.168 0-.304-.137-.304-.305s.136-.305.304-.305.305.137.305.305-.136.305-.304.305z"/></svg>