<svg xmlns="http://www.w3.org/2000/svg" width="24" height="24" viewBox="0 0 24 24"><path d="M15.52 11.043c-1.562-.356-5.562-1.062-7.42.514-.77.653-1.093 1.59-.962 2.79.228 2.08 1.627 3.317 3.75 3.317h.037c1.697-.012 3.727-.872 4.817-2.115.134.403.344.82.672 1.178.57.62 1.366.937 2.364.937 1.336 0 2.52-.524 3.42-1.518 1.202-1.322 1.772-3.314 1.564-5.475C23.084 4.75 18.04.282 12.027.282 5.515.283.217 5.543.217 12.003c0 6.463 5.298 11.72 11.81 11.72 2.53 0 4.942-.78 6.975-2.26.224-.163.272-.477.11-.7-.163-.223-.476-.27-.698-.11-1.86 1.355-4.07 2.07-6.387 2.07-5.96 0-10.81-4.808-10.81-10.72s4.85-10.72 10.81-10.72c5.503 0 10.122 4.085 10.74 9.493.177 1.844-.313 3.6-1.31 4.698-.707.78-1.634 1.19-2.68 1.19-.716 0-1.247-.2-1.625-.61-.734-.795-.637-2.135-.636-2.148 0-.007-.003-.013-.002-.02 0-.007.004-.014.004-.02v-3.066c.005-.1.104-2.413-1.635-3.712-1.438-1.074-3.64-1.098-6.546-.07-.26.093-.397.378-.304.638.092.26.376.397.637.305 2.568-.906 4.457-.932 5.61-.076 1.31.974 1.24 2.845 1.238 2.89v.27zm-4.604 5.62h-.032c-1.143 0-2.535-.424-2.753-2.425-.093-.86.108-1.487.616-1.918 1.446-1.228 5.087-.663 6.773-.25v1.754c-.14 1.367-2.5 2.825-4.604 2.84z"/></svg>