<svg xmlns="http://www.w3.org/2000/svg" width="24" height="24" viewBox="0 0 24 24"><path d="M23.646 1.373c-.225-.175-.533-.205-.782-.076L.548 12.71c-.266.133-.423.412-.4.716.027.294.226.542.506.632h.003l9.223 2.88.002 6.155c-.02.397.19.568.347.642.074.04.16.063.246.063.142 0 .407-.044.585-.322l3.568-5.054 4.206 1.313c.05.016.166.034.218.034.128 0 .255-.035.362-.098.176-.1.303-.27.348-.462l4.146-17.093c.063-.276-.038-.567-.262-.744zm-12.764 20.62l-.002-4.742 2.745.858-2.743 3.886zm7.974-3.3l-7.638-2.384 7.71-8.603c.184-.206.166-.52-.04-.706-.204-.182-.52-.166-.705.04l-8.015 8.94-8.58-2.68L22.795 2.457l-3.94 16.238z"/></svg>