<svg xmlns="http://www.w3.org/2000/svg" width="24" height="24" viewBox="0 0 24 24"><path d="M15.857-.002h-7.52C3.93-.002.206 4.13.206 9.023c0 4.5 2.95 7.955 5.926 8.873v5.382c0 .194.113.37.29.453.066.032.138.048.21.048.116 0 .23-.04.322-.118l6.715-5.662h2.187c4.3 0 7.93-4.12 7.93-9s-3.63-9-7.93-9zm0 17h-2.37c-.117 0-.23.042-.32.118l-6.034 5.087v-4.688c0-.232-.16-.434-.386-.487-2.723-.638-5.54-3.806-5.54-8.003C1.207 4.75 4.537 1 8.337 1h7.52c3.757 0 6.93 3.664 6.93 8s-3.173 7.998-6.93 7.998z"/><path d="M16.606 5.998H7.468c-.276 0-.5.224-.5.5s.224.5.5.5h9.14c.275 0 .5-.224.5-.5s-.225-.5-.502-.5zM16.606 8.998H7.468c-.276 0-.5.224-.5.5s.224.5.5.5h9.14c.275 0 .5-.224.5-.5s-.225-.5-.502-.5zM12.452 11.998H7.468c-.276 0-.5.224-.5.5s.224.5.5.5h4.984c.276 0 .5-.224.5-.5s-.223-.5-.5-.5z"/></svg>