<svg xmlns="http://www.w3.org/2000/svg" width="24" height="24" viewBox="0 0 24 24"><path d="M21.885 18.57c.4-.64.422-1.482.052-2.144-.152-.273-.152-.612 0-.885.354-.633.354-1.42 0-2.055-.136-.24-.44-.326-.68-.192-.24.135-.328.44-.193.68.183.328.183.753 0 1.08-.32.574-.32 1.286 0 1.86.19.342.18.794-.026 1.124-.325.52-.318 1.225.018 1.8.307.527.116 1.063-.19 1.34-.16.14-.486.335-.88.043-.56-.416-1.244-.42-1.745-.02-.253.206-.576.22-.842.028-.546-.39-1.25-.39-1.794 0-.25.178-.557.178-.807 0-.545-.39-1.248-.39-1.795 0-.247.178-.557.178-.805 0-.545-.39-1.25-.39-1.795 0-.25.178-.557.178-.805 0-.545-.39-1.25-.39-1.795 0-.264.188-.586.18-.84-.026-.504-.405-1.19-.398-1.747.018-.276.206-.535.145-.666.093-.28-.114-.484-.395-.536-.73-.042-.272-.293-.457-.57-.418-.274.042-.46.298-.418.57.106.682.544 1.258 1.145 1.503.556.23 1.154.148 1.643-.215.07-.053.314-.208.523-.04.602.483 1.424.504 2.048.06.2-.144.432-.143.632 0 .598.43 1.37.426 1.968 0 .2-.144.432-.144.633 0 .597.426 1.37.428 1.967 0 .2-.145.433-.144.634 0 .598.427 1.37.427 1.967 0 .2-.145.433-.144.634 0 .622.446 1.447.42 2.048-.06.21-.17.454-.013.522.04.314.233.665.35 1.014.35.398 0 .793-.15 1.128-.45.62-.555.952-1.62.39-2.59-.154-.257-.167-.557-.037-.764zM2.998 11.574c0 .276.224.5.5.5s.5-.224.5-.5c0-.213.056-.415.163-.584.33-.525.324-1.215-.016-1.8-.125-.215-.172-.48-.13-.745.05-.337.256-.617.534-.73.13-.053.39-.114.666.092.557.415 1.242.422 1.746.018.255-.204.577-.215.84-.028.546.39 1.25.39 1.796 0 .248-.177.557-.177.805 0 .547.39 1.252.39 1.796 0 .25-.177.557-.178.806 0 .224.16.536.11.697-.117.16-.225.106-.537-.118-.697-.596-.426-1.37-.425-1.967 0-.2.144-.43.144-.633 0-.597-.426-1.37-.426-1.967 0-.2.144-.43.144-.633 0-.623-.443-1.447-.42-2.048.062-.208.17-.454.012-.524-.04-.488-.363-1.086-.443-1.64-.215-.6.246-1.04.82-1.146 1.503-.075.49.015.988.255 1.4.15.26.163.56.034.766-.207.327-.316.714-.316 1.114z"/><path d="M12.925 9.5c0-.276-.224-.5-.5-.5H5.503c-.276 0-.5.224-.5.5v1.033c0 .276.224.5.5.5s.5-.224.5-.5V10h6.422c.277 0 .5-.224.5-.5zM12.61 20h6.893c.276 0 .5-.224.5-.5v-5c0-.276-.224-.5-.5-.5s-.5.224-.5.5V19H12.61c-.277 0-.5.224-.5.5s.223.5.5.5zM18.995 5.272c-1.654 0-3 1.374-3 3.062s1.346 3.062 3 3.062 3-1.374 3-3.062-1.346-3.062-3-3.062zm0 5.125c-1.103 0-2-.925-2-2.062s.897-2.062 2-2.062 2 .925 2 2.062-.897 2.062-2 2.062z"/><path d="M18.995 3.504c-2.605 0-4.725 2.167-4.725 4.83 0 2.664 2.12 4.83 4.725 4.83S23.72 11 23.72 8.335c0-2.663-2.12-4.83-4.725-4.83zm0 8.66c-2.054 0-3.725-1.717-3.725-3.83 0-2.11 1.67-3.83 3.725-3.83s3.725 1.718 3.725 3.83c0 2.113-1.67 3.83-3.725 3.83zM1.043 13.962c.473-.484 1.292-.484 1.765 0 .853.873 2.344.873 3.196 0 .472-.484 1.29-.485 1.764 0 .426.437.994.677 1.598.677s1.172-.24 1.598-.678c.193-.198.19-.515-.01-.708-.196-.192-.512-.19-.706.01-.473.485-1.292.485-1.765 0-.85-.874-2.344-.873-3.196 0-.473.485-1.292.485-1.765 0-.853-.874-2.344-.874-3.196 0-.193.197-.19.513.01.706.198.194.514.188.707-.008z"/><path d="M1.043 16.373c.473-.486 1.292-.486 1.765 0 .853.873 2.344.874 3.196 0 .472-.485 1.29-.487 1.764 0 .426.437.994.677 1.598.677s1.172-.24 1.598-.677c.193-.198.19-.515-.01-.707-.196-.193-.512-.188-.706.008-.473.486-1.292.485-1.765 0-.85-.874-2.343-.872-3.195 0-.473.486-1.292.486-1.765 0-.853-.873-2.344-.873-3.196 0-.193.198-.19.515.01.707.197.196.513.19.706-.007z"/><path d="M6.004 18.783c.472-.484 1.29-.486 1.764 0 .426.438.994.678 1.598.678s1.172-.24 1.598-.676c.193-.198.19-.515-.01-.707-.196-.194-.512-.188-.706.008-.473.486-1.292.485-1.765 0-.85-.874-2.344-.873-3.196 0-.473.486-1.292.486-1.765 0-.853-.873-2.344-.873-3.196 0-.193.198-.19.515.01.707.197.195.513.188.706-.008.473-.486 1.292-.486 1.765 0 .853.873 2.344.874 3.197 0z"/></svg>