<svg xmlns="http://www.w3.org/2000/svg" width="24" height="24" viewBox="0 0 24 24"><path d="M23.462 6.214l-5.8-5.8c-.237-.238-.556-.335-.87-.314-.054.002-.106.012-.156.03-.206.045-.406.126-.566.285L6.334 10.15c-.16.16-.242.36-.285.568-.02.05-.028.098-.03.15-.022.315.075.635.315.875l5.8 5.8c.22.22.507.327.795.327s.577-.11.797-.328l9.735-9.736c.438-.44.438-1.153 0-1.592zm-7.46-4.316l-1.495 6.665-6.685 1.513 8.18-8.178zm6.753 5.2l-9.734 9.735c-.05.05-.13.05-.18 0l-5.6-5.6 7.797-1.765c.188-.043.335-.19.378-.378l1.74-7.77 5.6 5.6c.05.05.05.13 0 .18zM5.856 13.383c-.195-.195-.512-.195-.707 0l-4.9 4.9c-.196.195-.196.512 0 .707.097.098.225.146.353.146s.256-.05.354-.146l4.9-4.9c.194-.196.194-.512 0-.707zM7.916 15.442c-.195-.195-.512-.195-.707 0L3.92 18.73c-.195.194-.195.51 0 .706.098.098.226.146.354.146s.256-.05.354-.146l3.287-3.287c.194-.196.194-.513 0-.708zM9.27 17.502l-1.645 1.644c-.195.195-.195.512 0 .707.098.098.226.146.354.146s.255-.05.353-.147l1.644-1.644c.195-.196.195-.513 0-.708s-.513-.196-.708 0z"/></svg>