<svg xmlns="http://www.w3.org/2000/svg" width="24" height="24" viewBox="0 0 24 24"><path d="M20.583 19.958c1.93-2.088 3.12-4.87 3.12-7.93s-1.19-5.842-3.12-7.93c-.02-.028-.03-.06-.056-.085-.015-.015-.035-.022-.052-.035C18.34 1.732 15.335.323 12 .323c-3.06 0-5.84 1.19-7.927 3.118-.03.022-.062.035-.088.06-.016.017-.023.037-.036.055C1.703 5.69.294 8.695.294 12.03c0 3.333 1.408 6.338 3.652 8.47.014.02.02.04.037.057.027.027.06.04.09.06C6.163 22.545 8.94 23.733 12 23.733c3.335 0 6.34-1.41 8.475-3.655.017-.013.037-.02.052-.035.026-.024.04-.055.058-.084zm-.438-1.003l-3.54-3.54c.7-.95 1.118-2.12 1.118-3.386 0-1.268-.42-2.437-1.12-3.386l3.54-3.54c1.592 1.868 2.56 4.284 2.56 6.925s-.966 5.056-2.558 6.925zM7.275 12.03c0-2.606 2.12-4.726 4.724-4.726s4.724 2.12 4.724 4.725-2.12 4.724-4.725 4.724c-2.606 0-4.726-2.12-4.726-4.725zm12.188-7.66l-3.52 3.52C14.917 6.91 13.53 6.303 12 6.303c-1.268 0-2.437.42-3.386 1.12L5.074 3.88C6.944 2.29 9.36 1.325 12 1.325c2.9 0 5.533 1.166 7.463 3.047zM1.295 12.03c0-2.903 1.165-5.535 3.047-7.465l3.52 3.52c-.98 1.027-1.587 2.414-1.587 3.944 0 1.528.606 2.916 1.587 3.944l-3.52 3.52c-1.882-1.93-3.047-4.563-3.047-7.465zm3.78 8.145l3.54-3.54c.948.7 2.117 1.118 3.384 1.118 1.528 0 2.916-.606 3.944-1.587l3.52 3.52c-1.93 1.88-4.563 3.045-7.465 3.045-2.642.002-5.058-.964-6.926-2.555z"/></svg>