<svg xmlns="http://www.w3.org/2000/svg" width="24" height="24" viewBox="0 0 24 24"><path d="M20.563 5.49l-7.928 7.127c-.41.367-1.073.367-1.48 0L3.227 5.49c-.205-.185-.52-.17-.707.036-.184.205-.166.52.04.706l7.926 7.128c.395.355.902.533 1.41.533.507 0 1.014-.178 1.41-.533l7.926-7.128c.206-.185.223-.5.038-.706-.186-.206-.503-.222-.707-.037zM7.884 13.34l-5.31 4.418c-.212.177-.24.492-.064.704.1.12.24.18.385.18.112 0 .226-.037.32-.114l5.31-4.417c.21-.176.24-.49.063-.703s-.492-.243-.704-.066z"/><path d="M21.156 3H2.85C1.253 3 .005 4.226.005 5.79v12.423C.006 19.775 1.254 21 2.85 21h6.63c.277 0 .5-.224.5-.5s-.223-.5-.5-.5H2.85c-1.034 0-1.844-.785-1.844-1.787V5.79c0-1.003.81-1.79 1.843-1.79h18.307c1.037 0 1.85.787 1.85 1.79v12.423c0 .78-.455 1.44-1.16 1.686-.26.09-.398.375-.31.636.093.262.376.398.638.31 1.113-.388 1.832-1.42 1.832-2.632V5.79c0-1.538-1.28-2.79-2.85-2.79z"/><path d="M15.997 14.042c-2.69 0-4.88 2.174-4.88 4.846s2.19 4.845 4.88 4.845c1.045 0 2.04-.323 2.88-.935.225-.162.273-.476.11-.698-.16-.225-.476-.27-.697-.11-.668.486-1.46.743-2.293.743-2.14 0-3.88-1.725-3.88-3.845s1.74-3.846 3.88-3.846c1.976 0 3.633 1.465 3.854 3.4.063.63-.098 1.22-.427 1.583-.218.24-.49.36-.812.36-.275 0-.37-.103-.402-.136-.158-.172-.174-.502-.167-.6.002-.007-.003-.012-.002-.018 0-.01.005-.017.005-.026v-1.17c.002-.045.047-1.1-.757-1.7-.643-.48-1.592-.504-2.82-.07-.26.094-.396.38-.305.64.094.26.377.396.64.305.876-.31 1.528-.336 1.884-.074.216.16.297.406.332.6-.782-.138-2.043-.246-2.738.345-.26.223-.557.637-.48 1.35.106.96.778 1.557 1.758 1.557h.016c.61-.004 1.284-.24 1.773-.618.037.053.078.104.125.155.193.21.548.462 1.142.462.606 0 1.143-.238 1.552-.688.522-.577.77-1.434.683-2.36-.282-2.452-2.367-4.298-4.85-4.298zm-.432 6.343h-.01c-.618 0-.73-.38-.763-.667-.032-.295.053-.41.13-.476.187-.157.54-.218.942-.218.384 0 .803.06 1.178.14v.4c-.036.31-.758.817-1.477.82z"/></svg>