<svg xmlns="http://www.w3.org/2000/svg" width="24" height="24" viewBox="0 0 24 24"><path d="M7.996 19.675c-.746 0-1.354.607-1.354 1.354s.607 1.352 1.354 1.352 1.353-.606 1.353-1.353-.608-1.355-1.354-1.355zm0 1.706c-.195 0-.354-.157-.354-.352 0-.195.16-.354.354-.354s.353.158.353.354c0 .194-.16.353-.354.353z"/><path d="M18.512 1.998h-3.568C14.71.844 13.686-.028 12.464-.028H3.526C2.13-.028.995 1.108.995 2.502v18.973c0 1.396 1.136 2.53 2.532 2.53h8.936c1.396 0 2.532-1.135 2.532-2.53v-2.93c.002-.016.01-.03.01-.047s-.008-.032-.01-.048v-2.734l2.124-1.718h1.392c2.99 0 5.423-2.69 5.423-6 0-3.308-2.433-6-5.423-6zM3.527.972h8.936c.666 0 1.23.43 1.44 1.026h-.375c-1.13 0-2.183.37-3.058 1H1.996v-.495c0-.844.687-1.53 1.53-1.53zm8.936 22.035H3.527c-.845 0-1.532-.687-1.532-1.53v-2.48h12v2.48c0 .843-.687 1.53-1.532 1.53zm1.532-5.01H2.005v-14H9.41C8.552 5.043 8.024 6.41 8.024 7.91c0 2.804 1.995 5.05 3.976 5.706v3.475c0 .193.11.37.285.452.068.033.142.05.215.05.112 0 .224-.04.314-.112l1.18-.955v1.473zm4.517-5h-1.57c-.113 0-.225.04-.313.112L13 16.042v-2.806c0-.234-.163-.437-.39-.488-1.725-.387-3.586-2.346-3.586-4.84 0-2.663 2.063-4.912 4.504-4.912h.94c.01 0 .017.005.027.005s.017-.005.027-.005h3.99c2.397 0 4.423 2.29 4.423 5s-2.026 5-4.423 5z"/><path d="M20 5.998h-7c-.276 0-.5.224-.5.5s.224.5.5.5h7c.276 0 .5-.224.5-.5s-.224-.5-.5-.5zM16 8.998h-3c-.276 0-.5.224-.5.5s.224.5.5.5h3c.276 0 .5-.224.5-.5s-.224-.5-.5-.5z"/></svg>