<svg xmlns="http://www.w3.org/2000/svg" width="24" height="24" viewBox="0 0 24 24"><path d="M15.43 8.98h-3.41V5.493c0-.276-.224-.5-.5-.5s-.5.224-.5.5v3.49H7.61c-.276 0-.5.223-.5.5s.224.5.5.5h3.41v3.488c0 .276.224.5.5.5s.5-.224.5-.5V9.98h3.41c.275 0 .5-.223.5-.5s-.225-.5-.5-.5z"/><path d="M15.843-.002h-7.52C3.914-.002.192 4.13.192 9.023c0 4.5 2.95 7.955 5.926 8.873v5.382c0 .194.112.37.288.453.067.032.14.048.21.048.117 0 .23-.04.323-.118l6.716-5.662h2.187c4.3 0 7.93-4.12 7.93-9s-3.63-9-7.93-9zm0 17h-2.37c-.117 0-.23.042-.32.118L7.12 22.202v-4.688c0-.232-.16-.434-.386-.487-2.723-.638-5.54-3.806-5.54-8.003C1.194 4.75 4.526 1 8.324 1h7.52c3.757 0 6.93 3.663 6.93 8s-3.174 7.998-6.93 7.998z"/></svg>