<svg xmlns="http://www.w3.org/2000/svg" width="24" height="24" viewBox="0 0 24 24"><path d="M8 19.675c-.746 0-1.354.607-1.354 1.354S7.254 22.38 8 22.38s1.353-.605 1.353-1.352S8.747 19.675 8 19.675zm0 1.706c-.195 0-.354-.157-.354-.352 0-.195.16-.354.354-.354s.353.158.353.354c0 .194-.158.353-.353.353z"/><path d="M18.517 1.998H14.95C14.713.844 13.69-.028 12.467-.028H3.532C2.136-.028 1 1.108 1 2.502v18.973c0 1.396 1.136 2.53 2.532 2.53h8.936c1.396 0 2.532-1.135 2.532-2.53V18.54c0-.014.01-.027.01-.043s-.01-.028-.01-.043v-2.74l2.124-1.717h1.393c2.99 0 5.423-2.69 5.423-6 0-3.307-2.433-6-5.423-6zM3.532.972h8.936c.666 0 1.23.43 1.44 1.026h-.375c-1.13 0-2.183.37-3.058 1H2v-.495c0-.844.688-1.53 1.532-1.53zm8.936 22.035H3.532C2.688 23.007 2 22.32 2 21.475v-2.478h12v2.478c0 .845-.688 1.532-1.532 1.532zM14 17.997H2.01v-14h7.407C8.557 5.043 8.03 6.41 8.03 7.91c0 2.804 1.994 5.05 3.975 5.706v3.475c0 .193.11.37.285.452.068.033.142.05.215.05.112 0 .224-.04.314-.112l1.18-.956v1.474zm4.517-5h-1.57c-.113 0-.225.04-.313.112l-3.628 2.933v-2.806c0-.234-.163-.437-.39-.488-1.725-.387-3.586-2.346-3.586-4.84 0-2.663 2.063-4.912 4.504-4.912h.94c.01 0 .017.005.027.005s.018-.005.028-.005h3.99c2.397 0 4.423 2.29 4.423 5s-2.026 5-4.423 5z"/><path d="M12.25 7.79c-.332-.095-.417-.163-.422-.15.006-.036.106-.126.283-.126.137 0 .238.055.274.107.16.226.473.28.697.118.226-.16.278-.472.118-.697-.234-.33-.64-.526-1.088-.526-.708 0-1.284.506-1.284 1.13 0 .778.832 1.018 1.155 1.11.3.082.396.154.412.154-.013.038-.112.122-.282.122-.136 0-.406-.095-.577-.23-.216-.173-.53-.138-.703.08-.172.215-.137.53.08.702.336.27.82.45 1.2.45.708 0 1.284-.507 1.284-1.13 0-.535-.388-.91-1.145-1.11zM20.604 7.79c-.323-.092-.396-.172-.422-.15.007-.036.106-.126.283-.126.136 0 .236.055.273.107.16.226.474.28.697.118.225-.16.277-.472.117-.697-.234-.33-.642-.526-1.088-.526-.708 0-1.283.506-1.283 1.13 0 .78.833 1.018 1.155 1.11.3.082.395.154.41.154h.002c-.014.038-.112.122-.283.122-.136 0-.405-.095-.576-.23-.214-.17-.53-.138-.702.08-.173.215-.137.53.08.702.336.27.817.45 1.198.45.708 0 1.284-.507 1.284-1.13.002-.535-.387-.91-1.144-1.11zM17.365 6.515c-.434 0-.757.156-1 .37-.173-.172-.473-.37-.953-.37-.277 0-.51.064-.705.165-.09-.1-.22-.165-.366-.165-.275 0-.5.224-.5.5V9.53c0 .275.225.5.5.5s.5-.225.5-.5V8.05c.026-.122.14-.535.572-.535.155 0 .218.045.25.08.103.103.132.317.13.418V9.53c0 .275.225.5.5.5s.5-.225.5-.5V8.05c.015-.078.12-.535.573-.535.154 0 .217.045.25.08.102.102.132.317.13.418V9.53c0 .275.225.5.5.5s.5-.225.5-.5v-1.5c.003-.07.012-.694-.408-1.13-.17-.175-.478-.385-.972-.385z"/></svg>