<svg xmlns="http://www.w3.org/2000/svg" width="24" height="24" viewBox="0 0 24 24"><path d="M14.01 2.503c0-1.396-1.136-2.53-2.532-2.53H2.542C1.146-.028.01 1.107.01 2.502v18.972c0 1.396 1.136 2.53 2.532 2.53h8.936c1.396 0 2.532-1.135 2.532-2.53V18.54c0-.014.01-.027.01-.043v-15c0-.016-.008-.028-.01-.044v-.95zm-1 15.495H1.02v-14h11.99v14zM2.542.972h8.936c.845 0 1.532.687 1.532 1.53V3h-12v-.495c0-.844.687-1.53 1.532-1.53zm8.936 22.035H2.542c-.845 0-1.532-.687-1.532-1.53v-2.48h12v2.48c0 .843-.687 1.53-1.532 1.53z"/><path d="M7.01 19.675c-.746 0-1.353.607-1.353 1.354s.607 1.352 1.353 1.352 1.354-.606 1.354-1.353-.608-1.355-1.354-1.355zm0 1.706c-.195 0-.353-.157-.353-.352 0-.195.158-.354.353-.354s.354.158.354.354c0 .194-.16.353-.354.353zM16.958 7.014c-.208-.183-.523-.164-.706.044-.183.207-.163.523.044.706 1.09.96 1.69 2.256 1.69 3.648 0 1.393-.6 2.688-1.69 3.65-.207.183-.227.5-.044.706.1.11.236.17.375.17.118 0 .235-.042.33-.126 1.31-1.154 2.028-2.717 2.028-4.4s-.72-3.244-2.027-4.398z"/><path d="M19.483 5.085c-.195-.196-.512-.195-.707 0-.195.194-.195.51 0 .706 3.042 3.05 3.042 8.2 0 11.246-.195.195-.195.513 0 .707.098.098.226.146.354.146s.256-.05.354-.147c3.483-3.49 3.483-9.168 0-12.658z"/></svg>