<svg xmlns="http://www.w3.org/2000/svg" width="24" height="24" viewBox="0 0 24 24"><path d="M14.786 8.042h-5.59c-1.216 0-2.205.99-2.205 2.205v7.546c0 1.216.99 2.205 2.206 2.205h5.59c1.216 0 2.204-.99 2.204-2.205v-7.546c0-1.216-.988-2.205-2.204-2.205zm1.204 9.75c0 .665-.54 1.206-1.204 1.206H14v-3.455c0-.276-.223-.5-.5-.5s-.5.224-.5.5v3.455h-2v-3.455c0-.276-.224-.5-.5-.5s-.5.224-.5.5v3.455h-.804c-.664 0-1.205-.54-1.205-1.205v-7.546c0-.664.542-1.205 1.206-1.205H10v3.44c0 .276.224.5.5.5s.5-.224.5-.5v-3.44h2v3.44c0 .276.224.5.5.5s.5-.224.5-.5v-3.44h.785c.664 0 1.204.54 1.204 1.205v7.546z"/><path d="M20.578 3.68L17.08.375c-.254-.24-.592-.378-.926-.378H4.374C3.627-.002 3 .603 3 1.32v21.347c0 .71.642 1.33 1.373 1.33h15.26c.74 0 1.367-.608 1.367-1.33V4.617c0-.34-.153-.683-.422-.938zM20 22.666c0 .164-.185.33-.366.33H4.374c-.186 0-.374-.166-.374-.33V1.32c0-.16.188-.322.373-.322h11.782c.08 0 .17.04.24.105l3.496 3.302c.066.063.11.148.11.212v18.05z"/></svg>