<svg xmlns="http://www.w3.org/2000/svg" width="24" height="24" viewBox="0 0 24 24"><path d="M5.977 15.97c-1.585 0-2.875 1.072-2.875 2.39s1.29 2.393 2.875 2.393 2.875-1.073 2.875-2.392-1.29-2.39-2.875-2.39zm0 3.783c-1.034 0-1.875-.624-1.875-1.392 0-.766.84-1.39 1.875-1.39s1.875.624 1.875 1.39c0 .77-.842 1.393-1.875 1.393zM2.406 20.9c-.88 0-1.598.617-1.598 1.375s.717 1.374 1.598 1.374 1.597-.617 1.597-1.375S3.287 20.9 2.406 20.9zm0 1.75c-.342 0-.598-.198-.598-.375s.255-.374.598-.374c.342 0 .597.198.597.375s-.255.374-.597.374zM23.54 9.085c-.126-1.154-.82-2.18-1.922-2.856-.014-1.06-.427-2.056-1.182-2.833-.86-.887-2.072-1.397-3.358-1.423-.676-.893-1.715-1.48-2.893-1.63-1.194-.15-2.375.158-3.313.848-.82-.716-1.99-.967-3.11-.636C6.625.89 5.808 1.726 5.56 2.78 2.535 3.66.523 6.43.843 9.354c.317 2.9 2.79 5.122 5.912 5.346.993.85 2.595.998 3.867.373.747.524 1.688.804 2.676.804.354 0 .713-.036 1.07-.11 1.29-.26 2.347-.947 2.958-1.905 1.777.235 3.608-.31 4.856-1.46 1.007-.93 1.49-2.11 1.358-3.317zm-2.036 2.58c-1.104 1.017-2.77 1.458-4.346 1.155-.225-.04-.44.066-.54.266-.424.84-1.34 1.475-2.45 1.7-1.19.242-2.38-.015-3.18-.692-.092-.078-.208-.118-.323-.118-.092 0-.184.025-.265.076-.978.61-2.363.522-3.086-.196-.088-.088-.206-.14-.33-.145-2.713-.125-4.878-2.003-5.148-4.466C1.56 6.72 3.4 4.324 6.113 3.668c.204-.05.356-.22.38-.43.11-.965.873-1.522 1.55-1.722.72-.213 1.732-.148 2.404.67.087.107.214.173.352.183.137.012.27-.04.373-.13.77-.708 1.817-1.036 2.888-.903.984.124 1.838.64 2.342 1.412.097.146.258.25.436.226 1.096-.04 2.156.37 2.883 1.118.632.65.95 1.5.894 2.39-.012.197.092.38.265.474.96.51 1.568 1.325 1.668 2.237.095.883-.276 1.76-1.044 2.47z"/></svg>