<svg xmlns="http://www.w3.org/2000/svg" width="24" height="24" viewBox="0 0 24 24"><path d="M9.962 10.998h-3.96c.006-.72.046-1.477.275-2.078.288-.755.814-1.09 1.708-1.09C8.555 7.83 9 7.383 9 6.814V4.068c0-.578-.415-1.015-.965-1.015-2.457 0-4.443.775-5.904 2.303C-.083 7.678-.055 11.468-.012 17.204c.006.86.013 1.765.013 2.72C0 20.508.462 21 1.01 21h8.953c.553 0 1.038-.502 1.038-1.073v-7.917c0-.557-.465-1.01-1.038-1.01zm0 9L1 19.925c0-.958-.007-1.866-.013-2.728-.043-5.687-.07-9.12 1.867-11.15 1.27-1.327 2.94-1.98 5.077-1.98H8L7.986 6.83c-1.314 0-2.204.583-2.643 1.734C5 9.464 5 10.568 5 11.498c0 .276.224.5.5.5h4.462l.038.01-.038 7.99zM22.963 10.998h-3.96c.006-.72.046-1.477.274-2.078.288-.755.814-1.09 1.708-1.09.56 0 1.015-.456 1.015-1.015V4.068c0-.578-.415-1.014-.965-1.014-2.457 0-4.443.775-5.904 2.303-2.214 2.322-2.186 6.112-2.143 11.848.006.858.013 1.764.013 2.72 0 .582.463 1.073 1.01 1.073h8.953c.553 0 1.037-.502 1.037-1.073v-7.917c0-.557-.465-1.01-1.037-1.01zm0 9L14 19.925c0-.958-.007-1.866-.014-2.728-.042-5.688-.067-9.12 1.867-11.15 1.27-1.327 2.942-1.98 5.077-1.98H21l-.016 2.762c-1.314 0-2.203.583-2.643 1.734-.34.9-.34 2.004-.34 2.934 0 .276.224.5.5.5h4.463l.037.01-.037 7.99z"/></svg>