<svg xmlns="http://www.w3.org/2000/svg" width="24" height="24" viewBox="0 0 24 24"><path d="M23.993 10.453c-.002-.032-.01-.063-.02-.095-.008-.033-.017-.065-.033-.095-.005-.01-.005-.023-.012-.033-.01-.017-.027-.027-.04-.043-.012-.018-.02-.04-.035-.055-.01-.01-.023-.014-.034-.023-.026-.022-.053-.04-.08-.054-.028-.015-.055-.03-.085-.04-.033-.01-.066-.015-.1-.02-.02 0-.037-.01-.056-.01h-.002L19 9.998V6.402c0-.307-.1-.56-.292-.753l-2.38-2.362c-.192-.19-.452-.288-.753-.288H13v-.907C13 1.04 12.084.15 11 .15s-2 .89-2 1.943V3H6.062C5.457 3 5 3.444 5 4.033v5.954H.5c-.02 0-.035.01-.054.01-.036.005-.07.01-.105.022-.028.01-.054.022-.08.037-.03.016-.056.033-.08.054-.027.023-.048.048-.07.075-.01.016-.028.026-.04.044-.005.01-.005.02-.01.032-.016.03-.025.06-.034.093-.01.033-.018.065-.02.098 0 .012-.006.022-.006.034V23.5c0 .276.224.5.5.5h23c.276 0 .5-.224.5-.5V10.487c0-.012-.006-.022-.007-.034zm-2.308.538L19 12.6V11l2.685-.01zM17.602 6h-1.61V4.37L17.602 6zM10 2.093c0-.502.467-.942 1-.942.533 0 1 .442 1 .943V3h-2v-.907zM12 4v5.525c0 .77-.687 1.422-1.5 1.423-.813 0-1.5-.65-1.5-1.423V6.5c0-.277-.224-.5-.5-.5s-.5.223-.5.5v3.025c0 1.313 1.145 2.423 2.5 2.423s2.5-1.11 2.5-2.423V4h1.992v2.5c0 .276.224.5.5.5H18v6.2l-6.02 3.607L6 13.21 6.063 4H12zm-7 8.61l-2.698-1.623H5v1.622zM1 23V11.37l10.723 6.45c.08.047.168.07.258.07s.18-.023.258-.07L23 11.37V23H1z"/></svg>