<svg xmlns="http://www.w3.org/2000/svg" width="24" height="24" viewBox="0 0 24 24"><path d="M15.833-.002h-7.52C3.905-.002.182 4.13.182 9.023c0 4.5 2.95 7.955 5.926 8.873v5.382c0 .194.112.37.288.453.067.032.14.048.21.048.117 0 .23-.04.323-.118l6.716-5.662h2.187c4.3 0 7.932-4.12 7.932-9s-3.632-9-7.932-9zm0 17h-2.37c-.117 0-.23.042-.32.118L7.11 22.202v-4.688c0-.232-.16-.434-.386-.487C4 16.39 1.184 13.22 1.184 9.024 1.184 4.75 4.514 1 8.314 1h7.52c3.758 0 6.932 3.663 6.932 8s-3.175 7.998-6.933 7.998z"/></svg>