<svg xmlns="http://www.w3.org/2000/svg" width="24" height="24" viewBox="0 0 24 24"><path d="M20.56 5.49l-7.927 7.127c-.408.367-1.073.367-1.48 0L3.224 5.49c-.205-.185-.52-.17-.706.036-.187.205-.17.52.036.706l7.927 7.128c.396.355.902.533 1.41.533.507 0 1.014-.178 1.41-.533l7.926-7.128c.205-.185.222-.5.037-.706s-.504-.222-.707-.037zM7.88 13.34L2.57 17.76c-.21.177-.24.492-.063.704.1.12.24.18.385.18.112 0 .226-.037.32-.114l5.31-4.417c.21-.176.24-.49.063-.703-.176-.213-.493-.243-.704-.066z"/><path d="M21.153 3H2.845c-.767 0-1.483.29-2.016.815C.295 4.34.002 5.042.002 5.79v12.423C.003 19.775 1.25 21 2.845 21h9.187c.892 1.674 2.635 2.83 4.66 2.83 2.04 0 3.79-1.17 4.678-2.86 1.475-.143 2.633-1.317 2.633-2.757V5.79c0-1.538-1.278-2.79-2.85-2.79zm-4.46 19.83c-2.372 0-4.3-1.93-4.3-4.303s1.928-4.302 4.3-4.302 4.302 1.93 4.302 4.302-1.93 4.302-4.302 4.302zm6.31-4.617c0 .73-.503 1.374-1.198 1.647.112-.428.19-.87.19-1.333 0-2.924-2.377-5.302-5.3-5.302-2.924 0-5.302 2.378-5.302 5.302 0 .514.097 1.002.234 1.473H2.845c-1.033 0-1.842-.785-1.842-1.787V5.79c0-.478.188-.927.528-1.262.346-.34.812-.528 1.314-.528h18.31c1.036 0 1.85.787 1.85 1.79v12.423z"/><path d="M18.723 17.293l-2.805 2.426-.818-.744c-.203-.185-.52-.17-.706.034-.186.204-.17.52.034.706l1.146 1.04c.095.087.216.13.336.13.116 0 .233-.04.327-.122l3.14-2.716c.21-.18.23-.496.05-.705-.18-.21-.496-.23-.704-.05z"/></svg>