<svg xmlns="http://www.w3.org/2000/svg" width="24" height="24" viewBox="0 0 24 24"><path d="M15.853-.002h-7.52C3.925-.002.202 4.13.202 9.023c0 4.5 2.95 7.955 5.926 8.873v5.382c0 .194.112.37.288.453.067.032.14.048.21.048.117 0 .23-.04.323-.118l6.716-5.662h2.187c4.3 0 7.93-4.12 7.93-9s-3.632-9-7.93-9zm0 17h-2.37c-.117 0-.23.042-.32.118L7.13 22.202v-4.688c0-.232-.16-.434-.386-.487-2.723-.637-5.54-3.805-5.54-8.003C1.204 4.75 4.534 1 8.334 1h7.52c3.757 0 6.93 3.663 6.93 8s-3.175 7.998-6.93 7.998z"/><path d="M15.17 5.663c-.623 0-1.13.513-1.13 1.143s.507 1.142 1.13 1.142c.622 0 1.13-.512 1.13-1.142s-.508-1.143-1.13-1.143zm-.13 1.143c0-.077.06-.143.13-.143s.13.065.13.143c0 .155-.26.155-.26 0z"/><path d="M18.26 6.613c-.195-.103-.43-.226-.702-.377-.268-1.252-1.217-2.047-2.48-2.047-1.105 0-2.233.603-3.034 1.6-.535-.283-1.39-.584-2.608-.584-.523 0-1.776.042-2.11.428-.096.108-.158.31-.137.453.03.216.29 1.788 1.394 2.84-.338.04-.682.025-1.013-.012-.602-.066-1.427-.156-1.844.658-.13.256-.153.53-.07.793-.376.18-.626.44-.715.755-.084.304-.027.61.162.858.554.73 2.044.752 2.212.752.743 0 1.562-.124 2.164-.268.667.82 1.6 1.23 2.785 1.23.172 0 .35-.008.534-.025 4.236-.405 4.86-3.865 4.95-5.028.182-.078.342-.143.48-.2.66-.27 1.022-.418 1.043-.85.02-.434-.325-.615-1.01-.977zm-1.2 1.233c-.182.08-.298.258-.3.456 0 .665-.207 4-4.06 4.37-1.193.11-2.048-.227-2.602-1.048-.094-.147-.254-.23-.422-.23-.047 0-.095.006-.143.02-.532.158-1.426.318-2.22.318-.704 0-1.335-.215-1.414-.33.018-.035.18-.185.62-.264.187-.034.34-.173.392-.357s-.007-.38-.15-.508c-.03-.027-.184-.168-.147-.24.086-.168.228-.19.847-.12.816.088 1.65.015 2.5-.308.19-.072.32-.253.323-.457.004-.204-.116-.39-.303-.47C8.857 8.194 8.41 6.923 8.252 6.3c.346-.058.908-.095 1.185-.095 1.337 0 2.107.413 2.447.66.11.08.25.11.385.086.133-.024.252-.103.327-.218.61-.938 1.586-1.543 2.483-1.543.85 0 1.41.52 1.53 1.433.022.155.113.292.25.37.373.21.685.374.934.506l.04.02c-.214.087-.472.192-.774.326z"/></svg>