<svg xmlns="http://www.w3.org/2000/svg" width="24" height="24" viewBox="0 0 24 24"><path d="M16.876 13.56c-.372-.378-.972-.392-1.373-.02 0 0-1.346 1.317-1.41 1.387-.14.077-.826-.105-2.013-1.11-1.91-1.624-3.075-3.548-2.984-3.893L10.56 8.49c.186-.184.29-.43.29-.692.003-.262-.097-.508-.28-.69l-4.785-4.88c-.18-.186-.43-.294-.69-.296-.252-.012-.505.097-.695.28-.158.156-.322.31-.488.468C2.728 3.8 1.385 5.066 1.345 7.156c-.048 2.502 1.79 5.565 5.786 9.64 4.023 4.104 7.067 6.02 9.57 6.02.024 0 .05 0 .075-.002 2.15-.033 3.49-1.487 4.672-2.77l.252-.274c.357-.384.35-.98-.02-1.356l-4.804-4.855zm3.836 5.805c-1.097 1.19-2.23 2.422-3.952 2.448h-.06c-2.186 0-5.084-1.87-8.855-5.716-3.743-3.82-5.542-6.737-5.5-8.922.032-1.67 1.162-2.736 2.253-3.768.17-.162.34-.32.473-.48l4.79 4.85-1.477 1.447c-.524.553-.254 1.55.8 2.967 1.077 1.444 3.91 4.364 5.354 3.634.043-.02.16-.103.194-.135.088-.08 1.313-1.277 1.45-1.412l4.787 4.81-.255.277zM20.18 10.325c-.01.276.207.507.482.516h.017c.268 0 .49-.212.5-.482.065-2.04-.688-3.954-2.122-5.388-1.435-1.434-3.334-2.186-5.388-2.12-.275.01-.492.24-.483.516.01.274.193.504.517.483 1.743-.055 3.41.59 4.647 1.828 1.237 1.237 1.886 2.887 1.83 4.647z"/><path d="M21.454 2.573C19.384.5 16.604-.587 13.676-.54c-.276.006-.495.235-.49.51.007.277.238.515.512.49 2.668-.068 5.173.943 7.05 2.82 1.878 1.878 2.88 4.382 2.82 7.05-.005.277.214.505.49.512h.01c.272 0 .495-.217.5-.49.065-2.943-1.042-5.706-3.114-7.78zM13.188 6.772c.02.277.26.483.532.466.832-.053 1.647.25 2.233.836.587.586.892 1.4.837 2.235-.018.274.19.513.466.53l.034.002c.26 0 .48-.203.498-.467.073-1.12-.338-2.217-1.128-3.007s-1.866-1.196-3.007-1.127c-.275.02-.483.257-.465.532z"/></svg>