<svg xmlns="http://www.w3.org/2000/svg" width="24" height="24" viewBox="0 0 24 24"><path d="M8.5 18h-6c-.276 0-.5.223-.5.5s.224.5.5.5h6c.276 0 .5-.224.5-.5s-.224-.5-.5-.5z"/><path d="M23.5 4c.276 0 .5-.224.5-.5v-3c0-.277-.224-.5-.5-.5h-9c-.276 0-.5.223-.5.5V6H5.14C2.354 6 0 8.35 0 11.135V20.5c0 .276.224.5.5.5H12v2.4c0 .277.224.5.5.5s.5-.223.5-.5V21h10.5c.276 0 .5-.224.5-.5v-9.223C24 8.417 21.568 6 18.69 6H15V4h8.5zM1 11.135C1 8.893 2.896 7 5.14 7h.895C8.22 7 10 8.855 10 11.135V20H1v-8.865zM18.69 7C21.026 7 23 8.958 23 11.277V20H11v-8.865c0-1.7-.813-3.2-2.048-4.135H14v3.825c-.686.232-1.184.875-1.184 1.638 0 .957.778 1.735 1.735 1.735s1.736-.778 1.736-1.735c0-.8-.548-1.47-1.287-1.67V7h3.69zm-4.138 4.727c.405 0 .735.33.735.736 0 .405-.33.735-.735.735s-.735-.33-.735-.735c0-.406.33-.736.735-.736zM15 1h8v2h-8V1z"/></svg>