<svg xmlns="http://www.w3.org/2000/svg" width="24" height="24" viewBox="0 0 24 24"><path d="M21.944 8.38c-1.035-.792-2.34-1.11-3.63-.905-.264-1.112-.924-2.095-1.864-2.75-1.043-.728-2.312-.99-3.61-.743-1.214-1.082-2.486-1.588-3.984-1.588-3.16 0-5.72 2.356-6.177 5.64-1.407.83-2.335 2.29-2.335 3.708 0 2.387 1.95 4.328 4.35 4.328h1.462l-.032 5.007c0 .204.122.39.312.466.06.025.125.037.188.037.133 0 .264-.054.36-.153l5.147-5.356h6.977c2.44 0 4.58-2.02 4.58-4.327.002-1.268-.65-2.524-1.746-3.362zm-2.834 6.69h-7.19c-.136 0-.266.056-.36.153L7.133 19.83l.027-4.257c0-.133-.05-.26-.146-.355-.093-.095-.22-.148-.354-.148H4.695c-2.07 0-3.35-1.728-3.35-3.328 0-1.114.835-2.328 2.03-2.95.15-.08.25-.226.267-.393.3-2.9 2.492-5.005 5.213-5.005 1.307 0 2.416.475 3.49 1.494.124.116.298.164.463.122 1.105-.265 2.195-.077 3.07.534.854.595 1.413 1.537 1.535 2.584.018.145.097.274.217.356.122.083.273.107.41.068 1.168-.316 2.368-.088 3.296.62.85.65 1.355 1.61 1.355 2.568.002 1.772-1.67 3.328-3.58 3.328z"/></svg>