<svg xmlns="http://www.w3.org/2000/svg" width="24" height="24" viewBox="0 0 24 24"><path d="M15.016 9.317v-.855c0-.276-.224-.5-.5-.5s-.5.224-.5.5v.53H9.958v-.53c0-.276-.224-.5-.5-.5s-.5.224-.5.5v.84l-6.79 7.613c-.08.092-.126.21-.126.333v4.25c0 .276.224.5.5.5H4.03v1.414c0 .276.223.5.5.5s.5-.224.5-.5v-1.414h13.923v1.414c0 .276.224.5.5.5s.5-.224.5-.5v-1.414h1.487c.276 0 .5-.224.5-.5v-4.25c0-.123-.045-.242-.127-.333l-6.797-7.598zm5.924 11.68H3.042v-3.56l6.64-7.445h4.596l6.663 7.447v3.558z"/><path d="M8.155 16.055c0 2.115 1.72 3.836 3.835 3.836s3.835-1.72 3.835-3.835-1.72-3.835-3.835-3.835-3.835 1.72-3.835 3.835zm6.67 0c0 1.563-1.27 2.836-2.834 2.836-1.562 0-2.834-1.27-2.834-2.835s1.272-2.835 2.835-2.835c1.564 0 2.836 1.272 2.836 2.835z"/><path d="M10.112 16.055c0 1.036.843 1.88 1.88 1.88 1.036 0 1.878-.844 1.878-1.88s-.843-1.88-1.88-1.88c-1.035.002-1.878.844-1.878 1.88zm2.758 0c0 .484-.395.88-.88.88s-.878-.396-.878-.88.394-.88.88-.88.878.396.878.88zM22.686 3.68l-.474.16.474-.16c-.857-2.507-4.35-3.697-10.69-3.636-6.348-.077-9.842 1.13-10.7 3.636-.335.98-.25 3.324-.25 3.346.018.484.42.867.915.873l5.997.028h.004c.5 0 .902-.382.92-.882 0 0 .02-1.165.03-1.542.22-.2 1.288-.51 3.148-.527 1.81.007 2.822.335 3.014.52.01.366.03 1.55.03 1.56.02.49.424.872.92.872h.004l6-.03c.492-.005.893-.39.91-.87 0-.026.085-2.37-.25-3.35zM21.94 6.9l-5.84.027c-.026-1.633-.027-1.635-.06-1.732-.377-1.1-2.95-1.22-4.037-1.22H12c-1.096 0-3.68.12-4.057 1.223-.033.097-.033.1-.06 1.73l-5.84-.03c-.03-.908.013-2.35.2-2.895.69-2.017 3.98-3.003 9.753-2.958 5.78-.054 9.053.94 9.744 2.96.186.543.228 1.984.2 2.894z"/></svg>