<svg xmlns="http://www.w3.org/2000/svg" width="24" height="24" viewBox="0 0 24 24"><path d="M19.5 7h-7c-.276 0-.5.223-.5.5s.224.5.5.5h7c.276 0 .5-.224.5-.5s-.224-.5-.5-.5z"/><path d="M23.597 6.345C23.417 4.725 23.145 4 22 4H11.5c-.276 0-.5.224-.5.5s.224.5.5.5H22c.294 0 .44 0 .603 1.453.3 2.782.3 7.31 0 10.092C22.44 18 22.293 18 22 18H11.5c-.276 0-.5.224-.5.5s.224.5.5.5H22c1.144 0 1.417-.724 1.597-2.346.305-2.843.305-7.466 0-10.31zM1.833 5.013C1.843 5.01 1.875 5 2 5h.5c.276 0 .5-.224.5-.5S2.776 4 2.5 4H2C.95 4 .68 4.756.503 6.347.2 9.187.2 13.81.503 16.657.683 18.276.957 19 2.1 19h.4c.276 0 .5-.224.5-.5s-.224-.5-.5-.5h-.4c-.294 0-.44 0-.603-1.452-.298-2.784-.298-7.312 0-10.092.138-1.238.306-1.42.336-1.443zM9.554 2.54C9.252 2.19 8.807 2 8.3 2H5.6C4.703 2 4 2.746 4 3.7v15.7c0 .905.748 1.7 1.6 1.7h2.7c.897 0 1.6-.747 1.6-1.7L9.895 3.77c.066-.464-.055-.9-.34-1.23zM8.9 19.4c0 .4-.258.7-.6.7H5.6c-.297 0-.6-.354-.6-.7V3.7c0-.4.258-.7.6-.7h2.7c.213 0 .39.07.5.194.093.11.13.26.1.506v15.7z"/><path d="M12.5 11h1c.276 0 .5-.224.5-.5s-.224-.5-.5-.5h-1c-.276 0-.5.224-.5.5s.224.5.5.5zM12.5 13h1c.276 0 .5-.224.5-.5s-.224-.5-.5-.5h-1c-.276 0-.5.224-.5.5s.224.5.5.5zM12.5 15h1c.276 0 .5-.224.5-.5s-.224-.5-.5-.5h-1c-.276 0-.5.224-.5.5s.224.5.5.5zM16.5 10h-1c-.276 0-.5.224-.5.5s.224.5.5.5h1c.276 0 .5-.224.5-.5s-.224-.5-.5-.5zM16.5 12h-1c-.276 0-.5.224-.5.5s.224.5.5.5h1c.276 0 .5-.224.5-.5s-.224-.5-.5-.5zM16.5 14h-1c-.276 0-.5.224-.5.5s.224.5.5.5h1c.276 0 .5-.224.5-.5s-.224-.5-.5-.5zM19.5 10h-1c-.276 0-.5.224-.5.5s.224.5.5.5h1c.276 0 .5-.224.5-.5s-.224-.5-.5-.5zM19.5 12h-1c-.276 0-.5.224-.5.5s.224.5.5.5h1c.276 0 .5-.224.5-.5s-.224-.5-.5-.5zM19.5 14h-1c-.276 0-.5.224-.5.5s.224.5.5.5h1c.276 0 .5-.224.5-.5s-.224-.5-.5-.5z"/></svg>