<svg xmlns="http://www.w3.org/2000/svg" width="24" height="24" viewBox="0 0 24 24"><path d="M16.828 13h3.32c.454 0 .852-.37.852-.79V7.747c0-.42-.374-.748-.853-.748h-3.32c-.464 0-.827.328-.827.748v4.46c0 .43.38.792.828.792zM17 8h3v4h-3V8zM3.573 17h6.903c.276 0 .5-.224.5-.5s-.224-.5-.5-.5H3.573c-.276 0-.5.224-.5.5s.223.5.5.5zM3.573 14h6.903c.276 0 .5-.224.5-.5s-.224-.5-.5-.5H3.573c-.276 0-.5.224-.5.5s.223.5.5.5zM3.573 11H6.53c.277 0 .5-.224.5-.5s-.222-.5-.5-.5H3.574c-.276 0-.5.224-.5.5s.223.5.5.5z"/><path d="M23.5 4H.5c-.276 0-.5.223-.5.5v15c0 .276.224.5.5.5h23c.276 0 .5-.224.5-.5v-15c0-.277-.224-.5-.5-.5zM23 19H1V5h22v14z"/></svg>