<?xml version="1.0" encoding="utf-8"?>
<!-- Generator: Adobe Illustrator 19.2.0, SVG Export Plug-In . SVG Version: 6.00 Build 0)  -->
<svg version="1.1" id="Layer_1" xmlns="http://www.w3.org/2000/svg" xmlns:xlink="http://www.w3.org/1999/xlink" x="0px" y="0px"
	 width="24px" height="24px" viewBox="0 0 24 24" style="enable-background:new 0 0 24 24;" xml:space="preserve">
<g>
	<path d="M19.866,2.367h-3.514c-0.992-1.318-2.565-2.176-4.338-2.176S8.669,1.049,7.677,2.367H4.163
		c-1.63,0-2.956,1.326-2.955,2.983l0.865,15.676c0,1.63,1.326,2.955,2.956,2.955H19c1.63,0,2.955-1.325,2.954-2.928l0.867-15.731
		C22.821,3.693,21.496,2.367,19.866,2.367z M12.014,1.192c2.445,0,4.433,1.989,4.433,4.433s-1.988,4.433-4.433,4.433
		c-2.444,0-4.433-1.988-4.433-4.433S9.57,1.192,12.014,1.192z M20.955,21.026c0,1.078-0.877,1.955-1.955,1.955H5.029
		c-1.078,0-1.956-0.877-1.957-1.982L2.207,5.323c0-1.078,0.877-1.956,1.956-1.956h2.916C6.763,4.056,6.582,4.819,6.582,5.625
		c0,2.996,2.437,5.433,5.433,5.433s5.433-2.437,5.433-5.433c0-0.806-0.181-1.569-0.497-2.257h2.916c1.078,0,1.955,0.877,1.956,1.928
		L20.955,21.026z"/>
	<path d="M12.014,7.812c0.735,0,1.333-0.598,1.333-1.333c0-0.558-0.346-1.033-0.833-1.232V2.344c0-0.276-0.224-0.5-0.5-0.5
		s-0.5,0.224-0.5,0.5v2.903c-0.487,0.199-0.833,0.674-0.833,1.232C10.682,7.214,11.279,7.812,12.014,7.812z M12.014,6.812
		c-0.184,0-0.333-0.149-0.333-0.333c0-0.183,0.149-0.332,0.332-0.333c0,0,0,0,0.001,0s0,0,0.001,0c0.183,0,0.332,0.149,0.332,0.333
		C12.347,6.663,12.198,6.812,12.014,6.812z"/>
</g>
</svg>
