<?xml version="1.0" encoding="utf-8"?>
<!-- Generator: Adobe Illustrator 19.2.0, SVG Export Plug-In . SVG Version: 6.00 Build 0)  -->
<svg version="1.1" id="Layer_1" xmlns="http://www.w3.org/2000/svg" xmlns:xlink="http://www.w3.org/1999/xlink" x="0px" y="0px"
	 width="24px" height="24px" viewBox="0 0 24 24" style="enable-background:new 0 0 24 24;" xml:space="preserve">
<path d="M19.426,21.035h-6.244c-1.166-0.326-2.226-1.049-3.074-1.979h7.375c0.276,0,0.5-0.224,0.5-0.5s-0.224-0.5-0.5-0.5H9.338
	c-0.696-1.078-1.13-2.311-1.13-3.542c0-1.675,0.688-3.294,1.883-4.483c0.039,0.002,0.077,0.012,0.117,0.012
	c0.057,0,0.11-0.012,0.165-0.017l0.291,1.008c0,0.001,0,0.002,0,0.002c0,0.001,0.001,0.001,0.001,0.002
	c0.178,0.615,0.577,1.078,1.112,1.339l-0.509,2.09c-0.065,0.269,0.099,0.539,0.368,0.604c0.04,0.01,0.08,0.015,0.119,0.015
	c0.225,0,0.43-0.153,0.485-0.382l0.51-2.095c0.013,0,0.025,0.005,0.037,0.004c0.08,0,0.16-0.017,0.24-0.024l0.627,2.137
	c0.063,0.218,0.263,0.359,0.479,0.359c0.047,0,0.094-0.007,0.141-0.021c0.265-0.077,0.417-0.355,0.339-0.62l-0.625-2.129
	c0.084-0.042,0.17-0.081,0.249-0.132l1.575,1.485c0.097,0.091,0.22,0.136,0.343,0.136c0.133,0,0.266-0.053,0.364-0.157
	c0.189-0.201,0.18-0.517-0.021-0.707l-1.558-1.469c0.318-0.508,0.411-1.117,0.232-1.737l-1.485-5.148
	c-0.22-0.761-0.771-1.303-1.511-1.497L11.581,1.02c-0.077-0.265-0.352-0.417-0.619-0.342L9.405,1.128
	C9.277,1.164,9.17,1.25,9.106,1.366c-0.064,0.116-0.08,0.253-0.043,0.38L9.66,3.814c-0.523,0.558-0.7,1.311-0.481,2.072l0.166,0.577
	c-0.543,0.28-0.93,0.809-1.011,1.438C6.37,9.691,5.327,11.97,5.327,14.513c0,2.223,1.041,4.707,2.659,6.521H5.599
	c-0.798,0-1.473,0.687-1.473,1.5c0,0.827,0.661,1.5,1.473,1.5h13.827c0.812,0,1.473-0.673,1.473-1.5S20.238,21.035,19.426,21.035z
	 M14.247,10.522c-0.037,0.27-0.16,0.478-0.291,0.614c-0.37,0.385-0.995,0.562-1.512,0.436c-0.184-0.045-0.399-0.156-0.574-0.364
	L14.247,10.522z M12.728,4.863l1.347,4.668l-2.587,0.747l-0.173-0.598c0.477-0.345,0.791-0.903,0.791-1.535
	c0-1.006-0.788-1.823-1.778-1.885L10.14,5.61c-0.158-0.545,0.053-0.913,0.257-1.125c0.371-0.385,0.99-0.564,1.513-0.436
	C12.196,4.12,12.57,4.319,12.728,4.863z M10.758,1.778l0.371,1.287c-0.206,0.034-0.403,0.091-0.596,0.172L10.163,1.95L10.758,1.778z
	 M10.208,7.247c0.495,0,0.897,0.403,0.897,0.897c0,0.495-0.403,0.898-0.897,0.898c-0.495,0-0.898-0.403-0.898-0.898
	C9.31,7.65,9.713,7.247,10.208,7.247z M6.327,14.513c0-2.055,0.773-3.92,2.235-5.442c0.128,0.227,0.299,0.424,0.505,0.58
	c-1.188,1.338-1.859,3.073-1.859,4.862c0,2.558,1.487,5.086,3.634,6.521H9.393C7.556,19.385,6.327,16.791,6.327,14.513z
	 M19.426,23.035H5.599c-0.252,0-0.473-0.233-0.473-0.5s0.221-0.5,0.473-0.5h13.827c0.252,0,0.473,0.233,0.473,0.5
	S19.678,23.035,19.426,23.035z"/>
</svg>
