<?xml version="1.0" encoding="utf-8"?>
<!-- Generator: Adobe Illustrator 19.2.0, SVG Export Plug-In . SVG Version: 6.00 Build 0)  -->
<svg version="1.1" id="Layer_1" xmlns="http://www.w3.org/2000/svg" xmlns:xlink="http://www.w3.org/1999/xlink" x="0px" y="0px"
	 width="24px" height="24px" viewBox="0 0 24 24" style="enable-background:new 0 0 24 24;" xml:space="preserve">
<g>
	<path d="M23.5,11H12V3.5C12,1.57,10.43,0,8.5,0h-5C1.538,0,0,1.537,0,3.5v20C0,23.776,0.224,24,0.5,24h11h4h4h4
		c0.276,0,0.5-0.224,0.5-0.5v-12C24,11.223,23.776,11,23.5,11z M1,3.5C1,2.074,2.075,1,3.5,1h5C9.878,1,11,2.121,11,3.5v8V23H1V3.5z
		 M16,23v-3h3v3H16z M23,23h-3v-3.5c0-0.276-0.224-0.5-0.5-0.5h-4c-0.276,0-0.5,0.224-0.5,0.5V23h-3V12h11V23z"/>
	<path d="M8.5,14h-1C7.224,14,7,14.223,7,14.5S7.224,15,7.5,15h1C8.776,15,9,14.776,9,14.5S8.776,14,8.5,14z"/>
	<path d="M8.5,17h-1C7.224,17,7,17.223,7,17.5S7.224,18,7.5,18h1C8.776,18,9,17.776,9,17.5S8.776,17,8.5,17z"/>
	<path d="M8.5,11h-1C7.224,11,7,11.223,7,11.5S7.224,12,7.5,12h1C8.776,12,9,11.776,9,11.5S8.776,11,8.5,11z"/>
	<path d="M8.5,20h-1C7.224,20,7,20.223,7,20.5S7.224,21,7.5,21h1C8.776,21,9,20.776,9,20.5S8.776,20,8.5,20z"/>
	<path d="M4.5,14h-1C3.224,14,3,14.223,3,14.5S3.224,15,3.5,15h1C4.776,15,5,14.776,5,14.5S4.776,14,4.5,14z"/>
	<path d="M4.5,17h-1C3.224,17,3,17.223,3,17.5S3.224,18,3.5,18h1C4.776,18,5,17.776,5,17.5S4.776,17,4.5,17z"/>
	<path d="M4.5,11h-1C3.224,11,3,11.223,3,11.5S3.224,12,3.5,12h1C4.776,12,5,11.776,5,11.5S4.776,11,4.5,11z"/>
	<path d="M4.5,20h-1C3.224,20,3,20.223,3,20.5S3.224,21,3.5,21h1C4.776,21,5,20.776,5,20.5S4.776,20,4.5,20z"/>
	<path d="M13.5,21h0.2c0.276,0,0.5-0.224,0.5-0.5S13.977,20,13.7,20h-0.2c-0.276,0-0.5,0.224-0.5,0.5S13.224,21,13.5,21z"/>
	<path d="M13.5,18h0.2c0.276,0,0.5-0.224,0.5-0.5S13.977,17,13.7,17h-0.2c-0.276,0-0.5,0.224-0.5,0.5S13.224,18,13.5,18z"/>
	<path d="M13.5,15h0.3c0.276,0,0.5-0.224,0.5-0.5S14.076,14,13.8,14h-0.3c-0.276,0-0.5,0.224-0.5,0.5S13.224,15,13.5,15z"/>
	<path d="M21.5,21c0.276,0,0.5-0.224,0.5-0.5S21.776,20,21.5,20h-0.1c-0.276,0-0.45,0.224-0.45,0.5S21.224,21,21.5,21z"/>
	<path d="M21.5,18c0.276,0,0.5-0.224,0.5-0.5S21.776,17,21.5,17h-0.1c-0.276,0-0.45,0.224-0.45,0.5S21.224,18,21.5,18z"/>
	<path d="M21.5,15c0.276,0,0.5-0.224,0.5-0.5S21.776,14,21.5,14h-0.1c-0.276,0-0.45,0.224-0.45,0.5S21.224,15,21.5,15z"/>
	<path d="M15.5,18h0.2c0.276,0,0.5-0.224,0.5-0.5S15.977,17,15.7,17h-0.2c-0.276,0-0.5,0.224-0.5,0.5S15.224,18,15.5,18z"/>
	<path d="M15.5,15h0.2c0.276,0,0.5-0.224,0.5-0.5S15.977,14,15.7,14h-0.2c-0.276,0-0.5,0.224-0.5,0.5S15.224,15,15.5,15z"/>
	<path d="M17.5,18h0.2c0.276,0,0.5-0.224,0.5-0.5S17.977,17,17.7,17h-0.2c-0.276,0-0.5,0.224-0.5,0.5S17.224,18,17.5,18z"/>
	<path d="M17.5,15h0.2c0.276,0,0.5-0.224,0.5-0.5S17.977,14,17.7,14h-0.2c-0.276,0-0.5,0.224-0.5,0.5S17.224,15,17.5,15z"/>
	<path d="M19.5,18c0.276,0,0.5-0.224,0.5-0.5S19.776,17,19.5,17h-0.1c-0.276,0-0.45,0.224-0.45,0.5S19.224,18,19.5,18z"/>
	<path d="M19.5,15c0.276,0,0.5-0.224,0.5-0.5S19.776,14,19.5,14h-0.1c-0.276,0-0.45,0.224-0.45,0.5S19.224,15,19.5,15z"/>
	<path d="M7,7v1.5C7,8.776,7.224,9,7.5,9S8,8.776,8,8.5V4.6c0-0.276-0.224-0.5-0.5-0.5S7,4.323,7,4.6V6H5V4.6
		c0-0.276-0.224-0.5-0.5-0.5S4,4.323,4,4.6v3.9C4,8.776,4.224,9,4.5,9S5,8.776,5,8.5V7H7z"/>
</g>
</svg>
