<?xml version="1.0" encoding="utf-8"?>
<!-- Generator: Adobe Illustrator 19.2.0, SVG Export Plug-In . SVG Version: 6.00 Build 0)  -->
<svg version="1.1" id="Layer_1" xmlns="http://www.w3.org/2000/svg" xmlns:xlink="http://www.w3.org/1999/xlink" x="0px" y="0px"
	 width="24px" height="24px" viewBox="0 0 24 24" style="enable-background:new 0 0 24 24;" xml:space="preserve">
<g>
	<path d="M12.251,5.034H4.884c-0.996,0-1.87,0.811-1.87,1.735v5.66c0,2.769,2.175,5.959,5.053,6.265v4.712
		c0,0.276,0.224,0.5,0.5,0.5s0.5-0.224,0.5-0.5v-4.719c2.826-0.371,4.947-3.522,4.947-6.258V6.77
		C14.015,5.829,13.207,5.034,12.251,5.034z M4.884,6.034h7.367c0.407,0,0.764,0.344,0.764,0.735v2.157
		C11.771,9.408,9.905,9.393,8.782,8.86C7.478,8.24,5.502,8.178,4.014,8.664V6.77C4.014,6.399,4.445,6.034,4.884,6.034z
		 M8.514,17.724c-2.493,0-4.5-2.896-4.5-5.295V9.737c1.243-0.523,3.185-0.522,4.339,0.026c0.729,0.346,1.668,0.519,2.614,0.519
		c0.707,0,1.417-0.099,2.047-0.292v2.439C13.015,14.828,11.007,17.724,8.514,17.724z"/>
	<path d="M16.995,0.034H9.859c-0.948,0-1.845,0.952-1.845,1.958v0.104C7.194,2.352,6.592,3.109,6.592,4.012
		c0,0.276,0.224,0.5,0.5,0.5s0.5-0.224,0.5-0.5c0-0.559,0.455-1.014,1.014-1.014c0.56,0,1.015,0.455,1.015,1.014
		c0,0.276,0.224,0.5,0.5,0.5s0.5-0.224,0.5-0.5c0-0.971-0.691-1.784-1.607-1.973V1.993c0-0.439,0.458-0.958,0.845-0.958h7.136
		c1.057,0,2.02,1.054,2.02,2.211v20.16c0,0.276,0.224,0.5,0.5,0.5s0.5-0.224,0.5-0.5V3.246C20.015,1.535,18.604,0.034,16.995,0.034z
		"/>
	<path d="M6.639,10.05H5.312c-0.276,0-0.5,0.224-0.5,0.5s0.224,0.5,0.5,0.5h1.327c0.276,0,0.5-0.224,0.5-0.5
		S6.915,10.05,6.639,10.05z"/>
	<path d="M6.639,11.661H5.312c-0.276,0-0.5,0.224-0.5,0.5s0.224,0.5,0.5,0.5h1.327c0.276,0,0.5-0.224,0.5-0.5
		S6.915,11.661,6.639,11.661z"/>
	<path d="M6.639,13.272H5.312c-0.276,0-0.5,0.224-0.5,0.5s0.224,0.5,0.5,0.5h1.327c0.276,0,0.5-0.224,0.5-0.5
		S6.915,13.272,6.639,13.272z"/>
</g>
</svg>
