<?xml version="1.0" encoding="utf-8"?>
<!-- Generator: Adobe Illustrator 19.2.0, SVG Export Plug-In . SVG Version: 6.00 Build 0)  -->
<svg version="1.1" id="Layer_1" xmlns="http://www.w3.org/2000/svg" xmlns:xlink="http://www.w3.org/1999/xlink" x="0px" y="0px"
	 width="24px" height="24px" viewBox="0 0 24 24" style="enable-background:new 0 0 24 24;" xml:space="preserve">
<g>
	<path d="M17.123,7.653l5.108-5.108c0.195-0.195,0.195-0.512,0-0.707s-0.512-0.195-0.707,0l-5.108,5.108l-1.681-1.681
		c-0.195-0.195-0.512-0.195-0.707,0L3.242,16.05c-0.195,0.195-0.195,0.512,0,0.707l0.695,0.695l-2.282,2.282L0.96,19.039
		c-0.195-0.195-0.512-0.195-0.707,0s-0.195,0.512,0,0.707l4.069,4.069c0.098,0.098,0.226,0.146,0.354,0.146s0.256-0.049,0.354-0.146
		c0.195-0.195,0.195-0.512,0-0.707l-0.695-0.695l2.282-2.282l0.694,0.694c0.098,0.098,0.226,0.146,0.354,0.146
		s0.256-0.049,0.354-0.146l10.785-10.785c0.195-0.195,0.195-0.512,0-0.707L17.123,7.653z M3.628,21.706L2.362,20.44l2.281-2.282
		l1.266,1.266L3.628,21.706z M7.665,19.765l-0.694-0.694l-1.973-1.974c0,0-0.001-0.001-0.001-0.001l-0.693-0.693l0.813-0.813
		l1.681,1.681c0.098,0.098,0.226,0.146,0.354,0.146s0.256-0.049,0.354-0.146c0.195-0.195,0.195-0.512,0-0.707l-1.681-1.681
		l0.686-0.686l0.664,0.664c0.098,0.098,0.226,0.146,0.354,0.146s0.256-0.049,0.354-0.146c0.195-0.195,0.195-0.512,0-0.707
		l-0.664-0.664l0.686-0.686l1.681,1.681c0.098,0.098,0.226,0.146,0.354,0.146s0.256-0.049,0.354-0.146
		c0.195-0.195,0.195-0.512,0-0.707l-1.681-1.681l0.686-0.686l0.664,0.664c0.098,0.098,0.226,0.146,0.354,0.146
		s0.256-0.049,0.354-0.146c0.195-0.195,0.195-0.512,0-0.707l-0.664-0.664l0.686-0.686l1.681,1.681
		c0.098,0.098,0.226,0.146,0.354,0.146s0.256-0.049,0.354-0.146c0.195-0.195,0.195-0.512,0-0.707l-1.681-1.681l0.686-0.686
		l0.664,0.664c0.098,0.098,0.226,0.146,0.354,0.146s0.256-0.049,0.354-0.146c0.195-0.195,0.195-0.512,0-0.707l-0.664-0.664
		l1.594-1.594l3.362,3.362L7.665,19.765z"/>
	<path d="M21.877,6.549c-0.669,0-1.996,3.207-1.996,3.685c0,1.101,0.896,1.996,1.996,1.996s1.995-0.895,1.995-1.996
		C23.872,9.756,22.546,6.549,21.877,6.549z M21.877,11.229c-0.549,0-0.996-0.447-0.996-0.996c0-0.394,0.576-1.504,0.996-2.236
		c0.422,0.731,0.995,1.836,0.995,2.236C22.872,10.782,22.426,11.229,21.877,11.229z"/>
</g>
</svg>
