<?xml version="1.0" encoding="utf-8"?>
<!-- Generator: Adobe Illustrator 19.2.0, SVG Export Plug-In . SVG Version: 6.00 Build 0)  -->
<svg version="1.1" id="Layer_1" xmlns="http://www.w3.org/2000/svg" xmlns:xlink="http://www.w3.org/1999/xlink" x="0px" y="0px"
	 width="24px" height="24px" viewBox="0 0 24 24" style="enable-background:new 0 0 24 24;" xml:space="preserve">
<path d="M23.7,6.565c0-1.757-1.429-3.186-3.186-3.186s-3.187,1.429-3.187,3.186c0,1.586,1.168,2.893,2.687,3.135v7.613
	c0,2.985-2.553,5.508-5.574,5.508h-0.63c-3.088,0-5.796-2.574-5.796-5.508v-1.862c3.754-0.37,6.886-5.215,6.886-9.221
	c0-2.534-1.338-4.244-3.852-4.98c-0.16-0.505-0.617-0.879-1.175-0.879c-0.689,0-1.25,0.561-1.25,1.25s0.561,1.25,1.25,1.25
	c0.452,0,0.831-0.254,1.051-0.615C12.916,2.887,13.9,4.185,13.9,6.23c0,3.476-2.724,7.833-5.891,8.219
	c-0.012-0.265-0.227-0.478-0.495-0.478c-0.266,0-0.478,0.208-0.494,0.47c-3.128-0.457-5.8-4.768-5.8-8.211
	c0-2.046,0.984-3.344,2.976-3.975C4.416,2.616,4.795,2.87,5.247,2.87c0.689,0,1.25-0.561,1.25-1.25s-0.561-1.25-1.25-1.25
	c-0.558,0-1.014,0.374-1.174,0.879C1.559,1.986,0.22,3.695,0.22,6.23c0,3.973,3.081,8.775,6.794,9.214v1.869
	c0,3.467,3.176,6.508,6.796,6.508h0.63c3.563,0,6.574-2.98,6.574-6.508V9.7C22.533,9.458,23.7,8.15,23.7,6.565z M9.624,1.62
	c0-0.138,0.112-0.25,0.25-0.25s0.25,0.112,0.25,0.25C10.123,1.896,9.624,1.896,9.624,1.62z M5.247,1.371
	c0.138,0,0.25,0.112,0.25,0.25c0,0.275-0.499,0.275-0.499,0C4.998,1.483,5.109,1.371,5.247,1.371z M20.515,7.124
	c-0.309,0-0.56-0.251-0.56-0.559s0.251-0.559,0.56-0.559c0.308,0,0.559,0.251,0.559,0.559S20.822,7.124,20.515,7.124z M21.015,8.688
	V8.034c0.613-0.21,1.059-0.786,1.059-1.469c0-0.86-0.699-1.559-1.559-1.559c-0.86,0-1.56,0.699-1.56,1.559
	c0,0.684,0.445,1.26,1.06,1.47v0.653c-0.965-0.227-1.687-1.09-1.687-2.123c0-1.206,0.98-2.186,2.187-2.186
	c1.205,0,2.186,0.98,2.186,2.186C22.7,7.597,21.979,8.46,21.015,8.688z"/>
</svg>
