<?xml version="1.0" encoding="utf-8"?>
<!-- Generator: Adobe Illustrator 19.2.0, SVG Export Plug-In . SVG Version: 6.00 Build 0)  -->
<svg version="1.1" id="Layer_1" xmlns="http://www.w3.org/2000/svg" xmlns:xlink="http://www.w3.org/1999/xlink" x="0px" y="0px"
	 width="24px" height="24px" viewBox="0 0 24 24" style="enable-background:new 0 0 24 24;" xml:space="preserve">
<g>
	<path d="M15.015,6.112V4.034h0.5c0.276,0,0.5-0.224,0.5-0.5v-3c0-0.276-0.224-0.5-0.5-0.5h-7c-0.276,0-0.5,0.224-0.5,0.5v3
		c0,0.276,0.224,0.5,0.5,0.5h0.5v2.07c-1.042,0.454-4,1.923-4,3.971v1.459v8v1.797c0,1.465,1.284,2.703,2.803,2.703h8.394
		c1.52,0,2.804-1.238,2.804-2.703v-1.797v-8v-1.459C19.015,8.116,16.046,6.585,15.015,6.112z M9.014,1.034h6v2h-0.5h-5h-0.5V1.034z
		 M9.697,6.904c0.191-0.075,0.317-0.26,0.317-0.465V4.034h4v2.404c0,0.202,0.121,0.383,0.308,0.461
		c0.958,0.401,3.692,1.844,3.692,3.175v0.959h-12v-0.959C6.014,8.667,8.741,7.279,9.697,6.904z M18.015,19.035h-12v-7h12V19.035z
		 M16.211,23.035H7.817c-0.96,0-1.803-0.796-1.803-1.703v-1.297h12v1.297C18.015,22.239,17.172,23.035,16.211,23.035z"/>
	<path d="M9.822,17.76c0.098,0.098,0.226,0.146,0.354,0.146s0.256-0.049,0.354-0.146l1.485-1.485l1.485,1.485
		c0.098,0.098,0.226,0.146,0.354,0.146s0.256-0.049,0.354-0.146c0.195-0.195,0.195-0.512,0-0.707l-1.485-1.485l1.485-1.485
		c0.195-0.195,0.195-0.512,0-0.707s-0.512-0.195-0.707,0l-1.485,1.485l-1.485-1.485c-0.195-0.195-0.512-0.195-0.707,0
		s-0.195,0.512,0,0.707l1.485,1.485l-1.485,1.485C9.626,17.249,9.626,17.565,9.822,17.76z"/>
</g>
</svg>
