<?xml version="1.0" encoding="utf-8"?>
<!-- Generator: Adobe Illustrator 19.2.0, SVG Export Plug-In . SVG Version: 6.00 Build 0)  -->
<svg version="1.1" id="Layer_1" xmlns="http://www.w3.org/2000/svg" xmlns:xlink="http://www.w3.org/1999/xlink" x="0px" y="0px"
	 width="24px" height="24px" viewBox="0 0 24 24" style="enable-background:new 0 0 24 24;" xml:space="preserve">
<g>
	<path d="M14.229,15.376c-0.195-0.195-0.512-0.195-0.707,0l-1.507,1.507l-1.507-1.507c-0.195-0.195-0.512-0.195-0.707,0
		s-0.195,0.512,0,0.707l1.507,1.507L9.8,19.097c-0.195,0.195-0.195,0.512,0,0.707c0.098,0.098,0.226,0.146,0.354,0.146
		s0.256-0.049,0.354-0.146l1.507-1.507l1.507,1.507c0.098,0.098,0.226,0.146,0.354,0.146s0.256-0.049,0.354-0.146
		c0.195-0.195,0.195-0.512,0-0.707l-1.507-1.507l1.507-1.507C14.424,15.887,14.424,15.571,14.229,15.376z"/>
	<path d="M19.777,19.384l-4.763-7.554V3.219l1.148-1.362c0.126-0.148,0.153-0.356,0.071-0.533c-0.082-0.176-0.259-0.289-0.453-0.289
		H8.247c-0.194,0-0.372,0.113-0.454,0.29C7.711,1.5,7.739,1.708,7.865,1.857l1.149,1.362v8.611l-4.793,7.634
		c-0.402,1-0.28,2.135,0.328,3.034c0.606,0.897,1.612,1.434,2.689,1.434h9.552c1.081,0,2.09-0.538,2.699-1.44
		C20.096,21.593,20.22,20.461,19.777,19.384z M18.66,21.931c-0.43,0.636-1.111,1-1.87,1H7.238c-0.756,0-1.434-0.362-1.86-0.994
		c-0.428-0.633-0.511-1.398-0.27-2.021l4.829-7.677c0.05-0.08,0.077-0.172,0.077-0.266v-0.939h1c0.276,0,0.5-0.224,0.5-0.5
		s-0.224-0.5-0.5-0.5h-1v-2h1c0.276,0,0.5-0.224,0.5-0.5s-0.224-0.5-0.5-0.5h-1v-2h1c0.276,0,0.5-0.224,0.5-0.5s-0.224-0.5-0.5-0.5
		h-1V3.036c0-0.118-0.042-0.232-0.118-0.322L9.323,2.034h5.382l-0.572,0.679c-0.076,0.09-0.118,0.204-0.118,0.322v8.938
		c0,0.094,0.026,0.187,0.077,0.267l4.799,7.596C19.172,20.536,19.088,21.299,18.66,21.931z"/>
</g>
</svg>
