<?xml version="1.0" encoding="utf-8"?>
<!-- Generator: Adobe Illustrator 19.2.0, SVG Export Plug-In . SVG Version: 6.00 Build 0)  -->
<svg version="1.1" id="Layer_1" xmlns="http://www.w3.org/2000/svg" xmlns:xlink="http://www.w3.org/1999/xlink" x="0px" y="0px"
	 width="24px" height="24px" viewBox="0 0 24 24" style="enable-background:new 0 0 24 24;" xml:space="preserve">
<g>
	<path d="M23.336,6.688c-0.403-3.675-3.537-6.354-6.118-6.354c-0.034,0-0.069,0-0.103,0.001c-1.6,0.045-3.24,0.417-4.335,0.722
		c-0.519,0.145-1.065,0.145-1.584,0C10.101,0.753,8.46,0.381,6.862,0.336C4.286,0.292,1.049,2.964,0.64,6.688
		C0.263,10.13,0.203,18.659,7.768,23.516c0.463,0.297,1.05,0.32,1.531,0.059c0.484-0.261,0.775-0.745,0.781-1.295
		c0.041-4.594,0.805-7.678,1.902-7.678c0.001,0,0.002,0,0.006,0c0.004,0,0.004,0,0.006,0c1.096,0,1.861,3.084,1.903,7.677
		c0.005,0.55,0.296,1.034,0.779,1.296c0.224,0.121,0.47,0.181,0.716,0.181c0.284,0,0.568-0.08,0.817-0.239
		C23.774,18.658,23.713,10.13,23.336,6.688z M15.669,22.675c-0.16,0.103-0.354,0.111-0.518,0.021
		c-0.075-0.041-0.253-0.164-0.255-0.425c-0.036-3.956-0.569-8.668-2.902-8.668c-0.004,0-0.009,0-0.013,0
		c-2.334,0-2.867,4.713-2.902,8.668c-0.002,0.261-0.18,0.384-0.256,0.426c-0.164,0.089-0.357,0.081-0.516-0.021
		c-7.094-4.556-7.03-12.621-6.673-15.877C1.979,3.65,4.703,1.277,6.833,1.336c1.576,0.044,3.242,0.448,4.095,0.686
		c0.693,0.192,1.426,0.192,2.12,0c0.853-0.237,2.519-0.642,4.095-0.686c2.144-0.082,4.854,2.313,5.199,5.462
		C22.699,10.053,22.764,18.119,15.669,22.675z"/>
	<path d="M16.434,3.613c-0.41,0.291-1.266,0.896-3.214,1.143C8.896,5.305,6.964,3.532,6.923,3.494
		C6.727,3.302,6.411,3.305,6.218,3.501C6.024,3.697,6.026,4.014,6.223,4.208c0.078,0.077,1.726,1.656,5.364,1.656
		c0.542,0,1.128-0.035,1.76-0.115c2.195-0.279,3.188-0.981,3.717-1.356l-0.287-0.409L16.434,3.613z"/>
</g>
</svg>
