<?xml version="1.0" encoding="utf-8"?>
<!-- Generator: Adobe Illustrator 19.2.0, SVG Export Plug-In . SVG Version: 6.00 Build 0)  -->
<svg version="1.1" id="Layer_1" xmlns="http://www.w3.org/2000/svg" xmlns:xlink="http://www.w3.org/1999/xlink" x="0px" y="0px"
	 width="24px" height="24px" viewBox="0 0 24 24" style="enable-background:new 0 0 24 24;" xml:space="preserve">
<g>
	<path d="M10.028,5.034H7.014V4.49c0-0.082,0.054-0.155,0.135-0.182c0.965-0.318,1.537-1.281,1.36-2.288
		C8.366,1.203,7.695,0.532,6.877,0.388C6.278,0.282,5.671,0.444,5.211,0.83c-0.46,0.387-0.724,0.953-0.724,1.553
		c0,0.276,0.224,0.5,0.5,0.5s0.5-0.224,0.5-0.5c0-0.304,0.134-0.591,0.367-0.787c0.236-0.199,0.538-0.28,0.85-0.223
		c0.404,0.071,0.749,0.416,0.819,0.82C7.626,2.776,7.255,3.22,6.836,3.359C6.345,3.521,6.014,3.975,6.014,4.49v0.544H2.661
		c-1.361,0-1.647,0.736-1.647,1.354v6.042c0,2.752,2.148,5.923,5,6.261v4.715c0,0.276,0.224,0.5,0.5,0.5s0.5-0.224,0.5-0.5v-4.715
		c2.852-0.339,5-3.509,5-6.262V6.388C12.014,5.54,11.271,5.034,10.028,5.034z M2.661,6.034h7.367c0.366,0,0.986,0.074,0.986,0.354
		v2.551c-1.271,0.469-3.152,0.449-4.289-0.08C5.438,8.258,3.508,8.185,2.014,8.626V6.388C2.014,6.183,2.014,6.034,2.661,6.034z
		 M6.514,17.724c-2.493,0-4.5-2.896-4.5-5.295V9.684c1.27-0.47,3.151-0.451,4.289,0.081c0.74,0.345,1.694,0.517,2.655,0.517
		c0.71,0,1.421-0.098,2.057-0.285v2.433C11.014,14.828,9.007,17.724,6.514,17.724z"/>
	<path d="M18.549,8.249c-0.954,0-5.106,8.38-5.106,10.307c0,2.815,2.291,5.106,5.106,5.106s5.106-2.291,5.106-5.106
		C23.655,16.63,19.503,8.249,18.549,8.249z M18.549,22.663c-2.265,0-4.106-1.842-4.106-4.106c0-1.917,3.001-7.132,4.106-8.907
		c1.105,1.774,4.106,6.99,4.106,8.907C22.655,20.821,20.813,22.663,18.549,22.663z"/>
	<path d="M17.697,20.579c-0.862-0.216-1.464-0.988-1.464-1.878c0-0.183,0.074-0.65,0.573-1.728c0.116-0.25,0.008-0.548-0.243-0.663
		c-0.248-0.119-0.548-0.008-0.663,0.243c-0.449,0.967-0.667,1.669-0.667,2.147c0,1.349,0.913,2.52,2.22,2.849
		c0.041,0.01,0.082,0.015,0.122,0.015c0.225,0,0.428-0.151,0.485-0.378C18.127,20.918,17.965,20.646,17.697,20.579z"/>
</g>
</svg>
