<?xml version="1.0" encoding="utf-8"?>
<!-- Generator: Adobe Illustrator 19.2.0, SVG Export Plug-In . SVG Version: 6.00 Build 0)  -->
<svg version="1.1" id="Layer_1" xmlns="http://www.w3.org/2000/svg" xmlns:xlink="http://www.w3.org/1999/xlink" x="0px" y="0px"
	 width="24px" height="24px" viewBox="0 0 24 24" style="enable-background:new 0 0 24 24;" xml:space="preserve">
<g>
	<path d="M16.732,14.132c-0.245,0.128-0.34,0.43-0.212,0.675c1.001,1.916,0.299,3.546-0.466,4.575
		c-1.765,2.375-5.499,3.788-8.499,3.215c-1.736-0.331-3.999-1.443-4.918-4.868C1.521,13.574,2.382,9.507,5.061,6.276
		c2.706-3.265,6.982-5.268,10.656-4.99c1.396,0.106,2.28,0.551,2.631,1.322c0.845,1.857-1.314,5.406-2.218,6.617
		c-0.165,0.222-0.12,0.535,0.102,0.7c0.221,0.167,0.535,0.121,0.699-0.101c0.147-0.197,3.589-4.854,2.328-7.628
		c-0.513-1.129-1.679-1.77-3.466-1.906C11.813-0.01,7.195,2.135,4.291,5.638c-2.892,3.488-3.822,7.874-2.62,12.35
		c0.823,3.062,2.846,5.048,5.697,5.591c0.521,0.1,1.058,0.147,1.601,0.147c3.002-0.001,6.188-1.461,7.888-3.748
		c1.322-1.78,1.518-3.781,0.55-5.635C17.278,14.098,16.977,14.005,16.732,14.132z"/>
	<path d="M6.193,13.31c-0.217,0.171-0.255,0.485-0.085,0.702c0.099,0.126,0.246,0.191,0.394,0.191c0.108,0,0.217-0.035,0.308-0.106
		c1.012-0.794,4.147-1.358,5.27-1.508c0.273-0.037,0.466-0.288,0.429-0.562c-0.037-0.273-0.293-0.463-0.562-0.429
		C11.507,11.657,7.602,12.205,6.193,13.31z"/>
	<path d="M14.694,11.715c-0.698-0.09-1.374,0.222-1.769,0.801c-0.698,1.024-2.058,3.12-3.326,5.646
		c-0.124,0.247-0.024,0.548,0.223,0.672c0.246,0.124,0.546,0.024,0.671-0.223c1.243-2.476,2.575-4.529,3.259-5.533
		c0.184-0.269,0.494-0.41,0.821-0.372c6.722,0.825,7.654,5.946,7.69,6.164c0.041,0.244,0.253,0.418,0.493,0.418
		c0.026,0,0.054-0.002,0.081-0.006c0.271-0.045,0.456-0.301,0.412-0.573C23.24,18.649,22.183,12.634,14.694,11.715z"/>
	<path d="M23.775,15.486c-1.118-3.036-4.051-4.764-8.796-5.14c-0.083-0.028-0.323-0.295-0.495-0.913
		c-0.269-0.963-0.235-2.289,0.442-3.082c0.18-0.21,0.155-0.525-0.055-0.705c-0.21-0.179-0.525-0.154-0.705,0.055
		c-1.021,1.194-1.011,3.2-0.482,4.48c0.293,0.708,0.721,1.12,1.294,1.166c1.582,0.126,6.395,0.509,7.859,4.484
		c0.074,0.202,0.266,0.327,0.469,0.327c0.058,0,0.116-0.01,0.173-0.031C23.738,16.033,23.871,15.745,23.775,15.486z"/>
	<path d="M12.789,11.343c0.204,0,0.396-0.126,0.47-0.329c0.094-0.26-0.04-0.546-0.299-0.641c-2.822-1.025-3.614-2.09-3.913-2.491
		c-0.105-0.141-0.188-0.252-0.34-0.32c-0.253-0.11-0.548,0.003-0.66,0.255C7.954,8.029,8.019,8.271,8.191,8.409l0.053,0.069
		c0.347,0.467,1.27,1.706,4.373,2.833C12.674,11.333,12.732,11.343,12.789,11.343z"/>
</g>
</svg>
