<?xml version="1.0" encoding="utf-8"?>
<!-- Generator: Adobe Illustrator 19.2.0, SVG Export Plug-In . SVG Version: 6.00 Build 0)  -->
<svg version="1.1" id="Layer_1" xmlns="http://www.w3.org/2000/svg" xmlns:xlink="http://www.w3.org/1999/xlink" x="0px" y="0px"
	 width="24px" height="24px" viewBox="0 0 24 24" style="enable-background:new 0 0 24 24;" xml:space="preserve">
<g>
	<path d="M23.657,5.897c0-1.471-0.573-2.854-1.613-3.894s-2.423-1.613-3.894-1.613s-2.854,0.573-3.895,1.613L1.96,14.299
		c-1.04,1.04-1.613,2.423-1.613,3.895c0,1.471,0.573,2.854,1.613,3.894c1.074,1.073,2.484,1.61,3.894,1.61
		c1.411,0,2.821-0.537,3.894-1.61l2.607-2.607c0,0,0,0,0,0s0,0,0,0l7.079-7.079c0.001-0.001,0.002-0.001,0.003-0.002
		s0.001-0.002,0.002-0.003l2.605-2.605C23.084,8.751,23.657,7.367,23.657,5.897z M12.002,18.419l-6.374-6.374l6.374-6.374
		l6.374,6.374L12.002,18.419z M9.042,21.38c-1.756,1.758-4.616,1.759-6.374,0c-0.852-0.852-1.32-1.983-1.32-3.187
		c0-1.204,0.469-2.336,1.32-3.188l2.254-2.254l6.374,6.374L9.042,21.38z M19.084,11.337l-6.374-6.374l2.254-2.254
		c0.852-0.851,1.983-1.32,3.188-1.32s2.335,0.469,3.187,1.32c0.852,0.851,1.32,1.983,1.32,3.187c0,1.204-0.469,2.335-1.32,3.187
		L19.084,11.337z"/>
	<path d="M8.62,10.68c-0.09,0.09-0.15,0.22-0.15,0.36c0,0.13,0.06,0.26,0.15,0.34c0.09,0.1,0.22,0.16,0.35,0.16
		c0.14,0,0.26-0.06,0.36-0.16c0.09-0.09,0.14-0.22,0.14-0.34c0-0.13-0.05-0.26-0.14-0.36C9.13,10.49,8.79,10.5,8.62,10.68z"/>
	<path d="M10.64,10.68c-0.1,0.1-0.15,0.23-0.15,0.36c0,0.12,0.05,0.25,0.15,0.35c0.09,0.09,0.22,0.15,0.35,0.15
		c0.14,0,0.26-0.06,0.36-0.16c0.09-0.09,0.14-0.22,0.14-0.34c0-0.13-0.05-0.26-0.14-0.36C11.16,10.49,10.82,10.49,10.64,10.68z"/>
	<path d="M10.63,8.66c-0.09,0.1-0.14,0.23-0.14,0.35c0,0.14,0.06,0.27,0.15,0.36c0.09,0.09,0.22,0.15,0.35,0.15
		c0.14,0,0.26-0.06,0.36-0.15c0.09-0.09,0.14-0.22,0.14-0.36c0-0.12-0.05-0.25-0.15-0.35C11.15,8.47,10.84,8.47,10.63,8.66z"/>
	<path d="M12.67,10.68c-0.09,0.09-0.15,0.22-0.15,0.35c0,0.14,0.06,0.26,0.15,0.36c0.09,0.09,0.22,0.15,0.35,0.15
		s0.261-0.06,0.36-0.15c0.09-0.1,0.14-0.23,0.14-0.36c0-0.12-0.05-0.25-0.14-0.35C13.189,10.49,12.85,10.49,12.67,10.68z"/>
	<path d="M12.67,8.66c-0.09,0.1-0.15,0.22-0.15,0.36c0,0.13,0.06,0.26,0.15,0.35c0.09,0.09,0.22,0.15,0.35,0.15
		s0.261-0.06,0.36-0.15c0.09-0.1,0.14-0.23,0.14-0.35c0-0.13-0.05-0.26-0.14-0.36C13.189,8.47,12.86,8.47,12.67,8.66z"/>
	<path d="M15.05,11.53c0.13,0,0.26-0.05,0.36-0.14c0.09-0.1,0.14-0.23,0.14-0.35c0-0.14-0.05-0.27-0.14-0.36
		c-0.19-0.19-0.53-0.18-0.71,0c-0.091,0.09-0.15,0.22-0.15,0.36c0,0.13,0.05,0.25,0.15,0.35C14.8,11.48,14.92,11.53,15.05,11.53z"/>
	<path d="M14.689,12.72c-0.09,0.09-0.14,0.22-0.14,0.34c0,0.14,0.05,0.26,0.15,0.36c0.09,0.09,0.22,0.141,0.35,0.141
		s0.26-0.051,0.36-0.141c0.09-0.1,0.14-0.22,0.14-0.36c0-0.13-0.05-0.25-0.14-0.35C15.22,12.52,14.899,12.51,14.689,12.72z"/>
	<path d="M12.66,12.72c-0.09,0.09-0.14,0.22-0.14,0.34c0,0.14,0.06,0.27,0.15,0.36c0.1,0.09,0.22,0.141,0.35,0.141
		s0.261-0.051,0.351-0.141c0.1-0.09,0.149-0.22,0.149-0.36c0-0.12-0.05-0.25-0.14-0.35C13.189,12.52,12.85,12.52,12.66,12.72z"/>
	<path d="M12.67,14.74c-0.1,0.1-0.15,0.22-0.15,0.35s0.05,0.26,0.15,0.36c0.1,0.09,0.22,0.14,0.35,0.14s0.261-0.05,0.36-0.14
		c0.09-0.101,0.14-0.22,0.14-0.36c0-0.13-0.05-0.26-0.14-0.35C13.189,14.56,12.86,14.56,12.67,14.74z"/>
	<path d="M10.63,12.71c-0.09,0.1-0.14,0.23-0.14,0.35c0,0.14,0.06,0.26,0.15,0.36c0.09,0.09,0.22,0.141,0.35,0.141
		c0.14,0,0.26-0.051,0.35-0.141c0.1-0.1,0.15-0.22,0.15-0.36c0-0.12-0.05-0.25-0.14-0.35C11.16,12.53,10.83,12.52,10.63,12.71z"/>
	<path d="M10.64,14.74c-0.09,0.09-0.15,0.22-0.15,0.35s0.05,0.26,0.15,0.36c0.1,0.09,0.22,0.14,0.35,0.14s0.26-0.05,0.36-0.149
		c0.09-0.091,0.14-0.221,0.14-0.351s-0.05-0.26-0.14-0.35C11.16,14.56,10.83,14.56,10.64,14.74z"/>
	<path d="M8.61,12.71c-0.09,0.09-0.15,0.22-0.15,0.35c0,0.14,0.06,0.27,0.15,0.36s0.22,0.141,0.35,0.141
		c0.14,0,0.26-0.051,0.35-0.141c0.1-0.09,0.15-0.22,0.15-0.36c0-0.13-0.05-0.26-0.14-0.35C9.13,12.52,8.8,12.52,8.61,12.71z"/>
</g>
</svg>
