<?xml version="1.0" encoding="utf-8"?>
<!-- Generator: Adobe Illustrator 19.2.0, SVG Export Plug-In . SVG Version: 6.00 Build 0)  -->
<svg version="1.1" id="Layer_1" xmlns="http://www.w3.org/2000/svg" xmlns:xlink="http://www.w3.org/1999/xlink" x="0px" y="0px"
	 width="24px" height="24px" viewBox="0 0 24 24" style="enable-background:new 0 0 24 24;" xml:space="preserve">
<g>
	<path d="M10.014,6.112V4.034h0.5c0.276,0,0.5-0.224,0.5-0.5v-3c0-0.276-0.224-0.5-0.5-0.5h-7c-0.276,0-0.5,0.224-0.5,0.5v3
		c0,0.276,0.224,0.5,0.5,0.5h0.5v2.07c-1.042,0.454-4,1.923-4,3.971v1.459v8v1.797c0,1.465,1.284,2.703,2.803,2.703h8.394
		c1.52,0,2.804-1.238,2.804-2.703v-1.797v-8v-1.459C14.015,8.116,11.046,6.585,10.014,6.112z M4.014,1.034h6v2h-0.5h-5h-0.5V1.034z
		 M4.697,6.904c0.191-0.075,0.317-0.26,0.317-0.465V4.034h4v2.404c0,0.202,0.121,0.384,0.308,0.461
		c0.958,0.4,3.693,1.841,3.693,3.175v0.959h-12v-0.959C1.014,8.667,3.741,7.279,4.697,6.904z M13.015,19.035h-12v-7h12V19.035z
		 M11.211,23.035H2.817c-0.96,0-1.803-0.796-1.803-1.703v-1.297h12v1.297C13.015,22.239,12.172,23.035,11.211,23.035z"/>
	<path d="M4.934,16.068h1.58v1.581c0,0.276,0.224,0.5,0.5,0.5s0.5-0.224,0.5-0.5v-1.581h1.581c0.276,0,0.5-0.224,0.5-0.5
		s-0.224-0.5-0.5-0.5H7.514v-1.58c0-0.276-0.224-0.5-0.5-0.5s-0.5,0.224-0.5,0.5v1.58h-1.58c-0.276,0-0.5,0.224-0.5,0.5
		S4.658,16.068,4.934,16.068z"/>
	<path d="M20.485,10.034c-1.914,0-3.471,1.558-3.471,3.472v5.057c0,1.914,1.557,3.472,3.528,3.472c1.914,0,3.472-1.558,3.472-3.472
		v-5.057C24.015,11.592,22.457,10.034,20.485,10.034z M20.543,11.034c1.363,0,2.472,1.109,2.472,2.472v2.028h-5v-2.028
		C18.015,12.143,19.123,11.034,20.543,11.034z M20.485,21.035c-1.362,0-2.471-1.108-2.471-2.472v-2.028h5v2.028
		C23.015,19.927,21.906,21.035,20.485,21.035z"/>
</g>
</svg>
