<?xml version="1.0" encoding="utf-8"?>
<!-- Generator: Adobe Illustrator 19.2.0, SVG Export Plug-In . SVG Version: 6.00 Build 0)  -->
<svg version="1.1" id="Layer_1" xmlns="http://www.w3.org/2000/svg" xmlns:xlink="http://www.w3.org/1999/xlink" x="0px" y="0px"
	 width="24px" height="24px" viewBox="0 0 24 24" style="enable-background:new 0 0 24 24;" xml:space="preserve">
<g>
	<path d="M22.545,1.482c-1.619-1.62-4.256-1.62-5.875,0l-10.5,10.5c-0.422,0.422-0.752,0.942-0.953,1.503l-1.104,3.064
		c-0.217,0.605-0.573,1.166-1.028,1.621l-0.621,0.621c0,0,0,0,0,0s0,0,0,0l-1.584,1.585c-0.37,0.369-0.574,0.861-0.574,1.385
		s0.204,1.016,0.574,1.386c0.382,0.382,0.883,0.572,1.385,0.572c0.501,0,1.003-0.19,1.386-0.572l2.206-2.206
		c0.454-0.454,1.015-0.81,1.621-1.028l3.065-1.103c0.562-0.203,1.082-0.533,1.503-0.954l10.5-10.5
		C24.164,5.738,24.164,3.102,22.545,1.482z M2.943,22.441c-0.375,0.373-0.983,0.373-1.357,0c-0.181-0.182-0.281-0.422-0.281-0.679
		c0-0.256,0.1-0.497,0.281-0.678l1.231-1.231l1.357,1.357L2.943,22.441z M21.838,6.65l-10.501,10.5
		c-0.322,0.322-0.704,0.564-1.134,0.72l-3.065,1.103c-0.744,0.27-1.432,0.706-1.989,1.263l-0.268,0.268l-1.357-1.357l0.268-0.268
		c0.559-0.559,0.996-1.246,1.262-1.99l1.104-3.064c0.152-0.424,0.401-0.816,0.719-1.134l0.694-0.694l0.802,0.802
		c0.098,0.098,0.226,0.146,0.354,0.146s0.256-0.049,0.354-0.146c0.195-0.195,0.195-0.512,0-0.707l-0.802-0.802L9.566,10l0.802,0.802
		c0.098,0.098,0.226,0.146,0.354,0.146s0.256-0.049,0.354-0.146c0.195-0.195,0.195-0.512,0-0.707l-0.802-0.802l1.288-1.288
		l0.802,0.802c0.098,0.098,0.226,0.146,0.354,0.146s0.256-0.049,0.354-0.146c0.195-0.195,0.195-0.512,0-0.707l-0.802-0.802
		l1.288-1.288l0.802,0.802c0.098,0.098,0.226,0.146,0.354,0.146s0.256-0.049,0.354-0.146c0.195-0.195,0.195-0.512,0-0.707
		l-0.802-0.802l1.288-1.288l0.802,0.802c0.098,0.098,0.226,0.146,0.354,0.146s0.256-0.049,0.354-0.146
		c0.195-0.195,0.195-0.512,0-0.707l-0.802-0.802l1.118-1.118c0.615-0.615,1.423-0.922,2.23-0.922s1.615,0.308,2.23,0.922
		C23.067,3.419,23.067,5.42,21.838,6.65z"/>
	<path d="M19.164,4.156L8.402,14.919c-0.195,0.195-0.195,0.512,0,0.707c0.098,0.098,0.226,0.146,0.354,0.146
		s0.256-0.049,0.354-0.146L19.871,4.863c0.195-0.195,0.195-0.512,0-0.707S19.359,3.961,19.164,4.156z"/>
	<path d="M2.014,6.034h3v3c0,0.276,0.224,0.5,0.5,0.5s0.5-0.224,0.5-0.5v-3h3c0.276,0,0.5-0.224,0.5-0.5s-0.224-0.5-0.5-0.5h-3v-3
		c0-0.276-0.224-0.5-0.5-0.5s-0.5,0.224-0.5,0.5v3h-3c-0.276,0-0.5,0.224-0.5,0.5S1.738,6.034,2.014,6.034z"/>
</g>
</svg>
