<?xml version="1.0" encoding="utf-8"?>
<!-- Generator: Adobe Illustrator 19.2.0, SVG Export Plug-In . SVG Version: 6.00 Build 0)  -->
<svg version="1.1" id="Layer_1" xmlns="http://www.w3.org/2000/svg" xmlns:xlink="http://www.w3.org/1999/xlink" x="0px" y="0px"
	 width="24px" height="24px" viewBox="0 0 24 24" style="enable-background:new 0 0 24 24;" xml:space="preserve">
<g>
	<path d="M23.015,13.035h-7.577l-1.196-2.692c-0.088-0.198-0.298-0.319-0.511-0.294c-0.217,0.023-0.393,0.184-0.437,0.397
		l-1.023,5.01l-1.961-8.433C10.257,6.8,10.06,6.64,9.83,6.636c-0.238-0.017-0.432,0.15-0.491,0.373l-1.59,6.026H1.014
		c-0.276,0-0.5,0.224-0.5,0.5s0.224,0.5,0.5,0.5h7.12c0.227,0,0.425-0.153,0.483-0.372l1.174-4.451l2.024,8.7
		c0.053,0.227,0.254,0.387,0.487,0.387c0.002,0,0.004,0,0.007,0c0.235-0.003,0.436-0.17,0.483-0.4l1.169-5.722l0.694,1.562
		c0.08,0.181,0.26,0.297,0.457,0.297h7.902c0.276,0,0.5-0.224,0.5-0.5S23.291,13.035,23.015,13.035z"/>
	<path d="M2.581,11.973c0.212-0.177,0.24-0.493,0.062-0.704c-0.84-1.003-1.303-2.277-1.303-3.585c0-3.081,2.508-5.588,5.59-5.588
		c1.83,0,3.58,0.867,4.683,2.318c0.094,0.125,0.242,0.198,0.397,0.198c0,0,0,0,0,0c0.156,0,0.303-0.073,0.398-0.197
		c1.105-1.452,2.856-2.318,4.686-2.318c3.082,0,5.59,2.507,5.59,5.588c0,1.309-0.463,2.583-1.303,3.585
		c-0.177,0.211-0.149,0.527,0.062,0.704c0.094,0.079,0.208,0.117,0.321,0.117c0.143,0,0.284-0.061,0.384-0.179
		c0.99-1.183,1.535-2.684,1.535-4.227c0-3.633-2.956-6.588-6.59-6.588c-1.932,0-3.789,0.826-5.082,2.237
		c-1.294-1.41-3.152-2.237-5.083-2.237c-3.634,0-6.59,2.955-6.59,6.588c0,1.543,0.545,3.044,1.536,4.227
		C2.054,12.122,2.37,12.152,2.581,11.973z"/>
	<path d="M17.917,15.262l-5.629,6.487c-0.098,0.112-0.234,0.175-0.384,0.175c-0.001,0-0.002,0-0.003,0
		c-0.15-0.001-0.288-0.065-0.384-0.18l-5.479-6.478c-0.178-0.21-0.493-0.237-0.705-0.059c-0.211,0.179-0.237,0.494-0.059,0.705
		l5.479,6.478c0.285,0.336,0.701,0.53,1.141,0.533c0.003,0,0.006,0,0.01,0c0.437,0,0.852-0.188,1.139-0.519l5.63-6.487
		c0.181-0.209,0.158-0.524-0.05-0.706C18.415,15.032,18.1,15.055,17.917,15.262z"/>
</g>
</svg>
