<?xml version="1.0" encoding="utf-8"?>
<!-- Generator: Adobe Illustrator 19.2.0, SVG Export Plug-In . SVG Version: 6.00 Build 0)  -->
<svg version="1.1" id="Layer_1" xmlns="http://www.w3.org/2000/svg" xmlns:xlink="http://www.w3.org/1999/xlink" x="0px" y="0px"
	 width="24px" height="24px" viewBox="0 0 24 24" style="enable-background:new 0 0 24 24;" xml:space="preserve">
<g>
	<path d="M15.018,6.112V4.034h0.5c0.276,0,0.5-0.224,0.5-0.5v-3c0-0.276-0.224-0.5-0.5-0.5h-7c-0.276,0-0.5,0.224-0.5,0.5v3
		c0,0.276,0.224,0.5,0.5,0.5h0.5v2.07c-1.042,0.454-4,1.923-4,3.971v11.256c0,1.465,1.284,2.703,2.803,2.703h8.394
		c1.52,0,2.804-1.238,2.804-2.703V10.075C19.018,8.116,16.049,6.585,15.018,6.112z M9.017,1.034h6v2h-0.5h-5h-0.5V1.034z
		 M18.018,21.332c0,0.907-0.843,1.703-1.804,1.703H7.82c-0.96,0-1.803-0.796-1.803-1.703V10.075c0-1.408,2.727-2.796,3.683-3.172
		c0.191-0.075,0.317-0.26,0.317-0.465V4.034h4v2.404c0,0.202,0.121,0.383,0.308,0.461c0.958,0.401,3.692,1.844,3.692,3.175V21.332z"
		/>
	<path d="M12.838,13.235c0.276,0,0.5-0.231,0.5-0.507s-0.224-0.5-0.5-0.5c-0.276,0-0.5,0.224-0.5,0.5v0.014
		C12.338,13.018,12.562,13.235,12.838,13.235z"/>
	<path d="M11.252,13.242c0.276,0,0.5-0.231,0.5-0.507s-0.224-0.5-0.5-0.5s-0.5,0.224-0.5,0.5v0.014
		C10.752,13.025,10.976,13.242,11.252,13.242z"/>
	<path d="M12.017,15.999c0.969,0,1.765-0.608,2.018-1.527c0.653-0.826,1.04-1.756,1.04-2.506c0-1.623-1.286-2.801-3.058-2.801
		c-1.771,0-3.058,1.178-3.058,2.801c0,0.75,0.387,1.679,1.04,2.506C10.252,15.389,11.048,15.999,12.017,15.999z M12.017,10.164
		c0.992,0,2.058,0.563,2.058,1.801c0,0.545-0.339,1.296-0.886,1.961c-0.05,0.062-0.085,0.134-0.102,0.212
		c-0.138,0.635-0.663,0.86-1.071,0.86s-0.933-0.226-1.07-0.86c-0.017-0.078-0.052-0.15-0.103-0.212
		c-0.546-0.665-0.885-1.417-0.885-1.961C9.959,10.728,11.026,10.164,12.017,10.164z"/>
	<path d="M14.279,17.625c0.093,0.156,0.252,0.252,0.424,0.252c0.075,0,0.15-0.017,0.222-0.052c0.248-0.123,0.349-0.423,0.227-0.67
		l-0.419-0.846c-0.124-0.249-0.425-0.348-0.67-0.227c-0.241,0.12-0.338,0.405-0.232,0.648l-1.813,0.91l-1.813-0.91
		c0.107-0.243,0.008-0.529-0.232-0.648c-0.249-0.123-0.548-0.021-0.67,0.227l-0.419,0.846c-0.123,0.247-0.021,0.547,0.226,0.67
		c0.072,0.035,0.147,0.052,0.222,0.052c0.172,0,0.332-0.096,0.424-0.252l1.146,0.575l-1.141,0.573
		c-0.132-0.228-0.413-0.319-0.651-0.202c-0.248,0.123-0.349,0.423-0.227,0.67l0.211,0.426c0,0,0,0.001,0,0.001c0,0,0,0,0,0.001
		l0.208,0.419c0.087,0.177,0.265,0.278,0.449,0.278c0.074,0,0.15-0.017,0.221-0.052c0.239-0.119,0.338-0.403,0.233-0.645
		l1.812-0.909l1.812,0.91c-0.104,0.242-0.006,0.525,0.233,0.644c0.071,0.035,0.146,0.052,0.222,0.052
		c0.184,0,0.361-0.102,0.448-0.278l0.208-0.419c0,0,0,0,0-0.001c0,0,0-0.001,0-0.001l0.211-0.426
		c0.122-0.247,0.021-0.547-0.227-0.67c-0.237-0.115-0.521-0.026-0.651,0.202L13.133,18.2L14.279,17.625z"/>
</g>
</svg>
