<?xml version="1.0" encoding="utf-8"?>
<!-- Generator: Adobe Illustrator 19.2.0, SVG Export Plug-In . SVG Version: 6.00 Build 0)  -->
<svg version="1.1" id="Layer_1" xmlns="http://www.w3.org/2000/svg" xmlns:xlink="http://www.w3.org/1999/xlink" x="0px" y="0px"
	 width="24px" height="24px" viewBox="0 0 24 24" style="enable-background:new 0 0 24 24;" xml:space="preserve">
<path d="M18.018,4.227l-0.271-0.265c-0.776-0.76-1.523-1.05-2.218-0.865c-1.112,0.298-1.531,1.688-1.575,1.845
	c-0.398,1.417-0.663,2.923-0.834,4.382c-0.271-0.154-0.455-0.259-0.5-0.285c-0.042-0.061-0.091-0.282-0.104-0.46V0.79
	c0-0.276-0.224-0.5-0.5-0.5s-0.5,0.224-0.5,0.5V8.6c0,0.002,0.001,0.003,0.001,0.005c0,0.002-0.001,0.004-0.001,0.006
	c0.003,0.14-0.026,0.367,0.004,0.372c-0.06,0.034-0.258,0.147-0.534,0.304c-0.172-1.447-0.436-2.94-0.831-4.344
	C10.11,4.781,9.691,3.394,8.58,3.097C7.886,2.911,7.139,3.202,6.363,3.962L6.092,4.226C3.664,6.588,0.912,9.264,1.53,18.335
	c0.256,3.749,0.571,5,1.347,5.354c0.141,0.064,0.281,0.094,0.423,0.094c0.538,0,1.1-0.424,1.818-0.967
	c0.646-0.488,1.449-1.095,2.448-1.56c3.122-1.452,3.51-3.865,3.64-6.212c0.068-1.232,0.053-2.886-0.105-4.674
	c0.477-0.272,0.826-0.471,0.911-0.519c0.007-0.004,0.01-0.012,0.017-0.016c0.001,0.001,0.002,0.002,0.003,0.003
	c0.089,0.057,0.461,0.272,0.972,0.564c-0.155,1.777-0.169,3.417-0.101,4.642c0.13,2.347,0.518,4.76,3.64,6.212
	c0.999,0.465,1.802,1.071,2.447,1.56c0.72,0.543,1.28,0.967,1.819,0.967c0.142,0,0.281-0.029,0.423-0.094
	c0.776-0.354,1.091-1.605,1.347-5.354C23.197,9.264,20.445,6.588,18.018,4.227z M10.208,14.99c-0.119,2.128-0.442,4.14-3.064,5.36
	c-1.095,0.509-1.945,1.151-2.628,1.668c-0.443,0.334-1.036,0.822-1.224,0.761c-0.216-0.107-0.523-0.978-0.764-4.513
	C1.941,9.658,4.517,7.153,6.789,4.943l0.273-0.266c0.307-0.3,0.732-0.633,1.109-0.633c0.05,0,0.1,0.006,0.148,0.019
	C8.8,4.19,9.119,4.955,9.193,5.213c0.425,1.512,0.684,3.113,0.842,4.615c-0.26,0.148-0.538,0.306-0.823,0.469L6.636,8.534
	c-0.229-0.156-0.54-0.097-0.695,0.13C5.785,8.893,5.843,9.204,6.071,9.36l2.174,1.487c-1.141,0.65-2.14,1.219-2.14,1.219
	l0.495,0.869c0,0,0.864-0.492,1.901-1.083l-0.367,1.949c-0.051,0.271,0.127,0.533,0.398,0.584c0.031,0.006,0.062,0.009,0.093,0.009
	c0.236,0,0.446-0.167,0.491-0.407l0.525-2.784c0.167-0.095,0.333-0.19,0.494-0.282C10.261,12.598,10.259,14.065,10.208,14.99z
	 M21.581,18.266c-0.241,3.535-0.548,4.405-0.761,4.512c-0.169,0.058-0.784-0.425-1.227-0.761c-0.684-0.516-1.534-1.158-2.629-1.667
	c-2.623-1.221-2.945-3.232-3.063-5.361c-0.051-0.918-0.053-2.372,0.07-4.035c0.15,0.085,0.302,0.172,0.456,0.26l0.523,2.773
	c0.045,0.24,0.255,0.407,0.49,0.407c0.031,0,0.062-0.003,0.094-0.009c0.271-0.051,0.45-0.312,0.398-0.584l-0.366-1.941
	c0.987,0.56,1.818,1.029,1.901,1.076c0.078,0.043,0.162,0.064,0.246,0.064c0.174,0,0.344-0.091,0.436-0.254
	c0.136-0.241,0.051-0.545-0.189-0.682c-0.506-0.286-1.312-0.742-2.145-1.214l2.182-1.492c0.228-0.156,0.286-0.467,0.131-0.695
	c-0.157-0.229-0.469-0.285-0.695-0.13l-2.586,1.768c-0.27-0.153-0.531-0.301-0.775-0.439c0.157-1.511,0.417-3.126,0.845-4.652v0
	c0.059-0.209,0.378-1.017,0.871-1.148c0.049-0.013,0.099-0.019,0.15-0.019c0.377,0,0.803,0.333,1.109,0.633l0.273,0.267
	C19.593,7.154,22.168,9.658,21.581,18.266z"/>
</svg>
