<?xml version="1.0" encoding="utf-8"?>
<!-- Generator: Adobe Illustrator 19.2.0, SVG Export Plug-In . SVG Version: 6.00 Build 0)  -->
<svg version="1.1" id="Layer_1" xmlns="http://www.w3.org/2000/svg" xmlns:xlink="http://www.w3.org/1999/xlink" x="0px" y="0px"
	 width="24px" height="24px" viewBox="0 0 24 24" style="enable-background:new 0 0 24 24;" xml:space="preserve">
<path d="M23.396,13.036H18.21l-2.132-4.893c-0.088-0.202-0.298-0.327-0.517-0.297c-0.219,0.026-0.396,0.192-0.434,0.409
	L13.07,19.818L9.362,1.114c-0.046-0.232-0.248-0.4-0.484-0.403c-0.002,0-0.004,0-0.006,0c-0.234,0-0.437,0.162-0.488,0.391
	l-2.899,12.95H0.629c-0.276,0-0.5,0.224-0.5,0.5s0.224,0.5,0.5,0.5h5.256c0.234,0,0.437-0.162,0.488-0.391L8.842,3.633l3.764,18.988
	c0.046,0.233,0.252,0.402,0.49,0.402c0.002,0,0.003,0,0.005,0c0.24-0.002,0.445-0.176,0.487-0.412l2.233-12.552l1.603,3.677
	c0.079,0.182,0.259,0.3,0.458,0.3h5.514c0.276,0,0.5-0.224,0.5-0.5S23.673,13.036,23.396,13.036z"/>
</svg>
