<svg xmlns="http://www.w3.org/2000/svg" width="24" height="24" viewBox="0 0 24 24"><path d="M23.78 10.986l-2.776-2.384V2.5c0-.276-.224-.5-.5-.5h-5c-.276 0-.5.224-.5.5v.95L12.33 1.153c-.19-.16-.465-.16-.652 0L.228 10.986c-.21.18-.233.496-.054.705.18.21.497.235.705.055l1.123-.965V23.5c0 .276.224.5.5.5h19c.276 0 .5-.224.5-.5V10.78l1.123.965c.095.08.21.12.326.12.14 0 .28-.058.38-.173.18-.21.156-.526-.053-.706zM16.003 3h4v4.744l-4-3.435V3zm5 20h-18V9.92l9-7.73 9 7.73V23z"/><path d="M9.22 16.52c0 1.374 1.13 2.49 2.52 2.49.68 0 1.316-.263 1.794-.738.195-.195.195-.512 0-.708-.196-.195-.51-.194-.707 0-.29.288-.675.446-1.087.446-.838 0-1.52-.668-1.52-1.49 0-.82.68-1.487 1.52-1.487.395 0 .77.147 1.054.416.2.187.518.18.707-.022s.18-.518-.02-.707c-.47-.442-1.088-.687-1.74-.687-1.39 0-2.52 1.116-2.52 2.488zM16.618 19.017c1.346 0 2.44-1.118 2.44-2.492s-1.095-2.492-2.44-2.492-2.44 1.118-2.44 2.492 1.094 2.492 2.44 2.492zm0-3.984c.794 0 1.44.67 1.44 1.492s-.646 1.492-1.44 1.492-1.44-.67-1.44-1.492.646-1.492 1.44-1.492zM8.104 15.033c.276 0 .5-.224.5-.5s-.224-.5-.5-.5H5.418c-.276 0-.5.224-.5.5v3.984c0 .276.224.5.5.5h2.686c.276 0 .5-.224.5-.5s-.224-.5-.5-.5H5.918v-.992h1.807c.276 0 .5-.224.5-.5s-.224-.5-.5-.5H5.918v-.992h2.186z"/></svg>