<svg xmlns="http://www.w3.org/2000/svg" width="24" height="24" viewBox="0 0 24 24"><path d="M19.96 3.37c-.05-.228-.252-.392-.486-.393h-.002c-.233 0-.436.162-.487.39l-2.143 9.46c-.476-.62-1.097-1.112-1.83-1.384-.463-2.247-2.277-3.847-4.416-3.847-1.348 0-2.616.647-3.48 1.775-.903 1.183-1.247 2.74-.947 4.23-1.54 1.188-1.562 3.21-.754 4.602.74 1.276 2.268 2.146 4.01 1.21.243-.132.334-.435.204-.678s-.432-.334-.677-.204c-1.23.66-2.188.004-2.672-.83-.62-1.07-.58-2.646.72-3.46.187-.116.275-.34.217-.554-.35-1.293-.09-2.68.695-3.707.672-.88 1.65-1.384 2.684-1.384 1.735 0 3.2 1.39 3.48 3.3.03.196.17.356.36.41 1.4.394 2.378 1.794 2.378 3.405 0 1.388-.703 2.61-1.836 3.193-.987.508-2.08.43-2.993-.226-.224-.16-.537-.108-.697.116s-.108.537.116.698c.686.49 1.468.74 2.256.74.59 0 1.18-.144 1.74-.424l-.206.945c-.032.148.004.303.1.42.095.118.237.187.39.187h3.288v2.09c0 .277.224.5.5.5s.5-.223.5-.5v-2.09h3.29c.15 0 .295-.068.39-.187s.13-.272.1-.42L19.96 3.37zm.012 16.988v-2.152c0-.276-.224-.5-.5-.5s-.5.224-.5.5v2.152h-2.67l.324-1.493c.75-.826 1.19-1.94 1.19-3.153 0-.536-.095-1.05-.256-1.533l1.902-8.398 3.18 14.576h-2.67z"/><path d="M12.367 15.48c.38-.232.818-.26 1.343-.08.26.09.545-.05.635-.31.09-.262-.05-.546-.31-.636-.812-.28-1.55-.22-2.193.173-.36.22-.65.532-.89.876V12.42c0-.276-.223-.5-.5-.5s-.5.224-.5.5v2.896c-.298-.3-.65-.55-1.047-.62-.332-.06-.83-.02-1.324.485-.192.198-.188.515.01.708.197.192.513.19.706-.008.23-.234.38-.208.436-.2.417.073.932.78 1.222 1.344v6.423c0 .276.224.5.5.5s.5-.224.5-.5V18.28c.01-.03.026-.06.03-.093.08-.566.488-2.16 1.383-2.708zM10.78 4.615c0-.65-.29-1.284-.793-1.74-.435-.393-.976-.615-1.553-.643C8.002 1.307 7.084.765 6.008.824 5.185.2 4.146.032 3.188.38c-1.03.374-1.77 1.246-2.015 2.358-.835.626-1.177 1.584-.896 2.548C.577 6.31 1.49 7 2.55 7h5.766C9.65 7 10.78 5.907 10.78 4.615zm-9.543.39c-.174-.597.072-1.177.658-1.55.12-.078.202-.203.225-.344.136-.85.662-1.52 1.41-1.79.22-.08.446-.12.67-.12.47 0 .93.176 1.322.517.108.093.252.136.392.12.816-.104 1.48.305 1.7 1.045.068.23.29.374.53.355.437-.044.853.09 1.172.38.294.266.463.63.463.997C9.78 5.364 9.11 6 8.315 6H2.55c-.706 0-1.168-.5-1.313-.994z"/></svg>