<svg xmlns="http://www.w3.org/2000/svg" width="24" height="24" viewBox="0 0 24 24"><path d="M14.468 21H9.516c-.276 0-.5.224-.5.5s.224.5.5.5h4.952c.276 0 .5-.224.5-.5s-.224-.5-.5-.5zM5.474 19.052c-1.35 0-2.448 1.098-2.448 2.447s1.098 2.447 2.448 2.447c1.35 0 2.448-1.1 2.448-2.448S6.824 19.05 5.474 19.05zm0 3.896c-.798 0-1.448-.65-1.448-1.448 0-.798.65-1.447 1.448-1.447s1.448.65 1.448 1.447c0 .8-.65 1.448-1.448 1.448zM18.462 19.052c-1.35 0-2.448 1.098-2.448 2.447s1.1 2.447 2.448 2.447 2.448-1.1 2.448-2.448-1.098-2.448-2.448-2.448zm0 3.896c-.8 0-1.448-.65-1.448-1.448 0-.798.65-1.447 1.448-1.447s1.448.65 1.448 1.447c0 .8-.65 1.448-1.448 1.448z"/><path d="M22.17 17.247c-1.408-1.298-3.304-1.382-4.307-1.315-.298-1.15-1.658-4.896-6.703-4.896h-.302c-.363 0-.98 0-1.066.003-4.855.142-6.3 2.586-6.75 4.12-.463-.573-1.015-1.498-1.015-2.704 0-1.374 1.122-2.492 2.5-2.492h1.3c1.74 0 3.156-1.412 3.156-3.148S7.567 3.668 5.827 3.668H5.15c-.09-.374-.274-.72-.55-1-.397-.4-.927-.623-1.49-.623h-.665c-.276 0-.5.224-.5.5v.23H1.08c-.277 0-.5.225-.5.5s.223.5.5.5h.865v.797H1.08c-.277 0-.5.224-.5.5s.223.5.5.5h.865v.22c0 .13.053.26.146.353s.222.146.355.146h.665c.563 0 1.093-.22 1.49-.623.276-.28.46-.625.55-1h.677c1.188 0 2.156.964 2.156 2.15s-.968 2.147-2.156 2.147h-1.3c-1.93 0-3.5 1.566-3.5 3.492 0 1.816.963 3.088 1.565 3.71C.066 17.16.126 21.33.13 21.512c.007.273.23.49.5.49h.7c.276 0 .5-.224.5-.5s-.224-.5-.5-.5h-.184c.065-1.062.39-3.523 1.98-3.97.356-.1.613-.36.713-.678l.01-.043c.014-.053.034-.102.04-.157.1-1.188.88-3.965 5.93-4.114.084-.004.684-.004 1.038-.004h.301c4.207 0 5.412 2.896 5.734 4.146.12.463.56.77 1.03.745.684-.044 2.392-.03 3.57 1.056.74.685 1.17 1.698 1.274 3.018h-.343c-.276 0-.5.225-.5.5s.224.5.5.5h.867c.134 0 .263-.053.356-.148s.146-.225.144-.36c-.03-1.855-.576-3.283-1.62-4.245zM3.89 4.965c-.21.21-.487.326-.78.326h-.165V3.046h.164c.293 0 .57.116.778.327.21.212.325.495.325.797 0 .3-.114.582-.324.795z"/></svg>