<svg xmlns="http://www.w3.org/2000/svg" width="24" height="24" viewBox="0 0 24 24"><path d="M5 11v-1c.276 0 .5-.224.5-.5S5.277 9 5 9h-.5c-.276 0-.5.223-.5.5v1h-.5c-.276 0-.5.223-.5.5v1c0 .276.224.5.5.5H4v1c0 .276.224.5.5.5H5c.276 0 .5-.224.5-.5S5.277 13 5 13v-1c0-.276-.224-.5-.5-.5.277 0 .5-.224.5-.5zM19.5 10.5H19v-1c0-.276-.223-.5-.5-.5H18c-.275 0-.5.224-.5.5s.225.5.5.5v1c0 .276.225.5.5.5-.275 0-.5.224-.5.5v1c-.275 0-.5.224-.5.5s.225.5.5.5h.5c.277 0 .5-.224.5-.5v-1h.5c.277 0 .5-.224.5-.5v-1c0-.277-.223-.5-.5-.5zM15.024 21L15 14h1.5c.277 0 .5-.224.5-.5v-4c0-.276-.223-.5-.5-.5H15V8h.5c.277 0 .5-.224.5-.5v-2c0-.276-.223-.5-.5-.5H15v-.32c0-1.693-.852-3.27-2-3.808V.5c0-.276-.223-.5-.5-.5h-2c-.276 0-.5.223-.5.5v.373C8.853 1.41 8 2.987 8 4.68V5h-.5c-.276 0-.5.223-.5.5v2c0 .276.224.5.5.5H8v1H6.5c-.276 0-.5.223-.5.5v4c0 .276.224.5.5.5H8v7h-.003c-1.283 0-2.408 1.168-2.408 2.5 0 .276.223.5.5.5H16.93c.276 0 .5-.224.5-.5 0-1.332-1.124-2.5-2.408-2.5zm-4.4-19.293c.22-.056.376-.256.376-.485V1h1v.222c0 .23.156.43.377.485C13.145 1.9 14 3.17 14 4.68V5H9v-.32c0-1.51.855-2.78 1.623-2.973zM8 6h7v1H8V6zM6.687 23c.204-.53.705-1 1.31-1H8.5c.277 0 .5-.224.5-.5v-8c0-.277-.223-.5-.5-.5H7v-3h1.5c.277 0 .5-.224.5-.5V8h5v1.5c0 .276.224.5.5.5H16v3h-1.5c-.276 0-.5.224-.5.5v8c0 .276.224.5.5.5h.523c.605 0 1.106.47 1.31 1H6.688z"/></svg>