<svg xmlns="http://www.w3.org/2000/svg" width="24" height="24" viewBox="0 0 24 24"><path d="M22 8h-7.353l-.13-4H21v.5c0 .276.224.5.5.5s.5-.224.5-.5V4c.276 0 .5-.224.5-.5S22.277 3 22 3h-7.74L12.36.3c-.096-.134-.268-.228-.416-.21-.165 0-.318.084-.41.22L9.734 3H2c-.276 0-.5.223-.5.5s.224.5.5.5v.5c0 .276.224.5.5.5s.5-.224.5-.5V4h6.478l-.17 4H2c-.276 0-.5.223-.5.5s.224.5.5.5v.5c0 .276.224.5.5.5s.5-.224.5-.5V9h6.266l-.19 4.51L4.895 23H2.5c-.276 0-.5.223-.5.5s.224.5.5.5h2.758c.2 0 .368-.12.45-.287 1.14-.86 2.373-1.566 3.668-2.09 1.663-.67 3.497-.67 5.162 0 1.297.524 2.53 1.23 3.67 2.09.08.168.25.287.448.287h2.758c.276 0 .5-.224.5-.5s-.224-.5-.5-.5h-2.412l-4.176-9.487L14.68 9H21v.5c0 .276.225.5.5.5s.5-.224.5-.5V9c.277 0 .5-.224.5-.5S22.278 8 22 8zM11.337 5.885l-.986 1.17.095-2.24.89 1.07zm2.207-1.067l.073 2.243-.976-1.17.903-1.072zm.126 3.87l.004.16-1.702 1.688-1.697-1.71.006-.136 1.706-2.023 1.683 2.02zm-3.453 1.498l1.045 1.053-1.138 1.127.093-2.18zm-.496 4.338l1.548 1.67-4.35 4.7 2.803-6.37zm.543-.886l1.703-1.69 1.672 1.687-1.69 1.824-1.685-1.822zm3.915.887l2.803 6.367-4.35-4.697 1.548-1.67zm-1.502-3.28l1.042-1.033.07 2.153-1.112-1.12zM11.96 1.47l1.41 2.002-1.38 1.636-1.366-1.642L11.96 1.47zM9.002 20.697c-.31.125-.615.264-.918.408l3.866-4.174 3.854 4.16c-.294-.138-.59-.274-.89-.395-1.906-.767-4.007-.767-5.912 0z"/></svg>