<svg xmlns="http://www.w3.org/2000/svg" width="24" height="24" viewBox="0 0 24 24"><path d="M21.5 14H21v-.8C21 9.027 17.87 6 13.56 6H11v-.5c0-.276-.223-.5-.5-.5h-3c-.276 0-.5.224-.5.5V6H.5c-.276 0-.5.224-.5.5v5c0 .276.224.5.5.5h13.057c.682 0 1.443.513 1.443 1.2v.8h-.5c-.276 0-.5.224-.5.5v2c0 .276.224.5.5.5h7c.276 0 .5-.224.5-.5v-2c0-.277-.223-.5-.5-.5zm-7.942-3H1V7h6.5c.277 0 .5-.223.5-.5V6h2v.5c0 .277.224.5.5.5h3.057C17.29 7 20 9.607 20 13.198V14h-4v-.8c0-1.317-1.263-2.2-2.442-2.2zM21 16h-6v-1h6v1zM6.267 3h2.168v1c0 .276.224.5.5.5s.5-.224.5-.5V3h2.142c.768 0 1.347-.645 1.347-1.5S12.344 0 11.577 0h-5.31C5.5 0 4.92.645 4.92 1.5S5.5 3 6.267 3zm0-2h5.31c.202 0 .348.21.348.5s-.147.5-.348.5h-5.31c-.2 0-.347-.21-.347-.5s.146-.5.347-.5zM18 18.027c-.676 0-2.016 3.244-2.016 3.73 0 1.11.904 2.016 2.017 2.016 1.112 0 2.017-.904 2.017-2.017 0-.485-1.34-3.73-2.016-3.73zm0 4.745c-.56 0-1.016-.456-1.016-1.017 0-.4.59-1.536 1.017-2.28.428.744 1.017 1.88 1.017 2.28 0 .56-.456 1.017-1.016 1.017z"/></svg>