<svg xmlns="http://www.w3.org/2000/svg" width="24" height="24" viewBox="0 0 24 24"><path d="M22.007 15.416v-.62c0-2.186-1.712-3.963-3.816-3.963s-3.815 1.777-3.815 3.962v2.734c0 1.833-1.42 3.324-3.164 3.324-1.744 0-3.164-1.49-3.164-3.325V9.273c1.14.683 2.19 1.043 3.135 1.043.555 0 1.075-.118 1.557-.354 3.016-1.477 3.29-7.06 3.3-7.296.007-.14-.046-.274-.144-.374-.1-.1-.24-.16-.373-.147-5.12.18-7.162 2.06-7.97 3.693C5.973 3.904 1.84 4 1.632 4.004c-.138.005-.27.067-.36.172-.092.104-.136.242-.12.38.016.158.432 3.895 2.673 4.948.388.183.802.275 1.24.275.613 0 1.275-.184 1.98-.543v8.292c0 2.384 1.867 4.324 4.164 4.324 2.296 0 4.164-1.94 4.164-4.325v-2.735c0-1.633 1.264-2.962 2.816-2.962s2.816 1.33 2.816 2.962v.618C19.878 15.658 19 16.72 19 17.95v.855c0 .276.224.5.5.5h.5v.998c0 .276.224.5.5.5s.5-.224.5-.5v-.998h1v.998c0 .276.224.5.5.5s.5-.224.5-.5v-.998h.5c.276 0 .5-.224.5-.5v-.854c0-1.225-.87-2.284-1.993-2.534zM14.992 3.173c-.142 1.373-.698 4.915-2.697 5.893-1.05.513-2.41.225-4.045-.834.41-.52 1.136-1.25 1.975-1.426 1.603-.338 3.125-1.265 3.19-1.304.235-.145.31-.452.164-.688-.144-.234-.45-.31-.688-.165-.014.008-1.443.875-2.873 1.177-.713.15-1.315.55-1.79.973.467-1.395 1.98-3.324 6.762-3.627zM4.252 8.6c-1.296-.607-1.83-2.61-2.018-3.593 1.62.05 4.492.48 4.877 2.123-.01.052-.01.092-.018.142-1.043-.674-2.48-.996-2.69-1.04-.266-.06-.533.115-.59.385-.058.27.115.536.385.593.732.155 1.9.546 2.547 1.04-.976.535-1.817.668-2.492.35zm18.75 9.705h-3v-.355c0-.848.7-1.59 1.5-1.59s1.5.743 1.5 1.59v.355z"/></svg>