<svg xmlns="http://www.w3.org/2000/svg" width="24" height="24" viewBox="0 0 24 24"><path d="M21 23h-4.62l-1.633-12h.255c.276 0 .5-.224.5-.5s-.224-.5-.5-.5H10c-.276 0-.5.224-.5.5s.224.5.5.5h.205L8.572 23H4c-.276 0-.5.224-.5.5s.224.5.5.5H21c.277 0 .5-.224.5-.5s-.223-.5-.5-.5zm-10.817-4.416l1.576 1.53-2.057 1.995.48-3.526zm.518-3.807l.953.728-1.173.897.22-1.625zm3.773 1.624l-1.173-.895.952-.728.22 1.624zm.777 5.71l-2.056-1.996 1.576-1.53.48 3.525zM12 18.955l-1.417-1.375L12 16.5v2.458zm1-2.42l1.368 1.045L13 18.91v-2.375zm-1 4.736V23h-1.78L12 21.272zm1 .047L14.732 23H13v-1.68zm1.096-7.684L13 14.474V11h.737l.36 2.636zM12 11v3.51l-1.144-.874.36-2.636H12zM8.165 7.963c.276 0 .5-.224.5-.5 0-.345.294-.626.655-.626.362 0 .656.28.656.626V8.47c0 .275.224.5.5.5s.5-.225.5-.5V7.462c0-.896-.743-1.626-1.656-1.626-.913 0-1.655.73-1.655 1.626 0 .277.224.5.5.5zM14.477 8.97c.276 0 .5-.225.5-.5V5.342c0-.176.152-.318.34-.318.187 0 .34.143.34.318 0 .276.223.5.5.5s.5-.224.5-.5c0-.727-.602-1.318-1.34-1.318-.74 0-1.34.59-1.34 1.318V8.47c0 .276.223.5.5.5z"/><path d="M10.52 4.882c.275 0 .5-.224.5-.5s-.225-.5-.5-.5c-.818 0-1.482-.628-1.482-1.4 0-.773.665-1.402 1.48-1.402S12 1.708 12 2.48v5.99c0 .276.224.5.5.5s.5-.224.5-.5V2.48c0-1.324-1.114-2.4-2.482-2.4s-2.48 1.076-2.48 2.4c0 1.324 1.113 2.402 2.48 2.402z"/></svg>