<svg xmlns="http://www.w3.org/2000/svg" width="24" height="24" viewBox="0 0 24 24"><path d="M12.506 9.05c-.073-.703-.058-1.404-.024-1.92 1.13.688 2.175 1.053 3.11 1.053.54 0 1.048-.115 1.52-.346 2.937-1.44 3.204-6.872 3.215-7.102.006-.14-.047-.274-.146-.374s-.24-.167-.37-.146c-4.964.174-6.955 1.992-7.75 3.577-1.545-1.865-5.545-1.774-5.745-1.77-.14.004-.27.066-.36.17-.093.107-.137.245-.122.383.016.154.422 3.793 2.607 4.82.38.178.783.268 1.21.268.57 0 1.18-.167 1.827-.482-.03.515-.04 1.173.022 1.856-3.91.185-7.035 3.414-7.035 7.367 0 4.073 3.313 7.386 7.385 7.386 4.072 0 7.385-3.312 7.385-7.385 0-3.85-2.964-7.017-6.73-7.35zm6.775-7.81c-.14 1.345-.683 4.756-2.61 5.7-1.012.494-2.324.218-3.902-.8.362-.46 1.05-1.19 1.9-1.37 1.56-.328 3.04-1.23 3.104-1.268.235-.145.31-.452.164-.688-.143-.235-.448-.308-.688-.165-.014.007-1.4.85-2.786 1.142-.674.142-1.25.514-1.705.913.47-1.346 1.957-3.17 6.524-3.464zM8.868 6.49c-1.163-.546-1.74-2.362-1.954-3.467 1.572.05 4.337.468 4.71 2.05-.007.04-.008.073-.014.114-1.016-.648-2.397-.96-2.6-1.002-.27-.058-.535.115-.593.385-.056.27.116.536.386.593.704.15 1.822.523 2.453.995-.937.508-1.745.633-2.39.33zm2.983 16.296c-3.52 0-6.385-2.864-6.385-6.385 0-3.52 2.864-6.384 6.385-6.384s6.385 2.864 6.385 6.385c0 3.522-2.864 6.386-6.385 6.386z"/><path d="M15.536 16.797c.15.432-.696 1.994-1.237 2.63-.06-.368-.082-.94-.097-1.295-.012-.285-.023-.563-.043-.805-.094-1.167-.975-1.74-1.094-1.805-.126-.05-1.25-.502-1.735-.57-.035-.083.04-.38.225-.47.08-.038.12-.034.204-.023.117.012.362.04.568-.158.232-.226.218-.537.175-1.027-.037-.428-.188-.753-.448-.964-.404-.327-.92-.266-1.262-.224-.08.01-.154.02-.216.02-.576 0-.813.32-.983.884l-.01-.162c-.015-.22-.17-.406-.386-.457-.217-.047-.438.05-.548.24l-.487.866s-.07.106-.397.245c.042-.237.15-.59.28-.894.11-.253-.005-.547-.258-.658-.253-.11-.548.005-.658.26-.312.716-.593 1.67-.154 2.14.13.143.432.352.963.164.387-.137.647-.294.822-.444.02.054.036.083.048.105.06.107.396.62.897.555.222-.035.51-.188.624-.722l.045-.205c.095-.446.185-.87.2-.916.097 0 .212-.012.337-.027.15-.018.437-.054.512.01.03.022.068.11.083.274l.008.1c-.116.017-.25.05-.394.12-.59.283-.847.964-.79 1.46.05.43.326.75.717.836.4.087 1.323.443 1.564.53.006.004.5.335.553 1 .02.23.03.494.04.766.056 1.347.112 2.122.638 2.394.1.05.206.075.313.075.15 0 .304-.047.448-.14.6-.393 2.292-2.857 1.878-4.036-.066-.19-.147-.42-.172-.538.032-.02.084-.053.17-.1.815-.44 1.213-.962 1.18-1.548-.015-.274-.215-.492-.527-.47-.276.015-.487.25-.472.526.005.093-.128.325-.66.613-.933.508-.756 1.013-.462 1.85zM8.707 16.987c-.152-.058-.405-.154-.465-.204-.23-.23-.405-.334-.56-.428-.096-.057-.2-.117-.334-.226-.185-.147-.418-.18-.625-.09-.167.07-.56.24-.71 1.972-.025.275.178.518.453.542.28.02.518-.18.542-.454.028-.32.08-.656.135-.902.01.005.017.01.025.016.136.08.227.136.368.276.194.194.496.31.816.432l.123.047c-.343.322-.59.718-1.08 2.157-.09.26.05.545.31.635.055.018.11.026.163.026.208 0 .402-.13.473-.34.51-1.492.672-1.63.964-1.88l.163-.14c.275-.248.273-.514.248-.65-.085-.438-.533-.61-1.008-.79z"/></svg>