<svg xmlns="http://www.w3.org/2000/svg" width="24" height="24" viewBox="0 0 24 24"><path d="M17.978.614c-.05-.23-.252-.393-.486-.394h-.002c-.233 0-.437.162-.487.39L14.71 10.787c-.53-.605-1.19-1.08-1.95-1.352-.52-2.62-2.62-4.488-5.102-4.488-1.554 0-3.016.747-4.01 2.048-1.056 1.38-1.45 3.204-1.085 4.942-1.802 1.355-1.833 3.698-.9 5.306.85 1.464 2.594 2.464 4.583 1.396.243-.132.334-.435.204-.678-.13-.242-.43-.333-.677-.204-1.49.803-2.68-.047-3.244-1.018-.75-1.287-.7-3.184.866-4.163.187-.117.275-.342.217-.555-.418-1.542-.108-3.194.83-4.42.804-1.053 1.977-1.656 3.216-1.656 2.077 0 3.83 1.66 4.166 3.944.03.195.17.355.36.41 1.678.47 2.85 2.147 2.85 4.076 0 1.658-.842 3.12-2.198 3.82-1.19.61-2.502.515-3.6-.272-.225-.16-.537-.106-.697.116-.16.225-.107.537.117.698.79.563 1.688.85 2.595.85.57 0 1.14-.12 1.688-.346l-.25 1.15c-.032.148.004.303.1.42.09.12.234.188.386.188h3.813v2.45c0 .275.223.5.5.5s.5-.225.5-.5V21h3.81c.152 0 .296-.068.39-.187.096-.117.132-.272.1-.42L17.978.613zM17.988 20v-2.518c0-.276-.223-.5-.5-.5s-.5.224-.5.5V20h-3.192l.32-1.465c1.197-.97 1.92-2.482 1.92-4.158 0-.873-.204-1.703-.56-2.436l2.007-8.908L21.18 20h-3.19z"/><path d="M9.686 14.032c.47-.29 1.01-.322 1.65-.103.26.088.544-.05.634-.312.09-.26-.05-.545-.31-.635-.927-.318-1.767-.252-2.497.195-.494.303-.876.754-1.174 1.243v-3.903c0-.276-.225-.5-.5-.5s-.5.224-.5.5v3.605c-.368-.408-.818-.762-1.332-.852-.368-.065-.92-.023-1.475.544-.193.2-.19.516.007.71.198.192.514.19.707-.01.27-.275.464-.28.587-.258.564.098 1.202 1.055 1.504 1.64v7.552c0 .276.224.5.5.5s.5-.224.5-.5V17.38c.014-.036.03-.07.037-.11.096-.676.578-2.575 1.66-3.238z"/></svg>