<svg xmlns="http://www.w3.org/2000/svg" width="24" height="24" viewBox="0 0 24 24"><path d="M13.997 13h4.256c.037.606.136 1.29.27 2h-3.41c-.276 0-.5.224-.5.5s.224.5.5.5h3.62c.61 2.695 1.567 5.433 1.626 5.6.07.206.265.334.47.334.057 0 .112-.01.167-.028.26-.092.397-.378.306-.638-.02-.06-2.066-5.887-2.066-8.768 0-.276-.224-.5-.5-.5h-4.74c-.275 0-.5.224-.5.5s.224.5.5.5zM22.997 23h-22c-.276 0-.5.224-.5.5s.224.5.5.5h22c.276 0 .5-.224.5-.5s-.224-.5-.5-.5z"/><path d="M2.288 8.683c-.204.593-.18 1.25.093 1.85.417.92 1.3 1.492 2.308 1.492.173 0 .342-.022.507-.056-.524 3.603-2.53 9.3-2.552 9.363-.092.26.044.546.304.64.055.018.112.027.167.027.206 0 .4-.128.47-.333.097-.272 2.31-6.558 2.68-10.205.12-.097.236-.2.337-.32.606.738 1.538.97 2.338.842.62-.1 1.236-.433 1.647-.984h.982c.043.575.155 1.262.307 2H7.537c-.276 0-.5.224-.5.5s.224.5.5.5h4.558c.798 3.354 2.195 7.298 2.277 7.53.072.203.265.33.47.33.057 0 .113-.008.17-.028.26-.092.395-.378.302-.64-.027-.076-2.767-7.812-2.767-10.692 0-.276-.224-.5-.5-.5h-1.024c.03-.16.046-.33.046-.51 0-.275-.048-.55-.137-.81.653-.09 1.204-.427 1.576-.984.598-.897.6-2.195 0-3.087-.37-.554-.92-.888-1.574-.976.204-.593.18-1.25-.093-1.85-.416-.92-1.3-1.49-2.307-1.49-.757 0-1.454.337-1.923.893C6.143.63 5.447.293 4.69.293c-1.007 0-1.89.57-2.307 1.49-.274.603-.3 1.26-.094 1.854-.652.09-1.2.426-1.572.98-.6.897-.605 2.195-.01 3.087.37.556.923.89 1.58.98zm-.74-3.508c.318-.475.842-.656 1.52-.52.21.042.424-.053.532-.24.107-.185.084-.418-.058-.58-.41-.465-.503-1.078-.25-1.64.197-.435.667-.9 1.396-.9.658 0 1.24.424 1.45 1.056.134.41.813.41.948 0 .21-.63.79-1.056 1.45-1.056.728 0 1.198.466 1.395.902.254.56.16 1.174-.25 1.64-.14.16-.164.394-.057.58.108.186.323.28.532.24.68-.138 1.21.04 1.525.51.376.56.375 1.41-.003 1.975-.318.478-.843.657-1.523.523-.21-.043-.424.055-.53.24-.108.187-.085.42.057.58.178.202.39.54.39 1.008 0 .295-.07.536-.18.74-.022.033-.043.067-.057.106-.254.392-.673.6-1.053.662-.592.098-1.392-.117-1.694-1.03-.135-.41-.814-.408-.95 0-.207.633-.79 1.058-1.448 1.058-.73 0-1.2-.466-1.396-.902-.253-.56-.16-1.173.25-1.64.142-.16.165-.395.058-.58-.09-.157-.257-.25-.433-.25-.032 0-.065.003-.098.01-.688.134-1.214-.042-1.53-.515-.374-.562-.37-1.41.008-1.975z"/><path d="M6.61 8.34c1.203 0 2.18-.98 2.18-2.18s-.977-2.18-2.18-2.18-2.18.977-2.18 2.18.98 2.18 2.18 2.18zm0-3.36c.65 0 1.18.53 1.18 1.18s-.528 1.18-1.18 1.18-1.18-.53-1.18-1.18.53-1.18 1.18-1.18z"/></svg>