<svg xmlns="http://www.w3.org/2000/svg" width="24" height="24" viewBox="0 0 24 24"><path d="M12.506 10v-.847c0-.276-.224-.5-.5-.5s-.5.224-.5.5V10h-.88c-.276 0-.5.224-.5.5s.224.5.5.5h.88v.847c0 .276.224.5.5.5s.5-.224.5-.5V11h.88c.276 0 .5-.224.5-.5s-.224-.5-.5-.5h-.88zM13.386 14.988h-2.76c-.276 0-.5.224-.5.5s.224.5.5.5h2.76c.276 0 .5-.224.5-.5s-.224-.5-.5-.5z"/><path d="M23.322 5.136c-.257-.1-.548.027-.646.285l-.89 2.296c-1.69-3.87-5.565-6.478-9.86-6.478-4.75 0-8.996 3.186-10.327 7.748-.078.265.074.543.34.62.046.014.093.02.14.02.216 0 .416-.142.48-.36 1.206-4.138 5.058-7.028 9.367-7.028 3.95 0 7.51 2.432 9.005 6.024l-2.5-.97c-.257-.1-.548.026-.647.284-.1.258.027.547.285.647l3.523 1.368c.02.01.042.008.063.013.03.007.056.014.086.016.01 0 .02.005.03.005.015 0 .025-.01.04-.012.033-.003.066 0 .1-.008.04-.01.07-.035.105-.054.016-.008.032-.013.047-.024.073-.053.126-.122.162-.203.003-.007.01-.01.014-.017l1.368-3.523c.1-.257-.028-.547-.286-.647zM21.993 14.397c-.264-.072-.542.075-.62.34-1.207 4.14-5.06 7.028-9.367 7.028-3.95 0-7.51-2.432-9.006-6.024l2.5.972c.255.1.546-.027.647-.285.1-.257-.028-.547-.285-.646L2.34 14.414c-.024-.01-.047-.007-.07-.012-.03-.006-.055-.012-.084-.014-.04-.002-.075.002-.112.008-.02.003-.037 0-.056.004-.01.002-.018.01-.028.014-.033.012-.06.03-.09.048-.028.017-.054.032-.077.053-.022.02-.04.045-.058.07-.02.028-.04.055-.056.087-.006.01-.014.017-.02.027L.325 18.22c-.1.257.028.547.285.646.06.023.12.034.18.034.2 0 .39-.12.466-.32l.89-2.294c1.69 3.87 5.565 6.48 9.86 6.48 4.75 0 8.996-3.187 10.327-7.75.078-.263-.074-.54-.34-.62z"/><path d="M13.5 5h-3c-.276 0-.5.223-.5.5V6H8.5c-.276 0-.5.223-.5.5v12c0 .276.224.5.5.5h7c.276 0 .5-.224.5-.5v-12c0-.276-.224-.5-.5-.5H14v-.5c0-.277-.223-.5-.5-.5zM15 7v11H9V7h1.5c.277 0 .5-.224.5-.5V6h2v.5c0 .276.224.5.5.5H15z"/></svg>