<svg xmlns="http://www.w3.org/2000/svg" width="24" height="24" viewBox="0 0 24 24"><path d="M16.957 9.29L5.882 12.345c-.246.068-.4.31-.36.56.04.253.28.424.52.42.014.002 1.498-.06 2.578.948.67.627 1.042 1.557 1.142 2.74h-1c-.238 0-.444.17-.49.404-.677 3.466.892 4.506 1.68 4.806L10.2 23.6c.04.24.25.413.49.413h1.724c.242 0 .45-.174.492-.412l.246-1.377c.788-.3 2.357-1.34 1.68-4.806-.045-.235-.25-.404-.49-.404h-.987c.094-.985.41-1.76.97-2.28.916-.85 2.188-.793 2.202-.794.27.02.51-.194.528-.47.018-.274-.192-.512-.468-.53-.066-.005-1.692-.092-2.934 1.052-.77.71-1.194 1.735-1.3 3.02H10.76c-.11-1.482-.59-2.662-1.47-3.48-.372-.345-.775-.592-1.168-.77l9.1-2.51c.266-.073.422-.35.35-.615-.074-.264-.35-.42-.615-.347zM12.61 21.345c-.2.042-.353.2-.39.4l-.225 1.27h-.886l-.227-1.27c-.036-.2-.19-.358-.39-.4-.863-.18-1.63-1.154-1.31-3.33h4.737c.32 2.176-.446 3.15-1.31 3.33zM6.015 9.474c.044 0 .09-.006.133-.018L17.223 6.4c.267-.073.423-.35.35-.615-.074-.266-.35-.423-.615-.35L5.882 8.493c-.266.073-.423.35-.35.615.062.22.263.367.483.367zM6.015 5.62c.047 0 .095-.006.142-.02l7.202-2.133c.785-.27 1.77-1.218 1.26-2.714-.09-.26-.38-.403-.636-.312-.262.09-.4.375-.312.636.342 1-.405 1.36-.617 1.438L5.873 4.64c-.265.08-.415.357-.337.622.064.217.263.358.48.358z"/></svg>