<svg xmlns="http://www.w3.org/2000/svg" width="24" height="24" viewBox="0 0 24 24"><path d="M22.528 8.29c0-1.35-3.132-8.01-4.027-8.01-.382 0-1.174 1.22-1.955 2.72H5c-.276 0-.5.223-.5.5s.224.5.5.5v5c-.276 0-.5.223-.5.5s.224.5.5.5v7c-.276 0-.5.224-.5.5s.224.5.5.5v5c-.276 0-.5.224-.5.5s.224.5.5.5h14c.276 0 .5-.224.5-.5s-.224-.5-.5-.5v-5c.276 0 .5-.224.5-.5s-.224-.5-.5-.5v-4.732c1.984-.25 3.528-1.928 3.528-3.978zM18.5 1.692c.907 1.48 3.028 5.214 3.028 6.598 0 1.67-1.358 3.028-3.027 3.028-1.67 0-3.027-1.358-3.027-3.028 0-1.388 2.122-5.12 3.028-6.598zM6 4h10.045c-.85 1.772-1.573 3.643-1.573 4.29 0 .244.03.48.072.71H6V4zm12 19H6v-5h12v5zM6 17v-7h8.867c.577 1.22 1.743 2.093 3.134 2.268V17H6z"/><path d="M12.443 11.287c-.276 0-.5.224-.5.5v3.425c0 .276.224.5.5.5s.5-.224.5-.5v-3.425c0-.276-.224-.5-.5-.5zM16.55 14.713H15v-2.925c0-.276-.223-.5-.5-.5s-.5.224-.5.5v3.425c0 .276.225.5.5.5h2.05c.277 0 .5-.224.5-.5s-.223-.5-.5-.5zM9.128 11.287c-1.13 0-2.048.993-2.048 2.212s.918 2.212 2.048 2.212 2.047-.993 2.047-2.213-.918-2.213-2.047-2.213zm0 3.426c-.578 0-1.048-.544-1.048-1.213 0-.668.47-1.212 1.048-1.212s1.047.544 1.047 1.212c0 .67-.47 1.213-1.047 1.213z"/></svg>