<svg xmlns="http://www.w3.org/2000/svg" width="24" height="24" viewBox="0 0 24 24"><path d="M23.786 11.276c-.225-1.31-1.204-2.635-2.908-2.854-.17-1.932-1.435-3.507-3.327-4.083-1.837-.562-3.71-.032-4.935 1.353-1.058-1.226-2.605-1.87-4.26-1.736-1.797.14-3.33 1.166-4.145 2.76-1.303.326-2.42 1.115-3.166 2.243-.79 1.194-1.067 2.624-.78 4.026.538 2.64 2.89 4.426 5.554 4.278 1.48 1.734 3.902 2.208 5.912 1.186 1.134 1.793 2.88 2.52 4.56 2.52.637 0 1.264-.103 1.844-.295 2.126-.7 4.07-2.722 3.793-5.71 1.587-.762 2.087-2.363 1.86-3.69zm-2.57 2.904c-.226.08-.36.31-.325.547.402 2.622-1.25 4.4-3.068 4.998-1.83.6-4.23.16-5.465-2.19-.065-.123-.18-.215-.316-.25-.04-.01-.083-.017-.125-.017-.096 0-.19.027-.272.08-1.72 1.116-3.957.724-5.204-.908-.107-.14-.273-.212-.453-.193-2.253.256-4.29-1.24-4.742-3.46-.232-1.142-.007-2.305.635-3.276s1.624-1.633 2.798-1.873c.148-.037.27-.14.334-.278C5.64 5.97 6.92 5.07 8.435 4.95c1.517-.125 2.922.568 3.76 1.838.093.14.25.225.417.225.167 0 .324-.084.417-.224 1.134-1.707 2.983-1.875 4.23-1.496 1.28.39 2.647 1.54 2.637 3.592 0 .276.22.5.497.502 1.518.01 2.244 1.113 2.405 2.055.162.942-.156 2.223-1.585 2.737z"/><path d="M8.926 13.072c-.342.356-.798.552-1.283.552-.997 0-1.808-.837-1.808-1.866 0-1.028.81-1.865 1.808-1.865.465 0 .907.183 1.245.514.196.192.512.19.707-.007.193-.197.19-.514-.007-.707-.526-.516-1.217-.8-1.945-.8-1.548 0-2.808 1.285-2.808 2.865 0 1.58 1.26 2.866 2.808 2.866.76 0 1.472-.306 2.004-.86.19-.198.185-.515-.014-.706-.2-.193-.516-.186-.707.014zM12.892 8.893c-1.498 0-2.716 1.287-2.716 2.87 0 1.582 1.218 2.87 2.716 2.87s2.715-1.288 2.715-2.87c0-1.583-1.217-2.87-2.715-2.87zm0 4.74c-.946 0-1.716-.84-1.716-1.87s.77-1.87 1.716-1.87 1.715.838 1.715 1.87-.77 1.87-1.715 1.87zM18.308 15.132h-.66l.48-.454c.526-.49.728-1.083.554-1.625-.153-.472-.582-.818-1.093-.882-.593-.073-1.164.232-1.53.816-.147.234-.077.542.157.69.23.146.54.078.69-.158.154-.25.348-.38.558-.354.127.016.23.094.265.197.05.155-.056.374-.287.59l-1.394 1.32c-.15.14-.197.357-.122.548.076.19.26.314.465.314h1.915c.276 0 .5-.224.5-.5s-.224-.5-.5-.5z"/></svg>