<svg xmlns="http://www.w3.org/2000/svg" width="24" height="24" viewBox="0 0 24 24"><path d="M13.515.163c-1.355 0-2.5 1.196-2.5 2.612v12.24c0 .276.224.5.5.5s.5-.224.5-.5V2.775c0-.858.7-1.612 1.5-1.612s1.5.753 1.5 1.612v12.24c0 .276.224.5.5.5s.5-.224.5-.5V2.775c0-1.416-1.145-2.612-2.5-2.612zM9.398.943c.276 0 .5-.224.5-.5s-.224-.5-.5-.5c-1.27 0-2.384 1.323-2.384 2.832v12.24c0 .276.224.5.5.5s.5-.224.5-.5V2.775c0-.942.673-1.832 1.384-1.832zM14.347 17.014h-5.58c-.238 0-.444.17-.49.404-.677 3.466.892 4.506 1.68 4.806l.247 1.378c.042.238.25.412.492.412h1.723c.24 0 .45-.174.49-.412l.247-1.378c.79-.3 2.358-1.34 1.682-4.806-.048-.235-.254-.404-.493-.404zm-1.73 4.33c-.2.043-.355.2-.39.402L12 23.014h-.886l-.226-1.268c-.036-.2-.19-.36-.39-.4-.863-.182-1.63-1.155-1.31-3.332h4.737c.32 2.177-.446 3.15-1.31 3.33z"/></svg>