<svg xmlns="http://www.w3.org/2000/svg" width="24" height="24" viewBox="0 0 24 24"><path d="M23.782 10.986l-2.775-2.384V2.5c0-.276-.224-.5-.5-.5h-5c-.276 0-.5.224-.5.5v.95l-2.674-2.297c-.188-.16-.464-.16-.65 0L.232 10.986c-.21.18-.234.496-.055.705.18.21.497.235.705.055l1.125-.966V23.5c0 .276.224.5.5.5h19c.276 0 .5-.224.5-.5V10.78l1.123.965c.096.08.212.12.327.12.14 0 .28-.058.38-.173.18-.21.154-.526-.055-.706zM16.007 3h4v4.744l-4-3.435V3zm5 20h-18V9.92l9-7.73 9 7.73V23z"/><path d="M11.5 9.457v1.004l-.746-.745c-.195-.195-.512-.195-.707 0-.195.195-.195.512 0 .707l1.452 1.453v1.75l-1.515-.875-.53-1.985c-.072-.267-.346-.425-.613-.354-.267.072-.425.347-.354.613l.273 1.02-.87-.503c-.238-.138-.544-.057-.682.183s-.056.545.183.683l.87.502-1.018.273c-.267.072-.425.346-.354.614.06.223.262.37.482.37.043 0 .086-.006.13-.017l1.984-.532L11 14.49l-1.514.874L7.5 14.83c-.266-.062-.54.09-.612.355-.072.268.087.54.354.613l1.02.273-.87.503c-.24.138-.32.443-.183.683.092.16.26.25.433.25.085 0 .17-.02.25-.067l.87-.503-.274 1.018c-.073.267.085.54.353.613.043.01.087.017.13.017.22 0 .422-.147.482-.37l.532-1.985 1.513-.874v1.77l-1.453 1.452c-.195.195-.195.512 0 .707s.512.195.707 0l.746-.746v.98c0 .277.224.5.5.5s.5-.223.5-.5v-.982l.747.746c.098.098.226.146.354.146s.257-.05.355-.146c.195-.195.195-.512 0-.707L12.5 17.124v-1.77l1.534.885.53 1.983c.062.224.264.37.484.37.043 0 .086-.005.13-.016.267-.072.425-.346.353-.612l-.272-1.02.85.492c.08.046.165.067.25.067.172 0 .34-.09.433-.25.14-.24.058-.545-.182-.683l-.85-.49 1.02-.273c.266-.072.424-.347.353-.613-.07-.266-.343-.42-.612-.354l-1.985.533L13 14.488l1.534-.885 1.984.532c.044.01.087.017.13.017.22 0 .423-.147.483-.37.072-.268-.086-.542-.353-.613l-1.02-.274.852-.49c.238-.14.32-.445.182-.684-.138-.24-.444-.32-.683-.183l-.852.49.273-1.018c.072-.267-.086-.54-.353-.612-.262-.07-.54.087-.612.354l-.532 1.986-1.532.885v-1.75l1.455-1.452c.195-.195.195-.512 0-.707s-.512-.195-.707 0l-.747.746V9.457c0-.276-.223-.5-.5-.5s-.5.223-.5.5z"/></svg>