<svg xmlns="http://www.w3.org/2000/svg" width="24" height="24" viewBox="0 0 24 24"><path d="M23.785 10.986L21.01 8.602V2.5c0-.276-.224-.5-.5-.5h-5c-.276 0-.5.224-.5.5v.95l-2.674-2.297c-.188-.16-.464-.16-.65 0L.235 10.986c-.212.18-.236.496-.056.705.18.21.497.235.705.055l1.125-.966V23.5c0 .276.224.5.5.5h19c.276 0 .5-.224.5-.5V10.78l1.123.965c.095.08.21.12.326.12.14 0 .28-.058.378-.173.18-.21.156-.526-.053-.706zM16.01 3h4v4.744l-4-3.435V3zm5 20h-18V9.92l9-7.73 9 7.73V23z"/><path d="M10.114 13.004c-.033.28-.065.553-.103.804-.534-.933-1.295-2.096-1.732-2.246-.156-.054-.393-.023-.525.076-.21.158-.296.442-.206.69.235.646.156 1.5.073 2.4-.156 1.676-.35 3.763 1.828 4.73.71.398 1.583.595 2.46.595 1 0 2.01-.257 2.798-.762 1.11-.713 1.67-1.833 1.572-3.155.016-.547-.178-1.102-.384-1.688-.36-1.033-.703-2.01.075-2.917.166-.194.192-.473.063-.695-.128-.222-.382-.34-.62-.293-.962.16-1.608.95-2.01 1.684-.252-1.283-.252-2.872-.252-3.508 0-.217-.115-.418-.304-.525-.188-.107-.42-.105-.61.007-1.672 1.005-1.922 3.112-2.122 4.804zm2.792.908c.096.183.296.287.5.265.203-.023.373-.17.427-.368.107-.402.345-1.016.7-1.507-.14.88.16 1.737.42 2.477.176.504.342.98.326 1.344-.002.02-.002.042 0 .062.1 1.218-.552 1.904-1.114 2.266-1.167.75-3.025.81-4.27.115-1.458-.65-1.456-1.85-1.28-3.745.038-.413.077-.832.085-1.242.436.686.88 1.467.95 1.668.036.132.134.24.255.304.12.062.27.07.4.03.107-.037.198-.106.26-.2.336-.51.432-1.32.543-2.26.15-1.267.316-2.673 1.055-3.556.048 2.087.288 3.48.743 4.346z"/></svg>