<svg xmlns="http://www.w3.org/2000/svg" width="24" height="24" viewBox="0 0 24 24"><path d="M21.3 13.524c-1.27-.664-3.016-1.344-4.91-1.915-1.184-.357-2.085-.562-2.77-.64-.088-.135-.19-.257-.306-.366-.023-.698-.174-1.65-.476-2.933-.3-1.267-1.878-7.565-3.63-7.156-1.757.413-.357 6.758-.06 8.025.348 1.47.617 2.372.88 2.948-.033.116-.056.236-.07.36-.572.38-1.268.953-2.133 1.767-.948.893-5.617 5.41-4.382 6.724.16.168.376.242.637.242 1.737 0 5.382-3.31 6.29-4.16l-.397 6.62c-.198.068-.343.25-.343.47 0 .275.224.5.5.5h3.666c.276 0 .5-.225.5-.5 0-.222-.145-.403-.343-.47l-.495-8.406c.484.178 1.08.373 1.837.6 1.897.57 3.727.968 5.152 1.115.412.044.775.066 1.093.066 1.06 0 1.617-.24 1.77-.746.198-.655-.422-1.318-2.01-2.146zm-9.36-2.472c.552 0 1.002.45 1.002 1s-.45 1.002-1.002 1.002-1.002-.45-1.002-1 .45-1.002 1.002-1.002zm-2.482-9.47c.473.476 1.522 2.565 2.406 6.318.212.9.343 1.614.41 2.185-.11-.018-.22-.034-.333-.034-.465 0-.888.167-1.23.435-.17-.513-.362-1.22-.587-2.176-.884-3.753-.876-6.09-.665-6.73zM4.24 19.587c.178-.648 1.462-2.602 4.27-5.243.638-.6 1.184-1.065 1.643-1.41.243.49.68.863 1.21 1.025-.37.45-.896 1-1.626 1.688-2.81 2.64-4.837 3.803-5.496 3.94zm6.736 3.424l.46-7.638c.426-.443.76-.826.996-1.155l.518 8.792h-1.974zm4.608-8.732c-1.028-.31-1.76-.56-2.274-.775.387-.365.633-.88.633-1.452 0-.01-.003-.018-.003-.028.572.102 1.29.28 2.16.542 3.693 1.11 5.714 2.287 6.16 2.788-.647.173-2.982.037-6.676-1.075z"/></svg>