<svg xmlns="http://www.w3.org/2000/svg" width="24" height="24" viewBox="0 0 24 24"><path d="M13.944 16.103l-2.237.78 2.194-4.457c.123-.248.022-.547-.227-.67-.247-.12-.547-.018-.67.23l-2.733 5.552c-.09.182-.06.4.074.552.134.152.347.21.54.14l2.196-.766-1.727 3.3-.23-.825c-.075-.267-.353-.42-.617-.348-.266.074-.42.35-.347.616l.57 2.038.003.006c.02.066.05.127.096.18.006.008.016.012.023.02.037.04.076.076.126.102.003.002.007 0 .01.003l.01.007c.065.03.135.045.206.046h.005c.07 0 .142-.014.208-.044l2.23-1.012c.253-.113.364-.41.25-.66-.112-.253-.413-.362-.66-.25l-.91.412 2.225-4.25c.095-.183.07-.404-.064-.56-.137-.152-.354-.21-.546-.143zM5.47 15.052c-1.35 0-2.447 1.1-2.447 2.448s1.098 2.448 2.448 2.448c1.35 0 2.45-1.1 2.45-2.448s-1.1-2.448-2.45-2.448zm0 3.896c-.797 0-1.447-.65-1.447-1.448s.65-1.448 1.448-1.448 1.45.65 1.45 1.448-.65 1.448-1.45 1.448zM18.46 15.052c-1.35 0-2.45 1.1-2.45 2.448s1.1 2.448 2.45 2.448 2.447-1.1 2.447-2.448-1.098-2.448-2.448-2.448zm0 3.896c-.8 0-1.45-.65-1.45-1.448s.65-1.448 1.45-1.448 1.447.65 1.447 1.448-.65 1.448-1.448 1.448z"/><path d="M22.168 13.247c-1.41-1.298-3.307-1.385-4.308-1.316-.298-1.15-1.66-4.894-6.703-4.894h-.302c-.363 0-.98 0-1.066.003-6.02.176-6.803 3.893-6.936 5.026C.05 12.854.124 17.322.128 17.51c.006.273.228.49.5.49h.698c.276 0 .5-.224.5-.5s-.223-.5-.5-.5h-.182c.065-1.062.39-3.523 1.98-3.97.43-.122.73-.466.763-.877.1-1.187.88-3.965 5.93-4.113.085-.003.685-.003 1.04-.003h.3c4.208 0 5.413 2.896 5.735 4.145.12.463.56.78 1.03.746.684-.045 2.392-.03 3.568 1.056.743.685 1.17 1.698 1.275 3.018h-.342c-.276 0-.5.224-.5.5s.224.5.5.5h.866c.133 0 .262-.054.355-.15s.146-.224.144-.358c-.03-1.857-.577-3.284-1.622-4.247z"/></svg>