<svg xmlns="http://www.w3.org/2000/svg" width="24" height="24" viewBox="0 0 24 24"><path d="M23.776 10.986L21 8.602V2.5c0-.276-.223-.5-.5-.5h-5c-.275 0-.5.224-.5.5v.95l-2.674-2.297c-.188-.16-.464-.16-.65 0L.225 10.986c-.21.18-.234.496-.055.705.182.21.498.235.706.055L2 10.78V23.5c0 .276.224.5.5.5h19c.276 0 .5-.224.5-.5V10.78l1.123.965c.095.08.21.12.326.12.14 0 .28-.058.378-.173.182-.21.157-.526-.052-.706zM16 3h4v4.744L16 4.31V3zm5 20H3V9.92l9-7.73 9 7.73V23z"/><path d="M11.084 14.388c-1.5-1.676-5.16-1.53-5.345-1.52-.14.007-.27.07-.36.178s-.13.245-.113.383c.018.143.454 3.527 2.514 4.452.346.154.71.232 1.093.232.54 0 1.117-.164 1.726-.47 0 .517.034 1.195.16 1.913.1.574.134.847.145.97-.042.13-.032.276.04.404.094.163.275.263.458.263.055 0 .11-.01.163-.028.462-.167.39-.573.18-1.78-.116-.658-.145-1.286-.146-1.76 1.01.576 1.94.88 2.775.88.53 0 1.023-.118 1.48-.35 2.716-1.392 2.877-6.45 2.883-6.664.004-.138-.052-.273-.15-.37-.1-.097-.237-.147-.376-.14-4.563.237-6.397 1.93-7.128 3.408zm-2.893 2.58c-1.055-.472-1.612-2.09-1.833-3.107 1.452.028 3.945.372 4.314 1.787l-.004.047c-.952-.568-2.2-.828-2.386-.864-.272-.047-.533.125-.586.396-.052.27.125.533.396.586.634.122 1.636.433 2.23.84-.83.458-1.547.58-2.13.317zm9.51-4.953c-.114 1.27-.568 4.362-2.304 5.25-.91.462-2.107.237-3.556-.656.333-.432.943-1.085 1.69-1.256 1.446-.33 2.81-1.193 2.868-1.23.233-.147.302-.457.153-.69-.148-.232-.458-.298-.69-.152-.012.008-1.273.806-2.552 1.1-.575.13-1.07.44-1.474.784.463-1.226 1.844-2.812 5.866-3.15z"/></svg>