<svg xmlns="http://www.w3.org/2000/svg" width="24" height="24" viewBox="0 0 24 24"><path d="M22.9 20.313l-3.863-6.677c-.23-.398-.71-.636-1.28-.636H6.294c-.56 0-1.05.247-1.28.645L1.15 20.302c-.188.326-.188.702 0 1.03.24.412.73.668 1.282.668H21.62c.554 0 1.045-.255 1.28-.665.19-.325.188-.698 0-1.022zM4.802 16h2.523l-.467 2H3.642l1.16-2zm3.55 0H11.5v2H7.885l.468-2zm3.147-2v1H8.586l.234-1h2.68zm3.73 0l.234 1H12.5v-1h2.73zm-3.73 5v2H7.185l.467-2H11.5zm1 0h3.898l.467 2H12.5v-2zm0-1v-2h3.198l.467 2H12.5zm4.226-2h2.524l1.157 2h-3.214l-.467-2zm1.446-1.863l.5.863h-2.18l-.232-1h1.497c.23 0 .382.08.415.137zM6.295 14h1.498l-.233 1H5.384l.496-.854c.035-.06.186-.146.415-.146zm-4.278 6.802L3.063 19h3.563l-.467 2H2.43c-.275 0-.416-.143-.415-.198zM21.62 21h-3.727l-.467-2h3.56l1.054 1.823c-.007.036-.136.177-.42.177zM16 23H8c-.276 0-.5.224-.5.5s.224.5.5.5h8c.276 0 .5-.224.5-.5s-.223-.5-.5-.5zM12.017 7.534c1.127 0 2.043-.917 2.043-2.043 0-1.126-.916-2.042-2.043-2.042-1.126 0-2.043.917-2.043 2.043 0 1.128.916 2.044 2.043 2.044zm0-3.086c.575 0 1.043.468 1.043 1.043s-.468 1.044-1.043 1.044-1.043-.468-1.043-1.043.467-1.042 1.043-1.042zM14.46 5.5c0 .276.223.5.5.5h1.904c.276 0 .5-.224.5-.5s-.223-.5-.5-.5H14.96c-.277 0-.5.224-.5.5zM7.176 6H9.08c.277 0 .5-.224.5-.5s-.223-.5-.5-.5H7.177c-.276 0-.5.224-.5.5s.223.5.5.5zM12.02 3.06c.276 0 .5-.223.5-.5V.657c0-.276-.224-.5-.5-.5s-.5.224-.5.5V2.56c0 .278.223.5.5.5zM11.52 8.44v1.905c0 .276.224.5.5.5s.5-.224.5-.5V8.44c0-.276-.224-.5-.5-.5s-.5.223-.5.5zM14.16 3.86c.128 0 .256-.05.354-.146l1.348-1.347c.195-.195.195-.512 0-.707s-.512-.195-.707 0l-1.348 1.347c-.195.195-.195.512 0 .707.097.097.225.146.353.146zM9.526 7.287L8.18 8.634c-.196.195-.196.512 0 .707.097.1.225.147.353.147s.256-.05.354-.146l1.347-1.346c.195-.195.195-.512 0-.707s-.513-.195-.708 0zM13.807 7.287c-.195.195-.195.512 0 .707l1.348 1.347c.098.1.226.147.354.147s.255-.05.353-.146c.195-.194.195-.51 0-.706l-1.348-1.347c-.197-.195-.513-.195-.708 0zM9.526 3.714c.098.097.225.146.353.146s.255-.05.353-.146c.195-.195.195-.512 0-.707L8.886 1.66c-.195-.196-.512-.196-.707 0s-.196.51 0 .706l1.346 1.348z"/></svg>