<svg xmlns="http://www.w3.org/2000/svg" width="24" height="24" viewBox="0 0 24 24"><path d="M23.55 7.07c0-.516-.23-1.02-.634-1.387-.345-.313-.79-.5-1.26-.536-.364-.7-1.08-1.102-1.948-1.077-.566-.403-1.248-.54-1.915-.413-1.59-1.093-3.44-1.675-5.375-1.675-4.69 0-8.686 3.455-9.385 8.066-.72.604-1.23 1.44-1.44 2.412-1.144.795-1.634 2.034-1.28 3.28C.694 17.094 1.92 18 3.362 18H5.52c1.79 1.893 4.286 2.98 6.897 2.98 5.24 0 9.5-4.26 9.5-9.5 0-.837-.112-1.7-.314-2.49 1.066-.054 1.947-.907 1.947-1.92zm-22.276 8.4c-.25-.88.138-1.732 1.033-2.283.123-.076.208-.202.23-.344.2-1.21.98-2.177 2.085-2.585.353-.13.716-.194 1.078-.194.73 0 1.447.26 2.04.76.107.088.247.127.384.112 1.54-.19 2.394.728 2.655 1.574.07.227.292.376.525.35.703-.066 1.388.153 1.886.604.434.393.682.925.682 1.46 0 1.124-1.052 2.075-2.296 2.075H5.753 3.362c-1.143 0-1.872-.77-2.088-1.53zm11.143 4.51c-1.998 0-3.92-.716-5.438-1.98h4.595c1.787 0 3.296-1.41 3.296-3.076 0-.815-.366-1.617-1.008-2.2-.613-.556-1.422-.865-2.267-.875-.498-1.114-1.67-2.057-3.38-1.927-1.144-.87-2.6-1.098-3.94-.603-.028.01-.054.025-.082.036C5.146 5.66 8.51 2.98 12.417 2.98c1.52 0 2.973.42 4.27 1.18-.443.35-.77.834-.912 1.41-.664.498-.94 1.25-.726 2.014C15.29 8.43 16.054 9 16.952 9h3.614c.223.774.35 1.638.35 2.482 0 4.687-3.813 8.5-8.5 8.5zM21.502 8h-4.55c-.515 0-.843-.346-.94-.688-.11-.393.062-.763.474-1.017.124-.076.208-.202.23-.344.1-.59.477-1.06 1.012-1.258.174-.064.352-.096.526-.096.35 0 .69.126.98.37.105.09.243.13.383.113.71-.087 1.105.31 1.23.715.07.227.293.374.525.35.322-.03.642.07.87.277.196.178.308.414.308.648 0 .495-.49.93-1.048.93z"/></svg>