<svg xmlns="http://www.w3.org/2000/svg" width="24" height="24" viewBox="0 0 24 24"><path d="M23.798 7.406c-.007-.14-.07-.27-.177-.36s-.24-.13-.383-.115c-1.076.133-2.765 2.71-3.586 4.07H19V9.483c0-.276-.224-.5-.5-.5s-.5.224-.5.5V11h-2V7.946c0-.276-.224-.5-.5-.5s-.5.224-.5.5V11h-2V6.84c0-.277-.224-.5-.5-.5s-.5.223-.5.5V11h-2V6.344c0-.276-.224-.5-.5-.5s-.5.224-.5.5V11H7V6.702c0-.33-.373-.577-.685-.476C3.45 7.152 1.46 9.302.53 10.5c-.456.59-.456 1.443 0 2.032.93 1.198 2.918 3.348 5.785 4.274.05.017.133.024.185.024.276 0 .5-.224.5-.5V12h2v4.688c0 .276.224.5.5.5s.5-.224.5-.5V12h2v4.193c0 .276.224.5.5.5s.5-.224.5-.5V12h2v3.087c0 .276.224.5.5.5s.5-.224.5-.5V12h2v1.55c0 .276.224.5.5.5s.5-.224.5-.5V12h.63c.814 1.35 2.522 3.97 3.606 4.102.02.003.04.004.06.004.12 0 .233-.042.324-.118.106-.09.17-.222.177-.36.004-.11.096-2.558-.852-4.11.95-1.554.857-4.002.853-4.112zM6 15.626c-2.28-.933-3.89-2.69-4.68-3.707-.177-.23-.177-.577 0-.806.79-1.018 2.4-2.775 4.68-3.708v8.22zm15.945-3.804c.58.748.77 1.98.83 2.83-.6-.63-1.476-1.83-2.267-3.136.792-1.308 1.67-2.51 2.268-3.138-.067.905-.28 2.12-.83 2.832-.14.18-.14.432 0 .612z"/><path d="M5.167 9.924c-.195-.195-.512-.195-.707 0l-.227.227-.227-.226c-.195-.195-.512-.195-.707 0s-.196.512 0 .707l.226.228-.227.227c-.196.195-.196.512 0 .707.097.098.225.146.353.146s.256-.05.354-.146l.227-.227.227.227c.1.098.227.146.355.146s.256-.05.354-.146c.194-.195.194-.512 0-.707l-.23-.227.227-.227c.196-.194.196-.51 0-.706z"/></svg>