<svg xmlns="http://www.w3.org/2000/svg" width="24" height="24" viewBox="0 0 24 24"><path d="M12.883 11.02c-.138-.016-.28.025-.385.116-1.74 1.48-2.64 2.964-2.675 4.413-.03 1.168.522 1.95.78 2.25.1.714.172 2.403-.57 2.926-.225.16-.28.47-.12.696.098.14.252.212.41.212.1 0 .2-.03.287-.092 1.12-.79 1.112-2.592 1.028-3.51 1.45-.173 2.41-.72 2.848-1.632.954-1.982-1.027-4.852-1.256-5.172-.083-.115-.21-.19-.347-.207zm.702 4.946c-.252.523-.85.855-1.742 1.014.466-1.186 1.006-2.448 1.013-2.464.11-.254-.008-.548-.262-.656-.254-.112-.547.008-.657.262-.006.015-.51 1.188-.967 2.346-.092-.25-.16-.555-.148-.916.034-1.018.688-2.144 1.9-3.277.63 1.028 1.352 2.672.863 3.69zM5.468 15.052c-1.35 0-2.448 1.1-2.448 2.448s1.098 2.448 2.448 2.448c1.35 0 2.448-1.1 2.448-2.448s-1.098-2.448-2.448-2.448zm0 3.896c-.798 0-1.448-.65-1.448-1.448s.65-1.448 1.448-1.448 1.448.65 1.448 1.448-.65 1.448-1.448 1.448zM18.456 15.052c-1.35 0-2.448 1.1-2.448 2.448s1.1 2.448 2.448 2.448 2.447-1.1 2.447-2.448-1.097-2.448-2.447-2.448zm0 3.896c-.8 0-1.448-.65-1.448-1.448s.65-1.448 1.448-1.448c.798 0 1.447.65 1.447 1.448s-.65 1.448-1.447 1.448z"/><path d="M22.165 13.247c-1.41-1.298-3.307-1.385-4.308-1.316-.298-1.15-1.66-4.894-6.703-4.894h-.302c-.363 0-.98 0-1.066.003-6.02.176-6.8 3.893-6.935 5.026C.05 12.854.12 17.322.126 17.51c.006.273.228.49.5.49h.7c.275 0 .5-.224.5-.5s-.225-.5-.5-.5H1.14c.066-1.062.39-3.523 1.98-3.97.43-.122.73-.465.764-.877.1-1.187.88-3.965 5.93-4.113.085-.003.685-.003 1.038-.003h.301c4.208 0 5.413 2.896 5.735 4.145.12.463.562.78 1.03.746.683-.045 2.392-.03 3.568 1.056.743.685 1.17 1.698 1.275 3.018h-.34c-.277 0-.5.224-.5.5s.223.5.5.5h.865c.134 0 .263-.054.356-.15s.147-.224.145-.358c-.03-1.857-.575-3.284-1.62-4.247z"/></svg>