<svg xmlns="http://www.w3.org/2000/svg" width="24" height="24" viewBox="0 0 24 24"><path d="M2.95 21.97c.055.02.112.03.167.03.206 0 .4-.128.472-.334.105-.302 2.493-7.108 2.717-10.666h5.264c.044.575.156 1.262.308 2H7.54c-.276 0-.5.224-.5.5s.224.5.5.5h4.558c.798 3.354 2.194 7.298 2.277 7.53.09.258.376.397.64.302.26-.092.395-.378.302-.64-.028-.076-2.767-7.812-2.767-10.692 0-.276-.224-.5-.5-.5H5.823c-.276 0-.5.224-.5.5 0 3.203-2.65 10.758-2.678 10.834-.092.26.045.546.305.637zM18.74 12H14c-.275 0-.5.224-.5.5s.225.5.5.5h4.257c.037.606.136 1.29.27 2h-3.41c-.277 0-.5.224-.5.5s.223.5.5.5h3.62c.608 2.695 1.567 5.433 1.625 5.6.072.206.266.334.472.334.056 0 .11-.01.166-.028.26-.092.397-.378.306-.638-.02-.06-2.065-5.887-2.065-8.768 0-.277-.223-.5-.5-.5zM23 23H1c-.276 0-.5.224-.5.5s.224.5.5.5h22c.276 0 .5-.224.5-.5s-.223-.5-.5-.5zM8.804 8.797c.096 0 .193-.027.278-.085.23-.154.29-.465.136-.694-.002-.003-.175-.28-.048-.554.1-.213.54-.73 2.465-.936 1.907-.204 3.117-.718 3.597-1.528.373-.63.16-1.187.135-1.248-.103-.247-.378-.36-.633-.266-.252.094-.38.38-.297.635.006.02.055.184-.08.394-.186.288-.8.803-2.828 1.02-1.815.193-2.883.686-3.266 1.507-.293.63-.06 1.262.124 1.536.097.143.255.22.416.22zM16.093 10.907c.086 0 .172-.023.248-.075.23-.154.29-.43.138-.66 0 0 .134-.157.785-.226.896-.095 1.454-.348 1.705-.772.172-.29.15-.592.074-.777-.106-.255-.4-.374-.654-.27-.223.094-.343.33-.3.557-.057.052-.27.198-.93.268-.86.09-1.378.35-1.583.79-.165.354-.063.717.073.92.103.152.274.245.445.245z"/></svg>