<svg xmlns="http://www.w3.org/2000/svg" width="24" height="24" viewBox="0 0 24 24"><path d="M23.047 16.882c-.5-.36-1.136-.406-1.745-.132l-3.87 1.744c-.2-.23-.482-.418-.852-.525l-5.495-1.594c-2.47-.715-6.764.004-8.827.35l-.608.102c-.725.115-1.287.655-1.432 1.375-.08.4.106 1.155.48 2.406l.09.306c.25.897 1.19 1.44 2.098 1.21.433-.11.85-.225 1.248-.333 1.313-.36 2.555-.7 3.095-.46 2.334 1.032 4.546 1.533 6.76 1.533 2.254 0 2.39-.062 5.878-1.667.776-.358 1.724-.794 2.903-1.325.583-.263.952-.756 1.013-1.355.063-.63-.226-1.27-.736-1.638zm-.686 2.08c-1.182.533-2.132.97-2.91 1.328-3.425 1.575-3.425 1.575-5.46 1.575-2.07 0-4.15-.474-6.356-1.447-.26-.115-.56-.164-.892-.164-.775 0-1.74.264-2.87.573-.393.107-.804.22-1.23.328-.384.093-.786-.13-.892-.51l-.095-.323c-.12-.406-.49-1.644-.458-1.923.062-.307.3-.536.608-.585l.618-.103c1.99-.334 6.13-1.03 8.383-.376L16.3 18.93c.22.062.357.177.437.312.008.033.02.065.032.097l.03.06c.038.14.027.29-.01.42-.094.325-.39.654-.904.5l-5.773-1.675c-.266-.078-.543.075-.62.34-.076.267.077.544.342.62l5.772 1.676c1.087.316 1.903-.353 2.144-1.18.064-.222.088-.455.067-.684l3.895-1.755c.286-.13.545-.116.75.032.223.16.354.45.326.726-.024.245-.168.427-.427.544zM11.003 11.068c.294.09.594.133.9.133.815 0 1.67-.326 2.55-.957.077.642.225 1.532.517 2.47.194.62.21 1.547.04 2.677-.04.272.148.527.422.567.024.004.05.006.074.006.243 0 .457-.18.493-.427.192-1.296.167-2.347-.075-3.123-.275-.88-.414-1.734-.484-2.333 1.12.48 2.138.735 3.04.735.87 0 1.64-.226 2.297-.678 3.034-2.085 2.438-8.203 2.41-8.463-.014-.14-.086-.265-.197-.35-.11-.082-.256-.114-.39-.09-5.617 1.03-7.516 3.45-8.107 5.363-1.984-1.913-6.556-1.13-6.78-1.09-.137.025-.257.106-.333.222-.075.116-.1.26-.064.394.044.17 1.095 4.162 3.687 4.944zM22.23 2.326c.068 1.484.058 5.56-2.02 6.987-1.09.748-2.658.65-4.662-.276.32-.58.996-1.588 1.984-1.953 1.69-.625 3.2-1.878 3.263-1.93.212-.178.24-.494.063-.706-.178-.212-.495-.24-.704-.063-.015.012-1.44 1.195-2.97 1.76-.817.303-1.444.91-1.9 1.494.212-1.622 1.467-4.164 6.945-5.314zM14.25 7.98c-.004.09.004.158.004.24v.01c-1.247-.595-2.927-.72-3.167-.733-.278-.012-.513.193-.53.468-.018.275.192.513.467.53.858.053 2.27.31 3.057.78-1.028.8-1.964 1.085-2.79.837-1.57-.473-2.49-2.674-2.843-3.704 1.78-.218 5.102-.228 5.802 1.572z"/></svg>