<svg xmlns="http://www.w3.org/2000/svg" width="24" height="24" viewBox="0 0 24 24"><path d="M17.292 1H11.41c-.39 0-1.1 0-2.175 1H7.2l-.614-.9.088-.06c.23-.156.288-.466.132-.695C6.65.117 6.34.057 6.112.213l-3.397 2.31c-.228.156-.287.467-.132.696.097.14.254.217.414.217.097 0 .195-.028.28-.086l.127-.085L4.467 5.06C3.12 6.64 3 7.08 3 7.366v14.46C3 22.985 4.113 24 5.38 24h13.412C20.01 24 21 23.024 21 21.826V5.132C21 3.965 18.528 1 17.292 1zM20 21.826c0 .658-.53 1.174-1.208 1.174H5.38C4.73 23 4 22.498 4 21.826L3.998 7.4c.014-.063.15-.453 1.46-1.956.14-.163.162-.398.052-.583L4.232 2.703l1.528-1.04.763 1.12c.093.136.248.218.413.218h2.5c.13 0 .257-.052.35-.144C10.657 2 11.11 2 11.41 2h5.882C17.925 2.006 20 4.406 20 5.132v16.694z"/><path d="M16 14.685v-1.37C16 12.59 15.41 12 14.687 12h-5.37C8.59 12 8 12.59 8 13.315v1.37C8 15.41 8.59 16 9.315 16h5.37C15.41 16 16 15.41 16 14.685zm-1 0c0 .174-.14.314-.314.314h-5.37C9.142 15 9 14.86 9 14.684v-1.37c0-.174.142-.315.315-.315h5.37c.174 0 .315.142.315.315v1.37zM18.17 7.108c-.242-.135-.547-.05-.682.192l-1.918 3.432c-.135.24-.05.546.192.68.077.044.16.064.244.064.175 0 .345-.092.437-.256l1.918-3.432c.136-.24.05-.545-.19-.68zM16.443 16.7c-.136-.243-.44-.326-.68-.193-.242.135-.328.44-.193.68l1.918 3.434c.092.165.262.257.437.257.083 0 .167-.02.244-.063.24-.135.326-.44.19-.68l-1.917-3.435zM7.56 11.22c.093.165.263.257.438.257.083 0 .166-.02.244-.063.24-.135.327-.44.192-.68L6.516 7.3c-.136-.24-.44-.327-.68-.192-.242.135-.328.44-.193.68l1.918 3.433zM8.24 16.507c-.24-.135-.544-.05-.68.192L5.644 20.13c-.135.24-.048.546.193.68.077.044.16.064.243.064.174 0 .344-.092.436-.256l1.918-3.433c.134-.24.048-.546-.193-.68zM12 5h5c.276 0 .5-.224.5-.5S17.277 4 17 4h-5c-.275 0-.5.224-.5.5s.224.5.5.5z"/></svg>