<?xml version="1.0" encoding="utf-8"?>
<!-- Generator: Adobe Illustrator 19.2.0, SVG Export Plug-In . SVG Version: 6.00 Build 0)  -->
<svg version="1.1" id="Layer_1" xmlns="http://www.w3.org/2000/svg" xmlns:xlink="http://www.w3.org/1999/xlink" x="0px" y="0px"
	 width="24px" height="24px" viewBox="0 0 24 24" style="enable-background:new 0 0 24 24;" xml:space="preserve">
<g>
	<path d="M23.575,1.124l-6.112-1.02c-0.099-0.017-0.199-0.003-0.29,0.039l-5.691,2.6L6.715,0.566
		c-0.122-0.056-0.26-0.06-0.384-0.013L0.407,2.782C0.212,2.855,0.083,3.042,0.083,3.25v15.145c0,0.164,0.081,0.317,0.215,0.411
		c0.085,0.059,0.185,0.089,0.285,0.089c0.06,0,0.119-0.011,0.176-0.032l5.731-2.158l4.558,2.04c0.254,0.115,0.548-0.001,0.661-0.252
		c0.113-0.252,0-0.548-0.252-0.66l-4.746-2.124c-0.122-0.056-0.257-0.059-0.38-0.012l-5.248,1.976V3.596l5.406-2.035l4.785,2.186
		c0.133,0.061,0.283,0.061,0.416,0l5.76-2.631l5.544,0.924v14.12l-1.41-0.263c-0.27-0.052-0.532,0.127-0.583,0.399
		c-0.051,0.271,0.128,0.533,0.399,0.583l2.002,0.373c0.145,0.026,0.298-0.012,0.411-0.106c0.114-0.095,0.181-0.236,0.181-0.385
		V1.617C23.993,1.372,23.816,1.164,23.575,1.124z"/>
	<path d="M6.007,3.932v9.61c0,0.276,0.224,0.5,0.5,0.5s0.5-0.224,0.5-0.5v-9.61c0-0.276-0.224-0.5-0.5-0.5S6.007,3.656,6.007,3.932z
		"/>
	<path d="M11.981,9.459V5.793c0-0.276-0.224-0.5-0.5-0.5s-0.5,0.224-0.5,0.5v3.666c0,0.276,0.224,0.5,0.5,0.5
		S11.981,9.735,11.981,9.459z"/>
	<path d="M17.987,8.107V3.25c0-0.276-0.224-0.5-0.5-0.5s-0.5,0.224-0.5,0.5v4.857c0,0.276,0.224,0.5,0.5,0.5
		S17.987,8.384,17.987,8.107z"/>
	<path d="M15.987,10.068c-2.587,0-4.691,2.094-4.691,4.668c0,2.384,3.837,8.251,4.274,8.912c0.093,0.14,0.249,0.224,0.417,0.224
		s0.324-0.084,0.417-0.224c0.438-0.661,4.274-6.528,4.274-8.912C20.679,12.162,18.574,10.068,15.987,10.068z M15.987,22.452
		c-1.318-2.076-3.691-6.138-3.691-7.716c0-2.023,1.656-3.668,3.691-3.668s3.691,1.646,3.691,3.668
		C19.679,16.314,17.306,20.376,15.987,22.452z"/>
	<path d="M15.987,12.903c-0.848,0-1.537,0.687-1.537,1.53c0,0.845,0.689,1.531,1.537,1.531c0.847,0,1.536-0.687,1.536-1.531
		C17.523,13.59,16.834,12.903,15.987,12.903z M15.987,14.965c-0.296,0-0.537-0.238-0.537-0.531c0-0.292,0.241-0.53,0.537-0.53
		s0.536,0.238,0.536,0.53C16.523,14.726,16.283,14.965,15.987,14.965z"/>
</g>
</svg>
