<?xml version="1.0" encoding="utf-8"?>
<!-- Generator: Adobe Illustrator 19.2.0, SVG Export Plug-In . SVG Version: 6.00 Build 0)  -->
<svg version="1.1" id="Layer_1" xmlns="http://www.w3.org/2000/svg" xmlns:xlink="http://www.w3.org/1999/xlink" x="0px" y="0px"
	 width="24px" height="24px" viewBox="0 0 24 24" style="enable-background:new 0 0 24 24;" xml:space="preserve">
<g>
	<path d="M20.623,2.004h-7.661V0.635c0-0.276-0.224-0.5-0.5-0.5s-0.5,0.224-0.5,0.5v1.369h-5.84c-0.147,0-0.287,0.065-0.381,0.177
		l-3.835,4.53c-0.159,0.188-0.158,0.464,0.003,0.65l3.835,4.436c0.095,0.11,0.233,0.173,0.378,0.173h14.501
		c0.276,0,0.5-0.224,0.5-0.5V2.504C21.123,2.228,20.899,2.004,20.623,2.004z M20.123,10.97H6.351L2.945,7.031l3.409-4.026h13.769
		V10.97z"/>
	<path d="M12.462,13.032c-0.276,0-0.5,0.224-0.5,0.5v9.929c0,0.276,0.224,0.5,0.5,0.5s0.5-0.224,0.5-0.5v-9.929
		C12.962,13.256,12.739,13.032,12.462,13.032z"/>
</g>
</svg>
