<?xml version="1.0" encoding="utf-8"?>
<!-- Generator: Adobe Illustrator 19.2.0, SVG Export Plug-In . SVG Version: 6.00 Build 0)  -->
<svg version="1.1" id="Layer_1" xmlns="http://www.w3.org/2000/svg" xmlns:xlink="http://www.w3.org/1999/xlink" x="0px" y="0px"
	 width="24px" height="24px" viewBox="0 0 24 24" style="enable-background:new 0 0 24 24;" xml:space="preserve">
<g>
	<path d="M11.991,21.027c0.168,0,0.325-0.085,0.417-0.226c0.266-0.403,6.501-9.92,6.501-13.574c0-3.815-3.104-6.919-6.919-6.919
		c-3.815,0-6.919,3.104-6.919,6.919c0,3.653,6.236,13.17,6.501,13.574C11.666,20.942,11.823,21.027,11.991,21.027z M11.991,1.309
		c3.264,0,5.919,2.655,5.919,5.919c0,2.844-4.506,10.154-5.919,12.375c-1.413-2.222-5.919-9.53-5.919-12.375
		C6.072,3.964,8.728,1.309,11.991,1.309z"/>
	<path d="M14.473,6.527c0-1.368-1.113-2.481-2.481-2.481S9.51,5.159,9.51,6.527s1.113,2.481,2.481,2.481S14.473,7.895,14.473,6.527z
		 M10.51,6.527c0-0.817,0.665-1.481,1.481-1.481s1.481,0.665,1.481,1.481s-0.665,1.481-1.481,1.481S10.51,7.344,10.51,6.527z"/>
	<path d="M15.06,18.857c-0.266-0.057-0.533,0.122-0.586,0.395c-0.054,0.271,0.123,0.533,0.395,0.586
		c1.956,0.384,2.685,1.029,2.685,1.347c0,0.641-2.219,1.609-5.562,1.609S6.43,21.825,6.43,21.184c0-0.319,0.736-0.968,2.71-1.351
		c0.271-0.053,0.448-0.315,0.396-0.586c-0.053-0.271-0.312-0.448-0.586-0.396c-2.237,0.434-3.52,1.284-3.52,2.333
		c0,1.713,3.301,2.609,6.561,2.609c3.261,0,6.562-0.896,6.562-2.609C18.553,20.14,17.279,19.292,15.06,18.857z"/>
</g>
</svg>
