<?xml version="1.0" encoding="utf-8"?>
<!-- Generator: Adobe Illustrator 19.2.0, SVG Export Plug-In . SVG Version: 6.00 Build 0)  -->
<svg version="1.1" id="Layer_1" xmlns="http://www.w3.org/2000/svg" xmlns:xlink="http://www.w3.org/1999/xlink" x="0px" y="0px"
	 width="24px" height="24px" viewBox="0 0 24 24" style="enable-background:new 0 0 24 24;" xml:space="preserve">
<g>
	<path d="M11.986,0.27c-6.495,0-11.778,5.284-11.778,11.778s5.284,11.778,11.778,11.778c6.494,0,11.778-5.283,11.778-11.778
		S18.48,0.27,11.986,0.27z M11.986,22.826c-5.943,0-10.778-4.835-10.778-10.778c0-5.943,4.835-10.778,10.778-10.778
		s10.778,4.835,10.778,10.778C22.765,17.991,17.93,22.826,11.986,22.826z"/>
	<path d="M21.113,7.937c-0.275,0.015-0.487,0.25-0.472,0.526c0.023,0.425-0.448,0.922-1.326,1.397
		c-1.34,0.726-1.132,1.317-0.63,2.747c0.379,1.081-1.711,4.583-2.639,5.318c-0.12-0.253-0.228-0.883-0.237-1.438
		c0-1.959,0-4.918-2.604-5.911c-0.73-0.279-1.725-0.638-2.312-0.766c-0.039-0.008-0.143-0.031-0.171-0.268
		c-0.045-0.387,0.185-0.935,0.599-1.133c0.231-0.11,0.386-0.091,0.55-0.073c0.17,0.02,0.457,0.053,0.688-0.17
		c0.27-0.262,0.267-0.652,0.194-1.48c-0.055-0.637-0.271-1.113-0.641-1.413c-0.579-0.47-1.346-0.377-1.905-0.31
		c-0.154,0.019-0.297,0.037-0.417,0.037c-1.112,0-1.29,0.833-1.678,2.657L8.039,8.014C8.035,8.029,8.032,8.042,8.029,8.055
		c-0.033-0.04-0.064-0.081-0.085-0.117C7.871,7.746,7.768,6.733,7.717,5.907c-0.014-0.221-0.17-0.406-0.386-0.456
		C7.119,5.403,6.894,5.498,6.784,5.69L5.991,7.078C5.966,7.123,5.96,7.125,5.949,7.175c-0.001,0.004-0.167,0.361-1.158,0.71
		C4.665,7.93,4.594,7.937,4.577,7.948C4.465,7.682,4.71,6.634,5.099,5.74c0.11-0.253-0.006-0.548-0.259-0.658
		c-0.254-0.11-0.548,0.005-0.658,0.259C3.855,6.091,3.169,7.913,3.85,8.644C4.052,8.861,4.439,9.07,5.125,8.829
		C6.349,8.396,6.74,7.865,6.865,7.58c0.058,0.421,0.124,0.698,0.197,0.826C7.146,8.554,7.597,9.288,8.24,9.184
		C8.631,9.123,8.893,8.8,9.016,8.224l0.076-0.357c0.368-1.727,0.443-1.865,0.7-1.865c0.154,0,0.337-0.021,0.536-0.044
		c0.425-0.052,0.907-0.109,1.155,0.093c0.151,0.123,0.244,0.366,0.275,0.724c0.022,0.256,0.032,0.432,0.036,0.552
		c-0.228-0.011-0.538,0.007-0.904,0.183C10.021,7.926,9.644,8.929,9.73,9.661c0.069,0.592,0.425,1.014,0.952,1.128
		c0.411,0.089,1.181,0.346,2.168,0.723c1.812,0.69,1.959,2.663,1.959,4.984c0.01,0.596,0.107,2.021,0.807,2.392
		c0.086,0.046,0.219,0.096,0.385,0.096c0.153,0,0.335-0.043,0.534-0.173c0.927-0.604,3.729-4.728,3.094-6.534
		c-0.428-1.217-0.428-1.217,0.163-1.537c1.273-0.689,1.895-1.474,1.848-2.331C21.625,8.134,21.424,7.914,21.113,7.937z"/>
	<path d="M6.437,13.394C6.1,13.266,5.638,13.09,5.509,12.962c-0.362-0.363-0.635-0.526-0.898-0.683
		c-0.174-0.104-0.363-0.217-0.612-0.414c-0.215-0.171-0.475-0.209-0.711-0.107c-0.189,0.082-0.766,0.33-1.01,3.1
		c-0.024,0.275,0.179,0.518,0.454,0.542c0.28,0.024,0.518-0.18,0.542-0.454c0.073-0.826,0.23-1.68,0.376-2.093
		c0.167,0.117,0.311,0.203,0.447,0.285c0.24,0.144,0.43,0.257,0.705,0.532c0.279,0.279,0.765,0.465,1.278,0.66
		c0.22,0.084,0.547,0.209,0.75,0.315l-0.119,0.104c-0.722,0.613-1.111,1.033-2.068,3.84c-0.089,0.261,0.05,0.545,0.312,0.635
		c0.053,0.018,0.108,0.026,0.161,0.026c0.208,0,0.402-0.131,0.473-0.339c0.911-2.67,1.216-2.93,1.769-3.4
		c0.085-0.072,0.176-0.149,0.273-0.236c0.325-0.293,0.35-0.589,0.313-0.785C7.842,13.93,7.191,13.682,6.437,13.394z"/>
</g>
</svg>
