<?xml version="1.0" encoding="utf-8"?>
<!-- Generator: Adobe Illustrator 19.2.0, SVG Export Plug-In . SVG Version: 6.00 Build 0)  -->
<svg version="1.1" id="Layer_1" xmlns="http://www.w3.org/2000/svg" xmlns:xlink="http://www.w3.org/1999/xlink" x="0px" y="0px"
	 width="24px" height="24px" viewBox="0 0 24 24" style="enable-background:new 0 0 24 24;" xml:space="preserve">
<g>
	<path d="M4.537,14.003c0.168,0,0.325-0.085,0.417-0.226c0.386-0.585,3.765-5.783,3.765-7.905c0-2.306-1.876-4.183-4.183-4.183
		c-2.307,0-4.183,1.876-4.183,4.183c0,2.122,3.38,7.32,3.766,7.905C4.211,13.918,4.368,14.003,4.537,14.003z M4.537,2.69
		c1.755,0,3.183,1.428,3.183,3.183c0,1.361-2.018,4.853-3.183,6.705c-1.165-1.853-3.183-5.344-3.183-6.705
		C1.354,4.117,2.781,2.69,4.537,2.69z"/>
	<path d="M6.347,5.591c0-0.999-0.812-1.811-1.811-1.811S2.726,4.592,2.726,5.591s0.812,1.811,1.811,1.811S6.347,6.589,6.347,5.591z
		 M4.536,6.401c-0.447,0-0.811-0.364-0.811-0.811S4.089,4.78,4.536,4.78s0.811,0.364,0.811,0.811S4.983,6.401,4.536,6.401z"/>
	<path d="M19.59,7.63c-2.307,0-4.183,1.876-4.183,4.183c0,2.123,3.38,7.319,3.765,7.904c0.093,0.141,0.25,0.226,0.418,0.226
		s0.325-0.085,0.418-0.225c0.385-0.586,3.766-5.782,3.766-7.905C23.773,9.506,21.896,7.63,19.59,7.63z M19.59,18.517
		c-1.165-1.852-3.183-5.343-3.183-6.705c0-1.755,1.428-3.183,3.183-3.183c1.756,0,3.184,1.428,3.184,3.183
		C22.773,13.174,20.755,16.665,19.59,18.517z"/>
	<path d="M19.59,9.72c-0.998,0-1.811,0.812-1.811,1.811s0.812,1.811,1.811,1.811s1.811-0.812,1.811-1.811S20.588,9.72,19.59,9.72z
		 M19.59,12.341c-0.447,0-0.811-0.364-0.811-0.811s0.363-0.811,0.811-0.811s0.811,0.364,0.811,0.811S20.037,12.341,19.59,12.341z"/>
	<path d="M9.478,16.402l-0.96-0.278c-0.266-0.077-0.542,0.076-0.62,0.341c-0.077,0.266,0.076,0.543,0.341,0.62l0.96,0.278
		c0.046,0.014,0.093,0.02,0.139,0.02c0.217,0,0.417-0.142,0.48-0.36C9.896,16.757,9.743,16.479,9.478,16.402z"/>
	<path d="M17.16,18.633l-0.961-0.278c-0.263-0.078-0.542,0.077-0.619,0.342c-0.076,0.265,0.076,0.542,0.342,0.619l0.961,0.278
		c0.046,0.014,0.093,0.02,0.139,0.02c0.217,0,0.417-0.143,0.48-0.361C17.578,18.987,17.426,18.71,17.16,18.633z"/>
	<path d="M5.636,15.287l-0.96-0.278c-0.266-0.079-0.543,0.077-0.62,0.341c-0.077,0.266,0.076,0.543,0.341,0.62l0.96,0.278
		c0.046,0.014,0.093,0.02,0.139,0.02c0.217,0,0.417-0.143,0.48-0.36C6.054,15.641,5.901,15.364,5.636,15.287z"/>
	<path d="M13.319,17.517l-0.961-0.278c-0.266-0.078-0.543,0.077-0.62,0.341c-0.077,0.266,0.076,0.543,0.341,0.62l0.96,0.278
		c0.047,0.014,0.094,0.02,0.14,0.02c0.217,0,0.417-0.143,0.48-0.36C13.736,17.872,13.584,17.594,13.319,17.517z"/>
</g>
</svg>
