<?xml version="1.0" encoding="utf-8"?>
<!-- Generator: Adobe Illustrator 19.2.0, SVG Export Plug-In . SVG Version: 6.00 Build 0)  -->
<svg version="1.1" id="Layer_1" xmlns="http://www.w3.org/2000/svg" xmlns:xlink="http://www.w3.org/1999/xlink" x="0px" y="0px"
	 width="24px" height="24px" viewBox="0 0 24 24" style="enable-background:new 0 0 24 24;" xml:space="preserve">
<g>
	<path d="M0.619,5.671c0.098,0.098,0.226,0.146,0.354,0.146s0.256-0.049,0.354-0.146l1.679-1.679l1.679,1.679
		C4.782,5.769,4.91,5.818,5.038,5.818s0.256-0.049,0.354-0.146c0.195-0.195,0.195-0.512,0-0.707L3.712,3.285l1.679-1.679
		c0.195-0.195,0.195-0.512,0-0.707s-0.512-0.195-0.707,0L3.005,2.578L1.326,0.899c-0.195-0.195-0.512-0.195-0.707,0
		s-0.195,0.512,0,0.707l1.679,1.679L0.619,4.964C0.424,5.159,0.424,5.476,0.619,5.671z"/>
	<path d="M19.986,6c0,0.276,0.224,0.5,0.5,0.5s0.5-0.224,0.5-0.5V2.5c0-0.024-0.01-0.044-0.013-0.067
		c-0.005-0.037-0.009-0.073-0.022-0.108c-0.013-0.034-0.033-0.062-0.052-0.091c-0.013-0.02-0.019-0.044-0.036-0.063
		c-0.004-0.004-0.009-0.006-0.013-0.01c-0.026-0.028-0.058-0.047-0.09-0.069c-0.023-0.015-0.043-0.035-0.068-0.046
		c-0.025-0.011-0.053-0.014-0.079-0.021c-0.037-0.01-0.074-0.021-0.112-0.023C20.495,2.003,20.491,2,20.486,2h-3.5
		c-0.276,0-0.5,0.224-0.5,0.5S16.71,3,16.986,3h2.167l-3.886,3.394C13.586,7.998,12.9,9.355,12.9,11.079v3.34
		c0,2.38-1.656,4.329-4.027,4.742l-1.887,0.328C6.61,18.037,5.3,16.957,3.731,16.957c-1.861,0-3.375,1.514-3.375,3.375
		s1.514,3.375,3.375,3.375c1.808,0,3.277-1.433,3.359-3.222l1.954-0.34c2.859-0.497,4.856-2.852,4.856-5.727v-3.34
		c0-1.438,0.577-2.549,2.041-3.947l4.045-3.531V6z M3.731,22.707c-1.31,0-2.375-1.065-2.375-2.375s1.065-2.375,2.375-2.375
		c1.309,0,2.375,1.065,2.375,2.375S5.041,22.707,3.731,22.707z"/>
	<path d="M4.927,9.604c-0.195-0.195-0.512-0.195-0.707,0s-0.195,0.512,0,0.707l1.679,1.679L4.22,13.67
		c-0.195,0.195-0.195,0.512,0,0.707c0.098,0.098,0.226,0.146,0.354,0.146s0.256-0.049,0.354-0.146l1.679-1.679l1.679,1.679
		c0.098,0.098,0.226,0.146,0.354,0.146s0.256-0.049,0.354-0.146c0.195-0.195,0.195-0.512,0-0.707L7.313,11.99l1.679-1.679
		c0.195-0.195,0.195-0.512,0-0.707s-0.512-0.195-0.707,0l-1.679,1.679L4.927,9.604z"/>
	<path d="M21.791,9.958l1.679-1.679c0.195-0.195,0.195-0.512,0-0.707s-0.512-0.195-0.707,0l-1.679,1.679l-1.679-1.679
		c-0.195-0.195-0.512-0.195-0.707,0s-0.195,0.512,0,0.707l1.679,1.679l-1.679,1.679c-0.195,0.195-0.195,0.512,0,0.707
		c0.098,0.098,0.226,0.146,0.354,0.146s0.256-0.049,0.354-0.146l1.679-1.679l1.679,1.679c0.098,0.098,0.226,0.146,0.354,0.146
		s0.256-0.049,0.354-0.146c0.195-0.195,0.195-0.512,0-0.707L21.791,9.958z"/>
	<path d="M21.985,18.273c-0.195-0.195-0.512-0.195-0.707,0l-1.68,1.679l-1.68-1.679c-0.195-0.195-0.512-0.195-0.707,0
		s-0.195,0.512,0,0.707l1.68,1.679l-1.68,1.679c-0.195,0.195-0.195,0.512,0,0.707c0.098,0.098,0.226,0.146,0.354,0.146
		s0.256-0.049,0.354-0.146l1.68-1.679l1.68,1.679c0.098,0.098,0.226,0.146,0.354,0.146s0.256-0.049,0.354-0.146
		c0.195-0.195,0.195-0.512,0-0.707l-1.68-1.679l1.68-1.679C22.181,18.785,22.181,18.469,21.985,18.273z"/>
</g>
</svg>
