<?xml version="1.0" encoding="utf-8"?>
<!-- Generator: Adobe Illustrator 19.2.0, SVG Export Plug-In . SVG Version: 6.00 Build 0)  -->
<svg version="1.1" id="Layer_1" xmlns="http://www.w3.org/2000/svg" xmlns:xlink="http://www.w3.org/1999/xlink" x="0px" y="0px"
	 width="24px" height="24px" viewBox="0 0 24 24" style="enable-background:new 0 0 24 24;" xml:space="preserve">
<g>
	<path d="M20.187,23.317l-2.354-6C17.758,17.126,17.573,17,17.367,17h-1.381c-0.276,0-0.5,0.224-0.5,0.5s0.224,0.5,0.5,0.5h1.04
		l1.961,5H4.985l1.961-5h1.04c0.276,0,0.5-0.224,0.5-0.5S8.263,17,7.986,17H6.605c-0.206,0-0.39,0.126-0.465,0.317l-2.354,6
		c-0.061,0.154-0.041,0.328,0.052,0.464C3.932,23.918,4.086,24,4.252,24h15.469c0.165,0,0.32-0.082,0.413-0.219
		C20.227,23.645,20.246,23.471,20.187,23.317z"/>
	<path d="M14.534,6.384c0-1.405-1.143-2.548-2.548-2.548S9.438,4.979,9.438,6.384c0,1.405,1.143,2.548,2.548,2.548
		S14.534,7.789,14.534,6.384z M10.438,6.384c0-0.854,0.694-1.548,1.548-1.548c0.854,0,1.548,0.694,1.548,1.548
		c0,0.854-0.694,1.548-1.548,1.548C11.132,7.932,10.438,7.238,10.438,6.384z"/>
	<path d="M11.986,20.677c0.168,0,0.325-0.085,0.417-0.226c0.263-0.399,6.446-9.836,6.446-13.458c0-3.784-3.079-6.863-6.863-6.863
		S5.124,3.21,5.124,6.994c0,3.622,6.182,13.059,6.445,13.458C11.661,20.593,11.818,20.677,11.986,20.677z M11.986,1.131
		c3.233,0,5.863,2.63,5.863,5.863c0,2.815-4.459,10.051-5.863,12.26c-1.404-2.209-5.863-9.443-5.863-12.26
		C6.124,3.761,8.753,1.131,11.986,1.131z"/>
</g>
</svg>
