<?xml version="1.0" encoding="utf-8"?>
<!-- Generator: Adobe Illustrator 19.2.0, SVG Export Plug-In . SVG Version: 6.00 Build 0)  -->
<svg version="1.1" id="Layer_1" xmlns="http://www.w3.org/2000/svg" xmlns:xlink="http://www.w3.org/1999/xlink" x="0px" y="0px"
	 width="24px" height="24px" viewBox="0 0 24 24" style="enable-background:new 0 0 24 24;" xml:space="preserve">
<g>
	<path d="M15.604,17.185c-0.239-0.13-0.546-0.042-0.678,0.201c-0.402,0.74-0.851,1.343-1.127,1.633
		c-0.054-0.213-0.096-0.531-0.101-0.804c0.054-3.199-1.216-4.106-1.443-4.242c-0.063-0.025-1.556-0.627-2.251-0.773
		c-0.016-0.019-0.047-0.122-0.011-0.286c0.048-0.22,0.185-0.412,0.349-0.491c0.133-0.064,0.213-0.055,0.329-0.041
		c0.14,0.016,0.399,0.047,0.612-0.162c0.251-0.244,0.233-0.611,0.182-1.19c-0.043-0.504-0.218-0.883-0.517-1.126
		c-0.467-0.379-1.061-0.308-1.494-0.256C9.347,9.661,9.249,9.675,9.166,9.675c-0.857,0-1.043,0.592-1.298,1.771
		c-0.033-0.288-0.064-0.658-0.084-0.982c-0.014-0.22-0.17-0.406-0.386-0.456c-0.215-0.05-0.438,0.047-0.547,0.239l-0.615,1.094
		c-0.001,0.002-0.126,0.224-0.767,0.451c0.007-0.289,0.168-0.878,0.39-1.387c0.11-0.253-0.006-0.548-0.259-0.658
		c-0.252-0.11-0.547,0.005-0.658,0.259c-0.31,0.71-0.75,1.988-0.218,2.56c0.143,0.154,0.473,0.382,1.075,0.171
		c0.61-0.216,0.956-0.471,1.15-0.688c0.044,0.213,0.083,0.28,0.104,0.318C7.122,12.486,7.488,13.085,8.051,13
		c0.239-0.037,0.55-0.207,0.679-0.807l0.056-0.263c0.127-0.598,0.248-1.164,0.379-1.256c0.117,0,0.257-0.015,0.408-0.033
		c0.257-0.031,0.607-0.073,0.744,0.039c0.079,0.064,0.133,0.219,0.152,0.437c0.009,0.104,0.015,0.188,0.02,0.256
		c-0.16,0.007-0.356,0.042-0.579,0.148c-0.69,0.331-0.991,1.127-0.923,1.708c0.057,0.485,0.363,0.847,0.801,0.941
		c0.487,0.106,1.572,0.521,2.028,0.703c0.158,0.143,0.923,0.956,0.883,3.34c0.009,0.57,0.107,1.571,0.661,1.865
		c0.107,0.057,0.224,0.085,0.341,0.085c0.156,0,0.317-0.05,0.467-0.147c0.498-0.324,1.198-1.344,1.638-2.154
		C15.938,17.621,15.848,17.317,15.604,17.185z"/>
	<path d="M21.948,5.779c0-3.024-2.461-5.485-5.485-5.485s-5.484,2.46-5.484,5.485c0,0.137,0.021,0.293,0.042,0.45
		c-0.084-0.002-0.166-0.013-0.25-0.013c-4.822,0-8.746,3.923-8.746,8.745s3.923,8.745,8.746,8.745c4.823,0,8.746-3.923,8.746-8.745
		c0-0.769-0.127-1.556-0.349-2.343C20.512,10.24,21.948,7.339,21.948,5.779z M16.463,1.294c2.474,0,4.485,2.012,4.485,4.485
		c0,1.328-1.369,4.091-2.733,6.489c-0.011,0.018-0.022,0.035-0.031,0.054c-0.621,1.089-1.238,2.1-1.722,2.862
		c-1.555-2.449-4.484-7.463-4.484-9.406C11.979,3.305,13.99,1.294,16.463,1.294z M18.516,14.961c0,4.271-3.475,7.745-7.746,7.745
		s-7.746-3.475-7.746-7.745s3.475-7.745,7.746-7.745c0.162,0,0.32,0.014,0.48,0.024c1.016,3.368,4.617,8.872,4.795,9.141
		c0.093,0.141,0.25,0.226,0.418,0.226s0.325-0.085,0.418-0.226c0.073-0.111,0.732-1.119,1.549-2.493
		C18.484,14.249,18.516,14.608,18.516,14.961z"/>
	<path d="M18.737,5.397c0-1.254-1.021-2.274-2.274-2.274s-2.273,1.02-2.273,2.274s1.02,2.274,2.273,2.274S18.737,6.651,18.737,5.397
		z M15.189,5.397c0-0.703,0.571-1.274,1.273-1.274c0.703,0,1.274,0.571,1.274,1.274s-0.571,1.274-1.274,1.274
		C15.761,6.671,15.189,6.1,15.189,5.397z"/>
</g>
</svg>
