<?xml version="1.0" encoding="utf-8"?>
<!-- Generator: Adobe Illustrator 19.2.0, SVG Export Plug-In . SVG Version: 6.00 Build 0)  -->
<svg version="1.1" id="Layer_1" xmlns="http://www.w3.org/2000/svg" xmlns:xlink="http://www.w3.org/1999/xlink" x="0px" y="0px"
	 width="24px" height="24px" viewBox="0 0 24 24" style="enable-background:new 0 0 24 24;" xml:space="preserve">
<path d="M23.704,12.587c0.005-0.029,0.018-0.056,0.018-0.087c0-0.018-0.009-0.034-0.01-0.052c0.005-0.134,0.02-0.265,0.02-0.4
	c0-1.672-0.357-3.261-0.989-4.702c-0.012-0.036-0.029-0.068-0.048-0.1c-1.823-4.05-5.869-6.886-10.579-6.938
	c-0.024,0-0.047-0.007-0.07-0.007c-0.004,0-0.008,0.002-0.012,0.002c-0.016,0-0.032-0.002-0.048-0.002
	c-0.009,0-0.017,0.001-0.026,0.001c-0.002,0-0.004-0.001-0.007-0.001c-0.013,0-0.025,0.003-0.038,0.004
	C7.178,0.333,3.106,3.179,1.275,7.246c-0.02,0.032-0.036,0.064-0.048,0.1c-0.632,1.441-0.989,3.03-0.989,4.702
	c0,0.122,0.015,0.24,0.018,0.361C0.25,12.44,0.237,12.468,0.237,12.5c0,0.054,0.015,0.103,0.031,0.152
	c0.093,1.815,0.586,3.524,1.414,5.031c0.012,0.029,0.031,0.052,0.048,0.079c2,3.575,5.81,6.003,10.183,6.029
	c0.013,0,0.025,0.004,0.038,0.004c0.002,0,0.004-0.001,0.007-0.001c0.009,0,0.017,0.001,0.026,0.001
	c0.016,0,0.032-0.002,0.048-0.002c0.004,0,0.008,0.002,0.012,0.002c0.024,0,0.047-0.006,0.07-0.007
	c4.351-0.048,8.139-2.471,10.128-6.033c0.014-0.024,0.032-0.044,0.043-0.07C23.124,16.159,23.62,14.427,23.704,12.587z M1.286,13
	h4.567c0.057,1.427,0.242,2.771,0.533,4h-3.93C1.821,15.783,1.412,14.433,1.286,13z M2.035,8h4.161
	c-0.232,1.244-0.364,2.586-0.367,4H1.24C1.246,10.586,1.53,9.237,2.035,8z M22.729,12h-4.562c-0.003-1.414-0.135-2.756-0.367-4
	h4.134C22.439,9.237,22.723,10.586,22.729,12z M17.167,12h-4.682V8h4.289C17.023,9.243,17.164,10.594,17.167,12z M12.484,7V1.349
	C14.217,1.676,15.735,3.9,16.545,7H12.484z M11.484,1.352V7H7.451C8.256,3.916,9.762,1.697,11.484,1.352z M11.484,8v4H6.829
	c0.003-1.406,0.144-2.757,0.393-4H11.484z M6.852,13h4.632v4H7.428C7.117,15.778,6.915,14.425,6.852,13z M11.484,18v4.743
	c-1.549-0.31-2.923-2.135-3.77-4.743H11.484z M12.484,22.746V18h3.797C15.43,20.624,14.044,22.452,12.484,22.746z M12.484,17v-4
	h4.66c-0.063,1.424-0.265,2.777-0.577,4H12.484z M18.144,13h4.539c-0.127,1.432-0.536,2.783-1.17,4h-3.902
	C17.901,15.772,18.086,14.427,18.144,13z M21.466,7h-3.88c-0.543-2.239-1.436-4.075-2.559-5.254C17.809,2.57,20.123,4.486,21.466,7z
	 M8.976,1.738C7.85,2.915,6.954,4.756,6.409,7H2.502C3.852,4.476,6.18,2.555,8.976,1.738z M3.043,18h3.61
	c0.552,1.834,1.352,3.343,2.323,4.358C6.524,21.641,4.431,20.078,3.043,18z M15.028,22.349c0.967-1.015,1.764-2.521,2.315-4.349
	h3.583C19.544,20.068,17.465,21.628,15.028,22.349z"/>
</svg>
