<?xml version="1.0" encoding="utf-8"?>
<!-- Generator: Adobe Illustrator 19.2.0, SVG Export Plug-In . SVG Version: 6.00 Build 0)  -->
<svg version="1.1" id="Layer_1" xmlns="http://www.w3.org/2000/svg" xmlns:xlink="http://www.w3.org/1999/xlink" x="0px" y="0px"
	 width="24px" height="24px" viewBox="0 0 24 24" style="enable-background:new 0 0 24 24;" xml:space="preserve">
<g>
	<path d="M11.986,0.188c-4.34,0-7.87,3.531-7.87,7.871c0,4.172,7.148,15.083,7.453,15.545c0.092,0.141,0.249,0.226,0.417,0.226
		s0.325-0.085,0.417-0.226c0.305-0.462,7.453-11.374,7.453-15.545C19.856,3.719,16.326,0.188,11.986,0.188z M11.986,22.407
		c-1.549-2.43-6.87-11.02-6.87-14.348c0-3.789,3.082-6.871,6.87-6.871s6.87,3.082,6.87,6.871
		C18.856,11.386,13.535,19.976,11.986,22.407z"/>
	<path d="M11.986,3.957c-1.678,0-3.044,1.365-3.044,3.043s1.366,3.044,3.044,3.044c1.679,0,3.044-1.366,3.044-3.044
		S13.665,3.957,11.986,3.957z M11.986,9.045c-1.127,0-2.044-0.917-2.044-2.044s0.917-2.043,2.044-2.043s2.044,0.917,2.044,2.043
		S13.113,9.045,11.986,9.045z"/>
</g>
</svg>
