<?xml version="1.0" encoding="utf-8"?>
<!-- Generator: Adobe Illustrator 19.2.0, SVG Export Plug-In . SVG Version: 6.00 Build 0)  -->
<svg version="1.1" id="Layer_1" xmlns="http://www.w3.org/2000/svg" xmlns:xlink="http://www.w3.org/1999/xlink" x="0px" y="0px"
	 width="24px" height="24px" viewBox="0 0 24 24" style="enable-background:new 0 0 24 24;" xml:space="preserve">
<g>
	<path d="M21.738,13.485c0-0.009-0.005-0.017-0.005-0.027c-0.049-4.811-3.435-8.829-7.949-9.859
		c0.131-0.307,0.213-0.636,0.213-0.971c0-1.371-1.116-2.486-2.487-2.486c-1.371,0-2.486,1.115-2.486,2.486
		c0,0.336,0.082,0.664,0.212,0.971c-4.514,1.03-7.9,5.049-7.949,9.859c0,0.009-0.005,0.017-0.005,0.027
		c0,0.006,0.003,0.01,0.003,0.016c0,0.021-0.003,0.042-0.003,0.063c0,5.64,4.588,10.229,10.229,10.229
		c5.64,0,10.229-4.589,10.229-10.229c0-0.021-0.003-0.042-0.003-0.063C21.735,13.495,21.738,13.491,21.738,13.485z M10.185,3.302
		c-0.107-0.209-0.161-0.436-0.161-0.673c0-0.819,0.667-1.486,1.486-1.486c0.82,0,1.487,0.667,1.487,1.486
		c0,0.237-0.054,0.464-0.161,0.674c-0.02,0.04-0.026,0.082-0.035,0.124c-0.424-0.054-0.853-0.091-1.291-0.091
		c-0.438,0-0.867,0.037-1.29,0.091C10.21,3.384,10.205,3.342,10.185,3.302z M12.01,22.767v-1.774c0-0.276-0.224-0.5-0.5-0.5
		s-0.5,0.224-0.5,0.5v1.774c-4.715-0.255-8.492-4.056-8.707-8.782h1.759c0.276,0,0.5-0.224,0.5-0.5s-0.224-0.5-0.5-0.5H2.311
		c0.291-4.652,4.037-8.372,8.699-8.624v1.774c0,0.276,0.224,0.5,0.5,0.5s0.5-0.224,0.5-0.5V4.361
		c4.663,0.252,8.408,3.972,8.699,8.624h-1.798c-0.276,0-0.5,0.224-0.5,0.5s0.224,0.5,0.5,0.5h1.806
		C20.502,18.711,16.725,22.513,12.01,22.767z"/>
	<path d="M16.494,7.905L9.64,11.482c-0.011,0.006-0.017,0.017-0.027,0.023c-0.033,0.02-0.059,0.047-0.086,0.075
		s-0.055,0.053-0.075,0.086c-0.006,0.01-0.018,0.016-0.023,0.027L5.85,18.549c-0.101,0.193-0.064,0.431,0.09,0.585
		c0.096,0.096,0.224,0.146,0.354,0.146c0.079,0,0.158-0.019,0.231-0.057l6.855-3.577c0.011-0.006,0.017-0.017,0.027-0.024
		c0.034-0.021,0.059-0.048,0.087-0.076c0.027-0.027,0.054-0.052,0.074-0.085c0.007-0.01,0.018-0.016,0.024-0.028l3.577-6.855
		c0.101-0.194,0.064-0.431-0.09-0.585C16.926,7.84,16.688,7.804,16.494,7.905z M7.473,17.6l2.526-4.84l2.314,2.314L7.473,17.6z
		 M13.021,14.368l-2.314-2.314l4.84-2.526L13.021,14.368z"/>
</g>
</svg>
