<?xml version="1.0" encoding="utf-8"?>
<!-- Generator: Adobe Illustrator 19.2.0, SVG Export Plug-In . SVG Version: 6.00 Build 0)  -->
<svg version="1.1" id="Layer_1" xmlns="http://www.w3.org/2000/svg" xmlns:xlink="http://www.w3.org/1999/xlink" x="0px" y="0px"
	 width="24px" height="24px" viewBox="0 0 24 24" style="enable-background:new 0 0 24 24;" xml:space="preserve">
<g>
	<path d="M23.581,2.13l-6.112-1.025c-0.099-0.016-0.2-0.002-0.292,0.039l-5.69,2.614L6.721,1.568
		c-0.122-0.055-0.26-0.06-0.385-0.013L0.411,3.797c-0.195,0.074-0.323,0.26-0.323,0.468v15.229c0,0.164,0.081,0.318,0.216,0.411
		c0.085,0.059,0.184,0.089,0.284,0.089c0.06,0,0.12-0.011,0.177-0.032l5.731-2.17l4.557,2.051c0.132,0.06,0.284,0.058,0.416-0.003
		l6.112-2.837l5.806,1.336c0.151,0.036,0.305-0.002,0.424-0.096c0.119-0.096,0.188-0.239,0.188-0.392V2.623
		C23.998,2.379,23.821,2.17,23.581,2.13z M22.998,17.223l-5.36-1.233c-0.108-0.025-0.223-0.013-0.323,0.034l-6.06,2.812
		l-4.537-2.042c-0.065-0.029-0.135-0.044-0.205-0.044c-0.06,0-0.12,0.011-0.177,0.032L1.087,18.77V4.61l5.406-2.046l4.784,2.198
		c0.132,0.062,0.285,0.062,0.417,0l5.76-2.646l5.543,0.93V17.223z"/>
	<path d="M17.466,6.19l0.358,0.856l-0.856,0.358c-0.255,0.106-0.375,0.399-0.269,0.654c0.08,0.192,0.266,0.307,0.461,0.307
		c0.064,0,0.13-0.012,0.192-0.039l0.856-0.358l0.358,0.856c0.08,0.192,0.266,0.307,0.461,0.307c0.064,0,0.13-0.012,0.192-0.039
		c0.255-0.106,0.375-0.399,0.269-0.654l-0.357-0.855l0.855-0.358c0.255-0.106,0.375-0.399,0.269-0.654
		c-0.106-0.255-0.4-0.375-0.653-0.269L18.745,6.66l-0.358-0.856c-0.106-0.255-0.4-0.374-0.653-0.269
		C17.479,5.642,17.359,5.935,17.466,6.19z"/>
	<path d="M4.786,11.995c-0.246-0.126-0.547-0.028-0.673,0.216c-0.282,0.549-0.449,0.925-0.449,0.925
		c-0.112,0.252,0.001,0.548,0.254,0.66c0.066,0.029,0.135,0.043,0.203,0.043c0.191,0,0.374-0.11,0.457-0.297
		c0.002-0.006,0.16-0.36,0.424-0.874C5.128,12.423,5.031,12.121,4.786,11.995z"/>
	<path d="M11.499,11.092c-0.252-0.409-0.507-0.819-0.762-1.202c-0.154-0.229-0.463-0.292-0.694-0.138
		c-0.229,0.153-0.292,0.464-0.138,0.694c0.25,0.373,0.498,0.774,0.744,1.172l0.168,0.272c0.095,0.153,0.258,0.236,0.425,0.236
		c0.09,0,0.181-0.024,0.263-0.075c0.235-0.146,0.307-0.454,0.161-0.688L11.499,11.092z"/>
	<path d="M7.494,7.972c-0.476,0.21-0.961,0.617-1.483,1.243C5.833,9.427,5.862,9.742,6.074,9.919
		c0.094,0.078,0.207,0.116,0.32,0.116c0.144,0,0.286-0.061,0.384-0.18c0.41-0.491,0.797-0.826,1.12-0.969
		C8.151,8.775,8.265,8.48,8.153,8.227C8.042,7.974,7.744,7.859,7.494,7.972z"/>
	<path d="M14.617,13.177c-0.357,0.355-0.68,0.544-0.926,0.544c-0.027,0-0.058-0.005-0.09-0.015
		c-0.264-0.078-0.542,0.077-0.619,0.342c-0.077,0.265,0.076,0.542,0.342,0.619c0.118,0.034,0.237,0.052,0.36,0.054
		c0.53,0,1.081-0.281,1.638-0.835c0.196-0.195,0.196-0.512,0.002-0.707C15.129,12.983,14.812,12.983,14.617,13.177z"/>
	<path d="M17.495,9.293c-0.252-0.109-0.549,0.01-0.655,0.265c-0.003,0.007-0.156,0.366-0.411,0.875
		c-0.123,0.247-0.023,0.547,0.224,0.671c0.071,0.036,0.148,0.053,0.224,0.053c0.183,0,0.359-0.101,0.447-0.276
		c0.273-0.547,0.437-0.932,0.437-0.932C17.868,9.694,17.749,9.401,17.495,9.293z"/>
</g>
</svg>
