<?xml version="1.0" encoding="utf-8"?>
<!-- Generator: Adobe Illustrator 19.2.0, SVG Export Plug-In . SVG Version: 6.00 Build 0)  -->
<svg version="1.1" id="Layer_1" xmlns="http://www.w3.org/2000/svg" xmlns:xlink="http://www.w3.org/1999/xlink" x="0px" y="0px"
	 width="24px" height="24px" viewBox="0 0 24 24" style="enable-background:new 0 0 24 24;" xml:space="preserve">
<g>
	<path d="M20.278,3.624l-3.415-2.045C16.77,1.522,16.66,1.5,16.552,1.51l-4.563,0.503V0.635c0-0.276-0.224-0.5-0.5-0.5
		s-0.5,0.224-0.5,0.5v1.488L4.12,2.88C3.846,2.91,3.647,3.157,3.678,3.432l0.521,4.728C4.213,8.291,4.28,8.412,4.383,8.495
		c0.089,0.071,0.199,0.11,0.312,0.11c0.018,0,0.037-0.001,0.055-0.003l12.431-1.37c0.106-0.012,0.207-0.058,0.285-0.13l2.895-2.682
		c0.115-0.107,0.174-0.262,0.157-0.418C20.503,3.844,20.413,3.704,20.278,3.624z M16.908,6.256L5.138,7.553L4.727,3.82l11.768-1.297
		l2.698,1.616L16.908,6.256z"/>
	<path d="M18.333,8.525L5.889,9.76C5.782,9.771,5.682,9.815,5.602,9.887l-2.923,2.65c-0.117,0.106-0.177,0.26-0.162,0.417
		s0.103,0.297,0.236,0.379l3.393,2.082c0.079,0.049,0.17,0.074,0.262,0.074c0.017,0,0.033-0.001,0.049-0.003l12.447-1.235
		c0.132-0.013,0.253-0.077,0.337-0.181c0.084-0.103,0.124-0.234,0.11-0.366L18.88,8.973C18.853,8.698,18.62,8.501,18.333,8.525z
		 M6.525,14.475L3.844,12.83l2.307-2.091l11.783-1.17l0.372,3.737L6.525,14.475z"/>
	<path d="M11.488,16.176c-0.276,0-0.5,0.224-0.5,0.5v6.785c0,0.276,0.224,0.5,0.5,0.5s0.5-0.224,0.5-0.5v-6.785
		C11.988,16.399,11.765,16.176,11.488,16.176z"/>
</g>
</svg>
