<svg xmlns="http://www.w3.org/2000/svg" width="24" height="24" viewBox="0 0 24 24"><path d="M23.848 20.777c-.023-.05-.056-.093-.094-.13-2.152-2.152-7.934-4.324-8.18-4.416-.257-.096-.546.036-.643.295s.036.547.295.644c.058.02 5.712 2.144 7.763 4.126.006.01.007.013.01.01l.002.002V23h-8.4c-.276 0-.5.224-.5.5s.224.5.5.5H23c.58 0 1-.42 1-1v-1.7c0-.18-.083-.383-.152-.523zM9.4 23H1v-1.69c2.144-1.99 7.72-4.12 7.777-4.142.258-.1.388-.387.29-.646-.098-.257-.387-.384-.645-.29-.24.092-5.92 2.26-8.177 4.415C0 20.894 0 21.167 0 21.3V23c0 .58.42 1 1 1h8.4c.276 0 .5-.224.5-.5s-.224-.5-.5-.5zM6.097 9.148c.112.53.47.925.945 1.08.175 1.294.754 2.51 1.658 3.475V15.2c0 .276.224.5.5.5s.5-.224.5-.5v-1.7c0-.133-.053-.26-.146-.354C8.642 12.234 8.09 11.033 8 9.764c-.02-.26-.238-.464-.5-.464-.323 0-.407-.275-.425-.36-.017-.082-.052-.36.228-.483.235-.105.353-.37.27-.615-.18-.546-.273-1.1-.273-1.642 0-2.748 2.064-4.9 4.7-4.9 2.592 0 4.7 2.243 4.7 5 0 .542-.093 1.094-.274 1.642-.078.236.028.494.25.605.202.1.247.35.202.537-.034.144-.127.316-.378.316-.263 0-.48.203-.5.464-.09 1.268-.642 2.47-1.554 3.382-.093.095-.146.222-.146.354 0 .02.003.094.01.2.042.787.04 1.095.027 1.21-.073.18-.038.395.107.54.194.197.51.2.707.005.195-.192.234-.38.16-1.764.898-.963 1.474-2.175 1.647-3.464.443-.148.775-.514.894-1.013.125-.528-.024-1.055-.37-1.404.146-.537.22-1.077.22-1.61 0-3.31-2.557-6-5.7-6-3.196 0-5.7 2.59-5.7 5.9 0 .528.072 1.062.215 1.59-.365.33-.53.833-.418 1.358zM13.635 19.948c.99-1.74.81-2.343.75-2.542-.077-.25-.235-.44-.46-.554l-.02-.01c-2.223-.998-3.81-.006-3.918.066-.77.616-.22 1.993.378 3.04.09.156.256.25.434.25.02 0 .04 0 .06-.003.757-.094 1.522-.094 2.278 0 .197.027.396-.072.497-.247zM12 19.126c-.308 0-.615.014-.92.04-.434-.832-.522-1.37-.513-1.443.05-.03 1.194-.72 2.866.006.015.14-.058.585-.51 1.438-.307-.03-.615-.042-.923-.042zM13.4 21.1c0-.276-.225-.5-.5-.5-.276 0-.5.224-.5.5l.305 2.47c.036.25.25.43.494.43.022 0 .047-.002.07-.005.273-.04.464-.293.425-.565L13.4 21.4v-.3zM11.165 20.704c-.277-.04-.525.157-.56.432l-.3 2.3c-.037.273.156.524.43.56.022.003.044.004.065.004.248 0 .462-.184.495-.436l.3-2.3c.037-.273-.157-.524-.43-.56z"/></svg>