<svg xmlns="http://www.w3.org/2000/svg" width="24" height="24" viewBox="0 0 24 24"><path d="M11.704 15.978h6.513c.412 0 .748-.337.748-.752v-.886c0-.31-.193-.59-.48-.702-1.624-.627-2.07-.93-2.166-.987v-.025c.196-.244.354-.54.464-.87.158-.163.263-.374.294-.602.032-.23-.01-.46-.12-.662V9.85c0-1.176-.746-1.878-1.997-1.878-1.23 0-1.996.72-1.996 1.878v.644c-.11.2-.152.43-.12.66.032.23.136.44.294.603.11.33.268.626.464.87-.147.12-.63.423-2.17 1.017-.288.114-.475.39-.475.7v.886c0 .413.335.75.747.75zm.252-1.468c2.242-.877 2.522-1.244 2.624-1.57.015-.05.022-.1.022-.15v-.353c0-.13-.05-.256-.143-.35-.18-.182-.32-.442-.405-.75-.03-.11-.11-.314-.204-.38.074-.09.113-.202.113-.316V9.85c0-.377.104-.878.997-.878.884 0 .997.47.997.878v.792c0 .115.03.333.103.422-.095.066-.163.164-.194.275-.085.304-.23.57-.404.75-.09.093-.143.218-.143.35v.353c0 .05.007.1.02.15.104.326.384.692 2.625 1.57v.468h-6.01v-.468z"/><path d="M23.47 5.003H7.17c-.13 0-.256.052-.35.144l-6.63 6.52c-.096.094-.15.223-.15.357s.054.263.15.356l6.63 6.52c.094.093.22.145.35.145h16.3c.276 0 .5-.224.5-.5V5.503c0-.276-.223-.5-.5-.5zm-.5 13.042H7.376l-6.123-6.02 6.123-6.022H22.97v12.042z"/></svg>