<svg xmlns="http://www.w3.org/2000/svg" width="24" height="24" viewBox="0 0 24 24"><path d="M6.078 9.14c.115.51.46.894.91 1.045.36 2.512 2.365 5.057 5.003 5.057s4.643-2.545 5.002-5.057c.45-.15.797-.534.91-1.044.122-.536-.04-1.055-.407-1.397.132-.514.2-1.043.2-1.58 0-3.318-2.56-6.02-5.705-6.02s-5.704 2.7-5.704 6.02c0 .535.067 1.064.2 1.58-.368.34-.53.86-.408 1.397zM7.28 8.4c.227-.107.34-.366.262-.605-.17-.527-.255-1.076-.255-1.63 0-2.77 2.11-5.02 4.704-5.02s4.705 2.25 4.705 5.02c0 .556-.086 1.104-.255 1.63-.077.238.035.497.262.604.296.14.24.458.227.52-.02.08-.1.336-.393.336-.263 0-.48.202-.5.463-.158 2.14-1.86 4.522-4.046 4.522-2.187 0-3.888-2.384-4.046-4.523-.02-.263-.246-.463-.507-.463h-.013c-.274-.003-.353-.257-.37-.335-.015-.063-.07-.382.226-.522zM23.73 20.62c-1.42-1.377-7.99-4.73-8.807-4.297-1.616.866-4.248.865-5.872-.003-.875-.473-7.55 3.086-8.8 4.3-.19.185-.3.442-.3.708v1.733c0 .544.442.985.985.985h22.11c.543 0 .984-.44.984-.984V21.33c0-.267-.11-.525-.3-.708zM.95 23.06L.948 21.34c1.86-1.807 6.788-3.716 7.817-4.044 1.853.902 4.597.9 6.452.002 1.026.333 6.006 2.285 7.814 4.038l.016 1.71-22.095.017z"/></svg>