<svg xmlns="http://www.w3.org/2000/svg" width="24" height="24" viewBox="0 0 24 24"><path d="M23.156 18.544c-6.57-2.538-7.667-3.613-7.84-3.944v-.867c.733-.803 1.307-1.856 1.667-3.067.452-.375.752-.913.834-1.503.083-.6-.06-1.193-.406-1.69V5.04C17.41 1.85 15.44.02 12 .02c-3.39 0-5.414 1.876-5.414 5.02v2.435C6.242 7.97 6.1 8.56 6.18 9.16c.083.59.383 1.13.834 1.505.36 1.21.935 2.264 1.668 3.067v.867c-.172.33-1.27 1.402-7.84 3.943-.512.2-.843.687-.843 1.24v2.903c0 .73.59 1.327 1.314 1.327h21.37c.727 0 1.316-.596 1.316-1.327v-2.904c0-.545-.34-1.043-.844-1.238zM23 22.687c0 .18-.142.327-.315.327H1.315c-.175 0-.316-.146-.316-.327v-2.904c0-.136.082-.26.204-.307C8.23 16.76 9.42 15.61 9.66 14.844c.015-.048.022-.098.022-.148v-1.16c0-.132-.05-.257-.143-.35-.72-.736-1.276-1.756-1.61-2.952-.03-.11-.1-.208-.193-.274-.307-.216-.513-.557-.565-.936-.053-.384.055-.763.303-1.068.072-.09.112-.2.112-.315v-2.6c0-2.593 1.567-4.02 4.414-4.02 2.887 0 4.412 1.39 4.412 4.02v2.6c0 .115.04.227.112.315.25.306.356.686.304 1.07-.053.378-.26.72-.565.934-.095.065-.163.163-.194.273-.335 1.195-.892 2.216-1.61 2.95-.09.093-.142.22-.142.35v1.16c0 .052.008.102.022.15.24.767 1.432 1.918 8.456 4.632.122.048.204.172.204.308v2.904z"/></svg>