<svg xmlns="http://www.w3.org/2000/svg" width="24" height="24" viewBox="0 0 24 24"><path d="M22.92 11.993c-.673-.673-1.567-1.044-2.52-1.044s-1.847.37-2.52 1.042c-.897.898-1.243 2.214-.922 3.43L10.95 21.43c-.143.143-.186.36-.106.547l.45 1.066c.08.186.26.306.46.306h.02l1.767-.066c.22-.01.41-.16.466-.37l.32-1.208 1.42-.278c.21-.04.37-.21.4-.42l.247-1.763 1.26.03c.134.006.27-.05.364-.146l1.243-1.244c1.27.426 2.702.104 3.658-.854 1.39-1.39 1.39-3.65.002-5.04zm-.707 4.332c-.747.746-1.9.957-2.867.52-.19-.084-.413-.045-.56.103l-1.323 1.323-1.49-.035c-.248.015-.472.18-.507.43l-.26 1.852-1.376.27c-.188.036-.338.177-.388.36l-.307 1.152-1.053.038-.186-.438 5.982-5.98c.138-.14.183-.344.116-.526-.342-.934-.11-1.99.592-2.69.484-.485 1.128-.75 1.812-.75s1.328.266 1.812.75c1.002.996 1.002 2.622.003 3.62zM11.002 19.478c0-.276-.224-.5-.5-.5h-9.27c-.097 0-.176-.08-.176-.18v-2.394c0-.075.046-.143.114-.17 5.862-2.25 6.86-3.22 7.065-3.87.015-.048.023-.1.023-.15v-.956c0-.13-.052-.257-.144-.35-.586-.596-1.04-1.423-1.313-2.392-.03-.11-.1-.208-.194-.274-.233-.164-.39-.422-.43-.71-.04-.29.04-.578.23-.81.074-.088.115-.2.115-.316V4.264c0-2.08 1.27-3.224 3.576-3.224 2.372 0 3.574 1.084 3.574 3.224v2.14c0 .116.04.228.113.317.19.234.272.522.232.813-.04.287-.197.545-.433.71-.095.065-.164.162-.195.273-.273.97-.727 1.797-1.312 2.392-.092.093-.144.22-.144.35v.958c0 .05.01.102.024.15.23.728 2.505 2.127 3.097 2.438.243.128.548.036.676-.21.13-.244.035-.547-.21-.675-.98-.516-2.345-1.52-2.584-1.822v-.64c.6-.662 1.07-1.523 1.372-2.51.38-.32.633-.777.702-1.276.07-.508-.05-1.01-.336-1.432V4.264C14.67 1.58 13.003.04 10.096.04 7.23.04 5.52 1.62 5.52 4.264V6.24c-.287.422-.405.922-.335 1.43.07.5.32.956.7 1.278.3.986.772 1.847 1.374 2.51v.657c-.157.27-1.096 1.132-6.447 3.188-.452.174-.756.616-.756 1.103V18.8c0 .65.527 1.18 1.176 1.18h9.27c.276-.002.5-.225.5-.502z"/><path d="M20.45 13.75c-.09.09-.14.22-.14.35 0 .13.05.26.15.35.09.1.22.15.35.15s.26-.05.36-.15c.09-.09.14-.22.14-.35 0-.13-.05-.25-.15-.36-.19-.18-.5-.19-.71.01z"/></svg>