<svg xmlns="http://www.w3.org/2000/svg" width="24" height="24" viewBox="0 0 24 24"><path d="M15.5 19.672c-1.62-.634-2.062-.938-2.156-.996v-.032c.197-.246.354-.545.463-.88.157-.162.26-.374.293-.602.03-.232-.01-.462-.12-.663v-.652c0-1.182-.744-1.888-1.99-1.888-1.228 0-1.99.724-1.99 1.888v.65c-.11.202-.15.43-.12.663.03.23.135.44.292.604.11.334.267.634.464.88v.005c-.145.117-.622.42-2.155 1.022-.285.11-.477.394-.477.703v.892c0 .416.335.754.747.754h6.48c.413 0 .748-.337.748-.753v-.892c0-.31-.193-.593-.48-.703zm-.522 1.348H9.002v-.48c2.02-.8 2.49-1.188 2.61-1.58.016-.048.023-.098.023-.147v-.356c0-.13-.05-.255-.14-.348-.177-.183-.32-.45-.404-.758-.03-.11-.108-.325-.2-.392.07-.09.11-.2.11-.314v-.8c0-.604.314-.887.99-.887.685 0 .99.272.99.887v.8c0 .113.028.34.1.43-.094.066-.162.163-.192.274-.084.308-.228.577-.403.758-.09.094-.14.218-.14.348v.356c0 .05.007.1.022.146.12.394.592.782 2.61 1.582v.48zM23.5 8.67c-1.62-.634-2.06-.938-2.155-.996v-.032c.197-.247.354-.545.463-.88.156-.16.26-.37.292-.598.032-.233-.01-.463-.12-.666v-.65c0-1.183-.743-1.89-1.99-1.89-1.227 0-1.99.725-1.99 1.89v.65c-.11.202-.15.432-.12.664.033.228.137.438.292.6.11.334.267.633.464.88v.005c-.145.118-.62.422-2.156 1.024-.285.113-.477.395-.477.703v.892c0 .416.335.754.747.754h6.48c.413 0 .748-.34.748-.755v-.897c-.002-.312-.19-.586-.478-.698zm-.52 1.35h-5.977v-.48c2.02-.802 2.49-1.19 2.61-1.582.015-.048.022-.097.022-.147v-.355c0-.13-.05-.254-.14-.347-.177-.183-.32-.452-.403-.757-.03-.11-.108-.325-.202-.392.07-.09.11-.2.11-.313v-.798c0-.606.314-.888.99-.888.685 0 .99.273.99.887v.798c0 .113.03.34.1.43-.094.067-.16.164-.192.275-.084.306-.227.575-.403.757-.09.093-.14.218-.14.347v.356c0 .05.008.1.022.147.12.393.592.78 2.61 1.582v.48zM7.5 8.67c-1.62-.634-2.062-.938-2.156-.996v-.032c.196-.246.354-.545.463-.88.157-.16.26-.373.292-.6.03-.232-.01-.462-.12-.665v-.65c0-1.182-.745-1.888-1.99-1.888C2.76 2.96 2 3.68 2 4.846v.65c-.11.202-.152.43-.12.664.032.23.135.44.292.602.11.334.266.633.463.88v.005c-.145.118-.622.423-2.157 1.024-.285.113-.477.395-.477.703v.892c0 .416.336.754.75.754h6.48c.412 0 .747-.34.747-.755v-.892c0-.31-.192-.592-.478-.703zm-.523 1.35H1v-.48c2.02-.8 2.492-1.19 2.613-1.582.014-.048.022-.097.022-.147v-.355c0-.13-.05-.254-.14-.347-.176-.182-.32-.452-.404-.758-.03-.11-.107-.325-.2-.392.07-.09.11-.2.11-.313v-.798c0-.606.314-.888.99-.888.685 0 .99.273.99.887v.798c0 .114.03.342.1.43-.094.067-.162.164-.193.275-.085.307-.228.576-.403.758-.09.093-.14.218-.14.347v.356c0 .05.007.1.022.148.12.393.592.782 2.61 1.582v.48zM8.02 4.036c2.48-1.442 5.704-1.443 8.186 0 .08.046.165.068.25.068.173 0 .34-.09.434-.25.14-.238.058-.544-.182-.683-2.785-1.62-6.405-1.62-9.19 0-.24.14-.32.446-.18.685.138.24.443.32.683.18zM20.763 11.574c-.27-.032-.522.165-.554.44-.272 2.39-1.586 4.526-3.605 5.863-.146.097-.224.256-.224.417 0 .096.028.19.084.276.097.146.256.224.417.224.097 0 .192-.027.277-.083 2.265-1.5 3.74-3.9 4.045-6.582l.003-.058c0-.25-.187-.467-.442-.496zM4.017 12.014c-.03-.274-.268-.48-.553-.44-.255.03-.443.245-.443.496 0 .02.002.038.004.058.305 2.683 1.78 5.083 4.044 6.583.085.057.18.084.276.084.162 0 .32-.078.417-.224.057-.085.084-.18.084-.275 0-.162-.08-.32-.224-.418-2.017-1.337-3.33-3.475-3.603-5.863z"/></svg>