<svg xmlns="http://www.w3.org/2000/svg" width="24" height="24" viewBox="0 0 24 24"><path d="M20.4 7.6c.772-1.03 1.717-2.462 1-3-.092-.068-.197-.098-.315-.1-.02 0-3.146.054-5.756-2.276C13.09.264 12.355.098 12.1.097c-.278.003-.99.167-3.22 2.12C6.065 4.56 2.93 4.6 2.9 4.6c-.1 0-.196.03-.278.084-.114.076-.213.244-.236.38-.054.315.06.864 1.306 2.524C4.427 8.63 4.8 9.576 4.8 10.5c0 .156.038.316.094.477-.19.62-.294 1.328-.294 2.123 0 .777.09 1.414.292 2.01-.373.325-.592.79-.592 1.29 0 .81.51 1.455 1.246 1.644C6.033 21.257 9.688 23.8 12 23.8c2.575 0 5.985-2.664 6.454-5.756.734-.188 1.246-.833 1.246-1.644 0-.513-.23-.988-.62-1.314.17-.613.32-1.255.32-1.986 0-.763-.112-1.5-.32-2.135.073-.19.12-.38.12-.565 0-.183.06-1.183 1.2-2.8zM4.5 7c-.534-.712-.814-1.166-.962-1.443 1.146-.127 3.643-.624 5.99-2.58 1.78-1.558 2.434-1.83 2.572-1.873.138.043.792.315 2.567 1.87 2.25 2.008 4.784 2.424 5.888 2.507-.116.273-.377.75-.963 1.532-.758 1.073-1.104 1.925-1.262 2.55-5.695-1.792-10.936-.53-12.63-.018C5.53 8.747 5.134 7.897 4.5 7zm7.5 6.2c-3.347 0-5.93-1.626-6.176-2.646 1.385-.428 6.732-1.816 12.363.01-.132.82-2.76 2.636-6.187 2.636zm-5.125-.267l-.185 1.91c-.25-.11-.546-.162-.87-.127-.15-.472-.22-.986-.22-1.616 0-.364.023-.706.068-1.025.325.303.734.593 1.207.858zM18 17.1c-.264 0-.482.205-.5.468-.183 2.837-3.508 5.232-5.5 5.232-1.945 0-5.32-2.445-5.5-5.23-.018-.265-.236-.47-.5-.47-.425 0-.7-.274-.7-.7 0-.27.154-.508.408-.643.566-.21.915.232.976.32.094.142.252.223.416.223.04 0 .08-.005.122-.015.205-.052.356-.227.376-.438l.238-2.456c1.188.49 2.63.81 4.164.81 1.56 0 3.043-.35 4.258-.877l.244 2.525c.02.21.17.386.376.438.04.01.082.014.122.014.164 0 .322-.08.416-.223.014-.02.314-.448.82-.36.014.01.025.022.04.03.266.133.424.377.424.653 0 .426-.274.7-.7.7zm.4-4c0 .567-.112 1.084-.254 1.606-.272-.008-.52.043-.737.138l-.195-2.007c.42-.25.792-.517 1.092-.8.058.34.093.694.093 1.063z"/><path d="M11.75 7.977c.05.015.1.023.15.023s.1-.008.15-.023C12.723 7.767 14 6.957 14 5.4V4.3c0-.154-.07-.3-.192-.394s-.278-.13-.43-.09c-.14.028-.513-.098-.836-.467-.195-.398-.923-.38-1.097.027-.306.406-.806.526-.922.475-.154-.077-.34-.07-.486.022-.147.092-.237.253-.237.426v1.1c0 1.556 1.276 2.366 1.95 2.577zm-.95-3.133c.42-.057.868-.277 1.214-.61.303.276.65.464.986.544V5.4c0 .96-.767 1.413-1.1 1.562-.33-.15-1.1-.602-1.1-1.562v-.556zM12.7 19h-1.4c-.276 0-.5.224-.5.5s.224.5.5.5h1.4c.276 0 .5-.224.5-.5s-.223-.5-.5-.5zM14.1 16H14c-.276 0-.45.224-.45.5s.273.5.55.5.5-.224.5-.5-.224-.5-.5-.5zM10 16h-.1c-.276 0-.5.224-.5.5s.224.5.5.5h.1c.276 0 .5-.224.5-.5s-.224-.5-.5-.5z"/></svg>