<svg xmlns="http://www.w3.org/2000/svg" width="24" height="24" viewBox="0 0 24 24"><path d="M19.21 21.174c-5.335-2.143-6.25-3.04-6.4-3.318v-.707c.6-.69 1.067-1.585 1.364-2.61.372-.328.62-.792.69-1.3.074-.524-.043-1.044-.33-1.48V9.694c0-2.774-1.655-4.365-4.54-4.365-2.845 0-4.543 1.632-4.543 4.365v2.063c-.286.437-.403.955-.33 1.48.07.506.32.97.69 1.3.297 1.025.766 1.92 1.365 2.61v.706c-.148.28-1.064 1.174-6.398 3.318-.453.182-.745.623-.745 1.124v1.046c0 .276.224.5.5.5s.5-.224.5-.5v-1.046c0-.088.05-.168.118-.196 5.813-2.337 6.803-3.338 7.004-4.01.014-.046.02-.094.02-.143v-.993c0-.127-.048-.25-.135-.343-.585-.62-1.037-1.48-1.31-2.492-.03-.11-.095-.206-.187-.273-.234-.17-.392-.443-.434-.746-.045-.315.04-.626.233-.875.07-.088.106-.196.106-.308V9.695c0-2.17 1.257-3.365 3.54-3.365 2.35 0 3.542 1.132 3.542 3.365v2.223c0 .11.037.22.106.308.195.25.278.562.234.876-.042.302-.2.574-.435.745-.092.067-.158.164-.188.274-.273 1.012-.725 1.873-1.308 2.493-.087.093-.136.216-.136.343v.993c0 .048.007.096.02.143.203.673 1.193 1.675 7.007 4.01.068.026.116.107.116.195v1.046c0 .276.223.5.5.5s.5-.224.5-.5v-1.046c.003-.495-.297-.947-.74-1.124zM23.004 5h-7c-.276 0-.5.224-.5.5s.224.5.5.5h7c.276 0 .5-.224.5-.5s-.224-.5-.5-.5z"/></svg>