<svg xmlns="http://www.w3.org/2000/svg" width="24" height="24" viewBox="0 0 24 24"><path d="M23.52 5h-8.986l.296-2.51c.047-.385-.074-.773-.33-1.064h-.002c-.258-.29-.628-.458-1.015-.458h-2.55c-.387 0-.757.167-1.015.458-.256.29-.377.678-.332 1.063L9.88 5H.564c-.276 0-.5.223-.5.5v15.98c0 .277.224.5.5.5H23.52c.275 0 .5-.223.5-.5V5.5c0-.278-.225-.5-.5-.5zM10.666 2.087c.068-.077.165-.12.266-.12h2.55c.1 0 .197.043.265.12.068.078.1.18.09.284l-.51 4.318c-.022.18-.174.318-.355.318H11.44c-.18 0-.332-.137-.353-.318l-.507-4.318c-.013-.103.02-.207.087-.284zM23.02 20.98H1.062V6H10l.095.807c.08.685.66 1.202 1.347 1.202h1.532c.688 0 1.267-.518 1.347-1.202L14.417 6h8.603v14.98z"/><path d="M12.395 16.243c-2.198-.85-2.723-1.24-2.83-1.33v-.127c.26-.31.466-.695.605-1.128.192-.188.32-.438.358-.71.038-.274-.016-.547-.154-.783v-.85c0-1.406-.896-2.246-2.397-2.246-1.48 0-2.397.86-2.397 2.245v.85c-.137.237-.19.51-.153.784.038.27.165.52.357.708.14.434.346.818.605 1.13v.106c-.148.138-.712.53-2.83 1.35-.314.12-.524.428-.524.765v1.12c0 .453.365.82.814.82h8.254c.45 0 .814-.367.814-.82v-1.12c0-.34-.21-.647-.523-.767zm-.477 1.706H4.035v-.82c2.86-1.113 3.216-1.568 3.33-1.938.016-.048.023-.098.023-.148v-.448c0-.13-.05-.256-.143-.35-.242-.247-.43-.596-.545-1.008-.03-.11-.1-.208-.193-.274-.05-.035-.083-.09-.09-.152-.007-.044-.003-.11.05-.177.072-.09.112-.2.112-.315v-1.004c0-.827.47-1.246 1.396-1.246.953 0 1.397.396 1.397 1.246v1.004c0 .115.04.227.112.315.054.066.058.133.05.178-.008.062-.04.117-.09.15-.094.067-.162.164-.193.275-.115.412-.304.76-.545 1.008-.09.094-.143.22-.143.35v.448c0 .05.008.1.023.15.116.37.47.823 3.33 1.937v.82zM20.477 14.99h-5.962c-.276 0-.5.223-.5.5s.224.5.5.5h5.962c.276 0 .5-.225.5-.5s-.224-.5-.5-.5zM14.015 12.49c0 .275.224.5.5.5h5.962c.276 0 .5-.225.5-.5s-.224-.5-.5-.5h-5.962c-.277 0-.5.223-.5.5z"/></svg>