<svg xmlns="http://www.w3.org/2000/svg" width="24" height="24" viewBox="0 0 24 24"><path d="M15.89 9.302c-.112-.09-.26-.126-.398-.102-.14.024-.265.108-.34.23-1.42 2.303-3.728 3.678-6.177 3.678-.937 0-1.863-.202-2.75-.6-.128-.057-.275-.058-.404-.003-.128.056-.228.163-.273.295-.312.9-.47 1.842-.47 2.796 0 4.38 3.203 8.22 6.854 8.22s6.855-3.84 6.855-8.22c0-2.493-1.083-4.846-2.895-6.294zm-3.96 13.514c-3.12 0-5.854-3.374-5.854-7.22 0-.665.087-1.324.26-1.963.857.315 1.743.475 2.64.475 2.617 0 5.084-1.358 6.705-3.662 1.327 1.273 2.105 3.157 2.105 5.15 0 3.846-2.736 7.22-5.855 7.22z"/><path d="M17.46 5.107c.485-1.49.486-1.658.486-1.724 0-1.75-2.643-3.12-6.016-3.12s-6.016 1.37-6.016 3.12c0 .067 0 .24.503 1.772C-.225 9.26 2.423 19.37 2.54 19.805c.044.16.162.287.317.342l2.667.94c.055.02.11.03.167.03.207 0 .4-.13.473-.335.092-.26-.045-.546-.305-.638l-2.412-.852C3.093 17.76 1.53 9.624 6.75 6.15c.094.278.196.58.313.92.56 1.352 2.622 1.464 4.866 1.464 2.595 0 4.336-.103 4.876-1.494l.322-.944c5.394 3.412 3.765 11.658 3.402 13.197l-2.413.852c-.26.092-.397.378-.306.638.073.206.267.334.473.334.056 0 .11-.01.166-.028l2.666-.942c.154-.055.27-.18.315-.338.033-.108 2.87-10.655-3.97-14.703zm-5.53 2.427c-1.865 0-3.633-.103-3.932-.82-.505-1.466-1.05-3.128-1.084-3.332 0-1.003 2.06-2.12 5.016-2.12 2.932 0 4.982 1.1 5.016 2.095-.034.182-.253.876-.53 1.714-.004.01-.01.013-.015.02-.032.064-.05.13-.054.197-.152.456-.315.942-.476 1.408-.304.778-1.893.84-3.94.84z"/><path d="M13.5 4h-1V3c0-.276-.223-.5-.5-.5s-.5.224-.5.5v1h-1c-.276 0-.5.224-.5.5s.224.5.5.5h1v1c0 .276.224.5.5.5s.5-.224.5-.5V5h1c.276 0 .5-.224.5-.5s-.223-.5-.5-.5zM13.026 18.837c-.336.336-.69.506-1.05.506h-.002c-.63 0-1.134-.498-1.14-.503-.19-.197-.507-.2-.704-.008-.198.193-.202.51-.01.707.033.032.79.797 1.84.803h.015c.636 0 1.228-.27 1.758-.8.195-.194.195-.51 0-.706s-.51-.196-.707 0zM11 15.495c0-.276-.224-.5-.5-.5h-.988c-.276 0-.5.224-.5.5s.224.5.5.5h.988c.277 0 .5-.224.5-.5zM14.512 14.995h-.99c-.275 0-.5.224-.5.5s.225.5.5.5h.99c.276 0 .5-.224.5-.5s-.224-.5-.5-.5z"/></svg>