<svg xmlns="http://www.w3.org/2000/svg" width="24" height="24" viewBox="0 0 24 24"><path d="M20.258 12.175c.58-.194 1.942-.647 1.942-2.075 0-1.038-.717-1.878-1.693-2.062-.73-2.92-2.87-5.197-5.674-6.05C14.44.85 13.353 0 12.1 0h-.2c-1.253 0-2.338.848-2.732 1.987-2.86.84-5.04 3.12-5.775 6.05C2.417 8.222 1.7 9.062 1.7 10.1c0 1.428 1.36 1.88 1.932 2.07.026.01.05.017.077.026.018.705.104 1.292.286 1.88-.43.334-.696.86-.696 1.424 0 .82.584 1.535 1.35 1.74.58 3.655 4.696 6.56 7.25 6.56 2.848 0 6.694-3.043 7.25-6.56.768-.205 1.352-.92 1.352-1.74 0-.562-.267-1.09-.695-1.423.18-.578.264-1.155.286-1.842l.165-.06zM10 2.9c0-1.03.87-1.9 1.9-1.9h.2c1.03 0 1.9.87 1.9 1.9v2.2c0 1.03-.87 1.9-1.9 1.9h-.2C10.87 7 10 6.13 10 5.1V2.9zm-7.3 7.2c0-.627.473-1.1 1.1-1.1.237 0 .44-.167.49-.398C4.823 6.022 6.606 3.976 9 3.1v2C9 6.672 10.328 8 11.9 8h.2C13.672 8 15 6.672 15 5.1V3.106c2.336.887 4.08 2.93 4.61 5.495.048.233.252.4.49.4.627 0 1.1.473 1.1 1.1 0 .436-.21.777-1.276 1.132-.078.03-7.837 2.896-15.965-.007-1.05-.348-1.26-.69-1.26-1.125zm3.47 2.81l-.084.926c-.323-.15-.716-.228-1.155-.135-.11-.373-.178-.745-.208-1.17.486.145.968.268 1.448.38zM18.7 16.3c-.26 0-.476.198-.498.457-.286 3.336-4.017 6.043-6.302 6.043-2.23 0-6.02-2.766-6.302-6.043-.022-.26-.238-.457-.498-.457-.426 0-.8-.374-.8-.8 0-.298.178-.576.435-.706.058-.004.116-.014.172-.04.673-.308 1.105.226 1.183.332.096.136.25.214.41.214.043 0 .086-.006.128-.017.203-.054.35-.23.37-.438l.157-1.728c1.626.305 3.19.428 4.634.428 1.943 0 3.667-.214 5.048-.473L17 14.945c.02.21.166.386.37.44.042.01.086.017.13.017.16 0 .313-.077.408-.213.02-.027.47-.657 1.184-.333.038.017.078.02.118.027.177.147.29.376.29.616 0 .426-.374.8-.8.8zm.145-2.522c-.346-.03-.662.032-.927.156l-.093-1.066c.483-.11.902-.218 1.25-.317-.032.446-.11.835-.23 1.228z"/><path d="M13 19h-2c-.276 0-.5.224-.5.5s.224.5.5.5h2c.276 0 .5-.224.5-.5s-.224-.5-.5-.5zM10.1 15H10c-.276 0-.5.224-.5.5s.224.5.5.5h.1c.276 0 .5-.224.5-.5s-.224-.5-.5-.5zM14 15h-.1c-.276 0-.45.224-.45.5s.274.5.55.5.5-.224.5-.5-.224-.5-.5-.5z"/></svg>