<svg xmlns="http://www.w3.org/2000/svg" width="24" height="24" viewBox="0 0 24 24"><path d="M23.164 18.594c-1.72-.658-3.53-1.003-4.984-1.28-1.054-.2-2.62-.497-2.847-.797V15.47c3.466-.11 4.91-1.245 4.974-1.296.13-.104.198-.265.185-.43-.014-.166-.108-.313-.253-.395-.903-.51-1.583-4.124-1.776-6.488C18.464 3.645 16 .174 12.02.174c-3.554 0-6.445 3-6.444 6.648-.194 2.404-.874 6.02-1.777 6.527-.146.08-.24.228-.254.393-.015.166.054.327.183.432.06.05 1.508 1.185 4.974 1.294v1.047c-.226.298-1.79.596-2.843.796-1.454.277-3.265.622-4.987 1.28-.513.198-.845.68-.845 1.23v2.874c0 .727.59 1.317 1.314 1.317h21.353c.725 0 1.314-.59 1.314-1.317v-2.873c0-.543-.34-1.037-.846-1.23zm-.155 4.103c0 .175-.142.317-.315.317H1.342c-.173 0-.314-.143-.314-.317v-2.873c0-.133.08-.25.203-.297 1.64-.627 3.402-.963 4.818-1.232 2.02-.385 3.355-.64 3.633-1.52.016-.05.024-.1.024-.15v-1.647c0-.275-.223-.5-.5-.5-2.277-.007-3.663-.478-4.34-.797 1.232-1.664 1.633-5.86 1.71-6.818 0-3.137 2.44-5.688 5.443-5.688 3.363 0 5.445 2.953 5.447 5.73.074.924.476 5.114 1.707 6.778-.677.32-2.062.79-4.34.796-.275 0-.498.225-.498.5v1.646c0 .05.008.102.023.15.277.884 1.614 1.138 3.637 1.522 1.415.27 3.176.604 4.813 1.23.12.047.202.166.202.297v2.874z"/></svg>