<svg xmlns="http://www.w3.org/2000/svg" width="24" height="24" viewBox="0 0 24 24"><path d="M12.014.013C5.41.013.038 5.383.038 11.985v11.477c0 .276.224.5.5.5h11.476c6.602 0 11.973-5.373 11.973-11.977 0-6.6-5.37-11.972-11.973-11.972zm0 22.95H1.038V11.984c0-6.05 4.924-10.972 10.976-10.972 6.05 0 10.973 4.922 10.973 10.972 0 6.053-4.923 10.977-10.973 10.977z"/><path d="M16.485 14.854c-2.86-1.104-3.467-1.598-3.584-1.72v-.24c.33-.386.592-.87.766-1.42.23-.216.385-.51.43-.83.045-.325-.022-.646-.19-.922V8.636c0-1.668-1.066-2.664-2.852-2.664-1.76 0-2.85 1.02-2.85 2.664v1.087c-.17.275-.237.596-.192.92.044.32.197.614.43.83.172.55.434 1.036.764 1.42v.23c-.154.17-.81.658-3.585 1.732-.34.132-.57.468-.57.835v1.39c0 .495.4.897.89.897h10.227c.49 0 .89-.4.89-.896v-1.39c0-.37-.23-.704-.572-.836zm-.428 2.122H6.05V15.76c3.566-1.384 4.003-1.94 4.132-2.355.015-.05.022-.1.022-.15V12.7c0-.13-.05-.256-.143-.35-.312-.32-.556-.77-.704-1.3-.03-.11-.1-.207-.193-.273-.088-.062-.147-.16-.163-.27-.01-.08-.004-.197.09-.312.072-.09.11-.2.11-.315V8.636c0-1.104.624-1.664 1.852-1.664 1.245 0 1.85.544 1.85 1.664V9.88c0 .115.04.226.113.315.093.115.1.233.09.312-.017.11-.075.208-.163.27-.095.066-.163.163-.194.274-.148.53-.393.98-.706 1.3-.09.094-.142.22-.142.35v.556c0 .05.008.1.023.15.13.414.567.973 4.132 2.354v1.216z"/></svg>