<svg xmlns="http://www.w3.org/2000/svg" width="24" height="24" viewBox="0 0 24 24"><path d="M21.31 17.262c.35-.896.322-1.78-.07-2.428-.25-.406-.63-.677-1.06-.785-.142-.238-.333-.445-.57-.597-.055-.493.08-1.576.172-2.322.072-.585.134-1.09.14-1.432V9.65c0-.026-.01-.05-.014-.074-.004-.026 0-.052-.01-.077 0-.007-.007-.012-.01-.02-.013-.034-.033-.063-.053-.094-.016-.024-.028-.05-.048-.07-.022-.025-.05-.043-.077-.062-.026-.02-.05-.04-.077-.052-.025-.012-.053-.016-.08-.024-.037-.01-.072-.02-.11-.022-.007 0-.013-.004-.02-.004-.026 0-.047.01-.072.014-.026.004-.052 0-.08.01-1.086.35-3.054-1.628-4.038-2.953-.11-.15-.297-.223-.478-.196-.184.028-.336.155-.396.33C13.91 7.653 8.294 8.91 4.45 9.39c-.024.002-.042.015-.065.02-.033.01-.065.018-.095.033-.028.014-.052.033-.077.052-.026.02-.05.04-.073.063-.02.024-.036.05-.052.077-.016.028-.032.055-.043.086-.01.032-.015.064-.02.098-.003.023-.013.043-.013.067 0 .298.044.744.094 1.24.077.76.18 1.774.093 2.327-.52.33-.845.906-.845 1.533 0 .85.585 1.563 1.388 1.76.557 3.596 4.62 6.45 7.16 6.45 1.978 0 4.426-1.466 5.904-3.53 1.68-.296 2.933-.945 3.502-2.403zm-.933-.363c-.312.797-.92 1.28-1.866 1.575.264-.554.458-1.132.55-1.726.675-.164 1.18-.713 1.325-1.393.23.38.227.94-.008 1.542zm-8.475 5.294c-2.216 0-5.957-2.716-6.21-5.934-.02-.26-.26-.46-.52-.46-.45 0-.816-.366-.816-.815 0-.32.19-.613.483-.745.13-.058.228-.17.27-.305.218-.68.097-1.866-.01-2.912-.025-.257-.047-.49-.064-.702 2.092-.282 8.023-1.22 9.814-2.968.787.95 2.483 2.75 4.034 2.853-.025.24-.06.517-.094.804-.172 1.382-.278 2.4-.093 2.938.046.13.143.236.27.292.293.132.483.424.483.745 0 .45-.365.814-.837.814-.22-.007-.48.2-.5.46-.07.887-.397 1.726-.873 2.482-.803.107-1.767.154-2.908.167-.21-.402-.65-.685-1.166-.685h-.332c-.717 0-1.3.534-1.3 1.19s.583 1.193 1.3 1.193h.332c.524 0 .97-.29 1.177-.7.72-.006 1.408-.024 2.05-.07-1.33 1.43-3.155 2.356-4.49 2.356zm1.263-2.585h-.332c-.172 0-.3-.103-.3-.193s.128-.19.3-.19h.332c.172 0 .3.1.3.19s-.128.192-.3.192z"/><path d="M10.8 18.917h-.675c-.276 0-.5.224-.5.5s.224.5.5.5h.676c.277 0 .5-.224.5-.5s-.222-.5-.5-.5z"/><path d="M22.367 7.96C20.08.835 14.764 1.047 13.913 1.134 13.196.96 8.845.035 5.266 2.313 2.98 3.766 1.518 6.208.923 9.57c-1.158 6.543-1.07 9.66.317 11.124 1.106 1.168 2.934 1.124 4.745.902.274-.033.47-.282.436-.557-.032-.275-.28-.475-.556-.437-2.12.258-3.25.085-3.897-.598-1.107-1.168-1.125-4.237-.06-10.26.544-3.07 1.853-5.287 3.89-6.585 3.453-2.2 7.91-1.048 7.954-1.037.068.018.142.02.21.01.216-.035 5.25-.74 7.455 6.134 1.78 5.542 1.946 9.433.484 11.25-.787.977-2.106 1.388-3.913 1.21-.267-.014-.52.176-.546.45-.025.276.177.52.45.547.305.028.598.043.88.043 1.728 0 3.04-.544 3.908-1.623 1.707-2.122 1.602-6.22-.31-12.183z"/><path d="M10.49 13.573c0-.276-.225-.5-.5-.5h-.962c-.276 0-.5.224-.5.5s.224.5.5.5h.96c.278 0 .5-.224.5-.5zM14.012 14.073h.96c.277 0 .5-.224.5-.5s-.223-.5-.5-.5h-.96c-.276 0-.5.224-.5.5s.223.5.5.5z"/></svg>