<svg xmlns="http://www.w3.org/2000/svg" width="24" height="24" viewBox="0 0 24 24"><path d="M23.83 12.02C23.83 5.495 18.522.187 12 .187 5.474.188.166 5.496.166 12.018c0 6.525 5.308 11.833 11.832 11.833 2.987 0 5.71-1.12 7.796-2.955.02-.012.032-.03.05-.046 2.438-2.17 3.984-5.32 3.984-8.83zm-22.663 0C1.167 6.046 6.027 1.187 12 1.187s10.83 4.86 10.83 10.83c0 3.097-1.313 5.887-3.403 7.863-3.676-1.555-4.346-2.27-4.463-2.454v-.69c.62-.688 1.107-1.584 1.416-2.61.39-.33.65-.8.722-1.316.072-.523-.05-1.04-.347-1.476v-2.06c0-2.775-1.713-4.366-4.7-4.366-2.944 0-4.702 1.632-4.702 4.366v2.06c-.295.434-.418.95-.345 1.475.07.514.33.984.72 1.315.31 1.026.795 1.922 1.417 2.61v.695c-.12.207-.8.914-4.547 2.476-2.105-1.977-3.43-4.777-3.43-7.887zm4.29 8.61c3.786-1.617 4.495-2.4 4.666-2.952.015-.048.022-.098.022-.148v-.993c0-.13-.05-.256-.143-.35-.606-.62-1.076-1.48-1.358-2.492-.03-.11-.1-.208-.193-.274-.245-.17-.41-.445-.452-.75-.042-.307.044-.61.243-.857.073-.09.113-.2.113-.315V9.274c0-2.17 1.314-3.366 3.702-3.366 2.42 0 3.7 1.164 3.7 3.366v2.223c0 .115.04.226.112.315.2.246.286.55.243.858-.042.304-.207.578-.453.75-.094.066-.162.163-.193.274-.282 1.01-.752 1.87-1.357 2.49-.092.095-.143.22-.143.35v.994c0 .05.008.1.022.148.103.33.344 1.085 4.59 2.927-1.827 1.402-4.103 2.245-6.578 2.245-2.458.002-4.722-.83-6.542-2.218z"/></svg>