<svg xmlns="http://www.w3.org/2000/svg" width="24" height="24" viewBox="0 0 24 24"><path d="M12 .188C5.476.188.168 5.496.168 12.018c0 6.525 5.308 11.833 11.832 11.833s11.832-5.307 11.832-11.83C23.832 5.495 18.522.187 12 .187zm0 1c5.972 0 10.832 4.86 10.832 10.83 0 2.922-1.167 5.57-3.053 7.52-1.013-.3-2.003-.503-2.88-.672-.828-.16-1.95-.375-2.17-.578v-.703c2.706-.108 3.85-1.014 3.898-1.055.128-.104.196-.265.183-.43-.013-.164-.106-.312-.25-.393-.61-.347-1.18-2.94-1.354-5.103 0-2.62-1.99-5.45-5.206-5.45-2.87 0-5.206 2.445-5.204 5.41-.176 2.203-.744 4.795-1.355 5.143-.143.08-.236.23-.25.393-.014.165.054.325.183.43.05.04 1.193.945 3.9 1.055v.694c-.243.215-1.35.427-2.167.585-.88.168-1.87.372-2.883.673-1.886-1.95-3.053-4.6-3.053-7.52C1.168 6.048 6.027 1.188 12 1.188zM5.08 20.344c.77-.2 1.527-.365 2.213-.497 1.637-.314 2.718-.522 2.956-1.286.014-.047.02-.097.02-.147v-1.316c0-.275-.222-.5-.498-.5-1.676-.005-2.73-.333-3.286-.578.94-1.427 1.248-4.653 1.307-5.413 0-2.453 1.887-4.45 4.206-4.45 2.597 0 4.205 2.31 4.207 4.49.058.726.363 3.946 1.305 5.372-.557.245-1.61.572-3.285.577-.276 0-.5.225-.5.5v1.316c0 .05.01.1.023.148.238.766 1.32.974 2.96 1.288.683.132 1.44.296 2.208.496-1.878 1.564-4.29 2.507-6.92 2.507-2.628 0-5.04-.942-6.918-2.506z"/></svg>