<svg xmlns="http://www.w3.org/2000/svg" width="24" height="24" viewBox="0 0 24 24"><path d="M16.228 15.04c-.277-.034-.526.15-.565.424-.04.273.15.526.425.565 3.945.557 6.7 1.887 6.7 3.233 0 1.665-4.43 3.52-10.787 3.52S1.215 20.93 1.215 19.263c0-1.154 2.344-2.642 6.823-3.253.274-.037.465-.29.428-.562-.037-.274-.29-.478-.563-.428-4.742.646-7.688 2.272-7.688 4.243 0 2.936 6.073 4.52 11.787 4.52 5.715 0 11.788-1.584 11.788-4.52 0-1.946-2.897-3.565-7.56-4.224z"/><path d="M11.5 12.855v7.42c0 .277.225.5.5.5.277 0 .5-.223.5-.5v-7.42c0-.276-.223-.5-.5-.5s-.5.223-.5.5zM12 4.107c1.043 0 1.734-1.284 1.734-2.133 0-.956-.778-1.734-1.733-1.734-.955 0-1.733.778-1.733 1.734 0 .85.69 2.133 1.734 2.133zm0-2.867c.405 0 .734.33.734.734 0 .487-.418 1.133-.733 1.133s-.733-.646-.733-1.133c0-.404.33-.734.734-.734z"/><path d="M9.024 11.803c.13.113.278.145.417.147l.465 8.353c.015.276.238.502.527.472.276-.015.487-.25.47-.526l-.486-8.768c-.005-.138-.087-.312-.19-.402-.127-.11-.272-.144-.407-.15-.14-4.15.08-5.402.154-5.717l.262-.01.325.044c.26.5.81.81 1.44.81.63 0 1.183-.31 1.493-.868l.273.012.24.01c.105.392.31 1.69.177 5.718-.136.005-.28.04-.407.15-.102.087-.184.257-.19.392l-.488 8.776c-.016.275.195.51.472.526h.027c.264 0 .484-.205.5-.472l.464-8.353c.14-.004.288-.036.418-.148.104-.09.185-.26.19-.4.24-6.42-.295-6.863-.522-7.052-.054-.045-.118-.08-.187-.098-.087-.024-.185-.032-.652-.05l-.25-.012c-.432-.03-.803.203-1.006.598-.206.397-.897.396-1.102 0-.204-.395-.59-.624-1.005-.598l-.25.01c-.468.022-.566.03-.652.054-.07.02-.134.053-.19.1-.227.19-.76.635-.52 7.05.006.14.087.308.19.4z"/></svg>