<svg xmlns="http://www.w3.org/2000/svg" width="24" height="24" viewBox="0 0 24 24"><path d="M23.33 20.916l-6.18-6.18c1.03-1.496 1.635-3.307 1.635-5.257 0-5.132-4.175-9.307-9.307-9.307C4.348.173.172 4.347.172 9.48c0 5.13 4.175 9.306 9.306 9.306 1.95 0 3.76-.606 5.258-1.635l6.18 6.18c.33.332.77.5 1.205.5s.875-.168 1.208-.5c.666-.666.666-1.748 0-2.414zM1.17 9.478c0-4.58 3.726-8.306 8.306-8.306s8.307 3.726 8.307 8.306c0 4.58-3.727 8.307-8.307 8.307s-8.306-3.727-8.306-8.307zm21.45 13.144c-.275.273-.724.275-1 0l-6.09-6.09c.36-.307.693-.64 1-1l6.09 6.09c.275.276.275.724 0 1z"/><path d="M13.49 11.247c-1.988-.85-2.45-1.235-2.54-1.322v-.153c.235-.31.422-.696.548-1.13.365-.386.44-.983.182-1.463v-.862c0-1.405-.827-2.244-2.212-2.244-1.365 0-2.213.86-2.213 2.244v.86c-.257.48-.183 1.077.18 1.464.126.434.313.82.55 1.13v.136c-.125.13-.622.518-2.542 1.34-.295.127-.485.424-.485.757v1.12c0 .453.352.82.784.82h7.452c.432 0 .783-.367.783-.82v-1.12c0-.335-.19-.632-.487-.758zm-.513 1.697h-7.02v-.83c2.332-1.004 2.883-1.488 3.01-1.937.01-.044.018-.09.018-.135v-.448c0-.122-.044-.24-.125-.33-.216-.244-.392-.604-.495-1.013-.027-.107-.09-.203-.178-.27-.085-.068-.117-.244-.03-.364.063-.085.097-.19.097-.295V6.32c0-.837.397-1.244 1.213-1.244.827 0 1.212.396 1.212 1.244V7.32c0 .107.033.21.096.297.088.12.056.295-.03.36-.088.07-.15.166-.18.274-.104.417-.274.767-.493 1.014-.08.09-.124.208-.124.33v.448c0 .046.005.092.018.136.126.45.678.933 3.008 1.937v.83z"/></svg>