<svg xmlns="http://www.w3.org/2000/svg" width="24" height="24" viewBox="0 0 24 24"><path d="M2.69 16.3c.313.125.6.192.913.192.55 0 1.183-.21 2.178-.67 1.068-.492 1.83-1.348 2.247-2.15.22.35.46.686.74.98v.515c0 .276.223.5.5.5s.5-.224.5-.5v-.718c0-.135-.055-.264-.15-.357-.554-.545-.97-1.246-1.246-1.99-.022-.125-.065-.235-.12-.336-.106-.355-.185-.715-.212-1.076-.02-.26-.253-.462-.515-.462-.23 0-.325-.187-.355-.267-.058-.153-.057-.37.118-.525.16-.14.212-.365.133-.56-.24-.594-.36-1.216-.36-1.85 0-2.745 2.235-4.978 4.98-4.978 2.747 0 4.98 2.234 4.98 4.98 0 .616-.116 1.227-.347 1.815-.08.207-.016.442.16.578.19.146.2.368.146.525-.03.084-.123.28-.377.28-.262 0-.48.203-.5.464-.026.362-.106.724-.213 1.08-.05.087-.09.192-.116.32-.275.75-.694 1.454-1.25 2.002-.097.094-.15.223-.15.356v.718c0 .276.224.5.5.5s.5-.224.5-.5v-.514c.287-.304.532-.65.756-1.012.446.82 1.258 1.688 2.327 2.182.996.46 1.628.67 2.18.67.312 0 .6-.068.913-.194.39-.156.648-.476.713-.876.117-.733-.416-1.64-1.5-2.55-1.14-.956-2.653-1.63-3.725-1.627.005-.03.016-.06.02-.09.4-.137.72-.455.867-.887.165-.483.08-.987-.21-1.368.203-.61.306-1.24.306-1.875 0-3.297-2.682-5.98-5.98-5.98S6.06 3.73 6.06 7.026c0 .66.11 1.308.324 1.932-.265.39-.327.89-.15 1.356.152.404.463.705.85.837.002.022.01.043.014.065-1.095.017-2.61.81-3.62 1.657-1.085.91-1.618 1.815-1.5 2.55.063.4.322.72.712.877zm17.43-2.66c.984.826 1.19 1.41 1.155 1.625-.006.033-.012.07-.1.105-.46.186-.772.25-2.3-.456-1.067-.493-1.81-1.46-2.05-2.15-.076-.22-.08-.342-.075-.42.01-.028.023-.055.033-.084.347-.17 1.953.217 3.337 1.38zm-16 0c1.24-1.043 2.507-1.45 3.034-1.45.092 0 .15.02.192.042.014.043.035.084.05.127.003.088-.01.22-.07.416-.225.717-.92 1.656-1.964 2.14-1.525.705-1.838.64-2.3.455-.086-.034-.092-.072-.097-.105-.035-.214.17-.798 1.154-1.626z"/><path d="M23.698 20.587c-2.18-2.115-4.845-3.61-7.626-4.296-.15-.074-.328-.068-.474.016-.146.083-.24.234-.25.402-.198 3.286-1.822 4.78-3.25 4.78h-.004c-1.445-.003-3.084-1.513-3.27-4.82-.016-.303-.335-.524-.63-.456-2.942.696-5.677 2.21-7.907 4.376-.19.184-.298.44-.298.707v1.727c0 .542.44.983.982.983h22.043c.542 0 .983-.44.983-.983v-1.727c0-.267-.108-.525-.3-.708zM.988 23.02l-.004-1.715c1.96-1.905 4.335-3.273 6.894-3.98.393 3.537 2.414 5.16 4.214 5.163h.008c1.84 0 3.79-1.585 4.195-5.11 2.485.72 4.793 2.07 6.704 3.924l.016 1.703L.99 23.02z"/></svg>