<svg xmlns="http://www.w3.org/2000/svg" width="24" height="24" viewBox="0 0 24 24"><path d="M10.425 12.613v.102c-.147.136-.708.524-2.797 1.332-.31.12-.52.427-.52.76v.623c0 .276.225.5.5.5s.5-.224.5-.5v-.497c2.83-1.103 3.18-1.553 3.294-1.92.015-.047.022-.097.022-.147v-.443c0-.13-.05-.256-.143-.35-.237-.243-.423-.587-.537-.994-.03-.112-.1-.21-.193-.275-.047-.033-.08-.087-.087-.147-.006-.042-.002-.107.05-.17.072-.09.11-.2.11-.315v-.996c0-.814.464-1.227 1.377-1.227.938 0 1.375.39 1.375 1.227v.993c0 .115.04.227.112.316.052.063.056.128.05.17-.01.06-.04.114-.087.147-.095.066-.163.163-.194.274-.114.407-.3.75-.538.994-.09.095-.143.22-.143.35v.444c0 .05.008.1.022.148.114.367.465.817 3.293 1.92v.496c0 .276.224.5.5.5s.5-.224.5-.5v-.622c0-.338-.21-.644-.52-.762-2.157-.833-2.685-1.214-2.796-1.31v-.124c.256-.307.46-.687.598-1.114.19-.187.317-.435.354-.704.038-.273-.016-.543-.152-.778v-.837c0-1.394-.888-2.227-2.375-2.227-1.466 0-2.377.853-2.377 2.227v.84c-.136.233-.19.503-.152.775.038.27.164.518.355.705.14.43.344.81.6 1.116zM10.08 4.955c.076.606.6 1.045 1.246 1.045h1.35c.646 0 1.17-.436 1.244-1.034l.448-3.566c.044-.344-.064-.683-.304-.955C13.82.167 13.467 0 13.124 0h-2.246c-.343 0-.693.165-.937.44-.24.273-.35.627-.308.974l.45 3.54zm.61-3.853c.06-.067.14-.102.188-.102h2.245c.047 0 .13.037.19.106.034.037.07.097.063.167l-.448 3.568c-.014.11-.14.16-.253.16h-1.35c-.114 0-.238-.058-.252-.17l-.448-3.54c-.01-.08.03-.147.066-.188z"/><path d="M17.644 4H16c-.275 0-.5.224-.5.5s.225.5.5.5h1.644C18.392 5 19 5.554 19 6.235V17H5V6.236C5 5.554 5.61 5 6.358 5H8c.276 0 .5-.224.5-.5S8.277 4 8 4H6.358C5.058 4 4 5.003 4 6.236v15.64C4 23.085 5.014 24 6.357 24h11.286C18.987 24 20 23.088 20 21.876V6.235C20 5.004 18.943 4 17.644 4zm0 19H6.358C5.7 23 5 22.607 5 21.876V18h14v3.875c0 .73-.698 1.126-1.356 1.126z"/><path d="M16.392 20H12.61c-.277 0-.5.225-.5.5s.223.5.5.5h3.782c.276 0 .5-.223.5-.5s-.224-.5-.5-.5zM9.61 20h-2c-.277 0-.5.225-.5.5s.223.5.5.5h2c.275 0 .5-.223.5-.5s-.225-.5-.5-.5zM12 3.02c.13 0 .26-.05.36-.15.09-.09.14-.22.14-.35s-.05-.26-.15-.36c-.19-.18-.52-.17-.7.01-.1.09-.15.22-.15.35 0 .14.05.26.15.36.09.09.22.14.35.14z"/></svg>