<svg xmlns="http://www.w3.org/2000/svg" width="24" height="24" viewBox="0 0 24 24"><path d="M16.302 15.812c-4.393-1.736-5.2-2.47-5.344-2.7v-.526c.498-.572.89-1.31 1.14-2.15.32-.286.533-.685.594-1.12.062-.448-.037-.892-.28-1.267V6.363c0-2.357-1.424-3.708-3.908-3.708-2.448 0-3.91 1.386-3.91 3.708V8.05c-.242.375-.34.816-.28 1.264.06.435.273.834.593 1.12.25.843.642 1.58 1.14 2.152v.524c-.134.205-.907.95-5.346 2.704-.412.164-.678.562-.678 1.013v2.062c0 .6.478 1.086 1.065 1.086h14.83c.587 0 1.064-.487 1.064-1.087v-2.063c.002-.447-.27-.855-.678-1.015zm-.32 3.075c0 .052-.034.087-.065.087H1.087c-.03 0-.064-.035-.064-.087l.047-2.145c4.922-1.945 5.77-2.774 5.956-3.38.014-.05.02-.098.02-.147v-.824c0-.128-.05-.25-.138-.345-.482-.504-.856-1.207-1.082-2.032-.03-.11-.097-.207-.19-.274-.18-.13-.3-.336-.333-.564-.033-.235.03-.468.18-.655.07-.087.108-.197.108-.31V6.364c0-1.772 1.007-2.708 2.91-2.708 1.93 0 2.908.91 2.908 2.708V8.21c0 .112.038.222.108.31.15.188.214.42.18.658-.03.228-.152.433-.33.562-.094.067-.162.164-.192.274-.225.826-.6 1.528-1.08 2.032-.09.093-.14.217-.14.346v.824c0 .05.007.098.022.146.185.606 1.035 1.436 5.956 3.38l.047.084v2.06zM23.316 16.09c-1.145-.438-2.343-.665-3.306-.848-.652-.123-1.535-.29-1.73-.415v-.458c2.172-.1 3.1-.796 3.205-.88.13-.104.198-.266.185-.43s-.108-.314-.254-.396c-.466-.262-.936-2.353-1.08-4.1 0-1.798-1.002-3.396-2.616-4.17-1.492-.713-3.13-.542-4.375.46-.215.173-.25.488-.076.703.173.215.486.25.702.076.938-.755 2.176-.884 3.316-.337 1.264.605 2.05 1.857 2.05 3.307.066.813.314 3.17 1.038 4.352-.474.19-1.312.422-2.598.425-.276 0-.5.225-.5.5v1.08c0 .05.01.1.024.15.214.677 1.132.85 2.522 1.114.924.175 2.073.393 3.158.83l-.035 1.92H18.57c-.276 0-.5.223-.5.5s.224.5.5.5h4.377c.57 0 1.035-.466 1.035-1.037v-1.882c0-.425-.266-.814-.666-.966z"/></svg>