<svg xmlns="http://www.w3.org/2000/svg" width="24" height="24" viewBox="0 0 24 24"><path d="M18.49 13.002c-3.03 0-5.494 2.464-5.494 5.493s2.464 5.494 5.493 5.494 5.492-2.466 5.492-5.495-2.463-5.493-5.493-5.493zm0 9.987c-2.48 0-4.494-2.017-4.494-4.495s2.016-4.493 4.493-4.493 4.492 2.016 4.492 4.493c0 2.478-2.015 4.494-4.493 4.494z"/><path d="M21.3 18.048h-2.25v-2.25c0-.276-.225-.5-.5-.5s-.5.224-.5.5v2.25h-2.252c-.276 0-.5.224-.5.5s.224.5.5.5h2.25v2.25c0 .277.225.5.5.5s.5-.223.5-.5v-2.25h2.25c.277 0 .5-.224.5-.5s-.223-.5-.5-.5zM13.393 8.517c-.273.97-.727 1.797-1.312 2.392-.09.092-.143.218-.143.35v.956c0 .05.008.102.023.15.192.61.413.745 1.424 1.275.242.13.547.036.675-.21.128-.243.033-.545-.21-.674-.766-.402-.852-.45-.913-.62v-.678c.6-.662 1.07-1.523 1.372-2.51.38-.32.632-.777.7-1.276.07-.508-.047-1.01-.335-1.432V4.264C14.675 1.58 13.008.04 10.1.04c-2.864 0-4.575 1.58-4.575 4.224V6.24c-.287.422-.405.923-.336 1.43.068.5.32.956.7 1.278.3.986.772 1.847 1.374 2.51v.657c-.156.27-1.095 1.132-6.447 3.188-.452.174-.755.617-.755 1.103V18.8c0 .65.527 1.18 1.175 1.18h10.258c.276 0 .5-.224.5-.5s-.224-.5-.5-.5H1.237c-.097 0-.175-.08-.175-.18v-2.394c0-.075.046-.143.114-.17 5.862-2.25 6.86-3.22 7.065-3.87.016-.048.024-.1.024-.15v-.956c0-.13-.052-.257-.144-.35-.586-.597-1.04-1.424-1.313-2.393-.03-.11-.1-.208-.195-.274-.235-.165-.392-.423-.432-.71-.04-.292.042-.58.232-.81.073-.09.113-.202.113-.317V4.264c0-2.08 1.27-3.224 3.576-3.224 2.373 0 3.575 1.084 3.575 3.224v2.14c0 .116.04.228.113.317.19.234.272.522.232.813-.04.287-.197.545-.433.71-.094.066-.163.163-.194.274z"/></svg>