<svg xmlns="http://www.w3.org/2000/svg" width="24" height="24" viewBox="0 0 24 24"><path d="M18.494 13.002c-3.03 0-5.493 2.464-5.493 5.493s2.465 5.494 5.494 5.494 5.493-2.466 5.493-5.495-2.464-5.493-5.493-5.493zm0 9.987c-2.478 0-4.493-2.017-4.493-4.495s2.017-4.493 4.494-4.493 4.493 2.016 4.493 4.493c0 2.478-2.015 4.494-4.493 4.494z"/><path d="M21.304 18.048h-5.5c-.277 0-.5.224-.5.5s.223.5.5.5h5.5c.276 0 .5-.224.5-.5s-.224-.5-.5-.5zM13.397 8.517c-.273.97-.727 1.797-1.312 2.392-.092.092-.144.218-.144.35v.956c0 .05.01.1.024.15.19.61.412.744 1.424 1.275.242.13.547.036.675-.21.13-.243.034-.545-.21-.674-.765-.402-.85-.45-.912-.62v-.678c.6-.662 1.072-1.523 1.373-2.51.38-.32.633-.777.702-1.276.07-.508-.048-1.01-.336-1.432V4.264C14.68 1.58 13.01.04 10.104.04 7.24.04 5.53 1.62 5.53 4.264V6.24c-.287.422-.405.923-.336 1.43.07.5.322.956.702 1.278.3.986.77 1.847 1.373 2.51v.657c-.157.27-1.095 1.132-6.448 3.188-.452.174-.756.617-.756 1.103V18.8c0 .65.527 1.18 1.176 1.18H11.5c.276 0 .5-.224.5-.5s-.224-.5-.5-.5H1.242c-.097 0-.176-.08-.176-.18v-2.394c0-.075.046-.143.114-.17 5.862-2.25 6.86-3.22 7.065-3.87.015-.048.023-.1.023-.15v-.956c0-.13-.052-.257-.144-.35-.586-.596-1.04-1.423-1.313-2.392-.03-.11-.1-.208-.194-.274-.234-.166-.39-.424-.43-.712-.04-.29.04-.578.23-.81.074-.09.114-.2.114-.316V4.264c0-2.08 1.27-3.224 3.576-3.224 2.372 0 3.574 1.084 3.574 3.224v2.14c0 .116.04.228.113.317.19.234.272.522.232.813-.04.287-.197.545-.433.71-.094.066-.163.163-.195.274z"/></svg>