<svg xmlns="http://www.w3.org/2000/svg" width="24" height="24" viewBox="0 0 24 24"><path d="M19.2 15.9c0-.336-.114-.768-.525-1.134-.017-.06-.046-.117-.085-.168.114-.498.173-1 .192-1.5.056-.04.112-.082.15-.145.14-.238.06-.544-.178-.685-.658-.387-1.41-.688-2.194-.944l-.018-.006C15.15 10.865 13.61 10.6 12 10.6c-1.61 0-3.15.265-4.54.72-.01.002-.02.005-.03.01-.78.255-1.528.554-2.183.94-.18.106-.268.307-.24.502-.002.01-.007.018-.007.028 0 .624.076 1.254.226 1.88-.385.317-.626.77-.626 1.22 0 .725.484 1.338 1.146 1.534.483 3.052 3.96 5.466 6.154 5.466 2.362 0 5.593-2.528 6.14-5.462.67-.192 1.16-.808 1.16-1.538zm-2.076-1.506l-.16-1.885c.292.117.558.26.828.4-.008.46-.072.925-.173 1.387-.177.01-.345.04-.496.097zM6.182 14.3c-.094-.433-.154-.865-.167-1.295.327-.178.662-.35 1.023-.495l-.162 1.885c-.207-.078-.442-.113-.694-.095zM17.6 16.5c-.256 0-.47.193-.497.448-.284 2.733-3.35 4.952-5.203 4.952-1.832 0-5.02-2.307-5.2-4.935-.02-.262-.237-.465-.5-.465-.325 0-.6-.274-.6-.6 0-.19.176-.42.41-.544.494-.21.83.168.89.244.096.128.245.2.4.2.046 0 .092-.006.138-.02.2-.057.343-.23.36-.438l.272-3.172c1.213-.36 2.54-.57 3.93-.57 1.39 0 2.717.21 3.93.57l.272 3.172c.018.206.16.38.36.438.046.014.092.02.138.02.154 0 .304-.072.4-.2.012-.016.243-.308.606-.304.023.017.043.04.07.052.372.187.424.376.424.553 0 .325-.275.6-.6.6zM12 9.8c.08 0 .162-.02.235-.06C13.95 8.827 14 7.724 14 7.6V5.5c0-.277-.224-.5-.5-.5h-3c-.276 0-.5.223-.5.5v2.1c0 .054.02 1.328 1.79 2.153.065.03.138.047.21.047zm-1-2.2V6h2v1.582c0 .006-.055.568-1.014 1.15C11.046 8.215 11 7.616 11 7.6z"/><path d="M20.178 10.97C20.05 9.586 19.235 4.1 14.3 2.71V2.1c0-.627-.473-1.1-1.1-1.1h-2.4c-.576 0-1.1.524-1.1 1.1v.604c-5.02 1.31-5.847 6.853-5.977 8.258C2.805 11.385.1 12.85.1 15.4c0 3.897 4.044 5.477 6.434 5.796.278.036.524-.156.562-.43.037-.274-.156-.525-.43-.562-.227-.03-5.566-.788-5.566-4.804 0-2.322 3.25-3.622 3.282-3.634.187-.073.312-.25.318-.452 0-.066.25-6.618 5.6-7.725.234-.05.4-.253.4-.49v-.996c.006-.035.07-.098.1-.104h2.4c.1 0 .1.053.1.1v1c0 .233.16.436.39.487 5.248 1.198 5.503 7.462 5.51 7.728.007.196.128.37.31.446.03.015 3.29 1.407 3.29 3.64 0 3.42-3.915 4.572-5.598 4.91-.27.053-.446.316-.393.587.047.238.255.402.488.402.033 0 .065-.004.1-.01 1.5-.3 6.4-1.613 6.4-5.89.002-2.47-2.714-3.992-3.62-4.43z"/><path d="M12.7 18h-1.5c-.276 0-.5.224-.5.5s.224.5.5.5h1.5c.276 0 .5-.224.5-.5s-.223-.5-.5-.5zM10.1 15H10c-.276 0-.5.224-.5.5s.224.5.5.5h.1c.276 0 .5-.224.5-.5s-.224-.5-.5-.5zM14 15h-.1c-.276 0-.45.224-.45.5s.274.5.55.5.5-.224.5-.5-.224-.5-.5-.5z"/></svg>