<svg xmlns="http://www.w3.org/2000/svg" width="24" height="24" viewBox="0 0 24 24"><path d="M21.942 15.265c-.222-.478-.607-.822-1.166-1.017-.023-.01-.045-.016-.068-.023-.147-.246-.344-.462-.59-.62.02-.267.214-.678.375-1.02.14-.3.277-.608.372-.915l.067.024c.135.05.288.038.416-.033.127-.07.217-.193.246-.336.04-.196.94-4.843-1.746-8.13-1.67-2.04-4.33-3.074-7.912-3.074-3.163 0-5.64.958-7.365 2.847C1.54 6.29 1.956 11.26 1.975 11.47c.02.224.188.406.41.446.03.006.06.008.088.008.19 0 .365-.107.45-.282.198-.408.487-.834.823-1.26l.012.14c.083.978.205 2.41.102 3.07-.548.342-.89.945-.89 1.6 0 .892.62 1.64 1.465 1.84.574 3.795 4.865 6.81 7.543 6.81 2.088 0 4.672-1.548 6.227-3.728 1.772-.31 3.093-.993 3.69-2.524.327-.837.344-1.684.047-2.325zM5.312 3.64c1.526-1.673 3.755-2.52 6.625-2.52 3.264 0 5.664.91 7.134 2.703 1.87 2.282 1.765 5.44 1.626 6.726-1.65-.57-5.948-1.934-9.296-1.934-1.727 0-3.202.363-3.93 1.384-.167.232-.294.38-.387.473-.09-.958.618-3.823 1.63-4.608.216-.167.258-.475.097-.693s-.47-.27-.69-.11c-.16.112-3.29 2.34-5.135 4.665.12-1.65.605-4.2 2.326-6.087zm6.666 19.202c-2.353 0-6.324-2.883-6.593-6.3-.02-.26-.262-.46-.523-.46-.49 0-.89-.398-.89-.89 0-.35.207-.67.528-.813.13-.06.23-.17.272-.306.213-.67.122-1.986-.018-3.638-.038-.44-.07-.83-.083-1.113.633-.658 1.326-1.288 1.96-1.823-.45 1.276-.65 2.667-.484 3.372.13.552.466.697.653.733.588.116 1.1-.487 1.482-1.024 1.48-2.07 8.17-.383 11.64.765-.074.25-.203.535-.334.816-.302.646-.613 1.313-.4 1.927.046.13.143.236.27.292.32.143.527.462.527.812 0 .49-.398.89-.913.89-.286-.026-.48.2-.5.46-.074.948-.425 1.843-.935 2.65-.856.114-1.885.164-3.104.178-.213-.424-.676-.723-1.22-.723h-.35c-.743 0-1.347.553-1.347 1.23s.604 1.232 1.347 1.232h.35c.55 0 1.023-.307 1.232-.74.79-.008 1.546-.026 2.247-.08-1.416 1.545-3.38 2.552-4.814 2.552zm1.334-2.733h-.35c-.2 0-.347-.123-.347-.232s.143-.23.347-.23h.35c.205 0 .348.12.348.23s-.148.23-.348.23zm7.652-2.885c-.34.87-1.005 1.392-2.052 1.706.295-.606.51-1.243.608-1.896.72-.166 1.28-.745 1.424-1.472.03.042.068.074.09.123.18.39.154.965-.07 1.54z"/><path d="M10.814 19.04H10.1c-.276 0-.5.223-.5.5s.224.5.5.5h.715c.276 0 .5-.225.5-.5s-.224-.5-.5-.5zM10.455 13.525c0-.276-.224-.5-.5-.5h-.973c-.276 0-.5.224-.5.5s.224.5.5.5h.973c.276 0 .5-.223.5-.5zM14.026 14.025H15c.276 0 .5-.224.5-.5s-.224-.5-.5-.5h-.974c-.276 0-.5.224-.5.5s.224.5.5.5z"/></svg>