<svg xmlns="http://www.w3.org/2000/svg" width="24" height="24" viewBox="0 0 24 24"><path d="M16.297 15.812c-4.393-1.736-5.2-2.47-5.344-2.7v-.526c.498-.572.89-1.31 1.14-2.15.32-.286.533-.685.594-1.12.062-.448-.037-.892-.28-1.267V6.363c0-2.357-1.424-3.708-3.908-3.708-2.45 0-3.91 1.386-3.91 3.708V8.05c-.243.375-.342.816-.28 1.264.06.435.273.834.593 1.12.25.843.642 1.58 1.14 2.152v.524c-.134.205-.907.95-5.346 2.704-.413.164-.68.562-.68 1.013v2.062c0 .6.48 1.086 1.066 1.086h14.83c.587 0 1.064-.487 1.064-1.087v-2.063c0-.447-.273-.855-.68-1.015zm-.32 3.075c0 .052-.033.087-.064.087H1.083c-.032 0-.065-.035-.065-.087l.047-2.145c4.922-1.945 5.77-2.774 5.956-3.38.015-.05.022-.098.022-.147v-.824c0-.128-.05-.25-.14-.345-.48-.504-.855-1.207-1.08-2.032-.03-.11-.098-.207-.19-.274-.18-.13-.3-.335-.332-.563-.032-.236.032-.47.18-.656.07-.087.108-.197.108-.31V6.364c0-1.772 1.006-2.708 2.91-2.708 1.93 0 2.908.91 2.908 2.708V8.21c0 .112.038.222.108.31.15.188.214.42.18.658-.03.228-.152.433-.33.562-.094.067-.162.164-.192.274-.225.826-.6 1.528-1.08 2.032-.09.093-.14.217-.14.346v.824c0 .05.007.098.022.146.185.606 1.035 1.436 5.956 3.38l.047.084v2.06z"/><path d="M23.406 16.558c-3.334-1.287-3.994-1.853-4.118-2v-.318c.38-.438.68-.994.878-1.625.26-.237.43-.562.48-.916.05-.36-.028-.716-.22-1.02V9.427c0-1.853-1.186-2.96-3.17-2.96-1.987 0-3.174 1.107-3.174 2.96v1.255c-.19.303-.268.658-.218 1.018.05.354.22.678.48.915.22.71.57 1.323 1.02 1.78.192.2.51.2.707.01.198-.194.202-.51.01-.708-.365-.372-.648-.893-.82-1.506-.03-.11-.1-.207-.193-.273-.115-.08-.192-.21-.213-.354-.02-.146.02-.29.115-.406.072-.09.11-.2.11-.315V9.427c0-1.282.752-1.96 2.174-1.96 1.44 0 2.17.66 2.17 1.96v1.414c0 .116.04.228.113.317.095.117.137.26.116.406-.02.144-.097.272-.212.353-.094.066-.162.163-.193.274-.172.613-.455 1.134-.818 1.506-.093.094-.144.22-.144.35v.632c0 .05.008.1.022.148.144.46.64 1.083 4.7 2.62l.057 1.528h-4.58c-.277 0-.5.224-.5.5s.223.5.5.5h4.58c.52 0 .943-.426.943-.95v-1.58c.003-.39-.24-.747-.602-.886z"/></svg>