<svg xmlns="http://www.w3.org/2000/svg" width="24" height="24" viewBox="0 0 24 24"><path d="M20.79 13.256c.226-.933.31-2.2.31-3.156 0-.186-.105-.34-.255-.427L19.797 4.54C19.773 4.354 19.16 0 11.9 0 5.185 0 4.06 4.3 4.01 4.5l-1.1 5.4c-.03.145.013.286.097.398.018.84.153 2.03.4 2.96-.495.355-.807.93-.807 1.542 0 .93.672 1.733 1.546 1.945.016.115.047.227.07.34-.014.06-.02.12-.01.184.01.08.047.152.092.215.984 3.73 5.15 6.415 7.802 6.415 2.828 0 7.36-3.17 7.952-7.154.875-.212 1.548-1.017 1.548-1.946 0-.613-.314-1.19-.81-1.544zm-2.28-.238l-.178-1.9c.578-.133 1.164-.297 1.758-.496-.022.712-.092 1.534-.23 2.192-.517-.1-.98.01-1.35.204zM4.985 4.72C5.025 4.57 6.005 1 11.9 1c6.33 0 6.883 3.515 6.91 3.7l1.014 4.973c-1.415.48-2.813.736-4.088.907.287-.568.464-1.2.464-1.88 0-2.316-1.884-4.2-4.2-4.2-2.316 0-4.2 1.884-4.2 4.2 0 .654.163 1.265.43 1.817-2.045-.24-3.564-.647-4.25-.855l1.005-4.94zM8.8 8.7c0-1.765 1.436-3.2 3.2-3.2s3.2 1.436 3.2 3.2-1.436 3.2-3.2 3.2-3.2-1.435-3.2-3.2zm-4.476 4.09c-.145-.615-.256-1.38-.3-2.073.41.117.953.258 1.645.4l-.18 1.9c-.326-.17-.725-.27-1.166-.227zM12.1 22.9c-2.24 0-5.697-2.272-6.72-5.29l5.07-.713c.962-.095 1.938-.096 2.882-.002l5.465.74C17.742 20.603 14.272 22.9 12.1 22.9zm7.5-7.1c-.26 0-.478.2-.498.46-.01.136-.037.268-.06.4l-5.592-.757c-1.03-.104-2.072-.104-3.12.002l-5.18.727c-.017-.123-.042-.245-.052-.37-.02-.26-.237-.462-.498-.462-.523 0-1-.477-1-1 0-.415.294-.72.586-.836.094-.037.163-.105.217-.183.624-.072 1.042.448 1.092.514.096.132.248.206.405.206.044 0 .088-.006.132-.018.2-.056.346-.23.366-.436l.258-2.744c.684.116 1.454.22 2.3.295l.017-.002c.764.8 1.835 1.305 3.027 1.305 1.15 0 2.19-.465 2.948-1.215.748-.084 1.557-.195 2.4-.352l.253 2.713c.02.207.166.38.366.436.044.012.09.018.133.018.156 0 .308-.074.403-.206.022-.03.55-.73 1.338-.45.05.05.105.092.173.12.29.117.585.42.585.836.002.523-.475 1-.998 1z"/><path d="M12 10.4c.938 0 1.7-.763 1.7-1.7S12.938 7 12 7s-1.7.763-1.7 1.7.762 1.7 1.7 1.7zM12 8c.386 0 .7.314.7.7s-.314.7-.7.7-.7-.314-.7-.7.314-.7.7-.7zM9.6 14h-.1c-.276 0-.5.223-.5.5s.224.5.5.5h.1c.276 0 .5-.224.5-.5s-.224-.5-.5-.5zM14.5 14h-.1c-.276 0-.45.224-.45.5s.274.5.55.5.5-.224.5-.5-.224-.5-.5-.5z"/></svg>