<svg xmlns="http://www.w3.org/2000/svg" width="24" height="24" viewBox="0 0 24 24"><path d="M10.872 15.47c0-.658-.534-1.192-1.19-1.192s-1.192.533-1.192 1.19.534 1.192 1.19 1.192 1.192-.534 1.192-1.19zm-1.382 0c0-.106.085-.192.19-.192s.192.086.192.19c0 .21-.382.21-.382 0zM14.453 14.277c-.657 0-1.19.534-1.19 1.19s.533 1.192 1.19 1.192 1.19-.535 1.19-1.192-.533-1.19-1.19-1.19zm-.19 1.192c0-.106.085-.192.19-.192s.19.086.19.19c.002.21-.38.21-.38 0zM14.364 18.024c-.06.058-.405.26-.823.27-.393-.01-.775-.216-1.134-.608-.095-.104-.23-.162-.37-.162-.14 0-.273.06-.368.162-.357.39-.736.595-1.128.608-.43.03-.767-.21-.832-.27-.2-.19-.517-.182-.707.02s-.18.516.02.706c.226.214.8.565 1.554.544.377-.014.91-.134 1.46-.583.56.455 1.096.573 1.477.584h.065c.72 0 1.27-.344 1.484-.554.197-.192.2-.51.01-.707-.192-.196-.508-.2-.706-.01z"/><path d="M23.418 10.82c-.047-.02-4.67-1.95-5.18-5.75-.376-2.8-1.394-4.636-2.723-4.913-.673-.14-1.692.055-2.74 1.787-.155.255-.43.407-.738.407-.307 0-.583-.15-.737-.406C10.25.214 9.23.017 8.558.157 7.228.435 6.21 2.272 5.836 5.072c-.51 3.8-5.134 5.73-5.18 5.748-.193.08-.317.27-.31.477.004.208.138.39.335.46 1.054.363 2.102.657 3.138.898.034.555.137.923.298 1.394-.427.342-.686.864-.686 1.427 0 .856.592 1.578 1.403 1.775.56 3.635 4.668 6.52 7.234 6.52 2.857 0 6.69-3.02 7.232-6.515.804-.193 1.403-.918 1.403-1.78 0-.562-.26-1.086-.687-1.43.163-.485.266-.882.3-1.45 1.904-.423 3.05-.832 3.085-.844.194-.07.324-.254.328-.46.004-.21-.12-.396-.31-.474zM5.04 13.655c-.094-.282-.16-.518-.196-.78.458.092.912.172 1.362.242l-.066.7c-.31-.146-.684-.224-1.1-.162zm13.812 2.648h-.002c-.26 0-.478.2-.498.46-.26 3.315-3.99 6.006-6.284 6.006-2.242 0-6.028-2.748-6.284-6.005-.02-.26-.26-.46-.522-.46-.458 0-.83-.372-.83-.83 0-.327.192-.623.49-.756.7-.313 1.175.284 1.225.35.095.132.247.207.405.207.043 0 .088-.006.13-.018.202-.056.348-.23.367-.437l.148-1.57c1.574.2 3.1.29 4.54.29 1.914 0 3.675-.148 5.227-.355l.146 1.634c.02.207.165.382.366.438.044.012.09.018.133.018.157 0 .31-.075.404-.207.02-.027.476-.64 1.18-.364.007.003.01.01.02.013.298.132.49.43.49.756 0 .456-.372.828-.852.828zm.24-2.65c-.4-.054-.766.02-1.068.162l-.07-.772c.47-.075.92-.152 1.34-.234-.036.286-.103.542-.202.844zm-16.93-2.472c1.567-.89 4.246-2.843 4.666-5.978.35-2.604 1.223-3.92 1.935-4.068.5-.106 1.1.366 1.682 1.326.336.556.932.89 1.592.89s1.256-.333 1.593-.89c.58-.958 1.166-1.43 1.682-1.326.71.148 1.586 1.464 1.936 4.068.418 3.124 3.08 5.076 4.65 5.97-2.947.83-11.083 2.616-19.736.008z"/><path d="M17.856 8.914c-2.775.466-7.064.844-11.738-.002-.276-.048-.532.132-.58.403-.05.272.13.532.402.58 2.083.377 4.09.518 5.93.518 2.41 0 4.532-.242 6.152-.513.27-.045.456-.303.41-.576s-.3-.458-.576-.41zM12.79 20.013h-1.445c-.276 0-.5.224-.5.5s.224.5.5.5h1.445c.276 0 .5-.224.5-.5s-.224-.5-.5-.5z"/></svg>