<svg xmlns="http://www.w3.org/2000/svg" width="24" height="24" viewBox="0 0 24 24"><path d="M3.854 14.95h8.254c.45 0 .814-.368.814-.82v-1.122c0-.337-.21-.645-.523-.765-2.2-.85-2.725-1.24-2.83-1.33v-.127c.258-.31.465-.695.604-1.128.193-.188.32-.438.358-.71.038-.274-.016-.547-.154-.783v-.85c0-1.407-.896-2.247-2.397-2.247-1.478 0-2.396.86-2.396 2.246v.85c-.137.237-.19.508-.153.783.04.27.166.52.358.71.14.433.346.817.606 1.13v.106c-.147.137-.712.53-2.83 1.35-.314.12-.524.427-.524.765v1.122c0 .452.365.82.814.82zm.186-1.82c2.86-1.115 3.215-1.57 3.33-1.938.016-.048.024-.098.024-.15v-.448c0-.13-.05-.256-.143-.35-.24-.247-.43-.595-.544-1.006-.03-.11-.1-.208-.194-.275-.05-.035-.082-.09-.09-.153-.007-.044-.003-.11.05-.177.072-.09.112-.2.112-.315V7.314c0-.827.47-1.246 1.397-1.246.954 0 1.398.396 1.398 1.246v1.004c0 .115.04.227.112.315.053.066.057.133.05.177-.007.063-.04.118-.09.153-.094.066-.162.163-.193.275-.115.412-.303.76-.545 1.007-.09.093-.143.22-.143.35v.45c0 .05.007.1.02.148.117.37.47.824 3.332 1.938v.82H4.04v-.82zM14.52 11.99h5.962c.276 0 .5-.225.5-.5s-.224-.5-.5-.5H14.52c-.276 0-.5.223-.5.5s.223.5.5.5zM14.52 8.99h5.962c.276 0 .5-.225.5-.5s-.224-.5-.5-.5H14.52c-.276 0-.5.223-.5.5s.223.5.5.5z"/><path d="M23.487 1.032H.507c-.275 0-.5.224-.5.5v19.974c0 .276.225.5.5.5h4.974c.277 0 .5-.224.5-.5V20.07c0-.558.45-1.01 1.004-1.01s1.003.452 1.003 1.01v1.436c0 .276.224.5.5.5h6.994c.277 0 .5-.224.5-.5V20.07c0-.558.45-1.01 1.005-1.01.553 0 1.003.452 1.003 1.01v1.436c0 .276.224.5.5.5h4.998c.276 0 .5-.224.5-.5V1.532c0-.276-.222-.5-.5-.5zm-.5 19.974H18.99v-.936c0-1.108-.9-2.01-2.004-2.01s-2.004.9-2.004 2.01v.936H8.988v-.936c0-1.108-.9-2.01-2.003-2.01s-2.003.9-2.003 2.01v.936H1.008V2.032h21.98v18.974z"/></svg>