<svg xmlns="http://www.w3.org/2000/svg" width="24" height="24" viewBox="0 0 24 24"><path d="M3.696 9.918c-.037-.365-.32-.66-.696-.767V7.4c0-.276-.224-.5-.5-.5s-.5.224-.5.5v1.735c-.452.085-.8.42-.792.775L1 11.1c0 .496.45.9 1 .9h1c.55 0 1-.404 1-.9 0-.044-.006-.088-.018-.13l-.286-1.052zm-1.67 1.075L2.2 10c0 .063-.03.1 0 .1l.512.006c0 .008.003.017.006.025l.237.87-.93-.007z"/><path d="M23.31 4.012l-11.1-2.5c-.072-.017-.147-.017-.22 0l-11.1 2.5c-.017.004-.03.014-.047.02-.024.007-.046.016-.067.027-.034.016-.064.037-.093.06-.017.016-.035.03-.05.045-.028.03-.05.066-.07.103-.008.016-.02.03-.026.047C.515 4.37.5 4.43.5 4.49v.01c0 .01.005.017.005.026.003.053.012.104.03.15l.03.057c.02.034.04.066.065.095.016.018.032.032.05.047.028.025.057.045.09.062l.067.03c.012.004.023.013.037.017l4.7 1.228-.45 7.093c-.037.012-.072.016-.11.03-.11.045-.192.13-.246.228-.414.327-.668.808-.668 1.337 0 .814.516 1.46 1.256 1.646C5.912 19.718 9.446 22.6 12 22.6c2.668 0 6.193-2.805 6.657-6.058.734-.19 1.243-.832 1.243-1.642 0-.53-.254-1.01-.668-1.337-.054-.098-.135-.183-.247-.227-.142-.057-.28-.092-.416-.113l-.21-3.228c.05-.12.054-.257 0-.385-.006-.018-.02-.03-.03-.045l-.208-3.22 5.203-1.36c.224-.06.378-.263.374-.493-.004-.232-.165-.43-.39-.48zm-5.734 9.334c-.16.066-.3.15-.427.24C16.812 12.664 15.936 12 14.9 12c-.88 0-1.645.483-2.062 1.192-.246-.18-.538-.292-.838-.292-.316 0-.61.1-.85.268C10.727 12.47 9.97 12 9.1 12c-1.036 0-1.913.664-2.248 1.586-.2-.142-.443-.27-.722-.336l.18-2.853c1.65.66 3.54 1.003 5.79 1.003 2.304 0 3.85-.338 5.293-.867l.183 2.813zM16.3 14.4c0 .77-.628 1.4-1.4 1.4-.77 0-1.4-.63-1.4-1.4 0-.772.63-1.4 1.4-1.4.772 0 1.4.628 1.4 1.4zm-5.8 0c0 .77-.628 1.4-1.4 1.4s-1.4-.628-1.4-1.4c0-.772.628-1.4 1.4-1.4s1.4.628 1.4 1.4zm7.7 1.2c-.265 0-.483.206-.5.47-.184 3.053-3.58 5.53-5.7 5.53-2 0-5.42-2.538-5.702-5.547-.025-.256-.24-.453-.498-.453-.425 0-.7-.274-.7-.7 0-.276.158-.52.423-.653.015-.007.024-.02.037-.03.528-.096.9.336.947.392.06.076.142.122.23.153C6.912 15.913 7.9 16.8 9.1 16.8c1.323 0 2.4-1.076 2.4-2.4 0-.308.26-.5.5-.5.224 0 .5.276.5.5 0 1.324 1.077 2.4 2.4 2.4 1.2 0 2.187-.887 2.363-2.038.086-.03.167-.075.228-.15.047-.057.42-.49.95-.392.014.008.023.02.037.028.265.132.423.376.423.652 0 .426-.274.7-.7.7zm-.875-6.11c-1.428.55-2.92.91-5.225.91-2.26 0-4.13-.352-5.724-1.05l.182-2.88 5.415 1.414c.042.01.085.016.127.016s.085-.005.126-.016l4.91-1.283.19 2.89zM12.1 6.883l-5.734-1.5c-.07-.043-.146-.077-.234-.083-.02 0-.037.008-.056.01L4.89 5h6.71c.276 0 .5-.224.5-.5s-.224-.5-.5-.5H5.496L12.1 2.512l8.985 2.023-8.985 2.35z"/><path d="M13.047 17.946c-.35.35-.682.505-1.08.52-.61-.007-1.09-.494-1.103-.51-.188-.2-.503-.21-.705-.02-.203.187-.213.504-.025.705.03.034.765.81 1.81.826h.04c.635 0 1.23-.272 1.77-.812.195-.195.195-.512 0-.707s-.513-.196-.708 0zM8.6 14.6c0 .276.224.5.5.5h.1c.276 0 .5-.224.5-.5s-.224-.5-.5-.5h-.1c-.276 0-.5.224-.5.5zM14.8 14.1c-.276 0-.5.224-.5.5s.224.5.5.5h.1c.276 0 .5-.224.5-.5s-.224-.5-.5-.5h-.1z"/></svg>