<svg xmlns="http://www.w3.org/2000/svg" width="24" height="24" viewBox="0 0 24 24"><path d="M14.063 15.01c-.437-.306-.583-.493-.63-.572V13.7c.634-.716 1.13-1.65 1.443-2.72.393-.34.655-.822.73-1.35.074-.543-.05-1.08-.353-1.533v-2.15c0-2.876-1.74-4.525-4.772-4.525-2.988 0-4.772 1.69-4.772 4.524v2.152c-.302.45-.426.987-.35 1.53.072.528.334 1.01.728 1.35.314 1.07.81 2.005 1.445 2.723v.744c-.154.292-1.12 1.23-6.78 3.47-.468.188-.77.64-.77 1.153v1.09c0 .275.223.5.5.5s.5-.225.5-.5v-1.09c0-.1.056-.19.14-.224 6.134-2.426 7.177-3.464 7.39-4.16.013-.046.02-.095.02-.145v-1.033c0-.13-.05-.252-.14-.345-.618-.648-1.098-1.55-1.385-2.604-.03-.11-.097-.208-.19-.274-.25-.182-.42-.47-.466-.792-.047-.33.043-.656.25-.918.07-.088.11-.198.11-.31V5.945c0-2.272 1.34-3.524 3.772-3.524 2.468 0 3.772 1.22 3.772 3.524V8.26c0 .113.038.222.108.31.21.265.3.592.253.923-.045.32-.216.608-.47.79-.092.067-.16.164-.19.275-.286 1.054-.766 1.955-1.385 2.603-.09.094-.138.217-.138.346v1.033c0 .048.007.097.02.144.11.364.44.728 1.036 1.145.228.158.54.103.696-.123.16-.228.105-.54-.12-.697zM19.05 14.214c-2.64 0-4.787 2.147-4.787 4.787 0 2.642 2.147 4.79 4.787 4.79s4.788-2.148 4.788-4.79c0-2.64-2.148-4.786-4.788-4.786zm0 8.575c-2.088 0-3.787-1.7-3.787-3.79 0-2.087 1.7-3.786 3.787-3.786 2.09 0 3.788 1.7 3.788 3.787 0 2.09-1.7 3.79-3.788 3.79z"/><path d="M20.7 17.452l-2.387 2.55-.912-.975c-.188-.2-.503-.21-.706-.023-.2.188-.212.505-.023.707l1.278 1.367c.004.004.01.005.013.01.005.003.007.01.01.013.03.027.066.043.1.062.02.01.035.027.056.035.06.025.124.038.188.038.063 0 .127-.013.187-.038.023-.01.04-.026.06-.037.033-.02.068-.033.096-.06l.01-.014c.004-.004.01-.005.013-.01l2.75-2.94c.188-.202.178-.52-.023-.707-.203-.19-.52-.18-.708.022z"/></svg>