<svg xmlns="http://www.w3.org/2000/svg" width="24" height="24" viewBox="0 0 24 24"><path d="M19.206 21.174c-5.334-2.143-6.25-3.04-6.4-3.318v-.707c.6-.69 1.068-1.585 1.365-2.61.373-.328.622-.793.692-1.3.073-.524-.044-1.044-.332-1.48V9.694c0-2.774-1.655-4.365-4.54-4.365-2.844 0-4.542 1.632-4.542 4.365v2.063c-.287.437-.404.955-.332 1.48.07.506.32.97.69 1.3.297 1.024.766 1.92 1.365 2.61v.706c-.147.28-1.062 1.174-6.398 3.318-.452.183-.744.623-.744 1.124v1.046c0 .276.224.5.5.5s.5-.224.5-.5v-1.046c0-.088.048-.168.118-.196 5.814-2.337 6.803-3.338 7.004-4.01.014-.046.02-.094.02-.143v-.993c0-.127-.047-.25-.135-.343-.582-.617-1.035-1.48-1.306-2.49-.03-.11-.097-.206-.19-.273-.233-.17-.39-.443-.433-.746-.043-.313.04-.624.235-.873.068-.088.106-.196.106-.308V9.694c0-2.17 1.258-3.365 3.542-3.365 2.35 0 3.54 1.132 3.54 3.365v2.223c0 .112.037.22.106.308.195.25.28.56.235.876-.04.302-.2.574-.434.745-.092.067-.158.164-.188.274-.272 1.012-.724 1.873-1.307 2.493-.086.093-.135.216-.135.343v.993c0 .048.007.096.02.143.203.673 1.193 1.675 7.007 4.01.068.026.116.107.116.195v1.046c0 .276.224.5.5.5s.5-.224.5-.5v-1.046c.002-.495-.298-.947-.742-1.124zM23 5h-3V2c0-.276-.223-.5-.5-.5s-.5.224-.5.5v3h-3c-.275 0-.5.224-.5.5s.225.5.5.5h3v3c0 .276.225.5.5.5s.5-.224.5-.5V6h3c.277 0 .5-.224.5-.5S23.278 5 23 5z"/></svg>