<svg xmlns="http://www.w3.org/2000/svg" width="24" height="24" viewBox="0 0 24 24"><path d="M23.69 20.593c-1.265-1.227-6.645-4.03-8.34-4.298-.062-.027-.128-.043-.196-.043v.022c-.106 0-.184.01-.237.038-.227.123-.322.397-.222.635.198.467.45.993.724 1.41-.964.38-2.53 1.324-3.422 3.465-.894-2.14-2.46-3.085-3.422-3.465.275-.417.527-.943.725-1.41.103-.24.004-.518-.227-.638-.875-.473-7.52 3.07-8.767 4.28-.19.186-.3.442-.3.706v1.725c0 .543.442.984.984.984h22.014c.542 0 .982-.44.982-.983v-1.724c.002-.263-.106-.52-.296-.703zM1.007 23.02l-.005-1.71c1.507-1.465 5.037-2.996 6.852-3.69-.154.266-.292.463-.375.526-.197.085-.318.287-.3.503.02.225.19.408.413.447.122.022 2.844.546 3.777 3.908l-10.362.016zm11.62-.016c.934-3.36 3.654-3.884 3.774-3.905.223-.04.41-.215.43-.44.022-.226-.095-.43-.308-.507-.076-.053-.212-.24-.377-.523 1.827.71 5.38 2.262 6.84 3.676l.018 1.7H12.63zM6.203 6.01c.208.062.422-.018.543-.182-.11.46-.168.933-.168 1.414 0 .503.062 1 .186 1.486-.347.33-.5.825-.383 1.338.11.485.434.85.866 1 .176 1.217.754 2.42 1.594 3.314-.004.52.017.702.09.848.093.183.292.308.49.308.068 0 .135-.015.198-.047.246-.127.36-.385.234-.63-.023-.128-.014-.43-.01-.68 0-.135-.054-.264-.15-.357-.846-.833-1.404-2.036-1.492-3.217-.02-.26-.252-.463-.514-.463-.238 0-.31-.208-.33-.296-.012-.056-.062-.34.2-.464.227-.107.34-.366.263-.605-.16-.496-.242-1.013-.242-1.536 0-.934.256-1.838.742-2.616.112-.18.1-.41-.034-.577-.123-.154-.323-.22-.51-.174.738-.928 1.974-1.846 3.98-1.752.27.015.5-.19.522-.46s-.177-.508-.446-.537c-.08-.01-.167-.025-.26-.047 1.19.045 2.474.414 3.29 1.583.128.18.362.255.57.187.037-.01.18-.005.34-.045-.043.047-.077.102-.1.164-.077.206-.008.44.168.572.047.035.864.666 1.125 1.72-.127-.075-.29-.093-.433-.034-.242.094-.372.356-.3.605.133.456.2.93.2 1.41 0 .523-.08 1.04-.24 1.534-.077.24.035.5.262.606.262.124.213.41.2.465-.02.088-.092.295-.345.295-.263 0-.48.202-.5.462-.088 1.182-.646 2.384-1.493 3.217-.098.096-.15.314-.148.45 0 .15.01.435-.01.57-.076.23.028.49.254.603.245.12.547.022.67-.227.067-.137.09-.31.086-.84.84-.892 1.417-2.094 1.595-3.31.43-.15.756-.515.865-1.002.115-.513-.036-1.01-.383-1.34.123-.482.186-.98.186-1.485v-.036c.12-.028.22-.078.273-.108.12-.07.208-.186.24-.322.238-1.038.022-1.907-.313-2.57.167.163.43.188.626.056.218-.147.285-.438.153-.666-.945-1.632-2.22-1.86-2.934-1.774C13.112-1.097 8.532.49 8.332.562c-.244.088-.38.35-.312.602s.32.407.577.36c.25-.048.5-.05.74-.022C6.68 2.55 5.873 5.362 5.863 5.397c-.072.262.08.534.34.612z"/></svg>