<?xml version="1.0" encoding="utf-8"?>
<!-- Generator: Adobe Illustrator 19.2.0, SVG Export Plug-In . SVG Version: 6.00 Build 0)  -->
<svg version="1.1" id="Layer_1" xmlns="http://www.w3.org/2000/svg" xmlns:xlink="http://www.w3.org/1999/xlink" x="0px" y="0px"
	 width="24px" height="24px" viewBox="0 0 24 24" style="enable-background:new 0 0 24 24;" xml:space="preserve">
<g>
	<path d="M17.932,3.495c-0.718,0.718-0.718,1.886,0,2.604c0.359,0.358,0.831,0.538,1.303,0.538s0.943-0.179,1.302-0.538
		c0.718-0.718,0.718-1.886,0-2.604C19.841,2.8,18.629,2.799,17.932,3.495z M19.829,5.392c-0.329,0.329-0.863,0.327-1.19,0
		c-0.328-0.328-0.328-0.862,0-1.19c0.159-0.159,0.371-0.247,0.596-0.247s0.436,0.087,0.595,0.247
		C20.157,4.53,20.157,5.064,19.829,5.392z"/>
	<path d="M21.989,2.042c-1.17-1.17-2.726-1.815-4.381-1.815c-1.654,0-3.21,0.645-4.38,1.814c-1.618,1.618-2.204,4.02-1.536,6.199
		L0.346,19.587c-0.144,0.144-0.187,0.361-0.107,0.549l0.839,1.981c0.079,0.186,0.26,0.305,0.46,0.305c0.006,0,0.012,0,0.018,0
		l3.285-0.12c0.22-0.009,0.409-0.159,0.465-0.371l0.666-2.505l2.903-0.566c0.209-0.041,0.37-0.211,0.399-0.422l0.513-3.654
		l2.722,0.065c0.148-0.002,0.269-0.05,0.366-0.146l2.505-2.505c2.262,0.873,4.88,0.332,6.607-1.395
		C24.404,8.387,24.404,4.457,21.989,2.042z M21.282,10.095c-1.517,1.517-3.853,1.941-5.812,1.056
		c-0.191-0.086-0.413-0.045-0.56,0.102l-2.59,2.591l-2.953-0.071c-0.267,0.026-0.472,0.18-0.507,0.431l-0.525,3.742l-2.86,0.559
		c-0.188,0.037-0.338,0.178-0.388,0.362l-0.651,2.449l-2.571,0.094l-0.574-1.354L12.618,8.728c0.138-0.138,0.183-0.342,0.116-0.525
		c-0.691-1.894-0.219-4.035,1.201-5.455c2.025-2.025,5.321-2.025,7.347,0S23.308,8.07,21.282,10.095z"/>
</g>
</svg>
