<?xml version="1.0" encoding="utf-8"?>
<!-- Generator: Adobe Illustrator 19.2.0, SVG Export Plug-In . SVG Version: 6.00 Build 0)  -->
<svg version="1.1" id="Layer_1" xmlns="http://www.w3.org/2000/svg" xmlns:xlink="http://www.w3.org/1999/xlink" x="0px" y="0px"
	 width="24px" height="24px" viewBox="0 0 24 24" style="enable-background:new 0 0 24 24;" xml:space="preserve">
<g>
	<path d="M19.767,17.944c-0.088-0.26-0.371-0.4-0.634-0.313c-0.262,0.088-0.402,0.372-0.313,0.634l1.338,3.958
		c0.02,0.045,0.03,0.089-0.024,0.171C19.937,22.686,19.202,23,18.421,23H5.55c-0.788,0-1.472-0.294-1.678-0.577
		c-0.07-0.097-0.069-0.165-0.047-0.231l1.327-3.943c0.088-0.262-0.053-0.545-0.314-0.633c-0.264-0.086-0.545,0.053-0.634,0.314
		l-1.328,3.949c-0.126,0.39-0.059,0.792,0.188,1.132C3.56,23.694,4.67,24,5.55,24h12.871c0.886,0,2.06-0.328,2.543-1.05
		c0.229-0.343,0.271-0.736,0.13-1.078L19.767,17.944z"/>
	<path d="M11.985,18.995c5.138,0,9.317-4.18,9.317-9.317s-4.18-9.317-9.317-9.317S2.668,4.54,2.668,9.677
		S6.848,18.995,11.985,18.995z M11.985,1.36c4.586,0,8.317,3.731,8.317,8.317c0,4.586-3.731,8.317-8.317,8.317
		c-4.586,0-8.317-3.731-8.317-8.317C3.668,5.091,7.399,1.36,11.985,1.36z"/>
	<path d="M11.985,15.43c1.981,0,3.592-1.611,3.592-3.592s-1.611-3.592-3.592-3.592s-3.592,1.611-3.592,3.592
		S10.004,15.43,11.985,15.43z M11.985,9.246c1.429,0,2.592,1.163,2.592,2.592s-1.163,2.592-2.592,2.592s-2.592-1.163-2.592-2.592
		S10.556,9.246,11.985,9.246z"/>
	<path d="M11.985,13.565c0.952,0,1.727-0.774,1.727-1.727c0-0.952-0.775-1.727-1.727-1.727c-0.953,0-1.728,0.775-1.728,1.727
		C10.257,12.791,11.032,13.565,11.985,13.565z M11.985,11.111c0.401,0,0.727,0.326,0.727,0.727c0,0.401-0.326,0.728-0.727,0.728
		c-0.401,0-0.728-0.326-0.728-0.728C11.257,11.437,11.583,11.111,11.985,11.111z"/>
</g>
</svg>
