<?xml version="1.0" encoding="utf-8"?>
<!-- Generator: Adobe Illustrator 19.2.0, SVG Export Plug-In . SVG Version: 6.00 Build 0)  -->
<svg version="1.1" id="Layer_1" xmlns="http://www.w3.org/2000/svg" xmlns:xlink="http://www.w3.org/1999/xlink" x="0px" y="0px"
	 width="24px" height="24px" viewBox="0 0 24 24" style="enable-background:new 0 0 24 24;" xml:space="preserve">
<g>
	<path d="M18.396,9h-1.41V5.036c0-2.549-2.289-4.702-5-4.702s-5,2.153-5,4.702V9H5.574c-1.452,0-2.632,1.164-2.63,2.643l0.941,9.76
		C3.885,22.835,5.065,24,6.517,24h10.937c1.452,0,2.633-1.174,2.631-2.569l0.945-9.844C21.029,10.136,19.873,9,18.396,9z
		 M7.986,5.036c0-2.007,1.832-3.702,4-3.702c2.167,0,4,1.695,4,3.702V9h-8V5.036z M19.086,21.383c0,0.892-0.732,1.617-1.633,1.617
		H6.517c-0.915,0-1.632-0.702-1.634-1.646l-0.941-9.76C3.941,10.7,4.658,10,5.574,10h12.823c0.916,0,1.633,0.697,1.635,1.539
		L19.086,21.383z"/>
	<path d="M11.984,14.051c-1.122,0-2.034,0.894-2.031,2.053l0.42,3.457C10.404,19.811,10.617,20,10.87,20h2.232
		c0.253,0,0.466-0.188,0.496-0.44l0.423-3.525C14.021,14.94,13.106,14.051,11.984,14.051z M12.658,19h-1.346l-0.362-2.957
		c0-0.557,0.454-0.992,1.034-0.992c0.581,0,1.037,0.432,1.041,0.924L12.658,19z"/>
</g>
</svg>
