<?xml version="1.0" encoding="utf-8"?>
<!-- Generator: Adobe Illustrator 19.2.0, SVG Export Plug-In . SVG Version: 6.00 Build 0)  -->
<svg version="1.1" id="Layer_1" xmlns="http://www.w3.org/2000/svg" xmlns:xlink="http://www.w3.org/1999/xlink" x="0px" y="0px"
	 width="24px" height="24px" viewBox="0 0 24 24" style="enable-background:new 0 0 24 24;" xml:space="preserve">
<g>
	<path d="M12.476,11.914c-0.055-0.271-0.318-0.449-0.589-0.392c-0.271,0.055-0.446,0.318-0.392,0.589
		c0.749,3.715-0.258,7.48-2.763,10.332c-0.183,0.208-0.162,0.523,0.045,0.706c0.095,0.083,0.213,0.124,0.33,0.124
		c0.139,0,0.277-0.058,0.375-0.17C12.196,20.015,13.286,15.936,12.476,11.914z"/>
	<path d="M15.216,11.418c-0.002-0.019-0.004-0.037-0.008-0.056c-0.174-0.862-0.673-1.604-1.405-2.091
		c-0.732-0.486-1.609-0.659-2.471-0.485c-1.778,0.359-2.933,2.098-2.575,3.876c0.005,0.026,0.013,0.051,0.021,0.075
		c0,0.001,0,0.003,0.001,0.003h0c0.084,0.219,0.323,0.357,0.558,0.314l-0.068-0.41l0.455-0.178l0.013-0.002c0-0.001,0-0.002,0-0.002
		l0.008-0.003c-0.005-0.027-0.013-0.052-0.023-0.077c-0.199-1.208,0.597-2.371,1.807-2.615c0.602-0.121,1.211-0.001,1.721,0.337
		c0.495,0.33,0.838,0.827,0.967,1.406c0.002,0.017,0.005,0.033,0.008,0.05c0.797,3.957-0.02,7.969-2.299,11.3
		c-0.156,0.228-0.098,0.539,0.13,0.695c0.086,0.059,0.185,0.087,0.282,0.087c0.16,0,0.316-0.076,0.413-0.218
		C15.174,19.885,16.048,15.624,15.216,11.418z"/>
	<path d="M9.447,13.896c-0.001,0-0.003,0-0.005,0c-0.276,0.003-0.498,0.229-0.495,0.505c0.028,2.583-1.043,5.081-2.937,6.854
		c-0.202,0.188-0.212,0.505-0.023,0.707c0.099,0.105,0.232,0.158,0.365,0.158c0.123,0,0.245-0.045,0.342-0.135
		c2.098-1.964,3.284-4.731,3.253-7.594C9.944,14.117,9.721,13.896,9.447,13.896z"/>
	<path d="M17.72,16.302c-0.271-0.039-0.524,0.158-0.56,0.433c-0.243,1.896-0.793,3.73-1.632,5.454
		c-0.121,0.248-0.018,0.547,0.23,0.668c0.07,0.034,0.145,0.051,0.219,0.051c0.185,0,0.363-0.104,0.449-0.281
		c0.888-1.821,1.468-3.761,1.726-5.765C18.188,16.589,17.994,16.338,17.72,16.302z"/>
	<path d="M15.343,6.955c-1.351-0.897-2.97-1.215-4.561-0.895c-1.59,0.321-2.96,1.241-3.857,2.592
		c-0.898,1.351-1.215,2.97-0.895,4.56c0.005,0.026,0.013,0.052,0.022,0.076c0.44,2.33-0.422,4.703-2.262,6.211
		c-0.213,0.175-0.245,0.49-0.07,0.703c0.099,0.121,0.242,0.184,0.387,0.184c0.111,0,0.224-0.037,0.316-0.113
		c2.147-1.76,3.142-4.541,2.594-7.259c-0.005-0.026-0.013-0.052-0.022-0.076c-0.242-1.303,0.027-2.626,0.762-3.733
		c0.75-1.128,1.895-1.897,3.222-2.165c1.33-0.269,2.681-0.002,3.81,0.747c1.128,0.75,1.896,1.895,2.164,3.223
		c0.266,1.314,0.38,2.667,0.339,4.021c-0.008,0.275,0.209,0.506,0.485,0.515c0.273,0.013,0.506-0.209,0.515-0.485
		c0.043-1.429-0.077-2.858-0.357-4.249C17.614,9.222,16.693,7.852,15.343,6.955z"/>
	<path d="M15.158,3.756c-0.256-0.101-0.547,0.028-0.646,0.287c-0.099,0.257,0.029,0.547,0.287,0.646
		c2.524,0.974,4.351,3.132,4.884,5.772c0.627,3.104,0.533,6.223-0.278,9.268c-0.071,0.267,0.088,0.541,0.354,0.612
		c0.043,0.012,0.087,0.017,0.129,0.017c0.222,0,0.424-0.147,0.483-0.371c0.851-3.196,0.949-6.468,0.291-9.723
		C20.062,7.286,18.004,4.853,15.158,3.756z"/>
	<path d="M3.73,10.644c0.038,0.009,0.075,0.013,0.112,0.013c0.228,0,0.434-0.157,0.487-0.388c0.689-3.009,3.083-5.346,6.1-5.955
		c0.902-0.182,1.835-0.199,2.77-0.052c0.266,0.038,0.528-0.143,0.572-0.417c0.043-0.272-0.144-0.529-0.416-0.572
		c-1.054-0.165-2.104-0.144-3.123,0.06c-3.402,0.686-6.101,3.321-6.877,6.711C3.293,10.314,3.461,10.582,3.73,10.644z"/>
	<path d="M4.288,13.564c-0.004-0.021-0.01-0.042-0.017-0.062c-0.1-0.518-0.147-1.054-0.14-1.594
		c0.003-0.276-0.218-0.503-0.494-0.506c-0.307-0.012-0.503,0.218-0.506,0.494c-0.008,0.632,0.05,1.26,0.172,1.866
		c0.004,0.021,0.01,0.04,0.016,0.06c0.239,1.298-0.234,2.627-1.245,3.482c-0.21,0.179-0.237,0.494-0.058,0.705
		c0.099,0.116,0.24,0.177,0.382,0.177c0.114,0,0.229-0.039,0.323-0.118C4.024,16.964,4.625,15.238,4.288,13.564z"/>
	<path d="M23.395,9.712c-0.005-0.026-0.013-0.051-0.021-0.075C22.07,3.39,15.944-0.658,9.683,0.607
		C8.046,0.936,6.531,1.598,5.18,2.573C4.956,2.735,4.905,3.047,5.067,3.271c0.161,0.225,0.474,0.275,0.698,0.113
		C7,2.493,8.385,1.888,9.88,1.587c5.749-1.159,11.369,2.574,12.528,8.323c0.005,0.025,0.012,0.049,0.021,0.072
		c0.145,0.744,0.21,1.499,0.195,2.245c-0.005,0.276,0.214,0.504,0.49,0.51c0.003,0,0.007,0,0.01,0c0.271,0,0.494-0.217,0.5-0.49
		C23.641,11.404,23.563,10.551,23.395,9.712z"/>
	<path d="M1.562,14.114c-0.005-0.025-0.012-0.051-0.021-0.075C0.864,10.554,1.962,6.983,4.485,4.47
		c0.196-0.195,0.197-0.512,0.002-0.707C4.291,3.567,3.975,3.566,3.78,3.761C1,6.53-0.198,10.474,0.576,14.312
		c0.005,0.027,0.013,0.053,0.022,0.078c0.029,0.14,0.061,0.279,0.095,0.417c0.056,0.229,0.261,0.381,0.485,0.381
		c0.04,0,0.08-0.005,0.12-0.015c0.268-0.065,0.432-0.336,0.367-0.604C1.627,14.419,1.593,14.267,1.562,14.114z"/>
</g>
</svg>
