<?xml version="1.0" encoding="utf-8"?>
<!-- Generator: Adobe Illustrator 19.2.0, SVG Export Plug-In . SVG Version: 6.00 Build 0)  -->
<svg version="1.1" id="Layer_1" xmlns="http://www.w3.org/2000/svg" xmlns:xlink="http://www.w3.org/1999/xlink" x="0px" y="0px"
	 width="24px" height="24px" viewBox="0 0 24 24" style="enable-background:new 0 0 24 24;" xml:space="preserve">
<g>
	<path d="M4.839,14.334c0.123,0.062,0.282,0.066,0.412,0.022c0.104-0.036,0.193-0.105,0.253-0.197
		c0.595-0.901,0.776-2.431,0.986-4.202c0.332-2.804,0.74-6.254,2.989-7.975c0.033,4.606,0.485,7.586,1.413,9.353
		c0.096,0.182,0.288,0.284,0.498,0.265c0.205-0.023,0.375-0.169,0.428-0.368c0.376-1.405,1.394-3.724,3.014-4.538
		c-0.942,1.839-0.451,4.343-0.029,5.782c0.077,0.264,0.352,0.417,0.62,0.339c0.265-0.078,0.417-0.355,0.339-0.621
		c-0.342-1.168-0.995-4.053,0.325-5.593c0.197-0.228,0.228-0.545,0.077-0.808c-0.147-0.259-0.44-0.396-0.725-0.344
		c-2.222,0.37-3.519,2.695-4.141,4.222c-0.551-1.794-0.821-4.515-0.821-8.251c0-0.252-0.136-0.486-0.356-0.61
		C9.901,0.687,9.631,0.69,9.414,0.82C6.347,2.661,5.875,6.641,5.497,9.84c-0.123,1.039-0.242,2.04-0.441,2.803
		C4.035,10.679,1.888,7.76,1.54,7.498C1.288,7.314,0.95,7.316,0.7,7.504c-0.249,0.187-0.344,0.509-0.237,0.8
		c0.524,1.44,0.35,3.125,0.166,4.909c-0.308,2.985-0.658,6.37,2.867,8.535l0.113,0.058c1.13,0.57,2.504,1.265,4.955,1.265
		c0.313,0,0.644-0.011,0.994-0.035c0.275-0.02,0.483-0.259,0.464-0.534s-0.266-0.485-0.534-0.464
		c-2.816,0.203-4.204-0.505-5.429-1.124l-0.077-0.037c-2.952-1.815-2.664-4.606-2.359-7.561c0.139-1.342,0.28-2.718,0.103-4.013
		c0.997,1.361,2.555,3.691,2.847,4.729C4.61,14.165,4.717,14.27,4.839,14.334z"/>
	<path d="M23.38,18c0.276,0,0.5-0.224,0.5-0.5s-0.224-0.5-0.5-0.5h-2.894h-2.5v-2h5.394c0.276,0,0.5-0.224,0.5-0.5
		s-0.224-0.5-0.5-0.5h-5.894h-6c-0.276,0-0.5,0.224-0.5,0.5v9c0,0.276,0.224,0.5,0.5,0.5h6h5.894c0.276,0,0.5-0.224,0.5-0.5
		s-0.224-0.5-0.5-0.5h-5.394v-2h2.5h2.894c0.276,0,0.5-0.224,0.5-0.5s-0.224-0.5-0.5-0.5h-2.394v-2H23.38z M11.986,15h5v2h-2.5h-2.5
		V15z M13.986,20h-2v-2h2V20z M16.986,23h-5v-2h2.5h2.5V23z M19.986,20h-2.5h-2.5v-2h2.5h2.5V20z"/>
</g>
</svg>
