<?xml version="1.0" encoding="utf-8"?>
<!-- Generator: Adobe Illustrator 19.2.0, SVG Export Plug-In . SVG Version: 6.00 Build 0)  -->
<svg version="1.1" id="Layer_1" xmlns="http://www.w3.org/2000/svg" xmlns:xlink="http://www.w3.org/1999/xlink" x="0px" y="0px"
	 width="24px" height="24px" viewBox="0 0 24 24" style="enable-background:new 0 0 24 24;" xml:space="preserve">
<g>
	<path d="M16.676,8.453V5.059c0-2.586-2.104-4.69-4.69-4.69s-4.69,2.104-4.69,4.69v3.394c-2.225,1.508-3.689,4.056-3.689,6.94
		c0,4.621,3.759,8.38,8.379,8.38c4.62,0,8.379-3.759,8.379-8.38C20.364,12.509,18.9,9.961,16.676,8.453z M8.295,5.059
		c0-2.035,1.655-3.69,3.69-3.69c2.035,0,3.69,1.655,3.69,3.69v2.823c-1.115-0.55-2.365-0.868-3.69-0.868
		c-1.325,0-2.575,0.318-3.69,0.868V5.059z M11.985,22.772c-4.069,0-7.379-3.311-7.379-7.38c0-4.069,3.311-7.379,7.379-7.379
		c4.068,0,7.379,3.31,7.379,7.379C19.364,19.462,16.054,22.772,11.985,22.772z"/>
	<path d="M13.825,12.904L13.018,13.7c-0.306-0.183-0.66-0.295-1.042-0.295c-1.125,0-2.04,0.915-2.04,2.04s0.915,2.041,2.04,2.041
		c1.125,0,2.041-0.916,2.041-2.041c0-0.38-0.111-0.731-0.292-1.036l0.804-0.793c0.196-0.194,0.198-0.51,0.005-0.707
		C14.338,12.712,14.022,12.71,13.825,12.904z M11.976,16.486c-0.573,0-1.04-0.467-1.04-1.041c0-0.573,0.467-1.04,1.04-1.04
		c0.285,0,0.543,0.116,0.732,0.302c0,0,0,0.001,0.001,0.001c0.001,0.001,0.003,0.001,0.004,0.003
		c0.188,0.188,0.304,0.448,0.304,0.734C13.017,16.019,12.55,16.486,11.976,16.486z"/>
	<path d="M17.718,14.945h-0.916c-0.276,0-0.5,0.224-0.5,0.5s0.224,0.5,0.5,0.5h0.916c0.276,0,0.5-0.224,0.5-0.5
		S17.994,14.945,17.718,14.945z"/>
	<path d="M7.661,15.445c0-0.276-0.224-0.5-0.5-0.5H6.245c-0.276,0-0.5,0.224-0.5,0.5s0.224,0.5,0.5,0.5h0.916
		C7.437,15.945,7.661,15.721,7.661,15.445z"/>
	<path d="M11.981,19.766c-0.276,0-0.5,0.224-0.5,0.5v0.916c0,0.276,0.224,0.5,0.5,0.5s0.5-0.224,0.5-0.5v-0.916
		C12.481,19.99,12.257,19.766,11.981,19.766z"/>
	<path d="M11.981,11.125c0.276,0,0.5-0.224,0.5-0.5V9.709c0-0.276-0.224-0.5-0.5-0.5s-0.5,0.224-0.5,0.5v0.916
		C11.481,10.901,11.705,11.125,11.981,11.125z"/>
	<path d="M15.486,12.44c0.128,0,0.256-0.049,0.354-0.146l0.648-0.647c0.195-0.195,0.195-0.512,0-0.708
		c-0.195-0.195-0.512-0.195-0.707,0l-0.648,0.647c-0.195,0.195-0.195,0.512,0,0.708C15.23,12.391,15.358,12.44,15.486,12.44z"/>
	<path d="M8.122,18.597l-0.647,0.647c-0.195,0.195-0.195,0.512,0,0.707c0.098,0.098,0.226,0.146,0.354,0.146
		s0.256-0.049,0.354-0.146l0.647-0.647c0.195-0.195,0.195-0.512,0-0.707S8.317,18.402,8.122,18.597z"/>
	<path d="M15.841,18.597c-0.195-0.195-0.512-0.195-0.707,0s-0.195,0.512,0,0.707l0.647,0.647c0.098,0.098,0.226,0.146,0.354,0.146
		s0.256-0.049,0.354-0.146c0.195-0.195,0.195-0.512,0-0.707L15.841,18.597z"/>
	<path d="M8.181,10.939c-0.195-0.195-0.512-0.195-0.707,0s-0.195,0.512,0,0.707l0.648,0.647c0.098,0.098,0.226,0.146,0.354,0.146
		s0.256-0.049,0.354-0.146c0.195-0.195,0.195-0.512,0-0.707L8.181,10.939z"/>
</g>
</svg>
