<?xml version="1.0" encoding="utf-8"?>
<!-- Generator: Adobe Illustrator 19.2.0, SVG Export Plug-In . SVG Version: 6.00 Build 0)  -->
<svg version="1.1" id="Layer_1" xmlns="http://www.w3.org/2000/svg" xmlns:xlink="http://www.w3.org/1999/xlink" x="0px" y="0px"
	 width="24px" height="24px" viewBox="0 0 24 24" style="enable-background:new 0 0 24 24;" xml:space="preserve">
<g>
	<path d="M23.486,0h-23c-0.276,0-0.5,0.224-0.5,0.5v20c0,0.276,0.224,0.5,0.5,0.5h2.499v2.5c0,0.276,0.224,0.5,0.5,0.5h4
		c0.276,0,0.5-0.224,0.5-0.5V21h8.001v2.5c0,0.276,0.224,0.5,0.5,0.5h4c0.276,0,0.5-0.224,0.5-0.5V21h2.5c0.276,0,0.5-0.224,0.5-0.5
		v-20C23.986,0.223,23.763,0,23.486,0z M6.985,23h-3v-2h3V23z M19.986,23h-3v-2h3V23z M22.986,20h-2.5h-4H7.485h-4H0.986V1h22V20z"
		/>
	<path d="M2.486,16h1.5v1.5c0,0.276,0.224,0.5,0.5,0.5h16c0.276,0,0.5-0.224,0.5-0.5v-14c0-0.276-0.224-0.5-0.5-0.5h-16
		c-0.276,0-0.5,0.224-0.5,0.5V6h-1.5c-0.276,0-0.5,0.224-0.5,0.5v2c0,0.276,0.224,0.5,0.5,0.5h1.5v4h-1.5
		c-0.276,0-0.5,0.224-0.5,0.5v2C1.986,15.776,2.21,16,2.486,16z M4.986,4h15v13h-15v-1.5v-2v-5v-2V4z M2.986,8V7h1v1H2.986z
		 M2.986,14h1v1h-1V14z"/>
	<path d="M12.477,15.016c2.485,0,4.506-2.021,4.506-4.506s-2.021-4.506-4.506-4.506c-2.484,0-4.506,2.021-4.506,4.506
		S9.993,15.016,12.477,15.016z M12.477,7.004c1.933,0,3.506,1.573,3.506,3.506s-1.573,3.506-3.506,3.506s-3.506-1.573-3.506-3.506
		S10.544,7.004,12.477,7.004z"/>
	<path d="M12.477,12.253c0.96,0,1.743-0.782,1.743-1.743c0-0.298-0.082-0.575-0.215-0.821l0.674-0.674
		c0.195-0.195,0.195-0.512,0-0.707s-0.512-0.195-0.707,0l-0.674,0.674c-0.246-0.133-0.523-0.215-0.821-0.215
		c-0.961,0-1.743,0.782-1.743,1.743S11.516,12.253,12.477,12.253z M12.477,9.767c0.205,0,0.39,0.083,0.524,0.218c0,0,0,0,0,0.001
		c0,0,0,0,0,0c0.134,0.135,0.217,0.32,0.217,0.525c0,0.41-0.333,0.743-0.743,0.743s-0.743-0.333-0.743-0.743
		S12.067,9.767,12.477,9.767z"/>
</g>
</svg>
