<?xml version="1.0" encoding="utf-8"?>
<!-- Generator: Adobe Illustrator 19.2.0, SVG Export Plug-In . SVG Version: 6.00 Build 0)  -->
<svg version="1.1" id="Layer_1" xmlns="http://www.w3.org/2000/svg" xmlns:xlink="http://www.w3.org/1999/xlink" x="0px" y="0px"
	 width="24px" height="24px" viewBox="0 0 24 24" style="enable-background:new 0 0 24 24;" xml:space="preserve">
<g>
	<path d="M9.444,15.578c-0.276,0-0.5,0.224-0.5,0.5v1.449c0,0.795-0.647,1.442-1.443,1.442H1.62c-0.276,0-0.5,0.224-0.5,0.5
		s0.224,0.5,0.5,0.5H7.5c1.347,0,2.443-1.096,2.443-2.442v-1.449C9.944,15.802,9.72,15.578,9.444,15.578z"/>
	<path d="M23.399,11.005l-0.715-0.186l0.255-0.308c0.317-0.383,0.415-0.896,0.261-1.37s-0.534-0.832-1.017-0.955L3.593,3.433
		C3.22,3.337,2.831,3.393,2.497,3.59C2.164,3.787,1.928,4.102,1.832,4.477l-1.59,6.219c-0.096,0.375-0.041,0.764,0.157,1.097
		s0.512,0.568,0.886,0.664l15.653,4.002c0.118,0.03,0.238,0.045,0.357,0.045c0.425,0,0.839-0.188,1.116-0.524l0.432-0.522
		l3.183,0.827c0.042,0.011,0.084,0.016,0.126,0.016c0.088,0,0.176-0.023,0.253-0.069c0.114-0.066,0.197-0.177,0.231-0.305
		l1.12-4.312C23.827,11.347,23.666,11.074,23.399,11.005z M17.188,15.49C17.188,15.49,17.188,15.49,17.188,15.49L1.533,11.488
		c-0.115-0.03-0.212-0.103-0.273-0.205s-0.078-0.223-0.048-0.339l1.59-6.219c0.03-0.116,0.103-0.213,0.205-0.274
		c0.07-0.042,0.148-0.063,0.228-0.063c0.037,0,0.074,0.005,0.111,0.014l18.591,4.753c0.214,0.055,0.291,0.225,0.313,0.295
		c0.023,0.071,0.062,0.253-0.079,0.423l-3.791,4.579l-0.101,0.121c0,0,0,0.001-0.001,0.001l-0.635,0.767
		C17.532,15.475,17.352,15.534,17.188,15.49z M21.795,15.191l-2.244-0.584l2.441-2.935l0.672,0.174L21.795,15.191z"/>
	<path d="M17.83,10.1c-0.2-0.19-0.53-0.18-0.71,0c-0.101,0.1-0.15,0.22-0.15,0.35c0,0.14,0.05,0.26,0.15,0.36
		c0.09,0.09,0.22,0.14,0.35,0.14s0.26-0.05,0.36-0.15c0.09-0.09,0.14-0.22,0.14-0.35C17.97,10.33,17.92,10.2,17.83,10.1z"/>
</g>
</svg>
