<?xml version="1.0" encoding="utf-8"?>
<!-- Generator: Adobe Illustrator 19.2.0, SVG Export Plug-In . SVG Version: 6.00 Build 0)  -->
<svg version="1.1" id="Layer_1" xmlns="http://www.w3.org/2000/svg" xmlns:xlink="http://www.w3.org/1999/xlink" x="0px" y="0px"
	 width="24px" height="24px" viewBox="0 0 24 24" style="enable-background:new 0 0 24 24;" xml:space="preserve">
<g>
	<path d="M23.029,3.092v-0.56c0-0.276-0.224-0.5-0.5-0.5s-0.5,0.224-0.5,0.5V3h-17V2.531c0-0.276-0.224-0.5-0.5-0.5
		s-0.5,0.224-0.5,0.5V3.05c-1.14,0.232-2,1.242-2,2.449v2c0,0.276,0.224,0.5,0.5,0.5h21c0.276,0,0.5-0.224,0.5-0.5v-3
		C24.029,3.849,23.61,3.299,23.029,3.092z M23.029,7h-20V5.5c0-0.827,0.672-1.499,1.498-1.5c0.001,0,0.001,0,0.002,0
		C4.53,4,4.531,4,4.532,4h17.995c0.001,0,0.002,0,0.002,0c0,0,0.001,0,0.001,0c0.275,0.001,0.499,0.224,0.499,0.5V7z"/>
	<path d="M7.431,10.016c0.276,0,0.5-0.224,0.5-0.5s-0.224-0.5-0.5-0.5H6.487c-0.276,0-0.5,0.224-0.5,0.5s0.224,0.5,0.5,0.5H7.431z"
		/>
	<path d="M5.727,20.65c-0.073,0.09-0.194,0.197-0.191,0.21H1.686c-0.032-0.149-0.131-0.282-0.281-0.351
		c-0.25-0.115-0.548-0.005-0.663,0.246c-0.114,0.248-0.098,0.526,0.043,0.746c0.146,0.228,0.403,0.358,0.704,0.358h4.046
		c0.47,0,0.863-0.447,0.972-0.585c0.171-0.215,0.136-0.528-0.079-0.7C6.213,20.402,5.899,20.436,5.727,20.65z"/>
	<path d="M21.562,8.547c-0.276,0-0.5,0.224-0.5,0.5V9.31L9.876,9.688c-0.204,0.007-0.383,0.137-0.453,0.329l-1.075,2.958
		c-0.361,0.148-0.671,0.572-0.85,1.2c-0.117,0.409-0.14,0.774-0.078,1.066c-0.207,0.216-0.38,0.539-0.497,0.95
		c-0.117,0.41-0.14,0.775-0.078,1.067c-0.207,0.216-0.38,0.539-0.497,0.948c-0.082,0.286-0.118,0.55-0.111,0.783
		c-1.926,0.019-4.295,0.041-4.406,0.042c-0.014-0.003-0.329-0.063-0.326-0.562c0.004-0.984,1.435-4.377,2.396-6.417
		c0.547-1.16,0.014-2.955-0.048-3.156c-0.082-0.263-0.36-0.409-0.626-0.329C2.963,8.652,2.816,8.932,2.898,9.196
		c0.129,0.413,0.423,1.745,0.099,2.432c-0.254,0.54-2.484,5.318-2.491,6.839c-0.005,1.066,0.753,1.48,1.185,1.555
		c0.013,0.001,0.032,0.004,0.261,0.004c0.438,0,1.644-0.008,5.042-0.043c0.249-0.003,0.458-0.187,0.491-0.433
		c0.027-0.204-0.073-0.399-0.244-0.499c-0.051-0.254,0.133-0.898,0.31-1.087c0.211-0.013,0.431-0.139,0.495-0.363
		c0.013-0.046,0.019-0.092,0.019-0.137c0-0.177-0.095-0.343-0.248-0.432c-0.051-0.254,0.132-0.897,0.309-1.086
		c0.215,0.001,0.43-0.139,0.495-0.363c0.013-0.046,0.019-0.092,0.019-0.137c0-0.177-0.095-0.343-0.248-0.432
		c-0.051-0.254,0.133-0.897,0.31-1.086c0.002,0,0.003-0.001,0.004-0.001c0.002,0,0.004,0.001,0.006,0.001l4.668,0.032
		c0.033,0.002,0.066,0.003,0.1,0.003c0.508,0,0.987-0.191,1.358-0.545c0.395-0.376,0.612-0.884,0.612-1.429V10.5l6.129-0.207
		c0.27-0.009,0.483-0.23,0.483-0.5V9.047C22.062,8.77,21.839,8.547,21.562,8.547z M14.45,11.99c0,0.269-0.107,0.519-0.303,0.705
		c-0.194,0.185-0.45,0.285-0.739,0.267l-3.981-0.028l0.82-2.257l0.836-0.028c-0.042,0.56-0.027,1.267,0.252,1.642
		c0.099,0.133,0.251,0.203,0.405,0.203c0.104,0,0.208-0.032,0.296-0.098c0.222-0.165,0.27-0.476,0.104-0.697
		c-0.075-0.126-0.09-0.591-0.049-1.083l2.358-0.08V11.99z"/>
</g>
</svg>
