<?xml version="1.0" encoding="utf-8"?>
<!-- Generator: Adobe Illustrator 19.2.0, SVG Export Plug-In . SVG Version: 6.00 Build 0)  -->
<svg version="1.1" id="Layer_1" xmlns="http://www.w3.org/2000/svg" xmlns:xlink="http://www.w3.org/1999/xlink" x="0px" y="0px"
	 width="24px" height="24px" viewBox="0 0 24 24" style="enable-background:new 0 0 24 24;" xml:space="preserve">
<g>
	<path d="M6.341,7.97C6.202,7.73,5.896,7.649,5.658,7.787L5.057,8.134V7.44c0-0.276-0.224-0.5-0.5-0.5s-0.5,0.224-0.5,0.5v0.694
		L3.456,7.787C3.217,7.649,2.911,7.73,2.773,7.97C2.635,8.209,2.717,8.515,2.956,8.653L3.557,9L2.956,9.347
		C2.717,9.485,2.635,9.791,2.773,10.03c0.093,0.161,0.261,0.25,0.434,0.25c0.085,0,0.171-0.021,0.25-0.067l0.601-0.347v0.694
		c0,0.276,0.224,0.5,0.5,0.5s0.5-0.224,0.5-0.5V9.866l0.601,0.347c0.079,0.045,0.165,0.067,0.25,0.067
		c0.173,0,0.341-0.089,0.434-0.25c0.138-0.239,0.056-0.545-0.183-0.683L5.557,9l0.601-0.347C6.397,8.515,6.479,8.209,6.341,7.97z"/>
	<path d="M11.341,7.97c-0.139-0.24-0.445-0.321-0.683-0.183l-0.601,0.347V7.44c0-0.276-0.224-0.5-0.5-0.5s-0.5,0.224-0.5,0.5v0.694
		L8.457,7.787C8.218,7.649,7.912,7.73,7.773,7.97C7.635,8.209,7.717,8.515,7.957,8.653L8.557,9L7.957,9.347
		C7.717,9.485,7.635,9.791,7.773,10.03c0.093,0.161,0.261,0.25,0.434,0.25c0.085,0,0.171-0.021,0.25-0.067l0.601-0.347v0.694
		c0,0.276,0.224,0.5,0.5,0.5s0.5-0.224,0.5-0.5V9.866l0.601,0.347c0.079,0.045,0.165,0.067,0.25,0.067
		c0.173,0,0.341-0.089,0.434-0.25c0.138-0.239,0.056-0.545-0.183-0.683L10.557,9l0.601-0.347C11.397,8.515,11.479,8.209,11.341,7.97
		z"/>
	<path d="M12.774,10.03c0.093,0.161,0.261,0.25,0.433,0.25c0.085,0,0.171-0.021,0.25-0.067l0.601-0.347v0.694
		c0,0.276,0.224,0.5,0.5,0.5s0.5-0.224,0.5-0.5V9.866l0.601,0.347c0.079,0.045,0.165,0.067,0.25,0.067
		c0.172,0,0.341-0.089,0.433-0.25c0.139-0.239,0.057-0.545-0.183-0.683L15.557,9l0.601-0.347c0.239-0.138,0.321-0.444,0.183-0.683
		c-0.138-0.24-0.444-0.32-0.683-0.183l-0.601,0.347V7.44c0-0.276-0.224-0.5-0.5-0.5s-0.5,0.224-0.5,0.5v0.694l-0.601-0.347
		c-0.238-0.136-0.544-0.057-0.683,0.183c-0.138,0.239-0.056,0.545,0.183,0.683L13.558,9l-0.601,0.347
		C12.718,9.485,12.636,9.791,12.774,10.03z"/>
	<path d="M17.774,10.03c0.092,0.161,0.261,0.25,0.433,0.25c0.085,0,0.171-0.021,0.25-0.067l0.601-0.347v0.694
		c0,0.276,0.224,0.5,0.5,0.5s0.5-0.224,0.5-0.5V9.866l0.601,0.347c0.079,0.045,0.165,0.067,0.25,0.067
		c0.172,0,0.341-0.089,0.433-0.25c0.139-0.239,0.057-0.545-0.183-0.683L20.557,9l0.601-0.347c0.239-0.138,0.321-0.444,0.183-0.683
		c-0.138-0.24-0.444-0.32-0.683-0.183l-0.601,0.347V7.44c0-0.276-0.224-0.5-0.5-0.5s-0.5,0.224-0.5,0.5v0.694l-0.601-0.347
		c-0.238-0.136-0.545-0.057-0.683,0.183c-0.139,0.239-0.057,0.545,0.183,0.683L18.558,9l-0.601,0.347
		C17.718,9.485,17.636,9.791,17.774,10.03z"/>
	<path d="M23.532,4h-23c-0.276,0-0.5,0.224-0.5,0.5v9c0,0.276,0.224,0.5,0.5,0.5H12.49c0.276,0,0.5-0.224,0.5-0.5
		s-0.224-0.5-0.5-0.5H1.032V5h22v8h-0.483c-0.276,0-0.5,0.224-0.5,0.5s0.224,0.5,0.5,0.5h0.983c0.276,0,0.5-0.224,0.5-0.5v-9
		C24.032,4.223,23.809,4,23.532,4z"/>
	<path d="M17.561,12.107c-2.426,0-4.398,1.973-4.398,4.398c0,2.425,1.973,4.397,4.398,4.397s4.398-1.973,4.398-4.397
		C21.959,14.08,19.986,12.107,17.561,12.107z M17.561,19.903c-1.874,0-3.398-1.524-3.398-3.397c0-1.874,1.524-3.398,3.398-3.398
		s3.398,1.524,3.398,3.398C20.959,18.379,19.435,19.903,17.561,19.903z"/>
	<path d="M19.38,14.686c-0.195-0.195-0.512-0.195-0.707,0l-1.112,1.112l-1.112-1.112c-0.195-0.195-0.512-0.195-0.707,0
		s-0.195,0.512,0,0.707l1.112,1.112l-1.112,1.112c-0.195,0.195-0.195,0.512,0,0.707c0.098,0.098,0.226,0.146,0.354,0.146
		s0.256-0.049,0.354-0.146l1.112-1.112l1.112,1.112c0.098,0.098,0.226,0.146,0.354,0.146s0.256-0.049,0.354-0.146
		c0.195-0.195,0.195-0.512,0-0.707l-1.112-1.112l1.112-1.112C19.575,15.198,19.575,14.882,19.38,14.686z"/>
</g>
</svg>
