<?xml version="1.0" encoding="utf-8"?>
<!-- Generator: Adobe Illustrator 19.2.0, SVG Export Plug-In . SVG Version: 6.00 Build 0)  -->
<svg version="1.1" id="Layer_1" xmlns="http://www.w3.org/2000/svg" xmlns:xlink="http://www.w3.org/1999/xlink" x="0px" y="0px"
	 width="24px" height="24px" viewBox="0 0 24 24" style="enable-background:new 0 0 24 24;" xml:space="preserve">
<g>
	<path d="M18.401,9h-1.415V5.036c0-2.549-2.289-4.702-5-4.702s-5,2.153-5,4.702c0,0.276,0.224,0.5,0.5,0.5s0.5-0.224,0.5-0.5
		c0-2.007,1.832-3.702,4-3.702c2.167,0,4,1.695,4,3.702V9H5.578c-1.451,0-2.632,1.164-2.629,2.643l0.941,9.76
		C3.89,22.835,5.07,24,6.521,24h10.937c1.452,0,2.633-1.174,2.631-2.569l0.945-9.844C21.034,10.136,19.878,9,18.401,9z
		 M19.091,21.383c0,0.892-0.732,1.617-1.633,1.617H6.521c-0.915,0-1.632-0.702-1.634-1.646l-0.941-9.76
		C3.946,10.7,4.663,10,5.578,10h12.823c0.916,0,1.633,0.697,1.635,1.539L19.091,21.383z"/>
	<path d="M11.989,14.051c-1.122,0-2.034,0.894-2.031,2.053l0.42,3.457C10.409,19.811,10.622,20,10.875,20h2.232
		c0.253,0,0.466-0.189,0.496-0.44l0.422-3.525C14.024,14.94,13.111,14.051,11.989,14.051z M12.663,19h-1.346l-0.362-2.957
		c0-0.557,0.454-0.992,1.034-0.992c0.581,0,1.036,0.432,1.04,0.924L12.663,19z"/>
</g>
</svg>
