<?xml version="1.0" encoding="utf-8"?>
<!-- Generator: Adobe Illustrator 19.2.0, SVG Export Plug-In . SVG Version: 6.00 Build 0)  -->
<svg version="1.1" id="Layer_1" xmlns="http://www.w3.org/2000/svg" xmlns:xlink="http://www.w3.org/1999/xlink" x="0px" y="0px"
	 width="24px" height="24px" viewBox="0 0 24 24" style="enable-background:new 0 0 24 24;" xml:space="preserve">
<g>
	<path d="M6.338,7.97C6.199,7.73,5.893,7.649,5.655,7.787L5.054,8.134V7.44c0-0.276-0.224-0.5-0.5-0.5s-0.5,0.224-0.5,0.5v0.693
		L3.453,7.787C3.214,7.649,2.908,7.73,2.77,7.97C2.632,8.209,2.714,8.515,2.953,8.653L3.554,9L2.953,9.347
		C2.714,9.485,2.632,9.791,2.77,10.03c0.093,0.161,0.261,0.25,0.434,0.25c0.085,0,0.171-0.021,0.25-0.067l0.601-0.347v0.693
		c0,0.276,0.224,0.5,0.5,0.5s0.5-0.224,0.5-0.5V9.866l0.601,0.347c0.079,0.045,0.165,0.067,0.25,0.067
		c0.173,0,0.341-0.089,0.434-0.25c0.138-0.239,0.056-0.545-0.183-0.683L5.554,9l0.601-0.347C6.394,8.515,6.476,8.209,6.338,7.97z"/>
	<path d="M11.338,7.97c-0.139-0.24-0.446-0.321-0.683-0.183l-0.601,0.347V7.44c0-0.276-0.224-0.5-0.5-0.5s-0.5,0.224-0.5,0.5v0.694
		L8.454,7.787C8.215,7.649,7.909,7.73,7.771,7.97C7.632,8.209,7.714,8.515,7.954,8.653L8.554,9L7.954,9.347
		C7.714,9.485,7.632,9.791,7.771,10.03c0.093,0.161,0.261,0.25,0.434,0.25c0.085,0,0.171-0.021,0.25-0.067l0.601-0.347v0.694
		c0,0.276,0.224,0.5,0.5,0.5s0.5-0.224,0.5-0.5V9.866l0.601,0.347c0.079,0.045,0.165,0.067,0.25,0.067
		c0.173,0,0.341-0.089,0.434-0.25c0.138-0.239,0.056-0.545-0.183-0.683L10.554,9l0.601-0.347C11.394,8.515,11.476,8.209,11.338,7.97
		z"/>
	<path d="M12.771,10.03c0.093,0.161,0.261,0.25,0.433,0.25c0.085,0,0.171-0.021,0.25-0.067l0.601-0.347v0.694
		c0,0.276,0.224,0.5,0.5,0.5s0.5-0.224,0.5-0.5V9.866l0.601,0.347c0.079,0.045,0.165,0.067,0.25,0.067
		c0.172,0,0.341-0.089,0.433-0.25c0.139-0.239,0.057-0.545-0.183-0.683L15.555,9l0.601-0.347c0.239-0.138,0.321-0.444,0.183-0.683
		c-0.138-0.24-0.444-0.32-0.683-0.183l-0.601,0.347V7.44c0-0.276-0.224-0.5-0.5-0.5s-0.5,0.224-0.5,0.5v0.694l-0.601-0.347
		C13.216,7.651,12.91,7.73,12.771,7.97c-0.138,0.239-0.056,0.545,0.183,0.683L13.555,9l-0.601,0.347
		C12.715,9.485,12.633,9.791,12.771,10.03z"/>
	<path d="M17.771,10.03c0.092,0.161,0.261,0.25,0.433,0.25c0.085,0,0.171-0.021,0.25-0.067l0.601-0.347v0.694
		c0,0.276,0.224,0.5,0.5,0.5s0.5-0.224,0.5-0.5V9.866l0.601,0.347c0.079,0.045,0.165,0.067,0.25,0.067
		c0.172,0,0.341-0.089,0.433-0.25c0.139-0.239,0.057-0.545-0.183-0.683L20.555,9l0.601-0.347c0.239-0.138,0.321-0.444,0.183-0.683
		c-0.138-0.24-0.444-0.32-0.683-0.183l-0.601,0.347V7.44c0-0.276-0.224-0.5-0.5-0.5s-0.5,0.224-0.5,0.5v0.694l-0.601-0.347
		c-0.238-0.136-0.545-0.057-0.683,0.183c-0.139,0.239-0.057,0.545,0.183,0.683L18.555,9l-0.601,0.347
		C17.715,9.485,17.633,9.791,17.771,10.03z"/>
	<path d="M23.529,4h-23c-0.276,0-0.5,0.224-0.5,0.5v9c0,0.276,0.224,0.5,0.5,0.5h11.958c0.276,0,0.5-0.224,0.5-0.5
		s-0.224-0.5-0.5-0.5H1.029V5h22v8h-0.484c-0.276,0-0.5,0.224-0.5,0.5s0.224,0.5,0.5,0.5h0.984c0.276,0,0.5-0.224,0.5-0.5v-9
		C24.029,4.223,23.806,4,23.529,4z"/>
	<path d="M17.558,12.107c-2.426,0-4.398,1.973-4.398,4.398c0,2.425,1.973,4.397,4.398,4.397s4.398-1.973,4.398-4.397
		C21.956,14.08,19.983,12.107,17.558,12.107z M17.558,19.903c-1.874,0-3.398-1.524-3.398-3.397c0-1.874,1.524-3.398,3.398-3.398
		s3.398,1.524,3.398,3.398C20.956,18.379,19.432,19.903,17.558,19.903z"/>
	<path d="M18.933,15.133l-2.011,2.15l-0.738-0.789c-0.188-0.201-0.504-0.212-0.707-0.023c-0.201,0.188-0.212,0.505-0.023,0.707
		l1.104,1.18c0.004,0.004,0.009,0.005,0.013,0.009c0.004,0.004,0.006,0.01,0.01,0.014c0.028,0.026,0.063,0.041,0.095,0.06
		c0.021,0.012,0.038,0.029,0.06,0.037c0.06,0.024,0.123,0.038,0.187,0.038s0.127-0.013,0.187-0.038
		c0.022-0.009,0.039-0.026,0.06-0.037c0.032-0.019,0.067-0.033,0.095-0.06c0.004-0.004,0.006-0.01,0.01-0.014
		c0.004-0.004,0.01-0.005,0.013-0.009l2.376-2.54c0.188-0.202,0.178-0.519-0.023-0.707C19.438,14.921,19.121,14.932,18.933,15.133z"
		/>
</g>
</svg>
