<?xml version="1.0" encoding="utf-8"?>
<!-- Generator: Adobe Illustrator 19.2.0, SVG Export Plug-In . SVG Version: 6.00 Build 0)  -->
<svg version="1.1" id="Layer_1" xmlns="http://www.w3.org/2000/svg" xmlns:xlink="http://www.w3.org/1999/xlink" x="0px" y="0px"
	 width="24px" height="24px" viewBox="0 0 24 24" style="enable-background:new 0 0 24 24;" xml:space="preserve">
<path d="M21.461,4.314c-0.301-0.227-0.681-0.295-1.04-0.194l0.137,0.481L20.42,4.12c-0.005,0.001-0.507,0.139-1.273,0.139
	c-1.681,0-4.118-0.626-6.19-3.609c-0.213-0.307-0.577-0.49-0.971-0.49c0,0,0,0-0.001,0c-0.395,0-0.757,0.184-0.97,0.49
	C8.465,4.319,4.9,4.576,3.558,4.122C3.197,4.016,2.816,4.084,2.514,4.309C2.212,4.534,2.039,4.88,2.039,5.256v6.426
	c0,9.324,9.538,12.057,9.638,12.084c0.103,0.027,0.207,0.041,0.309,0.041c0.101,0,0.205-0.014,0.311-0.042
	c0.096-0.026,9.636-2.731,9.636-12.083V5.256C21.932,4.883,21.76,4.54,21.461,4.314z M20.932,11.682
	c0,8.545-8.811,11.094-8.993,11.119c-0.089-0.025-8.9-2.583-8.9-11.119V5.256c0-0.079,0.046-0.125,0.073-0.146
	c0.022-0.017,0.063-0.04,0.109-0.04c0.011,0,0.023,0.001,0.034,0.005C5.1,5.7,9.064,5.208,11.835,1.221
	c0.051-0.073,0.25-0.072,0.3,0c2.319,3.337,5.092,4.038,7.011,4.038c0.857,0,1.433-0.146,1.548-0.178v0
	c0.076-0.021,0.13,0.005,0.163,0.03c0.022,0.017,0.074,0.064,0.074,0.145V11.682z"/>
</svg>
