<?xml version="1.0" encoding="utf-8"?>
<!-- Generator: Adobe Illustrator 19.2.0, SVG Export Plug-In . SVG Version: 6.00 Build 0)  -->
<svg version="1.1" id="Layer_1" xmlns="http://www.w3.org/2000/svg" xmlns:xlink="http://www.w3.org/1999/xlink" x="0px" y="0px"
	 width="24px" height="24px" viewBox="0 0 24 24" style="enable-background:new 0 0 24 24;" xml:space="preserve">
<g>
	<path d="M16.471,11.331c-0.003,0-0.005,0-0.007,0c-1.292,0.002-2.488,0.705-3.133,1.813l-8.664,0.016
		c-0.203,0-0.386,0.124-0.462,0.312L3.76,14.567C3.682,14.76,3.73,14.98,3.883,15.122l1.318,1.224
		c0.162,0.149,0.401,0.175,0.591,0.066L6.9,15.768l1.226,0.824c0.177,0.118,0.41,0.111,0.58-0.016l1.458-1.1l0.888,0.932
		c0.094,0.1,0.248,0.11,0.363,0.155l1.797-0.004c0.602,1.219,1.859,2.015,3.234,2.015c0.002,0,0.005,0,0.008,0
		c1.995-0.003,3.622-1.63,3.627-3.627c0.002-0.968-0.374-1.877-1.057-2.56C18.343,11.706,17.437,11.331,16.471,11.331z
		 M16.452,17.575c-0.002,0-0.004,0-0.006,0c-1.079,0-2.059-0.679-2.439-1.691c-0.073-0.195-0.26-0.324-0.468-0.324h-0.001
		l-1.911,0.004l-1.047-1.099c-0.176-0.186-0.46-0.208-0.663-0.055l-1.529,1.153l-1.19-0.8c-0.159-0.106-0.364-0.113-0.53-0.018
		L5.61,15.361l-0.793-0.737l0.188-0.464l8.63-0.016c0.194,0,0.37-0.113,0.452-0.289c0.432-0.923,1.365-1.522,2.379-1.524
		c0.001,0,0.003,0,0.005,0c0.698,0,1.354,0.271,1.847,0.764c0.493,0.494,0.765,1.151,0.764,1.851
		C19.078,16.393,17.898,17.572,16.452,17.575z"/>
	<path d="M17.052,13.717c-0.682,0-1.235,0.554-1.235,1.235s0.554,1.235,1.235,1.235s1.235-0.554,1.235-1.235
		S17.733,13.717,17.052,13.717z M16.816,14.952c0-0.13,0.105-0.235,0.235-0.235s0.235,0.105,0.235,0.235
		C17.287,15.212,16.816,15.212,16.816,14.952z"/>
	<path d="M21.434,6.008H2.608c-1.449,0-2.627,1.179-2.627,2.627v12.748c0,1.448,1.178,2.627,2.627,2.627h18.825
		c1.448,0,2.627-1.179,2.627-2.627V8.635C24.061,7.186,22.882,6.008,21.434,6.008z M23.061,21.383c0,0.897-0.729,1.627-1.627,1.627
		H2.608c-0.897,0-1.627-0.729-1.627-1.627V8.635c0-0.897,0.73-1.627,1.627-1.627h18.825c0.897,0,1.627,0.73,1.627,1.627V21.383z"/>
	<path d="M8.494,5.007c0.276,0,0.5-0.224,0.5-0.5V4.135c0-0.654,0.576-1.187,1.285-1.187h3.485c0.708,0,1.284,0.533,1.284,1.187
		v0.372c0,0.276,0.224,0.5,0.5,0.5s0.5-0.224,0.5-0.5V4.135c0-1.206-1.024-2.187-2.284-2.187h-3.485
		c-1.26,0-2.285,0.981-2.285,2.187v0.372C7.994,4.783,8.218,5.007,8.494,5.007z"/>
</g>
</svg>
