<?xml version="1.0" encoding="utf-8"?>
<!-- Generator: Adobe Illustrator 19.2.0, SVG Export Plug-In . SVG Version: 6.00 Build 0)  -->
<svg version="1.1" id="Layer_1" xmlns="http://www.w3.org/2000/svg" xmlns:xlink="http://www.w3.org/1999/xlink" x="0px" y="0px"
	 width="24px" height="24px" viewBox="0 0 24 24" style="enable-background:new 0 0 24 24;" xml:space="preserve">
<g>
	<path d="M19.014,16.378c0-1.183-1.155-1.609-2.015-1.348c-0.009-0.426-0.18-0.803-0.489-1.063c-0.435-0.365-1.12-0.461-1.677-0.218
		c-0.081-0.159-0.193-0.301-0.334-0.419c-0.395-0.331-0.991-0.444-1.519-0.276v-2.501c0-0.439-0.175-0.829-0.492-1.096
		c-0.807-0.678-2.519-0.34-2.519,1.096v6.478c-0.368-0.622-0.829-1.178-1.367-1.39c-0.396-0.155-0.802-0.123-1.177,0.094
		c-0.275,0.159-0.458,0.418-0.529,0.748c-0.292,1.355,1.435,4.007,3.344,6.669l0.327,0.46c0.097,0.14,0.252,0.214,0.411,0.214
		c0.099,0,0.198-0.029,0.285-0.09c0.227-0.157,0.282-0.47,0.125-0.696l-0.334-0.47c-2.268-3.163-3.338-5.141-3.179-5.877
		c0.015-0.071,0.037-0.084,0.053-0.093c0.109-0.062,0.2-0.072,0.309-0.028c0.652,0.257,1.419,1.928,1.755,3.032
		c0.072,0.236,0.31,0.389,0.552,0.349c0.245-0.036,0.426-0.246,0.426-0.494v-8.905c0-0.428,0.422-0.45,0.507-0.45
		c0.144,0,0.278,0.044,0.369,0.12c0.091,0.077,0.136,0.185,0.136,0.33v3.873v2.323c0,0.276,0.224,0.5,0.5,0.5s0.5-0.224,0.5-0.5
		v-2.323c0-0.429,0.422-0.45,0.506-0.45c0.144,0,0.278,0.044,0.369,0.12c0.092,0.077,0.136,0.185,0.136,0.33v0.637v1.995
		c0,0.276,0.224,0.5,0.5,0.5s0.5-0.224,0.5-0.5v-1.995c0-0.429,0.422-0.45,0.506-0.45c0.144,0,0.278,0.044,0.369,0.12
		c0.092,0.076,0.136,0.185,0.136,0.33v1.315c0,0.002,0.001,0.003,0.001,0.005v1.021c0,0.276,0.224,0.5,0.5,0.5s0.5-0.224,0.5-0.5
		v-1.025c0-0.429,0.421-0.451,0.505-0.451s0.506,0.022,0.506,0.473c0.002,0.035,0.136,3.509-1.038,6.756
		c-0.094,0.26,0.041,0.546,0.301,0.641c0.056,0.02,0.113,0.029,0.17,0.029c0.205,0,0.396-0.127,0.471-0.33
		C19.156,20.064,19.02,16.506,19.014,16.378z"/>
	<path d="M6.611,3.298c0.871,0,1.579-0.708,1.579-1.578c0-0.871-0.708-1.579-1.579-1.579c-0.87,0-1.578,0.708-1.578,1.579
		C5.033,2.59,5.741,3.298,6.611,3.298z M6.611,1.141c0.319,0,0.579,0.26,0.579,0.579S6.93,2.298,6.611,2.298S6.033,2.039,6.033,1.72
		S6.292,1.141,6.611,1.141z"/>
	<path d="M11.406,3.298c0.871,0,1.579-0.708,1.579-1.578c0-0.871-0.708-1.579-1.579-1.579c-0.87,0-1.578,0.708-1.578,1.579
		C9.828,2.59,10.536,3.298,11.406,3.298z M11.406,1.141c0.319,0,0.579,0.26,0.579,0.579s-0.26,0.578-0.579,0.578
		s-0.578-0.259-0.578-0.578S11.087,1.141,11.406,1.141z"/>
	<path d="M16.2,3.298c0.871,0,1.579-0.708,1.579-1.578c0-0.871-0.708-1.579-1.579-1.579c-0.87,0-1.578,0.708-1.578,1.579
		C14.622,2.59,15.33,3.298,16.2,3.298z M16.2,1.141c0.319,0,0.579,0.26,0.579,0.579S16.52,2.298,16.2,2.298
		c-0.318,0-0.578-0.259-0.578-0.578S15.882,1.141,16.2,1.141z"/>
	<path d="M6.611,7.622c0.871,0,1.579-0.708,1.579-1.579c0-0.87-0.708-1.578-1.579-1.578c-0.87,0-1.578,0.708-1.578,1.578
		C5.033,6.914,5.741,7.622,6.611,7.622z M6.611,5.466c0.319,0,0.579,0.259,0.579,0.578S6.93,6.622,6.611,6.622
		s-0.578-0.26-0.578-0.579S6.292,5.466,6.611,5.466z"/>
	<path d="M11.406,7.622c0.871,0,1.579-0.708,1.579-1.579c0-0.87-0.708-1.578-1.579-1.578c-0.87,0-1.578,0.708-1.578,1.578
		C9.828,6.914,10.536,7.622,11.406,7.622z M11.406,5.466c0.319,0,0.579,0.259,0.579,0.578s-0.26,0.579-0.579,0.579
		s-0.578-0.26-0.578-0.579S11.087,5.466,11.406,5.466z"/>
	<path d="M16.2,7.622c0.871,0,1.579-0.708,1.579-1.579c0-0.87-0.708-1.578-1.579-1.578c-0.87,0-1.578,0.708-1.578,1.578
		C14.622,6.914,15.33,7.622,16.2,7.622z M16.2,5.466c0.319,0,0.579,0.259,0.579,0.578S16.52,6.622,16.2,6.622
		c-0.318,0-0.578-0.26-0.578-0.579S15.882,5.466,16.2,5.466z"/>
	<path d="M8.189,10.368c0-0.871-0.708-1.579-1.579-1.579c-0.87,0-1.578,0.708-1.578,1.579s0.708,1.579,1.578,1.579
		C7.481,11.947,8.189,11.239,8.189,10.368z M6.611,10.947c-0.319,0-0.578-0.26-0.578-0.579s0.259-0.579,0.578-0.579
		s0.579,0.26,0.579,0.579S6.93,10.947,6.611,10.947z"/>
	<path d="M16.2,11.947c0.871,0,1.579-0.708,1.579-1.579S17.071,8.789,16.2,8.789c-0.87,0-1.578,0.708-1.578,1.579
		S15.33,11.947,16.2,11.947z M16.2,9.789c0.319,0,0.579,0.26,0.579,0.579s-0.26,0.579-0.579,0.579c-0.318,0-0.578-0.26-0.578-0.579
		S15.882,9.789,16.2,9.789z"/>
</g>
</svg>
