<?xml version="1.0" encoding="utf-8"?>
<!-- Generator: Adobe Illustrator 19.2.0, SVG Export Plug-In . SVG Version: 6.00 Build 0)  -->
<svg version="1.1" id="Layer_1" xmlns="http://www.w3.org/2000/svg" xmlns:xlink="http://www.w3.org/1999/xlink" x="0px" y="0px"
	 width="24px" height="24px" viewBox="0 0 24 24" style="enable-background:new 0 0 24 24;" xml:space="preserve">
<g>
	<path d="M9.714,5.035c0.093,0.161,0.261,0.25,0.434,0.25c0.085,0,0.171-0.021,0.25-0.067l0.666-0.385v0.769
		c0,0.276,0.224,0.5,0.5,0.5s0.5-0.224,0.5-0.5V4.833l0.666,0.385c0.079,0.045,0.165,0.067,0.25,0.067
		c0.173,0,0.341-0.09,0.434-0.25c0.138-0.239,0.056-0.545-0.183-0.683l-0.666-0.385l0.666-0.385c0.238-0.138,0.32-0.444,0.183-0.683
		c-0.139-0.24-0.445-0.321-0.683-0.183l-0.666,0.385V2.332c0-0.276-0.224-0.5-0.5-0.5s-0.5,0.224-0.5,0.5v0.769l-0.666-0.385
		C10.157,2.578,9.852,2.661,9.714,2.9C9.576,3.139,9.658,3.445,9.897,3.583l0.666,0.385L9.897,4.352
		C9.658,4.49,9.576,4.796,9.714,5.035z"/>
	<path d="M18.412,2.9c-0.138-0.24-0.444-0.32-0.683-0.183l-0.666,0.385V2.332c0-0.276-0.224-0.5-0.5-0.5s-0.5,0.224-0.5,0.5v0.769
		l-0.666-0.385c-0.238-0.136-0.546-0.056-0.683,0.183c-0.139,0.239-0.057,0.545,0.183,0.683l0.666,0.385l-0.666,0.385
		c-0.239,0.138-0.321,0.444-0.183,0.683c0.092,0.161,0.261,0.25,0.433,0.25c0.085,0,0.171-0.021,0.25-0.067l0.666-0.385v0.769
		c0,0.276,0.224,0.5,0.5,0.5s0.5-0.224,0.5-0.5V4.833l0.666,0.385c0.079,0.045,0.165,0.067,0.25,0.067
		c0.172,0,0.341-0.09,0.433-0.25c0.139-0.239,0.057-0.545-0.183-0.683l-0.666-0.385l0.666-0.385
		C18.469,3.445,18.551,3.139,18.412,2.9z"/>
	<path d="M23.229,4.352l-0.666-0.385l0.666-0.385c0.239-0.138,0.321-0.444,0.183-0.683c-0.138-0.24-0.445-0.32-0.683-0.183
		l-0.666,0.385V2.332c0-0.276-0.224-0.5-0.5-0.5s-0.5,0.224-0.5,0.5v0.769l-0.666-0.385C20.16,2.581,19.853,2.661,19.715,2.9
		c-0.139,0.239-0.057,0.545,0.183,0.683l0.666,0.385l-0.666,0.385c-0.239,0.138-0.321,0.444-0.183,0.683
		c0.092,0.161,0.261,0.25,0.433,0.25c0.085,0,0.171-0.021,0.25-0.067l0.666-0.385v0.769c0,0.276,0.224,0.5,0.5,0.5
		s0.5-0.224,0.5-0.5V4.833l0.666,0.385c0.079,0.045,0.165,0.067,0.25,0.067c0.172,0,0.341-0.09,0.433-0.25
		C23.551,4.796,23.469,4.49,23.229,4.352z"/>
	<path d="M13.964,11.148v-0.235c0-0.546-0.233-1.026-0.656-1.351c-0.628-0.482-1.664-0.564-2.414-0.146
		C10.785,9.14,10.604,8.9,10.357,8.711C9.761,8.254,8.802,8.153,8.063,8.504V4.875c0-0.546-0.233-1.026-0.656-1.351
		c-1.055-0.81-3.295-0.4-3.294,1.351v8.559c-0.057-0.039-0.116-0.074-0.18-0.103c-0.497-0.223-1.046-0.071-1.636,0.454
		c-0.762,0.678-1.045,1.753-0.818,3.107c0.377,2.25,2.135,4.89,3.689,5.538c0.062,0.026,0.128,0.039,0.192,0.039
		c0.195,0,0.381-0.115,0.461-0.308c0.106-0.255-0.014-0.548-0.269-0.653c-1.113-0.466-2.739-2.701-3.087-4.781
		c-0.116-0.696-0.125-1.643,0.497-2.195c0.28-0.25,0.481-0.323,0.559-0.29c0.338,0.152,0.587,1.426,0.592,2.49v0.065
		c0,0.275,0.223,0.499,0.499,0.5c0,0,0.001,0,0.001,0c0.275,0,0.499-0.222,0.5-0.497c0-0.027,0-0.058,0-0.091V4.875
		c0-0.609,0.614-0.772,0.977-0.772c0.273,0,0.532,0.078,0.709,0.214c0.178,0.137,0.265,0.319,0.265,0.558v5.187v3.109
		c0,0.276,0.224,0.5,0.5,0.5s0.5-0.225,0.5-0.5v-3.109c0-0.609,0.614-0.772,0.977-0.772c0.273,0,0.531,0.078,0.709,0.215
		s0.265,0.319,0.265,0.557v0.849c0,0.001,0,0.002,0,0.002v2.671c0,0.276,0.224,0.5,0.5,0.5s0.5-0.224,0.5-0.5v-2.669
		c0-0.001,0-0.002,0-0.002c0-0.609,0.614-0.772,0.977-0.772c0.272,0,0.531,0.078,0.709,0.215c0.178,0.136,0.265,0.319,0.265,0.557
		v1.761v1.374c0,0.276,0.224,0.5,0.5,0.5s0.5-0.224,0.5-0.5v-1.374c0-0.605,0.621-0.767,0.989-0.767
		c0.098,0,0.961,0.021,0.962,0.791c0.002,0.047,0.199,4.718-1.531,9.088c-0.102,0.256,0.024,0.547,0.281,0.648
		c0.06,0.024,0.122,0.035,0.184,0.035c0.199,0,0.387-0.119,0.465-0.316c1.809-4.567,1.609-9.303,1.601-9.479
		C16.914,11.105,15.134,10.609,13.964,11.148z"/>
</g>
</svg>
