<?xml version="1.0" encoding="utf-8"?>
<!-- Generator: Adobe Illustrator 19.2.0, SVG Export Plug-In . SVG Version: 6.00 Build 0)  -->
<svg version="1.1" id="Layer_1" xmlns="http://www.w3.org/2000/svg" xmlns:xlink="http://www.w3.org/1999/xlink" x="0px" y="0px"
	 width="24px" height="24px" viewBox="0 0 24 24" style="enable-background:new 0 0 24 24;" xml:space="preserve">
<g>
	<path d="M11.67,21.61c-0.09,0.1-0.15,0.229-0.15,0.359s0.05,0.261,0.15,0.351c0.09,0.1,0.22,0.149,0.35,0.149
		c0.13,0,0.26-0.05,0.36-0.149c0.09-0.101,0.14-0.221,0.14-0.351s-0.05-0.26-0.14-0.359C12.19,21.429,11.84,21.44,11.67,21.61z"/>
	<path d="M7.861,10.243c0.047,0.014,0.095,0.021,0.142,0.021c0.216,0,0.415-0.141,0.479-0.358c0.396-1.336,1.48-2.336,2.831-2.608
		c0.343-0.07,0.704-0.089,1.073-0.052c0.273,0.021,0.519-0.176,0.544-0.452c0.025-0.275-0.177-0.519-0.452-0.544
		c-0.466-0.042-0.924-0.02-1.363,0.068C9.401,6.663,8.025,7.929,7.523,9.622C7.445,9.887,7.596,10.165,7.861,10.243z"/>
	<path d="M12.543,10.86c-0.055-0.271-0.318-0.448-0.589-0.392c-0.271,0.055-0.446,0.318-0.392,0.589
		c0.341,1.689-0.085,3.439-1.168,4.799c-0.172,0.216-0.136,0.531,0.08,0.703c0.092,0.073,0.202,0.108,0.311,0.108
		c0.147,0,0.293-0.064,0.392-0.188C12.444,14.887,12.942,12.839,12.543,10.86z"/>
	<path d="M13.928,10.58c-0.208-1.035-1.217-1.704-2.255-1.499c-0.925,0.187-1.581,1.041-1.526,1.986
		c0.016,0.276,0.252,0.483,0.528,0.47c0.276-0.016,0.486-0.252,0.47-0.528c-0.026-0.452,0.286-0.859,0.726-0.948
		c0.24-0.048,0.484,0,0.687,0.135c0.203,0.135,0.341,0.341,0.389,0.581c0.365,1.813,0.024,3.684-0.961,5.269
		c-0.146,0.234-0.074,0.542,0.161,0.688c0.083,0.051,0.173,0.075,0.264,0.075c0.167,0,0.331-0.084,0.425-0.236
		C13.955,14.773,14.343,12.645,13.928,10.58z"/>
	<path d="M10.778,11.935c-0.253-0.02-0.509,0.201-0.521,0.478c-0.047,1.063-0.477,2.076-1.211,2.853
		c-0.19,0.201-0.181,0.518,0.02,0.707c0.096,0.092,0.22,0.137,0.343,0.137c0.133,0,0.265-0.053,0.363-0.156
		c0.899-0.951,1.426-2.192,1.483-3.496C11.268,12.181,11.054,11.948,10.778,11.935z"/>
	<path d="M14.965,13.127c-0.267-0.041-0.527,0.143-0.571,0.417c-0.113,0.724-0.318,1.431-0.608,2.103
		c-0.109,0.253,0.007,0.548,0.261,0.657c0.064,0.028,0.132,0.041,0.198,0.041c0.193,0,0.377-0.113,0.459-0.302
		c0.323-0.749,0.552-1.537,0.679-2.345C15.425,13.426,15.238,13.17,14.965,13.127z"/>
	<path d="M11.395,7.7c-0.871,0.175-1.621,0.679-2.112,1.419c-0.491,0.74-0.666,1.626-0.49,2.497
		c0.004,0.018,0.008,0.035,0.014,0.052c0.181,0.988-0.141,1.998-0.868,2.709c-0.198,0.193-0.201,0.51-0.008,0.707
		c0.098,0.101,0.228,0.15,0.357,0.15c0.126,0,0.252-0.048,0.35-0.143c0.983-0.963,1.409-2.337,1.139-3.675
		c-0.004-0.018-0.008-0.035-0.014-0.051c-0.105-0.592,0.019-1.191,0.353-1.693c0.344-0.517,0.868-0.87,1.477-0.992
		c0.606-0.125,1.227-0.002,1.745,0.342c0.517,0.343,0.869,0.868,0.991,1.477c0.111,0.549,0.168,1.129,0.168,1.723
		c0,0.276,0.224,0.5,0.5,0.5s0.5-0.224,0.5-0.5c0-0.659-0.062-1.305-0.187-1.922C14.947,8.505,13.192,7.339,11.395,7.7z"/>
	<path d="M16.692,10.022c-0.299-1.481-1.309-2.741-2.699-3.369c-0.252-0.114-0.548-0.002-0.662,0.25
		c-0.113,0.251-0.001,0.547,0.25,0.661c1.115,0.503,1.893,1.472,2.132,2.657c0.266,1.315,0.268,2.649,0.005,3.963
		c-0.054,0.271,0.121,0.534,0.393,0.588c0.033,0.007,0.065,0.01,0.099,0.01c0.233,0,0.441-0.164,0.489-0.402
		C16.987,12.934,16.985,11.469,16.692,10.022z"/>
	<path d="M8.393,11.696c-0.003-0.013-0.006-0.026-0.01-0.04c-0.033-0.176-0.048-0.352-0.056-0.526
		c-0.012-0.275-0.226-0.489-0.521-0.478c-0.276,0.012-0.49,0.246-0.478,0.521c0.01,0.238,0.033,0.478,0.082,0.72
		c0.002,0.013,0.006,0.026,0.009,0.038c0.084,0.475-0.048,0.958-0.364,1.331c-0.179,0.211-0.153,0.526,0.058,0.705
		c0.094,0.079,0.208,0.118,0.323,0.118c0.142,0,0.283-0.06,0.382-0.177C8.343,13.292,8.552,12.485,8.393,11.696z"/>
	<path d="M19.021,20.452V3.548c0.002-0.017,0.01-0.031,0.01-0.048s-0.008-0.032-0.01-0.048V2.505c0-1.396-1.136-2.531-2.531-2.531
		H7.554c-1.396,0-2.532,1.136-2.532,2.531v18.973c0,1.396,1.136,2.531,2.532,2.531h8.936c1.396,0,2.531-1.136,2.531-2.531v-0.928
		c0.002-0.017,0.01-0.031,0.01-0.048S19.023,20.469,19.021,20.452z M6.022,4h11.999v16.001H6.022V4z M7.554,0.973h8.936
		c0.845,0,1.531,0.687,1.531,1.531V3H6.022V2.505C6.022,1.66,6.709,0.973,7.554,0.973z M16.49,23.009H7.554
		c-0.845,0-1.532-0.687-1.532-1.531v-0.477h11.999v0.477C18.021,22.322,17.335,23.009,16.49,23.009z"/>
</g>
</svg>
