<?xml version="1.0" encoding="utf-8"?>
<!-- Generator: Adobe Illustrator 19.2.0, SVG Export Plug-In . SVG Version: 6.00 Build 0)  -->
<svg version="1.1" id="Layer_1" xmlns="http://www.w3.org/2000/svg" xmlns:xlink="http://www.w3.org/1999/xlink" x="0px" y="0px"
	 width="24px" height="24px" viewBox="0 0 24 24" style="enable-background:new 0 0 24 24;" xml:space="preserve">
<g>
	<path d="M21.512,0.032H1.547c-0.276,0-0.5,0.224-0.5,0.5v22.966c0,0.276,0.224,0.5,0.5,0.5h16.937c0.276,0,0.5-0.224,0.5-0.5V6.999
		h2.528c0.276,0,0.5-0.224,0.5-0.5V0.532C22.012,0.256,21.788,0.032,21.512,0.032z M21.012,5.999h-2.528c-0.276,0-0.5,0.224-0.5,0.5
		v16.499H2.047V1.032h18.965V5.999z"/>
	<path d="M14.502,18.998H5.478c-0.276,0-0.5,0.224-0.5,0.5s0.224,0.5,0.5,0.5h9.024c0.276,0,0.5-0.224,0.5-0.5
		S14.778,18.998,14.502,18.998z"/>
	<path d="M14.502,15.998H5.478c-0.276,0-0.5,0.224-0.5,0.5s0.224,0.5,0.5,0.5h9.024c0.276,0,0.5-0.224,0.5-0.5
		S14.778,15.998,14.502,15.998z"/>
	<path d="M4.978,13.498c0,0.276,0.224,0.5,0.5,0.5h9.024c0.276,0,0.5-0.224,0.5-0.5s-0.224-0.5-0.5-0.5H5.478
		C5.201,12.998,4.978,13.221,4.978,13.498z"/>
	<path d="M21.495,16.998h-1.012c-0.276,0-0.5,0.224-0.5,0.5s0.224,0.5,0.5,0.5h0.512v5h-0.512c-0.276,0-0.5,0.224-0.5,0.5
		s0.224,0.5,0.5,0.5h1.012c0.276,0,0.5-0.224,0.5-0.5v-6C21.995,17.221,21.771,16.998,21.495,16.998z"/>
	<path d="M21.495,8.998h-1.012c-0.276,0-0.5,0.224-0.5,0.5s0.224,0.5,0.5,0.5h0.512v5h-0.512c-0.276,0-0.5,0.224-0.5,0.5
		s0.224,0.5,0.5,0.5h1.012c0.276,0,0.5-0.224,0.5-0.5v-6C21.995,9.221,21.771,8.998,21.495,8.998z"/>
	<path d="M5.292,9.983c0.061,0.024,0.124,0.036,0.186,0.036c0.198,0,0.386-0.119,0.464-0.314l0.504-1.262h2.051l0.504,1.262
		c0.102,0.257,0.395,0.381,0.65,0.279c0.256-0.103,0.381-0.394,0.279-0.65L9.296,7.748c0,0,0,0,0-0.001l-1.36-3.404
		c-0.152-0.38-0.777-0.38-0.929,0l-1.994,4.99C4.911,9.589,5.036,9.88,5.292,9.983z M7.471,5.876l0.626,1.566H6.846L7.471,5.876z"/>
</g>
</svg>
