<?xml version="1.0" encoding="utf-8"?>
<!-- Generator: Adobe Illustrator 19.2.0, SVG Export Plug-In . SVG Version: 6.00 Build 0)  -->
<svg version="1.1" id="Layer_1" xmlns="http://www.w3.org/2000/svg" xmlns:xlink="http://www.w3.org/1999/xlink" x="0px" y="0px"
	 width="24px" height="24px" viewBox="0 0 24 24" style="enable-background:new 0 0 24 24;" xml:space="preserve">
<path d="M15.833-0.002H8.312c-4.406,0-8.129,4.133-8.129,9.025c0,4.5,2.949,7.955,5.926,8.873v5.382
	c0,0.194,0.113,0.371,0.289,0.453c0.067,0.031,0.139,0.047,0.211,0.047c0.116,0,0.23-0.04,0.322-0.118l6.715-5.662h2.187
	c4.3,0,7.932-4.121,7.932-9S20.133-0.002,15.833-0.002z M15.833,16.998h-2.369c-0.118,0-0.232,0.042-0.322,0.118l-6.032,5.086
	v-4.688c0-0.232-0.16-0.434-0.386-0.487C4,16.389,1.184,13.221,1.184,9.024c0-4.275,3.331-8.025,7.129-8.025h7.521
	c3.758,0,6.932,3.664,6.932,8S19.591,16.998,15.833,16.998z"/>
</svg>
