<?xml version="1.0" encoding="utf-8"?>
<!-- Generator: Adobe Illustrator 19.2.0, SVG Export Plug-In . SVG Version: 6.00 Build 0)  -->
<svg version="1.1" id="Layer_1" xmlns="http://www.w3.org/2000/svg" xmlns:xlink="http://www.w3.org/1999/xlink" x="0px" y="0px"
	 width="24px" height="24px" viewBox="0 0 24 24" style="enable-background:new 0 0 24 24;" xml:space="preserve">
<g>
	<path d="M7.996,19.675c-0.746,0-1.354,0.607-1.354,1.354s0.607,1.353,1.354,1.353s1.353-0.606,1.353-1.353
		S8.742,19.675,7.996,19.675z M7.996,21.381c-0.195,0-0.354-0.158-0.354-0.353c0-0.195,0.159-0.354,0.354-0.354
		s0.353,0.158,0.353,0.354C8.349,21.222,8.19,21.381,7.996,21.381z"/>
	<path d="M18.512,1.998h-3.568c-0.235-1.154-1.258-2.026-2.481-2.026H3.527c-1.396,0-2.532,1.136-2.532,2.531v18.972
		c0,1.396,1.136,2.531,2.532,2.531h8.936c1.396,0,2.532-1.136,2.532-2.531v-2.929c0.002-0.017,0.01-0.031,0.01-0.048
		s-0.008-0.032-0.01-0.048v-2.734l2.124-1.718h1.393c2.99,0,5.423-2.691,5.423-6C23.935,4.69,21.502,1.998,18.512,1.998z
		 M3.527,0.972h8.936c0.666,0,1.229,0.431,1.439,1.026h-0.374c-1.131,0-2.183,0.369-3.058,1H1.996V2.503
		C1.996,1.659,2.683,0.972,3.527,0.972z M12.463,23.007H3.527c-0.845,0-1.532-0.687-1.532-1.531v-2.478h12v2.478
		C13.995,22.32,13.308,23.007,12.463,23.007z M13.995,17.998H2.004v-14h7.408C8.552,5.042,8.024,6.409,8.024,7.91
		c0,2.804,1.995,5.051,3.976,5.706v3.475c0,0.192,0.111,0.368,0.285,0.451c0.068,0.033,0.142,0.049,0.215,0.049
		c0.112,0,0.224-0.038,0.314-0.111l1.181-0.955V17.998z M18.512,12.998h-1.569c-0.114,0-0.226,0.039-0.314,0.111L13,16.043v-2.806
		c0-0.234-0.163-0.437-0.391-0.488c-1.724-0.386-3.585-2.345-3.585-4.839c0-2.663,2.063-4.912,4.504-4.912h0.94
		c0.009,0,0.017,0.005,0.027,0.005s0.017-0.005,0.027-0.005h3.99c2.397,0,4.423,2.29,4.423,5
		C22.935,10.708,20.909,12.998,18.512,12.998z"/>
	<path d="M20,5.998h-7c-0.276,0-0.5,0.224-0.5,0.5s0.224,0.5,0.5,0.5h7c0.276,0,0.5-0.224,0.5-0.5S20.276,5.998,20,5.998z"/>
	<path d="M16,8.998h-3c-0.276,0-0.5,0.224-0.5,0.5s0.224,0.5,0.5,0.5h3c0.276,0,0.5-0.224,0.5-0.5S16.276,8.998,16,8.998z"/>
</g>
</svg>
