<?xml version="1.0" encoding="utf-8"?>
<!-- Generator: Adobe Illustrator 19.2.0, SVG Export Plug-In . SVG Version: 6.00 Build 0)  -->
<svg version="1.1" id="Layer_1" xmlns="http://www.w3.org/2000/svg" xmlns:xlink="http://www.w3.org/1999/xlink" x="0px" y="0px"
	 width="24px" height="24px" viewBox="0 0 24 24" style="enable-background:new 0 0 24 24;" xml:space="preserve">
<g>
	<path d="M16.828,13h3.319C20.602,13,21,12.631,21,12.209V7.748C21,7.328,20.626,7,20.147,7h-3.319C16.363,7,16,7.328,16,7.748
		v4.461C16,12.638,16.379,13,16.828,13z M17,8h3v4h-3V8z"/>
	<path d="M3.573,17h6.903c0.276,0,0.5-0.224,0.5-0.5s-0.224-0.5-0.5-0.5H3.573c-0.276,0-0.5,0.224-0.5,0.5S3.296,17,3.573,17z"/>
	<path d="M3.573,14h6.903c0.276,0,0.5-0.224,0.5-0.5s-0.224-0.5-0.5-0.5H3.573c-0.276,0-0.5,0.224-0.5,0.5S3.296,14,3.573,14z"/>
	<path d="M3.573,11h2.958c0.276,0,0.5-0.224,0.5-0.5S6.808,10,6.531,10H3.573c-0.276,0-0.5,0.224-0.5,0.5S3.296,11,3.573,11z"/>
	<path d="M23.5,4h-23C0.224,4,0,4.223,0,4.5v15C0,19.776,0.224,20,0.5,20h23c0.276,0,0.5-0.224,0.5-0.5v-15
		C24,4.223,23.776,4,23.5,4z M23,19H1V5h22V19z"/>
</g>
</svg>
