<?xml version="1.0" encoding="utf-8"?>
<!-- Generator: Adobe Illustrator 19.2.0, SVG Export Plug-In . SVG Version: 6.00 Build 0)  -->
<svg version="1.1" id="Layer_1" xmlns="http://www.w3.org/2000/svg" xmlns:xlink="http://www.w3.org/1999/xlink" x="0px" y="0px"
	 width="24px" height="24px" viewBox="0 0 24 24" style="enable-background:new 0 0 24 24;" xml:space="preserve">
<g>
	<path d="M15.839,13.873c-0.121-0.358-0.487-0.644-1.036-0.459l-0.12,0.039c-0.185,0.061-0.556,0.184-0.753,0.245
		c-0.485-0.366-1.225-2.63-1.069-3.266l0.951-0.313c0.399-0.133,0.616-0.565,0.484-0.963L13.12,5.584
		c-0.085-0.259-0.246-0.386-0.366-0.447c-0.285-0.145-0.571-0.049-0.766,0.015l-0.291,0.092C10.886,5.496,9.876,5.81,9.316,6.898
		c-0.662,1.285-0.503,3.301,0.499,6.345c1.019,3.095,2.104,4.826,3.415,5.447c0.405,0.191,0.799,0.266,1.179,0.266
		c0.707,0,1.369-0.256,1.979-0.49l0.188-0.073c0.384-0.144,0.585-0.562,0.456-0.956L15.839,13.873z M13.657,17.786
		c-1.018-0.481-1.991-2.115-2.893-4.855c-0.888-2.697-1.076-4.573-0.56-5.575c0.368-0.715,1.059-0.93,1.789-1.157l0.249-0.079
		l1.029,3.125l-0.863,0.284c-0.769,0.284-0.543,1.504-0.47,1.905c0.158,0.854,0.859,3.285,1.985,3.285c0.003,0,0.006,0,0.009,0
		c0.094-0.002,0.111-0.003,1.031-0.306l1.046,3.126C15.193,17.854,14.425,18.151,13.657,17.786z"/>
	<path d="M20.697-0.002H4.312c-0.721,0-1.307,0.587-1.307,1.308v0.69H1.49c-0.276,0-0.5,0.224-0.5,0.5s0.224,0.5,0.5,0.5h1.515v2
		H1.49c-0.276,0-0.5,0.224-0.5,0.5s0.224,0.5,0.5,0.5h1.515v2H1.49c-0.276,0-0.5,0.224-0.5,0.5s0.224,0.5,0.5,0.5h1.515v2H1.49
		c-0.276,0-0.5,0.224-0.5,0.5s0.224,0.5,0.5,0.5h1.515v2H1.49c-0.276,0-0.5,0.224-0.5,0.5s0.224,0.5,0.5,0.5h1.515v2.001H1.49
		c-0.276,0-0.5,0.224-0.5,0.5s0.224,0.5,0.5,0.5h1.515v2H1.49c-0.276,0-0.5,0.224-0.5,0.5s0.224,0.5,0.5,0.5h1.515v1.692
		c0,0.721,0.586,1.308,1.307,1.308h16.385c0.721,0,1.308-0.587,1.308-1.308V1.306C22.005,0.585,21.418-0.002,20.697-0.002z
		 M21.005,22.69c0,0.17-0.138,0.308-0.308,0.308H4.312c-0.169,0-0.307-0.138-0.307-0.308v-1.692h0.584c0.276,0,0.5-0.224,0.5-0.5
		s-0.224-0.5-0.5-0.5H4.005v-2h0.584c0.276,0,0.5-0.224,0.5-0.5s-0.224-0.5-0.5-0.5H4.005v-2.001h0.584c0.276,0,0.5-0.224,0.5-0.5
		s-0.224-0.5-0.5-0.5H4.005v-2h0.584c0.276,0,0.5-0.224,0.5-0.5s-0.224-0.5-0.5-0.5H4.005v-2h0.584c0.276,0,0.5-0.224,0.5-0.5
		s-0.224-0.5-0.5-0.5H4.005v-2h0.584c0.276,0,0.5-0.224,0.5-0.5s-0.224-0.5-0.5-0.5H4.005v-2h0.584c0.276,0,0.5-0.224,0.5-0.5
		s-0.224-0.5-0.5-0.5H4.005v-0.69c0-0.17,0.138-0.308,0.307-0.308h16.385c0.17,0,0.308,0.138,0.308,0.308V22.69z"/>
</g>
</svg>
