<?xml version="1.0" encoding="utf-8"?>
<!-- Generator: Adobe Illustrator 19.2.0, SVG Export Plug-In . SVG Version: 6.00 Build 0)  -->
<svg version="1.1" id="Layer_1" xmlns="http://www.w3.org/2000/svg" xmlns:xlink="http://www.w3.org/1999/xlink" x="0px" y="0px"
	 width="24px" height="24px" viewBox="0 0 24 24" style="enable-background:new 0 0 24 24;" xml:space="preserve">
<path d="M21.944,8.381c-1.035-0.793-2.339-1.112-3.631-0.906C18.05,6.363,17.39,5.38,16.45,4.725
	c-1.043-0.728-2.312-0.989-3.611-0.743C11.626,2.9,10.354,2.394,8.856,2.394c-3.161,0-5.721,2.356-6.177,5.64
	c-1.406,0.831-2.334,2.291-2.334,3.708c0,2.387,1.951,4.328,4.35,4.328h1.462l-0.032,5.007c-0.001,0.204,0.122,0.389,0.312,0.466
	c0.061,0.025,0.125,0.037,0.188,0.037c0.133,0,0.264-0.054,0.36-0.153l5.147-5.356h6.977c2.44,0,4.582-2.022,4.582-4.328
	C23.692,10.475,23.039,9.219,21.944,8.381z M19.11,15.07h-7.19c-0.136,0-0.266,0.056-0.36,0.153L7.133,19.83l0.027-4.257
	c0.001-0.133-0.051-0.261-0.146-0.355C6.921,15.123,6.793,15.07,6.66,15.07H4.695c-2.069,0-3.35-1.728-3.35-3.328
	c0-1.114,0.835-2.328,2.031-2.951c0.149-0.078,0.249-0.225,0.266-0.392c0.299-2.9,2.492-5.004,5.213-5.004
	c1.307,0,2.416,0.475,3.491,1.494c0.123,0.117,0.297,0.165,0.462,0.123c1.105-0.265,2.195-0.077,3.07,0.534
	c0.854,0.595,1.413,1.537,1.535,2.584c0.018,0.145,0.097,0.274,0.217,0.356c0.122,0.083,0.273,0.107,0.411,0.068
	c1.167-0.316,2.367-0.088,3.295,0.621c0.849,0.649,1.355,1.609,1.355,2.567C22.692,13.514,21.019,15.07,19.11,15.07z"/>
</svg>
