<?xml version="1.0" encoding="utf-8"?>
<!-- Generator: Adobe Illustrator 19.2.0, SVG Export Plug-In . SVG Version: 6.00 Build 0)  -->
<svg version="1.1" id="Layer_1" xmlns="http://www.w3.org/2000/svg" xmlns:xlink="http://www.w3.org/1999/xlink" x="0px" y="0px"
	 width="24px" height="24px" viewBox="0 0 24 24" style="enable-background:new 0 0 24 24;" xml:space="preserve">
<path d="M21.405,20.901c-3.483-1.346-5.847-2.951-6.194-3.772v-0.378c1.735-0.289,3.084-1.084,3.184-3.284
	c0.337-0.294,0.555-0.721,0.555-1.202V8.92c0-0.724-0.486-1.329-1.146-1.527V6.26c0-3.198-2.602-5.8-5.8-5.8s-5.8,2.602-5.8,5.8
	v1.138C5.551,7.599,5.072,8.201,5.072,8.92v3.345c0,0.882,0.718,1.6,1.6,1.6h0.545c0.372,1.061,0.945,1.783,1.574,2.438v0.825
	c-0.308,0.708-2.368,2.294-6.195,3.774c-0.5,0.194-0.823,0.669-0.823,1.209v0.568c0,0.714,0.576,1.295,1.284,1.295h17.889
	c0.708,0,1.284-0.581,1.284-1.295v-0.568C22.229,21.578,21.898,21.092,21.405,20.901z M15.852,15.57
	c0.382-0.477,0.711-1.026,0.951-1.705h0.546c0.004,0,0.007-0.001,0.01-0.001C17.226,14.731,16.782,15.265,15.852,15.57z
	 M17.95,12.265c0,0.331-0.27,0.6-0.601,0.6h-0.394V8.32h0.394c0.331,0,0.601,0.269,0.601,0.6V12.265z M12.004,1.46
	c2.646,0,4.8,2.153,4.8,4.8v0.147c-0.458-2.201-2.056-3.33-4.802-3.33c-2.726,0-4.353,1.182-4.798,3.413V6.26
	C7.204,3.613,9.357,1.46,12.004,1.46z M6.072,12.265V8.92c0-0.331,0.269-0.6,0.6-0.6h0.394v4.545H6.672
	C6.341,12.865,6.072,12.596,6.072,12.265z M21.229,22.679c0,0.163-0.128,0.295-0.284,0.295H3.057c-0.156,0-0.284-0.132-0.284-0.295
	v-0.568c0-0.123,0.075-0.234,0.185-0.276c2.842-1.1,6.332-2.93,6.811-4.47c0.015-0.048,0.022-0.098,0.022-0.148v-1.117
	c0-0.131-0.051-0.256-0.143-0.35c-0.675-0.689-1.26-1.352-1.583-2.455V7.82c0-2.553,1.25-3.743,3.936-3.743
	c2.735,0,3.955,1.154,3.955,3.743v5.475c-0.316,1.078-0.914,1.751-1.603,2.455c-0.029,0.029-0.046,0.066-0.066,0.101
	c-0.276,0.024-0.585,0.04-0.905,0.051c-0.201-0.463-0.66-0.789-1.196-0.789c-0.719,0-1.304,0.585-1.304,1.305
	s0.585,1.305,1.304,1.305c0.545,0,1.01-0.337,1.205-0.813c0.277-0.009,0.55-0.022,0.82-0.042v0.349c0,0.051,0.008,0.101,0.022,0.149
	c0.482,1.541,3.971,3.37,6.812,4.469c0.11,0.042,0.185,0.153,0.185,0.276V22.679z M12.186,16.722c-0.168,0-0.304-0.137-0.304-0.305
	s0.136-0.305,0.304-0.305s0.305,0.137,0.305,0.305S12.354,16.722,12.186,16.722z"/>
</svg>
