<?xml version="1.0" encoding="utf-8"?>
<!-- Generator: Adobe Illustrator 19.2.0, SVG Export Plug-In . SVG Version: 6.00 Build 0)  -->
<svg version="1.1" id="Layer_1" xmlns="http://www.w3.org/2000/svg" xmlns:xlink="http://www.w3.org/1999/xlink" x="0px" y="0px"
	 width="24px" height="24px" viewBox="0 0 24 24" style="enable-background:new 0 0 24 24;" xml:space="preserve">
<g>
	<path d="M19.647-0.002H4.335C3.611-0.002,3,0.6,3,1.312v5.186c0,0.276,0.224,0.5,0.5,0.5h1.191c0.264,0,0.487,0.229,0.487,0.5
		s-0.223,0.5-0.487,0.5H3.5c-0.276,0-0.5,0.224-0.5,0.5v3c0,0.276,0.224,0.5,0.5,0.5h1.191c0.264,0,0.487,0.229,0.487,0.5
		c0,0.271-0.223,0.5-0.487,0.5H3.5c-0.276,0-0.5,0.224-0.5,0.5v3c0,0.276,0.224,0.5,0.5,0.5h1.191c0.264,0,0.487,0.229,0.487,0.5
		s-0.223,0.5-0.487,0.5H3.5c-0.276,0-0.5,0.224-0.5,0.5v4.177c0,0.717,0.611,1.323,1.335,1.323h15.312
		c0.721,0,1.353-0.618,1.353-1.323V1.312C21,0.6,20.381-0.002,19.647-0.002z M20,22.675c0,0.16-0.178,0.323-0.353,0.323H4.335
		C4.166,22.998,4,22.838,4,22.675v-3.677h0.691c0.82,0,1.487-0.673,1.487-1.5s-0.667-1.5-1.487-1.5H4v-2h0.691
		c0.82,0,1.487-0.673,1.487-1.5c0-0.827-0.667-1.5-1.487-1.5H4v-2h0.691c0.82,0,1.487-0.673,1.487-1.5s-0.667-1.5-1.487-1.5H4V1.312
		c0-0.162,0.163-0.314,0.335-0.314h15.312C19.822,0.998,20,1.156,20,1.312V22.675z"/>
	<path d="M15.373,12.602c-0.134-0.16-0.33-0.258-0.539-0.269c-0.19-0.011-0.416,0.068-0.57,0.219
		c-0.15,0.15-0.396,0.312-0.541,0.366c-0.17-0.163-0.595-0.639-1.651-2.025l-0.08-0.097c-0.033-0.075-0.022-0.37,0.426-0.831
		c0.244-0.251,0.281-0.646,0.09-0.936l-1.738-2.667c-0.204-0.312-0.6-0.427-0.929-0.278C8.811,6.527,8.082,7.313,7.79,8.3
		C7.559,9.078,7.5,10.327,8.562,11.909l2.853,3.597c0.718,0.996,1.94,1.745,3.392,1.745c0.83,0,1.735-0.245,2.664-0.829
		c0.187-0.117,0.312-0.309,0.345-0.525c0.032-0.217-0.03-0.436-0.169-0.597L15.373,12.602z M12.212,14.903l-2.855-3.599
		c-0.641-0.958-0.851-1.899-0.608-2.72c0.188-0.636,0.645-1.16,1.303-1.494l1.514,2.325c-0.934,1.066-0.475,1.83-0.396,1.945
		l0.107,0.139c1.815,2.382,2.002,2.403,2.256,2.431c0.48,0.053,0.971-0.276,1.237-0.493l1.924,2.283
		C14.776,16.787,13.082,16.108,12.212,14.903z"/>
</g>
</svg>
