<?xml version="1.0" encoding="utf-8"?>
<!-- Generator: Adobe Illustrator 19.2.0, SVG Export Plug-In . SVG Version: 6.00 Build 0)  -->
<svg version="1.1" id="Layer_1" xmlns="http://www.w3.org/2000/svg" xmlns:xlink="http://www.w3.org/1999/xlink" x="0px" y="0px"
	 width="24px" height="24px" viewBox="0 0 24 24" style="enable-background:new 0 0 24 24;" xml:space="preserve">
<g>
	<path d="M18.458,14.901C18.457,14.901,18.457,14.901,18.458,14.901c-2.859-1.105-3.467-1.598-3.585-1.721v-0.239
		c0.33-0.384,0.591-0.869,0.765-1.419c0.231-0.216,0.385-0.51,0.43-0.83c0.045-0.324-0.022-0.646-0.191-0.921V8.685
		c0-1.667-1.065-2.663-2.85-2.663c-1.758,0-2.851,1.021-2.851,2.663v1.087c-0.168,0.275-0.236,0.595-0.191,0.919
		c0.044,0.32,0.198,0.614,0.429,0.831c0.173,0.549,0.435,1.034,0.765,1.419v0.228c-0.145,0.156-0.786,0.651-3.583,1.732
		c-0.346,0.134-0.57,0.463-0.57,0.836v1.389c0,0.494,0.399,0.896,0.89,0.896h10.222c0.49,0,0.89-0.401,0.89-0.896V15.74
		C19.028,15.372,18.8,15.034,18.458,14.901z M18.026,17.021H8.025v-1.215c3.564-1.383,4.001-1.94,4.131-2.354
		c0.015-0.048,0.022-0.098,0.022-0.148v-0.556c0-0.131-0.051-0.256-0.143-0.35c-0.313-0.32-0.557-0.769-0.705-1.299
		c-0.031-0.111-0.099-0.208-0.193-0.274c-0.088-0.062-0.147-0.161-0.162-0.271c-0.011-0.079-0.004-0.196,0.089-0.31
		c0.072-0.089,0.112-0.201,0.112-0.315V8.685c0-1.104,0.623-1.663,1.851-1.663c1.244,0,1.85,0.544,1.85,1.663v1.244
		c0,0.115,0.039,0.226,0.112,0.315c0.093,0.115,0.1,0.232,0.089,0.311c-0.016,0.11-0.074,0.208-0.162,0.27
		c-0.095,0.066-0.163,0.163-0.194,0.274c-0.148,0.531-0.393,0.98-0.705,1.298c-0.091,0.094-0.143,0.219-0.143,0.35v0.556
		c0,0.051,0.008,0.102,0.022,0.149c0.13,0.414,0.569,0.972,4.131,2.354V17.021z"/>
	<path d="M20.693-0.002H4.307C3.586-0.002,3,0.585,3,1.306v0.69H1.485c-0.276,0-0.5,0.224-0.5,0.5s0.224,0.5,0.5,0.5H3v2H1.485
		c-0.276,0-0.5,0.224-0.5,0.5s0.224,0.5,0.5,0.5H3v2H1.485c-0.276,0-0.5,0.224-0.5,0.5s0.224,0.5,0.5,0.5H3v2H1.485
		c-0.276,0-0.5,0.224-0.5,0.5s0.224,0.5,0.5,0.5H3v2H1.485c-0.276,0-0.5,0.224-0.5,0.5s0.224,0.5,0.5,0.5H3v2.001H1.485
		c-0.276,0-0.5,0.224-0.5,0.5s0.224,0.5,0.5,0.5H3v2H1.485c-0.276,0-0.5,0.224-0.5,0.5s0.224,0.5,0.5,0.5H3v1.692
		c0,0.721,0.586,1.308,1.307,1.308h16.385c0.721,0,1.308-0.587,1.308-1.308V1.306C22,0.585,21.414-0.002,20.693-0.002z M21,22.69
		c0,0.17-0.138,0.308-0.308,0.308H4.307C4.138,22.998,4,22.86,4,22.69v-1.692h0.584c0.276,0,0.5-0.224,0.5-0.5s-0.224-0.5-0.5-0.5H4
		v-2h0.584c0.276,0,0.5-0.224,0.5-0.5s-0.224-0.5-0.5-0.5H4v-2.001h0.584c0.276,0,0.5-0.224,0.5-0.5s-0.224-0.5-0.5-0.5H4v-2h0.584
		c0.276,0,0.5-0.224,0.5-0.5s-0.224-0.5-0.5-0.5H4v-2h0.584c0.276,0,0.5-0.224,0.5-0.5s-0.224-0.5-0.5-0.5H4v-2h0.584
		c0.276,0,0.5-0.224,0.5-0.5s-0.224-0.5-0.5-0.5H4v-2h0.584c0.276,0,0.5-0.224,0.5-0.5s-0.224-0.5-0.5-0.5H4v-0.69
		c0-0.17,0.138-0.308,0.307-0.308h16.386C20.862,0.998,21,1.136,21,1.306V22.69z"/>
</g>
</svg>
