<?xml version="1.0" encoding="utf-8"?>
<!-- Generator: Adobe Illustrator 19.2.0, SVG Export Plug-In . SVG Version: 6.00 Build 0)  -->
<svg version="1.1" id="Layer_1" xmlns="http://www.w3.org/2000/svg" xmlns:xlink="http://www.w3.org/1999/xlink" x="0px" y="0px"
	 width="24px" height="24px" viewBox="0 0 24 24" style="enable-background:new 0 0 24 24;" xml:space="preserve">
<g>
	<path d="M19.825,4.279c-0.247-0.117-0.548-0.01-0.665,0.241c-0.447,0.96-3.332,0.414-5.2-0.398
		c-1.462-0.637-2.507,0.268-2.867,1.068L10.87,5.813C9.322,5.529,7.473,5.55,7.284,6.545L6.93,8.422
		c-3.363,0.91-5.847,3.98-5.847,7.627c0,4.36,3.547,7.908,7.908,7.908c4.36,0,7.908-3.548,7.908-7.908
		c0-2.599-1.266-4.903-3.208-6.345c0.11-0.581,0.343-1.816,0.356-1.883c0.151-0.806-0.952-1.412-2.199-1.774l0.172-0.483
		c0.046-0.102,0.482-0.985,1.542-0.525c1.493,0.649,5.572,1.897,6.505-0.095C20.184,4.694,20.075,4.396,19.825,4.279z
		 M15.898,16.049c0,3.81-3.099,6.908-6.908,6.908s-6.908-3.099-6.908-6.908S5.182,9.14,8.991,9.14S15.898,12.239,15.898,16.049z
		 M12.785,9.113c-1.127-0.619-2.42-0.973-3.794-0.973c-0.341,0-0.674,0.029-1.004,0.071l0.266-1.407
		c0.229-0.132,1.132-0.255,2.484,0c1.352,0.256,2.148,0.701,2.313,0.906C13.006,7.94,12.883,8.593,12.785,9.113z"/>
	<path d="M11.047,21.309c0.066,0,0.133-0.013,0.198-0.041c1.735-0.751,2.981-2.308,3.332-4.164c0.324-1.713-0.145-3.453-1.284-4.773
		c-0.183-0.21-0.498-0.232-0.706-0.052c-0.209,0.181-0.232,0.496-0.052,0.705c0.94,1.089,1.326,2.522,1.059,3.935
		c-0.289,1.529-1.316,2.812-2.747,3.432c-0.253,0.109-0.37,0.404-0.26,0.657C10.669,21.197,10.853,21.309,11.047,21.309z"/>
	<path d="M23.389,3.491l-1.994,0.273c-0.273,0.038-0.465,0.29-0.427,0.563c0.034,0.25,0.248,0.432,0.494,0.432
		c0.023,0,0.046-0.001,0.069-0.005l1.994-0.273c0.273-0.038,0.465-0.29,0.427-0.563C23.914,3.644,23.655,3.451,23.389,3.491z"/>
	<path d="M20.997,5.882c-0.124-0.247-0.422-0.349-0.671-0.224c-0.247,0.123-0.347,0.423-0.224,0.67l0.893,1.789
		c0.088,0.175,0.264,0.277,0.447,0.277c0.075,0,0.151-0.017,0.224-0.053c0.247-0.123,0.347-0.423,0.224-0.67L20.997,5.882z"/>
	<path d="M16.177,3.223l1.738,0.899c0.073,0.038,0.151,0.056,0.229,0.056c0.181,0,0.355-0.099,0.444-0.271
		c0.127-0.245,0.03-0.547-0.215-0.674l-1.738-0.899c-0.242-0.124-0.546-0.031-0.674,0.215C15.835,2.794,15.932,3.096,16.177,3.223z"
		/>
	<path d="M19.929,3.236c0.029,0.005,0.058,0.007,0.086,0.007c0.238,0,0.45-0.172,0.492-0.415l0.33-1.919
		c0.047-0.272-0.137-0.531-0.408-0.578c-0.277-0.047-0.531,0.136-0.578,0.408l-0.33,1.919C19.474,2.931,19.657,3.189,19.929,3.236z"
		/>
</g>
</svg>
