<?xml version="1.0" encoding="utf-8"?>
<!-- Generator: Adobe Illustrator 19.2.0, SVG Export Plug-In . SVG Version: 6.00 Build 0)  -->
<svg version="1.1" id="Layer_1" xmlns="http://www.w3.org/2000/svg" xmlns:xlink="http://www.w3.org/1999/xlink" x="0px" y="0px"
	 width="24px" height="24px" viewBox="0 0 24 24" style="enable-background:new 0 0 24 24;" xml:space="preserve">
<path d="M22.821,10.168l-2.417-1.203l0.11-0.291c0.098-0.258-0.033-0.547-0.291-0.645l-4.668-1.762l0.494-1.308l1.635,0.617
	c0.059,0.022,0.118,0.032,0.177,0.032c0.202,0,0.393-0.123,0.468-0.323c0.098-0.258-0.033-0.547-0.291-0.645l-2.101-0.793
	c-0.001,0-0.001-0.001-0.002-0.001s-0.001,0-0.002,0l-2.102-0.794c-0.261-0.099-0.548,0.033-0.645,0.291
	c-0.098,0.258,0.033,0.547,0.291,0.645l1.636,0.618L14.62,5.914L8.314,3.533l0.014-0.037c0.089-0.235-0.011-0.5-0.233-0.618
	L3.083,0.211C2.957,0.143,2.807,0.134,2.672,0.185S2.432,0.342,2.381,0.476L0.318,5.939C0.268,6.074,0.277,6.224,0.345,6.35
	c0.067,0.127,0.186,0.219,0.326,0.252l5.523,1.311C6.233,7.922,6.271,7.927,6.31,7.927c0.204,0,0.393-0.125,0.468-0.323l0.014-0.037
	l4.642,1.752L7.942,23.286c-0.067,0.268,0.096,0.539,0.364,0.606c0.267,0.062,0.539-0.097,0.606-0.364l1.381-5.525h3.438
	l1.381,5.525c0.057,0.228,0.261,0.379,0.485,0.379c0.04,0,0.08-0.005,0.121-0.015c0.269-0.067,0.431-0.339,0.364-0.606L12.711,9.801
	l5.99,2.261c0.058,0.021,0.117,0.032,0.177,0.032c0.07,0,0.141-0.015,0.206-0.044c0.121-0.055,0.215-0.155,0.262-0.279l0.103-0.272
	l2.62,0.674c0.042,0.011,0.084,0.016,0.125,0.016c0.204,0,0.393-0.125,0.468-0.323l0.405-1.074
	C23.157,10.552,23.051,10.282,22.821,10.168z M1.455,5.76l1.661-4.399l4.122,2.193l-1.24,3.285L1.455,5.76z M10.543,17.003
	l1.469-5.876l1.469,5.876H10.543z M7.145,6.631l0.816-2.162l11.441,4.319l-0.092,0.243c0,0.001-0.002,0.002-0.002,0.003
	l-0.639,1.692c-0.001,0.002,0,0.004-0.001,0.006l-0.082,0.218L7.145,6.631z M21.884,11.094l-2.08-0.535l0.246-0.652l1.922,0.956
	L21.884,11.094z"/>
</svg>
