<?xml version="1.0" encoding="utf-8"?>
<!-- Generator: Adobe Illustrator 19.2.0, SVG Export Plug-In . SVG Version: 6.00 Build 0)  -->
<svg version="1.1" id="Layer_1" xmlns="http://www.w3.org/2000/svg" xmlns:xlink="http://www.w3.org/1999/xlink" x="0px" y="0px"
	 width="24px" height="24px" viewBox="0 0 24 24" style="enable-background:new 0 0 24 24;" xml:space="preserve">
<g>
	<path d="M22.867,21.122c0.009-0.065,0.004-0.131-0.012-0.194c0-0.001,0-0.002,0-0.003l-0.636-2.374
		c-0.072-0.267-0.349-0.42-0.612-0.354c-0.268,0.072-0.426,0.346-0.354,0.612l0.32,1.193l-5.585-3.295v-4.915
		c0-0.095-0.033-0.182-0.082-0.26c-0.015-0.024-0.035-0.041-0.054-0.062c-0.026-0.029-0.043-0.064-0.076-0.087
		c-0.024-0.017-0.052-0.018-0.078-0.031c-0.016-0.008-0.024-0.025-0.041-0.031l-3.669-1.319V3.516l0.885,0.885
		c0.098,0.098,0.226,0.146,0.354,0.146s0.256-0.049,0.354-0.146c0.195-0.195,0.195-0.512,0-0.707L11.84,1.956
		c-0.046-0.046-0.102-0.083-0.163-0.109c-0.122-0.051-0.26-0.051-0.382,0c-0.062,0.025-0.117,0.062-0.163,0.109L9.395,3.694
		c-0.195,0.195-0.195,0.512,0,0.707s0.512,0.195,0.707,0l0.885-0.885v6.504l-3.667,1.301c-0.017,0.006-0.025,0.024-0.041,0.031
		c-0.026,0.012-0.056,0.014-0.08,0.031c-0.032,0.022-0.049,0.057-0.075,0.086c-0.019,0.022-0.039,0.038-0.055,0.062
		c-0.049,0.078-0.082,0.164-0.082,0.259c0,0.001,0,0.001,0,0.002c0,0,0,0,0,0c0,0,0,0,0,0v4.914l-5.623,3.299l0.32-1.195
		c0.071-0.268-0.087-0.541-0.354-0.613c-0.266-0.064-0.54,0.088-0.612,0.354l-0.636,2.374c0,0.001,0,0.002,0,0.002
		c-0.017,0.063-0.021,0.129-0.012,0.194c0.009,0.066,0.031,0.128,0.063,0.184c0,0,0,0.001,0.001,0.002
		c0.001,0.002,0.004,0.003,0.006,0.006c0.039,0.064,0.095,0.115,0.16,0.157c0.021,0.013,0.042,0.022,0.064,0.032
		c0.025,0.011,0.045,0.029,0.072,0.036l2.375,0.637c0.043,0.011,0.087,0.017,0.13,0.017c0.221,0,0.422-0.147,0.482-0.37
		c0.072-0.268-0.087-0.541-0.354-0.613l-1.22-0.327l5.69-3.339l3.78,1.35c0.055,0.02,0.111,0.029,0.168,0.029
		s0.113-0.01,0.168-0.029l3.779-1.35l5.657,3.337l-1.224,0.328c-0.267,0.072-0.425,0.347-0.354,0.613
		c0.061,0.223,0.263,0.37,0.483,0.37c0.043,0,0.086-0.006,0.13-0.017l2.374-0.637c0.027-0.007,0.048-0.025,0.073-0.036
		c0.022-0.01,0.042-0.018,0.063-0.031c0.066-0.042,0.122-0.093,0.162-0.158c0.001-0.002,0.003-0.002,0.004-0.004
		c0,0,0-0.001,0-0.001C22.835,21.251,22.858,21.188,22.867,21.122z M11.511,10.895l2.493,0.896l-2.518,0.899l-2.509-0.896
		L11.511,10.895z M7.986,12.502l0.762,0.272l2.238,0.799v4.138l-3-1.071V12.502z M14.986,16.64l-3,1.071v-4.138l2.238-0.799
		l0.762-0.272V16.64z"/>
	<path d="M19.391,9.847h1.245c0.03,0,0.06-0.002,0.089-0.008c1.4-0.047,2.132-1.2,2.132-2.34c0-1.162-0.763-2.339-2.221-2.339
		h-1.245c-0.276,0-0.5,0.224-0.5,0.5v3.687C18.891,9.624,19.114,9.847,19.391,9.847z M19.891,6.161h0.745
		c0.964,0,1.221,0.842,1.221,1.339c0,0.498-0.257,1.341-1.221,1.341c-0.026,0-0.053,0.002-0.079,0.006h-0.666V6.161z"/>
	<path d="M16.739,9.804c0.112,0,0.224-0.01,0.333-0.03c0.645-0.118,1.076-0.576,1.154-1.225c0.071-0.59-0.148-0.958-0.346-1.163
		c-0.165-0.172-0.367-0.286-0.568-0.36l0.811-1.029c0.119-0.15,0.141-0.355,0.058-0.528c-0.084-0.172-0.259-0.282-0.45-0.282h-2.07
		c-0.276,0-0.5,0.224-0.5,0.5s0.224,0.5,0.5,0.5h1.04l-0.707,0.897c-0.123,0.156-0.141,0.369-0.048,0.543s0.286,0.28,0.479,0.265
		c0.167-0.013,0.575,0.017,0.737,0.188c0.028,0.029,0.102,0.107,0.073,0.349c-0.019,0.151-0.073,0.312-0.342,0.361
		c-0.357,0.066-0.81-0.127-0.914-0.326c-0.128-0.246-0.433-0.337-0.675-0.211c-0.244,0.128-0.339,0.43-0.211,0.675
		C15.366,9.451,16.06,9.804,16.739,9.804z"/>
</g>
</svg>
