<?xml version="1.0" encoding="utf-8"?>
<!-- Generator: Adobe Illustrator 19.2.0, SVG Export Plug-In . SVG Version: 6.00 Build 0)  -->
<svg version="1.1" id="Layer_1" xmlns="http://www.w3.org/2000/svg" xmlns:xlink="http://www.w3.org/1999/xlink" x="0px" y="0px"
	 width="24px" height="24px" viewBox="0 0 24 24" style="enable-background:new 0 0 24 24;" xml:space="preserve">
<g>
	<path d="M3.972,18.314c0-0.533-0.391-0.957-0.897-1.052v-2.658c0-0.276-0.224-0.5-0.5-0.5s-0.5,0.224-0.5,0.5v2.657
		c-0.505,0.094-0.896,0.511-0.889,0.967l-0.287,1.694c0,0.602,0.49,1.092,1.092,1.092h1.168c0.602,0,1.092-0.49,1.092-1.092
		c0-0.028-0.002-0.058-0.007-0.086L3.972,18.314z M3.159,20.014H1.991c-0.036,0-0.067-0.021-0.084-0.021
		c-0.008,0-0.013,0.004-0.015,0.015l0.287-1.694c0-0.051,0.041-0.092,0.092-0.092h0.61c0.051,0,0.092,0.041,0.099,0.178l0.269,1.547
		C3.237,19.986,3.201,20.014,3.159,20.014z"/>
	<path d="M23.965,12.312l-3.094-7.021c-0.08-0.181-0.26-0.298-0.458-0.298H4.366c-0.183,0-0.352,0.1-0.439,0.261l-3.829,7.021
		c-0.084,0.155-0.081,0.343,0.009,0.495c0.09,0.151,0.254,0.245,0.43,0.245h6.162l-1.187,5.197
		c-0.008,0.036-0.013,0.074-0.013,0.111c0,1.985,3.388,2.692,6.558,2.692s6.558-0.707,6.558-2.692c0-0.037-0.004-0.075-0.013-0.111
		l-1.187-5.197h6.092c0.169,0,0.326-0.085,0.419-0.227C24.018,12.645,24.032,12.467,23.965,12.312z M17.613,18.369
		c-0.076,0.817-2.143,1.646-5.556,1.646c-3.414,0-5.479-0.828-5.556-1.646l1.223-5.355h8.665L17.613,18.369z M1.379,12.014
		L3.012,9.02h8.699c0.276,0,0.5-0.224,0.5-0.5s-0.224-0.5-0.5-0.5H3.557l1.105-2.027h15.424l2.653,6.021H1.379z"/>
</g>
</svg>
