<?xml version="1.0" encoding="utf-8"?>
<!-- Generator: Adobe Illustrator 19.2.0, SVG Export Plug-In . SVG Version: 6.00 Build 0)  -->
<svg version="1.1" id="Layer_1" xmlns="http://www.w3.org/2000/svg" xmlns:xlink="http://www.w3.org/1999/xlink" x="0px" y="0px"
	 width="24px" height="24px" viewBox="0 0 24 24" style="enable-background:new 0 0 24 24;" xml:space="preserve">
<g>
	<path d="M23.244,2.986H10.801c-0.229,0-0.429,0.156-0.485,0.378l-4.429,17.57l-2.492-5.621c-0.08-0.182-0.259-0.298-0.457-0.298
		h-2.21c-0.276,0-0.5,0.224-0.5,0.5s0.224,0.5,0.5,0.5h1.885l2.947,6.649c0.081,0.183,0.261,0.298,0.457,0.298
		c0.014,0,0.028-0.001,0.042-0.002c0.212-0.018,0.39-0.169,0.442-0.376L11.19,3.986h12.054c0.276,0,0.5-0.224,0.5-0.5
		S23.521,2.986,23.244,2.986z"/>
	<path d="M21.791,13.169c-0.195-0.195-0.512-0.195-0.707,0l-4.085,4.085l-4.085-4.085c-0.195-0.195-0.512-0.195-0.707,0
		s-0.195,0.512,0,0.707l4.085,4.085l-4.085,4.085c-0.195,0.195-0.195,0.512,0,0.707c0.098,0.098,0.226,0.146,0.354,0.146
		s0.256-0.049,0.354-0.146l4.085-4.085l4.085,4.085c0.098,0.098,0.226,0.146,0.354,0.146s0.256-0.049,0.354-0.146
		c0.195-0.195,0.195-0.512,0-0.707l-4.085-4.085l4.085-4.085C21.986,13.68,21.986,13.364,21.791,13.169z"/>
</g>
</svg>
