<?xml version="1.0" encoding="utf-8"?>
<!-- Generator: Adobe Illustrator 19.2.0, SVG Export Plug-In . SVG Version: 6.00 Build 0)  -->
<svg version="1.1" id="Layer_1" xmlns="http://www.w3.org/2000/svg" xmlns:xlink="http://www.w3.org/1999/xlink" x="0px" y="0px"
	 width="24px" height="24px" viewBox="0 0 24 24" style="enable-background:new 0 0 24 24;" xml:space="preserve">
<g>
	<path d="M21.777,6.122c-0.577-3.991-5.208-6.004-9.295-5.881C8.835,0.356,4.432,2.28,4.025,7.307
		c-0.124,1.142-0.616,3.249-1.407,4.04c-0.26,0.26-0.868,0.871-0.563,1.617c0.297,0.728,0.996,0.692,1.468,0.723
		c-0.019,0.099-0.039,0.2-0.057,0.294c-0.055,0.28-0.093,0.515-0.093,0.559c0,0.349,0.139,0.638,0.396,0.843
		c-0.117,0.332-0.119,0.735,0.306,1.157c0.013,0.033,0.042,0.172,0.042,0.737c0,0.637,0.255,1.207,0.717,1.604
		c0.549,0.472,1.35,0.668,2.203,0.541c1.019-0.165,1.038-0.14,1.369,0.254c0.08,0.095,0.171,0.203,0.281,0.323
		c0.611,0.667,0.612,1.196,0.614,1.865c0.001,0.478,0.003,1.019,0.236,1.626c0.076,0.198,0.265,0.321,0.467,0.321
		c0.047,0,0.095-0.007,0.142-0.021l8.125-2.405c0.235-0.069,0.386-0.3,0.354-0.543c-0.46-3.598,1.125-6.279,1.887-7.568l0.151-0.258
		C22.095,10.552,22.353,10.108,21.777,6.122z M19.798,12.514C19.798,12.514,19.798,12.514,19.798,12.514l-0.147,0.251
		c-0.788,1.334-2.398,4.059-2.063,7.779l-7.238,2.143c-0.047-0.275-0.048-0.546-0.049-0.826c-0.002-0.743-0.005-1.585-0.876-2.538
		c-0.1-0.108-0.181-0.206-0.253-0.291c-0.408-0.485-0.692-0.696-1.327-0.696c-0.254,0-0.564,0.034-0.96,0.098
		c-0.563,0.084-1.07-0.028-1.397-0.312c-0.245-0.21-0.369-0.495-0.369-0.846c0-0.914-0.059-1.158-0.35-1.45
		c-0.05-0.051-0.067-0.08-0.071-0.081c0.01-0.061,0.111-0.224,0.172-0.321c0.084-0.136,0.099-0.303,0.039-0.45
		c-0.059-0.147-0.185-0.258-0.339-0.298c-0.193-0.05-0.195-0.098-0.197-0.098c0.007-0.059,0.04-0.219,0.076-0.405
		c0.062-0.317,0.137-0.704,0.157-0.891c0.027-0.255-0.141-0.489-0.391-0.543c-0.244-0.053-0.486-0.053-0.701-0.053
		c-0.448,0-0.501-0.027-0.531-0.101c-0.036-0.087,0.081-0.267,0.345-0.532c1.319-1.318,1.69-4.605,1.695-4.652
		c0.354-4.379,4.103-6.054,7.493-6.161c3.642-0.108,7.779,1.607,8.273,5.024C21.313,9.907,21.17,10.154,19.798,12.514z"/>
	<path d="M13.934,5.831c-1.179,0-2.139,0.959-2.139,2.139s0.959,2.139,2.139,2.139c1.18,0,2.14-0.959,2.14-2.139
		S15.113,5.831,13.934,5.831z M13.934,9.109c-0.628,0-1.139-0.511-1.139-1.139s0.511-1.139,1.139-1.139s1.14,0.511,1.14,1.139
		S14.562,9.109,13.934,9.109z"/>
	<path d="M18.381,6.863l-0.875-0.115c-0.051-0.15-0.111-0.296-0.182-0.439l0.538-0.7C17.999,5.431,18,5.182,17.864,5.003
		c-0.274-0.364-0.599-0.688-0.961-0.962c-0.179-0.137-0.427-0.135-0.606,0.002l-0.7,0.539c-0.143-0.07-0.29-0.131-0.439-0.183
		l-0.114-0.875c-0.029-0.224-0.204-0.4-0.428-0.431c-0.456-0.063-0.899-0.063-1.359-0.001c-0.223,0.031-0.398,0.207-0.427,0.431
		l-0.115,0.875c-0.151,0.052-0.298,0.113-0.441,0.183l-0.7-0.539c-0.178-0.137-0.427-0.139-0.606-0.002
		C10.608,4.31,10.276,4.642,10.005,5C9.869,5.18,9.87,5.428,10.007,5.607l0.538,0.7c-0.071,0.143-0.132,0.291-0.184,0.442
		L9.486,6.864c-0.223,0.029-0.399,0.204-0.43,0.427c-0.062,0.452-0.062,0.91,0,1.359c0.031,0.223,0.207,0.398,0.43,0.427
		l0.875,0.115c0.052,0.151,0.113,0.298,0.184,0.441l-0.538,0.7c-0.137,0.179-0.138,0.427-0.002,0.606
		c0.271,0.357,0.603,0.69,0.961,0.961c0.18,0.136,0.428,0.135,0.606-0.002l0.701-0.539c0.144,0.07,0.291,0.131,0.441,0.183
		l0.114,0.874c0.029,0.224,0.204,0.4,0.427,0.431c0.228,0.032,0.452,0.047,0.677,0.047c0.227,0,0.453-0.016,0.683-0.048
		c0.224-0.031,0.398-0.207,0.428-0.43l0.114-0.875c0.15-0.051,0.297-0.112,0.439-0.183l0.7,0.538
		c0.18,0.137,0.426,0.138,0.606,0.002c0.364-0.275,0.688-0.599,0.962-0.963c0.135-0.18,0.134-0.427-0.003-0.605l-0.538-0.7
		c0.069-0.143,0.131-0.289,0.182-0.439l0.875-0.115c0.224-0.029,0.399-0.204,0.431-0.427c0.063-0.457,0.063-0.902,0-1.361
		C18.781,7.067,18.604,6.892,18.381,6.863z M17.054,8.243c-0.206,0.027-0.373,0.177-0.422,0.378c-0.067,0.28-0.179,0.547-0.33,0.794
		c-0.107,0.177-0.096,0.402,0.03,0.566l0.494,0.643c-0.075,0.082-0.154,0.161-0.237,0.236l-0.642-0.493
		c-0.166-0.127-0.39-0.139-0.565-0.03c-0.248,0.151-0.515,0.262-0.795,0.33c-0.201,0.048-0.352,0.216-0.379,0.421l-0.105,0.803
		c-0.11,0.005-0.223,0.005-0.334,0l-0.104-0.802c-0.027-0.206-0.178-0.374-0.379-0.422c-0.281-0.067-0.549-0.178-0.797-0.33
		c-0.176-0.106-0.401-0.096-0.565,0.03l-0.642,0.493c-0.082-0.075-0.161-0.154-0.237-0.236l0.493-0.642
		c0.126-0.165,0.138-0.389,0.03-0.566c-0.151-0.248-0.263-0.516-0.33-0.796c-0.048-0.202-0.216-0.352-0.421-0.379l-0.802-0.105
		c-0.005-0.111-0.005-0.223,0-0.334l0.802-0.105c0.206-0.027,0.373-0.177,0.421-0.378c0.067-0.282,0.179-0.55,0.33-0.797
		c0.108-0.177,0.096-0.401-0.03-0.566l-0.493-0.642c0.075-0.082,0.154-0.161,0.236-0.236l0.642,0.494
		c0.164,0.127,0.39,0.139,0.566,0.03c0.247-0.151,0.514-0.262,0.796-0.33c0.201-0.049,0.352-0.216,0.379-0.421l0.104-0.803
		c0.111-0.005,0.222-0.005,0.335,0l0.104,0.803c0.027,0.206,0.178,0.373,0.379,0.421c0.28,0.068,0.548,0.179,0.796,0.331
		c0.176,0.108,0.399,0.097,0.565-0.03l0.642-0.494c0.082,0.076,0.161,0.155,0.237,0.237l-0.494,0.642
		c-0.126,0.164-0.138,0.389-0.03,0.566c0.152,0.248,0.263,0.515,0.33,0.794c0.049,0.201,0.216,0.352,0.422,0.378l0.802,0.105
		c0.006,0.112,0.006,0.224,0.001,0.335L17.054,8.243z"/>
</g>
</svg>
