<?xml version="1.0" encoding="utf-8"?>
<!-- Generator: Adobe Illustrator 19.2.0, SVG Export Plug-In . SVG Version: 6.00 Build 0)  -->
<svg version="1.1" id="Layer_1" xmlns="http://www.w3.org/2000/svg" xmlns:xlink="http://www.w3.org/1999/xlink" x="0px" y="0px"
	 width="24px" height="24px" viewBox="0 0 24 24" style="enable-background:new 0 0 24 24;" xml:space="preserve">
<g>
	<path d="M22.513,11.405C22.354,9.71,21.208,8.5,20.765,8.091c-0.245-2.84-1.96-3.714-2.714-3.963
		c-0.455-1.889-1.295-3.11-2.501-3.633c-1.443-0.626-2.921-0.04-3.5,0.245c-0.557-0.283-1.949-0.849-3.357-0.277
		C7.457,0.965,6.568,2.197,6.049,4.125C5.302,4.369,3.579,5.236,3.327,8.076C2.855,8.472,1.667,9.619,1.47,11.265
		c-0.137,1.15,0.254,2.288,1.122,3.39c-0.05,0.154-0.093,0.314-0.125,0.48c-0.346,1.827,0.615,3.84,2.844,5.986
		c0.009,0.023,0.011,0.045,0.021,0.068c0.479,1.194,1.303,2.026,2.381,2.405c0.44,0.154,0.917,0.23,1.417,0.23
		c0.929,0,1.934-0.275,2.916-0.785c0.48,0.225,1.638,0.698,2.914,0.698c0.537,0,1.093-0.084,1.624-0.308
		c1.065-0.448,1.816-1.377,2.255-2.73c0.806-0.391,3.546-2.042,2.494-5.84C22.214,13.75,22.624,12.59,22.513,11.405z M8.044,22.651
		c-0.81-0.284-1.41-0.901-1.785-1.835c-0.524-1.306,0.079-2.28,0.103-2.317c0.151-0.231,0.086-0.541-0.145-0.692
		c-0.23-0.151-0.54-0.087-0.692,0.144c-0.024,0.036-0.38,0.597-0.461,1.457c-1.291-1.499-1.842-2.869-1.616-4.079
		c0.366-1.951,2.661-2.912,2.684-2.922c0.255-0.104,0.378-0.396,0.273-0.651c-0.104-0.256-0.396-0.379-0.65-0.275
		c-0.089,0.036-1.715,0.716-2.671,2.166c-0.492-0.755-0.709-1.511-0.622-2.255c0.185-1.58,1.626-2.645,1.641-2.655
		C4.224,8.648,4.3,8.51,4.309,8.361C4.472,5.592,6.17,5.104,6.48,5.037c0.104,0.012,0.475,0.074,0.766,0.408
		c0.287,0.328,0.408,0.831,0.36,1.495c-0.02,0.276,0.187,0.515,0.462,0.535c0.012,0.001,0.024,0.001,0.037,0.001
		c0.26,0,0.479-0.201,0.498-0.464c0.069-0.953-0.14-1.708-0.621-2.245C7.692,4.444,7.36,4.265,7.081,4.164
		c0.434-1.474,1.098-2.41,1.982-2.772c0.981-0.402,2.027-0.006,2.482,0.213v20.58C10.293,22.827,9.03,22.995,8.044,22.651z
		 M19.099,19.385c0.074-1.536-0.774-2.421-1.737-2.74c-1.375-0.455-2.955,0.142-3.388,1.275c-0.098,0.258,0.032,0.547,0.29,0.646
		c0.258,0.095,0.547-0.031,0.646-0.29c0.241-0.635,1.283-0.967,2.137-0.682c0.963,0.319,1.297,1.267,0.918,2.6
		c-0.337,1.183-0.932,1.961-1.767,2.314c-1.343,0.568-3.016-0.055-3.653-0.339V9.861c0.734-0.384,2.187-0.925,3.217-0.509
		c-0.072,0.581-0.047,1.219,0.17,1.909c0.066,0.213,0.264,0.35,0.477,0.35c0.05,0,0.1-0.007,0.15-0.023
		c0.263-0.083,0.409-0.364,0.326-0.627c-0.513-1.631,0.282-2.957,0.802-3.603c0.173-0.215,0.139-0.53-0.076-0.703
		c-0.215-0.172-0.529-0.14-0.703,0.076c-0.299,0.372-0.665,0.933-0.913,1.628c-1.21-0.411-2.607,0.028-3.45,0.397V1.61
		c0.482-0.225,1.603-0.638,2.612-0.196c0.951,0.416,1.619,1.5,1.983,3.222c0.044,0.207,0.213,0.364,0.422,0.392
		c0.021,0.002,2.042,0.311,2.22,3.333c0.008,0.142,0.076,0.273,0.187,0.361c0.015,0.011,1.395,1.132,1.549,2.776
		c0.093,0.983-0.28,1.971-1.106,2.934c-0.227,0.266-0.922,1.072-2.432-0.2c-0.211-0.178-0.528-0.15-0.705,0.061
		c-0.178,0.212-0.15,0.527,0.061,0.705c1.142,0.96,2.251,1.167,3.159,0.643C20.858,17.656,19.876,18.809,19.099,19.385z"/>
	<path d="M7.926,8.372c-0.25-0.118-0.548-0.01-0.666,0.24C7.143,8.862,7.25,9.16,7.5,9.278c0.025,0.011,2.471,1.189,1.886,3.222
		c-0.076,0.265,0.077,0.542,0.342,0.619c0.046,0.013,0.093,0.02,0.139,0.02c0.217,0,0.417-0.143,0.48-0.362
		C11.001,10.502,9.049,8.901,7.926,8.372z"/>
	<path d="M9.13,15.677c-0.053,0.039-1.294,0.963-1.395,2.283c-0.055,0.723,0.23,1.401,0.848,2.018
		c0.098,0.098,0.226,0.146,0.354,0.146s0.256-0.049,0.354-0.146c0.195-0.195,0.195-0.513-0.001-0.707
		c-0.406-0.406-0.588-0.809-0.557-1.23c0.062-0.859,0.981-1.551,0.99-1.558c0.221-0.164,0.269-0.477,0.105-0.698
		C9.663,15.56,9.352,15.512,9.13,15.677z"/>
</g>
</svg>
