<?xml version="1.0" encoding="utf-8"?>
<!-- Generator: Adobe Illustrator 19.2.0, SVG Export Plug-In . SVG Version: 6.00 Build 0)  -->
<svg version="1.1" id="Layer_1" xmlns="http://www.w3.org/2000/svg" xmlns:xlink="http://www.w3.org/1999/xlink" x="0px" y="0px"
	 width="24px" height="24px" viewBox="0 0 24 24" style="enable-background:new 0 0 24 24;" xml:space="preserve">
<g>
	<path d="M8.557,9.847c-2.03-0.71-3.853-0.408-4.239,0.699C3.931,11.654,5.17,13.024,7.2,13.733c0.716,0.25,1.441,0.382,2.088,0.382
		c0.16,0,0.315-0.009,0.465-0.024c0.883-0.097,1.481-0.472,1.686-1.057C11.826,11.926,10.587,10.556,8.557,9.847z M10.495,12.704
		c-0.067,0.192-0.393,0.342-0.85,0.392c-0.599,0.064-1.37-0.046-2.115-0.307c-1.573-0.549-2.407-1.515-2.268-1.913
		c0.081-0.231,0.537-0.408,1.214-0.408c0.488,0,1.092,0.092,1.751,0.323C9.8,11.341,10.634,12.306,10.495,12.704z"/>
	<path d="M12.017,0.171c-5.759,0-9.939,3.782-9.939,8.993c0,5.484,6.224,14.67,9.939,14.67c3.716,0,9.94-9.187,9.94-14.67
		C21.957,3.953,17.776,0.171,12.017,0.171z M12.017,22.835c-2.846,0-8.939-8.582-8.939-13.67c0-4.706,3.676-7.993,8.939-7.993
		c5.264,0,8.94,3.287,8.94,7.993C20.957,14.253,14.863,22.835,12.017,22.835z"/>
	<path d="M19.715,10.546c-0.387-1.107-2.211-1.408-4.239-0.699c-0.894,0.312-1.683,0.778-2.221,1.311
		c-0.63,0.625-0.865,1.292-0.661,1.876c0.204,0.586,0.802,0.961,1.686,1.057c0.148,0.017,0.304,0.024,0.464,0.024
		c0.647,0,1.372-0.131,2.089-0.382C18.862,13.024,20.102,11.654,19.715,10.546z M16.503,12.788c-0.743,0.26-1.511,0.374-2.115,0.307
		c-0.457-0.049-0.782-0.2-0.85-0.392c-0.066-0.192,0.095-0.512,0.421-0.836c0.428-0.424,1.102-0.816,1.847-1.077
		c0.659-0.23,1.263-0.322,1.752-0.322c0.676,0,1.133,0.176,1.214,0.407C18.91,11.273,18.076,12.24,16.503,12.788z"/>
</g>
</svg>
