<?xml version="1.0" encoding="utf-8"?>
<!-- Generator: Adobe Illustrator 19.2.0, SVG Export Plug-In . SVG Version: 6.00 Build 0)  -->
<svg version="1.1" id="Layer_1" xmlns="http://www.w3.org/2000/svg" xmlns:xlink="http://www.w3.org/1999/xlink" x="0px" y="0px"
	 width="24px" height="24px" viewBox="0 0 24 24" style="enable-background:new 0 0 24 24;" xml:space="preserve">
<g>
	<path d="M20.044,12.405c-0.269-0.042-0.524,0.16-0.558,0.434c-0.301,2.413-1.691,4.464-3.815,5.628
		c-2.134,1.171-4.613,1.242-6.802,0.203c-0.249-0.12-0.548-0.013-0.667,0.236c-0.119,0.25-0.012,0.548,0.237,0.666
		c1.165,0.554,2.401,0.829,3.635,0.829c1.398,0,2.793-0.354,4.077-1.058c2.409-1.321,3.986-3.646,4.327-6.381
		C20.513,12.689,20.318,12.439,20.044,12.405z"/>
	<path d="M23.599,5.618c-0.405-0.741-1.59-1.472-4.907-0.754c-0.271,0.059-0.441,0.325-0.383,0.594
		c0.058,0.269,0.321,0.446,0.594,0.383c2.429-0.525,3.564-0.211,3.818,0.257c0.258,0.471-0.097,1.606-1.862,3.381
		c-0.227,0.228-0.473,0.461-0.732,0.695c-0.022-0.107-0.041-0.217-0.067-0.319c-0.443-1.737-1.42-3.255-2.823-4.39
		c-2.062-1.667-4.709-2.248-7.263-1.597c-3.33,0.85-5.817,3.721-6.188,7.144c-0.278,2.561,0.631,5.039,2.443,6.806
		c-0.337,0.094-0.668,0.179-0.985,0.25c-2.497,0.559-3.667,0.245-3.93-0.232c-0.261-0.476,0.098-1.623,1.892-3.416
		c0.195-0.195,0.195-0.512,0-0.707s-0.512-0.195-0.707,0c-2.449,2.449-2.473,3.855-2.061,4.604c0.29,0.527,0.972,1.048,2.529,1.048
		c0.661,0,1.48-0.094,2.495-0.32c0.609-0.137,1.256-0.314,1.922-0.527c0,0,0.001,0,0.001,0c4.284-1.369,9.272-4.111,12.708-6.987
		c0.541-0.453,1.037-0.906,1.475-1.346C23.982,7.757,24.005,6.362,23.599,5.618z M7.335,17.482
		c-1.868-1.564-2.821-3.923-2.556-6.361c0.327-3.012,2.514-5.537,5.441-6.284c0.603-0.153,1.211-0.229,1.813-0.229
		c1.644,0,3.246,0.562,4.573,1.635c1.235,0.998,2.094,2.333,2.483,3.859c0.064,0.253,0.114,0.523,0.153,0.833
		C16.022,13.576,11.306,16.169,7.335,17.482z"/>
	<path d="M7.87,9.218c-0.978,0-1.773,0.795-1.773,1.772s0.795,1.773,1.773,1.773s1.772-0.795,1.772-1.773S8.847,9.218,7.87,9.218z
		 M7.87,11.763c-0.426,0-0.773-0.347-0.773-0.773c0-0.426,0.347-0.772,0.773-0.772c0.426,0,0.772,0.347,0.772,0.772
		C8.642,11.417,8.295,11.763,7.87,11.763z"/>
	<path d="M9.78,6.894c-0.61,0-1.107,0.497-1.107,1.107S9.169,9.108,9.78,9.108c0.611,0,1.107-0.497,1.107-1.107
		S10.391,6.894,9.78,6.894z M9.673,8.001c0-0.059,0.048-0.107,0.107-0.107s0.107,0.048,0.107,0.107
		C9.887,8.119,9.673,8.119,9.673,8.001z"/>
</g>
</svg>
