<?xml version="1.0" encoding="utf-8"?>
<!-- Generator: Adobe Illustrator 19.2.0, SVG Export Plug-In . SVG Version: 6.00 Build 0)  -->
<svg version="1.1" id="Layer_1" xmlns="http://www.w3.org/2000/svg" xmlns:xlink="http://www.w3.org/1999/xlink" x="0px" y="0px"
	 width="24px" height="24px" viewBox="0 0 24 24" style="enable-background:new 0 0 24 24;" xml:space="preserve">
<g>
	<path d="M20.027,21.341L15.635,9.388v-5.41c0.379-0.095,0.71-0.3,0.958-0.602c0.302-0.367,0.469-0.854,0.469-1.371
		c0-1.014-0.66-2.04-1.921-2.04H8.885c-1.258,0-1.917,1.032-1.917,2.05c0,0.862,0.485,1.734,1.423,1.963v5.409l-1.806,4.913
		c0,0,0,0,0,0l-2.583,7.029c-0.241,0.591-0.172,1.26,0.184,1.791c0.357,0.53,0.951,0.848,1.59,0.848H18.25
		c0.639,0,1.232-0.316,1.589-0.847C20.193,22.594,20.264,21.928,20.027,21.341z M9.361,9.65c0.021-0.055,0.031-0.113,0.031-0.172
		V3.538c0-0.276-0.23-0.5-0.506-0.5c-0.677,0-0.917-0.55-0.917-1.021c0-0.285,0.089-0.559,0.244-0.749
		c0.163-0.2,0.389-0.301,0.673-0.301h6.255c0.727,0,0.921,0.653,0.921,1.04c0,0.282-0.088,0.55-0.241,0.735
		c-0.161,0.197-0.391,0.296-0.686,0.296c-0.276,0-0.5,0.224-0.5,0.5v5.939c0,0.059,0.011,0.117,0.03,0.172l1.405,3.822
		c-1.089,0.38-4.834,0.565-8.311,0.537L9.361,9.65z M19.009,22.565c-0.173,0.257-0.449,0.404-0.759,0.404H5.776
		c-0.31,0-0.586-0.147-0.76-0.405c-0.173-0.258-0.205-0.569-0.082-0.871l2.458-6.687c0.343,0.005,0.76,0.008,1.23,0.008
		c2.42,0,6.184-0.095,7.782-0.632l2.686,7.31c0.003,0.005,0.005,0.011,0.007,0.017C19.215,21.995,19.182,22.307,19.009,22.565z"/>
	<path d="M9.5,15.913c-0.852,0-1.545,0.694-1.545,1.548c0,0.853,0.693,1.547,1.545,1.547c0.855,0,1.55-0.694,1.55-1.547
		C11.051,16.607,10.355,15.913,9.5,15.913z M9.5,18.008c-0.3,0-0.545-0.245-0.545-0.547S9.2,16.913,9.5,16.913
		c0.309,0,0.55,0.24,0.55,0.548C10.051,17.762,9.804,18.008,9.5,18.008z"/>
	<path d="M13.953,17.734c-1.182,0-2.144,0.963-2.144,2.146c0,1.185,0.962,2.148,2.144,2.148c1.187,0,2.152-0.964,2.152-2.148
		C16.105,18.697,15.14,17.734,13.953,17.734z M13.953,21.029c-0.631,0-1.144-0.516-1.144-1.148c0-0.632,0.513-1.146,1.144-1.146
		c0.636,0,1.152,0.515,1.152,1.146C15.105,20.513,14.589,21.029,13.953,21.029z"/>
	<path d="M11.526,12.909c0.813,0,1.476-0.662,1.476-1.475c0-0.813-0.662-1.475-1.476-1.475c-0.813,0-1.475,0.662-1.475,1.475
		C10.052,12.248,10.713,12.909,11.526,12.909z M11.526,10.96c0.262,0,0.475,0.213,0.475,0.475c0,0.262-0.213,0.475-0.475,0.475
		c-0.262,0-0.475-0.213-0.475-0.475C11.052,11.173,11.265,10.96,11.526,10.96z"/>
</g>
</svg>
