<?xml version="1.0" encoding="utf-8"?>
<!-- Generator: Adobe Illustrator 19.2.0, SVG Export Plug-In . SVG Version: 6.00 Build 0)  -->
<svg version="1.1" id="Layer_1" xmlns="http://www.w3.org/2000/svg" xmlns:xlink="http://www.w3.org/1999/xlink" x="0px" y="0px"
	 width="24px" height="24px" viewBox="0 0 24 24" style="enable-background:new 0 0 24 24;" xml:space="preserve">
<g>
	<path d="M8.328,0.003H2.672C1.199,0.003,0,1.202,0,2.675v5.656c0,1.473,1.199,2.672,2.672,2.672h5.656
		C9.801,11.003,11,9.804,11,8.331V2.675C11,1.202,9.801,0.003,8.328,0.003z M10,8.331c0,0.922-0.75,1.672-1.672,1.672H2.672
		C1.75,10.003,1,9.253,1,8.331V2.675c0-0.922,0.75-1.672,1.672-1.672h5.656C9.25,1.003,10,1.753,10,2.675V8.331z"/>
	<path d="M7.44,5.003H5.987V3.55c0-0.276-0.224-0.5-0.5-0.5s-0.5,0.224-0.5,0.5v1.453H3.534c-0.276,0-0.5,0.224-0.5,0.5
		s0.224,0.5,0.5,0.5h1.453v1.453c0,0.276,0.224,0.5,0.5,0.5s0.5-0.224,0.5-0.5V6.003H7.44c0.276,0,0.5-0.224,0.5-0.5
		S7.716,5.003,7.44,5.003z"/>
	<path d="M20.44,5.003h-3.906c-0.276,0-0.5,0.224-0.5,0.5s0.224,0.5,0.5,0.5h3.906c0.276,0,0.5-0.224,0.5-0.5
		S20.717,5.003,20.44,5.003z"/>
	<path d="M21.329,0.003h-5.656c-1.474,0-2.672,1.199-2.672,2.672v5.656c0,1.473,1.198,2.672,2.672,2.672h5.656
		c1.474,0,2.672-1.199,2.672-2.672V2.675C24.001,1.202,22.803,0.003,21.329,0.003z M23.001,8.331c0,0.922-0.75,1.672-1.672,1.672
		h-5.656c-0.922,0-1.672-0.75-1.672-1.672V2.675c0-0.922,0.75-1.672,1.672-1.672h5.656c0.922,0,1.672,0.75,1.672,1.672V8.331z"/>
	<path d="M8.328,13.004H2.672C1.199,13.004,0,14.202,0,15.676v5.656c0,1.474,1.199,2.672,2.672,2.672h5.656
		c1.473,0,2.672-1.198,2.672-2.672v-5.656C11,14.202,9.801,13.004,8.328,13.004z M10,21.332c0,0.922-0.75,1.672-1.672,1.672H2.672
		C1.75,23.004,1,22.254,1,21.332v-5.656c0-0.922,0.75-1.672,1.672-1.672h5.656c0.922,0,1.672,0.75,1.672,1.672V21.332z"/>
	<path d="M7.221,16.769c-0.195-0.195-0.512-0.195-0.707,0l-1.028,1.027l-1.028-1.027c-0.195-0.195-0.512-0.195-0.707,0
		s-0.195,0.512,0,0.707l1.028,1.027l-1.028,1.027c-0.195,0.195-0.195,0.512,0,0.707c0.098,0.098,0.226,0.146,0.354,0.146
		s0.256-0.049,0.354-0.146l1.028-1.027l1.028,1.027c0.098,0.098,0.226,0.146,0.354,0.146s0.256-0.049,0.354-0.146
		c0.195-0.195,0.195-0.512,0-0.707l-1.028-1.027l1.028-1.027C7.417,17.281,7.417,16.965,7.221,16.769z"/>
	<path d="M20.44,18.004h-3.906c-0.276,0-0.5,0.224-0.5,0.5s0.224,0.5,0.5,0.5h3.906c0.276,0,0.5-0.224,0.5-0.5
		S20.717,18.004,20.44,18.004z"/>
	<path d="M21.329,13.004h-5.656c-1.474,0-2.672,1.198-2.672,2.672v5.656c0,1.474,1.198,2.672,2.672,2.672h5.656
		c1.474,0,2.672-1.198,2.672-2.672v-5.656C24.001,14.202,22.803,13.004,21.329,13.004z M23.001,21.332
		c0,0.922-0.75,1.672-1.672,1.672h-5.656c-0.922,0-1.672-0.75-1.672-1.672v-5.656c0-0.922,0.75-1.672,1.672-1.672h5.656
		c0.922,0,1.672,0.75,1.672,1.672V21.332z"/>
	<path d="M18.5,17c0.13,0,0.25-0.05,0.359-0.15C18.95,16.76,19,16.63,19,16.5c0-0.12-0.05-0.25-0.15-0.35
		c-0.189-0.19-0.52-0.19-0.7,0C18.05,16.25,18,16.37,18,16.5c0,0.14,0.05,0.26,0.149,0.36C18.24,16.95,18.37,17,18.5,17z"/>
	<path d="M18.149,20.15C18.05,20.24,18,20.37,18,20.5s0.05,0.26,0.149,0.36C18.24,20.95,18.37,21,18.5,21s0.25-0.05,0.359-0.15
		C18.95,20.76,19,20.63,19,20.5c0-0.12-0.05-0.25-0.15-0.35C18.66,19.96,18.319,19.969,18.149,20.15z"/>
</g>
</svg>
