<?xml version="1.0" encoding="utf-8"?>
<!-- Generator: Adobe Illustrator 19.2.0, SVG Export Plug-In . SVG Version: 6.00 Build 0)  -->
<svg version="1.1" id="Layer_1" xmlns="http://www.w3.org/2000/svg" xmlns:xlink="http://www.w3.org/1999/xlink" x="0px" y="0px"
	 width="24px" height="24px" viewBox="0 0 24 24" style="enable-background:new 0 0 24 24;" xml:space="preserve">
<g>
	<path d="M11.975,10.277c-0.957,0-1.736,0.779-1.736,1.736s0.779,1.736,1.736,1.736s1.736-0.779,1.736-1.736
		S12.932,10.277,11.975,10.277z M11.975,12.749c-0.406,0-0.736-0.33-0.736-0.736s0.33-0.736,0.736-0.736s0.736,0.33,0.736,0.736
		S12.381,12.749,11.975,12.749z"/>
	<path d="M21.211,11.405c1.506-2.083,1.9-3.981,1.112-5.346c-0.89-1.544-3.124-2.057-5.943-1.609
		c-1.021-2.666-2.584-4.344-4.367-4.344c-1.782,0-3.345,1.677-4.366,4.343c-2.819-0.448-5.053,0.066-5.945,1.61
		C0.81,7.603,1.484,9.797,3.284,12.016c-0.163,0.201-0.324,0.402-0.47,0.604c-1.505,2.083-1.9,3.981-1.113,5.345
		c0.668,1.156,2.093,1.769,4.07,1.769c0.354,0,0.727-0.02,1.115-0.06c0.248-0.025,0.502-0.064,0.757-0.104
		c1.021,2.668,2.585,4.348,4.369,4.348c1.783,0,3.346-1.679,4.368-4.347c0.649,0.103,1.27,0.161,1.848,0.161
		c1.93,0,3.41-0.579,4.096-1.767c0.892-1.544,0.218-3.739-1.582-5.958C20.905,11.807,21.065,11.607,21.211,11.405z M18.284,5.285
		c1.526,0,2.677,0.414,3.174,1.274c0.57,0.988,0.185,2.541-1.058,4.26c-0.101,0.14-0.216,0.28-0.327,0.42
		c-0.744-0.803-1.634-1.597-2.641-2.358c-0.155-1.251-0.398-2.418-0.72-3.463C17.266,5.336,17.798,5.285,18.284,5.285z M14.32,16.01
		c-0.764,0.441-1.535,0.828-2.303,1.169c-0.767-0.339-1.542-0.725-2.312-1.169c-0.769-0.444-1.489-0.921-2.165-1.415
		c-0.089-0.832-0.142-1.695-0.142-2.582c0-0.889,0.053-1.753,0.143-2.587c0.68-0.494,1.401-0.969,2.164-1.41
		c0.769-0.444,1.543-0.836,2.309-1.174c0.765,0.339,1.539,0.73,2.307,1.174c0.768,0.444,1.488,0.92,2.164,1.414
		c0.089,0.833,0.142,1.695,0.142,2.583c0,0.889-0.053,1.753-0.143,2.587C15.805,15.094,15.084,15.568,14.32,16.01z M16.301,15.946
		c-0.15,0.885-0.349,1.715-0.588,2.475c-0.778-0.173-1.595-0.416-2.437-0.728c0.517-0.254,1.033-0.522,1.544-0.817
		C15.332,16.579,15.823,16.266,16.301,15.946z M10.756,17.695c-0.834,0.311-1.652,0.556-2.442,0.73
		c-0.239-0.761-0.439-1.592-0.589-2.479c0.475,0.318,0.964,0.631,1.48,0.929C9.724,17.174,10.241,17.442,10.756,17.695z
		 M6.462,13.758c-0.692-0.574-1.312-1.161-1.851-1.749c0.545-0.597,1.166-1.182,1.852-1.749c-0.038,0.572-0.065,1.154-0.065,1.752
		C6.398,12.608,6.424,13.188,6.462,13.758z M7.725,8.079c0.15-0.885,0.349-1.713,0.587-2.473c0.779,0.173,1.596,0.412,2.44,0.725
		c-0.514,0.253-1.03,0.52-1.547,0.819C8.694,7.445,8.203,7.758,7.725,8.079z M13.275,6.331c0.843-0.313,1.66-0.552,2.438-0.725
		c0.238,0.759,0.437,1.587,0.587,2.471c-0.475-0.318-0.963-0.63-1.479-0.928C14.305,6.851,13.789,6.584,13.275,6.331z
		 M17.564,10.266c0.693,0.574,1.312,1.162,1.852,1.75c-0.545,0.597-1.166,1.183-1.852,1.75c0.038-0.572,0.065-1.154,0.065-1.752
		C17.628,11.416,17.602,10.836,17.564,10.266z M12.013,1.106c1.312,0,2.513,1.381,3.362,3.54c-1.067,0.243-2.2,0.616-3.362,1.108
		c-1.163-0.492-2.296-0.866-3.363-1.109C9.5,2.487,10.701,1.106,12.013,1.106z M2.568,6.559c0.497-0.861,1.647-1.274,3.174-1.274
		c0.486,0,1.018,0.051,1.572,0.134C6.991,6.464,6.748,7.631,6.593,8.883c-0.991,0.75-1.882,1.544-2.639,2.36
		C2.508,9.427,1.912,7.695,2.568,6.559z M6.786,18.68c-2.109,0.219-3.647-0.228-4.218-1.215c-0.57-0.988-0.185-2.54,1.057-4.26
		c0.102-0.141,0.217-0.281,0.328-0.422c0.744,0.802,1.634,1.596,2.64,2.357c0.155,1.252,0.398,2.421,0.721,3.467
		C7.137,18.633,6.958,18.663,6.786,18.68z M12.013,22.919c-1.312,0-2.514-1.382-3.364-3.543c1.086-0.248,2.22-0.622,3.366-1.106
		c1.163,0.492,2.294,0.862,3.362,1.105C14.527,21.536,13.326,22.919,12.013,22.919z M21.459,17.466
		c-0.657,1.136-2.453,1.485-4.747,1.142c0.323-1.046,0.566-2.214,0.721-3.466c0.991-0.75,1.882-1.544,2.639-2.36
		C21.518,14.597,22.115,16.329,21.459,17.466z"/>
</g>
</svg>
