<?xml version="1.0" encoding="utf-8"?>
<!-- Generator: Adobe Illustrator 19.2.0, SVG Export Plug-In . SVG Version: 6.00 Build 0)  -->
<svg version="1.1" id="Layer_1" xmlns="http://www.w3.org/2000/svg" xmlns:xlink="http://www.w3.org/1999/xlink" x="0px" y="0px"
	 width="24px" height="24px" viewBox="0 0 24 24" style="enable-background:new 0 0 24 24;" xml:space="preserve">
<g>
	<path d="M19.02,6.082c-0.255-0.287-0.737-0.285-0.992,0.001c-0.43,0.485-1.15,1.446-1.15,2.447l0.077,5.273
		c0.004,0.276,0.245,0.521,0.507,0.493c0.276-0.004,0.497-0.231,0.493-0.507l-0.077-5.267c0-0.517,0.367-1.1,0.646-1.469
		c0.345,0.456,0.646,1.014,0.646,1.462l-0.132,9.809c-0.004,0.276,0.217,0.503,0.493,0.507c0.002,0,0.005,0,0.007,0
		c0.273,0,0.496-0.22,0.5-0.493l0.132-9.816C20.17,7.491,19.366,6.473,19.02,6.082z"/>
	<path d="M4.519,18.832c0.276-0.004,0.497-0.23,0.493-0.507L4.879,8.523c0-0.516,0.367-1.099,0.646-1.469
		c0.28,0.37,0.646,0.951,0.646,1.461l-0.078,5.313c-0.004,0.275,0.217,0.503,0.493,0.507c0.284-0.024,0.503-0.216,0.507-0.493
		l0.078-5.32c0-0.992-0.72-1.954-1.149-2.439C5.896,5.94,5.715,5.858,5.527,5.858c0,0-0.001,0-0.001,0
		c-0.188,0-0.369,0.082-0.497,0.226C4.599,6.569,3.879,7.531,3.879,8.53l0.133,9.809c0.004,0.273,0.227,0.493,0.5,0.493
		C4.514,18.832,4.516,18.832,4.519,18.832z"/>
	<path d="M8.7,10.927c0.005,0,0.011,0,0.017,0c0.276-0.009,0.492-0.239,0.483-0.516L9.058,5.948c0-1.976,2.242-4.202,2.989-4.837
		c0.687,0.635,2.929,2.861,2.929,4.821l-0.145,4.479c-0.009,0.276,0.208,0.507,0.483,0.516c0.006,0,0.012,0,0.017,0
		c0.269,0,0.491-0.213,0.5-0.484l0.145-4.495c0-2.316-2.273-4.668-3.25-5.571c-0.391-0.361-1.027-0.361-1.418,0
		c-0.977,0.903-3.25,3.254-3.25,5.587l0.143,4.479C8.209,10.714,8.432,10.927,8.7,10.927z"/>
	<path d="M17.485,17.517c0.231-0.025,0.414-0.207,0.441-0.438c0.017-0.139,0.104-1.396-1.861-2.938
		c-1.526-1.199-1.92-2.749-1.963-2.939v-2.92c0-1.436-0.856-3.035-2.085-3.035c-1.229,0-2.085,1.599-2.085,3.035v2.922
		c-0.043,0.192-0.425,1.728-1.963,2.936c-1.966,1.542-1.878,2.8-1.861,2.938c0.028,0.23,0.211,0.412,0.442,0.438l3.386,0.372
		c0.015,0.442,0.367,0.682,2.082,0.682c1.715,0,2.068-0.241,2.082-0.682L17.485,17.517z M15.448,14.928
		c0.897,0.704,1.253,1.294,1.394,1.653l-2.739,0.301v-3.387C14.437,13.974,14.866,14.471,15.448,14.928z M8.586,14.928
		c0.583-0.458,1.012-0.955,1.346-1.432v3.387l-2.738-0.301C7.335,16.219,7.691,15.63,8.586,14.928z M13.103,17.51
		c-0.221,0.031-0.587,0.062-1.085,0.062c-0.498,0-0.864-0.03-1.085-0.062V8.283c0-1.077,0.607-2.035,1.085-2.035
		c0.479,0,1.085,0.958,1.085,2.035V17.51z"/>
	<path d="M11.139,7.644c-0.163,0.223-0.079,0.524,0.145,0.687c0.221,0.162,0.569,0.102,0.733-0.122c0.042,0,0.064,0.016,0.069,0.022
		c0.1,0.128,0.252,0.197,0.405,0.197c0.103,0,0.207-0.032,0.295-0.098c0.218-0.164,0.27-0.465,0.11-0.686
		C12.501,7.1,11.535,7.099,11.139,7.644z"/>
	<path d="M5.624,19.231c-0.708,0-1.284,0.576-1.284,1.284c0,0.032,0.177,3.205,1.284,3.205s1.284-3.173,1.284-3.205
		C6.908,19.807,6.332,19.231,5.624,19.231z M5.624,22.191c-0.152-0.582-0.284-1.385-0.284-1.676c0-0.156,0.127-0.284,0.284-0.284
		s0.284,0.128,0.284,0.284C5.908,20.805,5.776,21.609,5.624,22.191z"/>
	<path d="M18.41,19.231c-0.708,0-1.283,0.576-1.283,1.284c0,0.032,0.177,3.205,1.283,3.205c1.107,0,1.284-3.173,1.284-3.205
		C19.694,19.807,19.118,19.231,18.41,19.231z M18.41,22.191c-0.151-0.582-0.283-1.385-0.283-1.676c0-0.156,0.127-0.284,0.283-0.284
		s0.284,0.128,0.284,0.284C18.694,20.806,18.562,21.609,18.41,22.191z"/>
	<path d="M12.017,19.005c-0.799,0-1.45,0.599-1.45,1.334c0,0.034,0.245,3.382,1.45,3.382s1.45-3.348,1.45-3.382
		C13.467,19.603,12.816,19.005,12.017,19.005z M12.017,22.442c-0.225-0.594-0.45-1.729-0.45-2.104c0-0.181,0.206-0.334,0.45-0.334
		s0.45,0.153,0.45,0.334C12.467,20.713,12.242,21.848,12.017,22.442z"/>
</g>
</svg>
