<?xml version="1.0" encoding="utf-8"?>
<!-- Generator: Adobe Illustrator 19.2.0, SVG Export Plug-In . SVG Version: 6.00 Build 0)  -->
<svg version="1.1" id="Layer_1" xmlns="http://www.w3.org/2000/svg" xmlns:xlink="http://www.w3.org/1999/xlink" x="0px" y="0px"
	 width="24px" height="24px" viewBox="0 0 24 24" style="enable-background:new 0 0 24 24;" xml:space="preserve">
<g>
	<path d="M19.417,7.506c0.027-0.107,0.062-0.241,0.057-0.397v0c-0.015-0.418-0.362-1.016-0.595-1.244
		c-0.076-0.074-0.246-0.219-0.242-0.208c-0.005-0.125-0.036-0.367-0.195-0.591c-0.177-0.249-0.448-0.386-0.774-0.392
		c-0.007-0.015-0.014-0.03-0.02-0.043c-0.044-0.101-0.104-0.238-0.223-0.354c-0.022-0.022-0.044-0.054-0.068-0.086
		c-0.119-0.159-0.454-0.6-0.949-0.501c-0.103-0.145-0.255-0.347-0.516-0.434l-0.129-0.049c-0.207-0.083-0.533-0.212-0.936-0.095
		c-0.04-0.107-0.094-0.226-0.193-0.322c-0.17-0.167-0.445-0.265-0.727-0.25c-0.243,0.009-0.463,0.091-0.63,0.234
		c-0.05-0.02-0.114-0.058-0.157-0.1c-0.183-0.178-0.467-0.276-0.782-0.258c-0.158,0.005-0.549,0.047-0.75,0.281
		c-0.088,0.057-0.446,0.146-0.677,0.154c-0.205,0.008-0.853,0.098-1.133,0.401C9.723,3.31,9.681,3.378,9.653,3.449
		C9.49,3.594,8.99,3.914,8.655,4.031c-0.396,0.136-0.861,0.478-0.83,1.319c-0.001,0.007-0.03,0.191-0.482,0.702
		C7.016,6.421,7.019,6.696,7.05,6.946c0.008,0.067,0.013,0.101,0.002,0.155C7.018,7.288,7.014,7.402,7.012,7.51
		c-0.002,0.106-0.004,0.176-0.06,0.376C6.777,8.51,7.216,9.299,7.305,9.45c0.062,0.104,0.158,0.183,0.273,0.221
		c0.108,0.036,0.28,0.14,0.304,0.176c0.008,0.235,0.105,0.437,0.271,0.57c0.299,0.237,0.676,0.165,0.926,0.116
		c0.043-0.008,0.083-0.018,0.115-0.02c0.035,0,0.363,0.065,0.737,0.431c0.553,0.543,0.927,0.465,1.353,0.159
		c0.044-0.032,0.094-0.067,0.204-0.129c0.025,0.024,0.055,0.055,0.079,0.08l0.103,0.104c0.219,0.215,0.493,0.32,0.792,0.319
		c0.292-0.01,0.575-0.146,0.738-0.34c0.085-0.044,0.344-0.054,0.541-0.056l-0.001,0c-0.143,0.388,0.001,0.624,0.099,0.729
		c0.218,0.238,0.521,0.212,0.772,0.15c0.049,0.09,0.108,0.199,0.188,0.326c0.229,0.364,0.517,0.528,0.728,0.648
		c0.107,0.061,0.192,0.109,0.258,0.173c0.138,0.135,0.31,0.208,0.488,0.208c0.021,0,0.042-0.001,0.063-0.003
		c0.383-0.037,0.61-0.366,0.831-0.684c0.071-0.104,0.145-0.211,0.222-0.299c0.195-0.222,0.49-0.337,0.901-0.352
		c0.295-0.01,0.518-0.105,0.661-0.283c0.21-0.258,0.158-0.555,0.128-0.732c-0.007-0.038-0.015-0.076-0.016-0.116
		c-0.01-0.252-0.006-0.38,0.065-0.46c0.186-0.209,0.657-0.74,0.292-1.249c0.022-0.028,0.05-0.061,0.084-0.099
		c0.374-0.421,0.249-1.083-0.103-1.476C19.406,7.544,19.412,7.526,19.417,7.506z M18.496,9.589
		c-0.037,0.046-0.083,0.097-0.116,0.134c-0.344,0.389-0.327,0.852-0.316,1.158c0.001,0.034,0.004,0.068,0.009,0.109
		c-0.604,0.057-1.086,0.284-1.433,0.677c-0.102,0.114-0.2,0.254-0.295,0.392c-0.029,0.042-0.064,0.093-0.1,0.141
		c-0.077-0.052-0.153-0.095-0.225-0.135c-0.168-0.096-0.279-0.16-0.375-0.311c-0.079-0.126-0.134-0.229-0.177-0.311
		c-0.106-0.199-0.262-0.492-0.617-0.528c0.043-0.195,0.038-0.388-0.092-0.569c-0.093-0.129-0.275-0.287-0.633-0.268l-0.223,0.001
		c-0.474-0.003-1.094-0.004-1.416,0.361l0.375,0.331l-0.494-0.328l-0.086-0.087c-0.222-0.228-0.633-0.652-1.334-0.231
		c-0.098,0.058-0.178,0.116-0.249,0.167c-0.001,0-0.001,0-0.002,0.001c-0.019-0.017-0.042-0.038-0.068-0.063
		C10.154,9.763,9.614,9.49,9.158,9.513C9.087,9.515,8.993,9.531,8.89,9.551C8.875,9.553,8.857,9.557,8.839,9.56
		C8.712,9.158,8.333,8.919,8.093,8.804C7.978,8.565,7.883,8.268,7.915,8.156c0.083-0.298,0.093-0.452,0.097-0.622
		c0.002-0.066,0.003-0.136,0.024-0.25c0.039-0.207,0.02-0.361-0.006-0.488c0-0.001,0.012-0.026,0.062-0.083
		C8.61,6.129,8.836,5.702,8.824,5.328C8.813,5.033,8.88,5.01,8.981,4.976c0.014-0.005,1.203-0.468,1.544-1.035
		c0.103-0.039,0.295-0.087,0.422-0.092c0.01,0,0.988-0.047,1.299-0.412c0.048-0.024,0.175-0.032,0.174-0.048
		c0.198,0.192,0.524,0.413,0.941,0.399c0.226-0.008,0.43-0.102,0.548-0.269c0.063,0.187,0.169,0.5,0.49,0.631
		c0.137,0.056,0.36,0.092,0.636-0.05c0.111-0.058,0.147-0.049,0.355,0.034c0.061,0.024,0.121,0.047,0.128,0.04
		c0.018,0.016,0.059,0.074,0.086,0.113c0.271,0.384,0.569,0.524,0.895,0.429c0.021,0.026,0.041,0.054,0.058,0.075
		c0.059,0.078,0.115,0.149,0.174,0.242c0.08,0.182,0.273,0.618,0.905,0.662c0.016,0.369,0.308,0.655,0.543,0.885
		c0.104,0.101,0.279,0.44,0.294,0.564c-0.001,0.022-0.016,0.079-0.025,0.116c-0.051,0.199-0.156,0.614,0.202,0.964
		c0.061,0.059,0.089,0.161,0.107,0.151C18.265,8.927,18.315,9.326,18.496,9.589z"/>
	<path d="M21.772,6.123c-0.575-3.978-5.275-5.979-9.426-5.856c-3.76,0.118-7.921,2.034-8.326,7.041
		c-0.124,1.142-0.616,3.249-1.407,4.04c-0.26,0.26-0.868,0.871-0.563,1.617c0.297,0.728,1,0.692,1.468,0.723
		c-0.019,0.099-0.039,0.2-0.057,0.294c-0.055,0.28-0.093,0.515-0.093,0.559c0,0.348,0.139,0.638,0.396,0.843
		c-0.117,0.332-0.12,0.735,0.306,1.157c0.013,0.033,0.042,0.172,0.042,0.737c0,0.648,0.252,1.206,0.729,1.613
		c0.544,0.465,1.323,0.669,2.071,0.55c1.152-0.175,1.162-0.159,1.48,0.224c0.082,0.098,0.175,0.21,0.29,0.335
		c0.626,0.686,0.621,1.271,0.615,1.95c-0.004,0.453-0.008,0.921,0.182,1.406l0.053,0.138c0.076,0.196,0.265,0.319,0.466,0.319
		c0.047,0,0.095-0.007,0.142-0.021l8.125-2.405c0.235-0.069,0.386-0.3,0.354-0.543c-0.459-3.598,1.126-6.279,1.888-7.568
		l0.151-0.258C22.09,10.552,22.348,10.108,21.772,6.123z M19.794,12.514l-0.147,0.251c-0.788,1.335-2.398,4.059-2.064,7.779
		l-7.252,2.147c-0.038-0.226-0.035-0.468-0.033-0.735c0.006-0.739,0.015-1.658-0.878-2.634c-0.103-0.112-0.186-0.212-0.258-0.3
		c-0.408-0.49-0.694-0.683-1.309-0.683c-0.281,0-0.632,0.04-1.094,0.11c-0.463,0.079-0.948-0.05-1.268-0.322
		c-0.251-0.215-0.378-0.501-0.378-0.853c0-0.914-0.059-1.158-0.35-1.45c-0.05-0.051-0.067-0.08-0.071-0.081
		c0.01-0.061,0.111-0.223,0.172-0.321c0.084-0.135,0.099-0.302,0.039-0.45c-0.059-0.147-0.185-0.258-0.339-0.298
		c-0.193-0.05-0.195-0.098-0.197-0.098c0.007-0.059,0.04-0.219,0.076-0.405c0.062-0.317,0.137-0.704,0.157-0.891
		c0.027-0.255-0.141-0.489-0.391-0.543c-0.244-0.053-0.486-0.053-0.701-0.053c-0.448,0-0.501-0.027-0.531-0.101
		c-0.036-0.087,0.081-0.267,0.345-0.532c1.319-1.318,1.69-4.605,1.695-4.651c0.353-4.364,4.034-6.031,7.362-6.136
		c3.74-0.118,7.93,1.719,8.404,4.999C21.309,9.906,21.165,10.154,19.794,12.514z"/>
</g>
</svg>
