<?xml version="1.0" encoding="utf-8"?>
<!-- Generator: Adobe Illustrator 19.2.0, SVG Export Plug-In . SVG Version: 6.00 Build 0)  -->
<svg version="1.1" id="Layer_1" xmlns="http://www.w3.org/2000/svg" xmlns:xlink="http://www.w3.org/1999/xlink" x="0px" y="0px"
	 width="24px" height="24px" viewBox="0 0 24 24" style="enable-background:new 0 0 24 24;" xml:space="preserve">
<g>
	<path d="M23.329,21.5c0-0.181-0.102-0.333-0.246-0.421l-1.395-1.395c-0.195-0.195-0.512-0.195-0.707,0s-0.195,0.512,0,0.707
		L21.59,21H2.986V2.414l0.641,0.641C3.725,3.153,3.853,3.201,3.98,3.201s0.256-0.049,0.354-0.146c0.195-0.195,0.195-0.512,0-0.707
		L2.84,0.854C2.795,0.808,2.74,0.771,2.679,0.746C2.618,0.72,2.553,0.707,2.486,0.707S2.354,0.72,2.294,0.746
		C2.233,0.771,2.178,0.808,2.132,0.854L0.638,2.348c-0.195,0.195-0.195,0.512,0,0.707s0.512,0.195,0.707,0l0.641-0.641V21.5
		c0,0.276,0.224,0.5,0.5,0.5h19.168l-0.673,0.673c-0.195,0.195-0.195,0.512,0,0.707c0.098,0.098,0.226,0.146,0.354,0.146
		s0.256-0.049,0.354-0.146l1.494-1.494c0.102-0.102,0.148-0.237,0.143-0.37C23.326,21.51,23.329,21.505,23.329,21.5z"/>
	<path d="M5.496,18.937c0.152,0,15.233-0.175,15.333-15.329c0.002-0.276-0.221-0.501-0.497-0.503c-0.001,0-0.002,0-0.003,0
		c-0.274,0-0.498,0.222-0.5,0.497C19.735,17.754,6.077,17.936,5.495,17.937c-0.276,0-0.5,0.225-0.5,0.5
		C4.996,18.714,5.22,18.937,5.496,18.937z"/>
</g>
</svg>
