<?xml version="1.0" encoding="utf-8"?>
<!-- Generator: Adobe Illustrator 19.2.0, SVG Export Plug-In . SVG Version: 6.00 Build 0)  -->
<svg version="1.1" id="Layer_1" xmlns="http://www.w3.org/2000/svg" xmlns:xlink="http://www.w3.org/1999/xlink" x="0px" y="0px"
	 width="24px" height="24px" viewBox="0 0 24 24" style="enable-background:new 0 0 24 24;" xml:space="preserve">
<g>
	<path d="M17.745,5.385c-0.034-1.278-0.531-2.49-1.432-3.455c-1.075-1.153-2.62-1.814-4.236-1.814c-1.617,0-3.16,0.661-4.236,1.814
		c-0.9,0.965-1.398,2.177-1.432,3.455c-2.13,0.332-6.102,1.212-6.102,3.14c0,1.206,1.314,2.129,3.907,2.745
		c2.081,0.494,4.874,0.766,7.864,0.766c5.43,0,11.77-0.919,11.77-3.511C23.847,6.596,19.875,5.717,17.745,5.385z M8.571,2.612
		c0.887-0.951,2.165-1.496,3.505-1.496c1.34,0,2.618,0.545,3.505,1.497c0.761,0.815,1.169,1.844,1.167,2.923
		c-0.994,0.414-2.774,0.675-4.672,0.675S8.398,5.949,7.405,5.536C7.403,4.456,7.811,3.427,8.571,2.612z M12.077,11.035
		c-6.653,0-10.771-1.303-10.771-2.511c0-0.54,1.493-1.598,5.467-2.182c1.09,0.536,3.102,0.868,5.303,0.868
		c2.201,0,4.213-0.333,5.303-0.868c3.973,0.584,5.467,1.642,5.467,2.182C22.847,9.732,18.729,11.035,12.077,11.035z"/>
	<path d="M15.369,13.711c-0.068-0.268-0.344-0.431-0.608-0.36c-0.268,0.068-0.429,0.341-0.36,0.608l2.321,9.054
		c0.058,0.226,0.261,0.376,0.484,0.376c0.041,0,0.083-0.005,0.124-0.016c0.268-0.068,0.429-0.341,0.36-0.608L15.369,13.711z"/>
	<path d="M9.375,13.35c-0.267-0.07-0.54,0.094-0.608,0.36l-2.321,9.05c-0.068,0.268,0.093,0.54,0.36,0.608
		c0.042,0.011,0.083,0.016,0.125,0.016c0.223,0,0.426-0.15,0.484-0.376l2.321-9.05C9.804,13.691,9.643,13.419,9.375,13.35z"/>
	<path d="M11.72,8.66c-0.09,0.09-0.14,0.22-0.14,0.35c0,0.14,0.05,0.27,0.15,0.36c0.09,0.09,0.22,0.14,0.35,0.14
		c0.13,0,0.25-0.05,0.35-0.14c0.09-0.1,0.15-0.22,0.15-0.36c0-0.13-0.06-0.26-0.15-0.36C12.24,8.47,11.92,8.47,11.72,8.66z"/>
	<path d="M8.37,8.56C8.28,8.65,8.22,8.78,8.22,8.91s0.05,0.25,0.15,0.36c0.1,0.09,0.22,0.14,0.35,0.14s0.26-0.05,0.36-0.15
		c0.09-0.1,0.14-0.22,0.14-0.35S9.17,8.65,9.08,8.56C8.89,8.37,8.55,8.37,8.37,8.56z"/>
	<path d="M5.01,8.07C4.92,8.16,4.87,8.29,4.87,8.42c0,0.13,0.05,0.26,0.15,0.36c0.09,0.09,0.22,0.14,0.35,0.14
		c0.13,0,0.26-0.05,0.36-0.15c0.09-0.09,0.14-0.22,0.14-0.35c0-0.13-0.05-0.26-0.15-0.35C5.54,7.88,5.2,7.88,5.01,8.07z"/>
	<path d="M15.069,8.56c-0.09,0.1-0.14,0.22-0.14,0.35s0.05,0.25,0.14,0.35c0.101,0.1,0.23,0.15,0.36,0.15s0.26-0.05,0.36-0.15
		c0.09-0.1,0.14-0.22,0.14-0.35s-0.05-0.25-0.149-0.36C15.6,8.37,15.27,8.36,15.069,8.56z"/>
	<path d="M18.43,8.06c-0.09,0.1-0.149,0.23-0.149,0.36c0,0.13,0.06,0.26,0.149,0.36c0.101,0.09,0.22,0.14,0.351,0.14
		c0.13,0,0.26-0.05,0.359-0.15c0.09-0.09,0.141-0.22,0.141-0.35c0-0.13-0.051-0.26-0.141-0.35C18.95,7.88,18.609,7.88,18.43,8.06z"
		/>
	<path d="M12.077,13.335c-0.276,0-0.5,0.224-0.5,0.5v9.556c0,0.276,0.224,0.5,0.5,0.5s0.5-0.224,0.5-0.5v-9.556
		C12.577,13.558,12.353,13.335,12.077,13.335z"/>
</g>
</svg>
