<?xml version="1.0" encoding="utf-8"?>
<!-- Generator: Adobe Illustrator 19.2.0, SVG Export Plug-In . SVG Version: 6.00 Build 0)  -->
<svg version="1.1" id="Layer_1" xmlns="http://www.w3.org/2000/svg" xmlns:xlink="http://www.w3.org/1999/xlink" x="0px" y="0px"
	 width="24px" height="24px" viewBox="0 0 24 24" style="enable-background:new 0 0 24 24;" xml:space="preserve">
<path d="M23.356,21.992h-5.371v-3h4.895c0.194,0,0.372-0.113,0.454-0.29c0.081-0.177,0.054-0.385-0.072-0.533l-2.739-3.229h1.74
	c0.193,0,0.37-0.111,0.452-0.287c0.083-0.175,0.057-0.382-0.066-0.531L19.24,9.986h1.781c0.189,0,0.362-0.107,0.447-0.277
	c0.085-0.169,0.066-0.372-0.048-0.523l-5.285-7.031c-0.094-0.126-0.242-0.2-0.399-0.2s-0.306,0.074-0.399,0.2l-5.286,7.031
	C9.937,9.337,9.918,9.54,10.003,9.709c0.084,0.17,0.258,0.277,0.447,0.277h1.781l-3.409,4.135c-0.123,0.149-0.149,0.356-0.066,0.531
	c0.083,0.176,0.259,0.287,0.452,0.287h1.74l-2.739,3.229c-0.126,0.148-0.154,0.356-0.072,0.533c0.082,0.177,0.259,0.29,0.454,0.29
	h5.395v3h-10v-2.99h1.702c0.276,0,0.5-0.224,0.5-0.5s-0.224-0.5-0.5-0.5H1.225c-0.276,0-0.5,0.224-0.5,0.5s0.224,0.5,0.5,0.5h1.761
	v2.99H0.483c-0.276,0-0.5,0.224-0.5,0.5s0.224,0.5,0.5,0.5h14.002h3h5.871c0.276,0,0.5-0.224,0.5-0.5S23.633,21.992,23.356,21.992z
	 M14.985,21.992v-3.5c0-0.276-0.224-0.5-0.5-0.5H9.67l2.739-3.229c0.126-0.148,0.154-0.356,0.072-0.533
	c-0.082-0.177-0.259-0.29-0.454-0.29h-1.759l3.409-4.135c0.123-0.149,0.149-0.356,0.066-0.531c-0.082-0.175-0.259-0.287-0.452-0.287
	h-1.839l4.285-5.699l4.284,5.699h-1.84c-0.193,0-0.37,0.112-0.452,0.287c-0.083,0.175-0.057,0.382,0.066,0.531l3.408,4.135h-1.76
	c-0.194,0-0.372,0.113-0.454,0.29c-0.081,0.177-0.054,0.385,0.072,0.533l2.739,3.229h-4.315c-0.276,0-0.5,0.224-0.5,0.5v3.5H14.985z
	"/>
</svg>
