<?xml version="1.0" encoding="utf-8"?>
<!-- Generator: Adobe Illustrator 19.2.0, SVG Export Plug-In . SVG Version: 6.00 Build 0)  -->
<svg version="1.1" id="Layer_1" xmlns="http://www.w3.org/2000/svg" xmlns:xlink="http://www.w3.org/1999/xlink" x="0px" y="0px"
	 width="24px" height="24px" viewBox="0 0 24 24" style="enable-background:new 0 0 24 24;" xml:space="preserve">
<path d="M23.478,1.096c-0.044-0.669-0.464-0.995-0.512-1.03C22.88,0.004,22.777-0.03,22.671-0.03H1.179
	c-0.246,0-0.456,0.179-0.494,0.422c-0.015,0.09-1.294,9.026,9.338,12.949c1.759,0.649,2.007,1.102,2.032,1.267
	c0.061,0.396-0.816,1.069-1.589,1.663c-1.48,1.137-3.323,2.552-2.83,4.646c0.448,1.904,0.964,2.761,1.666,2.761
	c0.016,0,0.032-0.001,0.048-0.002c0.523-0.028,0.823-0.539,0.887-1.082c0.106-1.462,1.668-2.557,4.399-3.08
	c3.461-0.67,5.685-1.915,6.607-3.7c0.702-1.356,0.638-2.974-0.192-4.806c-1.702-3.761-1.105-5.241,0.877-7.133
	C23.01,2.843,23.531,1.908,23.478,1.096z M20.143,11.421c0.696,1.539,0.769,2.863,0.215,3.935c-0.776,1.5-2.764,2.568-5.908,3.177
	c-4.291,0.823-5.108,2.812-5.208,3.981c-0.143-0.23-0.375-0.736-0.631-1.824c-0.345-1.466,1.148-2.613,2.465-3.625
	c1.136-0.872,2.118-1.626,1.969-2.606c-0.119-0.782-0.944-1.416-2.675-2.055C1.703,9.205,1.517,2.706,1.63,0.97h20.804
	c0.023,0.053,0.045,0.126,0.047,0.224c0.006,0.282-0.148,0.912-1.243,1.957C18.681,5.595,18.414,7.604,20.143,11.421z"/>
</svg>
