<?xml version="1.0" encoding="utf-8"?>
<!-- Generator: Adobe Illustrator 19.2.0, SVG Export Plug-In . SVG Version: 6.00 Build 0)  -->
<svg version="1.1" id="Layer_1" xmlns="http://www.w3.org/2000/svg" xmlns:xlink="http://www.w3.org/1999/xlink" x="0px" y="0px"
	 width="24px" height="24px" viewBox="0 0 24 24" style="enable-background:new 0 0 24 24;" xml:space="preserve">
<g>
	<path d="M23.717,10.89c0-5.172-2.877-5.87-5.691-5.87h-2.071c-0.158,0-0.308,0.075-0.401,0.203c-0.739,0.997-2.301,0.995-3.038,0
		c-0.094-0.127-0.244-0.203-0.402-0.203h-1.257c-0.775,0-1.435,0.595-1.535,1.385l-0.501,3.943l-0.708,5.578
		c-0.366,2.888-0.366,2.889-0.366,2.934c0,1.617,3.935,2.049,6.259,2.049c2.324,0,6.259-0.432,6.259-2.049
		c0-0.026,0-0.046-0.321-2.509C22.18,15.552,23.717,13.377,23.717,10.89z M14.006,19.909c-3.195,0-5.124-0.694-5.262-0.997
		c0.009-0.076,0.158-1.257,0.361-2.86l0.708-5.577l0.501-3.943c0.037-0.291,0.27-0.511,0.542-0.511h1.019
		c0.554,0.63,1.328,0.987,2.159,0.987c0.831,0,1.604-0.357,2.158-0.987h1.394c0.603,4.614,1.659,12.694,1.681,12.821
		C19.129,19.215,17.2,19.909,14.006,19.909z M19.812,15.338c-0.246-1.89-0.627-4.808-1.215-9.306c2.619,0.108,4.12,1.054,4.12,4.858
		C22.717,12.877,21.543,14.624,19.812,15.338z"/>
	<path d="M7.708,13.709l-3.55-4.683c0.098-0.079,0.198-0.153,0.287-0.245c0.094-0.098,0.169-0.208,0.248-0.316l2.797,2.17
		c0.091,0.071,0.199,0.105,0.306,0.105c0.149,0,0.297-0.066,0.396-0.193c0.169-0.218,0.129-0.532-0.088-0.702L5.142,7.549
		c0.289-0.987,0.081-2.093-0.637-2.892C4.504,4.654,4.502,4.652,4.5,4.65c-0.02-0.022-0.034-0.048-0.055-0.07
		C4.434,4.568,4.419,4.564,4.407,4.553C4.381,4.53,4.353,4.511,4.322,4.494C4.295,4.479,4.268,4.466,4.239,4.457
		c-0.03-0.01-0.06-0.016-0.092-0.02C4.112,4.433,4.079,4.432,4.044,4.435C4.028,4.436,4.013,4.431,3.997,4.434
		C0.879,4.988,0.248,8.206,0.223,8.343C0.22,8.357,0.225,8.37,0.223,8.384C0.22,8.418,0.222,8.45,0.225,8.484
		c0.003,0.032,0.007,0.063,0.016,0.093C0.25,8.606,0.263,8.632,0.277,8.66c0.016,0.032,0.034,0.061,0.056,0.088
		c0.008,0.01,0.011,0.023,0.021,0.032c0.545,0.568,1.271,0.88,2.045,0.88c0.301,0,0.591-0.061,0.87-0.152l3.642,4.803
		c0.098,0.13,0.248,0.198,0.399,0.198c0.105,0,0.211-0.033,0.302-0.102C7.832,14.242,7.875,13.928,7.708,13.709z M1.275,8.256
		c0.194-0.654,0.855-2.305,2.617-2.77c0.565,0.779,0.514,1.892-0.168,2.602C3.076,8.762,1.999,8.813,1.275,8.256z"/>
	<path d="M14.006,10.224c-0.667,0-1.99,3.194-1.99,3.67c0,1.097,0.893,1.989,1.99,1.989c1.097,0,1.989-0.893,1.989-1.989
		C15.995,13.418,14.673,10.224,14.006,10.224z M14.006,14.884c-0.546,0-0.99-0.443-0.99-0.989c0-0.391,0.572-1.493,0.99-2.222
		c0.42,0.728,0.989,1.825,0.989,2.222C14.995,14.44,14.552,14.884,14.006,14.884z"/>
</g>
</svg>
