<?xml version="1.0" encoding="utf-8"?>
<!-- Generator: Adobe Illustrator 19.2.0, SVG Export Plug-In . SVG Version: 6.00 Build 0)  -->
<svg version="1.1" id="Layer_1" xmlns="http://www.w3.org/2000/svg" xmlns:xlink="http://www.w3.org/1999/xlink" x="0px" y="0px"
	 width="24px" height="24px" viewBox="0 0 24 24" style="enable-background:new 0 0 24 24;" xml:space="preserve">
<g>
	<path d="M17.606,14.92c-0.173-0.423-0.415-0.831-0.718-1.204c0.154-0.407,0.253-0.829,0.253-1.271c0-2.001-1.628-3.629-3.629-3.629
		c-1.408,0-2.658,0.803-3.259,2.041c-1.266-0.367-2.627-0.325-3.917,0.155c-2.097,0.782-3.594,2.558-4.042,4.779
		c-1.757,1.155-2.525,2.993-2.008,4.846c0.559,2.003,2.382,3.349,4.536,3.349h12.944c2.659,0,4.906-2.076,4.906-4.534
		c0-1.185-0.543-2.358-1.491-3.22C20.223,15.357,18.941,14.884,17.606,14.92z M13.512,9.815c1.449,0,2.629,1.18,2.629,2.629
		c0,0.173-0.024,0.341-0.056,0.507c-0.922-0.711-2.162-1.147-3.703-1.009c-0.376-0.291-0.779-0.526-1.195-0.723
		C11.634,10.365,12.52,9.815,13.512,9.815z M17.767,22.984H4.822c-1.964,0-3.209-1.314-3.573-2.617
		c-0.416-1.49,0.24-2.927,1.755-3.844c0.125-0.075,0.21-0.201,0.234-0.345c0.33-1.968,1.619-3.549,3.446-4.23
		c0.604-0.225,1.228-0.336,1.846-0.336c1.208,0,2.396,0.422,3.379,1.235c0.106,0.087,0.243,0.13,0.379,0.111
		c2.606-0.319,4.054,1.22,4.496,2.632c0.071,0.225,0.281,0.363,0.525,0.349c1.184-0.119,2.353,0.263,3.197,1.031
		c0.74,0.673,1.164,1.577,1.164,2.48C21.673,21.366,19.884,22.984,17.767,22.984z"/>
	<path d="M23.341,11.963h-3.862c-0.276,0-0.5,0.224-0.5,0.5s0.224,0.5,0.5,0.5h3.862c0.276,0,0.5-0.224,0.5-0.5
		S23.617,11.963,23.341,11.963z"/>
	<path d="M13.518,7.003c0.276,0,0.5-0.224,0.5-0.5V2.641c0-0.276-0.224-0.5-0.5-0.5s-0.5,0.224-0.5,0.5v3.862
		C13.018,6.78,13.241,7.003,13.518,7.003z"/>
	<path d="M17.858,8.623c0.128,0,0.256-0.049,0.354-0.146l2.73-2.73c0.195-0.195,0.195-0.512,0-0.707s-0.512-0.195-0.707,0
		l-2.73,2.73c-0.195,0.195-0.195,0.512,0,0.707C17.603,8.574,17.73,8.623,17.858,8.623z"/>
	<path d="M8.825,8.476c0.098,0.098,0.226,0.146,0.354,0.146s0.256-0.049,0.354-0.146c0.195-0.195,0.195-0.512,0-0.707l-2.731-2.73
		c-0.195-0.195-0.512-0.195-0.707,0s-0.195,0.512,0,0.707L8.825,8.476z"/>
</g>
</svg>
