<?xml version="1.0" encoding="utf-8"?>
<!-- Generator: Adobe Illustrator 19.2.0, SVG Export Plug-In . SVG Version: 6.00 Build 0)  -->
<svg version="1.1" id="Layer_1" xmlns="http://www.w3.org/2000/svg" xmlns:xlink="http://www.w3.org/1999/xlink" x="0px" y="0px"
	 width="24px" height="24px" viewBox="0 0 24 24" style="enable-background:new 0 0 24 24;" xml:space="preserve">
<path d="M22.674,11.295l-0.758-0.356c0.127-0.693,0.632-2.472,0.762-2.889c0.006-0.014,0.01-0.028,0.014-0.042
	c0.078-0.282,0.006-0.578-0.194-0.791c-0.201-0.214-0.496-0.302-0.774-0.246l-0.122,0.026c-1.393,0.306-2.077,0.434-2.412,0.487
	L18.92,6.544c-0.083-0.291-0.317-0.515-0.612-0.583c-0.295-0.071-0.604,0.028-0.805,0.252l-1.386,1.533
	c0.232-1.419,0.635-3.487,0.734-3.957c0.003-0.01,0.005-0.019,0.007-0.029c0-0.001,0-0.002,0-0.003
	c0.06-0.313-0.062-0.626-0.318-0.818c-0.259-0.193-0.597-0.221-0.883-0.073l-1.255,0.655c-0.441-0.815-1.675-3.127-1.677-3.13
	c-0.146-0.27-0.427-0.437-0.732-0.437c-0.001,0-0.001,0-0.002,0c-0.306,0.001-0.586,0.169-0.731,0.439L9.586,3.515
	C8.98,3.208,8.421,2.905,8.354,2.868c-0.285-0.154-0.626-0.131-0.887,0.06C7.205,3.119,7.08,3.435,7.14,3.75l0.055,0.286
	c0.348,1.797,0.56,2.968,0.688,3.73c-0.452-0.5-0.976-1.08-1.398-1.548c-0.203-0.224-0.512-0.32-0.803-0.253
	C5.389,6.032,5.154,6.253,5.07,6.541L4.791,7.492C4.007,7.322,2.275,6.949,2.27,6.948C1.984,6.892,1.694,6.983,1.495,7.194
	S1.223,7.699,1.299,7.982l0.808,2.938c-0.275,0.136-0.623,0.305-0.789,0.384c-0.258,0.124-0.433,0.368-0.467,0.652
	c-0.034,0.284,0.079,0.562,0.3,0.743l4.855,3.971c-0.002,0.022-0.008,0.052-0.02,0.092l-0.349,1.2
	c-0.077,0.266-0.018,0.551,0.159,0.763c0.177,0.213,0.449,0.325,0.737,0.295l3.87-0.464c-0.121,1.107-0.4,3.3-0.562,4.557
	c-0.011,0.231,0.07,0.45,0.229,0.616c0.156,0.164,0.375,0.258,0.602,0.258h2.642c0.228,0,0.448-0.095,0.605-0.261
	c0.155-0.165,0.237-0.39,0.223-0.646l-0.523-4.529c0.941,0.114,2.737,0.343,3.487,0.438l0.348,0.044
	c0.255,0.032,0.487-0.04,0.663-0.196c0.175-0.155,0.275-0.385,0.275-0.629c0-0.119-0.025-0.237-0.075-0.346l-0.336-1.169
	c-0.002-0.005-0.005-0.013-0.009-0.021c0.008-0.007,0.017-0.015,0.027-0.023c0.463-0.358,3.157-2.568,4.722-3.854l0.125-0.103
	c0.222-0.182,0.333-0.46,0.297-0.745C23.108,11.661,22.934,11.418,22.674,11.295z M17.387,15.857
	C17.387,15.858,17.387,15.858,17.387,15.857c-0.494,0.385-0.498,0.863-0.36,1.131l0.307,1.021l-0.101-0.013
	c-0.979-0.125-3.721-0.473-4.155-0.513c-0.15-0.013-0.29,0.049-0.391,0.156s-0.149,0.254-0.132,0.4l0.572,4.945h-2.262
	c0.118-0.907,0.56-4.343,0.595-4.974c0.008-0.147-0.049-0.291-0.157-0.393c-0.107-0.1-0.249-0.151-0.401-0.131l-4.23,0.507
	l0.277-0.954c0.197-0.674-0.133-1-0.21-1.065l-4.749-3.885c0.311-0.151,0.749-0.365,0.917-0.455
	c0.148-0.079,0.247-0.228,0.262-0.395c0.008-0.093-0.001-0.208-0.027-0.304L2.336,7.986c0.636,0.137,2.201,0.473,2.546,0.55
	c0.405,0.092,0.655-0.139,0.762-0.409l0.299-1.015C6.867,8.135,8.102,9.5,8.186,9.587c0.155,0.156,0.411,0.199,0.606,0.097
	c0.42-0.222,0.466-0.247-0.602-5.769C8.444,4.051,8.824,4.25,9.214,4.447c0.214,0.108,0.534,0.235,0.83,0.095
	c0.101-0.048,0.201-0.149,0.262-0.259l0.003,0.001l1.684-3.143c0.397,0.743,1.468,2.747,1.659,3.093
	c0.245,0.438,0.688,0.358,0.866,0.326c0.051-0.009,0.101-0.025,0.146-0.049l1.17-0.61c-0.327,1.424-1.116,5.17-0.745,5.604
	c0.151,0.177,0.426,0.23,0.632,0.122c0.053-0.027,0.1-0.064,0.14-0.107l2.18-2.411l0.296,1.037c0.152,0.521,0.316,0.522,3.29-0.13
	c-0.318,0.913-1.097,3.363-0.431,3.689l0.81,0.381C19.358,14.262,17.719,15.6,17.387,15.857z"/>
</svg>
