<?xml version="1.0" encoding="utf-8"?>
<!-- Generator: Adobe Illustrator 19.2.0, SVG Export Plug-In . SVG Version: 6.00 Build 0)  -->
<svg version="1.1" id="Layer_1" xmlns="http://www.w3.org/2000/svg" xmlns:xlink="http://www.w3.org/1999/xlink" x="0px" y="0px"
	 width="24px" height="24px" viewBox="0 0 24 24" style="enable-background:new 0 0 24 24;" xml:space="preserve">
<path d="M22.909,0.848c-0.014-0.139-0.086-0.265-0.197-0.349c-0.111-0.083-0.255-0.115-0.39-0.091
	c-8.41,1.543-10.974,5.238-11.673,7.997C8.046,5.347,1.085,6.539,0.756,6.598C0.619,6.623,0.499,6.703,0.424,6.82
	C0.349,6.937,0.325,7.08,0.36,7.215c0.062,0.241,1.552,5.905,5.188,7.002c0.404,0.122,0.816,0.183,1.236,0.183
	c1.231,0,2.529-0.529,3.877-1.568c0.093,0.923,0.304,2.381,0.784,3.916c0.715,2.287-0.402,6.229-0.414,6.268
	c-0.076,0.266,0.077,0.543,0.342,0.619c0.046,0.014,0.093,0.02,0.139,0.02c0.217,0,0.417-0.143,0.48-0.361
	c0.05-0.173,1.212-4.269,0.407-6.844c-0.468-1.5-0.667-2.947-0.751-3.814c1.732,0.788,3.297,1.207,4.664,1.207
	c1.219,0,2.289-0.313,3.203-0.941C23.802,9.954,22.948,1.219,22.909,0.848z M5.838,13.26c-2.508-0.755-3.902-4.378-4.349-5.758
	c1.854-0.239,7.764-0.739,8.926,2.422c-0.002,0.045,0,0.084-0.002,0.128c-0.004,0.117-0.006,0.23-0.004,0.338
	c0.001,0.059,0.002,0.114,0.004,0.17c0.001,0.041,0.001,0.086,0.003,0.126C8.58,9.679,5.739,9.491,5.593,9.482
	C5.31,9.469,5.08,9.675,5.063,9.95c-0.017,0.276,0.193,0.513,0.468,0.53c0.992,0.061,3.562,0.42,4.795,1.336
	C8.683,13.17,7.176,13.663,5.838,13.26z M18.947,12.075c-1.686,1.16-4.107,0.99-7.189-0.482c0.421-0.808,1.483-2.543,3.105-3.143
	c2.413-0.892,4.571-2.683,4.661-2.759c0.212-0.177,0.24-0.492,0.063-0.704c-0.178-0.212-0.495-0.24-0.704-0.063
	c-0.021,0.018-2.119,1.758-4.367,2.588c-1.426,0.527-2.462,1.726-3.105,2.697c0.001-0.107,0-0.211,0.007-0.327
	c0.147-2.391,1.726-6.613,10.536-8.385C22.066,3.416,22.181,9.855,18.947,12.075z"/>
</svg>
