<?xml version="1.0" encoding="utf-8"?>
<!-- Generator: Adobe Illustrator 19.2.0, SVG Export Plug-In . SVG Version: 6.00 Build 0)  -->
<svg version="1.1" id="Layer_1" xmlns="http://www.w3.org/2000/svg" xmlns:xlink="http://www.w3.org/1999/xlink" x="0px" y="0px"
	 width="24px" height="24px" viewBox="0 0 24 24" style="enable-background:new 0 0 24 24;" xml:space="preserve">
<path d="M23.456,21.716c-0.231-0.144-0.541-0.078-0.69,0.155l-0.372,0.588L12.634,5.265l0.658-1.04
	c0.147-0.233,0.078-0.542-0.155-0.689c-0.233-0.148-0.543-0.079-0.69,0.155l-0.396,0.625l-0.396-0.626
	c-0.148-0.233-0.455-0.302-0.69-0.155c-0.233,0.147-0.303,0.457-0.155,0.69l0.658,1.039l-9.76,17.194l-0.372-0.589
	c-0.147-0.232-0.456-0.3-0.69-0.155c-0.233,0.148-0.303,0.457-0.155,0.69l0.818,1.293c0.025,0.04,0.064,0.061,0.098,0.091
	c0.028,0.025,0.049,0.058,0.082,0.077c0.072,0.04,0.152,0.061,0.234,0.063c0.003,0,0.005,0.002,0.008,0.002h10.319h3.78h6.539
	c0.085,0,0.168-0.023,0.243-0.065c0.029-0.016,0.047-0.046,0.072-0.067c0.038-0.032,0.08-0.057,0.108-0.1l0.818-1.293
	C23.759,22.173,23.689,21.864,23.456,21.716z M11.551,7.145v7.196v8.59h-8.96L11.551,7.145z M12.551,22.931v-6.085l2.531,6.085
	H12.551z M13.365,16.197l4.389,3.954l-1.79,2.296L13.365,16.197z M16.855,22.931l1.974-2.532c0.161-0.207,0.135-0.504-0.06-0.679
	l-6.218-5.601V7.145l8.96,15.786H16.855z"/>
</svg>
