<?xml version="1.0" encoding="utf-8"?>
<!-- Generator: Adobe Illustrator 19.2.0, SVG Export Plug-In . SVG Version: 6.00 Build 0)  -->
<svg version="1.1" id="Layer_1" xmlns="http://www.w3.org/2000/svg" xmlns:xlink="http://www.w3.org/1999/xlink" x="0px" y="0px"
	 width="24px" height="24px" viewBox="0 0 24 24" style="enable-background:new 0 0 24 24;" xml:space="preserve">
<g>
	<path d="M20.359,15.654c-1.874,0-3.398,1.524-3.398,3.398s1.524,3.398,3.398,3.398s3.398-1.524,3.398-3.398
		S22.233,15.654,20.359,15.654z M20.359,21.451c-1.322,0-2.398-1.076-2.398-2.398s1.076-2.398,2.398-2.398s2.398,1.076,2.398,2.398
		S21.682,21.451,20.359,21.451z"/>
	<path d="M4.982,13.009c-2.603,0-4.721,2.118-4.721,4.721c0,2.604,2.118,4.722,4.721,4.722s4.721-2.118,4.721-4.722
		C9.704,15.127,7.585,13.009,4.982,13.009z M4.982,21.451c-2.052,0-3.721-1.67-3.721-3.722s1.669-3.721,3.721-3.721
		s3.721,1.669,3.721,3.721S7.034,21.451,4.982,21.451z"/>
	<path d="M14.444,20.028h-2.888c-0.276,0-0.5,0.224-0.5,0.5s0.224,0.5,0.5,0.5h2.888c0.276,0,0.5-0.224,0.5-0.5
		S14.721,20.028,14.444,20.028z"/>
	<path d="M4.63,17.37c-0.09,0.09-0.15,0.22-0.15,0.36c0,0.13,0.06,0.26,0.15,0.35c0.09,0.1,0.22,0.15,0.35,0.15
		c0.13,0,0.26-0.051,0.36-0.15c0.09-0.1,0.14-0.22,0.14-0.35c0-0.141-0.05-0.261-0.14-0.36C5.15,17.19,4.8,17.2,4.63,17.37z"/>
	<path d="M20,18.7c-0.09,0.09-0.141,0.22-0.141,0.35s0.051,0.261,0.15,0.36c0.09,0.09,0.22,0.14,0.35,0.14
		c0.131,0,0.25-0.05,0.36-0.149c0.09-0.09,0.14-0.221,0.14-0.351c0-0.12-0.05-0.25-0.149-0.359C20.52,18.51,20.2,18.51,20,18.7z"/>
	<path d="M20.359,14.854c0.763,0,1.509,0.206,2.158,0.597c0.154,0.094,0.348,0.095,0.504,0.007c0.157-0.089,0.254-0.255,0.254-0.436
		v-0.749c0-2.649-4.644-3.204-5.225-3.261h-0.09V7.989c0-0.276-0.224-0.5-0.5-0.5s-0.5,0.224-0.5,0.5v3.024h-2.114l-1.315-6.027
		h0.057c0.276,0,0.5-0.224,0.5-0.5s-0.224-0.5-0.5-0.5H4.517c-0.276,0-0.5,0.224-0.5,0.5s0.224,0.5,0.5,0.5h0.484v6h-2.49
		c-0.276,0-0.5,0.224-0.5,0.5s0.224,0.5,0.5,0.5h5.788l2.542,3.429c0.12,0.152,0.186,0.343,0.186,0.536v2.577
		c0,0.276,0.224,0.5,0.5,0.5h2.917h1.261c0.25,0,0.461-0.185,0.495-0.432C16.488,16.498,18.315,14.854,20.359,14.854z M6.001,4.985
		h2.05v6h-2.05V4.985z M11.636,14.807L9.051,11.32V4.985h3.457l1.436,6.58v6.463h-1.917v-2.077
		C12.027,15.533,11.885,15.123,11.636,14.807z M15.287,18.028h-0.343v-6.016L18,12.01c1.096,0.112,4.198,0.759,4.274,2.208
		c-0.606-0.239-1.256-0.364-1.915-0.364C17.928,13.854,15.817,15.62,15.287,18.028z"/>
</g>
</svg>
