<?xml version="1.0" encoding="utf-8"?>
<!-- Generator: Adobe Illustrator 19.2.0, SVG Export Plug-In . SVG Version: 6.00 Build 0)  -->
<svg version="1.1" id="Layer_1" xmlns="http://www.w3.org/2000/svg" xmlns:xlink="http://www.w3.org/1999/xlink" x="0px" y="0px"
	 width="24px" height="24px" viewBox="0 0 24 24" style="enable-background:new 0 0 24 24;" xml:space="preserve">
<g>
	<path d="M23.702,9.458l-6.369-8.942c-0.084-0.119-0.216-0.194-0.361-0.208c-0.139-0.015-0.288,0.037-0.393,0.138l-4.443,4.279
		l-3.595-2.82c-0.181-0.142-0.437-0.143-0.618,0L3.388,5.473C3.17,5.644,3.133,5.958,3.304,6.175
		c0.099,0.125,0.245,0.191,0.394,0.191c0.108,0,0.217-0.035,0.309-0.107l4.228-3.325l3.175,2.492l-1.273,1.226
		C9.937,6.844,9.931,7.16,10.122,7.359c0.192,0.2,0.51,0.205,0.707,0.014l3.052-2.94l1.352,0.922
		c0.173,0.119,0.403,0.115,0.573-0.007l0.932-0.671l0.886,0.811c0.095,0.087,0.216,0.131,0.338,0.131
		c0.088,0,0.175-0.023,0.254-0.069l1.037-0.612l3.635,5.103c0.098,0.137,0.251,0.21,0.407,0.21c0.101,0,0.202-0.03,0.29-0.093
		C23.81,9.995,23.862,9.683,23.702,9.458z M18.026,4.499l-0.912-0.835c-0.177-0.16-0.44-0.174-0.63-0.037l-0.978,0.705l-0.89-0.607
		l2.238-2.156l1.816,2.55L18.026,4.499z"/>
	<path d="M12.999,13.393v-2.408c0-0.276-0.224-0.5-0.5-0.5s-0.5,0.224-0.5,0.5v1.186L8.906,8.392c-0.189-0.231-0.584-0.231-0.773,0
		L0.898,17.23c-0.175,0.214-0.144,0.528,0.07,0.703c0.215,0.176,0.529,0.144,0.704-0.07l0.327-0.4v6.022c0,0.276,0.224,0.5,0.5,0.5
		h5h2h5c0.276,0,0.5-0.224,0.5-0.5v-6.071l0.367,0.449c0.099,0.121,0.242,0.184,0.387,0.184c0.111,0,0.224-0.037,0.316-0.113
		c0.214-0.175,0.245-0.489,0.07-0.703L12.999,13.393z M7.999,22.985v-3h1v3H7.999z M13.999,22.985h-4v-3.5
		c0-0.276-0.224-0.5-0.5-0.5h-2c-0.276,0-0.5,0.224-0.5,0.5v3.5h-4v-6.743l5.52-6.743l5.48,6.694V22.985z"/>
	<path d="M6.999,14.485v2c0,0.276,0.224,0.5,0.5,0.5h2c0.276,0,0.5-0.224,0.5-0.5v-2c0-0.276-0.224-0.5-0.5-0.5h-2
		C7.223,13.985,6.999,14.209,6.999,14.485z M7.999,14.985h1v1h-1V14.985z"/>
</g>
</svg>
