<?xml version="1.0" encoding="utf-8"?>
<!-- Generator: Adobe Illustrator 19.2.0, SVG Export Plug-In . SVG Version: 6.00 Build 0)  -->
<svg version="1.1" id="Layer_1" xmlns="http://www.w3.org/2000/svg" xmlns:xlink="http://www.w3.org/1999/xlink" x="0px" y="0px"
	 width="24px" height="24px" viewBox="0 0 24 24" style="enable-background:new 0 0 24 24;" xml:space="preserve">
<path d="M23.087,12.205c0.051-0.122,0.051-0.26,0-0.382c-0.025-0.062-0.062-0.117-0.109-0.163l-1.91-1.91
	c-0.195-0.195-0.512-0.195-0.707,0s-0.195,0.512,0,0.707l1.057,1.057h-2.45c-0.141-4.059-1.894-7.847-4.887-10.586
	c-0.018-0.026-0.029-0.055-0.052-0.079c-0.035-0.035-0.077-0.056-0.118-0.078C13.773,0.649,13.65,0.517,13.508,0.4
	c-0.212-0.175-0.528-0.146-0.704,0.067c-0.176,0.213-0.146,0.528,0.067,0.704c0.024,0.019,0.043,0.042,0.067,0.062L2.864,11.307
	l-1.266-1.266c-0.195-0.195-0.512-0.195-0.707,0s-0.195,0.512,0,0.707l1.266,1.266L0.892,13.28c-0.195,0.195-0.195,0.512,0,0.707
	c0.098,0.098,0.226,0.146,0.354,0.146s0.256-0.049,0.354-0.146l1.266-1.266l10.105,10.105c-0.004,0.003-0.007,0.007-0.011,0.01
	c-0.211,0.177-0.239,0.492-0.062,0.704c0.099,0.118,0.24,0.179,0.383,0.179c0.113,0,0.228-0.038,0.321-0.117
	c0.141-0.118,0.264-0.252,0.4-0.374c0.015-0.012,0.033-0.017,0.047-0.031c0.01-0.01,0.013-0.023,0.022-0.034
	c3.012-2.751,4.774-6.571,4.902-10.649h2.447l-1.057,1.057c-0.195,0.195-0.195,0.512,0,0.707c0.098,0.098,0.226,0.146,0.354,0.146
	s0.256-0.049,0.354-0.146l1.91-1.91C23.024,12.322,23.061,12.267,23.087,12.205z M17.968,11.514H4.071l9.602-9.603
	C16.299,4.44,17.832,7.859,17.968,11.514z M13.699,22.142l-9.628-9.628h13.9C17.848,16.172,16.319,19.604,13.699,22.142z"/>
</svg>
