<?xml version="1.0" encoding="utf-8"?>
<!-- Generator: Adobe Illustrator 19.2.0, SVG Export Plug-In . SVG Version: 6.00 Build 0)  -->
<svg version="1.1" id="Layer_1" xmlns="http://www.w3.org/2000/svg" xmlns:xlink="http://www.w3.org/1999/xlink" x="0px" y="0px"
	 width="24px" height="24px" viewBox="0 0 24 24" style="enable-background:new 0 0 24 24;" xml:space="preserve">
<path d="M23.515,19.926h-2.808l-1-1.001h2.293c0.276,0,0.5-0.224,0.5-0.5s-0.224-0.5-0.5-0.5h-3.292l-0.999-1h2.292
	c0.276,0,0.5-0.224,0.5-0.5s-0.224-0.5-0.5-0.5h-3.291l-4.01-4.013l9.525-9.517L21.523,5.3c-0.064,0.268,0.101,0.538,0.369,0.603
	c0.04,0.009,0.079,0.014,0.117,0.014c0.227,0,0.431-0.154,0.486-0.383l1.113-4.628c0.003-0.014-0.003-0.028-0.001-0.042
	c0.009-0.056,0.007-0.111-0.003-0.167c-0.004-0.021-0.005-0.042-0.012-0.062c-0.024-0.072-0.059-0.141-0.116-0.199
	c-0.057-0.057-0.126-0.092-0.198-0.116c-0.022-0.007-0.043-0.008-0.065-0.013c-0.055-0.01-0.11-0.012-0.165-0.003
	c-0.014,0.002-0.028-0.004-0.043-0.001l-4.629,1.113c-0.269,0.065-0.434,0.334-0.369,0.603c0.065,0.268,0.325,0.435,0.604,0.37
	l2.902-0.698l-9.522,9.515L2.482,1.689l2.905,0.698c0.265,0.061,0.538-0.101,0.603-0.37C6.055,1.75,5.889,1.48,5.621,1.415
	L0.992,0.302C0.978,0.299,0.964,0.305,0.95,0.303C0.894,0.294,0.841,0.296,0.785,0.306C0.763,0.31,0.742,0.311,0.72,0.319
	C0.648,0.342,0.579,0.378,0.522,0.435C0.465,0.492,0.429,0.561,0.406,0.633C0.399,0.654,0.398,0.675,0.393,0.696
	C0.383,0.752,0.381,0.807,0.39,0.863c0.002,0.014-0.004,0.028-0.001,0.042l1.113,4.628c0.055,0.229,0.26,0.383,0.486,0.383
	c0.039,0,0.078-0.004,0.117-0.014C2.374,5.838,2.539,5.568,2.475,5.3L1.777,2.398l9.507,9.514l-4.017,4.013H3.97
	c-0.276,0-0.5,0.224-0.5,0.5s0.224,0.5,0.5,0.5h2.297l-1.001,1H1.97c-0.276,0-0.5,0.224-0.5,0.5s0.224,0.5,0.5,0.5h2.295
	l-1.002,1.001H0.454c-0.276,0-0.5,0.224-0.5,0.5s0.224,0.5,0.5,0.5H2.97v2.516c0,0.276,0.224,0.5,0.5,0.5s0.5-0.224,0.5-0.5v-2.808
	l1-0.999v2.291c0,0.276,0.224,0.5,0.5,0.5s0.5-0.224,0.5-0.5v-3.29l1-0.999v2.289c0,0.276,0.224,0.5,0.5,0.5s0.5-0.224,0.5-0.5
	v-3.289l4.021-4.018l4.008,4.011v3.295c0,0.276,0.224,0.5,0.5,0.5s0.5-0.224,0.5-0.5V17.63l1,1.001v3.294c0,0.276,0.224,0.5,0.5,0.5
	s0.5-0.224,0.5-0.5v-2.293l1,1.001v2.809c0,0.276,0.224,0.5,0.5,0.5s0.5-0.224,0.5-0.5v-2.516h2.516c0.276,0,0.5-0.224,0.5-0.5
	S23.791,19.926,23.515,19.926z"/>
</svg>
