<?xml version="1.0" encoding="utf-8"?>
<!-- Generator: Adobe Illustrator 19.2.0, SVG Export Plug-In . SVG Version: 6.00 Build 0)  -->
<svg version="1.1" id="Layer_1" xmlns="http://www.w3.org/2000/svg" xmlns:xlink="http://www.w3.org/1999/xlink" x="0px" y="0px"
	 width="24px" height="24px" viewBox="0 0 24 24" style="enable-background:new 0 0 24 24;" xml:space="preserve">
<g>
	<path d="M11.824,9.616c1.192,0.518,2.276,0.791,3.233,0.791c0.913,0,1.717-0.236,2.405-0.709c3.184-2.188,2.556-8.618,2.527-8.891
		c-0.014-0.139-0.086-0.265-0.197-0.348c-0.111-0.084-0.255-0.115-0.39-0.092c-5.941,1.09-7.926,3.656-8.533,5.669
		C8.806,3.995,3.956,4.828,3.717,4.869C3.581,4.894,3.46,4.974,3.385,5.091C3.31,5.208,3.287,5.351,3.321,5.486
		c0.045,0.178,1.149,4.37,3.866,5.189c0.307,0.093,0.621,0.139,0.939,0.139c0.865,0,1.772-0.354,2.709-1.033
		c0.079,0.678,0.234,1.635,0.55,2.644c0,0,0,0,0,0c0.168,0.54,0.21,1.277,0.122,2.189c-0.026,0.275,0.175,0.52,0.45,0.546
		c0.017,0.001,0.033,0.002,0.048,0.002c0.255,0,0.473-0.193,0.497-0.452c0.1-1.046,0.045-1.916-0.164-2.583
		C12.041,11.173,11.896,10.25,11.824,9.616z M19.032,1.459c0.076,1.54,0.08,5.892-2.137,7.416c-1.164,0.797-2.834,0.689-4.963-0.301
		c0.334-0.609,1.054-1.701,2.119-2.095c1.776-0.656,3.362-1.974,3.43-2.03c0.211-0.177,0.239-0.492,0.062-0.704
		c-0.18-0.213-0.495-0.24-0.704-0.063c-0.016,0.013-1.524,1.264-3.135,1.859c-0.89,0.329-1.568,1.002-2.049,1.636
		C11.843,5.463,13.112,2.692,19.032,1.459z M7.478,9.719C5.798,9.213,4.819,6.844,4.455,5.77c1.874-0.233,5.431-0.254,6.175,1.674
		c-0.001,0.015,0.001,0.026,0.001,0.042c-0.003,0.091-0.005,0.18-0.004,0.264C9.315,7.113,7.523,6.981,7.268,6.965
		c-0.284-0.013-0.513,0.193-0.53,0.468c-0.017,0.276,0.193,0.513,0.468,0.53c0.627,0.038,2.35,0.273,3.268,0.844
		C9.373,9.674,8.367,9.987,7.478,9.719z"/>
	<path d="M8.38,15.877c-0.559-0.413-0.599-0.459-0.801-0.696c-0.235-0.276-0.674-0.791-2.161-2.213
		C4.83,12.404,4.001,12.54,3.569,12.99c-0.431,0.451-0.404,1.102,0.025,1.508l1.049,1.243c0.09,0.159,0.174,0.349,0.229,0.505
		c-0.159-0.068-0.386-0.196-0.68-0.424c-0.147-0.133-0.264-0.238-1.514-2.059c-0.135-0.196-0.206-0.424-0.206-0.657v-1.773
		c0-0.681-0.53-1.194-1.232-1.194s-1.231,0.513-1.231,1.194l-0.005,0.723c-0.015,1.352-0.022,2.097,0.627,3.042
		c0.477,0.695,0.788,1.196,1.029,1.585c0.873,1.407,0.979,1.499,3.777,3.278c0.908,0.577,0.902,1.139,0.889,2.367l-0.003,0.445
		c0,0.661,0.552,1.199,1.231,1.199H9.7c0.679,0,1.231-0.538,1.231-1.199v-2.294C10.931,18.799,10.733,17.06,8.38,15.877z
		 M9.931,22.773c0,0.109-0.104,0.199-0.231,0.199H7.555c-0.127,0-0.231-0.09-0.231-0.199l0.003-0.435
		c0.014-1.259,0.026-2.346-1.353-3.222c-2.687-1.708-2.701-1.731-3.464-2.962c-0.247-0.397-0.565-0.911-1.055-1.624
		c-0.47-0.685-0.465-1.206-0.451-2.465l0.005-0.733c0-0.16,0.126-0.194,0.231-0.194c0.106,0,0.232,0.034,0.232,0.194v1.773
		c0,0.437,0.132,0.859,0.382,1.224c1.317,1.918,1.441,2.03,1.668,2.234c0.01,0.01,0.076,0.068,0.086,0.076
		c0.946,0.723,1.724,0.879,2.132,0.426c0.406-0.45,0.102-1.236-0.278-1.892l-1.139-1.358c-0.084-0.08-0.069-0.097-0.032-0.135
		c0.053-0.056,0.246-0.172,0.435,0.009c1.45,1.387,1.867,1.876,2.091,2.139c0.258,0.303,0.343,0.393,1.003,0.878
		c0.023,0.018,0.048,0.033,0.075,0.046c1.885,0.934,2.035,2.187,2.035,3.727V22.773z"/>
	<path d="M23.874,12.055l-0.005-0.723c0-0.681-0.529-1.194-1.231-1.194s-1.231,0.513-1.231,1.194v1.773
		c0,0.233-0.071,0.461-0.206,0.657c-1.249,1.819-1.366,1.925-1.536,2.082c-0.282,0.215-0.505,0.337-0.661,0.403
		c0.049-0.147,0.12-0.316,0.18-0.434l1.063-1.276c0.468-0.447,0.494-1.099,0.062-1.549c-0.43-0.45-1.261-0.585-1.849-0.022
		c-1.486,1.422-1.925,1.937-2.161,2.213c-0.201,0.237-0.241,0.283-0.8,0.696c-2.354,1.184-2.552,2.923-2.552,4.603v2.294
		c0,0.661,0.553,1.199,1.231,1.199h2.145c0.679,0,1.231-0.538,1.231-1.199l-0.003-0.444c-0.014-1.229-0.02-1.79,0.89-2.368
		c2.798-1.779,2.903-1.871,3.775-3.277c0.241-0.389,0.553-0.891,1.03-1.586C23.896,14.152,23.889,13.407,23.874,12.055z
		 M22.423,14.531c-0.489,0.713-0.809,1.228-1.056,1.625c-0.763,1.229-0.777,1.253-3.463,2.961c-1.378,0.876-1.366,1.964-1.353,3.223
		l0.003,0.434c0,0.109-0.104,0.199-0.231,0.199h-2.145c-0.125,0-0.231-0.091-0.231-0.199v-2.294c0-1.54,0.149-2.793,2.035-3.727
		c0.026-0.013,0.052-0.028,0.075-0.046c0.659-0.485,0.745-0.575,1.003-0.878c0.224-0.263,0.641-0.752,2.091-2.139
		c0.076-0.072,0.152-0.098,0.22-0.098c0.102,0,0.184,0.056,0.216,0.089c0.036,0.038,0.052,0.055-0.07,0.176l-1.153,1.393
		c-0.327,0.58-0.632,1.366-0.226,1.816c0.409,0.451,1.185,0.297,2.132-0.426c0.012-0.008,0.077-0.067,0.088-0.076
		c0.227-0.205,0.352-0.318,1.667-2.234c0.25-0.364,0.382-0.787,0.382-1.224v-1.773c0-0.32,0.463-0.32,0.463,0l0.005,0.733
		C22.888,13.325,22.894,13.846,22.423,14.531z"/>
</g>
</svg>
