<?xml version="1.0" encoding="utf-8"?>
<!-- Generator: Adobe Illustrator 19.2.0, SVG Export Plug-In . SVG Version: 6.00 Build 0)  -->
<svg version="1.1" id="Layer_1" xmlns="http://www.w3.org/2000/svg" xmlns:xlink="http://www.w3.org/1999/xlink" x="0px" y="0px"
	 width="24px" height="24px" viewBox="0 0 24 24" style="enable-background:new 0 0 24 24;" xml:space="preserve">
<path d="M18.282,9.444c-1.766-5.66-4.434-8.076-5.499-8.852c-0.469-0.342-1.1-0.342-1.57,0c-1.065,0.776-3.732,3.191-5.498,8.852
	c-1.758,5.642,0.869,7.674,2.998,8.712c0.888,0.433,1.833,0.671,2.785,0.735v4.425c0,0.276,0.224,0.5,0.5,0.5s0.5-0.224,0.5-0.5
	v-4.425c0.952-0.065,1.897-0.302,2.784-0.735C17.413,17.118,20.04,15.086,18.282,9.444z M14.846,17.258
	c-0.75,0.365-1.544,0.569-2.347,0.632v-3.262l2.565-2.282c0.207-0.184,0.226-0.5,0.042-0.706c-0.186-0.208-0.501-0.226-0.706-0.042
	l-1.901,1.69v-2.215l1.684-1.498c0.207-0.184,0.225-0.5,0.042-0.706c-0.186-0.206-0.502-0.226-0.706-0.041l-1.02,0.907V6.277
	c0-0.276-0.224-0.5-0.5-0.5s-0.5,0.224-0.5,0.5v1.577l-0.827-0.735c-0.207-0.185-0.523-0.166-0.706,0.041
	c-0.184,0.207-0.165,0.522,0.041,0.706l1.492,1.327v2.215L9.876,9.964C9.668,9.78,9.353,9.799,9.17,10.005
	c-0.184,0.207-0.165,0.522,0.041,0.706l2.288,2.035v2.215l-2.095-1.863c-0.208-0.184-0.523-0.166-0.706,0.041
	c-0.184,0.207-0.165,0.523,0.041,0.707l2.76,2.455v1.589c-0.802-0.063-1.597-0.267-2.346-0.632c-2.071-1.01-3.985-2.692-2.481-7.516
	c1.676-5.376,4.147-7.624,5.131-8.341c0.059-0.042,0.128-0.064,0.197-0.064s0.138,0.021,0.196,0.064
	c0.984,0.717,3.455,2.965,5.132,8.341C18.831,14.565,16.916,16.248,14.846,17.258z"/>
</svg>
