<?xml version="1.0" encoding="utf-8"?>
<!-- Generator: Adobe Illustrator 19.2.0, SVG Export Plug-In . SVG Version: 6.00 Build 0)  -->
<svg version="1.1" id="Layer_1" xmlns="http://www.w3.org/2000/svg" xmlns:xlink="http://www.w3.org/1999/xlink" x="0px" y="0px"
	 width="24px" height="24px" viewBox="0 0 24 24" style="enable-background:new 0 0 24 24;" xml:space="preserve">
<g>
	<path d="M19.499,10.895c-0.276,0-0.5,0.224-0.5,0.5s0.224,0.5,0.5,0.5c1.049,0,1.901-0.853,1.901-1.901s-0.853-1.901-1.901-1.901
		c-0.276,0-0.5,0.224-0.5,0.5s0.224,0.5,0.5,0.5c0.497,0,0.901,0.404,0.901,0.901S19.996,10.895,19.499,10.895z"/>
	<path d="M20.499,12.985h-2.5v-4.5c0-0.276-0.224-0.5-0.5-0.5h-6c-0.276,0-0.5,0.224-0.5,0.5v4.5h-1v-10.5
		c0-0.276-0.224-0.5-0.5-0.5h-6c-0.664,0-0.897,0.826-1.059,2.159C2.317,5.16,2.249,6.525,2.249,7.985c0,6,0.844,6,1.25,6h5.5v7.169
		c0,1.588,1.205,2.831,2.743,2.831h6.438c1.581,0,2.819-1.243,2.819-2.831v-7.669C20.999,13.209,20.775,12.985,20.499,12.985z
		 M11.999,8.985h5v4h-5V8.985z M3.683,2.985h5.316v10H3.683C3.12,11.763,3.12,4.207,3.683,2.985z M19.999,21.154
		c0,1.026-0.799,1.831-1.819,1.831h-6.438c-0.994,0-1.743-0.787-1.743-1.831v-7.169h1.5h6h2.5V21.154z"/>
	<path d="M13.08,11.68c-0.09,0.09-0.14,0.22-0.14,0.35c0,0.13,0.05,0.26,0.14,0.35c0.09,0.09,0.22,0.15,0.359,0.15
		c0.13,0,0.25-0.05,0.36-0.15c0.09-0.1,0.14-0.22,0.14-0.35c0-0.13-0.05-0.25-0.149-0.36C13.6,11.49,13.26,11.49,13.08,11.68z"/>
	<path d="M15.21,11.68c-0.101,0.09-0.15,0.22-0.15,0.35c0,0.13,0.05,0.26,0.141,0.35c0.1,0.09,0.229,0.15,0.359,0.15
		s0.26-0.05,0.36-0.15c0.09-0.1,0.14-0.23,0.14-0.35c0-0.13-0.05-0.26-0.149-0.36C15.72,11.48,15.39,11.49,15.21,11.68z"/>
	<path d="M13.08,9.59c-0.09,0.09-0.14,0.22-0.14,0.35c0,0.13,0.05,0.26,0.14,0.35c0.09,0.1,0.22,0.15,0.359,0.15
		c0.13,0,0.25-0.05,0.36-0.15c0.09-0.09,0.14-0.22,0.14-0.35c0-0.13-0.05-0.25-0.149-0.36C13.6,9.4,13.27,9.41,13.08,9.59z"/>
	<path d="M15.21,9.59c-0.101,0.09-0.15,0.22-0.15,0.35c0,0.14,0.05,0.27,0.141,0.35c0.1,0.1,0.229,0.15,0.359,0.15
		s0.26-0.05,0.36-0.14c0.09-0.1,0.14-0.23,0.14-0.36c0-0.12-0.05-0.25-0.149-0.36C15.72,9.4,15.399,9.4,15.21,9.59z"/>
	<path d="M14.14,10.63c-0.09,0.1-0.14,0.22-0.14,0.36c0,0.13,0.05,0.25,0.14,0.35c0.09,0.09,0.22,0.15,0.36,0.15
		c0.13,0,0.26-0.06,0.359-0.16C14.95,11.24,15,11.11,15,10.99c0-0.13-0.05-0.26-0.15-0.36C14.66,10.44,14.33,10.45,14.14,10.63z"/>
	<path d="M14.499,6.83c0.994,0,1.804-0.809,1.804-1.804c0-0.048-0.362-4.839-1.804-4.839s-1.804,4.791-1.804,4.839
		C12.695,6.021,13.505,6.83,14.499,6.83z M14.499,1.342c0.374,0.723,0.804,2.968,0.804,3.684c0,0.443-0.36,0.804-0.804,0.804
		s-0.804-0.36-0.804-0.804C13.695,4.31,14.125,2.065,14.499,1.342z"/>
</g>
</svg>
