<?xml version="1.0" encoding="utf-8"?>
<!-- Generator: Adobe Illustrator 19.2.0, SVG Export Plug-In . SVG Version: 6.00 Build 0)  -->
<svg version="1.1" id="Layer_1" xmlns="http://www.w3.org/2000/svg" xmlns:xlink="http://www.w3.org/1999/xlink" x="0px" y="0px"
	 width="24px" height="24px" viewBox="0 0 24 24" style="enable-background:new 0 0 24 24;" xml:space="preserve">
<g>
	<path d="M16.482,20.595c-0.276,0-0.5,0.224-0.5,0.5c0,0.977-0.794,1.771-1.771,1.771s-1.771-0.794-1.771-1.771v-6.356
		c0-0.276-0.224-0.5-0.5-0.5s-0.5,0.224-0.5,0.5v6.356c0,1.527,1.243,2.771,2.771,2.771c1.527,0,2.771-1.243,2.771-2.771
		C16.982,20.819,16.759,20.595,16.482,20.595z"/>
	<path d="M12.441,1.92V0.556c0-0.276-0.224-0.5-0.5-0.5s-0.5,0.224-0.5,0.5v1.367C5.107,2.172,0.036,6.828,0.036,12.531
		c0,0.276,0.224,0.5,0.5,0.5h0.159c0.213,0,0.403-0.135,0.473-0.337c0.329-0.952,1.226-1.592,2.232-1.592
		c1.006,0,1.903,0.64,2.232,1.592c0.07,0.202,0.259,0.337,0.473,0.337h0.319c0.213,0,0.403-0.135,0.473-0.337
		c0.329-0.952,1.226-1.592,2.232-1.592c1.006,0,1.903,0.64,2.232,1.593c0.07,0.201,0.259,0.336,0.473,0.336h0.208
		c0.213,0,0.403-0.135,0.473-0.337c0.329-0.952,1.227-1.592,2.232-1.592s1.902,0.64,2.232,1.593c0.07,0.201,0.26,0.336,0.473,0.336
		h0.318c0.213,0,0.403-0.135,0.473-0.337c0.329-0.952,1.227-1.592,2.232-1.592s1.903,0.64,2.232,1.592
		c0.069,0.202,0.26,0.337,0.473,0.337h0.224c0.276,0,0.5-0.224,0.5-0.5C23.904,6.811,18.803,2.143,12.441,1.92z M20.476,10.102
		c-1.184,0-2.262,0.622-2.864,1.604c-0.604-0.981-1.681-1.604-2.864-1.604c-1.148,0-2.198,0.585-2.81,1.517
		c-0.612-0.931-1.661-1.517-2.809-1.517c-1.184,0-2.262,0.622-2.864,1.604c-0.603-0.981-1.681-1.604-2.864-1.604
		c-0.833,0-1.615,0.309-2.214,0.833C2.051,6.381,6.558,2.899,11.97,2.899c5.44,0,9.965,3.518,10.798,8.106
		C22.158,10.438,21.346,10.102,20.476,10.102z"/>
</g>
</svg>
