<?xml version="1.0" encoding="utf-8"?>
<!-- Generator: Adobe Illustrator 19.2.0, SVG Export Plug-In . SVG Version: 6.00 Build 0)  -->
<svg version="1.1" id="Layer_1" xmlns="http://www.w3.org/2000/svg" xmlns:xlink="http://www.w3.org/1999/xlink" x="0px" y="0px"
	 width="24px" height="24px" viewBox="0 0 24 24" style="enable-background:new 0 0 24 24;" xml:space="preserve">
<g>
	<path d="M23.69,5.576c0-0.66-0.293-1.279-0.804-1.698c-0.265-0.217-0.571-0.366-0.896-0.441c0.155-0.498,0.126-1.042-0.101-1.543
		c-0.36-0.796-1.126-1.291-1.999-1.291c-0.618,0-1.189,0.26-1.594,0.692c-0.524-0.581-1.292-0.762-1.963-0.657
		c-1.087,0.175-1.847,1.063-1.847,2.161c0,0.217,0.033,0.432,0.098,0.638c-0.325,0.075-0.633,0.224-0.897,0.441
		c-0.511,0.419-0.804,1.038-0.804,1.698c0,0.661,0.293,1.279,0.804,1.699c0.266,0.217,0.572,0.366,0.897,0.441
		c-0.064,0.206-0.098,0.42-0.098,0.638c0,0.518,0.174,0.986,0.466,1.357c-0.79,1.406-1.418,2.768-1.916,4.056
		c-0.003,0.006-0.006,0.011-0.009,0.018c-0.001,0.003,0,0.005-0.001,0.008c-0.758,1.967-1.223,3.761-1.496,5.244
		c-0.39-1.761-1.049-3.763-2.078-5.461c0.311-0.078,0.605-0.22,0.86-0.429c0.51-0.418,0.803-1.037,0.803-1.697
		c0-0.661-0.293-1.281-0.806-1.7c-0.265-0.217-0.571-0.366-0.895-0.44c0.064-0.206,0.097-0.42,0.097-0.638
		c0-1.098-0.759-1.986-1.847-2.161C6.995,6.404,6.228,6.587,5.703,7.169C5.298,6.737,4.728,6.477,4.109,6.477
		c-0.873,0-1.639,0.495-2,1.292c-0.226,0.5-0.255,1.044-0.101,1.542C1.686,9.385,1.38,9.534,1.115,9.751
		c-0.512,0.419-0.806,1.039-0.806,1.7c0,0.66,0.293,1.279,0.804,1.698c0.265,0.218,0.572,0.366,0.897,0.441
		c-0.064,0.206-0.097,0.421-0.097,0.639c0,1.098,0.759,1.985,1.845,2.16c0.667,0.108,1.431-0.073,1.955-0.646
		c0.43,0.47,1.021,0.676,1.586,0.676c0.125,0,0.248-0.01,0.368-0.029c0.707-0.114,1.271-0.533,1.582-1.113
		c1.643,3.556,1.884,7.98,1.888,8.062c0,0.001,0,0.001,0,0.001c0.013,0.268,0.234,0.477,0.499,0.477c0.008,0,0.016,0,0.024-0.001
		c0.276-0.013,0.489-0.247,0.476-0.522c0-0.001,0-0.001,0-0.002c-0.004-0.089-0.129-3.665,1.579-8.466
		c0.789,0.63,1.589,0.963,2.391,0.963c0.144,0,0.286-0.011,0.43-0.031c1.903-0.269,3.02-2.255,3.065-2.339
		c0.067-0.122,0.081-0.268,0.037-0.4c-0.045-0.133-0.143-0.241-0.27-0.298c-0.112-0.05-2.633-1.165-4.54-0.586
		c0.278-0.591,0.586-1.192,0.924-1.8c0.181,0.082,0.372,0.149,0.58,0.182c0.67,0.107,1.439-0.076,1.964-0.657
		c0.404,0.433,0.976,0.692,1.594,0.692c0.873,0,1.639-0.495,1.999-1.292c0.227-0.501,0.256-1.044,0.101-1.542
		c0.325-0.075,0.632-0.224,0.896-0.441C23.397,6.856,23.69,6.237,23.69,5.576z M8.513,14.228c0,0.746-0.541,1.099-1.005,1.173
		c-0.459,0.076-1.085-0.09-1.32-0.802c-0.067-0.204-0.259-0.343-0.475-0.343S5.306,14.395,5.238,14.6
		c-0.234,0.709-0.858,0.876-1.321,0.801c-0.463-0.074-1.004-0.427-1.004-1.173c0-0.364,0.165-0.628,0.303-0.785
		c0.142-0.161,0.165-0.395,0.058-0.58c-0.107-0.186-0.319-0.284-0.531-0.241c-0.354,0.071-0.717-0.019-0.996-0.248
		C1.469,12.147,1.31,11.81,1.31,11.45c0-0.36,0.16-0.697,0.439-0.926c0.278-0.228,0.642-0.317,0.994-0.247
		c0.208,0.042,0.424-0.054,0.532-0.24c0.107-0.186,0.084-0.419-0.058-0.581c-0.32-0.363-0.393-0.84-0.195-1.277
		c0.153-0.34,0.52-0.704,1.088-0.704c0.513,0,0.966,0.331,1.129,0.824c0.135,0.41,0.814,0.41,0.949,0
		c0.235-0.711,0.861-0.876,1.32-0.802c0.464,0.075,1.005,0.427,1.005,1.174c0,0.364-0.165,0.628-0.303,0.785
		c-0.142,0.161-0.166,0.395-0.058,0.581s0.322,0.282,0.532,0.24c0.356-0.07,0.715,0.019,0.994,0.247
		c0.279,0.228,0.439,0.566,0.439,0.926c0,0.359-0.159,0.696-0.437,0.924c-0.278,0.228-0.643,0.318-0.997,0.248
		c-0.002,0-0.005,0.001-0.007,0.001c-0.088-0.016-0.177-0.002-0.264,0.03c-0.021,0.008-0.039,0.016-0.059,0.027
		c-0.02,0.011-0.042,0.014-0.061,0.028c-0.058,0.042-0.103,0.094-0.137,0.152c-0.001,0.001-0.003,0.002-0.003,0.003
		c-0.003,0.005-0.001,0.01-0.003,0.015c-0.042,0.078-0.057,0.164-0.054,0.251c0.001,0.019-0.001,0.035,0.002,0.054
		c0.011,0.078,0.034,0.154,0.084,0.223c0.083,0.114,0.156,0.237,0.235,0.356C8.472,13.893,8.513,14.048,8.513,14.228z
		 M18.396,13.415c-0.387,0.5-1.094,1.225-2.005,1.352c-0.734,0.102-1.501-0.204-2.289-0.909c0.193-0.326,0.466-0.558,0.826-0.705
		C16.014,12.71,17.571,13.129,18.396,13.415z M22.252,6.501c-0.276,0.227-0.638,0.316-0.995,0.247
		c-0.207-0.044-0.424,0.055-0.531,0.24c-0.106,0.186-0.083,0.419,0.059,0.58c0.319,0.363,0.392,0.841,0.194,1.278
		c-0.154,0.34-0.521,0.704-1.088,0.704c-0.513,0-0.966-0.331-1.129-0.824c-0.067-0.205-0.259-0.344-0.475-0.344
		s-0.407,0.138-0.475,0.343c-0.234,0.709-0.854,0.876-1.321,0.801c-0.463-0.074-1.004-0.426-1.004-1.173
		c0-0.364,0.165-0.628,0.304-0.785c0.141-0.161,0.164-0.394,0.057-0.58c-0.106-0.185-0.32-0.284-0.53-0.24
		c-0.36,0.069-0.719-0.02-0.995-0.247c-0.278-0.228-0.438-0.565-0.438-0.925c0-0.359,0.159-0.697,0.438-0.925
		c0.279-0.228,0.643-0.314,0.996-0.247c0.206,0.044,0.424-0.055,0.53-0.24c0.107-0.186,0.084-0.419-0.057-0.58
		c-0.139-0.157-0.304-0.421-0.304-0.785c0-0.747,0.542-1.099,1.005-1.174c0.466-0.072,1.086,0.09,1.32,0.802
		c0.135,0.41,0.814,0.41,0.949,0c0.163-0.493,0.616-0.824,1.129-0.824c0.567,0,0.935,0.363,1.088,0.703
		c0.197,0.437,0.125,0.915-0.194,1.278c-0.142,0.161-0.165,0.394-0.059,0.58c0.107,0.186,0.324,0.286,0.531,0.24
		c0.357-0.071,0.719,0.02,0.995,0.247c0.279,0.228,0.438,0.565,0.438,0.925C22.69,5.936,22.53,6.273,22.252,6.501z"/>
	<path d="M18.287,3.676c-1.048,0-1.9,0.853-1.9,1.9s0.853,1.9,1.9,1.9s1.9-0.853,1.9-1.9S19.335,3.676,18.287,3.676z M18.287,6.476
		c-0.496,0-0.9-0.404-0.9-0.9s0.404-0.9,0.9-0.9s0.9,0.404,0.9,0.9S18.783,6.476,18.287,6.476z"/>
	<path d="M5.713,9.55c-1.048,0-1.9,0.853-1.9,1.901c0,1.048,0.853,1.901,1.9,1.901s1.9-0.853,1.9-1.901
		C7.613,10.402,6.761,9.55,5.713,9.55z M5.713,12.351c-0.497,0-0.9-0.404-0.9-0.9s0.404-0.901,0.9-0.901s0.9,0.404,0.9,0.901
		S6.209,12.351,5.713,12.351z"/>
</g>
</svg>
