<?xml version="1.0" encoding="utf-8"?>
<!-- Generator: Adobe Illustrator 19.2.0, SVG Export Plug-In . SVG Version: 6.00 Build 0)  -->
<svg version="1.1" id="Layer_1" xmlns="http://www.w3.org/2000/svg" xmlns:xlink="http://www.w3.org/1999/xlink" x="0px" y="0px"
	 width="24px" height="24px" viewBox="0 0 24 24" style="enable-background:new 0 0 24 24;" xml:space="preserve">
<g>
	<path d="M22.715,17.484c-0.043-0.168-0.17-0.301-0.335-0.354c-0.129-0.04-0.267-0.027-0.383,0.035v-1.59
		c0-1.346-3.832-1.45-5.007-1.45s-5.007,0.104-5.007,1.45v6.812c0,1.347,3.832,1.451,5.007,1.451s5.007-0.104,5.007-1.451v-1.831
		l0.963-1.439c0.079-0.118,0.104-0.265,0.069-0.402L22.715,17.484z M16.99,15.126c1.894,0,3.185,0.245,3.752,0.45
		c-0.567,0.206-1.857,0.451-3.752,0.451c-1.922,0-3.196-0.242-3.756-0.449C13.8,15.372,15.092,15.126,16.99,15.126z M21.082,20.126
		c-0.056,0.082-0.085,0.18-0.085,0.278v1.866c-0.325,0.214-1.729,0.568-4.007,0.568c-2.308,0-3.682-0.35-4.007-0.567v-5.737
		c0.464,0.169,1.039,0.281,1.62,0.354v2.15c0,0.276,0.224,0.5,0.5,0.5s0.5-0.224,0.5-0.5v-2.057
		c0.569,0.036,1.073,0.045,1.387,0.045c0.412,0,1.151-0.014,1.936-0.089v0.845c0,0.276,0.224,0.5,0.5,0.5s0.5-0.224,0.5-0.5v-0.975
		c0.388-0.068,0.754-0.158,1.071-0.273v1.707c0,0.195,0.114,0.373,0.292,0.455s0.387,0.051,0.535-0.077l0.122-0.105l0.059,0.231
		L21.082,20.126z"/>
	<path d="M23.418,6.765C21.446,5.82,19.85,4.562,19.304,4.11l0.492-0.509c0.284-0.298,0.28-0.763-0.008-1.059l-1.94-1.983
		c-0.145-0.147-0.338-0.229-0.544-0.229c-0.001,0-0.001,0-0.001,0c-0.206,0-0.399,0.081-0.54,0.225L16.25,1.068l-0.418-0.421
		c-0.095-0.095-0.222-0.148-0.355-0.148c-0.133,0-0.261,0.053-0.354,0.147l-1.829,1.84c-0.188,0.189-0.194,0.494-0.014,0.69
		l0.534,0.581C10.826,7.535,3.874,14.134,1.206,16.665L0.65,17.193c-0.763,0.726-0.125,1.511,0.096,1.782
		c0.127,0.145,1.186,1.318,2.297,1.318c0.1,0,0.2-0.009,0.3-0.029c0.619-0.128,1.072-0.62,1.345-1.464
		c0.644-1.991,3.039-4.043,6.071-6.64c1.738-1.489,3.695-3.177,5.731-5.175c0.403,1.207,0.852,3.486,1.016,4.418
		c0.025,0.143,0.111,0.268,0.236,0.342c0.078,0.047,0.167,0.071,0.256,0.071c0.053,0,0.106-0.008,0.157-0.025
		c4.17-1.386,5.453-4.255,5.506-4.376C23.768,7.168,23.66,6.881,23.418,6.765z M17.301,1.431l1.611,1.646l-0.331,0.342l-1.627-1.641
		L17.301,1.431z M10.108,11.401c-3.275,2.806-5.641,4.832-6.372,7.091c-0.106,0.327-0.295,0.73-0.594,0.792
		c-0.511,0.114-1.327-0.606-1.632-0.953c-0.2-0.245-0.224-0.33-0.172-0.413l0.555-0.527c2.653-2.516,9.515-9.03,12.603-12.886
		l1.467,1.598C13.888,8.154,11.885,9.88,10.108,11.401z M18.384,10.646c-0.229-1.212-0.765-3.843-1.252-4.729
		c-0.02-0.035-0.043-0.068-0.07-0.097l-2.723-2.967l1.138-1.145l0.417,0.42c0.001,0.001,0.001,0.001,0.001,0.002
		s0.001,0.001,0.002,0.001l2.342,2.361c0,0,0,0.001,0.001,0.001c0,0,0,0,0.001,0l0.158,0.16c0.075,0.067,1.778,1.572,4.111,2.777
		C22.045,8.159,20.833,9.685,18.384,10.646z"/>
</g>
</svg>
