<?xml version="1.0" encoding="utf-8"?>
<!-- Generator: Adobe Illustrator 19.2.0, SVG Export Plug-In . SVG Version: 6.00 Build 0)  -->
<svg version="1.1" id="Layer_1" xmlns="http://www.w3.org/2000/svg" xmlns:xlink="http://www.w3.org/1999/xlink" x="0px" y="0px"
	 width="24px" height="24px" viewBox="0 0 24 24" style="enable-background:new 0 0 24 24;" xml:space="preserve">
<g>
	<path d="M17.085,2.484c-0.193-0.091-0.422-0.052-0.571,0.1s-0.188,0.381-0.094,0.572c1.859,3.784,1.231,8.24-1.597,11.352
		c-2.842,3.124-7.163,4.101-11.282,2.543c-0.197-0.072-0.421-0.017-0.558,0.144c-0.137,0.161-0.158,0.391-0.052,0.574
		c2.224,3.854,5.007,5.77,8.76,6.026c0.268,0.019,0.535,0.027,0.803,0.027c2.865,0,5.67-1.046,7.798-2.931
		c2.18-1.931,3.463-4.579,3.614-7.457C24.153,8.738,21.604,4.644,17.085,2.484z M19.629,20.142
		c-2.127,1.885-4.998,2.851-7.869,2.654c-3.005-0.205-5.334-1.608-7.247-4.391c4.095,1.054,8.23-0.125,11.049-3.227
		c2.779-3.056,3.624-7.294,2.311-11.128c3.375,2.088,5.236,5.491,5.035,9.33C22.771,15.99,21.606,18.391,19.629,20.142z"/>
	<path d="M3.278,8.577C3.184,8.889,3.297,9.212,3.566,9.401l2.074,1.454l-0.748,2.288c-0.099,0.301,0.001,0.621,0.254,0.817
		c0.261,0.201,0.624,0.217,0.901,0.039l2.182-1.404l2.178,1.401c0.129,0.085,0.277,0.127,0.426,0.127
		c0.168,0,0.335-0.054,0.475-0.16c0.255-0.194,0.356-0.516,0.258-0.821l-0.749-2.287L12.892,9.4
		c0.269-0.189,0.382-0.512,0.287-0.823c-0.095-0.314-0.384-0.531-0.719-0.539c-0.001,0-0.002,0-0.003,0L9.811,7.989l-0.86-2.286
		C8.84,5.403,8.557,5.208,8.23,5.208C7.868,5.203,7.619,5.401,7.507,5.7L6.646,7.989L3.998,8.038
		C3.662,8.046,3.373,8.263,3.278,8.577z M7.004,8.982C7.209,8.978,7.391,8.85,7.462,8.658l0.766-2.037l0.766,2.037
		c0.072,0.192,0.253,0.32,0.458,0.324l2.233,0.042l-1.748,1.225c-0.18,0.126-0.256,0.356-0.188,0.565l0.652,1.991L8.5,11.579
		c-0.165-0.106-0.376-0.106-0.541,0l-1.904,1.225l0.651-1.991c0.068-0.209-0.008-0.438-0.188-0.564L4.771,9.024L7.004,8.982z"/>
	<path d="M3.659,4.427l0.22,0.153c0.705,0.497,1.027,0.725,1.396,0.455C5.646,4.764,5.53,4.395,5.25,3.502l-0.056-0.18l0.135-0.101
		c0.792-0.586,1.088-0.805,0.945-1.244C6.133,1.542,5.741,1.538,4.881,1.531L4.604,1.528L4.538,1.333
		c-0.3-0.875-0.425-1.238-0.881-1.238c-0.001,0-0.001,0-0.002,0C3.199,0.096,3.074,0.465,2.8,1.274L2.712,1.529L2.531,1.531
		C1.548,1.544,1.18,1.549,1.04,1.989C0.9,2.424,1.217,2.656,1.911,3.165l0.214,0.158L2.073,3.488
		c-0.283,0.903-0.4,1.277-0.029,1.548c0.107,0.078,0.211,0.115,0.321,0.115c0.266,0,0.57-0.215,1.065-0.564L3.659,4.427z
		 M3.083,3.61l0.103-0.331c0.062-0.202-0.009-0.42-0.178-0.546L2.732,2.529l0.349-0.005C3.29,2.519,3.474,2.386,3.543,2.189
		l0.116-0.336l0.117,0.337c0.069,0.197,0.253,0.33,0.462,0.334l0.349,0.004L4.311,2.732C4.143,2.859,4.072,3.077,4.133,3.278
		L4.236,3.61L3.943,3.405C3.857,3.346,3.758,3.317,3.659,3.317S3.461,3.346,3.375,3.405L3.083,3.61z"/>
</g>
</svg>
