<?xml version="1.0" encoding="utf-8"?>
<!-- Generator: Adobe Illustrator 19.2.0, SVG Export Plug-In . SVG Version: 6.00 Build 0)  -->
<svg version="1.1" id="Layer_1" xmlns="http://www.w3.org/2000/svg" xmlns:xlink="http://www.w3.org/1999/xlink" x="0px" y="0px"
	 width="24px" height="24px" viewBox="0 0 24 24" style="enable-background:new 0 0 24 24;" xml:space="preserve">
<g>
	<path d="M1.485,4.99c-0.276,0-0.5,0.224-0.5,0.5v17.889c0,0.276,0.224,0.5,0.5,0.5s0.5-0.224,0.5-0.5V5.49
		C1.985,5.213,1.761,4.99,1.485,4.99z"/>
	<path d="M23.119,3.203c-0.076-0.144-0.218-0.241-0.38-0.261L7.345,1.026C7.327,1.023,7.31,1.029,7.292,1.028
		c-0.027,0-0.052,0-0.078,0.004C7.173,1.038,7.137,1.049,7.1,1.063C7.081,1.07,7.063,1.077,7.045,1.087
		C7.003,1.11,6.967,1.139,6.933,1.173c-0.008,0.008-0.02,0.012-0.028,0.021L2.622,6.139c-0.16,0.184-0.163,0.456-0.009,0.645
		l4.284,5.22c0.02,0.024,0.047,0.035,0.07,0.054c0.02,0.017,0.037,0.032,0.06,0.046c0.079,0.048,0.164,0.081,0.254,0.082
		c0.001,0,0.001,0.001,0.002,0.001c0,0,0,0,0.001,0c0,0,0,0,0,0c0,0,0.001,0,0.001,0c0.029,0,0.057-0.002,0.086-0.008l15.395-2.75
		c0.163-0.029,0.302-0.138,0.369-0.29C24.547,5.954,23.178,3.314,23.119,3.203z M7.64,11.115C7.325,9.906,6.558,6.203,7.649,2.071
		l4.335,0.54v7.728L7.64,11.115z M12.985,2.735l4,0.498v6.213l-4,0.714V2.735z M6.345,3.368c-0.439,2.556-0.268,4.82-0.017,6.367
		L3.653,6.475L6.345,3.368z M22.322,8.493l-4.337,0.775v-5.91L22.338,3.9C22.592,4.522,23.173,6.35,22.322,8.493z"/>
</g>
</svg>
