<?xml version="1.0" encoding="utf-8"?>
<!-- Generator: Adobe Illustrator 19.2.0, SVG Export Plug-In . SVG Version: 6.00 Build 0)  -->
<svg version="1.1" id="Layer_1" xmlns="http://www.w3.org/2000/svg" xmlns:xlink="http://www.w3.org/1999/xlink" x="0px" y="0px"
	 width="24px" height="24px" viewBox="0 0 24 24" style="enable-background:new 0 0 24 24;" xml:space="preserve">
<g>
	<path d="M22.104,5.389C20.251,2.253,16.38,0.303,12,0.303c0,0,0,0-0.001,0c-4.38,0-8.252,1.949-10.105,5.086
		c-2.428,4.113-1.447,9.508-0.148,13.396c-0.525,0.832-0.524,1.898,0.024,2.734l0.148,0.229c0.493,0.771,1.252,1.957,2.553,1.957
		c0.327,0,0.688-0.075,1.086-0.25l0.224-0.097c0.762-0.326,1.482-0.634,1.861-1.665c0.236-0.644,0.199-1.366-0.102-1.982
		c-1.215-2.489-3.128-8.637-1.29-11.751c0.931-1.577,3.131-2.558,5.743-2.56c0.002,0,0.004,0,0.007,0
		c2.61,0,4.811,0.979,5.743,2.556c1.981,3.346-0.324,9.77-1.287,11.756c-0.301,0.616-0.337,1.338-0.101,1.981
		c0.237,0.645,0.732,1.171,1.36,1.445l0.257,0.115c0.469,0.213,0.913,0.414,1.479,0.414c1.412,0,1.996-0.922,2.561-1.813
		l0.214-0.335c0.549-0.837,0.55-1.903,0.025-2.734C23.552,14.899,24.533,9.505,22.104,5.389z M21.225,18.706
		c-0.056,0.162-0.024,0.341,0.082,0.475c0.414,0.518,0.448,1.238,0.085,1.793l-0.224,0.348c-0.576,0.911-0.89,1.349-1.715,1.349
		c-0.351,0-0.667-0.144-1.066-0.325l-0.27-0.12c-0.379-0.166-0.679-0.485-0.822-0.875c-0.144-0.389-0.121-0.825,0.062-1.199
		c1.099-2.264,3.464-8.96,1.249-12.703c-1.113-1.879-3.643-3.046-6.604-3.046c-0.002,0-0.005,0-0.007,0
		C9.03,4.404,6.5,5.573,5.39,7.453C3.18,11.196,5.615,18.047,6.643,20.152c0.182,0.372,0.204,0.81,0.062,1.198
		c-0.23,0.626-0.616,0.791-1.316,1.091l-0.23,0.1c-1.126,0.496-1.657-0.174-2.396-1.33l-0.154-0.238
		c-0.363-0.554-0.329-1.274,0.085-1.793c0.107-0.134,0.138-0.312,0.083-0.475C1.504,15,0.47,9.77,2.756,5.898
		C4.429,3.064,7.972,1.303,12,1.303c4.028,0,7.569,1.761,9.242,4.595C23.529,9.771,22.495,15.001,21.225,18.706z"/>
	<path d="M3.9,17.46c-0.09,0.09-0.15,0.22-0.15,0.36c0,0.13,0.06,0.26,0.16,0.359C4,18.27,4.13,18.32,4.25,18.32
		c0.13,0,0.26-0.05,0.36-0.15c0.09-0.1,0.14-0.22,0.14-0.35s-0.05-0.26-0.14-0.36C4.42,17.27,4.09,17.28,3.9,17.46z"/>
	<path d="M2.66,11.53c-0.1,0.09-0.15,0.22-0.15,0.36c0,0.13,0.05,0.26,0.14,0.35c0.1,0.09,0.23,0.15,0.35,0.15
		c0.13,0,0.26-0.06,0.36-0.15c0.09-0.09,0.15-0.22,0.15-0.35c0-0.14-0.06-0.27-0.15-0.36C3.17,11.35,2.83,11.35,2.66,11.53z"/>
	<path d="M4.22,5.6c-0.1,0.09-0.15,0.22-0.15,0.36c0,0.13,0.05,0.26,0.14,0.35c0.1,0.09,0.22,0.15,0.36,0.15
		c0.13,0,0.26-0.06,0.35-0.15c0.09-0.09,0.15-0.22,0.15-0.35c0-0.14-0.06-0.27-0.15-0.35C4.74,5.41,4.4,5.41,4.22,5.6z"/>
	<path d="M11.65,2.39c-0.1,0.1-0.15,0.22-0.15,0.36c0,0.13,0.05,0.26,0.15,0.35c0.09,0.1,0.22,0.15,0.35,0.15
		c0.13,0,0.26-0.05,0.35-0.15c0.1-0.09,0.15-0.22,0.15-0.35c0-0.14-0.05-0.26-0.15-0.36C12.17,2.21,11.83,2.21,11.65,2.39z"/>
	<path d="M19.91,6.27c0.09-0.1,0.14-0.23,0.14-0.35c0-0.13-0.05-0.26-0.15-0.36c-0.189-0.19-0.529-0.18-0.71,0
		c-0.09,0.1-0.14,0.23-0.14,0.36c0,0.13,0.05,0.26,0.14,0.35c0.101,0.09,0.23,0.15,0.36,0.15S19.8,6.37,19.91,6.27z"/>
	<path d="M21.39,11.53c-0.189-0.18-0.51-0.19-0.71,0c-0.09,0.1-0.14,0.23-0.14,0.36s0.05,0.26,0.149,0.35
		c0.091,0.09,0.221,0.15,0.351,0.15s0.26-0.06,0.35-0.15c0.101-0.09,0.15-0.22,0.15-0.35S21.49,11.63,21.39,11.53z"/>
	<path d="M19.439,17.469c-0.09,0.091-0.149,0.221-0.149,0.351s0.05,0.26,0.149,0.35c0.091,0.101,0.221,0.15,0.351,0.15
		s0.26-0.05,0.359-0.15c0.091-0.1,0.141-0.22,0.141-0.35s-0.05-0.26-0.15-0.36C19.95,17.28,19.62,17.28,19.439,17.469z"/>
</g>
</svg>
