<?xml version="1.0" encoding="utf-8"?>
<!-- Generator: Adobe Illustrator 19.2.0, SVG Export Plug-In . SVG Version: 6.00 Build 0)  -->
<svg version="1.1" id="Layer_1" xmlns="http://www.w3.org/2000/svg" xmlns:xlink="http://www.w3.org/1999/xlink" x="0px" y="0px"
	 width="24px" height="24px" viewBox="0 0 24 24" style="enable-background:new 0 0 24 24;" xml:space="preserve">
<g>
	<path d="M9.197,10.461c1.158,0,2.101-0.942,2.101-2.101c0-1.159-0.942-2.101-2.101-2.101c-1.159,0-2.101,0.942-2.101,2.101
		C7.096,9.518,8.038,10.461,9.197,10.461z M9.197,7.259c0.607,0,1.101,0.494,1.101,1.101S9.804,9.461,9.197,9.461
		S8.096,8.967,8.096,8.36S8.59,7.259,9.197,7.259z"/>
	<path d="M11.75,8.369c0,0.276,0.224,0.5,0.5,0.5h0.977c0.276,0,0.5-0.224,0.5-0.5s-0.224-0.5-0.5-0.5H12.25
		C11.973,7.869,11.75,8.093,11.75,8.369z"/>
	<path d="M6.15,8.869c0.276,0,0.5-0.224,0.5-0.5s-0.224-0.5-0.5-0.5H5.174c-0.276,0-0.5,0.224-0.5,0.5s0.224,0.5,0.5,0.5H6.15z"/>
	<path d="M9.2,5.82c0.276,0,0.5-0.224,0.5-0.5V4.343c0-0.276-0.224-0.5-0.5-0.5s-0.5,0.224-0.5,0.5V5.32
		C8.7,5.596,8.923,5.82,9.2,5.82z"/>
	<path d="M11.42,6.649c0.128,0,0.256-0.049,0.354-0.146l0.409-0.409c0.195-0.195,0.195-0.512,0-0.707s-0.512-0.195-0.707,0
		l-0.409,0.409c-0.195,0.195-0.195,0.512,0,0.707C11.165,6.6,11.292,6.649,11.42,6.649z"/>
	<path d="M6.626,10.236l-0.409,0.409c-0.195,0.195-0.195,0.512,0,0.708c0.098,0.098,0.226,0.146,0.354,0.146
		s0.256-0.049,0.354-0.146l0.409-0.409c0.195-0.195,0.195-0.512,0-0.708C7.138,10.041,6.821,10.042,6.626,10.236z"/>
	<path d="M11.774,10.236c-0.195-0.194-0.512-0.195-0.708,0c-0.195,0.195-0.195,0.512,0,0.708l0.409,0.409
		c0.098,0.097,0.226,0.146,0.354,0.146s0.256-0.049,0.354-0.146c0.195-0.195,0.195-0.512,0-0.708L11.774,10.236z"/>
	<path d="M6.626,6.502C6.724,6.6,6.852,6.649,6.979,6.649S7.235,6.6,7.333,6.502c0.195-0.195,0.195-0.512,0-0.707L6.924,5.386
		c-0.195-0.195-0.512-0.195-0.707,0s-0.195,0.512,0,0.707L6.626,6.502z"/>
	<path d="M22.873,16.468c1.749-4.261,0.899-9.347-2.556-12.801c-2.219-2.219-5.173-3.44-8.318-3.44s-6.1,1.222-8.318,3.44
		S0.24,8.84,0.24,11.985s1.222,6.1,3.44,8.318c0.661,0.661,1.387,1.215,2.15,1.686c0.01,0.008,0.015,0.02,0.026,0.028
		c0.015,0.011,0.033,0.007,0.049,0.016c1.867,1.132,3.978,1.711,6.095,1.711c3.012,0,6.025-1.146,8.318-3.439
		c1.128-1.128,1.975-2.431,2.548-3.822C22.869,16.478,22.872,16.473,22.873,16.468z M1.24,11.985c0-2.878,1.118-5.582,3.147-7.611
		s4.733-3.147,7.611-3.147c2.879,0,5.582,1.118,7.611,3.147c2.981,2.981,3.833,7.286,2.581,11.036l-3.097-2.925
		c-0.188-0.179-0.486-0.183-0.678-0.007l-2.666,2.407l-2.385-2.955c-0.098-0.121-0.256-0.19-0.401-0.186
		c-0.156,0.004-0.3,0.08-0.392,0.206l-6.548,8.987c-0.578-0.386-1.127-0.831-1.637-1.34C2.358,17.567,1.24,14.864,1.24,11.985z
		 M6.886,21.452l6.111-8.387l5.838,7.234C15.42,23.111,10.668,23.493,6.886,21.452z M19.611,19.597
		c-0.011,0.011-0.023,0.02-0.034,0.03l-3.199-3.963l2.364-2.134l3.055,2.883C21.279,17.567,20.557,18.651,19.611,19.597z"/>
	<path d="M9.2,10.919c-0.276,0-0.5,0.224-0.5,0.5v0.977c0,0.276,0.224,0.5,0.5,0.5s0.5-0.224,0.5-0.5v-0.977
		C9.7,11.142,9.476,10.919,9.2,10.919z"/>
</g>
</svg>
