<?xml version="1.0" encoding="utf-8"?>
<!-- Generator: Adobe Illustrator 19.2.0, SVG Export Plug-In . SVG Version: 6.00 Build 0)  -->
<svg version="1.1" id="Layer_1" xmlns="http://www.w3.org/2000/svg" xmlns:xlink="http://www.w3.org/1999/xlink" x="0px" y="0px"
	 width="24px" height="24px" viewBox="0 0 24 24" style="enable-background:new 0 0 24 24;" xml:space="preserve">
<g>
	<path d="M23.492,1.954c-0.093-0.26-0.382-0.393-0.64-0.301C11.486,5.742,1.022,7.04,0.917,7.052
		C0.644,7.086,0.448,7.335,0.481,7.609c0.031,0.254,0.247,0.44,0.496,0.44c0.02,0,0.04-0.001,0.061-0.003
		C1.143,8.033,11.713,6.723,23.19,2.594C23.45,2.501,23.585,2.215,23.492,1.954z"/>
	<path d="M10.167,4.236c0.863,0,1.564-0.702,1.564-1.564c0-0.863-0.702-1.564-1.564-1.564c-0.862,0-1.564,0.702-1.564,1.564
		C8.603,3.534,9.304,4.236,10.167,4.236z M10.167,2.108c0.311,0,0.564,0.253,0.564,0.564s-0.253,0.564-0.564,0.564
		S9.603,2.983,9.603,2.672S9.855,2.108,10.167,2.108z"/>
	<path d="M13.832,3.308c0.862,0,1.563-0.702,1.563-1.564c0-0.862-0.701-1.564-1.563-1.564c-0.863,0-1.564,0.702-1.564,1.564
		C12.268,2.607,12.969,3.308,13.832,3.308z M13.832,1.18c0.311,0,0.563,0.253,0.563,0.564s-0.253,0.564-0.563,0.564
		c-0.312,0-0.564-0.253-0.564-0.564S13.521,1.18,13.832,1.18z"/>
	<path d="M15.559,10.985h-2.56V7.46c0-0.276-0.224-0.5-0.5-0.5s-0.5,0.224-0.5,0.5v3.525H9.321c-2.209,0-4.006,1.797-4.006,4.007
		v4.987c0,2.209,1.797,4.006,4.006,4.006h6.238c2.209,0,4.006-1.797,4.006-4.006v-4.987C19.564,12.782,17.768,10.985,15.559,10.985z
		 M9.971,16.985v-5h5.028v5H9.971z M8.971,12.02v4.965H6.314v-1.993C6.314,13.453,7.48,12.196,8.971,12.02z M15.559,22.985H9.321
		c-1.658,0-3.006-1.349-3.006-3.006v-1.994h12.25v1.994C18.564,21.636,17.216,22.985,15.559,22.985z M18.564,16.985h-2.565V12.03
		c1.448,0.215,2.565,1.455,2.565,2.962V16.985z"/>
</g>
</svg>
