<?xml version="1.0" encoding="utf-8"?>
<!-- Generator: Adobe Illustrator 19.2.0, SVG Export Plug-In . SVG Version: 6.00 Build 0)  -->
<svg version="1.1" id="Layer_1" xmlns="http://www.w3.org/2000/svg" xmlns:xlink="http://www.w3.org/1999/xlink" x="0px" y="0px"
	 width="24px" height="24px" viewBox="0 0 24 24" style="enable-background:new 0 0 24 24;" xml:space="preserve">
<g>
	<path d="M11.991,0.227c-0.576,0-3.046,4.504-4.082,6.44c-2.397,4.483-3.613,7.644-3.613,9.395c0,4.247,3.452,7.702,7.695,7.702
		c4.244,0,7.696-3.455,7.696-7.702C19.688,12.797,13.118,0.227,11.991,0.227z M11.991,22.764c-3.692,0-6.695-3.007-6.695-6.702
		c0-3.208,5.192-12.105,6.695-14.456c1.503,2.35,6.696,11.246,6.696,14.456C18.688,19.758,15.684,22.764,11.991,22.764z"/>
	<path d="M10.694,19.905c-1.748-0.438-2.968-2.006-2.968-3.812c0-0.446,0.188-1.383,1.08-3.311c0.116-0.25,0.007-0.548-0.244-0.664
		c-0.251-0.116-0.548-0.007-0.664,0.244c-0.789,1.705-1.173,2.924-1.173,3.731c0,2.266,1.532,4.232,3.725,4.783
		c0.041,0.01,0.082,0.015,0.122,0.015c0.224,0,0.428-0.151,0.484-0.378C11.125,20.244,10.962,19.972,10.694,19.905z"/>
</g>
</svg>
