<?xml version="1.0" encoding="utf-8"?>
<!-- Generator: Adobe Illustrator 19.2.0, SVG Export Plug-In . SVG Version: 6.00 Build 0)  -->
<svg version="1.1" id="Layer_1" xmlns="http://www.w3.org/2000/svg" xmlns:xlink="http://www.w3.org/1999/xlink" x="0px" y="0px"
	 width="24px" height="24px" viewBox="0 0 24 24" style="enable-background:new 0 0 24 24;" xml:space="preserve">
<g>
	<path d="M14.792,6.403c-0.201-0.186-0.519-0.173-0.706,0.03c-0.187,0.204-0.174,0.52,0.03,0.707L16.24,9.09
		c0.096,0.088,0.217,0.132,0.338,0.132c0.135,0,0.27-0.054,0.368-0.162c0.187-0.204,0.174-0.52-0.03-0.707L14.792,6.403z"/>
	<path d="M22.484,12.757c-0.413-0.718-5.217-8.786-13.419-11.053c-0.136-0.038-0.281-0.016-0.4,0.059S8.465,1.959,8.44,2.097
		c-0.037,0.205-0.762,4.828,6.018,9.888H3.671c-1.917,0-3.477,1.57-3.477,3.5s1.56,3.5,3.477,3.5h16.662
		c1.918,0,3.478-1.57,3.478-3.5C23.811,14.377,23.286,13.398,22.484,12.757z M9.411,2.85c5.766,1.853,9.776,6.828,11.413,9.185
		c-0.162-0.023-0.322-0.05-0.49-0.05h-4.145C10.27,8.028,9.48,4.255,9.411,2.85z M20.333,17.985H3.671
		c-1.366,0-2.477-1.121-2.477-2.5s1.111-2.5,2.477-2.5h16.662c1.366,0,2.478,1.121,2.478,2.5S21.699,17.985,20.333,17.985z"/>
	<path d="M19.999,14.985h-1v-1c0-0.276-0.224-0.5-0.5-0.5s-0.5,0.224-0.5,0.5v1h-1c-0.276,0-0.5,0.224-0.5,0.5s0.224,0.5,0.5,0.5h1
		v1c0,0.276,0.224,0.5,0.5,0.5s0.5-0.224,0.5-0.5v-1h1c0.276,0,0.5-0.224,0.5-0.5S20.275,14.985,19.999,14.985z"/>
</g>
</svg>
