<?xml version="1.0" encoding="utf-8"?>
<!-- Generator: Adobe Illustrator 19.2.0, SVG Export Plug-In . SVG Version: 6.00 Build 0)  -->
<svg version="1.1" id="Layer_1" xmlns="http://www.w3.org/2000/svg" xmlns:xlink="http://www.w3.org/1999/xlink" x="0px" y="0px"
	 width="24px" height="24px" viewBox="0 0 24 24" style="enable-background:new 0 0 24 24;" xml:space="preserve">
<g>
	<path d="M12.499,3.024V0.67c0-0.276-0.224-0.5-0.5-0.5s-0.5,0.224-0.5,0.5v2.354C7.563,3.316,4.438,7.005,4.438,11.51
		c0,0.276,0.224,0.5,0.5,0.5h1.103v5.341c0,3.008,2.406,5.48,5.458,5.727v0.225c0,0.276,0.224,0.5,0.5,0.5s0.5-0.224,0.5-0.5v-0.225
		c3.052-0.246,5.458-2.719,5.458-5.727V12.01h1.104c0.276,0,0.5-0.224,0.5-0.5C19.561,7.005,16.436,3.316,12.499,3.024z
		 M16.957,17.35c0,2.62-2.225,4.751-4.958,4.751c-2.734,0-4.958-2.131-4.958-4.751V12.01h9.916V17.35z M17.457,11.01H6.541H5.452
		c0.226-3.911,3.076-7.014,6.547-7.014c3.472,0,6.322,3.103,6.547,7.014H17.457z"/>
	<path d="M8.499,16.892c0.276,0,0.5-0.224,0.5-0.5v-2.769c0-0.276-0.224-0.5-0.5-0.5s-0.5,0.224-0.5,0.5v2.769
		C7.999,16.669,8.223,16.892,8.499,16.892z"/>
	<path d="M7.14,9.15C7.05,9.24,7,9.37,7,9.5s0.05,0.26,0.14,0.35C7.24,9.95,7.37,10,7.5,10c0.13,0,0.26-0.05,0.36-0.15
		C7.95,9.76,8,9.63,8,9.5S7.95,9.24,7.85,9.15C7.66,8.96,7.33,8.96,7.14,9.15z"/>
	<path d="M10.15,9.15C10.05,9.24,10,9.37,10,9.5s0.05,0.26,0.15,0.35C10.24,9.95,10.37,10,10.5,10c0.13,0,0.26-0.05,0.35-0.15
		C10.95,9.76,11,9.63,11,9.5s-0.05-0.26-0.15-0.35C10.66,8.96,10.34,8.96,10.15,9.15z"/>
	<path d="M13.149,9.15C13.05,9.24,13,9.37,13,9.5s0.05,0.26,0.14,0.35C13.24,9.95,13.37,10,13.5,10s0.26-0.05,0.359-0.15
		C13.95,9.75,14,9.63,14,9.5s-0.05-0.25-0.15-0.35C13.67,8.96,13.33,8.96,13.149,9.15z"/>
	<path d="M10.15,5.15C10.05,5.24,10,5.37,10,5.5c0,0.14,0.05,0.27,0.15,0.36c0.09,0.09,0.22,0.15,0.35,0.15
		c0.13,0,0.26-0.06,0.35-0.15C10.95,5.77,11,5.64,11,5.5c0-0.13-0.05-0.26-0.15-0.35C10.66,4.96,10.34,4.96,10.15,5.15z"/>
	<path d="M13.149,5.15C13.05,5.24,13,5.37,13,5.51c0,0.13,0.05,0.25,0.149,0.35C13.24,5.95,13.37,6,13.5,6s0.26-0.05,0.359-0.15
		C13.95,5.76,14,5.63,14,5.51c0-0.14-0.05-0.26-0.15-0.36C13.67,4.96,13.33,4.97,13.149,5.15z"/>
	<path d="M16,9.5c0,0.14,0.06,0.27,0.14,0.35C16.24,9.95,16.37,10,16.5,10s0.26-0.05,0.35-0.14C16.95,9.76,17,9.63,17,9.5
		s-0.05-0.26-0.15-0.36c-0.189-0.18-0.51-0.18-0.7,0.01C16.05,9.24,16,9.37,16,9.5z"/>
	<path d="M15.12,7.15c-0.09,0.1-0.141,0.22-0.141,0.35s0.051,0.26,0.141,0.36C15.22,7.95,15.35,8,15.479,8s0.261-0.05,0.36-0.15
		c0.09-0.09,0.14-0.22,0.14-0.35s-0.05-0.25-0.149-0.35C15.64,6.96,15.31,6.96,15.12,7.15z"/>
	<path d="M11.65,7.15c-0.1,0.09-0.15,0.22-0.15,0.35s0.05,0.26,0.15,0.36C11.74,7.95,11.87,8,12,8c0.13,0,0.25-0.05,0.35-0.14
		c0.1-0.1,0.15-0.23,0.15-0.36s-0.05-0.26-0.15-0.36C12.16,6.96,11.84,6.96,11.65,7.15z"/>
	<path d="M9.13,7.15C9.03,7.24,8.98,7.37,8.98,7.5s0.05,0.26,0.14,0.35C9.22,7.95,9.35,8,9.48,8c0.13,0,0.26-0.05,0.35-0.15
		c0.1-0.09,0.15-0.22,0.15-0.35S9.93,7.24,9.83,7.15C9.64,6.96,9.31,6.96,9.13,7.15z"/>
</g>
</svg>
