<?xml version="1.0" encoding="utf-8"?>
<!-- Generator: Adobe Illustrator 19.2.0, SVG Export Plug-In . SVG Version: 6.00 Build 0)  -->
<svg version="1.1" id="Layer_1" xmlns="http://www.w3.org/2000/svg" xmlns:xlink="http://www.w3.org/1999/xlink" x="0px" y="0px"
	 width="24px" height="24px" viewBox="0 0 24 24" style="enable-background:new 0 0 24 24;" xml:space="preserve">
<g>
	<path d="M23.62,9.834L12.294,0.312c-0.187-0.156-0.458-0.156-0.644,0L0.325,9.834c-0.211,0.178-0.239,0.493-0.061,0.705
		c0.099,0.118,0.241,0.178,0.383,0.178c0.113,0,0.228-0.039,0.321-0.117l2.469-2.076l1.426,15.011
		c0.024,0.257,0.24,0.453,0.498,0.453h13.223c0.258,0,0.474-0.196,0.498-0.453l1.426-15.011l2.47,2.076
		c0.21,0.176,0.526,0.15,0.704-0.061S23.832,10.012,23.62,9.834z M18.129,22.988H5.815L4.367,7.742l7.605-6.394l7.604,6.393
		L18.129,22.988z"/>
	<path d="M7.676,11.157c0,2.369,1.927,4.297,4.296,4.297s4.296-1.928,4.296-4.297c0-2.369-1.927-4.296-4.296-4.296
		S7.676,8.788,7.676,11.157z M15.269,11.157c0,1.818-1.479,3.297-3.296,3.297c-1.818,0-3.296-1.479-3.296-3.297
		c0-1.817,1.479-3.296,3.296-3.296C13.79,7.861,15.269,9.34,15.269,11.157z"/>
	<path d="M11.973,16.932c-1.025,0-1.859,0.834-1.859,1.859s0.834,1.859,1.859,1.859s1.859-0.834,1.859-1.859
		S12.998,16.932,11.973,16.932z M11.973,19.651c-0.474,0-0.859-0.386-0.859-0.859s0.386-0.859,0.859-0.859s0.859,0.386,0.859,0.859
		S12.446,19.651,11.973,19.651z"/>
</g>
</svg>
