<?xml version="1.0" encoding="utf-8"?>
<!-- Generator: Adobe Illustrator 19.2.0, SVG Export Plug-In . SVG Version: 6.00 Build 0)  -->
<svg version="1.1" id="Layer_1" xmlns="http://www.w3.org/2000/svg" xmlns:xlink="http://www.w3.org/1999/xlink" x="0px" y="0px"
	 width="24px" height="24px" viewBox="0 0 24 24" style="enable-background:new 0 0 24 24;" xml:space="preserve">
<g>
	<path d="M20.427,17.045c-1.362,0-2.471,1.108-2.471,2.471c0,1.361,1.108,2.47,2.471,2.47c1.361,0,2.47-1.108,2.47-2.47
		C22.896,18.153,21.788,17.045,20.427,17.045z M20.427,20.985c-0.811,0-1.471-0.659-1.471-1.47s0.66-1.471,1.471-1.471
		s1.47,0.66,1.47,1.471S21.237,20.985,20.427,20.985z"/>
	<path d="M22.558,10.66c0.057-0.154,0.035-0.326-0.058-0.46c-0.094-0.134-0.247-0.215-0.411-0.215H4.239L3.725,8.336
		C3.66,8.127,3.466,7.985,3.248,7.985H1.002c-0.276,0-0.5,0.224-0.5,0.5s0.224,0.5,0.5,0.5H2.88l3.948,12.649
		c0.065,0.208,0.258,0.351,0.477,0.351h1.371c0.196,0,0.374-0.114,0.455-0.292l1.786-3.915c0.822,0.186,1.685,0.305,2.566,0.305
		c0.848,0,1.712-0.107,2.566-0.362C18.937,16.86,21.126,14.485,22.558,10.66z M8.354,20.985H7.673l-1.618-5.182
		c0.91,0.534,2.282,1.231,3.881,1.715L8.354,20.985z M15.768,16.761c-4.431,1.322-9.376-1.889-10.174-2.436l-1.043-3.34h16.801
		C20.045,14.102,18.168,16.045,15.768,16.761z"/>
</g>
</svg>
