<?xml version="1.0" encoding="utf-8"?>
<!-- Generator: Adobe Illustrator 19.2.0, SVG Export Plug-In . SVG Version: 6.00 Build 0)  -->
<svg version="1.1" id="Layer_1" xmlns="http://www.w3.org/2000/svg" xmlns:xlink="http://www.w3.org/1999/xlink" x="0px" y="0px"
	 width="24px" height="24px" viewBox="0 0 24 24" style="enable-background:new 0 0 24 24;" xml:space="preserve">
<g>
	<path d="M6.671,11.843c0.405,0.067,2.043,0.12,4.003,0.12c2.993,0,6.737-0.122,7.992-0.499c1.36-0.408,3.224-0.967,3.701-2.548
		c0.382-1.265-0.24-2.852-1.902-4.853c-4.269-5.136-9.879-3.593-11.784-3.07c-1.672,0.459-7.017,4.29-6.854,7.428
		C1.917,10.175,3.547,11.326,6.671,11.843z M9.007,1.941c1.869-0.514,6.833-1.877,10.688,2.761c1.411,1.699,1.988,3.019,1.715,3.925
		c-0.322,1.066-1.888,1.536-3.073,1.891c-1.863,0.559-10.665,0.476-11.503,0.338c-1.785-0.296-3.93-0.967-4.009-2.487
		C2.698,5.909,7.478,2.361,9.007,1.941z"/>
	<path d="M5.25,8.359c0.07,0.034,1.664,0.79,5.623,0.79c0.252,0,0.515-0.003,0.788-0.009c0.276-0.007,0.494-0.236,0.488-0.512
		c-0.007-0.276-0.227-0.515-0.512-0.488c-4.245,0.1-5.933-0.672-5.949-0.68C5.438,7.339,5.141,7.443,5.021,7.69
		C4.899,7.938,5.002,8.238,5.25,8.359z"/>
	<path d="M23.253,22.985h-1.586c-0.227-0.43-0.462-0.999-0.438-1.296c0.023-0.275-0.181-0.518-0.456-0.54
		c-0.268-0.011-0.518,0.181-0.54,0.456c-0.036,0.43,0.136,0.953,0.322,1.38h-1.166c0.458-0.633,0.859-1.576,0.554-2.777
		c-0.066-0.268-0.34-0.434-0.607-0.361c-0.268,0.067-0.43,0.34-0.361,0.607c0.342,1.349-0.609,2.261-0.941,2.531h-0.101
		c-0.167-0.385-0.202-1.737-0.069-3.067c0.077-0.489,0.099-1.005,0.037-1.542c-0.033-0.274-0.286-0.468-0.555-0.439
		c-0.274,0.032-0.471,0.28-0.439,0.555c0.086,0.735-0.033,1.429-0.23,2.056c-1.158-1.813-1.903-5.843-2.111-7.432
		c-0.036-0.275-0.308-0.47-0.561-0.431c-0.274,0.036-0.467,0.287-0.432,0.561c0.088,0.67,0.878,6.328,2.667,8.376
		c-0.335,0.653-0.694,1.134-0.883,1.363H9.033c0.991-2.902,1.698-9.407,1.73-9.708c0.029-0.274-0.169-0.521-0.444-0.55
		c-0.277-0.035-0.521,0.169-0.55,0.444c-0.008,0.076-0.795,7.318-1.801,9.814H7.302l-0.428-3.46
		c-0.031-0.255-0.229-0.415-0.508-0.438c-0.257,0.007-0.468,0.207-0.486,0.463c-0.12,1.636-0.56,3.266-0.916,3.436H3.802
		c0.283-0.457,0.511-1.049,0.375-1.676c-0.058-0.27-0.329-0.439-0.594-0.383c-0.27,0.058-0.441,0.324-0.383,0.594
		c0.114,0.524-0.357,1.15-0.658,1.465H0.656c-0.276,0-0.5,0.224-0.5,0.5s0.224,0.5,0.5,0.5h22.597c0.276,0,0.5-0.224,0.5-0.5
		S23.529,22.985,23.253,22.985z M16.839,22.619c0.019,0.134,0.045,0.252,0.072,0.367h-0.307
		C16.681,22.872,16.759,22.751,16.839,22.619z M6.265,22.741l0.03,0.244H6.15C6.189,22.904,6.23,22.828,6.265,22.741z"/>
</g>
</svg>
