<?xml version="1.0" encoding="utf-8"?>
<!-- Generator: Adobe Illustrator 19.2.0, SVG Export Plug-In . SVG Version: 6.00 Build 0)  -->
<svg version="1.1" id="Layer_1" xmlns="http://www.w3.org/2000/svg" xmlns:xlink="http://www.w3.org/1999/xlink" x="0px" y="0px"
	 width="24px" height="24px" viewBox="0 0 24 24" style="enable-background:new 0 0 24 24;" xml:space="preserve">
<g>
	<path d="M6.633,8.979C6.66,8.983,6.687,8.985,6.712,8.985c0.242,0,0.454-0.175,0.493-0.421c0.187-1.17,0.71-2.492,1.132-2.509
		c0.35-0.011,0.851,0.233,1.284,0.452c0.669,0.337,1.679,0.847,2.199-0.063c0.389-0.684,1.135-1.002,2.851-1.217
		c1.228-0.154,1.578-0.863,1.768-1.244c0.019-0.037,0.04-0.082,0.061-0.118c0.026,0.009,0.062,0.021,0.107,0.042
		c0.939,0.413,3.004,3.935,3.082,4.634c0.031,0.274,0.282,0.467,0.553,0.441c0.274-0.031,0.472-0.279,0.441-0.553
		c-0.103-0.905-2.281-4.826-3.674-5.438c-0.979-0.431-1.31,0.229-1.467,0.548c-0.161,0.326-0.302,0.608-0.996,0.695
		c-1.741,0.218-2.949,0.581-3.589,1.725c-0.136,0.03-0.605-0.204-0.884-0.346C9.531,5.341,8.916,5.03,8.298,5.055
		c-1.481,0.059-1.992,2.802-2.08,3.351C6.175,8.679,6.36,8.935,6.633,8.979z"/>
	<path d="M20.43,17.045c-1.362,0-2.471,1.108-2.471,2.471c0,1.361,1.108,2.47,2.471,2.47c1.361,0,2.47-1.108,2.47-2.47
		C22.899,18.153,21.791,17.045,20.43,17.045z M20.43,20.985c-0.811,0-1.471-0.659-1.471-1.47s0.66-1.471,1.471-1.471
		s1.47,0.66,1.47,1.471S21.24,20.985,20.43,20.985z"/>
	<path d="M22.561,10.66c0.057-0.154,0.035-0.326-0.058-0.46c-0.094-0.134-0.247-0.215-0.411-0.215H4.243L3.729,8.336
		C3.663,8.127,3.47,7.985,3.251,7.985H1.005c-0.276,0-0.5,0.224-0.5,0.5s0.224,0.5,0.5,0.5h1.878l3.948,12.649
		c0.065,0.208,0.258,0.351,0.477,0.351h1.371c0.196,0,0.374-0.114,0.455-0.292l1.786-3.915c0.822,0.186,1.685,0.305,2.566,0.305
		c0.848,0,1.712-0.107,2.566-0.362C18.939,16.86,21.129,14.485,22.561,10.66z M8.357,20.985H7.676l-1.617-5.182
		c0.91,0.534,2.282,1.231,3.881,1.714L8.357,20.985z M15.771,16.761c-4.43,1.322-9.374-1.888-10.173-2.436l-1.042-3.341h16.8
		C20.048,14.102,18.171,16.045,15.771,16.761z"/>
</g>
</svg>
