<?xml version="1.0" encoding="utf-8"?>
<!-- Generator: Adobe Illustrator 19.2.0, SVG Export Plug-In . SVG Version: 6.00 Build 0)  -->
<svg version="1.1" id="Layer_1" xmlns="http://www.w3.org/2000/svg" xmlns:xlink="http://www.w3.org/1999/xlink" x="0px" y="0px"
	 width="24px" height="24px" viewBox="0 0 24 24" style="enable-background:new 0 0 24 24;" xml:space="preserve">
<path d="M23.517,21.992H13.99v-3h4.894c0.194,0,0.372-0.113,0.454-0.29c0.081-0.177,0.054-0.385-0.072-0.533l-2.738-3.229h1.74
	c0.193,0,0.37-0.111,0.452-0.287c0.083-0.175,0.057-0.382-0.066-0.531l-3.408-4.135h1.781c0.189,0,0.362-0.107,0.447-0.277
	c0.085-0.169,0.066-0.372-0.048-0.523l-5.285-7.031c-0.095-0.126-0.243-0.2-0.4-0.2s-0.305,0.074-0.399,0.2L6.055,9.186
	C5.941,9.337,5.922,9.54,6.007,9.709c0.084,0.17,0.258,0.277,0.447,0.277h1.781l-3.409,4.135c-0.123,0.149-0.149,0.356-0.066,0.531
	c0.083,0.176,0.259,0.287,0.452,0.287h1.74l-2.739,3.229c-0.126,0.148-0.154,0.356-0.072,0.533c0.082,0.177,0.259,0.29,0.454,0.29
	H9.99v3H0.696c-0.276,0-0.5,0.224-0.5,0.5s0.224,0.5,0.5,0.5h9.794h3h10.026c0.276,0,0.5-0.224,0.5-0.5S23.793,21.992,23.517,21.992
	z M10.99,21.992v-3.5c0-0.276-0.224-0.5-0.5-0.5H5.674l2.739-3.229c0.126-0.148,0.154-0.356,0.072-0.533
	c-0.082-0.177-0.259-0.29-0.454-0.29H6.272l3.409-4.135c0.123-0.149,0.149-0.356,0.066-0.531C9.666,9.098,9.489,8.986,9.296,8.986
	h-1.84l4.285-5.699l4.284,5.699h-1.84c-0.193,0-0.37,0.112-0.452,0.287C13.65,9.448,13.677,9.655,13.8,9.804l3.408,4.135h-1.76
	c-0.194,0-0.372,0.113-0.454,0.29c-0.081,0.177-0.054,0.385,0.072,0.533l2.738,3.229H13.49c-0.276,0-0.5,0.224-0.5,0.5v3.5H10.99z"
	/>
</svg>
