<?xml version="1.0" encoding="utf-8"?>
<!-- Generator: Adobe Illustrator 19.2.0, SVG Export Plug-In . SVG Version: 6.00 Build 0)  -->
<svg version="1.1" id="Layer_1" xmlns="http://www.w3.org/2000/svg" xmlns:xlink="http://www.w3.org/1999/xlink" x="0px" y="0px"
	 width="24px" height="24px" viewBox="0 0 24 24" style="enable-background:new 0 0 24 24;" xml:space="preserve">
<path d="M18.573,11.656c-0.325-0.335-1.863-2.096-0.17-3.895c1.032-1.097,0.699-1.929,0.508-2.235
	c-0.511-0.819-1.882-1.135-3.19-0.729c-0.198,0.062-0.354,0.045-0.517-0.05c-0.447-0.266-0.873-1.168-1.11-2.354
	c-0.203-1.015-1.061-2.124-2.078-2.055c-1.056-0.066-1.908,1.04-2.111,2.055C9.667,3.578,9.242,4.48,8.793,4.746
	c-0.161,0.096-0.32,0.11-0.516,0.05C6.97,4.392,5.598,4.706,5.086,5.525C4.896,5.832,4.562,6.664,5.595,7.761
	c1.693,1.798,0.156,3.56-0.17,3.894c-0.653,0.672-0.684,1.316-0.595,1.738c0.155,0.737,0.744,1.216,1.201,1.4
	c0.096,0.039,0.205,0.077,0.318,0.117c0.293,0.103,0.737,0.257,0.806,0.449c0.044,0.121-0.027,0.349-0.194,0.625
	c-0.439,0.725-0.349,1.258-0.196,1.576c0.352,0.732,1.304,1.001,2.042,1.099c0.468,0.061,1.781,0.831,2.692,1.434v3.168
	c0,0.276,0.224,0.5,0.5,0.5s0.5-0.224,0.5-0.5v-3.167c1.047-0.689,2.303-1.399,2.673-1.433c0.372-0.034,1.618-0.213,2.049-1.067
	c0.164-0.325,0.266-0.868-0.184-1.609c-0.167-0.276-0.238-0.504-0.194-0.625c0.069-0.192,0.513-0.347,0.807-0.449
	c0.113-0.04,0.222-0.078,0.317-0.117c0.458-0.185,1.047-0.663,1.201-1.4C19.257,12.971,19.226,12.327,18.573,11.656z M18.189,13.188
	c-0.065,0.314-0.351,0.58-0.598,0.68c-0.082,0.033-0.175,0.064-0.271,0.099c-0.502,0.175-1.188,0.414-1.419,1.055
	c-0.154,0.431-0.062,0.915,0.28,1.481c0.117,0.193,0.237,0.461,0.146,0.643c-0.141,0.279-0.733,0.473-1.247,0.521
	c-0.59,0.054-1.77,0.733-2.581,1.241v-1.705l2.074-1.845c0.207-0.184,0.225-0.5,0.042-0.706c-0.186-0.208-0.501-0.225-0.706-0.042
	l-1.41,1.254v-2.207l2.281-2.03c0.207-0.184,0.226-0.5,0.042-0.706c-0.186-0.207-0.501-0.226-0.706-0.042l-1.617,1.438v-2.207
	l2.457-2.185c0.207-0.184,0.226-0.5,0.042-0.706c-0.186-0.208-0.502-0.226-0.706-0.042l-1.793,1.595V8.076
	c0-0.276-0.224-0.5-0.5-0.5s-0.5,0.224-0.5,0.5v0.696L9.708,7.178C9.501,6.994,9.184,7.013,9.001,7.219
	C8.818,7.426,8.836,7.742,9.042,7.926l2.457,2.185v2.206L9.882,10.88c-0.208-0.184-0.523-0.166-0.706,0.042
	c-0.184,0.206-0.165,0.522,0.041,0.706l2.282,2.03v2.206l-1.409-1.254c-0.208-0.183-0.523-0.166-0.706,0.042
	c-0.184,0.206-0.165,0.522,0.041,0.706l2.074,1.845v1.701c-0.788-0.496-1.93-1.153-2.562-1.236c-0.656-0.086-1.154-0.298-1.27-0.539
	c-0.084-0.175,0.035-0.437,0.15-0.626c0.343-0.566,0.435-1.051,0.28-1.48c-0.231-0.642-0.917-0.881-1.418-1.056
	c-0.097-0.034-0.189-0.065-0.271-0.099c-0.248-0.101-0.533-0.366-0.599-0.68c-0.057-0.269,0.056-0.55,0.333-0.835
	c1.302-1.339,1.863-3.491,0.181-5.277c-0.23-0.245-0.587-0.702-0.388-1.021C6.093,5.802,6.559,5.622,7.13,5.622
	c0.268,0,0.559,0.04,0.853,0.13c0.465,0.144,0.921,0.094,1.323-0.146c0.964-0.574,1.404-2.137,1.58-3.017
	c0.115-0.573,0.62-1.252,1.114-1.252c0.005,0,0.011,0,0.017,0c0.45-0.04,0.981,0.672,1.098,1.252
	c0.177,0.881,0.616,2.444,1.58,3.017c0.4,0.239,0.859,0.289,1.322,0.146c0.916-0.283,1.815-0.068,2.047,0.303
	c0.199,0.319-0.157,0.776-0.388,1.021c-1.682,1.787-1.121,3.938,0.182,5.277C18.134,12.638,18.246,12.919,18.189,13.188z"/>
</svg>
