<?xml version="1.0" encoding="utf-8"?>
<!-- Generator: Adobe Illustrator 19.2.0, SVG Export Plug-In . SVG Version: 6.00 Build 0)  -->
<svg version="1.1" id="Layer_1" xmlns="http://www.w3.org/2000/svg" xmlns:xlink="http://www.w3.org/1999/xlink" x="0px" y="0px"
	 width="24px" height="24px" viewBox="0 0 24 24" style="enable-background:new 0 0 24 24;" xml:space="preserve">
<g>
	<path d="M12.199,2.667c0-1.624-0.881-2.363-1.701-2.363S8.797,1.044,8.797,2.667c0,0.957,0.372,2.675,1.201,3.191v12.255
		c-0.829,0.516-1.201,2.234-1.201,3.191c0,1.623,0.881,2.362,1.701,2.362s1.701-0.739,1.701-2.362c0-0.957-0.372-2.675-1.201-3.191
		V5.858C11.827,5.342,12.199,3.624,12.199,2.667z M9.797,2.667c0-0.79,0.295-1.363,0.701-1.363s0.701,0.573,0.701,1.363
		c0,0.472-0.087,0.942-0.201,1.34V3.163c0-0.276-0.224-0.5-0.5-0.5s-0.5,0.224-0.5,0.5v0.829C9.883,3.597,9.797,3.133,9.797,2.667z
		 M11.199,21.303c0,0.789-0.295,1.362-0.701,1.362s-0.701-0.573-0.701-1.362c0-0.472,0.087-0.942,0.201-1.34v0.845
		c0,0.276,0.224,0.5,0.5,0.5s0.5-0.224,0.5-0.5v-0.83C11.113,20.374,11.199,20.837,11.199,21.303z"/>
	<path d="M5.998,18.113V5.857c0.828-0.516,1.2-2.234,1.2-3.19c0-1.624-0.881-2.363-1.7-2.363c-0.819,0-1.701,0.739-1.701,2.363
		c0,0.957,0.372,2.676,1.201,3.191v12.255c-0.829,0.516-1.201,2.234-1.201,3.191c0,1.623,0.881,2.362,1.701,2.362
		s1.701-0.739,1.701-2.362C7.199,20.347,6.827,18.629,5.998,18.113z M4.797,2.667c0-0.79,0.295-1.363,0.701-1.363
		s0.7,0.573,0.7,1.363c0,0.472-0.087,0.941-0.2,1.339V3.163c0-0.276-0.224-0.5-0.5-0.5s-0.5,0.224-0.5,0.5v0.83
		C4.883,3.597,4.797,3.134,4.797,2.667z M5.498,22.666c-0.406,0-0.701-0.573-0.701-1.362c0-0.472,0.087-0.942,0.201-1.34v0.845
		c0,0.276,0.224,0.5,0.5,0.5s0.5-0.224,0.5-0.5v-0.83c0.115,0.395,0.201,0.859,0.201,1.325C6.199,22.093,5.904,22.666,5.498,22.666z
		"/>
	<path d="M17.399,1.98c-0.012-0.015-0.029-0.023-0.043-0.036c-0.014-0.014-0.022-0.033-0.038-0.045
		c-0.012-0.009-0.026-0.011-0.038-0.019c-0.03-0.02-0.061-0.034-0.093-0.047c-0.027-0.011-0.054-0.02-0.082-0.026
		c-0.034-0.007-0.067-0.008-0.102-0.008c-0.03,0-0.058,0.001-0.088,0.007c-0.032,0.006-0.062,0.017-0.092,0.029
		c-0.03,0.012-0.059,0.025-0.086,0.044c-0.013,0.008-0.027,0.01-0.04,0.02c-0.016,0.013-0.024,0.031-0.039,0.046
		c-0.013,0.013-0.03,0.021-0.042,0.036c-0.073,0.092-7.259,9.382-0.021,19.984c0.007,0.011,0.019,0.014,0.027,0.024
		c0.03,0.039,0.061,0.077,0.104,0.107c0.008,0.005,0.018,0.003,0.026,0.008c0.079,0.048,0.165,0.079,0.256,0.079
		s0.177-0.031,0.256-0.079c0.008-0.005,0.018-0.003,0.026-0.008c0.043-0.029,0.073-0.068,0.104-0.107
		c0.008-0.01,0.02-0.013,0.027-0.024C24.657,11.362,17.473,2.073,17.399,1.98z M17.007,3.151c1.34,2.012,5.293,9.213,0,17.608
		C11.715,12.364,15.667,5.163,17.007,3.151z"/>
	<path d="M17.008,14.546c1.093,0,1.982-0.89,1.982-1.983v-0.562c0-1.093-0.89-1.983-1.982-1.983c-1.094,0-1.983,0.89-1.983,1.983
		v0.562C15.024,13.656,15.914,14.546,17.008,14.546z M16.024,12.001c0-0.542,0.441-0.983,0.983-0.983s0.982,0.441,0.982,0.983v0.562
		c0,0.542-0.44,0.983-0.982,0.983s-0.983-0.441-0.983-0.983V12.001z"/>
	<path d="M15.788,9.626c0.574-0.788,1.867-0.788,2.438,0c0.099,0.135,0.251,0.207,0.405,0.207c0.103,0,0.205-0.031,0.294-0.095
		c0.223-0.162,0.272-0.475,0.111-0.698c-0.472-0.65-1.229-1.038-2.028-1.038c-0.798,0-1.557,0.388-2.028,1.037
		c-0.162,0.223-0.113,0.536,0.11,0.698C15.312,9.897,15.625,9.85,15.788,9.626z"/>
</g>
</svg>
