<?xml version="1.0" encoding="utf-8"?>
<!-- Generator: Adobe Illustrator 19.2.0, SVG Export Plug-In . SVG Version: 6.00 Build 0)  -->
<svg version="1.1" id="Layer_1" xmlns="http://www.w3.org/2000/svg" xmlns:xlink="http://www.w3.org/1999/xlink" x="0px" y="0px"
	 width="24px" height="24px" viewBox="0 0 24 24" style="enable-background:new 0 0 24 24;" xml:space="preserve">
<path d="M20.652,6.26c-2.411-2.873-5.882-4.455-9.773-4.455c-5.92,0-10.736,4.816-10.736,10.736c0,4.792,3.898,8.689,8.689,8.689
	c3.888,0,7.051-3.163,7.051-7.051c0-3.166-2.575-5.741-5.741-5.741c-2.587,0-4.692,2.105-4.692,4.693
	c0,2.125,1.729,3.854,3.854,3.854c1.536,0,2.852-1.094,3.13-2.602c0.217-1.175-0.333-2.316-1.4-2.907
	c-0.767-0.425-1.612-0.431-2.318-0.015c-0.674,0.397-1.093,1.129-1.093,1.912c0,0.276,0.224,0.5,0.5,0.5s0.5-0.224,0.5-0.5
	c0-0.43,0.23-0.832,0.601-1.05c0.394-0.23,0.876-0.221,1.326,0.029c0.685,0.379,1.039,1.105,0.901,1.851
	c-0.191,1.033-1.094,1.783-2.147,1.783c-1.574,0-2.854-1.28-2.854-2.854c0-2.036,1.656-3.693,3.692-3.693
	c2.614,0,4.741,2.127,4.741,4.741c0,3.336-2.714,6.051-6.051,6.051c-4.24,0-7.689-3.449-7.689-7.689
	c0-5.368,4.368-9.736,9.736-9.736c3.591,0,6.79,1.455,9.008,4.097c2.486,2.964,3.494,7.042,2.764,11.192
	c-0.114,0.657-0.626,1.178-1.274,1.295c-1.366,0.248-3.628,0.462-6.637,0.078c-0.271-0.039-0.524,0.158-0.56,0.433
	s0.159,0.524,0.433,0.56c3.137,0.397,5.506,0.173,6.941-0.086c1.061-0.192,1.896-1.04,2.081-2.107
	C24.417,13.827,23.33,9.45,20.652,6.26z"/>
</svg>
