<?xml version="1.0" encoding="utf-8"?>
<!-- Generator: Adobe Illustrator 19.2.0, SVG Export Plug-In . SVG Version: 6.00 Build 0)  -->
<svg version="1.1" id="Layer_1" xmlns="http://www.w3.org/2000/svg" xmlns:xlink="http://www.w3.org/1999/xlink" x="0px" y="0px"
	 width="24px" height="24px" viewBox="0 0 24 24" style="enable-background:new 0 0 24 24;" xml:space="preserve">
<g>
	<path d="M20.643,19.074l-2.541-1.163l2.542-1.165c0.251-0.114,0.361-0.411,0.247-0.662l-1.699-3.711
		c-0.056-0.121-0.156-0.214-0.281-0.261c-0.123-0.046-0.262-0.041-0.382,0.014l-6.53,2.99L5.47,12.127
		c-0.251-0.114-0.548-0.003-0.663,0.247l-1.699,3.711c-0.055,0.12-0.06,0.258-0.014,0.382c0.046,0.125,0.14,0.226,0.261,0.281
		l2.552,1.168l-2.55,1.158c-0.121,0.055-0.215,0.155-0.262,0.28c-0.046,0.124-0.042,0.262,0.014,0.383l0.685,1.495c0,0,0,0,0,0
		s0,0,0,0l1.015,2.216c0.055,0.121,0.156,0.215,0.28,0.261c0.056,0.021,0.115,0.031,0.174,0.031c0.071,0,0.142-0.016,0.208-0.045
		l6.528-2.989l6.529,2.989c0.067,0.03,0.138,0.045,0.208,0.045c0.189,0,0.37-0.108,0.455-0.292l1.015-2.216c0,0,0,0,0,0s0,0,0,0
		l0.685-1.495c0.055-0.12,0.06-0.258,0.014-0.382C20.857,19.23,20.764,19.13,20.643,19.074z M18.49,13.243l0.598,1.306l-2.737,1.245
		c-0.251,0.114-0.362,0.411-0.248,0.662c0.084,0.185,0.266,0.293,0.455,0.293c0.069,0,0.14-0.015,0.207-0.045l2.739-1.246
		l0.268,0.587l-2.871,1.316L13.2,15.666L18.49,13.243z M5.509,22.577L4.91,21.27l1.401-0.642c0.251-0.114,0.361-0.411,0.246-0.662
		c-0.114-0.251-0.409-0.362-0.663-0.246l-1.4,0.642l-0.268-0.584l2.884-1.31l3.686,1.688L5.509,22.577z M18.489,22.577l-14.264-6.53
		l0.269-0.588l2.739,1.246c0.067,0.03,0.138,0.045,0.207,0.045c0.19,0,0.372-0.108,0.456-0.293c0.114-0.251,0.003-0.548-0.248-0.662
		L4.91,14.55l0.598-1.305l14.263,6.531l-0.268,0.586l-1.4-0.642c-0.249-0.115-0.547-0.006-0.662,0.246
		c-0.115,0.251-0.005,0.548,0.246,0.662l1.4,0.642L18.489,22.577z"/>
	<path d="M6.596,8.695c-0.083,0.799-0.168,1.625-0.104,2.419c0.021,0.261,0.24,0.459,0.498,0.459c0.014,0,0.027,0,0.042-0.001
		c0.275-0.023,0.48-0.264,0.458-0.54c-0.058-0.701,0.02-1.446,0.101-2.234c0.072-0.694,0.146-1.402,0.121-2.093
		c0.62,0.888,1.36,2.045,1.515,2.596C9.264,9.437,9.37,9.546,9.497,9.609C9.624,9.672,9.784,9.674,9.914,9.62
		c0.095-0.038,0.176-0.104,0.232-0.189c0.417-0.632,0.54-1.668,0.682-2.868c0.203-1.715,0.45-3.8,1.66-4.965
		c0.043,2.889,0.35,4.788,0.956,5.94c0.096,0.183,0.294,0.283,0.498,0.265c0.204-0.023,0.374-0.169,0.428-0.368
		c0.193-0.725,0.649-1.828,1.35-2.502c-0.45,1.24-0.044,2.453,0.323,3.553c0.286,0.854,0.556,1.662,0.452,2.443
		c-0.036,0.274,0.157,0.525,0.431,0.561c0.27,0.036,0.525-0.156,0.562-0.43c0.133-1.011-0.187-1.967-0.495-2.891
		c-0.457-1.365-0.851-2.543,0.181-3.747c0.177-0.203,0.206-0.496,0.072-0.73s-0.401-0.361-0.655-0.312
		c-1.352,0.226-2.207,1.466-2.688,2.475c-0.418-1.741-0.418-4.091-0.418-4.99c0-0.227-0.123-0.438-0.32-0.551
		c-0.199-0.113-0.444-0.11-0.641,0.006c-2.111,1.268-2.43,3.961-2.686,6.125C9.775,6.95,9.717,7.44,9.64,7.86
		C8.91,6.579,7.729,4.969,7.466,4.772c-0.23-0.167-0.534-0.163-0.759,0.007c-0.224,0.17-0.31,0.461-0.212,0.722
		C6.831,6.425,6.717,7.528,6.596,8.695z"/>
</g>
</svg>
