<?xml version="1.0" encoding="utf-8"?>
<!-- Generator: Adobe Illustrator 19.2.0, SVG Export Plug-In . SVG Version: 6.00 Build 0)  -->
<svg version="1.1" id="Layer_1" xmlns="http://www.w3.org/2000/svg" xmlns:xlink="http://www.w3.org/1999/xlink" x="0px" y="0px"
	 width="24px" height="24px" viewBox="0 0 24 24" style="enable-background:new 0 0 24 24;" xml:space="preserve">
<g>
	<path d="M10.504,4.669c1.191,0,2.161-0.97,2.161-2.161s-0.97-2.161-2.161-2.161s-2.161,0.97-2.161,2.161S9.312,4.669,10.504,4.669z
		 M10.504,1.347c0.64,0,1.161,0.521,1.161,1.161s-0.521,1.161-1.161,1.161S9.343,3.148,9.343,2.508S9.864,1.347,10.504,1.347z"/>
	<path d="M9.211,15.052c-0.263-0.081-0.545,0.062-0.629,0.324l-2.437,7.596c-0.084,0.263,0.061,0.544,0.323,0.629
		c0.051,0.016,0.103,0.023,0.153,0.023c0.211,0,0.408-0.135,0.476-0.348l2.437-7.596C9.619,15.418,9.474,15.136,9.211,15.052z"/>
	<path d="M6.475,13.292c0.266,0,0.487-0.209,0.499-0.478l0.29-6.458c0.012-0.276-0.224-0.511-0.5-0.523
		C5.759,5.793,4.807,6.135,4.068,6.81C3.33,7.485,2.898,8.407,2.854,9.407l-0.11,2.453c-0.031,0.696,0.511,1.288,1.207,1.319
		l2.502,0.112C6.459,13.292,6.467,13.292,6.475,13.292z M5.997,12.27l-2.002-0.09c-0.146-0.006-0.259-0.13-0.252-0.276l0.11-2.452
		c0.033-0.733,0.349-1.409,0.89-1.904C5.162,7.165,5.678,6.926,6.24,6.853L5.997,12.27z"/>
	<path d="M15.808,11.099l0.248-0.06c0.269-0.064,0.434-0.334,0.369-0.603c-0.065-0.268-0.325-0.434-0.604-0.37l-0.18,0.043
		l-0.108-0.642c-0.046-0.273-0.31-0.449-0.576-0.41c-0.272,0.046-0.456,0.304-0.41,0.576l0.119,0.711L12.81,10.79l-0.383-2.718
		c0.025-0.589-0.195-1.171-0.605-1.595c-0.416-0.431-0.964-0.647-1.576-0.659C9.097,5.829,8.157,6.779,8.104,7.98l-0.153,3.557
		c-0.024,0.561,0.186,1.115,0.578,1.522l3.592,3.672c0.053,0.055,0.082,0.13,0.078,0.209l-0.172,4.728
		c-0.01,0.276,0.206,0.508,0.481,0.519c0.006,0,0.012,0,0.019,0c0.268,0,0.489-0.212,0.499-0.481l0.172-4.725
		c0.016-0.35-0.115-0.693-0.36-0.946l-3.591-3.671c-0.201-0.208-0.309-0.493-0.296-0.782l0.153-3.557
		c0.029-0.659,0.545-1.2,1.151-1.205c0.359,0.018,0.625,0.124,0.848,0.354c0.224,0.231,0.339,0.536,0.33,0.948l0.465,3.354
		c0.019,0.14,0.097,0.265,0.213,0.344c0.116,0.079,0.261,0.105,0.398,0.073l2.325-0.559l1.512,8.999
		c0.041,0.244,0.253,0.417,0.492,0.417c0.028,0,0.056-0.002,0.084-0.007c0.272-0.046,0.456-0.304,0.41-0.576L15.808,11.099z"/>
</g>
</svg>
