<?xml version="1.0" encoding="utf-8"?>
<!-- Generator: Adobe Illustrator 19.2.0, SVG Export Plug-In . SVG Version: 6.00 Build 0)  -->
<svg version="1.1" id="Layer_1" xmlns="http://www.w3.org/2000/svg" xmlns:xlink="http://www.w3.org/1999/xlink" x="0px" y="0px"
	 width="24px" height="24px" viewBox="0 0 24 24" style="enable-background:new 0 0 24 24;" xml:space="preserve">
<g>
	<path d="M11.666,19.853c0.176-0.14,0.259-0.444,0.173-0.651c-0.101-0.244-0.374-0.389-0.638-0.357
		c-1.016,0.116-1.694,0.735-2.105,1.286c-0.17-0.588-0.255-1.397-0.255-2.42c0-0.166-0.113-0.372-0.251-0.466
		c-0.174-0.117-0.402-0.141-0.601-0.059c-1.374,0.565-1.902,1.939-2.071,2.525c-0.049,0.205-0.088,0.461-0.128,0.733
		c-0.034,0.232-0.077,0.521-0.136,0.782C5.01,20.469,4.018,19.53,3.621,19.49c-0.187-0.021-0.391,0.075-0.494,0.229
		c-0.123,0.185-0.119,0.402,0.012,0.646c0.222,0.418,0.143,0.936,0.05,1.534c-0.07,0.455-0.142,0.924-0.084,1.404
		c0.031,0.254,0.247,0.44,0.496,0.44c0.02,0,0.04-0.001,0.06-0.004c0.274-0.032,0.47-0.281,0.437-0.556
		c-0.042-0.344,0.018-0.728,0.08-1.133c0.042-0.27,0.085-0.554,0.099-0.843c0.453,0.447,0.919,0.967,1.011,1.19
		c0.1,0.243,0.388,0.364,0.638,0.28c0.077-0.025,0.146-0.069,0.202-0.128c0.426-0.443,0.545-1.249,0.651-1.959
		c0.036-0.24,0.068-0.466,0.106-0.625c0.098-0.34,0.369-1.069,0.97-1.552c0.061,1.467,0.32,2.459,0.804,3.09
		c0.11,0.144,0.287,0.215,0.467,0.191c0.179-0.025,0.33-0.145,0.396-0.313c0.014-0.036,0.241-0.602,0.726-1.04
		c-0.07,0.594,0.211,1.146,0.426,1.572c0.215,0.423,0.418,0.823,0.347,1.191c-0.053,0.271,0.125,0.533,0.396,0.586
		c0.277,0.05,0.534-0.125,0.585-0.396c0.136-0.704-0.168-1.305-0.437-1.834C11.154,20.655,11.043,20.35,11.666,19.853z"/>
	<path d="M7.889,7.355c0.015,0.001,0.029,0.002,0.043,0.002c0.253,0,0.466-0.192,0.493-0.45c0.028-0.271-0.172-0.516-0.443-0.548
		c-0.003,0-0.277-0.035-0.364-0.229C7.563,6.007,7.453,5.51,8.341,4.24c0.929-1.328,1.248-2.344,0.974-3.106
		C9.089,0.503,8.547,0.336,8.486,0.319C8.23,0.25,7.971,0.397,7.888,0.651C7.806,0.906,7.951,1.185,8.202,1.278
		C8.223,1.285,8.331,1.332,8.38,1.49c0.062,0.197,0.102,0.805-0.858,2.177c-0.871,1.245-1.135,2.19-0.808,2.89
		C6.981,7.13,7.578,7.328,7.889,7.355z"/>
	<path d="M10.542,6.825c0.015,0.001,0.029,0.002,0.043,0.002c0.256,0,0.463-0.198,0.485-0.458c0.024-0.275-0.193-0.519-0.468-0.542
		c-0.001-0.002-0.057-0.225,0.392-0.867c0.572-0.817,0.762-1.46,0.581-1.966c-0.126-0.351-0.412-0.542-0.618-0.599
		c-0.266-0.075-0.57,0.068-0.644,0.333c-0.074,0.266,0.053,0.527,0.319,0.602c0.001,0.002,0.092,0.271-0.458,1.057
		C9.631,5.164,9.475,5.773,9.696,6.248C9.877,6.636,10.266,6.802,10.542,6.825z"/>
	<path d="M4.766,6.825c0.015,0.001,0.029,0.002,0.043,0.002c0.256,0,0.463-0.198,0.485-0.458C5.318,6.094,5.102,5.85,4.827,5.826
		C4.826,5.824,4.77,5.601,5.219,4.96C5.791,4.142,5.981,3.499,5.8,2.994C5.674,2.643,5.388,2.452,5.182,2.395
		C4.917,2.32,4.612,2.463,4.538,2.728C4.464,2.994,4.591,3.256,4.857,3.33C4.859,3.332,4.95,3.6,4.399,4.386
		C3.855,5.164,3.698,5.773,3.92,6.248C4.101,6.636,4.489,6.802,4.766,6.825z"/>
	<path d="M23.771,4.544c-0.111-0.094-0.255-0.137-0.404-0.113l-8.449,1.363c-0.223-0.467-0.77-0.99-2.008-1.43
		c-0.259-0.093-0.546,0.043-0.639,0.304c-0.092,0.26,0.043,0.546,0.304,0.639c1.023,0.364,1.481,0.791,1.481,1.053
		c0,0.151-0.126,0.32-0.353,0.49c-0.004,0.003-0.008,0.006-0.012,0.009c-0.825,0.611-3.011,1.248-5.982,1.248
		c-2.886,0-5.035-0.601-5.912-1.195c-0.034-0.033-0.07-0.061-0.112-0.083C1.476,6.665,1.36,6.505,1.36,6.36
		c0-0.271,0.482-0.71,1.561-1.08c0.261-0.09,0.4-0.374,0.311-0.635c-0.09-0.261-0.375-0.399-0.635-0.311
		C0.748,4.967,0.36,5.785,0.36,6.36c0,0.451,0.231,0.847,0.634,1.189l1.021,5.909c0,1.515,2.951,2.205,5.693,2.205
		s5.693-0.69,5.686-2.119l0.792-4.539L23.58,6.39c0.217-0.061,0.366-0.257,0.366-0.482V4.925
		C23.946,4.779,23.882,4.639,23.771,4.544z M12.401,13.458c0,0.35-1.645,1.205-4.693,1.205s-4.693-0.855-4.701-1.29L2.12,8.204
		C3.538,8.8,5.629,9.107,7.708,9.107c2.088,0,4.188-0.31,5.605-0.912L13.255,8.53c-0.001,0.007-0.003,0.014-0.004,0.021
		L12.401,13.458z M14.376,7.912l0.067-0.384c0.253-0.22,0.429-0.464,0.525-0.729l7.978-1.288L14.376,7.912z"/>
</g>
</svg>
