<?xml version="1.0" encoding="utf-8"?>
<!-- Generator: Adobe Illustrator 19.2.0, SVG Export Plug-In . SVG Version: 6.00 Build 0)  -->
<svg version="1.1" id="Layer_1" xmlns="http://www.w3.org/2000/svg" xmlns:xlink="http://www.w3.org/1999/xlink" x="0px" y="0px"
	 width="24px" height="24px" viewBox="0 0 24 24" style="enable-background:new 0 0 24 24;" xml:space="preserve">
<path d="M22.151,9.983h-7.152V9.485v-1.5c0-0.276-0.224-0.5-0.5-0.5s-0.5,0.224-0.5,0.5v1H0.674c-0.276,0-0.5,0.224-0.5,0.5v0.646
	c0,2.676,2.177,4.854,4.854,4.854h8.972v1c0,0.276,0.224,0.5,0.5,0.5s0.5-0.224,0.5-0.5v-1.5v-0.527h7.152
	c0.96,0,1.741-0.782,1.741-1.742v-0.492C23.893,10.764,23.111,9.983,22.151,9.983z M19.01,10.983h1v1.975h-1V10.983z M18.01,12.958
	h-1v-1.975h1V12.958z M5.027,13.985c-2.125,0-3.854-1.729-3.854-3.854V9.985h12.825v0.498v1.502h-6c-0.276,0-0.5,0.224-0.5,0.5
	s0.224,0.5,0.5,0.5h6v0.473v0.527H5.027z M14.999,10.983h1.011v1.975h-1.011V10.983z M22.893,12.216
	c0,0.409-0.332,0.742-0.741,0.742H21.01v-1.975h1.142c0.409,0,0.741,0.333,0.741,0.741V12.216z"/>
</svg>
