<?xml version="1.0" encoding="utf-8"?>
<!-- Generator: Adobe Illustrator 19.2.0, SVG Export Plug-In . SVG Version: 6.00 Build 0)  -->
<svg version="1.1" id="Layer_1" xmlns="http://www.w3.org/2000/svg" xmlns:xlink="http://www.w3.org/1999/xlink" x="0px" y="0px"
	 width="24px" height="24px" viewBox="0 0 24 24" style="enable-background:new 0 0 24 24;" xml:space="preserve">
<path d="M23.626,16.125L14.627,2.762c-0.1-0.146-0.261-0.228-0.444-0.22c-0.176,0.01-0.334,0.113-0.415,0.27l-4.826,9.351
	L6.147,8.87C6.045,8.749,5.879,8.682,5.734,8.695c-0.158,0.01-0.302,0.094-0.388,0.227L0.414,16.52
	c-0.15,0.231-0.084,0.541,0.147,0.691c0.084,0.055,0.179,0.081,0.272,0.081c0.164,0,0.324-0.08,0.42-0.228L5.82,10.03l2.839,3.346
	c0,0,0.001,0.001,0.001,0.001l1.412,1.664c0.178,0.212,0.494,0.237,0.705,0.058c0.21-0.179,0.236-0.494,0.058-0.704l-1.193-1.406
	l2.473-4.792l0.72,0.916c0.096,0.122,0.237,0.202,0.398,0.191c0.155-0.001,0.301-0.075,0.394-0.199l0.773-1.023l1.154,1.395
	c0.091,0.11,0.225,0.176,0.368,0.181c0.006,0,0.011,0,0.017,0c0.137,0,0.269-0.056,0.363-0.156l0.968-1.023l5.526,8.206
	c0.097,0.144,0.255,0.221,0.415,0.221c0.097,0,0.193-0.027,0.279-0.085C23.72,16.665,23.78,16.354,23.626,16.125z M15.964,8.403
	l-1.197-1.446c-0.098-0.118-0.282-0.19-0.396-0.181c-0.153,0.003-0.296,0.077-0.388,0.199L13.22,7.984l-0.601-0.765l1.65-3.197
	l2.429,3.606L15.964,8.403z"/>
</svg>
