<?xml version="1.0" encoding="utf-8"?>
<!-- Generator: Adobe Illustrator 19.2.0, SVG Export Plug-In . SVG Version: 6.00 Build 0)  -->
<svg version="1.1" id="Layer_1" xmlns="http://www.w3.org/2000/svg" xmlns:xlink="http://www.w3.org/1999/xlink" x="0px" y="0px"
	 width="24px" height="24px" viewBox="0 0 24 24" style="enable-background:new 0 0 24 24;" xml:space="preserve">
<g>
	<path d="M18.556,14.067c1.205-0.369,2.208-0.838,2.899-1.398c0.215-0.174,0.248-0.489,0.074-0.703
		c-0.174-0.215-0.488-0.248-0.703-0.074c-1.537,1.244-5.002,2.048-8.827,2.048c-3.826,0-7.29-0.804-8.827-2.048
		c-0.214-0.173-0.529-0.14-0.703,0.074s-0.141,0.529,0.074,0.703c0.691,0.56,1.694,1.029,2.9,1.398
		c0.008,0.008,0.012,0.018,0.021,0.025l5.721,4.459l-5.721,4.459c-0.218,0.17-0.256,0.484-0.087,0.702
		c0.099,0.126,0.246,0.192,0.395,0.192c0.107,0,0.216-0.034,0.307-0.105l5.92-4.614l5.92,4.614c0.092,0.071,0.2,0.105,0.308,0.105
		c0.148,0,0.296-0.066,0.395-0.192c0.17-0.218,0.131-0.532-0.087-0.702l-5.721-4.459l5.721-4.459
		C18.543,14.085,18.547,14.075,18.556,14.067z M7.747,14.603c1.307,0.218,2.746,0.337,4.252,0.337c1.506,0,2.946-0.119,4.253-0.337
		l-4.253,3.315L7.747,14.603z"/>
	<path d="M6.6,12.339c0.276-0.01,0.491-0.242,0.481-0.518l-0.316-8.59C6.744,2.658,6.951,2.116,7.349,1.704
		c0.397-0.413,0.932-0.64,1.505-0.64h6.282c0.572,0,1.106,0.227,1.504,0.64c0.397,0.412,0.605,0.955,0.584,1.527l-0.316,8.59
		c-0.01,0.276,0.206,0.508,0.481,0.518c0.007,0,0.013,0,0.019,0c0.268,0,0.489-0.212,0.5-0.481l0.316-8.59
		c0.03-0.846-0.276-1.648-0.864-2.258c-0.587-0.609-1.377-0.945-2.224-0.945H8.854c-0.847,0-1.637,0.336-2.225,0.946
		C6.041,1.619,5.735,2.422,5.766,3.268l0.316,8.59C6.092,12.134,6.324,12.356,6.6,12.339z"/>
</g>
</svg>
