<?xml version="1.0" encoding="utf-8"?>
<!-- Generator: Adobe Illustrator 19.2.0, SVG Export Plug-In . SVG Version: 6.00 Build 0)  -->
<svg version="1.1" id="Layer_1" xmlns="http://www.w3.org/2000/svg" xmlns:xlink="http://www.w3.org/1999/xlink" x="0px" y="0px"
	 width="24px" height="24px" viewBox="0 0 24 24" style="enable-background:new 0 0 24 24;" xml:space="preserve">
<path d="M22.293,13.361l-4.712,1.263l-4.604-2.658l4.605-2.659l4.711,1.262c0.044,0.012,0.087,0.017,0.13,0.017
	c0.221,0,0.423-0.147,0.483-0.371c0.071-0.267-0.087-0.541-0.354-0.612L18.807,8.6l3.216-1.857c0.239-0.138,0.321-0.444,0.183-0.683
	c-0.138-0.24-0.445-0.322-0.683-0.183l-3.216,1.857l1.004-3.746c0.071-0.267-0.087-0.541-0.354-0.612
	c-0.262-0.072-0.54,0.087-0.612,0.354l-1.262,4.712L12.477,11.1V5.83l3.449-3.449c0.195-0.195,0.195-0.512,0-0.707
	s-0.512-0.195-0.707,0l-2.742,2.742V0.654c0-0.276-0.224-0.5-0.5-0.5s-0.5,0.224-0.5,0.5v3.762l-2.74-2.741
	c-0.195-0.195-0.512-0.195-0.707,0s-0.195,0.512,0,0.707l3.447,3.449v5.269L6.914,8.465L5.652,3.754
	C5.581,3.488,5.306,3.33,5.04,3.4C4.773,3.471,4.615,3.746,4.686,4.012l1.003,3.746L2.431,5.877C2.192,5.738,1.886,5.82,1.748,6.06
	C1.609,6.299,1.691,6.605,1.931,6.743l3.258,1.881L1.445,9.627C1.178,9.698,1.02,9.972,1.091,10.239
	c0.06,0.223,0.262,0.371,0.482,0.371c0.043,0,0.086-0.005,0.13-0.017l4.71-1.261l4.563,2.634L6.415,14.6l-4.712-1.263
	c-0.264-0.064-0.541,0.088-0.612,0.354c-0.072,0.268,0.087,0.541,0.354,0.613l3.745,1.004l-3.258,1.881
	c-0.239,0.138-0.321,0.443-0.183,0.683c0.093,0.16,0.261,0.25,0.434,0.25c0.085,0,0.171-0.021,0.25-0.067l3.258-1.881l-1.004,3.744
	c-0.072,0.268,0.087,0.541,0.354,0.613c0.043,0.011,0.087,0.017,0.13,0.017c0.221,0,0.422-0.147,0.482-0.37l1.263-4.711l4.562-2.634
	v5.317l-3.448,3.449c-0.195,0.195-0.195,0.512,0,0.707c0.098,0.098,0.226,0.146,0.354,0.146s0.256-0.049,0.354-0.146l2.741-2.742
	v3.714c0,0.276,0.224,0.5,0.5,0.5s0.5-0.224,0.5-0.5v-3.714l2.742,2.742c0.195,0.195,0.512,0.195,0.707,0s0.195-0.512,0-0.707
	l-3.449-3.449v-5.317l4.604,2.658l1.263,4.713c0.061,0.223,0.263,0.37,0.483,0.37c0.043,0,0.086-0.006,0.13-0.017
	c0.267-0.072,0.425-0.346,0.354-0.613l-1.005-3.746l3.216,1.857c0.079,0.046,0.165,0.067,0.25,0.067c0.172,0,0.341-0.09,0.433-0.25
	c0.139-0.239,0.057-0.545-0.183-0.683l-3.216-1.857l3.746-1.003c0.267-0.072,0.425-0.346,0.354-0.613
	C22.834,13.449,22.564,13.296,22.293,13.361z"/>
</svg>
