<?xml version="1.0" encoding="utf-8"?>
<!-- Generator: Adobe Illustrator 19.2.0, SVG Export Plug-In . SVG Version: 6.00 Build 0)  -->
<svg version="1.1" id="Layer_1" xmlns="http://www.w3.org/2000/svg" xmlns:xlink="http://www.w3.org/1999/xlink" x="0px" y="0px"
	 width="24px" height="24px" viewBox="0 0 24 24" style="enable-background:new 0 0 24 24;" xml:space="preserve">
<g>
	<path d="M23.464,21.992H12.052v-6.685c0.048-0.301,0.544-3.19,2.173-4.187c0.636-0.389,1.358-0.434,2.213-0.142
		c0.262,0.09,0.545-0.05,0.635-0.31c0.09-0.261-0.049-0.545-0.311-0.635c-1.138-0.392-2.169-0.313-3.062,0.235
		c-0.724,0.444-1.256,1.146-1.649,1.883V5.709c0-0.276-0.224-0.5-0.5-0.5s-0.5,0.224-0.5,0.5v6.086
		c-0.493-0.638-1.146-1.256-1.908-1.39C8.71,10.33,8.052,10.38,7.388,11.059c-0.193,0.197-0.19,0.514,0.008,0.707
		s0.514,0.19,0.707-0.008c0.389-0.397,0.683-0.398,0.869-0.368c0.876,0.153,1.775,1.667,2.081,2.299v8.304H0.592
		c-0.276,0-0.5,0.224-0.5,0.5s0.224,0.5,0.5,0.5h22.872c0.276,0,0.5-0.224,0.5-0.5S23.74,21.992,23.464,21.992z"/>
	<path d="M5.885,17.054c1.469,0.721,3.124,0.546,4.427-0.467c0.218-0.169,0.258-0.483,0.088-0.701
		c-0.169-0.217-0.482-0.259-0.702-0.088c-0.994,0.771-2.254,0.906-3.374,0.358c-1.264-0.619-2.049-1.944-2.049-3.458
		c0-1.366,0.676-2.632,1.764-3.304c0.189-0.117,0.278-0.344,0.219-0.558c-0.537-1.951-0.146-4.05,1.047-5.616
		c1.051-1.38,2.595-2.171,4.235-2.171c2.714,0,5.001,2.129,5.438,5.062c0.028,0.195,0.17,0.355,0.36,0.408
		c2.195,0.608,3.728,2.763,3.728,5.24c0,2.983-2.216,5.411-4.938,5.411c-1.004,0-1.97-0.329-2.793-0.951
		c-0.221-0.163-0.533-0.123-0.701,0.098c-0.167,0.221-0.123,0.534,0.098,0.701c0.999,0.754,2.172,1.152,3.396,1.152
		c3.274,0,5.938-2.876,5.938-6.411c0-2.81-1.692-5.274-4.152-6.109c-0.625-3.264-3.26-5.601-6.374-5.601
		c-1.955,0-3.789,0.935-5.031,2.565C5.201,4.333,4.725,6.603,5.208,8.752c-1.2,0.889-1.932,2.368-1.932,3.947
		C3.276,14.597,4.275,16.266,5.885,17.054z"/>
</g>
</svg>
