<?xml version="1.0" encoding="utf-8"?>
<!-- Generator: Adobe Illustrator 19.2.0, SVG Export Plug-In . SVG Version: 6.00 Build 0)  -->
<svg version="1.1" id="Layer_1" xmlns="http://www.w3.org/2000/svg" xmlns:xlink="http://www.w3.org/1999/xlink" x="0px" y="0px"
	 width="24px" height="24px" viewBox="0 0 24 24" style="enable-background:new 0 0 24 24;" xml:space="preserve">
<path d="M21.932,10.852c-0.714-0.714-2.675-1.615-4.661-2.405V8.108c0-2.211-1.372-4.1-3.305-4.881
	c-0.048-0.448-0.045-1.483,0.904-2.033c0.239-0.139,0.32-0.445,0.182-0.684c-0.14-0.24-0.447-0.32-0.684-0.182
	c-1.111,0.644-1.414,1.758-1.419,2.606c-0.308-0.056-0.622-0.096-0.945-0.096c-0.367,0-0.725,0.039-1.071,0.111
	c-0.016-0.842-0.327-1.925-1.417-2.557c-0.24-0.14-0.545-0.057-0.684,0.182C8.692,0.814,8.773,1.119,9.012,1.258
	c0.939,0.544,0.954,1.554,0.907,2.015c-1.871,0.809-3.185,2.67-3.185,4.835v0.339c-1.986,0.791-3.947,1.691-4.661,2.405
	c-0.823,0.823-1.276,1.917-1.276,3.08c0,1.164,0.453,2.258,1.276,3.08c0.823,0.823,1.917,1.275,3.08,1.275
	c0.811,0,1.582-0.232,2.257-0.644c0.834,2.051,2.544,4.117,4.092,4.505v1.155c0,0.276,0.224,0.5,0.5,0.5s0.5-0.224,0.5-0.5v-1.155
	c1.549-0.388,3.26-2.454,4.093-4.505c0.675,0.412,1.446,0.644,2.257,0.644c1.163,0,2.258-0.452,3.08-1.275
	c0.823-0.822,1.275-1.916,1.275-3.08C23.207,12.768,22.755,11.675,21.932,10.852z M12.002,3.839c2.335,0,4.234,1.887,4.263,4.216
	c-1.951-0.741-3.723-1.323-4.108-1.448c-0.006-0.002-0.013,0.001-0.019-0.001c-0.044-0.013-0.089-0.005-0.135-0.005
	s-0.091-0.007-0.135,0.005c-0.006,0.002-0.013-0.001-0.019,0.001C11.463,6.732,9.69,7.315,7.739,8.056
	C7.768,5.727,9.667,3.839,12.002,3.839z M14.732,18.985H9.273C8.861,18.387,8.502,17.711,8.243,17
	c0.004-0.004,0.008-0.01,0.012-0.014h7.494c0.004,0.004,0.008,0.011,0.012,0.015C15.504,17.711,15.145,18.387,14.732,18.985z
	 M8.961,15.985c0.323-0.556,0.66-1.245,0.994-2h4.096c0.334,0.755,0.671,1.444,0.994,2H8.961z M10.381,12.985
	c0.275-0.666,0.54-1.346,0.785-2h1.672c0.245,0.654,0.51,1.334,0.785,2H10.381z M11.533,9.985c0.176-0.488,0.334-0.937,0.469-1.331
	c0.136,0.394,0.293,0.843,0.469,1.331H11.533z M2.78,16.304c-1.308-1.309-1.308-3.437,0-4.746c1.025-1.025,5.795-2.789,8.432-3.686
	c-0.897,2.637-2.661,7.406-3.686,8.432C6.218,17.613,4.089,17.613,2.78,16.304z M12.002,21.219c-0.508,0-1.23-0.484-1.931-1.234
	h3.864C13.234,20.736,12.511,21.219,12.002,21.219z M21.225,16.304c-1.309,1.309-3.438,1.309-4.746,0
	c-1.025-1.025-2.789-5.794-3.686-8.432c2.637,0.897,7.406,2.66,8.432,3.686C22.533,12.867,22.533,14.996,21.225,16.304z"/>
</svg>
