<?xml version="1.0" encoding="utf-8"?>
<!-- Generator: Adobe Illustrator 19.2.0, SVG Export Plug-In . SVG Version: 6.00 Build 0)  -->
<svg version="1.1" id="Layer_1" xmlns="http://www.w3.org/2000/svg" xmlns:xlink="http://www.w3.org/1999/xlink" x="0px" y="0px"
	 width="24px" height="24px" viewBox="0 0 24 24" style="enable-background:new 0 0 24 24;" xml:space="preserve">
<g>
	<path d="M23.006,13.844c0.533-0.444,0.804-1.068,0.804-1.853c0-0.782-0.271-1.404-0.805-1.85c-1.077-0.898-3.027-0.892-5.07-0.625
		c1.638-1.253,3.024-2.618,3.15-3.995c0.063-0.692-0.186-1.325-0.741-1.88c-0.554-0.553-1.2-0.804-1.877-0.738
		c-1.354,0.123-2.716,1.456-4.028,3.152c0.273-2.049,0.29-3.999-0.596-5.062c-0.444-0.534-1.068-0.804-1.854-0.804
		c-0.783,0-1.407,0.27-1.853,0.802C9.249,2.049,9.255,3.982,9.512,6.01C7.876,3.917,6.67,2.988,5.53,2.887
		C4.854,2.83,4.214,3.081,3.653,3.642c-0.554,0.554-0.802,1.186-0.739,1.88c0.127,1.39,1.475,2.724,3.144,3.995
		c-2.043-0.264-3.99-0.271-5.066,0.627c-0.534,0.445-0.805,1.067-0.805,1.848c0,0.783,0.271,1.405,0.806,1.851
		c1.071,0.894,2.974,0.881,5.057,0.6c-1.693,1.31-3.023,2.672-3.146,4.028c-0.063,0.693,0.185,1.324,0.736,1.876
		c0.554,0.553,1.181,0.797,1.879,0.739c1.389-0.127,2.726-1.479,4-3.153c-0.271,2.126-0.249,4.031,0.622,5.075
		c0.445,0.534,1.067,0.805,1.848,0.805c0.784,0,1.408-0.272,1.854-0.811c0.896-1.081,0.873-3.051,0.59-5.124
		c1.268,1.669,2.647,3.08,4.039,3.21c0.69,0.058,1.326-0.185,1.883-0.741c0.553-0.553,0.802-1.185,0.739-1.878
		c-0.118-1.315-1.303-2.603-3.152-4.029C19.995,14.713,21.944,14.728,23.006,13.844z M15.659,14.018
		c1.395,0.966,4.299,2.975,4.439,4.54c0.035,0.39-0.112,0.743-0.45,1.081c-0.341,0.34-0.691,0.492-1.083,0.452
		c-1.56-0.146-3.593-3.119-4.57-4.549c-0.134-0.195-0.385-0.269-0.604-0.18c-0.219,0.091-0.344,0.322-0.3,0.555
		c0.345,1.829,0.987,5.233-0.018,6.445c-0.25,0.303-0.605,0.449-1.083,0.449c-0.477,0-0.83-0.146-1.08-0.445
		c-1.009-1.21-0.377-4.683-0.073-6.351c0.042-0.232-0.083-0.462-0.301-0.552c-0.062-0.025-0.127-0.038-0.191-0.038
		c-0.16,0-0.316,0.077-0.412,0.216c-1.039,1.506-2.971,4.308-4.504,4.447c-0.386,0.032-0.743-0.111-1.081-0.45
		C4.011,19.302,3.865,18.95,3.9,18.56c0.143-1.574,3.152-3.653,4.438-4.542c0.194-0.134,0.268-0.385,0.178-0.603
		c-0.09-0.218-0.321-0.347-0.552-0.3c-1.8,0.331-5.148,0.943-6.33-0.041c-0.3-0.25-0.446-0.604-0.446-1.083
		c0-0.477,0.146-0.831,0.445-1.081c1.207-1.008,4.681-0.375,6.351-0.073c0.235,0.044,0.461-0.083,0.552-0.301
		c0.09-0.218,0.015-0.469-0.179-0.603C6.851,8.899,4.051,6.969,3.91,5.431c-0.036-0.39,0.111-0.744,0.45-1.082
		C4.711,3.997,5.058,3.85,5.443,3.884c1.343,0.118,3.094,2.391,4.47,4.359c0.134,0.192,0.386,0.265,0.601,0.175
		c0.217-0.09,0.342-0.318,0.301-0.549c-0.312-1.77-0.895-5.063,0.087-6.235c0.251-0.299,0.606-0.445,1.087-0.445
		c0.481,0,0.836,0.146,1.085,0.444c0.986,1.184,0.346,4.661,0.038,6.332c-0.042,0.231,0.083,0.462,0.301,0.552
		c0.214,0.089,0.468,0.017,0.603-0.177c0.965-1.396,2.974-4.298,4.541-4.44c0.383-0.033,0.743,0.112,1.08,0.449
		c0.34,0.34,0.488,0.694,0.452,1.082c-0.14,1.537-3.05,3.541-4.448,4.504c-0.194,0.133-0.269,0.385-0.179,0.603
		c0.089,0.217,0.314,0.347,0.552,0.301c1.669-0.303,5.146-0.935,6.35,0.071c0.301,0.25,0.446,0.604,0.446,1.082
		c0,0.48-0.146,0.835-0.444,1.084c-1.18,0.984-4.532,0.369-6.332,0.04c-0.238-0.046-0.463,0.083-0.552,0.3
		C15.392,13.634,15.465,13.885,15.659,14.018z"/>
	<path d="M11.929,9.135c-1.57,0-2.848,1.277-2.848,2.848s1.277,2.848,2.848,2.848s2.848-1.277,2.848-2.848
		S13.499,9.135,11.929,9.135z M11.929,13.83c-1.019,0-1.848-0.829-1.848-1.848s0.829-1.848,1.848-1.848s1.848,0.829,1.848,1.848
		S12.948,13.83,11.929,13.83z"/>
</g>
</svg>
