<?xml version="1.0" encoding="utf-8"?>
<!-- Generator: Adobe Illustrator 19.2.0, SVG Export Plug-In . SVG Version: 6.00 Build 0)  -->
<svg version="1.1" id="Layer_1" xmlns="http://www.w3.org/2000/svg" xmlns:xlink="http://www.w3.org/1999/xlink" x="0px" y="0px"
	 width="24px" height="24px" viewBox="0 0 24 24" style="enable-background:new 0 0 24 24;" xml:space="preserve">
<path d="M22.44,0.106C21.874,0.068,8.552-0.751,3.895,5.361c-1.787,2.344-2.048,5.381-0.778,9.027
	c0.09,0.262,0.375,0.402,0.637,0.308c0.261-0.091,0.398-0.375,0.308-0.636C2.908,10.75,3.119,8.028,4.689,5.968
	c3.866-5.074,14.807-4.971,17.214-4.885c-0.091,5.898-1.87,10.549-5.034,13.129c-2.601,2.121-6.017,2.812-10.141,2.095
	c1.016-2.096,3.031-4.633,7.184-7.597c0.015-0.01,0.029-0.021,0.044-0.031c0.225-0.16,0.277-0.472,0.117-0.697
	c-0.161-0.225-0.473-0.276-0.697-0.117c-0.055,0.039-0.109,0.078-0.163,0.117c-0.006,0.002-0.004,0.002-0.005,0.004
	c-7.4,5.317-12.862,12.631-12.161,14.942c0.16,0.526,0.601,0.839,1.209,0.857c0.102,0.003,0.201,0.004,0.296,0.004
	c2.681,0,2.917-1.17,3.07-3.045c0.076-0.929,0.174-2.097,0.695-3.494c1.154,0.213,2.273,0.336,3.338,0.336
	c3.064,0,5.733-0.876,7.845-2.599c3.486-2.843,5.406-7.95,5.406-14.381C22.907,0.342,22.703,0.124,22.44,0.106z M4.626,20.662
	c-0.141,1.723-0.172,2.188-2.34,2.122c-0.239-0.007-0.263-0.085-0.282-0.148c-0.257-0.848,1.071-3.35,3.609-6.343
	C4.838,18.064,4.718,19.528,4.626,20.662z"/>
</svg>
