<?xml version="1.0" encoding="utf-8"?>
<!-- Generator: Adobe Illustrator 19.2.0, SVG Export Plug-In . SVG Version: 6.00 Build 0)  -->
<svg version="1.1" id="Layer_1" xmlns="http://www.w3.org/2000/svg" xmlns:xlink="http://www.w3.org/1999/xlink" x="0px" y="0px"
	 width="24px" height="24px" viewBox="0 0 24 24" style="enable-background:new 0 0 24 24;" xml:space="preserve">
<g>
	<path d="M2.14,10.13C2.05,10.23,2,10.36,2,10.49c0,0.12,0.05,0.25,0.15,0.35c0.1,0.09,0.22,0.14,0.35,0.14
		c0.13,0,0.26-0.05,0.36-0.14C2.95,10.74,3,10.61,3,10.49c0-0.13-0.05-0.26-0.15-0.36C2.66,9.95,2.35,9.94,2.14,10.13z"/>
	<path d="M2.15,16.13C2.06,16.219,2,16.349,2,16.49c0,0.13,0.05,0.26,0.15,0.35s0.22,0.15,0.35,0.15c0.13,0,0.25-0.05,0.36-0.15
		C2.95,16.74,3,16.62,3,16.49c0-0.141-0.05-0.271-0.15-0.36C2.67,15.94,2.33,15.95,2.15,16.13z"/>
	<path d="M11.15,10.13C11.06,10.22,11,10.35,11,10.49c0,0.13,0.06,0.26,0.15,0.35c0.09,0.09,0.22,0.15,0.35,0.15
		c0.13,0,0.26-0.06,0.36-0.16c0.09-0.09,0.14-0.22,0.14-0.34c0-0.13-0.05-0.26-0.15-0.36C11.66,9.94,11.33,9.95,11.15,10.13z"/>
	<path d="M11.15,16.13c-0.09,0.09-0.15,0.22-0.15,0.36c0,0.13,0.05,0.26,0.15,0.35c0.1,0.101,0.22,0.15,0.35,0.15
		c0.13,0,0.25-0.05,0.36-0.15c0.09-0.1,0.14-0.22,0.14-0.35c0-0.141-0.05-0.271-0.15-0.36C11.67,15.94,11.34,15.95,11.15,16.13z"/>
	<path d="M22.855,5.355l-2-1.983c-0.195-0.193-0.51-0.193-0.705,0l-2,1.983c-0.094,0.094-0.147,0.222-0.147,0.355v4.275h-4V5.71
		c0-0.133-0.054-0.261-0.147-0.355l-2-1.983c-0.195-0.193-0.509-0.193-0.704,0l-2,1.983C9.056,5.449,9.003,5.577,9.003,5.71v4.275
		h-4V5.71c0-0.133-0.053-0.261-0.148-0.355l-2-1.983c-0.195-0.193-0.509-0.193-0.704,0l-2,1.983C0.056,5.449,0.002,5.577,0.002,5.71
		v15.775c0,0.276,0.224,0.5,0.5,0.5h4c0.276,0,0.5-0.224,0.5-0.5v-4.5h4v4.5c0,0.276,0.224,0.5,0.5,0.5h4c0.276,0,0.5-0.224,0.5-0.5
		v-4.5h4v4.5c0,0.276,0.224,0.5,0.5,0.5h4c0.276,0,0.5-0.224,0.5-0.5V5.71C23.003,5.577,22.949,5.449,22.855,5.355z M4.002,20.985
		h-3V5.919l1.5-1.488l1.5,1.488V20.985z M5.002,15.985v-5h4v5H5.002z M13.003,20.985h-3V5.919l1.5-1.488l1.5,1.488V20.985z
		 M14.003,15.985v-5h4v5H14.003z M22.003,20.985h-3V5.919l1.5-1.488l1.5,1.488V20.985z"/>
	<path d="M20.149,10.13C20.05,10.23,20,10.35,20,10.49c0,0.12,0.06,0.25,0.149,0.35c0.091,0.09,0.221,0.15,0.351,0.15
		s0.26-0.06,0.359-0.15C20.95,10.74,21,10.61,21,10.49c0-0.13-0.05-0.26-0.141-0.36C20.67,9.95,20.33,9.94,20.149,10.13z"/>
	<path d="M20.149,16.13C20.06,16.23,20,16.36,20,16.49s0.05,0.25,0.149,0.35c0.101,0.09,0.221,0.15,0.351,0.15
		s0.26-0.061,0.359-0.15C20.95,16.74,21,16.61,21,16.49c0-0.13-0.05-0.26-0.15-0.36C20.67,15.95,20.34,15.94,20.149,16.13z"/>
</g>
</svg>
