<?xml version="1.0" encoding="utf-8"?>
<!-- Generator: Adobe Illustrator 19.2.0, SVG Export Plug-In . SVG Version: 6.00 Build 0)  -->
<svg version="1.1" id="Layer_1" xmlns="http://www.w3.org/2000/svg" xmlns:xlink="http://www.w3.org/1999/xlink" x="0px" y="0px"
	 width="24px" height="24px" viewBox="0 0 24 24" style="enable-background:new 0 0 24 24;" xml:space="preserve">
<g>
	<path d="M19.528,16.972l-0.573-1.252c0,0,0,0,0,0s0,0,0,0l-0.851-1.859c-0.116-0.252-0.414-0.36-0.663-0.247l-5.442,2.492
		l-5.441-2.491c-0.253-0.114-0.548-0.004-0.663,0.247L4.47,16.973c-0.055,0.12-0.06,0.258-0.014,0.382
		c0.046,0.125,0.14,0.226,0.261,0.281l1.979,0.906L4.718,19.44c-0.121,0.055-0.215,0.155-0.262,0.28
		c-0.046,0.124-0.042,0.262,0.014,0.383l0.574,1.254v0v0l0.851,1.858c0.084,0.184,0.265,0.292,0.455,0.292
		c0.069,0,0.14-0.015,0.208-0.045l5.44-2.491l5.441,2.491c0.065,0.029,0.137,0.045,0.208,0.045c0.059,0,0.118-0.011,0.174-0.031
		c0.125-0.046,0.226-0.14,0.281-0.261l0.849-1.854c0.001-0.002,0.003-0.002,0.004-0.004c0.001-0.003,0.001-0.005,0.002-0.008
		l0.57-1.246c0.114-0.251,0.004-0.548-0.247-0.663l-1.97-0.902l1.971-0.904C19.532,17.52,19.643,17.223,19.528,16.972z
		 M6.597,22.344l-0.435-0.949l1.101-0.505c0.251-0.114,0.361-0.411,0.246-0.662c-0.115-0.25-0.41-0.361-0.663-0.246l-1.101,0.504
		l-0.157-0.343l2.31-1.049l2.898,1.327L6.597,22.344z M18.252,20.485l-1.101-0.504c-0.249-0.111-0.546-0.004-0.663,0.247
		c-0.114,0.251-0.004,0.548,0.247,0.663l1.1,0.504l-0.434,0.949L5.587,16.935l0.159-0.346L7.969,17.6
		c0.067,0.03,0.138,0.045,0.207,0.045c0.19,0,0.372-0.108,0.456-0.293c0.114-0.251,0.003-0.548-0.248-0.662l-2.221-1.01l0.434-0.947
		l11.813,5.408L18.252,20.485z M16.108,17.988L13.2,16.656l4.202-1.924l0.434,0.948l-2.221,1.01
		c-0.251,0.114-0.362,0.411-0.248,0.662c0.084,0.185,0.266,0.293,0.455,0.293c0.069,0,0.14-0.015,0.207-0.045l2.223-1.011
		l0.158,0.345L16.108,17.988z"/>
	<path d="M16.467,6.573c-0.13-0.225-0.394-0.344-0.632-0.298c-1.077,0.18-1.786,1.099-2.213,1.917
		c-0.298-1.421-0.298-3.232-0.298-3.946c0-0.324-0.226-0.582-0.536-0.612c-0.77-0.083-2.067,1.561-2.511,3.808
		c-0.051,0.307-0.09,0.69-0.132,1.099c-0.043,0.43-0.096,0.943-0.172,1.394C9.395,8.908,8.53,7.549,8.048,7.383
		C7.892,7.329,7.652,7.359,7.521,7.456c-0.218,0.16-0.306,0.449-0.213,0.703c0.275,0.757,0.181,1.672,0.08,2.642
		c-0.07,0.674-0.142,1.371-0.087,2.044c0.022,0.261,0.24,0.459,0.498,0.459c0.014,0,0.027-0.001,0.042-0.002
		c0.275-0.022,0.48-0.264,0.458-0.54c-0.048-0.581,0.016-1.202,0.084-1.859c0.051-0.497,0.104-1.002,0.106-1.5
		c0.494,0.767,1.022,1.685,1.107,1.935c0.038,0.136,0.141,0.245,0.267,0.309c0.126,0.063,0.281,0.066,0.413,0.016
		c0.097-0.038,0.18-0.104,0.238-0.191c0.402-0.609,0.517-1.74,0.628-2.833c0.039-0.385,0.076-0.747,0.121-1.021
		c0.238-1.204,0.703-2.043,1.071-2.524c0.049,2.306,0.309,3.837,0.806,4.784c0.096,0.183,0.294,0.285,0.498,0.265
		c0.204-0.023,0.374-0.169,0.428-0.368c0.127-0.478,0.424-1.229,0.87-1.79c-0.205,0.929,0.097,1.824,0.374,2.645
		c0.24,0.712,0.468,1.384,0.38,2.044c-0.036,0.274,0.157,0.525,0.431,0.561c0.267,0.032,0.525-0.156,0.562-0.43
		c0.117-0.89-0.158-1.706-0.425-2.495c-0.388-1.148-0.693-2.054,0.145-3.032C16.569,7.081,16.597,6.798,16.467,6.573z"/>
	<path d="M23.499-0.015h-23c-0.276,0-0.5,0.224-0.5,0.5v22.946c0,0.276,0.224,0.5,0.5,0.5s0.5-0.224,0.5-0.5V0.985h22v22.446
		c0,0.276,0.224,0.5,0.5,0.5s0.5-0.224,0.5-0.5V0.485C23.999,0.209,23.775-0.015,23.499-0.015z"/>
</g>
</svg>
