<?xml version="1.0" encoding="utf-8"?>
<!-- Generator: Adobe Illustrator 19.2.0, SVG Export Plug-In . SVG Version: 6.00 Build 0)  -->
<svg version="1.1" id="Layer_1" xmlns="http://www.w3.org/2000/svg" xmlns:xlink="http://www.w3.org/1999/xlink" x="0px" y="0px"
	 width="24px" height="24px" viewBox="0 0 24 24" style="enable-background:new 0 0 24 24;" xml:space="preserve">
<path d="M20.471,17.969c-0.938-0.031-1.903,0.444-2.759,0.869c-1.217,0.603-1.682,0.758-1.88,0.417
	c-0.022-0.038-0.051-0.068-0.073-0.104c0.715-0.613,1.365-1.518,1.85-2.637c0.006-0.015,0.012-0.029,0.017-0.044l0.938-2.163
	c0.109-0.254-0.007-0.548-0.26-0.658l-2.196-0.953l4.689-10.808l0.621,0.269c0.065,0.028,0.133,0.042,0.199,0.042
	c0.193,0,0.377-0.112,0.459-0.301c0.109-0.253-0.007-0.548-0.26-0.658l-2.16-0.938c-0.258-0.111-0.548,0.006-0.658,0.259
	c-0.109,0.253,0.007,0.548,0.26,0.658l0.621,0.27l-4.69,10.809l-2.199-0.954c-0.122-0.053-0.259-0.056-0.383-0.006
	c-0.124,0.048-0.222,0.144-0.275,0.266l-0.959,2.209c-0.409,0.945-0.609,1.972-0.597,2.914c-0.205-0.03-0.407-0.061-0.622-0.087
	c-1.317-0.162-1.609-0.739-1.892-1.298c-0.264-0.521-0.66-1.312-1.991-0.738c-2.077,0.896-5.686,7.032-5.86,8.548
	c-0.032,0.273,0.165,0.521,0.439,0.554c0.02,0.002,0.039,0.003,0.058,0.003c0.25,0,0.467-0.188,0.496-0.442
	c0.138-1.197,3.6-7.026,5.264-7.744c0.461-0.2,0.463-0.201,0.702,0.271c0.304,0.603,0.814,1.612,2.662,1.839
	c2.944,0.362,4.235,0.918,4.935,2.125c0.703,1.21,2.082,0.526,3.189-0.023c0.748-0.37,1.591-0.791,2.275-0.765
	c1.116,0.044,1.944,2.929,2.171,4.319c0.044,0.272,0.308,0.46,0.573,0.413c0.272-0.044,0.458-0.301,0.413-0.573
	C23.505,22.61,22.703,18.057,20.471,17.969z M11.785,16.898c-0.043-0.844,0.13-1.818,0.506-2.686l0.76-1.751l1.74,0.755
	l-0.963,2.219c-0.109,0.254,0.007,0.548,0.26,0.658c0.065,0.028,0.133,0.041,0.199,0.041c0.193,0,0.377-0.112,0.459-0.301
	l0.963-2.219l1.738,0.754l-0.758,1.747c-0.006,0.015-0.012,0.028-0.016,0.043c-0.414,0.941-0.965,1.716-1.546,2.222
	C14.325,17.612,13.207,17.178,11.785,16.898z"/>
</svg>
