<?xml version="1.0" encoding="utf-8"?>
<!-- Generator: Adobe Illustrator 19.2.0, SVG Export Plug-In . SVG Version: 6.00 Build 0)  -->
<svg version="1.1" id="Layer_1" xmlns="http://www.w3.org/2000/svg" xmlns:xlink="http://www.w3.org/1999/xlink" x="0px" y="0px"
	 width="24px" height="24px" viewBox="0 0 24 24" style="enable-background:new 0 0 24 24;" xml:space="preserve">
<path d="M22.16,10.981c-0.996-0.906-2.314-1.384-3.731-1.353c-0.729-1.79-2.626-3.34-5.417-3.089
	c-1.816-1.408-4.151-1.776-6.289-0.978c-2.159,0.805-3.7,2.636-4.159,4.924c-1.818,1.192-2.616,3.085-2.085,4.988
	c0.566,2.029,2.496,3.447,4.692,3.447h13.436c2.751,0,5.074-2.128,5.074-4.647C23.682,13.06,23.127,11.861,22.16,10.981z
	 M18.607,17.921H5.171c-2.053,0-3.352-1.364-3.729-2.716c-0.43-1.542,0.255-3.032,1.833-3.986c0.125-0.075,0.21-0.201,0.234-0.345
	c0.342-2.036,1.674-3.671,3.563-4.376c0.63-0.235,1.281-0.351,1.926-0.351c1.265,0,2.511,0.443,3.543,1.296
	c0.105,0.087,0.245,0.13,0.378,0.111c2.718-0.335,4.227,1.272,4.689,2.745c0.07,0.225,0.278,0.38,0.524,0.348
	c1.247-0.115,2.472,0.272,3.354,1.074c0.759,0.69,1.194,1.62,1.194,2.552C22.682,16.251,20.815,17.921,18.607,17.921z"/>
</svg>
