<?xml version="1.0" encoding="utf-8"?>
<!-- Generator: Adobe Illustrator 19.2.0, SVG Export Plug-In . SVG Version: 6.00 Build 0)  -->
<svg version="1.1" id="Layer_1" xmlns="http://www.w3.org/2000/svg" xmlns:xlink="http://www.w3.org/1999/xlink" x="0px" y="0px"
	 width="24px" height="24px" viewBox="0 0 24 24" style="enable-background:new 0 0 24 24;" xml:space="preserve">
<g>
	<path d="M22.165,6.031c-0.996-0.905-2.319-1.379-3.731-1.353c-0.729-1.79-2.619-3.344-5.417-3.09
		C11.2,0.18,8.864-0.187,6.728,0.611c-2.159,0.805-3.7,2.636-4.159,4.924C0.75,6.727-0.047,8.62,0.484,10.524
		c0.566,2.029,2.496,3.447,4.692,3.447h1.731l-0.099,0.185c-0.13,0.244-0.039,0.547,0.205,0.677c0.075,0.041,0.156,0.06,0.235,0.06
		c0.179,0,0.351-0.096,0.441-0.264l0.352-0.657h3.321l-0.102,0.188c-0.132,0.243-0.042,0.547,0.201,0.679
		c0.076,0.041,0.158,0.061,0.238,0.061c0.177,0,0.349-0.095,0.44-0.261l0.362-0.666h3.283l-0.102,0.188
		c-0.132,0.243-0.042,0.546,0.2,0.679c0.076,0.041,0.158,0.061,0.239,0.061c0.177,0,0.349-0.095,0.439-0.261l0.363-0.666h1.688
		c2.751,0,5.074-2.128,5.074-4.647C23.687,8.11,23.132,6.91,22.165,6.031z M18.612,12.97H5.176c-2.052,0-3.352-1.364-3.729-2.715
		C1.017,8.714,1.702,7.223,3.28,6.269c0.125-0.075,0.21-0.201,0.234-0.345c0.342-2.036,1.674-3.672,3.563-4.376
		c0.63-0.235,1.281-0.351,1.926-0.351c1.265,0,2.51,0.443,3.542,1.296c0.105,0.087,0.243,0.127,0.378,0.111
		c2.719-0.333,4.227,1.273,4.689,2.746c0.07,0.225,0.273,0.376,0.524,0.348c1.247-0.119,2.472,0.272,3.354,1.073
		c0.759,0.69,1.194,1.621,1.194,2.552C22.687,11.3,20.82,12.97,18.612,12.97z"/>
	<path d="M6.284,16.192c-0.244-0.133-0.547-0.039-0.677,0.204L4.806,17.89c-0.13,0.243-0.039,0.547,0.205,0.677
		c0.075,0.041,0.156,0.06,0.236,0.06c0.178,0,0.351-0.096,0.441-0.264l0.801-1.494C6.619,16.626,6.527,16.322,6.284,16.192z"/>
	<path d="M4.282,19.927c-0.244-0.133-0.546-0.038-0.677,0.204l-0.472,0.882c-0.13,0.244-0.039,0.547,0.205,0.677
		c0.075,0.041,0.156,0.06,0.235,0.06c0.179,0,0.351-0.096,0.441-0.264l0.472-0.882C4.618,20.36,4.526,20.057,4.282,19.927z"/>
	<path d="M10.266,17.03c-0.244-0.131-0.547-0.041-0.678,0.2l-1.115,2.049c-0.132,0.243-0.042,0.547,0.2,0.679
		c0.076,0.041,0.158,0.061,0.239,0.061c0.177,0,0.349-0.095,0.439-0.261l1.115-2.049C10.598,17.466,10.508,17.162,10.266,17.03z"/>
	<path d="M7.477,22.151c-0.243-0.131-0.546-0.042-0.678,0.2L6.321,23.23c-0.132,0.243-0.042,0.547,0.201,0.679
		c0.076,0.041,0.158,0.061,0.238,0.061c0.177,0,0.349-0.095,0.44-0.261l0.478-0.879C7.81,22.587,7.72,22.283,7.477,22.151z"/>
	<path d="M15.141,16.198c-0.243-0.13-0.546-0.041-0.679,0.2l-0.813,1.493c-0.132,0.242-0.042,0.546,0.2,0.679
		c0.076,0.041,0.158,0.061,0.239,0.061c0.177,0,0.349-0.095,0.439-0.261l0.813-1.493C15.473,16.635,15.383,16.331,15.141,16.198z"/>
	<path d="M13.105,19.931c-0.243-0.131-0.546-0.041-0.678,0.2l-0.478,0.879c-0.132,0.243-0.042,0.547,0.201,0.679
		c0.076,0.041,0.158,0.061,0.238,0.061c0.177,0,0.349-0.095,0.44-0.261l0.478-0.879C13.438,20.367,13.349,20.063,13.105,19.931z"/>
</g>
</svg>
