<?xml version="1.0" encoding="utf-8"?>
<!-- Generator: Adobe Illustrator 19.2.0, SVG Export Plug-In . SVG Version: 6.00 Build 0)  -->
<svg version="1.1" id="Layer_1" xmlns="http://www.w3.org/2000/svg" xmlns:xlink="http://www.w3.org/1999/xlink" x="0px" y="0px"
	 width="24px" height="24px" viewBox="0 0 24 24" style="enable-background:new 0 0 24 24;" xml:space="preserve">
<g>
	<path d="M11.99,7.904c-2.225,0-4.035,1.81-4.035,4.035c0,2.225,1.81,4.034,4.035,4.034s4.035-1.81,4.035-4.034
		C16.025,9.714,14.215,7.904,11.99,7.904z M11.99,14.973c-1.673,0-3.035-1.361-3.035-3.034c0-1.674,1.361-3.035,3.035-3.035
		c1.674,0,3.035,1.361,3.035,3.035C15.025,13.612,13.664,14.973,11.99,14.973z"/>
	<path d="M23.095,11.46H18.73c-0.276,0-0.5,0.224-0.5,0.5s0.224,0.5,0.5,0.5h4.364c0.276,0,0.5-0.224,0.5-0.5
		S23.371,11.46,23.095,11.46z"/>
	<path d="M5.765,11.96c0-0.276-0.224-0.5-0.5-0.5H0.902c-0.276,0-0.5,0.224-0.5,0.5s0.224,0.5,0.5,0.5h4.363
		C5.541,12.46,5.765,12.236,5.765,11.96z"/>
	<path d="M11.998,5.727c0.276,0,0.5-0.224,0.5-0.5V0.864c0-0.276-0.224-0.5-0.5-0.5s-0.5,0.224-0.5,0.5v4.364
		C11.498,5.504,11.721,5.727,11.998,5.727z"/>
	<path d="M11.998,18.192c-0.276,0-0.5,0.224-0.5,0.5v4.364c0,0.276,0.224,0.5,0.5,0.5s0.5-0.224,0.5-0.5v-4.364
		C12.498,18.416,12.274,18.192,11.998,18.192z"/>
	<path d="M16.901,7.557c0.128,0,0.256-0.049,0.354-0.146l3.085-3.085c0.195-0.195,0.195-0.512,0-0.707s-0.512-0.195-0.707,0
		l-3.085,3.085c-0.195,0.195-0.195,0.512,0,0.707C16.646,7.508,16.773,7.557,16.901,7.557z"/>
	<path d="M6.742,16.51l-3.085,3.085c-0.195,0.195-0.195,0.512,0,0.707c0.098,0.098,0.226,0.146,0.354,0.146s0.256-0.049,0.354-0.146
		l3.085-3.085c0.195-0.195,0.195-0.512,0-0.707S6.937,16.314,6.742,16.51z"/>
	<path d="M17.255,16.51c-0.195-0.195-0.512-0.195-0.707,0s-0.195,0.512,0,0.707l3.085,3.085c0.098,0.098,0.226,0.146,0.354,0.146
		s0.256-0.049,0.354-0.146c0.195-0.195,0.195-0.512,0-0.707L17.255,16.51z"/>
	<path d="M4.363,3.618c-0.195-0.195-0.512-0.195-0.707,0s-0.195,0.512,0,0.707L6.742,7.41c0.098,0.098,0.226,0.146,0.354,0.146
		S7.351,7.508,7.449,7.41c0.195-0.195,0.195-0.512,0-0.707L4.363,3.618z"/>
</g>
</svg>
